%TF.GenerationSoftware,KiCad,Pcbnew,(6.0.5-0)*%
%TF.CreationDate,2022-06-25T23:29:46+09:00*%
%TF.ProjectId,MTCH6102_breakout,4d544348-3631-4303-925f-627265616b6f,rev?*%
%TF.SameCoordinates,Original*%
%TF.FileFunction,Legend,Bot*%
%TF.FilePolarity,Positive*%
%FSLAX46Y46*%
G04 Gerber Fmt 4.6, Leading zero omitted, Abs format (unit mm)*
G04 Created by KiCad (PCBNEW (6.0.5-0)) date 2022-06-25 23:29:46*
%MOMM*%
%LPD*%
G01*
G04 APERTURE LIST*
%ADD10C,0.150000*%
G04 APERTURE END LIST*
D10*
X174640278Y-154490993D02*
X175449802Y-154490993D01*
X175545040Y-154538612D01*
X175592659Y-154586231D01*
X175640278Y-154681469D01*
X175640278Y-154871945D01*
X175592659Y-154967183D01*
X175545040Y-155014802D01*
X175449802Y-155062421D01*
X174640278Y-155062421D01*
X174735517Y-155490993D02*
X174687898Y-155538612D01*
X174640278Y-155633850D01*
X174640278Y-155871945D01*
X174687898Y-155967183D01*
X174735517Y-156014802D01*
X174830755Y-156062421D01*
X174925993Y-156062421D01*
X175068850Y-156014802D01*
X175640278Y-155443374D01*
X175640278Y-156062421D01*
X128950278Y-154490993D02*
X129759802Y-154490993D01*
X129855040Y-154538612D01*
X129902659Y-154586231D01*
X129950278Y-154681469D01*
X129950278Y-154871945D01*
X129902659Y-154967183D01*
X129855040Y-155014802D01*
X129759802Y-155062421D01*
X128950278Y-155062421D01*
X129045517Y-155490993D02*
X128997898Y-155538612D01*
X128950278Y-155633850D01*
X128950278Y-155871945D01*
X128997898Y-155967183D01*
X129045517Y-156014802D01*
X129140755Y-156062421D01*
X129235993Y-156062421D01*
X129378850Y-156014802D01*
X129950278Y-155443374D01*
X129950278Y-156062421D01*
X186762898Y-152377898D02*
X186762898Y-158127898D01*
X176112898Y-152377898D02*
X176112898Y-158127898D01*
X186762898Y-152377898D02*
X186112898Y-152377898D01*
X176112898Y-152377898D02*
X176687898Y-152377898D01*
X176687898Y-152377898D02*
X176687898Y-150777898D01*
X186762898Y-158127898D02*
X186112898Y-158127898D01*
X176112898Y-158127898D02*
X176762898Y-158127898D01*
X141072898Y-152377898D02*
X141072898Y-158127898D01*
X130422898Y-152377898D02*
X130422898Y-158127898D01*
X141072898Y-152377898D02*
X140422898Y-152377898D01*
X130422898Y-152377898D02*
X130997898Y-152377898D01*
X130997898Y-152377898D02*
X130997898Y-150777898D01*
X141072898Y-158127898D02*
X140422898Y-158127898D01*
X130422898Y-158127898D02*
X131072898Y-158127898D01*
M02*
