M48
; DRILL file {KiCad (6.0.5-0)} date 
; FORMAT={-:-/ absolute / metric / decimal}
; #@! TF.CreationDate,2023-02-12T12:56:54+09:00
; #@! TF.GenerationSoftware,Kicad,Pcbnew,(6.0.5-0)
; #@! TF.FileFunction,MixedPlating,1,2
FMAT,2
METRIC
; #@! TA.AperFunction,Plated,PTH,ViaDrill
T1C0.400
; #@! TA.AperFunction,Plated,PTH,ComponentDrill
T2C0.400
; #@! TA.AperFunction,Plated,PTH,ComponentDrill
T3C2.200
%
G90
G05
T1
X110.174Y-106.453
X110.174Y-111.453
X110.174Y-116.453
X110.174Y-121.453
X110.174Y-126.453
X110.174Y-131.453
X110.174Y-136.453
X110.174Y-141.453
X112.395Y-147.32
X112.698Y-103.953
X112.698Y-108.953
X112.698Y-113.953
X112.698Y-118.953
X112.698Y-123.953
X112.698Y-128.953
X112.698Y-133.953
X112.698Y-138.953
X112.698Y-143.953
X114.198Y-103.953
X114.198Y-108.953
X114.198Y-113.953
X114.198Y-118.953
X114.198Y-123.953
X114.198Y-128.953
X114.198Y-133.953
X114.198Y-138.953
X114.198Y-143.953
X115.96Y-147.215
X115.974Y-100.453
X117.698Y-103.953
X117.698Y-108.953
X117.698Y-113.953
X117.698Y-118.953
X117.698Y-123.953
X117.698Y-128.953
X117.698Y-133.953
X117.698Y-138.953
X117.698Y-143.953
X119.198Y-103.953
X119.198Y-108.953
X119.198Y-113.953
X119.198Y-118.953
X119.198Y-123.953
X119.198Y-128.953
X119.198Y-133.953
X119.198Y-138.953
X119.198Y-143.953
X120.96Y-147.215
X120.974Y-100.453
X122.698Y-103.953
X122.698Y-108.953
X122.698Y-113.953
X122.698Y-118.953
X122.698Y-123.953
X122.698Y-128.953
X122.698Y-133.953
X122.698Y-138.953
X122.698Y-143.953
X124.198Y-103.953
X124.198Y-108.953
X124.198Y-113.953
X124.198Y-118.953
X124.198Y-123.953
X124.198Y-128.953
X124.198Y-133.953
X124.198Y-138.953
X124.198Y-143.953
X125.96Y-147.215
X125.974Y-100.453
X127.0Y-151.765
X127.698Y-103.953
X127.698Y-108.953
X127.698Y-113.953
X127.698Y-118.953
X127.698Y-123.953
X127.698Y-128.953
X127.698Y-133.953
X127.698Y-138.953
X127.698Y-143.953
X127.9Y-156.1
X129.198Y-103.953
X129.198Y-108.953
X129.198Y-113.953
X129.198Y-118.953
X129.198Y-123.953
X129.198Y-128.953
X129.198Y-133.953
X129.198Y-138.953
X129.198Y-143.953
X130.96Y-147.215
X130.974Y-100.453
X132.698Y-103.953
X132.698Y-108.953
X132.698Y-113.953
X132.698Y-118.953
X132.698Y-123.953
X132.698Y-128.953
X132.698Y-133.953
X132.698Y-138.953
X132.698Y-143.953
X134.198Y-103.953
X134.198Y-108.953
X134.198Y-113.953
X134.198Y-118.953
X134.198Y-123.953
X134.198Y-128.953
X134.198Y-133.953
X134.198Y-138.953
X134.198Y-143.953
X135.96Y-147.215
X135.974Y-100.453
X137.698Y-103.953
X137.698Y-108.953
X137.698Y-113.953
X137.698Y-118.953
X137.698Y-123.953
X137.698Y-128.953
X137.698Y-133.953
X137.698Y-138.953
X137.698Y-143.953
X139.198Y-103.953
X139.198Y-108.953
X139.198Y-113.953
X139.198Y-118.953
X139.198Y-123.953
X139.198Y-128.953
X139.198Y-133.953
X139.198Y-138.953
X139.198Y-143.953
X141.698Y-106.453
X141.698Y-111.453
X141.698Y-116.453
X141.698Y-121.453
X141.698Y-126.453
X141.698Y-131.453
X141.698Y-136.453
X141.698Y-141.453
X141.71Y-147.215
X155.905Y-106.46
X155.905Y-111.46
X155.905Y-116.46
X155.905Y-121.46
X155.905Y-126.46
X155.905Y-131.46
X155.905Y-136.46
X155.905Y-141.46
X158.126Y-147.327
X158.428Y-103.96
X158.428Y-108.96
X158.428Y-113.96
X158.428Y-118.96
X158.428Y-123.96
X158.428Y-128.96
X158.428Y-133.96
X158.428Y-138.96
X158.428Y-143.96
X159.928Y-103.96
X159.928Y-108.96
X159.928Y-113.96
X159.928Y-118.96
X159.928Y-123.96
X159.928Y-128.96
X159.928Y-133.96
X159.928Y-138.96
X159.928Y-143.96
X161.691Y-147.222
X161.705Y-100.46
X163.428Y-103.96
X163.428Y-108.96
X163.428Y-113.96
X163.428Y-118.96
X163.428Y-123.96
X163.428Y-128.96
X163.428Y-133.96
X163.428Y-138.96
X163.428Y-143.96
X164.928Y-103.96
X164.928Y-108.96
X164.928Y-113.96
X164.928Y-118.96
X164.928Y-123.96
X164.928Y-128.96
X164.928Y-133.96
X164.928Y-138.96
X164.928Y-143.96
X166.691Y-147.222
X166.705Y-100.46
X168.428Y-103.96
X168.428Y-108.96
X168.428Y-113.96
X168.428Y-118.96
X168.428Y-123.96
X168.428Y-128.96
X168.428Y-133.96
X168.428Y-138.96
X168.428Y-143.96
X169.928Y-103.96
X169.928Y-108.96
X169.928Y-113.96
X169.928Y-118.96
X169.928Y-123.96
X169.928Y-128.96
X169.928Y-133.96
X169.928Y-138.96
X169.928Y-143.96
X171.691Y-147.222
X171.705Y-100.46
X172.731Y-151.772
X173.428Y-103.96
X173.428Y-108.96
X173.428Y-113.96
X173.428Y-118.96
X173.428Y-123.96
X173.428Y-128.96
X173.428Y-133.96
X173.428Y-138.96
X173.428Y-143.96
X173.631Y-156.107
X174.928Y-103.96
X174.928Y-108.96
X174.928Y-113.96
X174.928Y-118.96
X174.928Y-123.96
X174.928Y-128.96
X174.928Y-133.96
X174.928Y-138.96
X174.928Y-143.96
X176.691Y-147.222
X176.705Y-100.46
X178.428Y-103.96
X178.428Y-108.96
X178.428Y-113.96
X178.428Y-118.96
X178.428Y-123.96
X178.428Y-128.96
X178.428Y-133.96
X178.428Y-138.96
X178.428Y-143.96
X179.928Y-103.96
X179.928Y-108.96
X179.928Y-113.96
X179.928Y-118.96
X179.928Y-123.96
X179.928Y-128.96
X179.928Y-133.96
X179.928Y-138.96
X179.928Y-143.96
X181.691Y-147.222
X181.705Y-100.46
X183.428Y-103.96
X183.428Y-108.96
X183.428Y-113.96
X183.428Y-118.96
X183.428Y-123.96
X183.428Y-128.96
X183.428Y-133.96
X183.428Y-138.96
X183.428Y-143.96
X184.928Y-103.96
X184.928Y-108.96
X184.928Y-113.96
X184.928Y-118.96
X184.928Y-123.96
X184.928Y-128.96
X184.928Y-133.96
X184.928Y-138.96
X184.928Y-143.96
X187.428Y-106.46
X187.428Y-111.46
X187.428Y-116.46
X187.428Y-121.46
X187.428Y-126.46
X187.428Y-131.46
X187.428Y-136.46
X187.428Y-141.46
X187.441Y-147.222
T2
X107.577Y-149.221
X107.64Y-98.421
X108.06Y-148.054
X108.06Y-150.388
X108.124Y-97.254
X108.124Y-99.588
X109.227Y-147.571
X109.227Y-150.871
X109.29Y-96.771
X109.29Y-100.071
X110.394Y-148.054
X110.394Y-150.388
X110.457Y-97.254
X110.457Y-99.588
X110.877Y-149.221
X110.94Y-98.421
X141.232Y-98.421
X141.232Y-167.001
X141.715Y-97.254
X141.715Y-99.588
X141.715Y-165.834
X141.715Y-168.168
X142.882Y-96.771
X142.882Y-100.071
X142.882Y-165.351
X142.882Y-168.651
X144.049Y-97.254
X144.049Y-99.588
X144.049Y-165.834
X144.049Y-168.168
X144.532Y-98.421
X144.532Y-167.001
X153.308Y-149.228
X153.371Y-98.428
X153.791Y-148.061
X153.791Y-150.395
X153.854Y-97.261
X153.854Y-99.595
X154.957Y-147.578
X154.957Y-150.878
X155.021Y-96.778
X155.021Y-100.078
X156.124Y-148.061
X156.124Y-150.395
X156.188Y-97.261
X156.188Y-99.595
X156.607Y-149.228
X156.671Y-98.428
X186.963Y-98.428
X186.963Y-167.008
X187.446Y-97.261
X187.446Y-99.595
X187.446Y-165.841
X187.446Y-168.175
X188.612Y-96.778
X188.612Y-100.078
X188.612Y-165.358
X188.612Y-168.658
X189.779Y-97.261
X189.779Y-99.595
X189.779Y-165.841
X189.779Y-168.175
X190.262Y-98.428
X190.262Y-167.008
T3
X109.227Y-149.221
X109.29Y-98.421
X142.882Y-98.421
X142.882Y-167.001
X154.957Y-149.228
X155.021Y-98.428
X188.612Y-98.428
X188.612Y-167.008
T0
M30
