%TF.GenerationSoftware,KiCad,Pcbnew,(6.0.5-0)*%
%TF.CreationDate,2022-06-25T23:29:46+09:00*%
%TF.ProjectId,MTCH6102_breakout,4d544348-3631-4303-925f-627265616b6f,rev?*%
%TF.SameCoordinates,Original*%
%TF.FileFunction,Legend,Top*%
%TF.FilePolarity,Positive*%
%FSLAX46Y46*%
G04 Gerber Fmt 4.6, Leading zero omitted, Abs format (unit mm)*
G04 Created by KiCad (PCBNEW (6.0.5-0)) date 2022-06-25 23:29:46*
%MOMM*%
%LPD*%
G01*
G04 APERTURE LIST*
%ADD10C,0.150000*%
%ADD11C,0.200000*%
G04 APERTURE END LIST*
D10*
X200660000Y-94615000D02*
X194310000Y-100965000D01*
X166877898Y-146687898D02*
X171577898Y-146687898D01*
X186477898Y-101687898D02*
X184227898Y-103887898D01*
X164227898Y-128987898D02*
X161877898Y-126687898D01*
X161877898Y-131687898D02*
X164227898Y-129387898D01*
G36*
X159052898Y-139137898D02*
G01*
X156802898Y-141337898D01*
X156802898Y-136937898D01*
X159052898Y-139137898D01*
G37*
X159052898Y-139137898D02*
X156802898Y-141337898D01*
X156802898Y-136937898D01*
X159052898Y-139137898D01*
X181577898Y-106687898D02*
X179227898Y-108987898D01*
X176477898Y-101687898D02*
X174227898Y-103887898D01*
X176877898Y-146687898D02*
X181577898Y-146687898D01*
G36*
X184027898Y-124137898D02*
G01*
X181727898Y-126437898D01*
X179427898Y-124137898D01*
X181727898Y-121887898D01*
X184027898Y-124137898D01*
G37*
X184027898Y-124137898D02*
X181727898Y-126437898D01*
X179427898Y-124137898D01*
X181727898Y-121887898D01*
X184027898Y-124137898D01*
X176577898Y-141687898D02*
X174227898Y-143987898D01*
G36*
X184027898Y-109137898D02*
G01*
X181727898Y-111437898D01*
X179427898Y-109137898D01*
X181727898Y-106887898D01*
X184027898Y-109137898D01*
G37*
X184027898Y-109137898D02*
X181727898Y-111437898D01*
X179427898Y-109137898D01*
X181727898Y-106887898D01*
X184027898Y-109137898D01*
X176877898Y-126687898D02*
X179227898Y-124387898D01*
G36*
X174027898Y-139137898D02*
G01*
X171727898Y-141437898D01*
X169427898Y-139137898D01*
X171727898Y-136887898D01*
X174027898Y-139137898D01*
G37*
X174027898Y-139137898D02*
X171727898Y-141437898D01*
X169427898Y-139137898D01*
X171727898Y-136887898D01*
X174027898Y-139137898D01*
X156877898Y-146687898D02*
X159227898Y-144387898D01*
X184227898Y-144387898D02*
X186577898Y-146687898D01*
X186577898Y-116687898D02*
X184227898Y-118987898D01*
X179227898Y-128987898D02*
X176877898Y-126687898D01*
X186577898Y-121687898D02*
X184227898Y-123987898D01*
X166877898Y-116687898D02*
X169227898Y-114387898D01*
X164227898Y-124387898D02*
X166577898Y-126687898D01*
G36*
X179027898Y-134137898D02*
G01*
X176727898Y-136437898D01*
X174427898Y-134137898D01*
X176727898Y-131887898D01*
X179027898Y-134137898D01*
G37*
X179027898Y-134137898D02*
X176727898Y-136437898D01*
X174427898Y-134137898D01*
X176727898Y-131887898D01*
X179027898Y-134137898D01*
X169227898Y-144387898D02*
X171577898Y-146687898D01*
X169227898Y-133987898D02*
X166877898Y-131687898D01*
X176577898Y-121687898D02*
X174227898Y-123987898D01*
X159227898Y-123987898D02*
X156877898Y-121687898D01*
X176877898Y-116687898D02*
X179227898Y-114387898D01*
X164227898Y-104387898D02*
X166577898Y-106687898D01*
G36*
X159052898Y-104112898D02*
G01*
X156802898Y-106337898D01*
X156802898Y-101862898D01*
X159052898Y-104112898D01*
G37*
X159052898Y-104112898D02*
X156802898Y-106337898D01*
X156802898Y-101862898D01*
X159052898Y-104112898D01*
X169227898Y-109387898D02*
X171577898Y-111687898D01*
X161877898Y-136687898D02*
X164227898Y-134387898D01*
G36*
X159052898Y-124137898D02*
G01*
X156802898Y-126337898D01*
X156802898Y-121937898D01*
X159052898Y-124137898D01*
G37*
X159052898Y-124137898D02*
X156802898Y-126337898D01*
X156802898Y-121937898D01*
X159052898Y-124137898D01*
G36*
X174027898Y-109137898D02*
G01*
X171727898Y-111437898D01*
X169427898Y-109137898D01*
X171727898Y-106887898D01*
X174027898Y-109137898D01*
G37*
X174027898Y-109137898D02*
X171727898Y-111437898D01*
X169427898Y-109137898D01*
X171727898Y-106887898D01*
X174027898Y-109137898D01*
X171577898Y-116687898D02*
X169227898Y-118987898D01*
X186577898Y-126687898D02*
X184227898Y-128987898D01*
X169227898Y-138987898D02*
X166877898Y-136687898D01*
X184227898Y-123987898D02*
X181877898Y-121687898D01*
G36*
X174027898Y-124137898D02*
G01*
X171727898Y-126437898D01*
X169427898Y-124137898D01*
X171727898Y-121887898D01*
X174027898Y-124137898D01*
G37*
X174027898Y-124137898D02*
X171727898Y-126437898D01*
X169427898Y-124137898D01*
X171727898Y-121887898D01*
X174027898Y-124137898D01*
X177027898Y-101687898D02*
X181477898Y-101687898D01*
X161577898Y-106687898D02*
X159227898Y-108987898D01*
X179227898Y-109387898D02*
X181577898Y-111687898D01*
G36*
X174027898Y-144137898D02*
G01*
X171727898Y-146437898D01*
X169427898Y-144137898D01*
X171727898Y-141887898D01*
X174027898Y-144137898D01*
G37*
X174027898Y-144137898D02*
X171727898Y-146437898D01*
X169427898Y-144137898D01*
X171727898Y-141887898D01*
X174027898Y-144137898D01*
G36*
X179027898Y-129137898D02*
G01*
X176727898Y-131437898D01*
X174427898Y-129137898D01*
X176727898Y-126887898D01*
X179027898Y-129137898D01*
G37*
X179027898Y-129137898D02*
X176727898Y-131437898D01*
X174427898Y-129137898D01*
X176727898Y-126887898D01*
X179027898Y-129137898D01*
X159227898Y-113987898D02*
X156877898Y-111687898D01*
X164227898Y-129387898D02*
X166577898Y-131687898D01*
X179227898Y-129387898D02*
X181577898Y-131687898D01*
G36*
X169027898Y-109137898D02*
G01*
X166727898Y-111437898D01*
X164427898Y-109137898D01*
X166727898Y-106887898D01*
X169027898Y-109137898D01*
G37*
X169027898Y-109137898D02*
X166727898Y-111437898D01*
X164427898Y-109137898D01*
X166727898Y-106887898D01*
X169027898Y-109137898D01*
X176877898Y-141687898D02*
X179227898Y-139387898D01*
G36*
X174027898Y-119137898D02*
G01*
X171727898Y-121437898D01*
X169427898Y-119137898D01*
X171727898Y-116887898D01*
X174027898Y-119137898D01*
G37*
X174027898Y-119137898D02*
X171727898Y-121437898D01*
X169427898Y-119137898D01*
X171727898Y-116887898D01*
X174027898Y-119137898D01*
X171577898Y-136687898D02*
X169227898Y-138987898D01*
X166577898Y-141687898D02*
X164227898Y-143987898D01*
X174227898Y-134387898D02*
X176577898Y-136687898D01*
X164227898Y-109387898D02*
X166577898Y-111687898D01*
X164227898Y-103887898D02*
X162027898Y-101687898D01*
X166877898Y-121687898D02*
X169227898Y-119387898D01*
X181577898Y-121687898D02*
X179227898Y-123987898D01*
X184227898Y-133987898D02*
X181877898Y-131687898D01*
X166877898Y-106687898D02*
X169227898Y-104387898D01*
X176877898Y-106687898D02*
X179227898Y-104387898D01*
X169227898Y-143987898D02*
X166877898Y-141687898D01*
X184227898Y-143987898D02*
X181877898Y-141687898D01*
G36*
X164027898Y-134137898D02*
G01*
X161727898Y-136437898D01*
X159427898Y-134137898D01*
X161727898Y-131887898D01*
X164027898Y-134137898D01*
G37*
X164027898Y-134137898D02*
X161727898Y-136437898D01*
X159427898Y-134137898D01*
X161727898Y-131887898D01*
X164027898Y-134137898D01*
G36*
X159027898Y-144137898D02*
G01*
X156777898Y-146337898D01*
X156777898Y-141937898D01*
X159027898Y-144137898D01*
G37*
X159027898Y-144137898D02*
X156777898Y-146337898D01*
X156777898Y-141937898D01*
X159027898Y-144137898D01*
X164227898Y-138987898D02*
X161877898Y-136687898D01*
X164227898Y-139387898D02*
X166577898Y-141687898D01*
X167027898Y-101687898D02*
X171477898Y-101687898D01*
X166577898Y-116687898D02*
X164227898Y-118987898D01*
G36*
X184027898Y-144137898D02*
G01*
X181727898Y-146437898D01*
X179427898Y-144137898D01*
X181727898Y-141887898D01*
X184027898Y-144137898D01*
G37*
X184027898Y-144137898D02*
X181727898Y-146437898D01*
X179427898Y-144137898D01*
X181727898Y-141887898D01*
X184027898Y-144137898D01*
G36*
X186727898Y-131437898D02*
G01*
X184427898Y-129137898D01*
X186727898Y-126837898D01*
X186727898Y-131437898D01*
G37*
X186727898Y-131437898D02*
X184427898Y-129137898D01*
X186727898Y-126837898D01*
X186727898Y-131437898D01*
X179227898Y-103887898D02*
X177027898Y-101687898D01*
G36*
X184027898Y-119137898D02*
G01*
X181727898Y-121437898D01*
X179427898Y-119137898D01*
X181727898Y-116887898D01*
X184027898Y-119137898D01*
G37*
X184027898Y-119137898D02*
X181727898Y-121437898D01*
X179427898Y-119137898D01*
X181727898Y-116887898D01*
X184027898Y-119137898D01*
X171877898Y-116687898D02*
X174227898Y-114387898D01*
X161577898Y-116687898D02*
X159227898Y-118987898D01*
X176577898Y-116687898D02*
X174227898Y-118987898D01*
G36*
X169027898Y-129137898D02*
G01*
X166727898Y-131437898D01*
X164427898Y-129137898D01*
X166727898Y-126887898D01*
X169027898Y-129137898D01*
G37*
X169027898Y-129137898D02*
X166727898Y-131437898D01*
X164427898Y-129137898D01*
X166727898Y-126887898D01*
X169027898Y-129137898D01*
X161877898Y-141687898D02*
X164227898Y-139387898D01*
X171577898Y-131687898D02*
X169227898Y-133987898D01*
G36*
X164027898Y-129137898D02*
G01*
X161727898Y-131437898D01*
X159427898Y-129137898D01*
X161727898Y-126887898D01*
X164027898Y-129137898D01*
G37*
X164027898Y-129137898D02*
X161727898Y-131437898D01*
X159427898Y-129137898D01*
X161727898Y-126887898D01*
X164027898Y-129137898D01*
X159227898Y-134387898D02*
X161577898Y-136687898D01*
X159227898Y-143987898D02*
X156877898Y-141687898D01*
X179227898Y-119387898D02*
X181577898Y-121687898D01*
X166577898Y-136687898D02*
X164227898Y-138987898D01*
X179227898Y-124387898D02*
X181577898Y-126687898D01*
X159227898Y-128987898D02*
X156877898Y-126687898D01*
X181877898Y-126687898D02*
X184227898Y-124387898D01*
X156877898Y-126687898D02*
X159227898Y-124387898D01*
X159227898Y-114387898D02*
X161577898Y-116687898D01*
G36*
X169027898Y-139137898D02*
G01*
X166727898Y-141437898D01*
X164427898Y-139137898D01*
X166727898Y-136887898D01*
X169027898Y-139137898D01*
G37*
X169027898Y-139137898D02*
X166727898Y-141437898D01*
X164427898Y-139137898D01*
X166727898Y-136887898D01*
X169027898Y-139137898D01*
G36*
X184027898Y-139137898D02*
G01*
X181727898Y-141437898D01*
X179427898Y-139137898D01*
X181727898Y-136887898D01*
X184027898Y-139137898D01*
G37*
X184027898Y-139137898D02*
X181727898Y-141437898D01*
X179427898Y-139137898D01*
X181727898Y-136887898D01*
X184027898Y-139137898D01*
X172027898Y-101687898D02*
X176477898Y-101687898D01*
X164227898Y-144387898D02*
X166577898Y-146687898D01*
X159227898Y-118987898D02*
X156877898Y-116687898D01*
X174227898Y-103887898D02*
X172027898Y-101687898D01*
G36*
X169027898Y-134137898D02*
G01*
X166727898Y-136437898D01*
X164427898Y-134137898D01*
X166727898Y-131887898D01*
X169027898Y-134137898D01*
G37*
X169027898Y-134137898D02*
X166727898Y-136437898D01*
X164427898Y-134137898D01*
X166727898Y-131887898D01*
X169027898Y-134137898D01*
X159227898Y-129387898D02*
X161577898Y-131687898D01*
X174227898Y-123987898D02*
X171877898Y-121687898D01*
X179227898Y-114387898D02*
X181577898Y-116687898D01*
X174227898Y-144387898D02*
X176577898Y-146687898D01*
G36*
X186727898Y-141437898D02*
G01*
X184427898Y-139137898D01*
X186727898Y-136837898D01*
X186727898Y-141437898D01*
G37*
X186727898Y-141437898D02*
X184427898Y-139137898D01*
X186727898Y-136837898D01*
X186727898Y-141437898D01*
X161877898Y-106687898D02*
X164227898Y-104387898D01*
X161877898Y-111687898D02*
X164227898Y-109387898D01*
X169227898Y-114387898D02*
X171577898Y-116687898D01*
X166577898Y-126687898D02*
X164227898Y-128987898D01*
X181577898Y-116687898D02*
X179227898Y-118987898D01*
X174227898Y-119387898D02*
X176577898Y-121687898D01*
X186577898Y-111687898D02*
X184227898Y-113987898D01*
G36*
X186727898Y-121437898D02*
G01*
X184427898Y-119137898D01*
X186727898Y-116837898D01*
X186727898Y-121437898D01*
G37*
X186727898Y-121437898D02*
X184427898Y-119137898D01*
X186727898Y-116837898D01*
X186727898Y-121437898D01*
X159227898Y-108987898D02*
X156877898Y-106687898D01*
G36*
X186727898Y-116437898D02*
G01*
X184427898Y-114137898D01*
X186727898Y-111837898D01*
X186727898Y-116437898D01*
G37*
X186727898Y-116437898D02*
X184427898Y-114137898D01*
X186727898Y-111837898D01*
X186727898Y-116437898D01*
X181577898Y-131687898D02*
X179227898Y-133987898D01*
X181877898Y-146687898D02*
X184227898Y-144387898D01*
X171577898Y-111687898D02*
X169227898Y-113987898D01*
X166477898Y-101687898D02*
X164227898Y-103887898D01*
X176577898Y-106687898D02*
X174227898Y-108987898D01*
X181577898Y-136687898D02*
X179227898Y-138987898D01*
G36*
X164027898Y-144137898D02*
G01*
X161727898Y-146437898D01*
X159427898Y-144137898D01*
X161727898Y-141887898D01*
X164027898Y-144137898D01*
G37*
X164027898Y-144137898D02*
X161727898Y-146437898D01*
X159427898Y-144137898D01*
X161727898Y-141887898D01*
X164027898Y-144137898D01*
G36*
X184027898Y-114137898D02*
G01*
X181727898Y-116437898D01*
X179427898Y-114137898D01*
X181727898Y-111887898D01*
X184027898Y-114137898D01*
G37*
X184027898Y-114137898D02*
X181727898Y-116437898D01*
X179427898Y-114137898D01*
X181727898Y-111887898D01*
X184027898Y-114137898D01*
X181877898Y-111687898D02*
X184227898Y-109387898D01*
X159227898Y-124387898D02*
X161577898Y-126687898D01*
G36*
X164027898Y-139137898D02*
G01*
X161727898Y-141437898D01*
X159427898Y-139137898D01*
X161727898Y-136887898D01*
X164027898Y-139137898D01*
G37*
X164027898Y-139137898D02*
X161727898Y-141437898D01*
X159427898Y-139137898D01*
X161727898Y-136887898D01*
X164027898Y-139137898D01*
G36*
X169027898Y-119137898D02*
G01*
X166727898Y-121437898D01*
X164427898Y-119137898D01*
X166727898Y-116887898D01*
X169027898Y-119137898D01*
G37*
X169027898Y-119137898D02*
X166727898Y-121437898D01*
X164427898Y-119137898D01*
X166727898Y-116887898D01*
X169027898Y-119137898D01*
G36*
X174027898Y-114137898D02*
G01*
X171727898Y-116437898D01*
X169427898Y-114137898D01*
X171727898Y-111887898D01*
X174027898Y-114137898D01*
G37*
X174027898Y-114137898D02*
X171727898Y-116437898D01*
X169427898Y-114137898D01*
X171727898Y-111887898D01*
X174027898Y-114137898D01*
X161577898Y-111687898D02*
X159227898Y-113987898D01*
X171877898Y-131687898D02*
X174227898Y-129387898D01*
X169227898Y-134387898D02*
X171577898Y-136687898D01*
X176577898Y-126687898D02*
X174227898Y-128987898D01*
X161877898Y-146687898D02*
X164227898Y-144387898D01*
X179227898Y-143987898D02*
X176877898Y-141687898D01*
X171577898Y-126687898D02*
X169227898Y-128987898D01*
X181477898Y-101687898D02*
X179227898Y-103887898D01*
G36*
X179027898Y-124137898D02*
G01*
X176727898Y-126437898D01*
X174427898Y-124137898D01*
X176727898Y-121887898D01*
X179027898Y-124137898D01*
G37*
X179027898Y-124137898D02*
X176727898Y-126437898D01*
X174427898Y-124137898D01*
X176727898Y-121887898D01*
X179027898Y-124137898D01*
X164227898Y-133987898D02*
X161877898Y-131687898D01*
X166877898Y-141687898D02*
X169227898Y-139387898D01*
X181577898Y-111687898D02*
X179227898Y-113987898D01*
G36*
X186727898Y-136437898D02*
G01*
X184427898Y-134137898D01*
X186727898Y-131837898D01*
X186727898Y-136437898D01*
G37*
X186727898Y-136437898D02*
X184427898Y-134137898D01*
X186727898Y-131837898D01*
X186727898Y-136437898D01*
X184227898Y-108987898D02*
X181877898Y-106687898D01*
X159227898Y-109387898D02*
X161577898Y-111687898D01*
X179227898Y-133987898D02*
X176877898Y-131687898D01*
X157027898Y-101687898D02*
X161477898Y-101687898D01*
X174227898Y-118987898D02*
X171877898Y-116687898D01*
G36*
X179027898Y-114137898D02*
G01*
X176727898Y-116437898D01*
X174427898Y-114137898D01*
X176727898Y-111887898D01*
X179027898Y-114137898D01*
G37*
X179027898Y-114137898D02*
X176727898Y-116437898D01*
X174427898Y-114137898D01*
X176727898Y-111887898D01*
X179027898Y-114137898D01*
X186577898Y-136687898D02*
X184227898Y-138987898D01*
G36*
X159052898Y-129137898D02*
G01*
X156802898Y-131337898D01*
X156802898Y-126937898D01*
X159052898Y-129137898D01*
G37*
X159052898Y-129137898D02*
X156802898Y-131337898D01*
X156802898Y-126937898D01*
X159052898Y-129137898D01*
X169227898Y-119387898D02*
X171577898Y-121687898D01*
X171877898Y-146687898D02*
X174227898Y-144387898D01*
X162027898Y-101687898D02*
X166477898Y-101687898D01*
G36*
X169027898Y-144137898D02*
G01*
X166727898Y-146437898D01*
X164427898Y-144137898D01*
X166727898Y-141887898D01*
X169027898Y-144137898D01*
G37*
X169027898Y-144137898D02*
X166727898Y-146437898D01*
X164427898Y-144137898D01*
X166727898Y-141887898D01*
X169027898Y-144137898D01*
X179227898Y-123987898D02*
X176877898Y-121687898D01*
X181877898Y-141687898D02*
X184227898Y-139387898D01*
G36*
X174027898Y-104137898D02*
G01*
X171727898Y-106437898D01*
X169427898Y-104137898D01*
X171727898Y-101887898D01*
X174027898Y-104137898D01*
G37*
X174027898Y-104137898D02*
X171727898Y-106437898D01*
X169427898Y-104137898D01*
X171727898Y-101887898D01*
X174027898Y-104137898D01*
X171877898Y-146687898D02*
X176577898Y-146687898D01*
X169227898Y-113987898D02*
X166877898Y-111687898D01*
X171577898Y-141687898D02*
X169227898Y-143987898D01*
G36*
X169027898Y-104137898D02*
G01*
X166727898Y-106437898D01*
X164427898Y-104137898D01*
X166727898Y-101887898D01*
X169027898Y-104137898D01*
G37*
X169027898Y-104137898D02*
X166727898Y-106437898D01*
X164427898Y-104137898D01*
X166727898Y-101887898D01*
X169027898Y-104137898D01*
X171877898Y-111687898D02*
X174227898Y-109387898D01*
X171877898Y-121687898D02*
X174227898Y-119387898D01*
X174227898Y-129387898D02*
X176577898Y-131687898D01*
X176577898Y-111687898D02*
X174227898Y-113987898D01*
G36*
X186727898Y-126437898D02*
G01*
X184427898Y-124137898D01*
X186727898Y-121837898D01*
X186727898Y-126437898D01*
G37*
X186727898Y-126437898D02*
X184427898Y-124137898D01*
X186727898Y-121837898D01*
X186727898Y-126437898D01*
X159227898Y-119387898D02*
X161577898Y-121687898D01*
X187027898Y-147087898D02*
X156427898Y-147087898D01*
X156427898Y-147087898D02*
X156427898Y-101287898D01*
X156427898Y-101287898D02*
X187027898Y-101287898D01*
X187027898Y-101287898D02*
X187027898Y-147087898D01*
G36*
X159052898Y-114137898D02*
G01*
X156802898Y-116337898D01*
X156802898Y-111937898D01*
X159052898Y-114137898D01*
G37*
X159052898Y-114137898D02*
X156802898Y-116337898D01*
X156802898Y-111937898D01*
X159052898Y-114137898D01*
X179227898Y-108987898D02*
X176877898Y-106687898D01*
X161577898Y-141687898D02*
X159227898Y-143987898D01*
X184227898Y-124387898D02*
X186577898Y-126687898D01*
X161877898Y-121687898D02*
X164227898Y-119387898D01*
X156877898Y-111687898D02*
X159227898Y-109387898D01*
G36*
X164027898Y-119137898D02*
G01*
X161727898Y-121437898D01*
X159427898Y-119137898D01*
X161727898Y-116887898D01*
X164027898Y-119137898D01*
G37*
X164027898Y-119137898D02*
X161727898Y-121437898D01*
X159427898Y-119137898D01*
X161727898Y-116887898D01*
X164027898Y-119137898D01*
G36*
X174027898Y-129137898D02*
G01*
X171727898Y-131437898D01*
X169427898Y-129137898D01*
X171727898Y-126887898D01*
X174027898Y-129137898D01*
G37*
X174027898Y-129137898D02*
X171727898Y-131437898D01*
X169427898Y-129137898D01*
X171727898Y-126887898D01*
X174027898Y-129137898D01*
X169227898Y-128987898D02*
X166877898Y-126687898D01*
X176577898Y-131687898D02*
X174227898Y-133987898D01*
G36*
X159052898Y-119137898D02*
G01*
X156802898Y-121337898D01*
X156802898Y-116937898D01*
X159052898Y-119137898D01*
G37*
X159052898Y-119137898D02*
X156802898Y-121337898D01*
X156802898Y-116937898D01*
X159052898Y-119137898D01*
X179227898Y-134387898D02*
X181577898Y-136687898D01*
G36*
X169027898Y-124137898D02*
G01*
X166727898Y-126437898D01*
X164427898Y-124137898D01*
X166727898Y-121887898D01*
X169027898Y-124137898D01*
G37*
X169027898Y-124137898D02*
X166727898Y-126437898D01*
X164427898Y-124137898D01*
X166727898Y-121887898D01*
X169027898Y-124137898D01*
X184227898Y-103887898D02*
X182027898Y-101687898D01*
X186577898Y-106687898D02*
X184227898Y-108987898D01*
X181877898Y-121687898D02*
X184227898Y-119387898D01*
X176877898Y-111687898D02*
X179227898Y-109387898D01*
X161877898Y-146687898D02*
X166577898Y-146687898D01*
X179227898Y-104387898D02*
X181577898Y-106687898D01*
X166577898Y-121687898D02*
X164227898Y-123987898D01*
X186577898Y-131687898D02*
X184227898Y-133987898D01*
G36*
X179027898Y-104137898D02*
G01*
X176727898Y-106437898D01*
X174427898Y-104137898D01*
X176727898Y-101887898D01*
X179027898Y-104137898D01*
G37*
X179027898Y-104137898D02*
X176727898Y-106437898D01*
X174427898Y-104137898D01*
X176727898Y-101887898D01*
X179027898Y-104137898D01*
X164227898Y-134387898D02*
X166577898Y-136687898D01*
X171877898Y-126687898D02*
X174227898Y-124387898D01*
X161577898Y-136687898D02*
X159227898Y-138987898D01*
X181577898Y-141687898D02*
X179227898Y-143987898D01*
X174227898Y-104387898D02*
X176577898Y-106687898D01*
X184227898Y-138987898D02*
X181877898Y-136687898D01*
G36*
X179027898Y-144137898D02*
G01*
X176727898Y-146437898D01*
X174427898Y-144137898D01*
X176727898Y-141887898D01*
X179027898Y-144137898D01*
G37*
X179027898Y-144137898D02*
X176727898Y-146437898D01*
X174427898Y-144137898D01*
X176727898Y-141887898D01*
X179027898Y-144137898D01*
X184227898Y-134387898D02*
X186577898Y-136687898D01*
X181877898Y-136687898D02*
X184227898Y-134387898D01*
G36*
X159052898Y-109137898D02*
G01*
X156802898Y-111337898D01*
X156802898Y-106937898D01*
X159052898Y-109137898D01*
G37*
X159052898Y-109137898D02*
X156802898Y-111337898D01*
X156802898Y-106937898D01*
X159052898Y-109137898D01*
X161877898Y-116687898D02*
X164227898Y-114387898D01*
X174227898Y-108987898D02*
X171877898Y-106687898D01*
G36*
X174027898Y-134137898D02*
G01*
X171727898Y-136437898D01*
X169427898Y-134137898D01*
X171727898Y-131887898D01*
X174027898Y-134137898D01*
G37*
X174027898Y-134137898D02*
X171727898Y-136437898D01*
X169427898Y-134137898D01*
X171727898Y-131887898D01*
X174027898Y-134137898D01*
X164227898Y-113987898D02*
X161877898Y-111687898D01*
X181877898Y-146687898D02*
X186577898Y-146687898D01*
G36*
X179027898Y-139137898D02*
G01*
X176727898Y-141437898D01*
X174427898Y-139137898D01*
X176727898Y-136887898D01*
X179027898Y-139137898D01*
G37*
X179027898Y-139137898D02*
X176727898Y-141437898D01*
X174427898Y-139137898D01*
X176727898Y-136887898D01*
X179027898Y-139137898D01*
X182027898Y-101687898D02*
X186477898Y-101687898D01*
X164227898Y-108987898D02*
X161877898Y-106687898D01*
X156877898Y-131687898D02*
X159227898Y-129387898D01*
X174227898Y-128987898D02*
X171877898Y-126687898D01*
X176877898Y-136687898D02*
X179227898Y-134387898D01*
G36*
X186727898Y-146437898D02*
G01*
X184427898Y-144137898D01*
X186727898Y-141837898D01*
X186727898Y-146437898D01*
G37*
X186727898Y-146437898D02*
X184427898Y-144137898D01*
X186727898Y-141837898D01*
X186727898Y-146437898D01*
X176877898Y-121687898D02*
X179227898Y-119387898D01*
X179227898Y-139387898D02*
X181577898Y-141687898D01*
X166877898Y-131687898D02*
X169227898Y-129387898D01*
X179227898Y-138987898D02*
X176877898Y-136687898D01*
X159227898Y-104387898D02*
X161577898Y-106687898D01*
X171877898Y-136687898D02*
X174227898Y-134387898D01*
X181877898Y-106687898D02*
X184227898Y-104387898D01*
X159227898Y-138987898D02*
X156877898Y-136687898D01*
X184227898Y-129387898D02*
X186577898Y-131687898D01*
X156877898Y-136687898D02*
X159227898Y-134387898D01*
X184227898Y-104387898D02*
X186577898Y-106687898D01*
X161577898Y-121687898D02*
X159227898Y-123987898D01*
X164227898Y-119387898D02*
X166577898Y-121687898D01*
X161577898Y-131687898D02*
X159227898Y-133987898D01*
X176577898Y-136687898D02*
X174227898Y-138987898D01*
G36*
X169027898Y-114137898D02*
G01*
X166727898Y-116437898D01*
X164427898Y-114137898D01*
X166727898Y-111887898D01*
X169027898Y-114137898D01*
G37*
X169027898Y-114137898D02*
X166727898Y-116437898D01*
X164427898Y-114137898D01*
X166727898Y-111887898D01*
X169027898Y-114137898D01*
G36*
X184027898Y-104137898D02*
G01*
X181727898Y-106437898D01*
X179427898Y-104137898D01*
X181727898Y-101887898D01*
X184027898Y-104137898D01*
G37*
X184027898Y-104137898D02*
X181727898Y-106437898D01*
X179427898Y-104137898D01*
X181727898Y-101887898D01*
X184027898Y-104137898D01*
X174227898Y-139387898D02*
X176577898Y-141687898D01*
X166577898Y-131687898D02*
X164227898Y-133987898D01*
X169227898Y-129387898D02*
X171577898Y-131687898D01*
X164227898Y-143987898D02*
X161877898Y-141687898D01*
G36*
X159052898Y-134137898D02*
G01*
X156802898Y-136337898D01*
X156802898Y-131937898D01*
X159052898Y-134137898D01*
G37*
X159052898Y-134137898D02*
X156802898Y-136337898D01*
X156802898Y-131937898D01*
X159052898Y-134137898D01*
X161877898Y-126687898D02*
X164227898Y-124387898D01*
X156877898Y-116687898D02*
X159227898Y-114387898D01*
G36*
X186727898Y-111437898D02*
G01*
X184427898Y-109137898D01*
X186727898Y-106837898D01*
X186727898Y-111437898D01*
G37*
X186727898Y-111437898D02*
X184427898Y-109137898D01*
X186727898Y-106837898D01*
X186727898Y-111437898D01*
X184227898Y-113987898D02*
X181877898Y-111687898D01*
G36*
X184027898Y-134137898D02*
G01*
X181727898Y-136437898D01*
X179427898Y-134137898D01*
X181727898Y-131887898D01*
X184027898Y-134137898D01*
G37*
X184027898Y-134137898D02*
X181727898Y-136437898D01*
X179427898Y-134137898D01*
X181727898Y-131887898D01*
X184027898Y-134137898D01*
X181577898Y-126687898D02*
X179227898Y-128987898D01*
X166877898Y-126687898D02*
X169227898Y-124387898D01*
X159227898Y-133987898D02*
X156877898Y-131687898D01*
X159227898Y-139387898D02*
X161577898Y-141687898D01*
X181877898Y-131687898D02*
X184227898Y-129387898D01*
X161577898Y-126687898D02*
X159227898Y-128987898D01*
X171477898Y-101687898D02*
X169227898Y-103887898D01*
G36*
X164027898Y-104137898D02*
G01*
X161727898Y-106437898D01*
X159427898Y-104137898D01*
X161727898Y-101887898D01*
X164027898Y-104137898D01*
G37*
X164027898Y-104137898D02*
X161727898Y-106437898D01*
X159427898Y-104137898D01*
X161727898Y-101887898D01*
X164027898Y-104137898D01*
X184227898Y-139387898D02*
X186577898Y-141687898D01*
G36*
X184027898Y-129137898D02*
G01*
X181727898Y-131437898D01*
X179427898Y-129137898D01*
X181727898Y-126887898D01*
X184027898Y-129137898D01*
G37*
X184027898Y-129137898D02*
X181727898Y-131437898D01*
X179427898Y-129137898D01*
X181727898Y-126887898D01*
X184027898Y-129137898D01*
X174227898Y-114387898D02*
X176577898Y-116687898D01*
X171877898Y-106687898D02*
X174227898Y-104387898D01*
X184227898Y-118987898D02*
X181877898Y-116687898D01*
X176877898Y-146687898D02*
X179227898Y-144387898D01*
X184227898Y-128987898D02*
X181877898Y-126687898D01*
X174227898Y-138987898D02*
X171877898Y-136687898D01*
X159227898Y-103887898D02*
X157027898Y-101687898D01*
G36*
X164027898Y-114137898D02*
G01*
X161727898Y-116437898D01*
X159427898Y-114137898D01*
X161727898Y-111887898D01*
X164027898Y-114137898D01*
G37*
X164027898Y-114137898D02*
X161727898Y-116437898D01*
X159427898Y-114137898D01*
X161727898Y-111887898D01*
X164027898Y-114137898D01*
X164227898Y-123987898D02*
X161877898Y-121687898D01*
X174227898Y-143987898D02*
X171877898Y-141687898D01*
X156877898Y-121687898D02*
X159227898Y-119387898D01*
X169227898Y-103887898D02*
X167027898Y-101687898D01*
X166577898Y-106687898D02*
X164227898Y-108987898D01*
X174227898Y-109387898D02*
X176577898Y-111687898D01*
X169227898Y-108987898D02*
X166877898Y-106687898D01*
X169227898Y-118987898D02*
X166877898Y-116687898D01*
X166877898Y-111687898D02*
X169227898Y-109387898D01*
X179227898Y-118987898D02*
X176877898Y-116687898D01*
X174227898Y-133987898D02*
X171877898Y-131687898D01*
X184227898Y-109387898D02*
X186577898Y-111687898D01*
G36*
X164027898Y-124137898D02*
G01*
X161727898Y-126437898D01*
X159427898Y-124137898D01*
X161727898Y-121887898D01*
X164027898Y-124137898D01*
G37*
X164027898Y-124137898D02*
X161727898Y-126437898D01*
X159427898Y-124137898D01*
X161727898Y-121887898D01*
X164027898Y-124137898D01*
G36*
X179027898Y-119137898D02*
G01*
X176727898Y-121437898D01*
X174427898Y-119137898D01*
X176727898Y-116887898D01*
X179027898Y-119137898D01*
G37*
X179027898Y-119137898D02*
X176727898Y-121437898D01*
X174427898Y-119137898D01*
X176727898Y-116887898D01*
X179027898Y-119137898D01*
X179227898Y-144387898D02*
X181577898Y-146687898D01*
X156877898Y-106687898D02*
X159227898Y-104387898D01*
X164227898Y-114387898D02*
X166577898Y-116687898D01*
X169227898Y-123987898D02*
X166877898Y-121687898D01*
X156877898Y-146687898D02*
X161577898Y-146687898D01*
X171577898Y-106687898D02*
X169227898Y-108987898D01*
X184227898Y-119387898D02*
X186577898Y-121687898D01*
X174227898Y-124387898D02*
X176577898Y-126687898D01*
X169227898Y-104387898D02*
X171577898Y-106687898D01*
X171877898Y-141687898D02*
X174227898Y-139387898D01*
G36*
X179027898Y-109137898D02*
G01*
X176727898Y-111437898D01*
X174427898Y-109137898D01*
X176727898Y-106887898D01*
X179027898Y-109137898D01*
G37*
X179027898Y-109137898D02*
X176727898Y-111437898D01*
X174427898Y-109137898D01*
X176727898Y-106887898D01*
X179027898Y-109137898D01*
X169227898Y-139387898D02*
X171577898Y-141687898D01*
X176877898Y-131687898D02*
X179227898Y-129387898D01*
X179227898Y-113987898D02*
X176877898Y-111687898D01*
X171577898Y-121687898D02*
X169227898Y-123987898D01*
X174227898Y-113987898D02*
X171877898Y-111687898D01*
X169227898Y-124387898D02*
X171577898Y-126687898D01*
X161477898Y-101687898D02*
X159227898Y-103887898D01*
X166877898Y-136687898D02*
X169227898Y-134387898D01*
X159227898Y-144387898D02*
X161577898Y-146687898D01*
X164227898Y-118987898D02*
X161877898Y-116687898D01*
G36*
X164027898Y-109137898D02*
G01*
X161727898Y-111437898D01*
X159427898Y-109137898D01*
X161727898Y-106887898D01*
X164027898Y-109137898D01*
G37*
X164027898Y-109137898D02*
X161727898Y-111437898D01*
X159427898Y-109137898D01*
X161727898Y-106887898D01*
X164027898Y-109137898D01*
X166877898Y-146687898D02*
X169227898Y-144387898D01*
X184227898Y-114387898D02*
X186577898Y-116687898D01*
X166577898Y-111687898D02*
X164227898Y-113987898D01*
X156877898Y-141687898D02*
X159227898Y-139387898D01*
G36*
X186727898Y-106437898D02*
G01*
X184427898Y-104137898D01*
X186727898Y-101837898D01*
X186727898Y-106437898D01*
G37*
X186727898Y-106437898D02*
X184427898Y-104137898D01*
X186727898Y-101837898D01*
X186727898Y-106437898D01*
X181877898Y-116687898D02*
X184227898Y-114387898D01*
X186577898Y-141687898D02*
X184227898Y-143987898D01*
D11*
X201623809Y-93430952D02*
X202457142Y-95930952D01*
X203290476Y-93430952D01*
X204123809Y-94978571D02*
X206028571Y-94978571D01*
X208647619Y-95692857D02*
X208528571Y-95811904D01*
X208171428Y-95930952D01*
X207933333Y-95930952D01*
X207576190Y-95811904D01*
X207338095Y-95573809D01*
X207219047Y-95335714D01*
X207100000Y-94859523D01*
X207100000Y-94502380D01*
X207219047Y-94026190D01*
X207338095Y-93788095D01*
X207576190Y-93550000D01*
X207933333Y-93430952D01*
X208171428Y-93430952D01*
X208528571Y-93550000D01*
X208647619Y-93669047D01*
X210790476Y-94264285D02*
X210790476Y-95930952D01*
X209719047Y-94264285D02*
X209719047Y-95573809D01*
X209838095Y-95811904D01*
X210076190Y-95930952D01*
X210433333Y-95930952D01*
X210671428Y-95811904D01*
X210790476Y-95692857D01*
X211623809Y-94264285D02*
X212576190Y-94264285D01*
X211980952Y-93430952D02*
X211980952Y-95573809D01*
X212100000Y-95811904D01*
X212338095Y-95930952D01*
X212576190Y-95930952D01*
D10*
X200660000Y-94615000D02*
X194310000Y-88265000D01*
X99060000Y-94615000D02*
X200660000Y-94615000D01*
X113537898Y-114387898D02*
X115887898Y-116687898D01*
X111187898Y-126687898D02*
X113537898Y-124387898D01*
X136187898Y-126687898D02*
X138537898Y-124387898D01*
X113537898Y-128987898D02*
X111187898Y-126687898D01*
X133537898Y-124387898D02*
X135887898Y-126687898D01*
X120887898Y-136687898D02*
X118537898Y-138987898D01*
X133537898Y-119387898D02*
X135887898Y-121687898D01*
X113537898Y-143987898D02*
X111187898Y-141687898D01*
X113537898Y-134387898D02*
X115887898Y-136687898D01*
G36*
X118337898Y-129137898D02*
G01*
X116037898Y-131437898D01*
X113737898Y-129137898D01*
X116037898Y-126887898D01*
X118337898Y-129137898D01*
G37*
X118337898Y-129137898D02*
X116037898Y-131437898D01*
X113737898Y-129137898D01*
X116037898Y-126887898D01*
X118337898Y-129137898D01*
X125887898Y-131687898D02*
X123537898Y-133987898D01*
X133537898Y-103887898D02*
X131337898Y-101687898D01*
G36*
X141037898Y-131437898D02*
G01*
X138737898Y-129137898D01*
X141037898Y-126837898D01*
X141037898Y-131437898D01*
G37*
X141037898Y-131437898D02*
X138737898Y-129137898D01*
X141037898Y-126837898D01*
X141037898Y-131437898D01*
G36*
X138337898Y-144137898D02*
G01*
X136037898Y-146437898D01*
X133737898Y-144137898D01*
X136037898Y-141887898D01*
X138337898Y-144137898D01*
G37*
X138337898Y-144137898D02*
X136037898Y-146437898D01*
X133737898Y-144137898D01*
X136037898Y-141887898D01*
X138337898Y-144137898D01*
X120887898Y-116687898D02*
X118537898Y-118987898D01*
X121337898Y-101687898D02*
X125787898Y-101687898D01*
X118537898Y-139387898D02*
X120887898Y-141687898D01*
X118537898Y-138987898D02*
X116187898Y-136687898D01*
G36*
X113337898Y-144137898D02*
G01*
X111087898Y-146337898D01*
X111087898Y-141937898D01*
X113337898Y-144137898D01*
G37*
X113337898Y-144137898D02*
X111087898Y-146337898D01*
X111087898Y-141937898D01*
X113337898Y-144137898D01*
G36*
X118337898Y-134137898D02*
G01*
X116037898Y-136437898D01*
X113737898Y-134137898D01*
X116037898Y-131887898D01*
X118337898Y-134137898D01*
G37*
X118337898Y-134137898D02*
X116037898Y-136437898D01*
X113737898Y-134137898D01*
X116037898Y-131887898D01*
X118337898Y-134137898D01*
X138537898Y-143987898D02*
X136187898Y-141687898D01*
X123537898Y-143987898D02*
X121187898Y-141687898D01*
X131187898Y-106687898D02*
X133537898Y-104387898D01*
X121187898Y-106687898D02*
X123537898Y-104387898D01*
X138537898Y-133987898D02*
X136187898Y-131687898D01*
X130887898Y-116687898D02*
X128537898Y-118987898D01*
X115887898Y-116687898D02*
X113537898Y-118987898D01*
X126187898Y-116687898D02*
X128537898Y-114387898D01*
G36*
X138337898Y-119137898D02*
G01*
X136037898Y-121437898D01*
X133737898Y-119137898D01*
X136037898Y-116887898D01*
X138337898Y-119137898D01*
G37*
X138337898Y-119137898D02*
X136037898Y-121437898D01*
X133737898Y-119137898D01*
X136037898Y-116887898D01*
X138337898Y-119137898D01*
X116187898Y-141687898D02*
X118537898Y-139387898D01*
G36*
X123337898Y-129137898D02*
G01*
X121037898Y-131437898D01*
X118737898Y-129137898D01*
X121037898Y-126887898D01*
X123337898Y-129137898D01*
G37*
X123337898Y-129137898D02*
X121037898Y-131437898D01*
X118737898Y-129137898D01*
X121037898Y-126887898D01*
X123337898Y-129137898D01*
X135887898Y-121687898D02*
X133537898Y-123987898D01*
X121187898Y-121687898D02*
X123537898Y-119387898D01*
X118537898Y-103887898D02*
X116337898Y-101687898D01*
X118537898Y-109387898D02*
X120887898Y-111687898D01*
X128537898Y-134387898D02*
X130887898Y-136687898D01*
X120887898Y-141687898D02*
X118537898Y-143987898D01*
X125887898Y-136687898D02*
X123537898Y-138987898D01*
G36*
X128337898Y-119137898D02*
G01*
X126037898Y-121437898D01*
X123737898Y-119137898D01*
X126037898Y-116887898D01*
X128337898Y-119137898D01*
G37*
X128337898Y-119137898D02*
X126037898Y-121437898D01*
X123737898Y-119137898D01*
X126037898Y-116887898D01*
X128337898Y-119137898D01*
X131187898Y-141687898D02*
X133537898Y-139387898D01*
G36*
X123337898Y-109137898D02*
G01*
X121037898Y-111437898D01*
X118737898Y-109137898D01*
X121037898Y-106887898D01*
X123337898Y-109137898D01*
G37*
X123337898Y-109137898D02*
X121037898Y-111437898D01*
X118737898Y-109137898D01*
X121037898Y-106887898D01*
X123337898Y-109137898D01*
X133537898Y-129387898D02*
X135887898Y-131687898D01*
X118537898Y-129387898D02*
X120887898Y-131687898D01*
X113537898Y-113987898D02*
X111187898Y-111687898D01*
G36*
X133337898Y-129137898D02*
G01*
X131037898Y-131437898D01*
X128737898Y-129137898D01*
X131037898Y-126887898D01*
X133337898Y-129137898D01*
G37*
X133337898Y-129137898D02*
X131037898Y-131437898D01*
X128737898Y-129137898D01*
X131037898Y-126887898D01*
X133337898Y-129137898D01*
G36*
X128337898Y-144137898D02*
G01*
X126037898Y-146437898D01*
X123737898Y-144137898D01*
X126037898Y-141887898D01*
X128337898Y-144137898D01*
G37*
X128337898Y-144137898D02*
X126037898Y-146437898D01*
X123737898Y-144137898D01*
X126037898Y-141887898D01*
X128337898Y-144137898D01*
X133537898Y-109387898D02*
X135887898Y-111687898D01*
X115887898Y-106687898D02*
X113537898Y-108987898D01*
X131337898Y-101687898D02*
X135787898Y-101687898D01*
G36*
X128337898Y-124137898D02*
G01*
X126037898Y-126437898D01*
X123737898Y-124137898D01*
X126037898Y-121887898D01*
X128337898Y-124137898D01*
G37*
X128337898Y-124137898D02*
X126037898Y-126437898D01*
X123737898Y-124137898D01*
X126037898Y-121887898D01*
X128337898Y-124137898D01*
X138537898Y-123987898D02*
X136187898Y-121687898D01*
X123537898Y-138987898D02*
X121187898Y-136687898D01*
X140887898Y-126687898D02*
X138537898Y-128987898D01*
X125887898Y-116687898D02*
X123537898Y-118987898D01*
G36*
X128337898Y-109137898D02*
G01*
X126037898Y-111437898D01*
X123737898Y-109137898D01*
X126037898Y-106887898D01*
X128337898Y-109137898D01*
G37*
X128337898Y-109137898D02*
X126037898Y-111437898D01*
X123737898Y-109137898D01*
X126037898Y-106887898D01*
X128337898Y-109137898D01*
G36*
X113362898Y-124137898D02*
G01*
X111112898Y-126337898D01*
X111112898Y-121937898D01*
X113362898Y-124137898D01*
G37*
X113362898Y-124137898D02*
X111112898Y-126337898D01*
X111112898Y-121937898D01*
X113362898Y-124137898D01*
X116187898Y-136687898D02*
X118537898Y-134387898D01*
X123537898Y-109387898D02*
X125887898Y-111687898D01*
G36*
X113362898Y-104112898D02*
G01*
X111112898Y-106337898D01*
X111112898Y-101862898D01*
X113362898Y-104112898D01*
G37*
X113362898Y-104112898D02*
X111112898Y-106337898D01*
X111112898Y-101862898D01*
X113362898Y-104112898D01*
X118537898Y-104387898D02*
X120887898Y-106687898D01*
X131187898Y-116687898D02*
X133537898Y-114387898D01*
X113537898Y-123987898D02*
X111187898Y-121687898D01*
X130887898Y-121687898D02*
X128537898Y-123987898D01*
X123537898Y-133987898D02*
X121187898Y-131687898D01*
X123537898Y-144387898D02*
X125887898Y-146687898D01*
G36*
X133337898Y-134137898D02*
G01*
X131037898Y-136437898D01*
X128737898Y-134137898D01*
X131037898Y-131887898D01*
X133337898Y-134137898D01*
G37*
X133337898Y-134137898D02*
X131037898Y-136437898D01*
X128737898Y-134137898D01*
X131037898Y-131887898D01*
X133337898Y-134137898D01*
X118537898Y-124387898D02*
X120887898Y-126687898D01*
X121187898Y-116687898D02*
X123537898Y-114387898D01*
X140887898Y-121687898D02*
X138537898Y-123987898D01*
X133537898Y-128987898D02*
X131187898Y-126687898D01*
X140887898Y-116687898D02*
X138537898Y-118987898D01*
X138537898Y-144387898D02*
X140887898Y-146687898D01*
X111187898Y-146687898D02*
X113537898Y-144387898D01*
G36*
X128337898Y-139137898D02*
G01*
X126037898Y-141437898D01*
X123737898Y-139137898D01*
X126037898Y-136887898D01*
X128337898Y-139137898D01*
G37*
X128337898Y-139137898D02*
X126037898Y-141437898D01*
X123737898Y-139137898D01*
X126037898Y-136887898D01*
X128337898Y-139137898D01*
X131187898Y-126687898D02*
X133537898Y-124387898D01*
G36*
X138337898Y-109137898D02*
G01*
X136037898Y-111437898D01*
X133737898Y-109137898D01*
X136037898Y-106887898D01*
X138337898Y-109137898D01*
G37*
X138337898Y-109137898D02*
X136037898Y-111437898D01*
X133737898Y-109137898D01*
X136037898Y-106887898D01*
X138337898Y-109137898D01*
X130887898Y-141687898D02*
X128537898Y-143987898D01*
G36*
X138337898Y-124137898D02*
G01*
X136037898Y-126437898D01*
X133737898Y-124137898D01*
X136037898Y-121887898D01*
X138337898Y-124137898D01*
G37*
X138337898Y-124137898D02*
X136037898Y-126437898D01*
X133737898Y-124137898D01*
X136037898Y-121887898D01*
X138337898Y-124137898D01*
X131187898Y-146687898D02*
X135887898Y-146687898D01*
X130787898Y-101687898D02*
X128537898Y-103887898D01*
X135887898Y-106687898D02*
X133537898Y-108987898D01*
G36*
X113362898Y-139137898D02*
G01*
X111112898Y-141337898D01*
X111112898Y-136937898D01*
X113362898Y-139137898D01*
G37*
X113362898Y-139137898D02*
X111112898Y-141337898D01*
X111112898Y-136937898D01*
X113362898Y-139137898D01*
G36*
X123337898Y-139137898D02*
G01*
X121037898Y-141437898D01*
X118737898Y-139137898D01*
X121037898Y-136887898D01*
X123337898Y-139137898D01*
G37*
X123337898Y-139137898D02*
X121037898Y-141437898D01*
X118737898Y-139137898D01*
X121037898Y-136887898D01*
X123337898Y-139137898D01*
X128537898Y-144387898D02*
X130887898Y-146687898D01*
G36*
X138337898Y-139137898D02*
G01*
X136037898Y-141437898D01*
X133737898Y-139137898D01*
X136037898Y-136887898D01*
X138337898Y-139137898D01*
G37*
X138337898Y-139137898D02*
X136037898Y-141437898D01*
X133737898Y-139137898D01*
X136037898Y-136887898D01*
X138337898Y-139137898D01*
X126337898Y-101687898D02*
X130787898Y-101687898D01*
X128537898Y-103887898D02*
X126337898Y-101687898D01*
X121187898Y-146687898D02*
X125887898Y-146687898D01*
X113537898Y-129387898D02*
X115887898Y-131687898D01*
G36*
X123337898Y-134137898D02*
G01*
X121037898Y-136437898D01*
X118737898Y-134137898D01*
X121037898Y-131887898D01*
X123337898Y-134137898D01*
G37*
X123337898Y-134137898D02*
X121037898Y-136437898D01*
X118737898Y-134137898D01*
X121037898Y-131887898D01*
X123337898Y-134137898D01*
X133537898Y-114387898D02*
X135887898Y-116687898D01*
X128537898Y-123987898D02*
X126187898Y-121687898D01*
X113537898Y-118987898D02*
X111187898Y-116687898D01*
X118537898Y-144387898D02*
X120887898Y-146687898D01*
X136187898Y-116687898D02*
X138537898Y-114387898D01*
G36*
X141037898Y-106437898D02*
G01*
X138737898Y-104137898D01*
X141037898Y-101837898D01*
X141037898Y-106437898D01*
G37*
X141037898Y-106437898D02*
X138737898Y-104137898D01*
X141037898Y-101837898D01*
X141037898Y-106437898D01*
X140887898Y-141687898D02*
X138537898Y-143987898D01*
X111187898Y-141687898D02*
X113537898Y-139387898D01*
X120887898Y-111687898D02*
X118537898Y-113987898D01*
X138537898Y-114387898D02*
X140887898Y-116687898D01*
X121187898Y-146687898D02*
X123537898Y-144387898D01*
G36*
X118337898Y-109137898D02*
G01*
X116037898Y-111437898D01*
X113737898Y-109137898D01*
X116037898Y-106887898D01*
X118337898Y-109137898D01*
G37*
X118337898Y-109137898D02*
X116037898Y-111437898D01*
X113737898Y-109137898D01*
X116037898Y-106887898D01*
X118337898Y-109137898D01*
X116187898Y-131687898D02*
X118537898Y-129387898D01*
X118537898Y-128987898D02*
X116187898Y-126687898D01*
X140787898Y-101687898D02*
X138537898Y-103887898D01*
X118537898Y-118987898D02*
X116187898Y-116687898D01*
X113537898Y-144387898D02*
X115887898Y-146687898D01*
X121187898Y-136687898D02*
X123537898Y-134387898D01*
X115787898Y-101687898D02*
X113537898Y-103887898D01*
X123537898Y-124387898D02*
X125887898Y-126687898D01*
X128537898Y-113987898D02*
X126187898Y-111687898D01*
X125887898Y-121687898D02*
X123537898Y-123987898D01*
X133537898Y-113987898D02*
X131187898Y-111687898D01*
X131187898Y-131687898D02*
X133537898Y-129387898D01*
X123537898Y-139387898D02*
X125887898Y-141687898D01*
G36*
X133337898Y-109137898D02*
G01*
X131037898Y-111437898D01*
X128737898Y-109137898D01*
X131037898Y-106887898D01*
X133337898Y-109137898D01*
G37*
X133337898Y-109137898D02*
X131037898Y-111437898D01*
X128737898Y-109137898D01*
X131037898Y-106887898D01*
X133337898Y-109137898D01*
X126187898Y-141687898D02*
X128537898Y-139387898D01*
X123537898Y-104387898D02*
X125887898Y-106687898D01*
X128537898Y-124387898D02*
X130887898Y-126687898D01*
X138537898Y-119387898D02*
X140887898Y-121687898D01*
X125887898Y-106687898D02*
X123537898Y-108987898D01*
X111187898Y-146687898D02*
X115887898Y-146687898D01*
X123537898Y-123987898D02*
X121187898Y-121687898D01*
X118537898Y-114387898D02*
X120887898Y-116687898D01*
X111187898Y-106687898D02*
X113537898Y-104387898D01*
X133537898Y-144387898D02*
X135887898Y-146687898D01*
G36*
X133337898Y-119137898D02*
G01*
X131037898Y-121437898D01*
X128737898Y-119137898D01*
X131037898Y-116887898D01*
X133337898Y-119137898D01*
G37*
X133337898Y-119137898D02*
X131037898Y-121437898D01*
X128737898Y-119137898D01*
X131037898Y-116887898D01*
X133337898Y-119137898D01*
G36*
X118337898Y-124137898D02*
G01*
X116037898Y-126437898D01*
X113737898Y-124137898D01*
X116037898Y-121887898D01*
X118337898Y-124137898D01*
G37*
X118337898Y-124137898D02*
X116037898Y-126437898D01*
X113737898Y-124137898D01*
X116037898Y-121887898D01*
X118337898Y-124137898D01*
X138537898Y-109387898D02*
X140887898Y-111687898D01*
X128537898Y-133987898D02*
X126187898Y-131687898D01*
X133537898Y-118987898D02*
X131187898Y-116687898D01*
X121187898Y-111687898D02*
X123537898Y-109387898D01*
X123537898Y-118987898D02*
X121187898Y-116687898D01*
X123537898Y-108987898D02*
X121187898Y-106687898D01*
X128537898Y-109387898D02*
X130887898Y-111687898D01*
X120887898Y-106687898D02*
X118537898Y-108987898D01*
X123537898Y-103887898D02*
X121337898Y-101687898D01*
X111187898Y-121687898D02*
X113537898Y-119387898D01*
X128537898Y-143987898D02*
X126187898Y-141687898D01*
X118537898Y-123987898D02*
X116187898Y-121687898D01*
G36*
X118337898Y-114137898D02*
G01*
X116037898Y-116437898D01*
X113737898Y-114137898D01*
X116037898Y-111887898D01*
X118337898Y-114137898D01*
G37*
X118337898Y-114137898D02*
X116037898Y-116437898D01*
X113737898Y-114137898D01*
X116037898Y-111887898D01*
X118337898Y-114137898D01*
X113537898Y-103887898D02*
X111337898Y-101687898D01*
X128537898Y-138987898D02*
X126187898Y-136687898D01*
X138537898Y-128987898D02*
X136187898Y-126687898D01*
X131187898Y-146687898D02*
X133537898Y-144387898D01*
X138537898Y-118987898D02*
X136187898Y-116687898D01*
X126187898Y-106687898D02*
X128537898Y-104387898D01*
X128537898Y-114387898D02*
X130887898Y-116687898D01*
G36*
X138337898Y-129137898D02*
G01*
X136037898Y-131437898D01*
X133737898Y-129137898D01*
X136037898Y-126887898D01*
X138337898Y-129137898D01*
G37*
X138337898Y-129137898D02*
X136037898Y-131437898D01*
X133737898Y-129137898D01*
X136037898Y-126887898D01*
X138337898Y-129137898D01*
X138537898Y-139387898D02*
X140887898Y-141687898D01*
G36*
X118337898Y-104137898D02*
G01*
X116037898Y-106437898D01*
X113737898Y-104137898D01*
X116037898Y-101887898D01*
X118337898Y-104137898D01*
G37*
X118337898Y-104137898D02*
X116037898Y-106437898D01*
X113737898Y-104137898D01*
X116037898Y-101887898D01*
X118337898Y-104137898D01*
X125787898Y-101687898D02*
X123537898Y-103887898D01*
X115887898Y-126687898D02*
X113537898Y-128987898D01*
X136187898Y-131687898D02*
X138537898Y-129387898D01*
X113537898Y-139387898D02*
X115887898Y-141687898D01*
X113537898Y-133987898D02*
X111187898Y-131687898D01*
X121187898Y-126687898D02*
X123537898Y-124387898D01*
X135887898Y-126687898D02*
X133537898Y-128987898D01*
G36*
X138337898Y-134137898D02*
G01*
X136037898Y-136437898D01*
X133737898Y-134137898D01*
X136037898Y-131887898D01*
X138337898Y-134137898D01*
G37*
X138337898Y-134137898D02*
X136037898Y-136437898D01*
X133737898Y-134137898D01*
X136037898Y-131887898D01*
X138337898Y-134137898D01*
X138537898Y-113987898D02*
X136187898Y-111687898D01*
G36*
X141037898Y-111437898D02*
G01*
X138737898Y-109137898D01*
X141037898Y-106837898D01*
X141037898Y-111437898D01*
G37*
X141037898Y-111437898D02*
X138737898Y-109137898D01*
X141037898Y-106837898D01*
X141037898Y-111437898D01*
X111187898Y-116687898D02*
X113537898Y-114387898D01*
X116187898Y-126687898D02*
X118537898Y-124387898D01*
G36*
X113362898Y-134137898D02*
G01*
X111112898Y-136337898D01*
X111112898Y-131937898D01*
X113362898Y-134137898D01*
G37*
X113362898Y-134137898D02*
X111112898Y-136337898D01*
X111112898Y-131937898D01*
X113362898Y-134137898D01*
X118537898Y-143987898D02*
X116187898Y-141687898D01*
X123537898Y-129387898D02*
X125887898Y-131687898D01*
X120887898Y-131687898D02*
X118537898Y-133987898D01*
X128537898Y-139387898D02*
X130887898Y-141687898D01*
G36*
X138337898Y-104137898D02*
G01*
X136037898Y-106437898D01*
X133737898Y-104137898D01*
X136037898Y-101887898D01*
X138337898Y-104137898D01*
G37*
X138337898Y-104137898D02*
X136037898Y-106437898D01*
X133737898Y-104137898D01*
X136037898Y-101887898D01*
X138337898Y-104137898D01*
G36*
X123337898Y-114137898D02*
G01*
X121037898Y-116437898D01*
X118737898Y-114137898D01*
X121037898Y-111887898D01*
X123337898Y-114137898D01*
G37*
X123337898Y-114137898D02*
X121037898Y-116437898D01*
X118737898Y-114137898D01*
X121037898Y-111887898D01*
X123337898Y-114137898D01*
X130887898Y-136687898D02*
X128537898Y-138987898D01*
X115887898Y-131687898D02*
X113537898Y-133987898D01*
X118537898Y-119387898D02*
X120887898Y-121687898D01*
X115887898Y-121687898D02*
X113537898Y-123987898D01*
X138537898Y-104387898D02*
X140887898Y-106687898D01*
X111187898Y-136687898D02*
X113537898Y-134387898D01*
X138537898Y-129387898D02*
X140887898Y-131687898D01*
X113537898Y-138987898D02*
X111187898Y-136687898D01*
X136187898Y-106687898D02*
X138537898Y-104387898D01*
X126187898Y-136687898D02*
X128537898Y-134387898D01*
X113537898Y-104387898D02*
X115887898Y-106687898D01*
X133537898Y-138987898D02*
X131187898Y-136687898D01*
X121187898Y-131687898D02*
X123537898Y-129387898D01*
X133537898Y-139387898D02*
X135887898Y-141687898D01*
X131187898Y-121687898D02*
X133537898Y-119387898D01*
G36*
X141037898Y-146437898D02*
G01*
X138737898Y-144137898D01*
X141037898Y-141837898D01*
X141037898Y-146437898D01*
G37*
X141037898Y-146437898D02*
X138737898Y-144137898D01*
X141037898Y-141837898D01*
X141037898Y-146437898D01*
X131187898Y-136687898D02*
X133537898Y-134387898D01*
X128537898Y-128987898D02*
X126187898Y-126687898D01*
X111187898Y-131687898D02*
X113537898Y-129387898D01*
X118537898Y-108987898D02*
X116187898Y-106687898D01*
X136337898Y-101687898D02*
X140787898Y-101687898D01*
G36*
X133337898Y-139137898D02*
G01*
X131037898Y-141437898D01*
X128737898Y-139137898D01*
X131037898Y-136887898D01*
X133337898Y-139137898D01*
G37*
X133337898Y-139137898D02*
X131037898Y-141437898D01*
X128737898Y-139137898D01*
X131037898Y-136887898D01*
X133337898Y-139137898D01*
X136187898Y-146687898D02*
X140887898Y-146687898D01*
X118537898Y-113987898D02*
X116187898Y-111687898D01*
G36*
X128337898Y-134137898D02*
G01*
X126037898Y-136437898D01*
X123737898Y-134137898D01*
X126037898Y-131887898D01*
X128337898Y-134137898D01*
G37*
X128337898Y-134137898D02*
X126037898Y-136437898D01*
X123737898Y-134137898D01*
X126037898Y-131887898D01*
X128337898Y-134137898D01*
X128537898Y-108987898D02*
X126187898Y-106687898D01*
X116187898Y-116687898D02*
X118537898Y-114387898D01*
G36*
X113362898Y-109137898D02*
G01*
X111112898Y-111337898D01*
X111112898Y-106937898D01*
X113362898Y-109137898D01*
G37*
X113362898Y-109137898D02*
X111112898Y-111337898D01*
X111112898Y-106937898D01*
X113362898Y-109137898D01*
X136187898Y-136687898D02*
X138537898Y-134387898D01*
X138537898Y-134387898D02*
X140887898Y-136687898D01*
G36*
X133337898Y-144137898D02*
G01*
X131037898Y-146437898D01*
X128737898Y-144137898D01*
X131037898Y-141887898D01*
X133337898Y-144137898D01*
G37*
X133337898Y-144137898D02*
X131037898Y-146437898D01*
X128737898Y-144137898D01*
X131037898Y-141887898D01*
X133337898Y-144137898D01*
X138537898Y-138987898D02*
X136187898Y-136687898D01*
X128537898Y-104387898D02*
X130887898Y-106687898D01*
X135887898Y-141687898D02*
X133537898Y-143987898D01*
X115887898Y-136687898D02*
X113537898Y-138987898D01*
X126187898Y-126687898D02*
X128537898Y-124387898D01*
X118537898Y-134387898D02*
X120887898Y-136687898D01*
G36*
X133337898Y-104137898D02*
G01*
X131037898Y-106437898D01*
X128737898Y-104137898D01*
X131037898Y-101887898D01*
X133337898Y-104137898D01*
G37*
X133337898Y-104137898D02*
X131037898Y-106437898D01*
X128737898Y-104137898D01*
X131037898Y-101887898D01*
X133337898Y-104137898D01*
X140887898Y-131687898D02*
X138537898Y-133987898D01*
X120887898Y-121687898D02*
X118537898Y-123987898D01*
X133537898Y-104387898D02*
X135887898Y-106687898D01*
X116187898Y-146687898D02*
X120887898Y-146687898D01*
X131187898Y-111687898D02*
X133537898Y-109387898D01*
X136187898Y-121687898D02*
X138537898Y-119387898D01*
X140887898Y-106687898D02*
X138537898Y-108987898D01*
X138537898Y-103887898D02*
X136337898Y-101687898D01*
G36*
X123337898Y-124137898D02*
G01*
X121037898Y-126437898D01*
X118737898Y-124137898D01*
X121037898Y-121887898D01*
X123337898Y-124137898D01*
G37*
X123337898Y-124137898D02*
X121037898Y-126437898D01*
X118737898Y-124137898D01*
X121037898Y-121887898D01*
X123337898Y-124137898D01*
X133537898Y-134387898D02*
X135887898Y-136687898D01*
G36*
X113362898Y-119137898D02*
G01*
X111112898Y-121337898D01*
X111112898Y-116937898D01*
X113362898Y-119137898D01*
G37*
X113362898Y-119137898D02*
X111112898Y-121337898D01*
X111112898Y-116937898D01*
X113362898Y-119137898D01*
X130887898Y-131687898D02*
X128537898Y-133987898D01*
X123537898Y-128987898D02*
X121187898Y-126687898D01*
G36*
X128337898Y-129137898D02*
G01*
X126037898Y-131437898D01*
X123737898Y-129137898D01*
X126037898Y-126887898D01*
X128337898Y-129137898D01*
G37*
X128337898Y-129137898D02*
X126037898Y-131437898D01*
X123737898Y-129137898D01*
X126037898Y-126887898D01*
X128337898Y-129137898D01*
G36*
X118337898Y-119137898D02*
G01*
X116037898Y-121437898D01*
X113737898Y-119137898D01*
X116037898Y-116887898D01*
X118337898Y-119137898D01*
G37*
X118337898Y-119137898D02*
X116037898Y-121437898D01*
X113737898Y-119137898D01*
X116037898Y-116887898D01*
X118337898Y-119137898D01*
X111187898Y-111687898D02*
X113537898Y-109387898D01*
X116187898Y-121687898D02*
X118537898Y-119387898D01*
X138537898Y-124387898D02*
X140887898Y-126687898D01*
X115887898Y-141687898D02*
X113537898Y-143987898D01*
X133537898Y-108987898D02*
X131187898Y-106687898D01*
G36*
X113362898Y-114137898D02*
G01*
X111112898Y-116337898D01*
X111112898Y-111937898D01*
X113362898Y-114137898D01*
G37*
X113362898Y-114137898D02*
X111112898Y-116337898D01*
X111112898Y-111937898D01*
X113362898Y-114137898D01*
X141337898Y-147087898D02*
X110737898Y-147087898D01*
X110737898Y-147087898D02*
X110737898Y-101287898D01*
X110737898Y-101287898D02*
X141337898Y-101287898D01*
X141337898Y-101287898D02*
X141337898Y-147087898D01*
X113537898Y-119387898D02*
X115887898Y-121687898D01*
G36*
X141037898Y-126437898D02*
G01*
X138737898Y-124137898D01*
X141037898Y-121837898D01*
X141037898Y-126437898D01*
G37*
X141037898Y-126437898D02*
X138737898Y-124137898D01*
X141037898Y-121837898D01*
X141037898Y-126437898D01*
X130887898Y-111687898D02*
X128537898Y-113987898D01*
X128537898Y-129387898D02*
X130887898Y-131687898D01*
X126187898Y-121687898D02*
X128537898Y-119387898D01*
X126187898Y-111687898D02*
X128537898Y-109387898D01*
G36*
X123337898Y-104137898D02*
G01*
X121037898Y-106437898D01*
X118737898Y-104137898D01*
X121037898Y-101887898D01*
X123337898Y-104137898D01*
G37*
X123337898Y-104137898D02*
X121037898Y-106437898D01*
X118737898Y-104137898D01*
X121037898Y-101887898D01*
X123337898Y-104137898D01*
X125887898Y-141687898D02*
X123537898Y-143987898D01*
X123537898Y-113987898D02*
X121187898Y-111687898D01*
X126187898Y-146687898D02*
X130887898Y-146687898D01*
G36*
X128337898Y-104137898D02*
G01*
X126037898Y-106437898D01*
X123737898Y-104137898D01*
X126037898Y-101887898D01*
X128337898Y-104137898D01*
G37*
X128337898Y-104137898D02*
X126037898Y-106437898D01*
X123737898Y-104137898D01*
X126037898Y-101887898D01*
X128337898Y-104137898D01*
X136187898Y-141687898D02*
X138537898Y-139387898D01*
X133537898Y-123987898D02*
X131187898Y-121687898D01*
G36*
X123337898Y-144137898D02*
G01*
X121037898Y-146437898D01*
X118737898Y-144137898D01*
X121037898Y-141887898D01*
X123337898Y-144137898D01*
G37*
X123337898Y-144137898D02*
X121037898Y-146437898D01*
X118737898Y-144137898D01*
X121037898Y-141887898D01*
X123337898Y-144137898D01*
X116337898Y-101687898D02*
X120787898Y-101687898D01*
X126187898Y-146687898D02*
X128537898Y-144387898D01*
X123537898Y-119387898D02*
X125887898Y-121687898D01*
G36*
X113362898Y-129137898D02*
G01*
X111112898Y-131337898D01*
X111112898Y-126937898D01*
X113362898Y-129137898D01*
G37*
X113362898Y-129137898D02*
X111112898Y-131337898D01*
X111112898Y-126937898D01*
X113362898Y-129137898D01*
X140887898Y-136687898D02*
X138537898Y-138987898D01*
G36*
X133337898Y-114137898D02*
G01*
X131037898Y-116437898D01*
X128737898Y-114137898D01*
X131037898Y-111887898D01*
X133337898Y-114137898D01*
G37*
X133337898Y-114137898D02*
X131037898Y-116437898D01*
X128737898Y-114137898D01*
X131037898Y-111887898D01*
X133337898Y-114137898D01*
X128537898Y-118987898D02*
X126187898Y-116687898D01*
X111337898Y-101687898D02*
X115787898Y-101687898D01*
X133537898Y-133987898D02*
X131187898Y-131687898D01*
X113537898Y-109387898D02*
X115887898Y-111687898D01*
X138537898Y-108987898D02*
X136187898Y-106687898D01*
G36*
X141037898Y-136437898D02*
G01*
X138737898Y-134137898D01*
X141037898Y-131837898D01*
X141037898Y-136437898D01*
G37*
X141037898Y-136437898D02*
X138737898Y-134137898D01*
X141037898Y-131837898D01*
X141037898Y-136437898D01*
X135887898Y-111687898D02*
X133537898Y-113987898D01*
X121187898Y-141687898D02*
X123537898Y-139387898D01*
X118537898Y-133987898D02*
X116187898Y-131687898D01*
G36*
X133337898Y-124137898D02*
G01*
X131037898Y-126437898D01*
X128737898Y-124137898D01*
X131037898Y-121887898D01*
X133337898Y-124137898D01*
G37*
X133337898Y-124137898D02*
X131037898Y-126437898D01*
X128737898Y-124137898D01*
X131037898Y-121887898D01*
X133337898Y-124137898D01*
X135787898Y-101687898D02*
X133537898Y-103887898D01*
X125887898Y-126687898D02*
X123537898Y-128987898D01*
X133537898Y-143987898D02*
X131187898Y-141687898D01*
X116187898Y-146687898D02*
X118537898Y-144387898D01*
X130887898Y-126687898D02*
X128537898Y-128987898D01*
X123537898Y-134387898D02*
X125887898Y-136687898D01*
X126187898Y-131687898D02*
X128537898Y-129387898D01*
X115887898Y-111687898D02*
X113537898Y-113987898D01*
G36*
X128337898Y-114137898D02*
G01*
X126037898Y-116437898D01*
X123737898Y-114137898D01*
X126037898Y-111887898D01*
X128337898Y-114137898D01*
G37*
X128337898Y-114137898D02*
X126037898Y-116437898D01*
X123737898Y-114137898D01*
X126037898Y-111887898D01*
X128337898Y-114137898D01*
G36*
X123337898Y-119137898D02*
G01*
X121037898Y-121437898D01*
X118737898Y-119137898D01*
X121037898Y-116887898D01*
X123337898Y-119137898D01*
G37*
X123337898Y-119137898D02*
X121037898Y-121437898D01*
X118737898Y-119137898D01*
X121037898Y-116887898D01*
X123337898Y-119137898D01*
G36*
X118337898Y-139137898D02*
G01*
X116037898Y-141437898D01*
X113737898Y-139137898D01*
X116037898Y-136887898D01*
X118337898Y-139137898D01*
G37*
X118337898Y-139137898D02*
X116037898Y-141437898D01*
X113737898Y-139137898D01*
X116037898Y-136887898D01*
X118337898Y-139137898D01*
X113537898Y-124387898D02*
X115887898Y-126687898D01*
X136187898Y-111687898D02*
X138537898Y-109387898D01*
G36*
X138337898Y-114137898D02*
G01*
X136037898Y-116437898D01*
X133737898Y-114137898D01*
X136037898Y-111887898D01*
X138337898Y-114137898D01*
G37*
X138337898Y-114137898D02*
X136037898Y-116437898D01*
X133737898Y-114137898D01*
X136037898Y-111887898D01*
X138337898Y-114137898D01*
G36*
X118337898Y-144137898D02*
G01*
X116037898Y-146437898D01*
X113737898Y-144137898D01*
X116037898Y-141887898D01*
X118337898Y-144137898D01*
G37*
X118337898Y-144137898D02*
X116037898Y-146437898D01*
X113737898Y-144137898D01*
X116037898Y-141887898D01*
X118337898Y-144137898D01*
X135887898Y-136687898D02*
X133537898Y-138987898D01*
X130887898Y-106687898D02*
X128537898Y-108987898D01*
X120787898Y-101687898D02*
X118537898Y-103887898D01*
X125887898Y-111687898D02*
X123537898Y-113987898D01*
X136187898Y-146687898D02*
X138537898Y-144387898D01*
X135887898Y-131687898D02*
X133537898Y-133987898D01*
G36*
X141037898Y-116437898D02*
G01*
X138737898Y-114137898D01*
X141037898Y-111837898D01*
X141037898Y-116437898D01*
G37*
X141037898Y-116437898D02*
X138737898Y-114137898D01*
X141037898Y-111837898D01*
X141037898Y-116437898D01*
X113537898Y-108987898D02*
X111187898Y-106687898D01*
G36*
X141037898Y-121437898D02*
G01*
X138737898Y-119137898D01*
X141037898Y-116837898D01*
X141037898Y-121437898D01*
G37*
X141037898Y-121437898D02*
X138737898Y-119137898D01*
X141037898Y-116837898D01*
X141037898Y-121437898D01*
X140887898Y-111687898D02*
X138537898Y-113987898D01*
X128537898Y-119387898D02*
X130887898Y-121687898D01*
X135887898Y-116687898D02*
X133537898Y-118987898D01*
X120887898Y-126687898D02*
X118537898Y-128987898D01*
X123537898Y-114387898D02*
X125887898Y-116687898D01*
X116187898Y-111687898D02*
X118537898Y-109387898D01*
X116187898Y-106687898D02*
X118537898Y-104387898D01*
G36*
X141037898Y-141437898D02*
G01*
X138737898Y-139137898D01*
X141037898Y-136837898D01*
X141037898Y-141437898D01*
G37*
X141037898Y-141437898D02*
X138737898Y-139137898D01*
X141037898Y-136837898D01*
X141037898Y-141437898D01*
M02*
