M48
; DRILL file {KiCad (6.0.5-0)} date 
; FORMAT={-:-/ absolute / metric / decimal}
; #@! TF.CreationDate,2022-06-25T23:29:54+09:00
; #@! TF.GenerationSoftware,Kicad,Pcbnew,(6.0.5-0)
; #@! TF.FileFunction,MixedPlating,1,2
FMAT,2
METRIC
; #@! TA.AperFunction,Plated,PTH,ViaDrill
T1C0.400
; #@! TA.AperFunction,Plated,PTH,ComponentDrill
T2C0.400
; #@! TA.AperFunction,Plated,PTH,ComponentDrill
T3C2.200
%
G90
G05
T1
X110.174Y-106.453
X110.174Y-111.453
X110.174Y-116.453
X110.174Y-121.453
X110.174Y-126.453
X110.174Y-131.453
X110.174Y-136.453
X110.174Y-141.453
X112.698Y-103.953
X112.698Y-108.953
X112.698Y-113.953
X112.698Y-118.953
X112.698Y-123.953
X112.698Y-128.953
X112.698Y-133.953
X112.698Y-138.953
X112.698Y-143.953
X114.198Y-103.953
X114.198Y-108.953
X114.198Y-113.953
X114.198Y-118.953
X114.198Y-123.953
X114.198Y-128.953
X114.198Y-133.953
X114.198Y-138.953
X114.198Y-143.953
X115.96Y-147.215
X115.974Y-100.453
X117.698Y-103.953
X117.698Y-108.953
X117.698Y-113.953
X117.698Y-118.953
X117.698Y-123.953
X117.698Y-128.953
X117.698Y-133.953
X117.698Y-138.953
X117.698Y-143.953
X119.198Y-103.953
X119.198Y-108.953
X119.198Y-113.953
X119.198Y-118.953
X119.198Y-123.953
X119.198Y-128.953
X119.198Y-133.953
X119.198Y-138.953
X119.198Y-143.953
X120.96Y-147.215
X120.974Y-100.453
X122.698Y-103.953
X122.698Y-108.953
X122.698Y-113.953
X122.698Y-118.953
X122.698Y-123.953
X122.698Y-128.953
X122.698Y-133.953
X122.698Y-138.953
X122.698Y-143.953
X124.198Y-103.953
X124.198Y-108.953
X124.198Y-113.953
X124.198Y-118.953
X124.198Y-123.953
X124.198Y-128.953
X124.198Y-133.953
X124.198Y-138.953
X124.198Y-143.953
X125.96Y-147.215
X125.974Y-100.453
X127.698Y-103.953
X127.698Y-108.953
X127.698Y-113.953
X127.698Y-118.953
X127.698Y-123.953
X127.698Y-128.953
X127.698Y-133.953
X127.698Y-138.953
X127.698Y-143.953
X129.198Y-103.953
X129.198Y-108.953
X129.198Y-113.953
X129.198Y-118.953
X129.198Y-123.953
X129.198Y-128.953
X129.198Y-133.953
X129.198Y-138.953
X129.198Y-143.953
X130.96Y-147.215
X130.974Y-100.453
X132.698Y-103.953
X132.698Y-108.953
X132.698Y-113.953
X132.698Y-118.953
X132.698Y-123.953
X132.698Y-128.953
X132.698Y-133.953
X132.698Y-138.953
X132.698Y-143.953
X134.198Y-103.953
X134.198Y-108.953
X134.198Y-113.953
X134.198Y-118.953
X134.198Y-123.953
X134.198Y-128.953
X134.198Y-133.953
X134.198Y-138.953
X134.198Y-143.953
X134.298Y-161.303
X135.96Y-147.215
X135.974Y-100.453
X137.698Y-103.953
X137.698Y-108.953
X137.698Y-113.953
X137.698Y-118.953
X137.698Y-123.953
X137.698Y-128.953
X137.698Y-133.953
X137.698Y-138.953
X137.698Y-143.953
X138.598Y-161.303
X139.198Y-103.953
X139.198Y-108.953
X139.198Y-113.953
X139.198Y-118.953
X139.198Y-123.953
X139.198Y-128.953
X139.198Y-133.953
X139.198Y-138.953
X139.198Y-143.953
X141.698Y-106.453
X141.698Y-111.453
X141.698Y-116.453
X141.698Y-121.453
X141.698Y-126.453
X141.698Y-131.453
X141.698Y-136.453
X141.698Y-141.453
X141.71Y-147.215
X155.864Y-106.453
X155.864Y-111.453
X155.864Y-116.453
X155.864Y-121.453
X155.864Y-126.453
X155.864Y-131.453
X155.864Y-136.453
X155.864Y-141.453
X158.388Y-103.953
X158.388Y-108.953
X158.388Y-113.953
X158.388Y-118.953
X158.388Y-123.953
X158.388Y-128.953
X158.388Y-133.953
X158.388Y-138.953
X158.388Y-143.953
X159.888Y-103.953
X159.888Y-108.953
X159.888Y-113.953
X159.888Y-118.953
X159.888Y-123.953
X159.888Y-128.953
X159.888Y-133.953
X159.888Y-138.953
X159.888Y-143.953
X161.65Y-147.215
X161.664Y-100.453
X163.388Y-103.953
X163.388Y-108.953
X163.388Y-113.953
X163.388Y-118.953
X163.388Y-123.953
X163.388Y-128.953
X163.388Y-133.953
X163.388Y-138.953
X163.388Y-143.953
X164.888Y-103.953
X164.888Y-108.953
X164.888Y-113.953
X164.888Y-118.953
X164.888Y-123.953
X164.888Y-128.953
X164.888Y-133.953
X164.888Y-138.953
X164.888Y-143.953
X166.65Y-147.215
X166.664Y-100.453
X168.388Y-103.953
X168.388Y-108.953
X168.388Y-113.953
X168.388Y-118.953
X168.388Y-123.953
X168.388Y-128.953
X168.388Y-133.953
X168.388Y-138.953
X168.388Y-143.953
X169.888Y-103.953
X169.888Y-108.953
X169.888Y-113.953
X169.888Y-118.953
X169.888Y-123.953
X169.888Y-128.953
X169.888Y-133.953
X169.888Y-138.953
X169.888Y-143.953
X171.65Y-147.215
X171.664Y-100.453
X173.388Y-103.953
X173.388Y-108.953
X173.388Y-113.953
X173.388Y-118.953
X173.388Y-123.953
X173.388Y-128.953
X173.388Y-133.953
X173.388Y-138.953
X173.388Y-143.953
X174.888Y-103.953
X174.888Y-108.953
X174.888Y-113.953
X174.888Y-118.953
X174.888Y-123.953
X174.888Y-128.953
X174.888Y-133.953
X174.888Y-138.953
X174.888Y-143.953
X176.65Y-147.215
X176.664Y-100.453
X178.388Y-103.953
X178.388Y-108.953
X178.388Y-113.953
X178.388Y-118.953
X178.388Y-123.953
X178.388Y-128.953
X178.388Y-133.953
X178.388Y-138.953
X178.388Y-143.953
X179.888Y-103.953
X179.888Y-108.953
X179.888Y-113.953
X179.888Y-118.953
X179.888Y-123.953
X179.888Y-128.953
X179.888Y-133.953
X179.888Y-138.953
X179.888Y-143.953
X179.988Y-161.303
X181.65Y-147.215
X181.664Y-100.453
X183.388Y-103.953
X183.388Y-108.953
X183.388Y-113.953
X183.388Y-118.953
X183.388Y-123.953
X183.388Y-128.953
X183.388Y-133.953
X183.388Y-138.953
X183.388Y-143.953
X184.288Y-161.303
X184.888Y-103.953
X184.888Y-108.953
X184.888Y-113.953
X184.888Y-118.953
X184.888Y-123.953
X184.888Y-128.953
X184.888Y-133.953
X184.888Y-138.953
X184.888Y-143.953
X187.388Y-106.453
X187.388Y-111.453
X187.388Y-116.453
X187.388Y-121.453
X187.388Y-126.453
X187.388Y-131.453
X187.388Y-136.453
X187.388Y-141.453
X187.4Y-147.215
T2
X107.577Y-149.221
X107.64Y-98.421
X108.06Y-148.054
X108.06Y-150.388
X108.124Y-97.254
X108.124Y-99.588
X109.227Y-147.571
X109.227Y-150.871
X109.29Y-96.771
X109.29Y-100.071
X110.394Y-148.054
X110.394Y-150.388
X110.457Y-97.254
X110.457Y-99.588
X110.877Y-149.221
X110.94Y-98.421
X141.232Y-98.421
X141.232Y-167.001
X141.715Y-97.254
X141.715Y-99.588
X141.715Y-165.834
X141.715Y-168.168
X142.882Y-96.771
X142.882Y-100.071
X142.882Y-165.351
X142.882Y-168.651
X144.049Y-97.254
X144.049Y-99.588
X144.049Y-165.834
X144.049Y-168.168
X144.532Y-98.421
X144.532Y-167.001
X153.267Y-149.221
X153.33Y-98.421
X153.75Y-148.054
X153.75Y-150.388
X153.814Y-97.254
X153.814Y-99.588
X154.917Y-147.571
X154.917Y-150.871
X154.98Y-96.771
X154.98Y-100.071
X156.084Y-148.054
X156.084Y-150.388
X156.147Y-97.254
X156.147Y-99.588
X156.567Y-149.221
X156.63Y-98.421
X186.922Y-98.421
X186.922Y-167.001
X187.405Y-97.254
X187.405Y-99.588
X187.405Y-165.834
X187.405Y-168.168
X188.572Y-96.771
X188.572Y-100.071
X188.572Y-165.351
X188.572Y-168.651
X189.739Y-97.254
X189.739Y-99.588
X189.739Y-165.834
X189.739Y-168.168
X190.222Y-98.421
X190.222Y-167.001
T3
X109.227Y-149.221
X109.29Y-98.421
X142.882Y-98.421
X142.882Y-167.001
X154.917Y-149.221
X154.98Y-98.421
X188.572Y-98.421
X188.572Y-167.001
T0
M30
