%TF.GenerationSoftware,KiCad,Pcbnew,(6.0.5-0)*%
%TF.CreationDate,2022-06-25T23:29:46+09:00*%
%TF.ProjectId,MTCH6102_breakout,4d544348-3631-4303-925f-627265616b6f,rev?*%
%TF.SameCoordinates,Original*%
%TF.FileFunction,Profile,NP*%
%FSLAX46Y46*%
G04 Gerber Fmt 4.6, Leading zero omitted, Abs format (unit mm)*
G04 Created by KiCad (PCBNEW (6.0.5-0)) date 2022-06-25 23:29:46*
%MOMM*%
%LPD*%
G01*
G04 APERTURE LIST*
%TA.AperFunction,Profile*%
%ADD10C,0.150000*%
%TD*%
G04 APERTURE END LIST*
D10*
X187301898Y-94610898D02*
X184791898Y-94610898D01*
X156180000Y-94615000D02*
X158750000Y-94615000D01*
X139071898Y-94610898D02*
X139065000Y-90805000D01*
X151106898Y-99690898D02*
X151106898Y-151125898D01*
X188705975Y-173082743D02*
X151106898Y-151125898D01*
X192381898Y-99690898D02*
X192381898Y-170810898D01*
X192381898Y-99690898D02*
G75*
G03*
X187301898Y-94610898I-5080000J0D01*
G01*
X188705975Y-173082743D02*
G75*
G03*
X192381898Y-170810898I1135923J2271845D01*
G01*
X156180000Y-94615000D02*
G75*
G03*
X151106898Y-99690898I-3J-5073100D01*
G01*
X105410000Y-90805000D02*
X113030000Y-90805000D01*
X105410000Y-86360000D02*
X105410000Y-90805000D01*
X192405000Y-86360000D02*
X105410000Y-86360000D01*
X192405000Y-90805000D02*
X192405000Y-86360000D01*
X184785000Y-90805000D02*
X192405000Y-90805000D01*
X139065000Y-90805000D02*
X158750000Y-90805000D01*
X163195000Y-94615000D02*
X163195000Y-90805000D01*
X163195000Y-90805000D02*
X180975000Y-90805000D01*
X158750000Y-94615000D02*
X158750000Y-90805000D01*
X184791898Y-94610898D02*
X184785000Y-90805000D01*
X180975000Y-94615000D02*
X180975000Y-90805000D01*
X163195000Y-94615000D02*
X180975000Y-94615000D01*
X117475000Y-90805000D02*
X135255000Y-90805000D01*
X135255000Y-94615000D02*
X135255000Y-90805000D01*
X117475000Y-94615000D02*
X117475000Y-90805000D01*
X113030000Y-94615000D02*
X113030000Y-90805000D01*
X117475000Y-94615000D02*
X135255000Y-94615000D01*
X139071898Y-94610898D02*
X141611898Y-94610898D01*
X110490000Y-94615000D02*
G75*
G03*
X105416898Y-99690898I-3J-5073100D01*
G01*
X143015975Y-173082743D02*
G75*
G03*
X146691898Y-170810898I1135923J2271845D01*
G01*
X146691898Y-99690898D02*
G75*
G03*
X141611898Y-94610898I-5080000J0D01*
G01*
X146691898Y-99690898D02*
X146691898Y-170810898D01*
X143015975Y-173082743D02*
X105416898Y-151125898D01*
X110490000Y-94615000D02*
X113030000Y-94615000D01*
X105416898Y-99690898D02*
X105416898Y-151125898D01*
M02*
