%TF.GenerationSoftware,KiCad,Pcbnew,(6.0.5-0)*%
%TF.CreationDate,2023-02-12T12:56:51+09:00*%
%TF.ProjectId,MTCH6102_breakout,4d544348-3631-4303-925f-627265616b6f,rev?*%
%TF.SameCoordinates,Original*%
%TF.FileFunction,Soldermask,Bot*%
%TF.FilePolarity,Negative*%
%FSLAX46Y46*%
G04 Gerber Fmt 4.6, Leading zero omitted, Abs format (unit mm)*
G04 Created by KiCad (PCBNEW (6.0.5-0)) date 2023-02-12 12:56:51*
%MOMM*%
%LPD*%
G01*
G04 APERTURE LIST*
G04 Aperture macros list*
%AMRoundRect*
0 Rectangle with rounded corners*
0 $1 Rounding radius*
0 $2 $3 $4 $5 $6 $7 $8 $9 X,Y pos of 4 corners*
0 Add a 4 corners polygon primitive as box body*
4,1,4,$2,$3,$4,$5,$6,$7,$8,$9,$2,$3,0*
0 Add four circle primitives for the rounded corners*
1,1,$1+$1,$2,$3*
1,1,$1+$1,$4,$5*
1,1,$1+$1,$6,$7*
1,1,$1+$1,$8,$9*
0 Add four rect primitives between the rounded corners*
20,1,$1+$1,$2,$3,$4,$5,0*
20,1,$1+$1,$4,$5,$6,$7,0*
20,1,$1+$1,$6,$7,$8,$9,0*
20,1,$1+$1,$8,$9,$2,$3,0*%
G04 Aperture macros list end*
%ADD10C,1.100000*%
%ADD11C,4.800000*%
%ADD12RoundRect,0.200000X-0.225000X0.875000X-0.225000X-0.875000X0.225000X-0.875000X0.225000X0.875000X0*%
G04 APERTURE END LIST*
D10*
X144048624Y-168167624D03*
X142881898Y-168650898D03*
D11*
X142881898Y-167000898D03*
D10*
X142881898Y-165350898D03*
X141715172Y-168167624D03*
X144531898Y-167000898D03*
X141231898Y-167000898D03*
X141715172Y-165834172D03*
X144048624Y-165834172D03*
D12*
X131522898Y-151652898D03*
X132172898Y-151652898D03*
X132822898Y-151652898D03*
X133472898Y-151652898D03*
X134122898Y-151652898D03*
X134772898Y-151652898D03*
X135422898Y-151652898D03*
X136072898Y-151652898D03*
X136722898Y-151652898D03*
X137372898Y-151652898D03*
X138022898Y-151652898D03*
X138672898Y-151652898D03*
X139322898Y-151652898D03*
X139972898Y-151652898D03*
X139972898Y-158852898D03*
X139322898Y-158852898D03*
X138672898Y-158852898D03*
X138022898Y-158852898D03*
X137372898Y-158852898D03*
X136722898Y-158852898D03*
X136072898Y-158852898D03*
X135422898Y-158852898D03*
X134772898Y-158852898D03*
X134122898Y-158852898D03*
X133472898Y-158852898D03*
X132822898Y-158852898D03*
X132172898Y-158852898D03*
X131522898Y-158852898D03*
X177253500Y-151660000D03*
X177903500Y-151660000D03*
X178553500Y-151660000D03*
X179203500Y-151660000D03*
X179853500Y-151660000D03*
X180503500Y-151660000D03*
X181153500Y-151660000D03*
X181803500Y-151660000D03*
X182453500Y-151660000D03*
X183103500Y-151660000D03*
X183753500Y-151660000D03*
X184403500Y-151660000D03*
X185053500Y-151660000D03*
X185703500Y-151660000D03*
X185703500Y-158860000D03*
X185053500Y-158860000D03*
X184403500Y-158860000D03*
X183753500Y-158860000D03*
X183103500Y-158860000D03*
X182453500Y-158860000D03*
X181803500Y-158860000D03*
X181153500Y-158860000D03*
X180503500Y-158860000D03*
X179853500Y-158860000D03*
X179203500Y-158860000D03*
X178553500Y-158860000D03*
X177903500Y-158860000D03*
X177253500Y-158860000D03*
D10*
X190262500Y-98428000D03*
X188612500Y-96778000D03*
D11*
X188612500Y-98428000D03*
D10*
X188612500Y-100078000D03*
X187445774Y-97261274D03*
X187445774Y-99594726D03*
X189779226Y-99594726D03*
X186962500Y-98428000D03*
X189779226Y-97261274D03*
X188612500Y-165358000D03*
X189779226Y-165841274D03*
X187445774Y-168174726D03*
X186962500Y-167008000D03*
X190262500Y-167008000D03*
X187445774Y-165841274D03*
X189779226Y-168174726D03*
X188612500Y-168658000D03*
D11*
X188612500Y-167008000D03*
D10*
X110457124Y-99587624D03*
X107640398Y-98420898D03*
X108123672Y-97254172D03*
D11*
X109290398Y-98420898D03*
D10*
X110457124Y-97254172D03*
X108123672Y-99587624D03*
X109290398Y-96770898D03*
X110940398Y-98420898D03*
X109290398Y-100070898D03*
X154957500Y-147578000D03*
X153790774Y-150394726D03*
D11*
X154957500Y-149228000D03*
D10*
X156124226Y-148061274D03*
X156124226Y-150394726D03*
X156607500Y-149228000D03*
X154957500Y-150878000D03*
X153307500Y-149228000D03*
X153790774Y-148061274D03*
X156671000Y-98428000D03*
X155021000Y-100078000D03*
D11*
X155021000Y-98428000D03*
D10*
X153854274Y-97261274D03*
X153371000Y-98428000D03*
X153854274Y-99594726D03*
X155021000Y-96778000D03*
X156187726Y-97261274D03*
X156187726Y-99594726D03*
X110393624Y-150387624D03*
D11*
X109226898Y-149220898D03*
D10*
X109226898Y-150870898D03*
X110876898Y-149220898D03*
X110393624Y-148054172D03*
X108060172Y-148054172D03*
X107576898Y-149220898D03*
X109226898Y-147570898D03*
X108060172Y-150387624D03*
X144048624Y-99587624D03*
X144531898Y-98420898D03*
X142881898Y-100070898D03*
X142881898Y-96770898D03*
D11*
X142881898Y-98420898D03*
D10*
X141715172Y-99587624D03*
X141715172Y-97254172D03*
X141231898Y-98420898D03*
X144048624Y-97254172D03*
M02*
