%TF.GenerationSoftware,KiCad,Pcbnew,(6.0.5-0)*%
%TF.CreationDate,2023-02-12T12:56:51+09:00*%
%TF.ProjectId,MTCH6102_breakout,4d544348-3631-4303-925f-627265616b6f,rev?*%
%TF.SameCoordinates,Original*%
%TF.FileFunction,Legend,Bot*%
%TF.FilePolarity,Positive*%
%FSLAX46Y46*%
G04 Gerber Fmt 4.6, Leading zero omitted, Abs format (unit mm)*
G04 Created by KiCad (PCBNEW (6.0.5-0)) date 2023-02-12 12:56:51*
%MOMM*%
%LPD*%
G01*
G04 APERTURE LIST*
%ADD10C,0.150000*%
G04 APERTURE END LIST*
D10*
X128950278Y-154490993D02*
X129759802Y-154490993D01*
X129855040Y-154538612D01*
X129902659Y-154586231D01*
X129950278Y-154681469D01*
X129950278Y-154871945D01*
X129902659Y-154967183D01*
X129855040Y-155014802D01*
X129759802Y-155062421D01*
X128950278Y-155062421D01*
X129045517Y-155490993D02*
X128997898Y-155538612D01*
X128950278Y-155633850D01*
X128950278Y-155871945D01*
X128997898Y-155967183D01*
X129045517Y-156014802D01*
X129140755Y-156062421D01*
X129235993Y-156062421D01*
X129378850Y-156014802D01*
X129950278Y-155443374D01*
X129950278Y-156062421D01*
X174680880Y-154498095D02*
X175490404Y-154498095D01*
X175585642Y-154545714D01*
X175633261Y-154593333D01*
X175680880Y-154688571D01*
X175680880Y-154879047D01*
X175633261Y-154974285D01*
X175585642Y-155021904D01*
X175490404Y-155069523D01*
X174680880Y-155069523D01*
X174776119Y-155498095D02*
X174728500Y-155545714D01*
X174680880Y-155640952D01*
X174680880Y-155879047D01*
X174728500Y-155974285D01*
X174776119Y-156021904D01*
X174871357Y-156069523D01*
X174966595Y-156069523D01*
X175109452Y-156021904D01*
X175680880Y-155450476D01*
X175680880Y-156069523D01*
X130422898Y-158127898D02*
X131072898Y-158127898D01*
X141072898Y-158127898D02*
X140422898Y-158127898D01*
X130997898Y-152377898D02*
X130997898Y-150777898D01*
X130422898Y-152377898D02*
X130997898Y-152377898D01*
X141072898Y-152377898D02*
X140422898Y-152377898D01*
X130422898Y-152377898D02*
X130422898Y-158127898D01*
X141072898Y-152377898D02*
X141072898Y-158127898D01*
X186803500Y-152385000D02*
X186153500Y-152385000D01*
X176153500Y-152385000D02*
X176728500Y-152385000D01*
X176153500Y-152385000D02*
X176153500Y-158135000D01*
X176153500Y-158135000D02*
X176803500Y-158135000D01*
X186803500Y-158135000D02*
X186153500Y-158135000D01*
X176728500Y-152385000D02*
X176728500Y-150785000D01*
X186803500Y-152385000D02*
X186803500Y-158135000D01*
M02*
