G04 #@! TF.GenerationSoftware,KiCad,Pcbnew,5.0.2-bee76a0~70~ubuntu18.04.1*
G04 #@! TF.CreationDate,2019-07-24T00:03:49+09:00*
G04 #@! TF.ProjectId,silverbullet44,73696c76-6572-4627-956c-6c657434342e,rev?*
G04 #@! TF.SameCoordinates,Original*
G04 #@! TF.FileFunction,Profile,NP*
%FSLAX46Y46*%
G04 Gerber Fmt 4.6, Leading zero omitted, Abs format (unit mm)*
G04 Created by KiCad (PCBNEW 5.0.2-bee76a0~70~ubuntu18.04.1) date 2019年07月24日 00時03分49秒*
%MOMM*%
%LPD*%
G01*
G04 APERTURE LIST*
%ADD10C,0.150000*%
G04 #@! TA.AperFunction,NonConductor*
%ADD11C,0.150000*%
G04 #@! TD*
G04 APERTURE END LIST*
D10*
X57546666Y-20955000D02*
G75*
G03X57546666Y-20955000I-1666666J0D01*
G01*
X53380000Y-20955000D02*
X58380000Y-20955000D01*
X55880000Y-18455000D02*
X55880000Y-23455000D01*
X69850000Y-126365000D02*
X55880000Y-118110000D01*
X206375000Y-31115000D02*
G75*
G02X211455000Y-36195000I0J-5080000D01*
G01*
X211455000Y-102235000D02*
G75*
G02X206375000Y-107315000I-5080000J0D01*
G01*
X55880000Y-118110000D02*
X55880000Y-34290000D01*
X102870000Y-107315000D02*
X69850000Y-126365000D01*
X206375000Y-107315000D02*
X102870000Y-107315000D01*
X211455000Y-36195000D02*
X211455000Y-102235000D01*
X154305000Y-20955000D02*
X206375000Y-31115000D01*
X69215000Y-20955000D02*
X154305000Y-20955000D01*
X55880000Y-34290000D02*
X69215000Y-20955000D01*
D11*
G04 #@! TO.C,L16*
X129695000Y-86015000D02*
X129695000Y-90515000D01*
X133195000Y-86015000D02*
X133195000Y-90515000D01*
X129695000Y-86015000D02*
X133195000Y-86015000D01*
X133195000Y-90515000D02*
X129695000Y-90515000D01*
G04 #@! TO.C,L1*
X143030000Y-23150000D02*
X143030000Y-27650000D01*
X146530000Y-23150000D02*
X146530000Y-27650000D01*
X143030000Y-23150000D02*
X146530000Y-23150000D01*
X146530000Y-27650000D02*
X143030000Y-27650000D01*
G04 #@! TO.C,L2*
X123980000Y-26960000D02*
X123980000Y-31460000D01*
X127480000Y-26960000D02*
X127480000Y-31460000D01*
X123980000Y-26960000D02*
X127480000Y-26960000D01*
X127480000Y-31460000D02*
X123980000Y-31460000D01*
G04 #@! TO.C,L3*
X104930000Y-30770000D02*
X104930000Y-35270000D01*
X108430000Y-30770000D02*
X108430000Y-35270000D01*
X104930000Y-30770000D02*
X108430000Y-30770000D01*
X108430000Y-35270000D02*
X104930000Y-35270000D01*
G04 #@! TO.C,L4*
X104930000Y-49820000D02*
X104930000Y-54320000D01*
X108430000Y-49820000D02*
X108430000Y-54320000D01*
X104930000Y-49820000D02*
X108430000Y-49820000D01*
X108430000Y-54320000D02*
X104930000Y-54320000D01*
G04 #@! TO.C,L5*
X123980000Y-46010000D02*
X123980000Y-50510000D01*
X127480000Y-46010000D02*
X127480000Y-50510000D01*
X123980000Y-46010000D02*
X127480000Y-46010000D01*
X127480000Y-50510000D02*
X123980000Y-50510000D01*
G04 #@! TO.C,L6*
X143030000Y-41946000D02*
X143030000Y-46446000D01*
X146530000Y-41946000D02*
X146530000Y-46446000D01*
X143030000Y-41946000D02*
X146530000Y-41946000D01*
X146530000Y-46446000D02*
X143030000Y-46446000D01*
G04 #@! TO.C,L7*
X162080000Y-26960000D02*
X162080000Y-31460000D01*
X165580000Y-26960000D02*
X165580000Y-31460000D01*
X162080000Y-26960000D02*
X165580000Y-26960000D01*
X165580000Y-31460000D02*
X162080000Y-31460000D01*
G04 #@! TO.C,L8*
X181130000Y-36485000D02*
X181130000Y-40985000D01*
X184630000Y-36485000D02*
X184630000Y-40985000D01*
X181130000Y-36485000D02*
X184630000Y-36485000D01*
X184630000Y-40985000D02*
X181130000Y-40985000D01*
G04 #@! TO.C,L9*
X162080000Y-46010000D02*
X162080000Y-50510000D01*
X165580000Y-46010000D02*
X165580000Y-50510000D01*
X162080000Y-46010000D02*
X165580000Y-46010000D01*
X165580000Y-50510000D02*
X162080000Y-50510000D01*
G04 #@! TO.C,L10*
X143030000Y-61250000D02*
X143030000Y-65750000D01*
X146530000Y-61250000D02*
X146530000Y-65750000D01*
X143030000Y-61250000D02*
X146530000Y-61250000D01*
X146530000Y-65750000D02*
X143030000Y-65750000D01*
G04 #@! TO.C,L11*
X123980000Y-65060000D02*
X123980000Y-69560000D01*
X127480000Y-65060000D02*
X127480000Y-69560000D01*
X123980000Y-65060000D02*
X127480000Y-65060000D01*
X127480000Y-69560000D02*
X123980000Y-69560000D01*
G04 #@! TO.C,L12*
X104930000Y-68870000D02*
X104930000Y-73370000D01*
X108430000Y-68870000D02*
X108430000Y-73370000D01*
X104930000Y-68870000D02*
X108430000Y-68870000D01*
X108430000Y-73370000D02*
X104930000Y-73370000D01*
G04 #@! TO.C,L13*
X76638557Y-103404456D02*
X72741443Y-105654456D01*
X78388557Y-106435544D02*
X74491443Y-108685544D01*
X76638557Y-103404456D02*
X78388557Y-106435544D01*
X74491443Y-108685544D02*
X72741443Y-105654456D01*
G04 #@! TO.C,L14*
X93148557Y-93879456D02*
X89251443Y-96129456D01*
X94898557Y-96910544D02*
X91001443Y-99160544D01*
X93148557Y-93879456D02*
X94898557Y-96910544D01*
X91001443Y-99160544D02*
X89251443Y-96129456D01*
G04 #@! TO.C,L15*
X110645000Y-89825000D02*
X110645000Y-94325000D01*
X114145000Y-89825000D02*
X114145000Y-94325000D01*
X110645000Y-89825000D02*
X114145000Y-89825000D01*
X114145000Y-94325000D02*
X110645000Y-94325000D01*
G04 #@! TO.C,L17*
X162080000Y-65060000D02*
X162080000Y-69560000D01*
X165580000Y-65060000D02*
X165580000Y-69560000D01*
X162080000Y-65060000D02*
X165580000Y-65060000D01*
X165580000Y-69560000D02*
X162080000Y-69560000D01*
G04 #@! TO.C,L18*
X181130000Y-55535000D02*
X181130000Y-60035000D01*
X184630000Y-55535000D02*
X184630000Y-60035000D01*
X181130000Y-55535000D02*
X184630000Y-55535000D01*
X184630000Y-60035000D02*
X181130000Y-60035000D01*
G04 #@! TO.C,L19*
X200180000Y-46010000D02*
X200180000Y-50510000D01*
X203680000Y-46010000D02*
X203680000Y-50510000D01*
X200180000Y-46010000D02*
X203680000Y-46010000D01*
X203680000Y-50510000D02*
X200180000Y-50510000D01*
G04 #@! TO.C,L20*
X200180000Y-65060000D02*
X200180000Y-69560000D01*
X203680000Y-65060000D02*
X203680000Y-69560000D01*
X200180000Y-65060000D02*
X203680000Y-65060000D01*
X203680000Y-69560000D02*
X200180000Y-69560000D01*
G04 #@! TO.C,L21*
X181130000Y-74585000D02*
X181130000Y-79085000D01*
X184630000Y-74585000D02*
X184630000Y-79085000D01*
X181130000Y-74585000D02*
X184630000Y-74585000D01*
X184630000Y-79085000D02*
X181130000Y-79085000D01*
G04 #@! TO.C,L22*
X200180000Y-84110000D02*
X200180000Y-88610000D01*
X203680000Y-84110000D02*
X203680000Y-88610000D01*
X200180000Y-84110000D02*
X203680000Y-84110000D01*
X203680000Y-88610000D02*
X200180000Y-88610000D01*
G04 #@! TD*
M02*
