G04 #@! TF.GenerationSoftware,KiCad,Pcbnew,5.1.5+dfsg1-2build2*
G04 #@! TF.CreationDate,2020-12-13T18:08:21+09:00*
G04 #@! TF.ProjectId,silverbullet44,73696c76-6572-4627-956c-6c657434342e,rev?*
G04 #@! TF.SameCoordinates,Original*
G04 #@! TF.FileFunction,Profile,NP*
%FSLAX46Y46*%
G04 Gerber Fmt 4.6, Leading zero omitted, Abs format (unit mm)*
G04 Created by KiCad (PCBNEW 5.1.5+dfsg1-2build2) date 2020-12-13 18:08:21*
%MOMM*%
%LPD*%
G04 APERTURE LIST*
%ADD10C,0.150000*%
%ADD11C,0.120000*%
G04 APERTURE END LIST*
D10*
X12065000Y-17145000D02*
G75*
G02X17145000Y-12065000I5080000J0D01*
G01*
X13731666Y-12065000D02*
G75*
G03X13731666Y-12065000I-1666666J0D01*
G01*
X9565000Y-12065000D02*
X14565000Y-12065000D01*
X12065000Y-9565000D02*
X12065000Y-14565000D01*
X26035000Y-117475000D02*
X12065000Y-109220000D01*
X163801099Y-22378939D02*
G75*
G02X167640000Y-27305000I-1241099J-4926061D01*
G01*
X167640000Y-93345000D02*
G75*
G02X162560000Y-98425000I-5080000J0D01*
G01*
X12065000Y-109220000D02*
X12065000Y-17145000D01*
X59055000Y-98425000D02*
X26035000Y-117475000D01*
X162560000Y-98425000D02*
X59055000Y-98425000D01*
X167640000Y-27305000D02*
X167640000Y-93345000D01*
X110490000Y-12065000D02*
X163801099Y-22378939D01*
X17145000Y-12065000D02*
X110490000Y-12065000D01*
D11*
X64565000Y-45950000D02*
X64565000Y-42950000D01*
X64565000Y-42950000D02*
X61165000Y-42950000D01*
X61165000Y-42950000D02*
X61165000Y-45950000D01*
X61165000Y-45950000D02*
X64565000Y-45950000D01*
X61165000Y-23900000D02*
X61165000Y-26900000D01*
X61165000Y-26900000D02*
X64565000Y-26900000D01*
X64565000Y-26900000D02*
X64565000Y-23900000D01*
X64565000Y-23900000D02*
X61165000Y-23900000D01*
X80215000Y-18820000D02*
X80215000Y-21820000D01*
X80215000Y-21820000D02*
X83615000Y-21820000D01*
X83615000Y-21820000D02*
X83615000Y-18820000D01*
X83615000Y-18820000D02*
X80215000Y-18820000D01*
X61165000Y-62000000D02*
X61165000Y-65000000D01*
X61165000Y-65000000D02*
X64565000Y-65000000D01*
X64565000Y-65000000D02*
X64565000Y-62000000D01*
X64565000Y-62000000D02*
X61165000Y-62000000D01*
X99265000Y-14375000D02*
X99265000Y-17375000D01*
X99265000Y-17375000D02*
X102665000Y-17375000D01*
X102665000Y-17375000D02*
X102665000Y-14375000D01*
X102665000Y-14375000D02*
X99265000Y-14375000D01*
X80215000Y-56920000D02*
X80215000Y-59920000D01*
X80215000Y-59920000D02*
X83615000Y-59920000D01*
X83615000Y-59920000D02*
X83615000Y-56920000D01*
X83615000Y-56920000D02*
X80215000Y-56920000D01*
X118315000Y-18820000D02*
X118315000Y-21820000D01*
X118315000Y-21820000D02*
X121715000Y-21820000D01*
X121715000Y-21820000D02*
X121715000Y-18820000D01*
X121715000Y-18820000D02*
X118315000Y-18820000D01*
X99265000Y-52475000D02*
X99265000Y-55475000D01*
X99265000Y-55475000D02*
X102665000Y-55475000D01*
X102665000Y-55475000D02*
X102665000Y-52475000D01*
X102665000Y-52475000D02*
X99265000Y-52475000D01*
X137365000Y-27710000D02*
X137365000Y-30710000D01*
X137365000Y-30710000D02*
X140765000Y-30710000D01*
X140765000Y-30710000D02*
X140765000Y-27710000D01*
X140765000Y-27710000D02*
X137365000Y-27710000D01*
X118315000Y-56920000D02*
X118315000Y-59920000D01*
X118315000Y-59920000D02*
X121715000Y-59920000D01*
X121715000Y-59920000D02*
X121715000Y-56920000D01*
X121715000Y-56920000D02*
X118315000Y-56920000D01*
X156415000Y-37235000D02*
X156415000Y-40235000D01*
X156415000Y-40235000D02*
X159815000Y-40235000D01*
X159815000Y-40235000D02*
X159815000Y-37235000D01*
X159815000Y-37235000D02*
X156415000Y-37235000D01*
X137365000Y-65810000D02*
X137365000Y-68810000D01*
X137365000Y-68810000D02*
X140765000Y-68810000D01*
X140765000Y-68810000D02*
X140765000Y-65810000D01*
X140765000Y-65810000D02*
X137365000Y-65810000D01*
X159815000Y-59285000D02*
X159815000Y-56285000D01*
X159815000Y-56285000D02*
X156415000Y-56285000D01*
X156415000Y-56285000D02*
X156415000Y-59285000D01*
X156415000Y-59285000D02*
X159815000Y-59285000D01*
X156415000Y-75335000D02*
X156415000Y-78335000D01*
X156415000Y-78335000D02*
X159815000Y-78335000D01*
X159815000Y-78335000D02*
X159815000Y-75335000D01*
X159815000Y-75335000D02*
X156415000Y-75335000D01*
X140765000Y-49760000D02*
X140765000Y-46760000D01*
X140765000Y-46760000D02*
X137365000Y-46760000D01*
X137365000Y-46760000D02*
X137365000Y-49760000D01*
X137365000Y-49760000D02*
X140765000Y-49760000D01*
X80415000Y-87425000D02*
X83415000Y-87425000D01*
X83415000Y-87425000D02*
X83415000Y-84025000D01*
X83415000Y-84025000D02*
X80415000Y-84025000D01*
X80415000Y-84025000D02*
X80415000Y-87425000D01*
X121715000Y-40870000D02*
X121715000Y-37870000D01*
X121715000Y-37870000D02*
X118315000Y-37870000D01*
X118315000Y-37870000D02*
X118315000Y-40870000D01*
X118315000Y-40870000D02*
X121715000Y-40870000D01*
X70280000Y-95480000D02*
X70280000Y-92480000D01*
X70280000Y-92480000D02*
X66880000Y-92480000D01*
X66880000Y-92480000D02*
X66880000Y-95480000D01*
X66880000Y-95480000D02*
X70280000Y-95480000D01*
X102665000Y-36425000D02*
X102665000Y-33425000D01*
X102665000Y-33425000D02*
X99265000Y-33425000D01*
X99265000Y-33425000D02*
X99265000Y-36425000D01*
X99265000Y-36425000D02*
X102665000Y-36425000D01*
X48226462Y-90233143D02*
X50824538Y-88733143D01*
X50824538Y-88733143D02*
X49124538Y-85788657D01*
X49124538Y-85788657D02*
X46526462Y-87288657D01*
X46526462Y-87288657D02*
X48226462Y-90233143D01*
X83615000Y-40870000D02*
X83615000Y-37870000D01*
X83615000Y-37870000D02*
X80215000Y-37870000D01*
X80215000Y-37870000D02*
X80215000Y-40870000D01*
X80215000Y-40870000D02*
X83615000Y-40870000D01*
X31681962Y-99885243D02*
X34280038Y-98385243D01*
X34280038Y-98385243D02*
X32580038Y-95440757D01*
X32580038Y-95440757D02*
X29981962Y-96940757D01*
X29981962Y-96940757D02*
X31681962Y-99885243D01*
M02*
