M48
; DRILL file {KiCad 5.1.5+dfsg1-2build2} date 2020年12月13日 18時08分53秒
; FORMAT={-:-/ absolute / inch / decimal}
; #@! TF.CreationDate,2020-12-13T18:08:53+09:00
; #@! TF.GenerationSoftware,Kicad,Pcbnew,5.1.5+dfsg1-2build2
FMAT,2
INCH
T1C0.0157
T2C0.0320
T3C0.0390
T4C0.0394
T5C0.0512
T6C0.0866
T7C0.1339
T8C0.0472
T9C0.0748
T10C0.1181
T11C0.1614
%
G90
G05
T1
X0.5016Y-1.0
X0.575Y-2.3
X0.835Y-3.585
X0.85Y-3.425
X0.8699Y-2.9146
X0.965Y-3.515
X1.1Y-3.55
X1.15Y-3.65
X1.17Y-3.685
X1.275Y-3.625
X1.3Y-4.1
X1.325Y-0.53
X1.325Y-0.63
X1.325Y-0.73
X1.325Y-0.93
X1.325Y-1.025
X1.325Y-1.9
X1.325Y-1.95
X1.325Y-2.125
X1.35Y-4.0
X1.375Y-4.05
X1.3796Y-3.5268
X1.435Y-3.235
X1.525Y-1.85
X1.55Y-2.875
X1.5539Y-3.687
X1.555Y-3.165
X1.725Y-3.325
X1.8Y-1.025
X1.8Y-1.125
X1.8172Y-3.275
X1.825Y-3.325
X1.85Y-2.175
X1.9356Y-2.25
X1.975Y-1.325
X1.975Y-1.425
X2.0Y-1.075
X2.0Y-1.975
X2.0Y-2.975
X2.0Y-3.6
X2.0Y-3.65
X2.075Y-3.225
X2.1Y-1.0
X2.1Y-1.15
X2.1Y-1.725
X2.1Y-1.875
X2.1Y-2.475
X2.1Y-2.625
X2.15Y-3.475
X2.175Y-2.35
X2.25Y-1.0
X2.25Y-1.75
X2.25Y-2.5
X2.3Y-1.0
X2.3Y-1.75
X2.3Y-2.5
X2.325Y-3.15
X2.325Y-3.3
X2.375Y-1.9023
X2.3864Y-3.2783
X2.475Y-3.7
X2.5088Y-3.0045
X2.525Y-3.7
X2.6Y-2.3
X2.65Y-1.0
X2.65Y-1.75
X2.65Y-2.5
X2.7Y-1.0
X2.7Y-1.75
X2.7Y-2.5
X2.775Y-1.43
X2.7796Y-2.6095
X2.85Y-0.85
X2.85Y-1.0
X2.85Y-1.6
X2.85Y-1.75
X2.85Y-1.925
X2.85Y-2.3
X2.85Y-2.45
X2.875Y-3.7
X2.925Y-3.7
X2.93Y-2.275
X2.9384Y-0.9984
X3.0Y-0.8
X3.0Y-1.55
X3.0Y-2.3
X3.0Y-3.0
X3.01Y-0.885
X3.05Y-0.8
X3.05Y-1.55
X3.05Y-2.3
X3.075Y-3.15
X3.075Y-3.3
X3.225Y-2.15
X3.225Y-3.15
X3.225Y-3.2
X3.225Y-3.55
X3.225Y-3.6
X3.3905Y-1.2867
X3.4Y-0.8
X3.4Y-1.55
X3.4Y-2.3
X3.4173Y-2.04
X3.4234Y-2.7904
X3.4446Y-1.3073
X3.45Y-0.8
X3.45Y-1.55
X3.45Y-2.3
X3.4851Y-2.0603
X3.4851Y-2.43
X3.6Y-0.675
X3.6Y-0.825
X3.6Y-1.425
X3.6Y-1.575
X3.6Y-2.175
X3.6Y-2.325
X3.65Y-1.95
X3.67Y-1.33
X3.7161Y-3.1244
X3.75Y-0.625
X3.75Y-1.375
X3.75Y-2.125
X3.775Y-2.675
X3.8Y-0.625
X3.8Y-1.375
X3.8Y-2.125
X3.8Y-2.875
X3.9189Y-1.874
X3.9214Y-2.704
X3.975Y-2.625
X4.025Y-1.225
X4.15Y-0.625
X4.15Y-1.375
X4.15Y-2.125
X4.1834Y-1.1155
X4.2Y-0.625
X4.2Y-1.375
X4.2Y-2.125
X4.2099Y-1.1468
X4.2351Y-1.9027
X4.2351Y-2.2564
X4.25Y-2.825
X4.35Y-0.675
X4.35Y-0.825
X4.35Y-1.425
X4.35Y-1.575
X4.35Y-1.975
X4.35Y-2.175
X4.35Y-2.325
X4.4Y-1.725
X4.4022Y-1.4975
X4.431Y-1.943
X4.4384Y-2.5633
X4.5Y-0.8
X4.5Y-1.55
X4.5Y-2.3
X4.55Y-0.8
X4.55Y-1.55
X4.55Y-2.3
X4.6Y-2.425
X4.61Y-1.695
X4.78Y-2.115
X4.85Y-1.695
X4.9Y-0.8
X4.9Y-1.55
X4.9Y-2.3
X4.9489Y-1.2898
X4.95Y-0.8
X4.95Y-1.55
X4.95Y-2.3
X4.9813Y-1.3441
X5.02Y-2.035
X5.1Y-1.225
X5.1Y-1.375
X5.1Y-1.975
X5.1Y-2.125
X5.1Y-2.725
X5.1Y-2.875
X5.1935Y-2.1599
X5.2087Y-1.9
X5.25Y-1.15
X5.25Y-2.65
X5.2586Y-1.6532
X5.3Y-1.15
X5.3Y-1.9
X5.3Y-2.65
X5.305Y-2.77
X5.36Y-1.295
X5.425Y-2.5
X5.5659Y-2.0179
X5.6323Y-2.391
X5.65Y-1.15
X5.65Y-1.9
X5.65Y-2.65
X5.7Y-1.15
X5.7Y-1.9
X5.7Y-2.65
X5.85Y-1.575
X5.85Y-1.725
X5.85Y-2.325
X5.85Y-2.475
X5.85Y-3.075
X5.85Y-3.225
X5.93Y-3.18
X5.95Y-2.35
X6.0Y-1.525
X6.0Y-2.275
X6.0Y-3.025
X6.04Y-3.155
X6.05Y-1.525
X6.05Y-2.275
X6.05Y-3.025
X6.2Y-2.85
X6.4Y-1.525
X6.4Y-2.275
X6.4Y-3.025
X6.425Y-2.175
X6.45Y-1.525
X6.45Y-2.275
X6.45Y-3.025
X6.4571Y-2.4045
X6.4772Y-2.0791
X1.885Y-2.625
X1.9041Y-2.5791
X1.9041Y-2.6709
X1.95Y-2.56
X1.95Y-2.69
X1.9959Y-2.5791
X1.9959Y-2.6709
X2.015Y-2.625
X0.56Y-0.625
X0.5791Y-0.5791
X0.5791Y-0.6709
X0.625Y-0.56
X0.625Y-0.69
X0.6709Y-0.5791
X0.6709Y-0.6709
X0.69Y-0.625
X0.56Y-3.325
X0.5791Y-3.2791
X0.5791Y-3.3709
X0.625Y-3.26
X0.625Y-3.39
X0.6709Y-3.2791
X0.6709Y-3.3709
X0.69Y-3.325
T2
X1.0Y-0.58
X1.0Y-0.68
X1.0Y-0.78
X1.0Y-0.88
X1.0Y-0.98
X1.0Y-1.08
X1.0Y-1.18
X1.0Y-1.28
X1.0Y-1.38
X1.0Y-1.48
X1.0Y-1.58
X1.0Y-1.68
X1.0Y-1.78
X1.0514Y-0.53
X1.0522Y-0.63
X1.0522Y-0.73
X1.0522Y-0.83
X1.0522Y-0.93
X1.0522Y-1.03
X1.0522Y-1.13
X1.0522Y-1.23
X1.0522Y-1.33
X1.0522Y-1.43
X1.0522Y-1.53
X1.0522Y-1.63
X1.0522Y-1.73
X1.6Y-0.58
X1.6Y-0.68
X1.6Y-0.78
X1.6Y-0.88
X1.6Y-0.98
X1.6Y-1.08
X1.6Y-1.18
X1.6Y-1.28
X1.6Y-1.38
X1.6Y-1.48
X1.6Y-1.58
X1.6Y-1.68
X1.6Y-1.78
X1.65Y-0.53
X1.6514Y-0.63
X1.6514Y-0.73
X1.6514Y-0.83
X1.6514Y-0.93
X1.6514Y-1.03
X1.6514Y-1.13
X1.6514Y-1.23
X1.6514Y-1.33
X1.6514Y-1.43
X1.6514Y-1.53
X1.6514Y-1.63
X1.6514Y-1.73
X1.175Y-2.075
X1.275Y-2.075
X1.375Y-2.075
X1.475Y-2.075
T3
X0.585Y-1.2478
X0.585Y-1.425
T4
X0.6465Y-2.45
X0.9535Y-2.45
T5
X0.683Y-1.1982
X0.683Y-1.4742
T6
X0.625Y-3.325
X1.95Y-2.625
X0.625Y-0.625
T7
X6.225Y-3.75
X2.475Y-0.625
X0.65Y-4.2
X6.225Y-1.1
T8
X0.5341Y-2.025
X0.5341Y-2.0939
X0.8096Y-2.025
X0.8096Y-2.0939
T9
X3.775Y-0.85
X4.175Y-0.85
X6.025Y-1.75
X6.425Y-1.75
X5.275Y-2.875
X5.675Y-2.875
X6.025Y-3.25
X6.425Y-3.25
X3.775Y-1.6
X4.175Y-1.6
X6.025Y-2.5
X6.425Y-2.5
X4.525Y-2.525
X4.925Y-2.525
X3.45Y-3.175
X3.45Y-3.575
X1.625Y-3.4018
X1.825Y-3.7482
X2.275Y-1.975
X2.675Y-1.975
X3.775Y-2.35
X4.175Y-2.35
X5.275Y-1.375
X5.675Y-1.375
X5.275Y-2.125
X5.675Y-2.125
X3.025Y-1.775
X3.425Y-1.775
X0.975Y-3.7768
X1.175Y-4.1232
X4.525Y-1.775
X4.925Y-1.775
X3.025Y-2.525
X3.425Y-2.525
X2.275Y-1.225
X2.675Y-1.225
X4.525Y-1.025
X4.925Y-1.025
X2.5Y-3.475
X2.9Y-3.475
X3.025Y-1.025
X3.425Y-1.025
X2.275Y-2.725
X2.675Y-2.725
T10
X3.825Y-1.7
X3.875Y-1.8
X4.075Y-1.8
X4.125Y-1.7
X6.075Y-2.6
X6.125Y-2.7
X6.325Y-2.7
X6.375Y-2.6
X4.575Y-2.625
X4.625Y-2.725
X4.825Y-2.725
X4.875Y-2.625
X3.55Y-3.225
X3.55Y-3.525
X3.65Y-3.275
X3.65Y-3.475
X1.5018Y-3.5884
X1.5634Y-3.4951
X1.6018Y-3.7616
X1.7134Y-3.7549
X2.325Y-2.075
X2.375Y-2.175
X2.575Y-2.175
X2.625Y-2.075
X3.825Y-2.45
X3.875Y-2.55
X4.075Y-2.55
X4.125Y-2.45
X5.325Y-1.475
X5.375Y-1.575
X5.575Y-1.575
X5.625Y-1.475
X5.325Y-2.225
X5.375Y-2.325
X5.575Y-2.325
X5.625Y-2.225
X3.075Y-1.875
X3.125Y-1.975
X3.325Y-1.975
X3.375Y-1.875
X0.8518Y-3.9634
X0.9134Y-3.8701
X0.9518Y-4.1366
X1.0634Y-4.1299
X4.575Y-1.875
X4.625Y-1.975
X4.825Y-1.975
X4.875Y-1.875
X3.075Y-2.625
X3.125Y-2.725
X3.325Y-2.725
X3.375Y-2.625
X2.325Y-1.325
X2.375Y-1.425
X2.575Y-1.425
X2.625Y-1.325
X4.575Y-1.125
X4.625Y-1.225
X4.825Y-1.225
X4.875Y-1.125
X2.55Y-3.375
X2.6Y-3.275
X2.8Y-3.275
X2.85Y-3.375
X3.075Y-1.125
X3.125Y-1.225
X3.325Y-1.225
X3.375Y-1.125
X2.325Y-2.825
X2.375Y-2.925
X2.575Y-2.925
X2.625Y-2.825
X3.825Y-0.95
X3.875Y-1.05
X4.075Y-1.05
X4.125Y-0.95
X6.075Y-1.85
X6.125Y-1.95
X6.325Y-1.95
X6.375Y-1.85
X5.325Y-2.975
X5.375Y-3.075
X5.575Y-3.075
X5.625Y-2.975
X6.075Y-3.35
X6.125Y-3.45
X6.325Y-3.45
X6.375Y-3.35
T11
X1.725Y-3.575
X2.475Y-1.975
X3.975Y-2.35
X5.475Y-1.375
X5.475Y-2.125
X3.225Y-1.775
X1.075Y-3.95
X4.725Y-1.775
X3.225Y-2.525
X2.475Y-1.225
X4.725Y-1.025
X2.7Y-3.475
X3.225Y-1.025
X2.475Y-2.725
X3.975Y-0.85
X6.225Y-1.75
X5.475Y-2.875
X6.225Y-3.25
X3.975Y-1.6
X6.225Y-2.5
X4.725Y-2.525
X3.45Y-3.375
T4
G00X0.5951Y-1.9423
M15
G01X0.6148Y-1.9423
M16
G05
G00X0.5951Y-2.1766
M15
G01X0.6148Y-2.1766
M16
G05
G00X0.7132Y-1.9423
M15
G01X0.7329Y-1.9423
M16
G05
G00X0.7132Y-2.1766
M15
G01X0.7329Y-2.1766
M16
G05
G00X0.8707Y-1.9423
M15
G01X0.8904Y-1.9423
M16
G05
G00X0.8707Y-2.1766
M15
G01X0.8904Y-2.1766
M16
G05
G00X0.9297Y-2.0112
M15
G01X0.9494Y-2.0112
M16
G05
G00X0.9297Y-2.1077
M15
G01X0.9494Y-2.1077
M16
G05
T0
M30
