M48
;DRILL file {KiCad 5.0.2-bee76a0~70~ubuntu18.04.1} date 2019年07月24日 00時04分02秒
;FORMAT={-:-/ absolute / inch / decimal}
FMAT,2
INCH,TZ
T1C0.0157
T2C0.0320
T3C0.0394
T4C0.0512
T5C0.0866
T6C0.0472
T7C0.0748
T8C0.1181
T9C0.1339
T10C0.1614
%
G90
G05
T1
X2.565Y-3.935
X2.685Y-3.865
X2.6916Y-4.0454
X2.7651Y-1.634
X2.875Y-1.7
X2.9Y-2.35
X2.9535Y-4.0132
X3.0035Y-4.0495
X3.0237Y-1.8138
X3.0637Y-4.3004
X3.0706Y-4.3406
X3.1356Y-4.1591
X3.15Y-3.325
X3.165Y-3.585
X3.2367Y-3.0898
X3.285Y-3.515
X3.375Y-3.6
X3.4Y-2.75
X3.475Y-2.25
X3.5735Y-3.964
X3.6055Y-3.6376
X3.6429Y-3.985
X3.6769Y-3.9482
X3.7Y-1.225
X3.7406Y-2.6146
X3.75Y-3.25
X3.775Y-1.75
X3.825Y-1.33
X3.825Y-1.47
X3.825Y-2.0801
X3.825Y-2.22
X3.825Y-2.8301
X3.825Y-2.9699
X3.825Y-3.675
X3.8546Y-1.5888
X3.9Y-1.45
X3.975Y-1.925
X4.Y-2.9
X4.0317Y-2.7021
X4.0489Y-2.0244
X4.05Y-2.6
X4.05Y-3.5051
X4.05Y-3.6449
X4.053Y-1.2996
X4.0552Y-2.7999
X4.096Y-1.9557
X4.125Y-3.775
X4.2042Y-3.588
X4.2736Y-3.6272
X4.2945Y-2.1301
X4.3173Y-2.8787
X4.3468Y-2.0495
X4.3509Y-2.8344
X4.3509Y-1.7729
X4.3516Y-1.3002
X4.425Y-2.825
X4.4298Y-4.0865
X4.475Y-2.5521
X4.55Y-2.95
X4.575Y-1.2051
X4.575Y-1.3449
X4.575Y-1.955
X4.575Y-2.0948
X4.575Y-2.6551
X4.575Y-2.7949
X4.575Y-3.225
X4.5801Y-3.6218
X4.6Y-1.55
X4.6167Y-3.5604
X4.6561Y-3.0224
X4.675Y-1.825
X4.7256Y-1.1844
X4.7926Y-1.1452
X4.8Y-3.5051
X4.8Y-3.6449
X4.8Y-3.6449
X4.8024Y-2.6521
X4.8148Y-2.5722
X4.8288Y-1.8144
X4.875Y-3.425
X4.8994Y-3.7134
X4.925Y-3.5465
X5.0046Y-2.3808
X5.0083Y-3.4828
X5.0248Y-3.541
X5.0471Y-2.0014
X5.0971Y-2.6489
X5.1114Y-1.9424
X5.1152Y-1.1582
X5.1415Y-2.6156
X5.15Y-2.4656
X5.2059Y-1.6329
X5.275Y-1.3
X5.3Y-2.8
X5.3118Y-3.1687
X5.3209Y-3.4745
X5.325Y-1.0301
X5.325Y-1.1699
X5.325Y-1.7801
X5.325Y-1.9199
X5.325Y-2.5301
X5.325Y-2.6699
X5.3513Y-3.5013
X5.4056Y-2.8703
X5.5209Y-1.6844
X5.5284Y-1.0003
X5.5502Y-2.4972
X5.5527Y-1.7409
X5.575Y-3.5
X5.7Y-3.05
X5.7005Y-1.312
X5.7302Y-1.4722
X5.7906Y-1.6133
X5.8497Y-1.7599
X5.8499Y-2.5168
X5.85Y-1.8127
X5.8504Y-1.0188
X5.8516Y-2.4629
X5.8825Y-1.0723
X5.8973Y-2.241
X5.925Y-2.525
X6.0229Y-2.2529
X6.075Y-1.0301
X6.075Y-1.1699
X6.075Y-1.7801
X6.075Y-1.9199
X6.075Y-2.425
X6.075Y-2.5301
X6.075Y-2.6699
X6.1324Y-1.6133
X6.15Y-1.3
X6.15Y-1.975
X6.1881Y-3.1431
X6.2Y-1.85
X6.225Y-1.7
X6.2706Y-2.5982
X6.2762Y-1.9416
X6.2808Y-1.2092
X6.2882Y-1.8883
X6.3002Y-2.6246
X6.3004Y-1.1675
X6.3418Y-2.3994
X6.4507Y-1.4947
X6.6001Y-2.6708
X6.6105Y-2.475
X6.6128Y-2.6306
X6.6233Y-1.8656
X6.6305Y-1.1516
X6.6436Y-1.6372
X6.6542Y-1.7939
X6.6591Y-1.2843
X6.6626Y-1.197
X6.675Y-1.95
X6.7196Y-1.6559
X6.75Y-1.35
X6.825Y-1.5801
X6.825Y-1.7199
X6.825Y-2.3301
X6.825Y-2.4699
X6.825Y-2.75
X6.825Y-3.0801
X6.825Y-3.2199
X6.95Y-1.4906
X6.95Y-1.625
X7.0451Y-1.5576
X7.0502Y-3.0062
X7.0527Y-2.2769
X7.0581Y-2.947
X7.1129Y-2.4056
X7.219Y-2.0782
X7.2945Y-2.356
X7.3455Y-3.025
X7.3455Y-1.5252
X7.3507Y-2.3056
X7.3671Y-1.9875
X7.3733Y-2.7796
X7.3771Y-3.0594
X7.3781Y-1.5877
X7.4075Y-2.1691
X7.425Y-3.
X7.575Y-1.75
X7.575Y-1.9301
X7.575Y-2.0699
X7.575Y-2.6801
X7.575Y-2.8199
X7.575Y-3.075
X7.575Y-3.4301
X7.575Y-3.5699
X7.7218Y-3.3656
X7.725Y-2.75
X7.7532Y-2.5755
X7.7895Y-1.9083
X7.8029Y-2.6518
X7.805Y-3.4
X7.8967Y-2.3708
X8.0458Y-3.2654
X8.0514Y-2.7523
X8.0998Y-1.8875
X8.0999Y-2.6844
X8.1002Y-3.3656
X8.175Y-3.5
X8.2326Y-2.7606
T2
X2.65Y-2.425
X2.35Y-2.425
X2.2941Y-1.3991
X2.2951Y-1.3274
X2.3648Y-1.4698
X2.3664Y-1.3975
X2.4355Y-1.5405
X2.4371Y-1.4682
X2.5062Y-1.6112
X2.5078Y-1.5389
X2.5769Y-1.6819
X2.5785Y-1.6096
X2.6477Y-1.7526
X2.6492Y-1.6804
X2.7184Y-0.9041
X2.7184Y-0.9748
X2.7184Y-1.8233
X2.7199Y-1.7511
X2.7891Y-1.0455
X2.7891Y-1.8941
X2.7901Y-0.9738
X2.7907Y-1.8218
X2.8598Y-1.1162
X2.8598Y-1.9648
X2.8608Y-1.0445
X2.8614Y-1.8925
X2.9305Y-1.1869
X2.9305Y-2.0355
X2.9315Y-1.1152
X2.9321Y-1.9632
X3.0012Y-1.2577
X3.0012Y-2.1062
X3.0022Y-1.1859
X3.0028Y-2.0339
X3.0719Y-1.3284
X3.0719Y-2.1769
X3.0729Y-1.2566
X3.0735Y-2.1046
X3.1426Y-1.3991
X3.1426Y-2.2476
X3.1436Y-1.3274
X3.1442Y-2.1753
X3.2133Y-1.4698
X3.2144Y-1.3981
X3.2841Y-1.5405
X3.2851Y-1.4688
X3.3548Y-1.6112
X3.3558Y-1.5395
X3.4255Y-1.6819
X3.4265Y-1.6102
X3.4962Y-1.7526
X3.4972Y-1.6809
X3.5669Y-1.8233
X3.5679Y-1.7516
T3
X2.8215Y-2.775
X3.1285Y-2.775
X2.8215Y-2.65
X3.1285Y-2.65
X2.9964Y-1.5564
X3.2136Y-1.7736
T4
X2.275Y-1.947
X2.275Y-2.203
T5
X2.35Y-3.675
X3.2Y-0.975
X3.675Y-2.975
T6
X2.2591Y-2.675
X2.2591Y-2.7439
X2.5346Y-2.675
X2.5346Y-2.7439
T7
X4.975Y-3.675
X5.375Y-3.675
X5.5Y-2.7
X5.9Y-2.7
X6.25Y-2.85
X6.65Y-2.85
X7.Y-3.225
X7.4Y-3.225
X5.5Y-1.95
X5.9Y-1.95
X4.225Y-3.825
X4.625Y-3.825
X4.75Y-2.85
X5.15Y-2.85
X7.Y-2.475
X7.4Y-2.475
X4.Y-1.5
X4.4Y-1.5
X6.25Y-2.1
X6.65Y-2.1
X4.75Y-1.35
X5.15Y-1.35
X4.Y-2.25
X4.4Y-2.25
X4.75Y-2.1
X5.15Y-2.1
X3.35Y-3.7518
X3.55Y-4.0982
X6.25Y-1.35
X6.65Y-1.35
X4.Y-3.
X4.4Y-3.
X2.7Y-4.1268
X2.9Y-4.4732
X7.75Y-3.6
X8.15Y-3.6
X7.Y-1.725
X7.4Y-1.725
X7.75Y-2.1
X8.15Y-2.1
X5.5Y-1.2
X5.9Y-1.2
X7.75Y-2.85
X8.15Y-2.85
T8
X5.025Y-3.775
X5.075Y-3.875
X5.275Y-3.875
X5.325Y-3.775
X5.55Y-2.8
X5.6Y-2.9
X5.8Y-2.9
X5.85Y-2.8
X6.3Y-2.95
X6.35Y-3.05
X6.55Y-3.05
X6.6Y-2.95
X7.05Y-3.325
X7.1Y-3.425
X7.3Y-3.425
X7.35Y-3.325
X5.55Y-2.05
X5.6Y-2.15
X5.8Y-2.15
X5.85Y-2.05
X4.275Y-3.925
X4.325Y-4.025
X4.525Y-4.025
X4.575Y-3.925
X4.8Y-2.95
X4.85Y-3.05
X5.05Y-3.05
X5.1Y-2.95
X7.05Y-2.575
X7.1Y-2.675
X7.3Y-2.675
X7.35Y-2.575
X4.05Y-1.6
X4.1Y-1.7
X4.3Y-1.7
X4.35Y-1.6
X6.3Y-2.2
X6.35Y-2.3
X6.55Y-2.3
X6.6Y-2.2
X4.8Y-1.45
X4.85Y-1.55
X5.05Y-1.55
X5.1Y-1.45
X4.05Y-2.35
X4.1Y-2.45
X4.3Y-2.45
X4.35Y-2.35
X4.8Y-2.2
X4.85Y-2.3
X5.05Y-2.3
X5.1Y-2.2
X3.2268Y-3.9384
X3.2884Y-3.8451
X3.3268Y-4.1116
X3.4384Y-4.1049
X6.3Y-1.45
X6.35Y-1.55
X6.55Y-1.55
X6.6Y-1.45
X4.05Y-3.1
X4.1Y-3.2
X4.3Y-3.2
X4.35Y-3.1
X2.5768Y-4.3134
X2.6384Y-4.2201
X2.6768Y-4.4866
X2.7884Y-4.4799
X7.8Y-3.7
X7.85Y-3.8
X8.05Y-3.8
X8.1Y-3.7
X7.05Y-1.825
X7.1Y-1.925
X7.3Y-1.925
X7.35Y-1.825
X7.8Y-2.2
X7.85Y-2.3
X8.05Y-2.3
X8.1Y-2.2
X5.55Y-1.3
X5.6Y-1.4
X5.8Y-1.4
X5.85Y-1.3
X7.8Y-2.95
X7.85Y-3.05
X8.05Y-3.05
X8.1Y-2.95
T9
X4.2Y-0.975
X2.375Y-4.55
X7.95Y-4.1
X7.95Y-1.45
T10
X4.2Y-2.25
X4.95Y-2.1
X3.45Y-3.925
X6.45Y-1.35
X4.2Y-3.
X2.8Y-4.3
X7.95Y-3.6
X7.2Y-1.725
X7.95Y-2.1
X5.7Y-1.2
X7.95Y-2.85
X5.175Y-3.675
X5.7Y-2.7
X6.45Y-2.85
X7.2Y-3.225
X5.7Y-1.95
X4.425Y-3.825
X4.95Y-2.85
X7.2Y-2.475
X4.2Y-1.5
X6.45Y-2.1
X4.95Y-1.35
T3
X2.3201Y-2.5923G85X2.3398Y-2.5923
G05
X2.3201Y-2.8266G85X2.3398Y-2.8266
G05
X2.4382Y-2.5923G85X2.4579Y-2.5923
G05
X2.4382Y-2.8266G85X2.4579Y-2.8266
G05
X2.5957Y-2.5923G85X2.6154Y-2.5923
G05
X2.5957Y-2.8266G85X2.6154Y-2.8266
G05
X2.6547Y-2.6612G85X2.6744Y-2.6612
G05
X2.6547Y-2.7577G85X2.6744Y-2.7577
G05
T0
M30
