G04 #@! TF.GenerationSoftware,KiCad,Pcbnew,5.0.2-bee76a0~70~ubuntu18.04.1*
G04 #@! TF.CreationDate,2019-06-15T01:55:41+09:00*
G04 #@! TF.ProjectId,shield,73686965-6c64-42e6-9b69-6361645f7063,rev?*
G04 #@! TF.SameCoordinates,Original*
G04 #@! TF.FileFunction,Legend,Bot*
G04 #@! TF.FilePolarity,Positive*
%FSLAX46Y46*%
G04 Gerber Fmt 4.6, Leading zero omitted, Abs format (unit mm)*
G04 Created by KiCad (PCBNEW 5.0.2-bee76a0~70~ubuntu18.04.1) date 2019年06月15日 01時55分41秒*
%MOMM*%
%LPD*%
G01*
G04 APERTURE LIST*
%ADD10C,0.300000*%
%ADD11C,0.150000*%
G04 APERTURE END LIST*
D10*
G04 #@! TO.C,L3*
X79485000Y-37770000D02*
X81535000Y-37770000D01*
X79485000Y-39220000D02*
X79485000Y-37770000D01*
X81535000Y-39220000D02*
X79485000Y-39220000D01*
X81535000Y-37770000D02*
X81535000Y-39220000D01*
G04 #@! TO.C,L2*
X73135000Y-54280000D02*
X75185000Y-54280000D01*
X73135000Y-55730000D02*
X73135000Y-54280000D01*
X75185000Y-55730000D02*
X73135000Y-55730000D01*
X75185000Y-54280000D02*
X75185000Y-55730000D01*
G04 #@! TO.C,L1*
X87105000Y-72060000D02*
X89155000Y-72060000D01*
X87105000Y-73510000D02*
X87105000Y-72060000D01*
X89155000Y-73510000D02*
X87105000Y-73510000D01*
X89155000Y-72060000D02*
X89155000Y-73510000D01*
D11*
G04 #@! TO.C,LED*
X66672213Y-68661730D02*
X64672213Y-68661730D01*
X64672213Y-68661730D02*
X64672213Y-66661730D01*
X64672213Y-66661730D02*
X66672213Y-66661730D01*
X66672213Y-66661730D02*
X66672213Y-68661730D01*
G04 #@! TO.C,VCC*
X68704213Y-68661730D02*
X66704213Y-68661730D01*
X66704213Y-68661730D02*
X66704213Y-66661730D01*
X66704213Y-66661730D02*
X68704213Y-66661730D01*
X68704213Y-66661730D02*
X68704213Y-68661730D01*
G04 #@! TO.C,GND*
X64640213Y-68661730D02*
X62640213Y-68661730D01*
X62640213Y-68661730D02*
X62640213Y-66661730D01*
X62640213Y-66661730D02*
X64640213Y-66661730D01*
X64640213Y-66661730D02*
X64640213Y-68661730D01*
D10*
G04 #@! TO.C,L3*
X121540000Y-37770000D02*
X121540000Y-39220000D01*
X121540000Y-39220000D02*
X119490000Y-39220000D01*
X119490000Y-39220000D02*
X119490000Y-37770000D01*
X119490000Y-37770000D02*
X121540000Y-37770000D01*
G04 #@! TO.C,L2*
X115190000Y-54280000D02*
X115190000Y-55730000D01*
X115190000Y-55730000D02*
X113140000Y-55730000D01*
X113140000Y-55730000D02*
X113140000Y-54280000D01*
X113140000Y-54280000D02*
X115190000Y-54280000D01*
G04 #@! TO.C,L1*
X129160000Y-72060000D02*
X129160000Y-73510000D01*
X129160000Y-73510000D02*
X127110000Y-73510000D01*
X127110000Y-73510000D02*
X127110000Y-72060000D01*
X127110000Y-72060000D02*
X129160000Y-72060000D01*
D11*
G04 #@! TO.C,LED*
X106677213Y-66661730D02*
X106677213Y-68661730D01*
X104677213Y-66661730D02*
X106677213Y-66661730D01*
X104677213Y-68661730D02*
X104677213Y-66661730D01*
X106677213Y-68661730D02*
X104677213Y-68661730D01*
G04 #@! TO.C,VCC*
X108709213Y-66661730D02*
X108709213Y-68661730D01*
X106709213Y-66661730D02*
X108709213Y-66661730D01*
X106709213Y-68661730D02*
X106709213Y-66661730D01*
X108709213Y-68661730D02*
X106709213Y-68661730D01*
G04 #@! TO.C,GND*
X104645213Y-66661730D02*
X104645213Y-68661730D01*
X102645213Y-66661730D02*
X104645213Y-66661730D01*
X102645213Y-68661730D02*
X102645213Y-66661730D01*
X104645213Y-68661730D02*
X102645213Y-68661730D01*
G04 #@! TO.C,LED*
X66194727Y-69807425D02*
X66581774Y-69807425D01*
X66581774Y-68994625D01*
X65923793Y-69381672D02*
X65652860Y-69381672D01*
X65536746Y-69807425D02*
X65923793Y-69807425D01*
X65923793Y-68994625D01*
X65536746Y-68994625D01*
X65188403Y-69807425D02*
X65188403Y-68994625D01*
X64994879Y-68994625D01*
X64878765Y-69033330D01*
X64801355Y-69110739D01*
X64762651Y-69188149D01*
X64723946Y-69342968D01*
X64723946Y-69459082D01*
X64762651Y-69613901D01*
X64801355Y-69691310D01*
X64878765Y-69768720D01*
X64994879Y-69807425D01*
X65188403Y-69807425D01*
G04 #@! TO.C,VCC*
X68787946Y-65565625D02*
X68517013Y-66378425D01*
X68246079Y-65565625D01*
X67510689Y-66301015D02*
X67549393Y-66339720D01*
X67665508Y-66378425D01*
X67742917Y-66378425D01*
X67859032Y-66339720D01*
X67936441Y-66262310D01*
X67975146Y-66184901D01*
X68013851Y-66030082D01*
X68013851Y-65913968D01*
X67975146Y-65759149D01*
X67936441Y-65681739D01*
X67859032Y-65604330D01*
X67742917Y-65565625D01*
X67665508Y-65565625D01*
X67549393Y-65604330D01*
X67510689Y-65643034D01*
X66697889Y-66301015D02*
X66736593Y-66339720D01*
X66852708Y-66378425D01*
X66930117Y-66378425D01*
X67046232Y-66339720D01*
X67123641Y-66262310D01*
X67162346Y-66184901D01*
X67201051Y-66030082D01*
X67201051Y-65913968D01*
X67162346Y-65759149D01*
X67123641Y-65681739D01*
X67046232Y-65604330D01*
X66930117Y-65565625D01*
X66852708Y-65565625D01*
X66736593Y-65604330D01*
X66697889Y-65643034D01*
G04 #@! TO.C,GND*
X64259489Y-65604330D02*
X64336898Y-65565625D01*
X64453013Y-65565625D01*
X64569127Y-65604330D01*
X64646536Y-65681739D01*
X64685241Y-65759149D01*
X64723946Y-65913968D01*
X64723946Y-66030082D01*
X64685241Y-66184901D01*
X64646536Y-66262310D01*
X64569127Y-66339720D01*
X64453013Y-66378425D01*
X64375603Y-66378425D01*
X64259489Y-66339720D01*
X64220784Y-66301015D01*
X64220784Y-66030082D01*
X64375603Y-66030082D01*
X63872441Y-66378425D02*
X63872441Y-65565625D01*
X63407984Y-66378425D01*
X63407984Y-65565625D01*
X63020936Y-66378425D02*
X63020936Y-65565625D01*
X62827413Y-65565625D01*
X62711298Y-65604330D01*
X62633889Y-65681739D01*
X62595184Y-65759149D01*
X62556479Y-65913968D01*
X62556479Y-66030082D01*
X62595184Y-66184901D01*
X62633889Y-66262310D01*
X62711298Y-66339720D01*
X62827413Y-66378425D01*
X63020936Y-66378425D01*
G04 #@! TO.C,LED*
X106199727Y-69807425D02*
X106586774Y-69807425D01*
X106586774Y-68994625D01*
X105928793Y-69381672D02*
X105657860Y-69381672D01*
X105541746Y-69807425D02*
X105928793Y-69807425D01*
X105928793Y-68994625D01*
X105541746Y-68994625D01*
X105193403Y-69807425D02*
X105193403Y-68994625D01*
X104999879Y-68994625D01*
X104883765Y-69033330D01*
X104806355Y-69110739D01*
X104767651Y-69188149D01*
X104728946Y-69342968D01*
X104728946Y-69459082D01*
X104767651Y-69613901D01*
X104806355Y-69691310D01*
X104883765Y-69768720D01*
X104999879Y-69807425D01*
X105193403Y-69807425D01*
G04 #@! TO.C,VCC*
X108792946Y-65565625D02*
X108522013Y-66378425D01*
X108251079Y-65565625D01*
X107515689Y-66301015D02*
X107554393Y-66339720D01*
X107670508Y-66378425D01*
X107747917Y-66378425D01*
X107864032Y-66339720D01*
X107941441Y-66262310D01*
X107980146Y-66184901D01*
X108018851Y-66030082D01*
X108018851Y-65913968D01*
X107980146Y-65759149D01*
X107941441Y-65681739D01*
X107864032Y-65604330D01*
X107747917Y-65565625D01*
X107670508Y-65565625D01*
X107554393Y-65604330D01*
X107515689Y-65643034D01*
X106702889Y-66301015D02*
X106741593Y-66339720D01*
X106857708Y-66378425D01*
X106935117Y-66378425D01*
X107051232Y-66339720D01*
X107128641Y-66262310D01*
X107167346Y-66184901D01*
X107206051Y-66030082D01*
X107206051Y-65913968D01*
X107167346Y-65759149D01*
X107128641Y-65681739D01*
X107051232Y-65604330D01*
X106935117Y-65565625D01*
X106857708Y-65565625D01*
X106741593Y-65604330D01*
X106702889Y-65643034D01*
G04 #@! TO.C,GND*
X104264489Y-65604330D02*
X104341898Y-65565625D01*
X104458013Y-65565625D01*
X104574127Y-65604330D01*
X104651536Y-65681739D01*
X104690241Y-65759149D01*
X104728946Y-65913968D01*
X104728946Y-66030082D01*
X104690241Y-66184901D01*
X104651536Y-66262310D01*
X104574127Y-66339720D01*
X104458013Y-66378425D01*
X104380603Y-66378425D01*
X104264489Y-66339720D01*
X104225784Y-66301015D01*
X104225784Y-66030082D01*
X104380603Y-66030082D01*
X103877441Y-66378425D02*
X103877441Y-65565625D01*
X103412984Y-66378425D01*
X103412984Y-65565625D01*
X103025936Y-66378425D02*
X103025936Y-65565625D01*
X102832413Y-65565625D01*
X102716298Y-65604330D01*
X102638889Y-65681739D01*
X102600184Y-65759149D01*
X102561479Y-65913968D01*
X102561479Y-66030082D01*
X102600184Y-66184901D01*
X102638889Y-66262310D01*
X102716298Y-66339720D01*
X102832413Y-66378425D01*
X103025936Y-66378425D01*
G04 #@! TD*
M02*
