G04 #@! TF.GenerationSoftware,KiCad,Pcbnew,5.0.2-bee76a0~70~ubuntu18.04.1*
G04 #@! TF.CreationDate,2019-06-15T01:55:41+09:00*
G04 #@! TF.ProjectId,shield,73686965-6c64-42e6-9b69-6361645f7063,rev?*
G04 #@! TF.SameCoordinates,Original*
G04 #@! TF.FileFunction,Copper,L1,Top*
G04 #@! TF.FilePolarity,Positive*
%FSLAX46Y46*%
G04 Gerber Fmt 4.6, Leading zero omitted, Abs format (unit mm)*
G04 Created by KiCad (PCBNEW 5.0.2-bee76a0~70~ubuntu18.04.1) date 2019年06月15日 01時55分41秒*
%MOMM*%
%LPD*%
G01*
G04 APERTURE LIST*
G04 #@! TA.AperFunction,ComponentPad*
%ADD10C,3.470000*%
G04 #@! TD*
G04 #@! TA.AperFunction,ComponentPad*
%ADD11C,1.397000*%
G04 #@! TD*
G04 #@! TA.AperFunction,ViaPad*
%ADD12C,0.800000*%
G04 #@! TD*
G04 #@! TA.AperFunction,Conductor*
%ADD13C,0.400000*%
G04 #@! TD*
G04 #@! TA.AperFunction,Conductor*
%ADD14C,0.254000*%
G04 #@! TD*
G04 APERTURE END LIST*
D10*
G04 #@! TO.P,J4,1*
G04 #@! TO.N,VCC*
X93358213Y-92045730D03*
G04 #@! TD*
G04 #@! TO.P,J5,1*
G04 #@! TO.N,GND*
X76213213Y-24100730D03*
G04 #@! TD*
G04 #@! TO.P,J3,*
G04 #@! TO.N,LED*
X64148213Y-75535730D03*
G04 #@! TD*
D11*
G04 #@! TO.P,LED,1*
G04 #@! TO.N,LED*
X65672213Y-67661730D03*
G04 #@! TD*
G04 #@! TO.P,VCC,1*
G04 #@! TO.N,VCC*
X67704213Y-67661730D03*
G04 #@! TD*
G04 #@! TO.P,GND,1*
G04 #@! TO.N,GND*
X63640213Y-67661730D03*
G04 #@! TD*
G04 #@! TO.P,LED,1*
G04 #@! TO.N,LED*
X105677213Y-67661730D03*
G04 #@! TD*
G04 #@! TO.P,VCC,1*
G04 #@! TO.N,VCC*
X107709213Y-67661730D03*
G04 #@! TD*
G04 #@! TO.P,GND,1*
G04 #@! TO.N,GND*
X103645213Y-67661730D03*
G04 #@! TD*
D10*
G04 #@! TO.P,J4,1*
G04 #@! TO.N,VCC*
X133363213Y-92045730D03*
G04 #@! TD*
G04 #@! TO.P,J5,1*
G04 #@! TO.N,GND*
X116218213Y-24100730D03*
G04 #@! TD*
G04 #@! TO.P,J3,*
G04 #@! TO.N,LED*
X104153213Y-75535730D03*
G04 #@! TD*
D12*
G04 #@! TO.N,*
X97790000Y-76835000D03*
X99695000Y-76835000D03*
X97790000Y-34925000D03*
X99695000Y-34925000D03*
G04 #@! TO.N,GND*
X131445000Y-86995000D03*
X125730000Y-69215000D03*
X116205000Y-49530000D03*
X91440000Y-86995000D03*
X85725000Y-69215000D03*
X76200000Y-49530000D03*
G04 #@! TD*
D13*
G04 #@! TO.N,GND*
X103645213Y-36673730D02*
X103645213Y-67661730D01*
X116218213Y-24100730D02*
X103645213Y-36673730D01*
X63640213Y-36673730D02*
X63640213Y-67661730D01*
X76213213Y-24100730D02*
X63640213Y-36673730D01*
G04 #@! TD*
D14*
G04 #@! TO.N,GND*
G36*
X123543655Y-21635262D02*
X136463214Y-34554823D01*
X136463213Y-95140705D01*
X136368153Y-95557044D01*
X136174864Y-95922698D01*
X135893518Y-96225871D01*
X135543294Y-96445895D01*
X135148060Y-96567776D01*
X134734745Y-96583209D01*
X134311870Y-96486657D01*
X125913338Y-91574308D01*
X130993213Y-91574308D01*
X130993213Y-92517152D01*
X131354024Y-93388227D01*
X132020716Y-94054919D01*
X132891791Y-94415730D01*
X133834635Y-94415730D01*
X134705710Y-94054919D01*
X135372402Y-93388227D01*
X135733213Y-92517152D01*
X135733213Y-91574308D01*
X135372402Y-90703233D01*
X134705710Y-90036541D01*
X133834635Y-89675730D01*
X132891791Y-89675730D01*
X132020716Y-90036541D01*
X131354024Y-90703233D01*
X130993213Y-91574308D01*
X125913338Y-91574308D01*
X100730000Y-76844432D01*
X100730000Y-76786638D01*
X100841881Y-76711881D01*
X100998805Y-76477028D01*
X101053909Y-76200000D01*
X101040000Y-76130074D01*
X101040000Y-75064308D01*
X101783213Y-75064308D01*
X101783213Y-76007152D01*
X102144024Y-76878227D01*
X102810716Y-77544919D01*
X103681791Y-77905730D01*
X104624635Y-77905730D01*
X105495710Y-77544919D01*
X106162402Y-76878227D01*
X106523213Y-76007152D01*
X106523213Y-75064308D01*
X106162402Y-74193233D01*
X105495710Y-73526541D01*
X104624635Y-73165730D01*
X103681791Y-73165730D01*
X102810716Y-73526541D01*
X102144024Y-74193233D01*
X101783213Y-75064308D01*
X101040000Y-75064308D01*
X101040000Y-71410000D01*
X123256091Y-71410000D01*
X123270000Y-71479926D01*
X123270001Y-75840069D01*
X123256091Y-75910000D01*
X123311195Y-76187028D01*
X123468119Y-76421881D01*
X123702972Y-76578805D01*
X123910074Y-76620000D01*
X123910075Y-76620000D01*
X123980000Y-76633909D01*
X124049926Y-76620000D01*
X127410075Y-76620000D01*
X127480000Y-76633909D01*
X127757028Y-76578805D01*
X127991881Y-76421881D01*
X128148805Y-76187028D01*
X128190000Y-75979926D01*
X128203909Y-75910000D01*
X128190000Y-75840074D01*
X128190000Y-71479926D01*
X128203909Y-71410000D01*
X128148805Y-71132972D01*
X127991881Y-70898119D01*
X127757028Y-70741195D01*
X127549926Y-70700000D01*
X127549925Y-70700000D01*
X127480000Y-70686091D01*
X127410074Y-70700000D01*
X124049925Y-70700000D01*
X123980000Y-70686091D01*
X123910074Y-70700000D01*
X123702972Y-70741195D01*
X123468119Y-70898119D01*
X123311195Y-71132972D01*
X123256091Y-71410000D01*
X101040000Y-71410000D01*
X101040000Y-68595918D01*
X102890630Y-68595918D01*
X102952284Y-68831530D01*
X103452693Y-69007657D01*
X103982412Y-68978878D01*
X104338142Y-68831530D01*
X104399796Y-68595918D01*
X103645213Y-67841335D01*
X102890630Y-68595918D01*
X101040000Y-68595918D01*
X101040000Y-67469210D01*
X102299286Y-67469210D01*
X102328065Y-67998929D01*
X102475413Y-68354659D01*
X102711025Y-68416313D01*
X103465608Y-67661730D01*
X103824818Y-67661730D01*
X104523067Y-68359979D01*
X104546726Y-68417097D01*
X104921846Y-68792217D01*
X105411963Y-68995230D01*
X105942463Y-68995230D01*
X106432580Y-68792217D01*
X106693213Y-68531584D01*
X106953846Y-68792217D01*
X107443963Y-68995230D01*
X107974463Y-68995230D01*
X108464580Y-68792217D01*
X108839700Y-68417097D01*
X109042713Y-67926980D01*
X109042713Y-67396480D01*
X108839700Y-66906363D01*
X108464580Y-66531243D01*
X107974463Y-66328230D01*
X107443963Y-66328230D01*
X106953846Y-66531243D01*
X106693213Y-66791876D01*
X106432580Y-66531243D01*
X105942463Y-66328230D01*
X105411963Y-66328230D01*
X104921846Y-66531243D01*
X104546726Y-66906363D01*
X104523067Y-66963481D01*
X103824818Y-67661730D01*
X103465608Y-67661730D01*
X102711025Y-66907147D01*
X102475413Y-66968801D01*
X102299286Y-67469210D01*
X101040000Y-67469210D01*
X101040000Y-66727542D01*
X102890630Y-66727542D01*
X103645213Y-67482125D01*
X104399796Y-66727542D01*
X104338142Y-66491930D01*
X103837733Y-66315803D01*
X103308014Y-66344582D01*
X102952284Y-66491930D01*
X102890630Y-66727542D01*
X101040000Y-66727542D01*
X101040000Y-53630000D01*
X109286091Y-53630000D01*
X109300000Y-53699926D01*
X109300001Y-58060069D01*
X109286091Y-58130000D01*
X109341195Y-58407028D01*
X109498119Y-58641881D01*
X109732972Y-58798805D01*
X109940074Y-58840000D01*
X109940075Y-58840000D01*
X110010000Y-58853909D01*
X110079926Y-58840000D01*
X113440075Y-58840000D01*
X113510000Y-58853909D01*
X113787028Y-58798805D01*
X114021881Y-58641881D01*
X114178805Y-58407028D01*
X114220000Y-58199926D01*
X114233909Y-58130000D01*
X114220000Y-58060074D01*
X114220000Y-53699926D01*
X114233909Y-53630000D01*
X114178805Y-53352972D01*
X114021881Y-53118119D01*
X113787028Y-52961195D01*
X113579926Y-52920000D01*
X113579925Y-52920000D01*
X113510000Y-52906091D01*
X113440074Y-52920000D01*
X110079925Y-52920000D01*
X110010000Y-52906091D01*
X109940074Y-52920000D01*
X109732972Y-52961195D01*
X109498119Y-53118119D01*
X109341195Y-53352972D01*
X109286091Y-53630000D01*
X101040000Y-53630000D01*
X101040000Y-37120000D01*
X115636091Y-37120000D01*
X115650000Y-37189926D01*
X115650001Y-41550069D01*
X115636091Y-41620000D01*
X115691195Y-41897028D01*
X115848119Y-42131881D01*
X116082972Y-42288805D01*
X116290074Y-42330000D01*
X116290075Y-42330000D01*
X116360000Y-42343909D01*
X116429926Y-42330000D01*
X119790075Y-42330000D01*
X119860000Y-42343909D01*
X120137028Y-42288805D01*
X120371881Y-42131881D01*
X120528805Y-41897028D01*
X120570000Y-41689926D01*
X120583909Y-41620000D01*
X120570000Y-41550074D01*
X120570000Y-37189926D01*
X120583909Y-37120000D01*
X120528805Y-36842972D01*
X120371881Y-36608119D01*
X120137028Y-36451195D01*
X119929926Y-36410000D01*
X119929925Y-36410000D01*
X119860000Y-36396091D01*
X119790074Y-36410000D01*
X116429925Y-36410000D01*
X116360000Y-36396091D01*
X116290074Y-36410000D01*
X116082972Y-36451195D01*
X115848119Y-36608119D01*
X115691195Y-36842972D01*
X115636091Y-37120000D01*
X101040000Y-37120000D01*
X101040000Y-35758071D01*
X101079399Y-35560000D01*
X101022354Y-35273217D01*
X100859905Y-35030095D01*
X100730000Y-34943295D01*
X100730000Y-34906704D01*
X100859905Y-34819905D01*
X101022354Y-34576783D01*
X101065000Y-34362388D01*
X101065000Y-25962612D01*
X101052347Y-25899002D01*
X101062572Y-25784426D01*
X114714122Y-25784426D01*
X114902579Y-26127611D01*
X115778379Y-26476795D01*
X116721140Y-26464244D01*
X117533847Y-26127611D01*
X117722304Y-25784426D01*
X116218213Y-24280335D01*
X114714122Y-25784426D01*
X101062572Y-25784426D01*
X101111842Y-25232372D01*
X101316723Y-24483453D01*
X101650986Y-23782658D01*
X101738480Y-23660896D01*
X113842148Y-23660896D01*
X113854699Y-24603657D01*
X114191332Y-25416364D01*
X114534517Y-25604821D01*
X116038608Y-24100730D01*
X116397818Y-24100730D01*
X117901909Y-25604821D01*
X118245094Y-25416364D01*
X118594278Y-24540564D01*
X118581727Y-23597803D01*
X118245094Y-22785096D01*
X117901909Y-22596639D01*
X116397818Y-24100730D01*
X116038608Y-24100730D01*
X114534517Y-22596639D01*
X114191332Y-22785096D01*
X113842148Y-23660896D01*
X101738480Y-23660896D01*
X102104069Y-23152125D01*
X102661645Y-22611796D01*
X102951481Y-22417034D01*
X114714122Y-22417034D01*
X116218213Y-23921125D01*
X117722304Y-22417034D01*
X117533847Y-22073849D01*
X116658047Y-21724665D01*
X115715286Y-21737216D01*
X114902579Y-22073849D01*
X114714122Y-22417034D01*
X102951481Y-22417034D01*
X103306099Y-22178741D01*
X104017044Y-21866657D01*
X104777493Y-21684090D01*
X105461999Y-21633823D01*
X105586570Y-21613424D01*
X105605418Y-21606750D01*
X123543655Y-21635262D01*
X123543655Y-21635262D01*
G37*
X123543655Y-21635262D02*
X136463214Y-34554823D01*
X136463213Y-95140705D01*
X136368153Y-95557044D01*
X136174864Y-95922698D01*
X135893518Y-96225871D01*
X135543294Y-96445895D01*
X135148060Y-96567776D01*
X134734745Y-96583209D01*
X134311870Y-96486657D01*
X125913338Y-91574308D01*
X130993213Y-91574308D01*
X130993213Y-92517152D01*
X131354024Y-93388227D01*
X132020716Y-94054919D01*
X132891791Y-94415730D01*
X133834635Y-94415730D01*
X134705710Y-94054919D01*
X135372402Y-93388227D01*
X135733213Y-92517152D01*
X135733213Y-91574308D01*
X135372402Y-90703233D01*
X134705710Y-90036541D01*
X133834635Y-89675730D01*
X132891791Y-89675730D01*
X132020716Y-90036541D01*
X131354024Y-90703233D01*
X130993213Y-91574308D01*
X125913338Y-91574308D01*
X100730000Y-76844432D01*
X100730000Y-76786638D01*
X100841881Y-76711881D01*
X100998805Y-76477028D01*
X101053909Y-76200000D01*
X101040000Y-76130074D01*
X101040000Y-75064308D01*
X101783213Y-75064308D01*
X101783213Y-76007152D01*
X102144024Y-76878227D01*
X102810716Y-77544919D01*
X103681791Y-77905730D01*
X104624635Y-77905730D01*
X105495710Y-77544919D01*
X106162402Y-76878227D01*
X106523213Y-76007152D01*
X106523213Y-75064308D01*
X106162402Y-74193233D01*
X105495710Y-73526541D01*
X104624635Y-73165730D01*
X103681791Y-73165730D01*
X102810716Y-73526541D01*
X102144024Y-74193233D01*
X101783213Y-75064308D01*
X101040000Y-75064308D01*
X101040000Y-71410000D01*
X123256091Y-71410000D01*
X123270000Y-71479926D01*
X123270001Y-75840069D01*
X123256091Y-75910000D01*
X123311195Y-76187028D01*
X123468119Y-76421881D01*
X123702972Y-76578805D01*
X123910074Y-76620000D01*
X123910075Y-76620000D01*
X123980000Y-76633909D01*
X124049926Y-76620000D01*
X127410075Y-76620000D01*
X127480000Y-76633909D01*
X127757028Y-76578805D01*
X127991881Y-76421881D01*
X128148805Y-76187028D01*
X128190000Y-75979926D01*
X128203909Y-75910000D01*
X128190000Y-75840074D01*
X128190000Y-71479926D01*
X128203909Y-71410000D01*
X128148805Y-71132972D01*
X127991881Y-70898119D01*
X127757028Y-70741195D01*
X127549926Y-70700000D01*
X127549925Y-70700000D01*
X127480000Y-70686091D01*
X127410074Y-70700000D01*
X124049925Y-70700000D01*
X123980000Y-70686091D01*
X123910074Y-70700000D01*
X123702972Y-70741195D01*
X123468119Y-70898119D01*
X123311195Y-71132972D01*
X123256091Y-71410000D01*
X101040000Y-71410000D01*
X101040000Y-68595918D01*
X102890630Y-68595918D01*
X102952284Y-68831530D01*
X103452693Y-69007657D01*
X103982412Y-68978878D01*
X104338142Y-68831530D01*
X104399796Y-68595918D01*
X103645213Y-67841335D01*
X102890630Y-68595918D01*
X101040000Y-68595918D01*
X101040000Y-67469210D01*
X102299286Y-67469210D01*
X102328065Y-67998929D01*
X102475413Y-68354659D01*
X102711025Y-68416313D01*
X103465608Y-67661730D01*
X103824818Y-67661730D01*
X104523067Y-68359979D01*
X104546726Y-68417097D01*
X104921846Y-68792217D01*
X105411963Y-68995230D01*
X105942463Y-68995230D01*
X106432580Y-68792217D01*
X106693213Y-68531584D01*
X106953846Y-68792217D01*
X107443963Y-68995230D01*
X107974463Y-68995230D01*
X108464580Y-68792217D01*
X108839700Y-68417097D01*
X109042713Y-67926980D01*
X109042713Y-67396480D01*
X108839700Y-66906363D01*
X108464580Y-66531243D01*
X107974463Y-66328230D01*
X107443963Y-66328230D01*
X106953846Y-66531243D01*
X106693213Y-66791876D01*
X106432580Y-66531243D01*
X105942463Y-66328230D01*
X105411963Y-66328230D01*
X104921846Y-66531243D01*
X104546726Y-66906363D01*
X104523067Y-66963481D01*
X103824818Y-67661730D01*
X103465608Y-67661730D01*
X102711025Y-66907147D01*
X102475413Y-66968801D01*
X102299286Y-67469210D01*
X101040000Y-67469210D01*
X101040000Y-66727542D01*
X102890630Y-66727542D01*
X103645213Y-67482125D01*
X104399796Y-66727542D01*
X104338142Y-66491930D01*
X103837733Y-66315803D01*
X103308014Y-66344582D01*
X102952284Y-66491930D01*
X102890630Y-66727542D01*
X101040000Y-66727542D01*
X101040000Y-53630000D01*
X109286091Y-53630000D01*
X109300000Y-53699926D01*
X109300001Y-58060069D01*
X109286091Y-58130000D01*
X109341195Y-58407028D01*
X109498119Y-58641881D01*
X109732972Y-58798805D01*
X109940074Y-58840000D01*
X109940075Y-58840000D01*
X110010000Y-58853909D01*
X110079926Y-58840000D01*
X113440075Y-58840000D01*
X113510000Y-58853909D01*
X113787028Y-58798805D01*
X114021881Y-58641881D01*
X114178805Y-58407028D01*
X114220000Y-58199926D01*
X114233909Y-58130000D01*
X114220000Y-58060074D01*
X114220000Y-53699926D01*
X114233909Y-53630000D01*
X114178805Y-53352972D01*
X114021881Y-53118119D01*
X113787028Y-52961195D01*
X113579926Y-52920000D01*
X113579925Y-52920000D01*
X113510000Y-52906091D01*
X113440074Y-52920000D01*
X110079925Y-52920000D01*
X110010000Y-52906091D01*
X109940074Y-52920000D01*
X109732972Y-52961195D01*
X109498119Y-53118119D01*
X109341195Y-53352972D01*
X109286091Y-53630000D01*
X101040000Y-53630000D01*
X101040000Y-37120000D01*
X115636091Y-37120000D01*
X115650000Y-37189926D01*
X115650001Y-41550069D01*
X115636091Y-41620000D01*
X115691195Y-41897028D01*
X115848119Y-42131881D01*
X116082972Y-42288805D01*
X116290074Y-42330000D01*
X116290075Y-42330000D01*
X116360000Y-42343909D01*
X116429926Y-42330000D01*
X119790075Y-42330000D01*
X119860000Y-42343909D01*
X120137028Y-42288805D01*
X120371881Y-42131881D01*
X120528805Y-41897028D01*
X120570000Y-41689926D01*
X120583909Y-41620000D01*
X120570000Y-41550074D01*
X120570000Y-37189926D01*
X120583909Y-37120000D01*
X120528805Y-36842972D01*
X120371881Y-36608119D01*
X120137028Y-36451195D01*
X119929926Y-36410000D01*
X119929925Y-36410000D01*
X119860000Y-36396091D01*
X119790074Y-36410000D01*
X116429925Y-36410000D01*
X116360000Y-36396091D01*
X116290074Y-36410000D01*
X116082972Y-36451195D01*
X115848119Y-36608119D01*
X115691195Y-36842972D01*
X115636091Y-37120000D01*
X101040000Y-37120000D01*
X101040000Y-35758071D01*
X101079399Y-35560000D01*
X101022354Y-35273217D01*
X100859905Y-35030095D01*
X100730000Y-34943295D01*
X100730000Y-34906704D01*
X100859905Y-34819905D01*
X101022354Y-34576783D01*
X101065000Y-34362388D01*
X101065000Y-25962612D01*
X101052347Y-25899002D01*
X101062572Y-25784426D01*
X114714122Y-25784426D01*
X114902579Y-26127611D01*
X115778379Y-26476795D01*
X116721140Y-26464244D01*
X117533847Y-26127611D01*
X117722304Y-25784426D01*
X116218213Y-24280335D01*
X114714122Y-25784426D01*
X101062572Y-25784426D01*
X101111842Y-25232372D01*
X101316723Y-24483453D01*
X101650986Y-23782658D01*
X101738480Y-23660896D01*
X113842148Y-23660896D01*
X113854699Y-24603657D01*
X114191332Y-25416364D01*
X114534517Y-25604821D01*
X116038608Y-24100730D01*
X116397818Y-24100730D01*
X117901909Y-25604821D01*
X118245094Y-25416364D01*
X118594278Y-24540564D01*
X118581727Y-23597803D01*
X118245094Y-22785096D01*
X117901909Y-22596639D01*
X116397818Y-24100730D01*
X116038608Y-24100730D01*
X114534517Y-22596639D01*
X114191332Y-22785096D01*
X113842148Y-23660896D01*
X101738480Y-23660896D01*
X102104069Y-23152125D01*
X102661645Y-22611796D01*
X102951481Y-22417034D01*
X114714122Y-22417034D01*
X116218213Y-23921125D01*
X117722304Y-22417034D01*
X117533847Y-22073849D01*
X116658047Y-21724665D01*
X115715286Y-21737216D01*
X114902579Y-22073849D01*
X114714122Y-22417034D01*
X102951481Y-22417034D01*
X103306099Y-22178741D01*
X104017044Y-21866657D01*
X104777493Y-21684090D01*
X105461999Y-21633823D01*
X105586570Y-21613424D01*
X105605418Y-21606750D01*
X123543655Y-21635262D01*
G36*
X83538655Y-21635262D02*
X96517963Y-34614572D01*
X96643119Y-34801881D01*
X96755000Y-34876638D01*
X96755000Y-34943295D01*
X96625095Y-35030095D01*
X96462646Y-35273217D01*
X96405601Y-35560000D01*
X96445000Y-35758071D01*
X96445001Y-76130069D01*
X96431091Y-76200000D01*
X96486195Y-76477028D01*
X96643119Y-76711881D01*
X96755000Y-76786638D01*
X96755000Y-76883362D01*
X96643119Y-76958119D01*
X96642965Y-76958350D01*
X96642739Y-76958501D01*
X96564987Y-77075052D01*
X96486195Y-77192972D01*
X96486141Y-77193242D01*
X96485989Y-77193470D01*
X96458745Y-77330975D01*
X96431091Y-77470000D01*
X96445053Y-77540192D01*
X96458154Y-95140962D01*
X96363153Y-95557044D01*
X96169864Y-95922698D01*
X95888518Y-96225871D01*
X95538294Y-96445895D01*
X95143060Y-96567776D01*
X94729745Y-96583209D01*
X94306870Y-96486657D01*
X85908338Y-91574308D01*
X90988213Y-91574308D01*
X90988213Y-92517152D01*
X91349024Y-93388227D01*
X92015716Y-94054919D01*
X92886791Y-94415730D01*
X93829635Y-94415730D01*
X94700710Y-94054919D01*
X95367402Y-93388227D01*
X95728213Y-92517152D01*
X95728213Y-91574308D01*
X95367402Y-90703233D01*
X94700710Y-90036541D01*
X93829635Y-89675730D01*
X92886791Y-89675730D01*
X92015716Y-90036541D01*
X91349024Y-90703233D01*
X90988213Y-91574308D01*
X85908338Y-91574308D01*
X61035000Y-77025753D01*
X61035000Y-75064308D01*
X61778213Y-75064308D01*
X61778213Y-76007152D01*
X62139024Y-76878227D01*
X62805716Y-77544919D01*
X63676791Y-77905730D01*
X64619635Y-77905730D01*
X65490710Y-77544919D01*
X66157402Y-76878227D01*
X66518213Y-76007152D01*
X66518213Y-75064308D01*
X66157402Y-74193233D01*
X65490710Y-73526541D01*
X64619635Y-73165730D01*
X63676791Y-73165730D01*
X62805716Y-73526541D01*
X62139024Y-74193233D01*
X61778213Y-75064308D01*
X61035000Y-75064308D01*
X61035000Y-71410000D01*
X83251091Y-71410000D01*
X83265000Y-71479926D01*
X83265001Y-75840069D01*
X83251091Y-75910000D01*
X83306195Y-76187028D01*
X83463119Y-76421881D01*
X83697972Y-76578805D01*
X83905074Y-76620000D01*
X83905075Y-76620000D01*
X83975000Y-76633909D01*
X84044926Y-76620000D01*
X87405075Y-76620000D01*
X87475000Y-76633909D01*
X87752028Y-76578805D01*
X87986881Y-76421881D01*
X88143805Y-76187028D01*
X88185000Y-75979926D01*
X88198909Y-75910000D01*
X88185000Y-75840074D01*
X88185000Y-71479926D01*
X88198909Y-71410000D01*
X88143805Y-71132972D01*
X87986881Y-70898119D01*
X87752028Y-70741195D01*
X87544926Y-70700000D01*
X87544925Y-70700000D01*
X87475000Y-70686091D01*
X87405074Y-70700000D01*
X84044925Y-70700000D01*
X83975000Y-70686091D01*
X83905074Y-70700000D01*
X83697972Y-70741195D01*
X83463119Y-70898119D01*
X83306195Y-71132972D01*
X83251091Y-71410000D01*
X61035000Y-71410000D01*
X61035000Y-68595918D01*
X62885630Y-68595918D01*
X62947284Y-68831530D01*
X63447693Y-69007657D01*
X63977412Y-68978878D01*
X64333142Y-68831530D01*
X64394796Y-68595918D01*
X63640213Y-67841335D01*
X62885630Y-68595918D01*
X61035000Y-68595918D01*
X61035000Y-67469210D01*
X62294286Y-67469210D01*
X62323065Y-67998929D01*
X62470413Y-68354659D01*
X62706025Y-68416313D01*
X63460608Y-67661730D01*
X63819818Y-67661730D01*
X64518067Y-68359979D01*
X64541726Y-68417097D01*
X64916846Y-68792217D01*
X65406963Y-68995230D01*
X65937463Y-68995230D01*
X66427580Y-68792217D01*
X66688213Y-68531584D01*
X66948846Y-68792217D01*
X67438963Y-68995230D01*
X67969463Y-68995230D01*
X68459580Y-68792217D01*
X68834700Y-68417097D01*
X69037713Y-67926980D01*
X69037713Y-67396480D01*
X68834700Y-66906363D01*
X68459580Y-66531243D01*
X67969463Y-66328230D01*
X67438963Y-66328230D01*
X66948846Y-66531243D01*
X66688213Y-66791876D01*
X66427580Y-66531243D01*
X65937463Y-66328230D01*
X65406963Y-66328230D01*
X64916846Y-66531243D01*
X64541726Y-66906363D01*
X64518067Y-66963481D01*
X63819818Y-67661730D01*
X63460608Y-67661730D01*
X62706025Y-66907147D01*
X62470413Y-66968801D01*
X62294286Y-67469210D01*
X61035000Y-67469210D01*
X61035000Y-66727542D01*
X62885630Y-66727542D01*
X63640213Y-67482125D01*
X64394796Y-66727542D01*
X64333142Y-66491930D01*
X63832733Y-66315803D01*
X63303014Y-66344582D01*
X62947284Y-66491930D01*
X62885630Y-66727542D01*
X61035000Y-66727542D01*
X61035000Y-53630000D01*
X69281091Y-53630000D01*
X69295000Y-53699926D01*
X69295001Y-58060069D01*
X69281091Y-58130000D01*
X69336195Y-58407028D01*
X69493119Y-58641881D01*
X69727972Y-58798805D01*
X69935074Y-58840000D01*
X69935075Y-58840000D01*
X70005000Y-58853909D01*
X70074926Y-58840000D01*
X73435075Y-58840000D01*
X73505000Y-58853909D01*
X73782028Y-58798805D01*
X74016881Y-58641881D01*
X74173805Y-58407028D01*
X74215000Y-58199926D01*
X74228909Y-58130000D01*
X74215000Y-58060074D01*
X74215000Y-53699926D01*
X74228909Y-53630000D01*
X74173805Y-53352972D01*
X74016881Y-53118119D01*
X73782028Y-52961195D01*
X73574926Y-52920000D01*
X73574925Y-52920000D01*
X73505000Y-52906091D01*
X73435074Y-52920000D01*
X70074925Y-52920000D01*
X70005000Y-52906091D01*
X69935074Y-52920000D01*
X69727972Y-52961195D01*
X69493119Y-53118119D01*
X69336195Y-53352972D01*
X69281091Y-53630000D01*
X61035000Y-53630000D01*
X61035000Y-37120000D01*
X75631091Y-37120000D01*
X75645000Y-37189926D01*
X75645001Y-41550069D01*
X75631091Y-41620000D01*
X75686195Y-41897028D01*
X75843119Y-42131881D01*
X76077972Y-42288805D01*
X76285074Y-42330000D01*
X76285075Y-42330000D01*
X76355000Y-42343909D01*
X76424926Y-42330000D01*
X79785075Y-42330000D01*
X79855000Y-42343909D01*
X80132028Y-42288805D01*
X80366881Y-42131881D01*
X80523805Y-41897028D01*
X80565000Y-41689926D01*
X80578909Y-41620000D01*
X80565000Y-41550074D01*
X80565000Y-37189926D01*
X80578909Y-37120000D01*
X80523805Y-36842972D01*
X80366881Y-36608119D01*
X80132028Y-36451195D01*
X79924926Y-36410000D01*
X79924925Y-36410000D01*
X79855000Y-36396091D01*
X79785074Y-36410000D01*
X76424925Y-36410000D01*
X76355000Y-36396091D01*
X76285074Y-36410000D01*
X76077972Y-36451195D01*
X75843119Y-36608119D01*
X75686195Y-36842972D01*
X75631091Y-37120000D01*
X61035000Y-37120000D01*
X61035000Y-26037348D01*
X61057572Y-25784426D01*
X74709122Y-25784426D01*
X74897579Y-26127611D01*
X75773379Y-26476795D01*
X76716140Y-26464244D01*
X77528847Y-26127611D01*
X77717304Y-25784426D01*
X76213213Y-24280335D01*
X74709122Y-25784426D01*
X61057572Y-25784426D01*
X61106842Y-25232372D01*
X61311723Y-24483453D01*
X61645986Y-23782658D01*
X61733480Y-23660896D01*
X73837148Y-23660896D01*
X73849699Y-24603657D01*
X74186332Y-25416364D01*
X74529517Y-25604821D01*
X76033608Y-24100730D01*
X76392818Y-24100730D01*
X77896909Y-25604821D01*
X78240094Y-25416364D01*
X78589278Y-24540564D01*
X78576727Y-23597803D01*
X78240094Y-22785096D01*
X77896909Y-22596639D01*
X76392818Y-24100730D01*
X76033608Y-24100730D01*
X74529517Y-22596639D01*
X74186332Y-22785096D01*
X73837148Y-23660896D01*
X61733480Y-23660896D01*
X62099069Y-23152125D01*
X62656645Y-22611796D01*
X62946481Y-22417034D01*
X74709122Y-22417034D01*
X76213213Y-23921125D01*
X77717304Y-22417034D01*
X77528847Y-22073849D01*
X76653047Y-21724665D01*
X75710286Y-21737216D01*
X74897579Y-22073849D01*
X74709122Y-22417034D01*
X62946481Y-22417034D01*
X63301099Y-22178741D01*
X64012044Y-21866657D01*
X64772493Y-21684090D01*
X65456999Y-21633823D01*
X65581570Y-21613424D01*
X65600418Y-21606750D01*
X83538655Y-21635262D01*
X83538655Y-21635262D01*
G37*
X83538655Y-21635262D02*
X96517963Y-34614572D01*
X96643119Y-34801881D01*
X96755000Y-34876638D01*
X96755000Y-34943295D01*
X96625095Y-35030095D01*
X96462646Y-35273217D01*
X96405601Y-35560000D01*
X96445000Y-35758071D01*
X96445001Y-76130069D01*
X96431091Y-76200000D01*
X96486195Y-76477028D01*
X96643119Y-76711881D01*
X96755000Y-76786638D01*
X96755000Y-76883362D01*
X96643119Y-76958119D01*
X96642965Y-76958350D01*
X96642739Y-76958501D01*
X96564987Y-77075052D01*
X96486195Y-77192972D01*
X96486141Y-77193242D01*
X96485989Y-77193470D01*
X96458745Y-77330975D01*
X96431091Y-77470000D01*
X96445053Y-77540192D01*
X96458154Y-95140962D01*
X96363153Y-95557044D01*
X96169864Y-95922698D01*
X95888518Y-96225871D01*
X95538294Y-96445895D01*
X95143060Y-96567776D01*
X94729745Y-96583209D01*
X94306870Y-96486657D01*
X85908338Y-91574308D01*
X90988213Y-91574308D01*
X90988213Y-92517152D01*
X91349024Y-93388227D01*
X92015716Y-94054919D01*
X92886791Y-94415730D01*
X93829635Y-94415730D01*
X94700710Y-94054919D01*
X95367402Y-93388227D01*
X95728213Y-92517152D01*
X95728213Y-91574308D01*
X95367402Y-90703233D01*
X94700710Y-90036541D01*
X93829635Y-89675730D01*
X92886791Y-89675730D01*
X92015716Y-90036541D01*
X91349024Y-90703233D01*
X90988213Y-91574308D01*
X85908338Y-91574308D01*
X61035000Y-77025753D01*
X61035000Y-75064308D01*
X61778213Y-75064308D01*
X61778213Y-76007152D01*
X62139024Y-76878227D01*
X62805716Y-77544919D01*
X63676791Y-77905730D01*
X64619635Y-77905730D01*
X65490710Y-77544919D01*
X66157402Y-76878227D01*
X66518213Y-76007152D01*
X66518213Y-75064308D01*
X66157402Y-74193233D01*
X65490710Y-73526541D01*
X64619635Y-73165730D01*
X63676791Y-73165730D01*
X62805716Y-73526541D01*
X62139024Y-74193233D01*
X61778213Y-75064308D01*
X61035000Y-75064308D01*
X61035000Y-71410000D01*
X83251091Y-71410000D01*
X83265000Y-71479926D01*
X83265001Y-75840069D01*
X83251091Y-75910000D01*
X83306195Y-76187028D01*
X83463119Y-76421881D01*
X83697972Y-76578805D01*
X83905074Y-76620000D01*
X83905075Y-76620000D01*
X83975000Y-76633909D01*
X84044926Y-76620000D01*
X87405075Y-76620000D01*
X87475000Y-76633909D01*
X87752028Y-76578805D01*
X87986881Y-76421881D01*
X88143805Y-76187028D01*
X88185000Y-75979926D01*
X88198909Y-75910000D01*
X88185000Y-75840074D01*
X88185000Y-71479926D01*
X88198909Y-71410000D01*
X88143805Y-71132972D01*
X87986881Y-70898119D01*
X87752028Y-70741195D01*
X87544926Y-70700000D01*
X87544925Y-70700000D01*
X87475000Y-70686091D01*
X87405074Y-70700000D01*
X84044925Y-70700000D01*
X83975000Y-70686091D01*
X83905074Y-70700000D01*
X83697972Y-70741195D01*
X83463119Y-70898119D01*
X83306195Y-71132972D01*
X83251091Y-71410000D01*
X61035000Y-71410000D01*
X61035000Y-68595918D01*
X62885630Y-68595918D01*
X62947284Y-68831530D01*
X63447693Y-69007657D01*
X63977412Y-68978878D01*
X64333142Y-68831530D01*
X64394796Y-68595918D01*
X63640213Y-67841335D01*
X62885630Y-68595918D01*
X61035000Y-68595918D01*
X61035000Y-67469210D01*
X62294286Y-67469210D01*
X62323065Y-67998929D01*
X62470413Y-68354659D01*
X62706025Y-68416313D01*
X63460608Y-67661730D01*
X63819818Y-67661730D01*
X64518067Y-68359979D01*
X64541726Y-68417097D01*
X64916846Y-68792217D01*
X65406963Y-68995230D01*
X65937463Y-68995230D01*
X66427580Y-68792217D01*
X66688213Y-68531584D01*
X66948846Y-68792217D01*
X67438963Y-68995230D01*
X67969463Y-68995230D01*
X68459580Y-68792217D01*
X68834700Y-68417097D01*
X69037713Y-67926980D01*
X69037713Y-67396480D01*
X68834700Y-66906363D01*
X68459580Y-66531243D01*
X67969463Y-66328230D01*
X67438963Y-66328230D01*
X66948846Y-66531243D01*
X66688213Y-66791876D01*
X66427580Y-66531243D01*
X65937463Y-66328230D01*
X65406963Y-66328230D01*
X64916846Y-66531243D01*
X64541726Y-66906363D01*
X64518067Y-66963481D01*
X63819818Y-67661730D01*
X63460608Y-67661730D01*
X62706025Y-66907147D01*
X62470413Y-66968801D01*
X62294286Y-67469210D01*
X61035000Y-67469210D01*
X61035000Y-66727542D01*
X62885630Y-66727542D01*
X63640213Y-67482125D01*
X64394796Y-66727542D01*
X64333142Y-66491930D01*
X63832733Y-66315803D01*
X63303014Y-66344582D01*
X62947284Y-66491930D01*
X62885630Y-66727542D01*
X61035000Y-66727542D01*
X61035000Y-53630000D01*
X69281091Y-53630000D01*
X69295000Y-53699926D01*
X69295001Y-58060069D01*
X69281091Y-58130000D01*
X69336195Y-58407028D01*
X69493119Y-58641881D01*
X69727972Y-58798805D01*
X69935074Y-58840000D01*
X69935075Y-58840000D01*
X70005000Y-58853909D01*
X70074926Y-58840000D01*
X73435075Y-58840000D01*
X73505000Y-58853909D01*
X73782028Y-58798805D01*
X74016881Y-58641881D01*
X74173805Y-58407028D01*
X74215000Y-58199926D01*
X74228909Y-58130000D01*
X74215000Y-58060074D01*
X74215000Y-53699926D01*
X74228909Y-53630000D01*
X74173805Y-53352972D01*
X74016881Y-53118119D01*
X73782028Y-52961195D01*
X73574926Y-52920000D01*
X73574925Y-52920000D01*
X73505000Y-52906091D01*
X73435074Y-52920000D01*
X70074925Y-52920000D01*
X70005000Y-52906091D01*
X69935074Y-52920000D01*
X69727972Y-52961195D01*
X69493119Y-53118119D01*
X69336195Y-53352972D01*
X69281091Y-53630000D01*
X61035000Y-53630000D01*
X61035000Y-37120000D01*
X75631091Y-37120000D01*
X75645000Y-37189926D01*
X75645001Y-41550069D01*
X75631091Y-41620000D01*
X75686195Y-41897028D01*
X75843119Y-42131881D01*
X76077972Y-42288805D01*
X76285074Y-42330000D01*
X76285075Y-42330000D01*
X76355000Y-42343909D01*
X76424926Y-42330000D01*
X79785075Y-42330000D01*
X79855000Y-42343909D01*
X80132028Y-42288805D01*
X80366881Y-42131881D01*
X80523805Y-41897028D01*
X80565000Y-41689926D01*
X80578909Y-41620000D01*
X80565000Y-41550074D01*
X80565000Y-37189926D01*
X80578909Y-37120000D01*
X80523805Y-36842972D01*
X80366881Y-36608119D01*
X80132028Y-36451195D01*
X79924926Y-36410000D01*
X79924925Y-36410000D01*
X79855000Y-36396091D01*
X79785074Y-36410000D01*
X76424925Y-36410000D01*
X76355000Y-36396091D01*
X76285074Y-36410000D01*
X76077972Y-36451195D01*
X75843119Y-36608119D01*
X75686195Y-36842972D01*
X75631091Y-37120000D01*
X61035000Y-37120000D01*
X61035000Y-26037348D01*
X61057572Y-25784426D01*
X74709122Y-25784426D01*
X74897579Y-26127611D01*
X75773379Y-26476795D01*
X76716140Y-26464244D01*
X77528847Y-26127611D01*
X77717304Y-25784426D01*
X76213213Y-24280335D01*
X74709122Y-25784426D01*
X61057572Y-25784426D01*
X61106842Y-25232372D01*
X61311723Y-24483453D01*
X61645986Y-23782658D01*
X61733480Y-23660896D01*
X73837148Y-23660896D01*
X73849699Y-24603657D01*
X74186332Y-25416364D01*
X74529517Y-25604821D01*
X76033608Y-24100730D01*
X76392818Y-24100730D01*
X77896909Y-25604821D01*
X78240094Y-25416364D01*
X78589278Y-24540564D01*
X78576727Y-23597803D01*
X78240094Y-22785096D01*
X77896909Y-22596639D01*
X76392818Y-24100730D01*
X76033608Y-24100730D01*
X74529517Y-22596639D01*
X74186332Y-22785096D01*
X73837148Y-23660896D01*
X61733480Y-23660896D01*
X62099069Y-23152125D01*
X62656645Y-22611796D01*
X62946481Y-22417034D01*
X74709122Y-22417034D01*
X76213213Y-23921125D01*
X77717304Y-22417034D01*
X77528847Y-22073849D01*
X76653047Y-21724665D01*
X75710286Y-21737216D01*
X74897579Y-22073849D01*
X74709122Y-22417034D01*
X62946481Y-22417034D01*
X63301099Y-22178741D01*
X64012044Y-21866657D01*
X64772493Y-21684090D01*
X65456999Y-21633823D01*
X65581570Y-21613424D01*
X65600418Y-21606750D01*
X83538655Y-21635262D01*
G04 #@! TD*
M02*
