M48
;DRILL file {KiCad 5.0.2-bee76a0~70~ubuntu18.04.1} date 2019年06月15日 01時56分54秒
;FORMAT={-:-/ absolute / inch / decimal}
FMAT,2
INCH,TZ
T1C0.0157
T2C0.0320
T3C0.0866
%
G90
G05
T1
X3.Y-1.95
X3.375Y-2.725
X3.6Y-3.425
X3.85Y-1.375
X3.85Y-3.025
X3.925Y-1.375
X3.925Y-3.025
X4.575Y-1.95
X4.95Y-2.725
X5.175Y-3.425
T2
X2.5855Y-2.6638
X4.1605Y-2.6638
X2.5055Y-2.6638
X2.6655Y-2.6638
X4.0805Y-2.6638
X4.2405Y-2.6638
T3
X4.5755Y-0.9488
X2.5255Y-2.9738
X3.0005Y-0.9488
X5.2505Y-3.6238
X3.6755Y-3.6238
X4.1005Y-2.9738
T0
M30
