G04 #@! TF.GenerationSoftware,KiCad,Pcbnew,5.0.2-bee76a0~70~ubuntu18.04.1*
G04 #@! TF.CreationDate,2019-06-15T01:55:41+09:00*
G04 #@! TF.ProjectId,shield,73686965-6c64-42e6-9b69-6361645f7063,rev?*
G04 #@! TF.SameCoordinates,Original*
G04 #@! TF.FileFunction,Copper,L2,Bot*
G04 #@! TF.FilePolarity,Positive*
%FSLAX46Y46*%
G04 Gerber Fmt 4.6, Leading zero omitted, Abs format (unit mm)*
G04 Created by KiCad (PCBNEW 5.0.2-bee76a0~70~ubuntu18.04.1) date 2019年06月15日 01時55分41秒*
%MOMM*%
%LPD*%
G01*
G04 APERTURE LIST*
G04 #@! TA.AperFunction,ComponentPad*
%ADD10C,3.470000*%
G04 #@! TD*
G04 #@! TA.AperFunction,SMDPad,CuDef*
%ADD11R,1.600000X1.000000*%
G04 #@! TD*
G04 #@! TA.AperFunction,ComponentPad*
%ADD12C,1.397000*%
G04 #@! TD*
G04 #@! TA.AperFunction,ViaPad*
%ADD13C,0.800000*%
G04 #@! TD*
G04 #@! TA.AperFunction,Conductor*
%ADD14C,0.400000*%
G04 #@! TD*
G04 #@! TA.AperFunction,Conductor*
%ADD15C,0.250000*%
G04 #@! TD*
G04 #@! TA.AperFunction,Conductor*
%ADD16C,0.254000*%
G04 #@! TD*
G04 APERTURE END LIST*
D10*
G04 #@! TO.P,J4,1*
G04 #@! TO.N,VCC*
X93358213Y-92045730D03*
G04 #@! TD*
D11*
G04 #@! TO.P,L3,3*
G04 #@! TO.N,Net-(L2-Pad1)*
X80505000Y-40245000D03*
G04 #@! TO.P,L3,4*
G04 #@! TO.N,VCC*
X80505000Y-38495000D03*
G04 #@! TO.P,L3,1*
G04 #@! TO.N,Net-(L3-Pad1)*
X75705000Y-38495000D03*
G04 #@! TO.P,L3,2*
G04 #@! TO.N,GND*
X75705000Y-40245000D03*
G04 #@! TD*
G04 #@! TO.P,L2,3*
G04 #@! TO.N,Net-(L1-Pad1)*
X74155000Y-56755000D03*
G04 #@! TO.P,L2,4*
G04 #@! TO.N,VCC*
X74155000Y-55005000D03*
G04 #@! TO.P,L2,1*
G04 #@! TO.N,Net-(L2-Pad1)*
X69355000Y-55005000D03*
G04 #@! TO.P,L2,2*
G04 #@! TO.N,GND*
X69355000Y-56755000D03*
G04 #@! TD*
G04 #@! TO.P,L1,3*
G04 #@! TO.N,LED*
X88125000Y-74535000D03*
G04 #@! TO.P,L1,4*
G04 #@! TO.N,VCC*
X88125000Y-72785000D03*
G04 #@! TO.P,L1,1*
G04 #@! TO.N,Net-(L1-Pad1)*
X83325000Y-72785000D03*
G04 #@! TO.P,L1,2*
G04 #@! TO.N,GND*
X83325000Y-74535000D03*
G04 #@! TD*
D10*
G04 #@! TO.P,J5,1*
G04 #@! TO.N,GND*
X76213213Y-24100730D03*
G04 #@! TD*
G04 #@! TO.P,J3,*
G04 #@! TO.N,LED*
X64148213Y-75535730D03*
G04 #@! TD*
D12*
G04 #@! TO.P,LED,1*
G04 #@! TO.N,LED*
X65672213Y-67661730D03*
G04 #@! TD*
G04 #@! TO.P,VCC,1*
G04 #@! TO.N,VCC*
X67704213Y-67661730D03*
G04 #@! TD*
G04 #@! TO.P,GND,1*
G04 #@! TO.N,GND*
X63640213Y-67661730D03*
G04 #@! TD*
D11*
G04 #@! TO.P,L3,2*
G04 #@! TO.N,GND*
X115710000Y-40245000D03*
G04 #@! TO.P,L3,1*
G04 #@! TO.N,Net-(L3-Pad1)*
X115710000Y-38495000D03*
G04 #@! TO.P,L3,4*
G04 #@! TO.N,VCC*
X120510000Y-38495000D03*
G04 #@! TO.P,L3,3*
G04 #@! TO.N,Net-(L2-Pad1)*
X120510000Y-40245000D03*
G04 #@! TD*
G04 #@! TO.P,L2,2*
G04 #@! TO.N,GND*
X109360000Y-56755000D03*
G04 #@! TO.P,L2,1*
G04 #@! TO.N,Net-(L2-Pad1)*
X109360000Y-55005000D03*
G04 #@! TO.P,L2,4*
G04 #@! TO.N,VCC*
X114160000Y-55005000D03*
G04 #@! TO.P,L2,3*
G04 #@! TO.N,Net-(L1-Pad1)*
X114160000Y-56755000D03*
G04 #@! TD*
G04 #@! TO.P,L1,2*
G04 #@! TO.N,GND*
X123330000Y-74535000D03*
G04 #@! TO.P,L1,1*
G04 #@! TO.N,Net-(L1-Pad1)*
X123330000Y-72785000D03*
G04 #@! TO.P,L1,4*
G04 #@! TO.N,VCC*
X128130000Y-72785000D03*
G04 #@! TO.P,L1,3*
G04 #@! TO.N,LED*
X128130000Y-74535000D03*
G04 #@! TD*
D12*
G04 #@! TO.P,LED,1*
G04 #@! TO.N,LED*
X105677213Y-67661730D03*
G04 #@! TD*
G04 #@! TO.P,VCC,1*
G04 #@! TO.N,VCC*
X107709213Y-67661730D03*
G04 #@! TD*
G04 #@! TO.P,GND,1*
G04 #@! TO.N,GND*
X103645213Y-67661730D03*
G04 #@! TD*
D10*
G04 #@! TO.P,J4,1*
G04 #@! TO.N,VCC*
X133363213Y-92045730D03*
G04 #@! TD*
G04 #@! TO.P,J5,1*
G04 #@! TO.N,GND*
X116218213Y-24100730D03*
G04 #@! TD*
G04 #@! TO.P,J3,*
G04 #@! TO.N,LED*
X104153213Y-75535730D03*
G04 #@! TD*
D13*
G04 #@! TO.N,*
X97790000Y-76835000D03*
X99695000Y-76835000D03*
X97790000Y-34925000D03*
X99695000Y-34925000D03*
G04 #@! TO.N,GND*
X131445000Y-86995000D03*
X125730000Y-69215000D03*
X116205000Y-49530000D03*
X91440000Y-86995000D03*
X85725000Y-69215000D03*
X76200000Y-49530000D03*
G04 #@! TD*
D14*
G04 #@! TO.N,VCC*
X114160000Y-54105000D02*
X114160000Y-55005000D01*
X120510000Y-38495000D02*
X120810000Y-38495000D01*
X120810000Y-38495000D02*
X121710001Y-39395001D01*
X121710001Y-39395001D02*
X121710001Y-46554999D01*
X121710001Y-46554999D02*
X114160000Y-54105000D01*
X129330000Y-72785000D02*
X133363213Y-76818213D01*
X133363213Y-89592070D02*
X133363213Y-92045730D01*
X133363213Y-76818213D02*
X133363213Y-89592070D01*
X128130000Y-72785000D02*
X129330000Y-72785000D01*
X114160000Y-55005000D02*
X115360000Y-55005000D01*
X128130000Y-71885000D02*
X128130000Y-72785000D01*
X115360000Y-55005000D02*
X128130000Y-67775000D01*
X128130000Y-67775000D02*
X128130000Y-71885000D01*
X107010714Y-68360229D02*
X107709213Y-67661730D01*
X102018212Y-73352731D02*
X107010714Y-68360229D01*
X102018212Y-76560531D02*
X102018212Y-73352731D01*
X103128412Y-77670731D02*
X102018212Y-76560531D01*
X118988214Y-77670731D02*
X103128412Y-77670731D01*
X133363213Y-92045730D02*
X118988214Y-77670731D01*
X74155000Y-54105000D02*
X74155000Y-55005000D01*
X62013212Y-76560531D02*
X62013212Y-73352731D01*
X63123412Y-77670731D02*
X62013212Y-76560531D01*
X78983214Y-77670731D02*
X63123412Y-77670731D01*
X93358213Y-92045730D02*
X78983214Y-77670731D01*
X80505000Y-38495000D02*
X80805000Y-38495000D01*
X80805000Y-38495000D02*
X81705001Y-39395001D01*
X81705001Y-39395001D02*
X81705001Y-46554999D01*
X81705001Y-46554999D02*
X74155000Y-54105000D01*
X89325000Y-72785000D02*
X93358213Y-76818213D01*
X93358213Y-89592070D02*
X93358213Y-92045730D01*
X93358213Y-76818213D02*
X93358213Y-89592070D01*
X88125000Y-72785000D02*
X89325000Y-72785000D01*
X74155000Y-55005000D02*
X75355000Y-55005000D01*
X88125000Y-71885000D02*
X88125000Y-72785000D01*
X75355000Y-55005000D02*
X88125000Y-67775000D01*
X88125000Y-67775000D02*
X88125000Y-71885000D01*
X67005714Y-68360229D02*
X67704213Y-67661730D01*
X62013212Y-73352731D02*
X67005714Y-68360229D01*
D15*
G04 #@! TO.N,LED*
X104153213Y-75535730D02*
X122525730Y-75535730D01*
X123190000Y-76200000D02*
X127635000Y-76200000D01*
X128130000Y-74535000D02*
X128130000Y-75705000D01*
X128130000Y-75705000D02*
X127635000Y-76200000D01*
X122525730Y-75535730D02*
X123190000Y-76200000D01*
X82520730Y-75535730D02*
X83185000Y-76200000D01*
X64148213Y-75535730D02*
X82520730Y-75535730D01*
X83185000Y-76200000D02*
X87630000Y-76200000D01*
X88125000Y-74535000D02*
X88125000Y-75705000D01*
X88125000Y-75705000D02*
X87630000Y-76200000D01*
G04 #@! TO.N,Net-(L1-Pad1)*
X123330000Y-65625000D02*
X114460000Y-56755000D01*
X123330000Y-72785000D02*
X123330000Y-65625000D01*
X114460000Y-56755000D02*
X114160000Y-56755000D01*
X83325000Y-65625000D02*
X74455000Y-56755000D01*
X83325000Y-72785000D02*
X83325000Y-65625000D01*
X74455000Y-56755000D02*
X74155000Y-56755000D01*
D14*
G04 #@! TO.N,GND*
X115410000Y-40245000D02*
X115710000Y-40245000D01*
X114300000Y-39135000D02*
X115410000Y-40245000D01*
X116218213Y-24100730D02*
X114300000Y-26018943D01*
X114300000Y-26018943D02*
X114300000Y-39135000D01*
X109360000Y-56755000D02*
X109360000Y-60865000D01*
X104343712Y-66963231D02*
X104343712Y-65836288D01*
X104343712Y-65836288D02*
X104388712Y-65836288D01*
X104388712Y-65836288D02*
X109360000Y-60865000D01*
X103645213Y-67661730D02*
X104343712Y-66963231D01*
X123030000Y-74535000D02*
X123330000Y-74535000D01*
X109360000Y-60865000D02*
X123030000Y-74535000D01*
X75405000Y-40245000D02*
X75705000Y-40245000D01*
X74295000Y-39135000D02*
X75405000Y-40245000D01*
X76213213Y-24100730D02*
X74295000Y-26018943D01*
X74295000Y-26018943D02*
X74295000Y-39135000D01*
X69355000Y-56755000D02*
X69355000Y-60865000D01*
X64338712Y-66963231D02*
X64338712Y-65836288D01*
X64338712Y-65836288D02*
X64383712Y-65836288D01*
X64383712Y-65836288D02*
X69355000Y-60865000D01*
X63640213Y-67661730D02*
X64338712Y-66963231D01*
X83025000Y-74535000D02*
X83325000Y-74535000D01*
X69355000Y-60865000D02*
X83025000Y-74535000D01*
D15*
G04 #@! TO.N,Net-(L2-Pad1)*
X120510000Y-42405000D02*
X109360000Y-53555000D01*
X120510000Y-40245000D02*
X120510000Y-42405000D01*
X109360000Y-53555000D02*
X109360000Y-55005000D01*
X80505000Y-42405000D02*
X69355000Y-53555000D01*
X80505000Y-40245000D02*
X80505000Y-42405000D01*
X69355000Y-53555000D02*
X69355000Y-55005000D01*
G04 #@! TD*
D16*
G04 #@! TO.N,GND*
G36*
X123543655Y-21635262D02*
X136463214Y-34554823D01*
X136463213Y-95140705D01*
X136368153Y-95557044D01*
X136174864Y-95922698D01*
X135893518Y-96225871D01*
X135543294Y-96445895D01*
X135148060Y-96567776D01*
X134734745Y-96583209D01*
X134311870Y-96486657D01*
X103570285Y-78505731D01*
X118642347Y-78505731D01*
X131203425Y-91066810D01*
X130993213Y-91574308D01*
X130993213Y-92517152D01*
X131354024Y-93388227D01*
X132020716Y-94054919D01*
X132891791Y-94415730D01*
X133834635Y-94415730D01*
X134705710Y-94054919D01*
X135372402Y-93388227D01*
X135733213Y-92517152D01*
X135733213Y-91574308D01*
X135372402Y-90703233D01*
X134705710Y-90036541D01*
X134198213Y-89826329D01*
X134198213Y-76900450D01*
X134214571Y-76818213D01*
X134179673Y-76642768D01*
X134149765Y-76492412D01*
X133965214Y-76216212D01*
X133895496Y-76169628D01*
X129978587Y-72252720D01*
X129932001Y-72182999D01*
X129655801Y-71998448D01*
X129478702Y-71963221D01*
X129387809Y-71827191D01*
X129177765Y-71686843D01*
X128965000Y-71644522D01*
X128965000Y-67857232D01*
X128981357Y-67774999D01*
X128965000Y-67692764D01*
X128965000Y-67692763D01*
X128916552Y-67449199D01*
X128732001Y-67172999D01*
X128662283Y-67126415D01*
X116008587Y-54472720D01*
X115962001Y-54402999D01*
X115685801Y-54218448D01*
X115508702Y-54183221D01*
X115417809Y-54047191D01*
X115406340Y-54039527D01*
X122242284Y-47203584D01*
X122312002Y-47157000D01*
X122496553Y-46880800D01*
X122545001Y-46637236D01*
X122561359Y-46554999D01*
X122545001Y-46472762D01*
X122545001Y-39477238D01*
X122561359Y-39395001D01*
X122539914Y-39287191D01*
X122496553Y-39069200D01*
X122312002Y-38793000D01*
X122242284Y-38746416D01*
X121957440Y-38461572D01*
X121957440Y-37995000D01*
X121908157Y-37747235D01*
X121767809Y-37537191D01*
X121557765Y-37396843D01*
X121310000Y-37347560D01*
X120570000Y-37347560D01*
X120570000Y-37189926D01*
X120583909Y-37120000D01*
X120528805Y-36842972D01*
X120371881Y-36608119D01*
X120137028Y-36451195D01*
X119929926Y-36410000D01*
X119929925Y-36410000D01*
X119860000Y-36396091D01*
X119790074Y-36410000D01*
X116429925Y-36410000D01*
X116360000Y-36396091D01*
X116290074Y-36410000D01*
X116082972Y-36451195D01*
X115848119Y-36608119D01*
X115691195Y-36842972D01*
X115636091Y-37120000D01*
X115650000Y-37189926D01*
X115650000Y-37347560D01*
X114910000Y-37347560D01*
X114662235Y-37396843D01*
X114452191Y-37537191D01*
X114311843Y-37747235D01*
X114262560Y-37995000D01*
X114262560Y-38995000D01*
X114311843Y-39242765D01*
X114392900Y-39364074D01*
X114371673Y-39385301D01*
X114275000Y-39618690D01*
X114275000Y-39959250D01*
X114433750Y-40118000D01*
X115583000Y-40118000D01*
X115583000Y-40098000D01*
X115650001Y-40098000D01*
X115650001Y-40392000D01*
X115583000Y-40392000D01*
X115583000Y-40372000D01*
X114433750Y-40372000D01*
X114275000Y-40530750D01*
X114275000Y-40871310D01*
X114371673Y-41104699D01*
X114550302Y-41283327D01*
X114783691Y-41380000D01*
X115424250Y-41380000D01*
X115582998Y-41221252D01*
X115582998Y-41380000D01*
X115650001Y-41380000D01*
X115650001Y-41550069D01*
X115636091Y-41620000D01*
X115691195Y-41897028D01*
X115848119Y-42131881D01*
X116082972Y-42288805D01*
X116290074Y-42330000D01*
X116290075Y-42330000D01*
X116360000Y-42343909D01*
X116429926Y-42330000D01*
X119510198Y-42330000D01*
X108875530Y-52964669D01*
X108812071Y-53007071D01*
X108644096Y-53258464D01*
X108600000Y-53480149D01*
X108600000Y-53480153D01*
X108585112Y-53555000D01*
X108600000Y-53629847D01*
X108600000Y-53857560D01*
X108560000Y-53857560D01*
X108312235Y-53906843D01*
X108102191Y-54047191D01*
X107961843Y-54257235D01*
X107912560Y-54505000D01*
X107912560Y-55505000D01*
X107961843Y-55752765D01*
X108042900Y-55874074D01*
X108021673Y-55895301D01*
X107925000Y-56128690D01*
X107925000Y-56469250D01*
X108083750Y-56628000D01*
X109233000Y-56628000D01*
X109233000Y-56608000D01*
X109300001Y-56608000D01*
X109300001Y-56902000D01*
X109233000Y-56902000D01*
X109233000Y-56882000D01*
X108083750Y-56882000D01*
X107925000Y-57040750D01*
X107925000Y-57381310D01*
X108021673Y-57614699D01*
X108200302Y-57793327D01*
X108433691Y-57890000D01*
X109074250Y-57890000D01*
X109232998Y-57731252D01*
X109232998Y-57890000D01*
X109300001Y-57890000D01*
X109300001Y-58060069D01*
X109286091Y-58130000D01*
X109341195Y-58407028D01*
X109498119Y-58641881D01*
X109732972Y-58798805D01*
X109940074Y-58840000D01*
X109940075Y-58840000D01*
X110010000Y-58853909D01*
X110079926Y-58840000D01*
X113440075Y-58840000D01*
X113510000Y-58853909D01*
X113787028Y-58798805D01*
X114021881Y-58641881D01*
X114178805Y-58407028D01*
X114220000Y-58199926D01*
X114233909Y-58130000D01*
X114220000Y-58060074D01*
X114220000Y-57902440D01*
X114532639Y-57902440D01*
X122570001Y-65939804D01*
X122570000Y-71637560D01*
X122530000Y-71637560D01*
X122282235Y-71686843D01*
X122072191Y-71827191D01*
X121931843Y-72037235D01*
X121882560Y-72285000D01*
X121882560Y-73285000D01*
X121931843Y-73532765D01*
X122012900Y-73654074D01*
X121991673Y-73675301D01*
X121895000Y-73908690D01*
X121895000Y-74249250D01*
X122053750Y-74408000D01*
X123203000Y-74408000D01*
X123203000Y-74388000D01*
X123270001Y-74388000D01*
X123270001Y-74682000D01*
X123203000Y-74682000D01*
X123203000Y-74662000D01*
X122053750Y-74662000D01*
X121940020Y-74775730D01*
X106403680Y-74775730D01*
X106162402Y-74193233D01*
X105495710Y-73526541D01*
X104624635Y-73165730D01*
X103681791Y-73165730D01*
X103176981Y-73374829D01*
X107556581Y-68995230D01*
X107974463Y-68995230D01*
X108464580Y-68792217D01*
X108839700Y-68417097D01*
X109042713Y-67926980D01*
X109042713Y-67396480D01*
X108839700Y-66906363D01*
X108464580Y-66531243D01*
X107974463Y-66328230D01*
X107443963Y-66328230D01*
X106953846Y-66531243D01*
X106693213Y-66791876D01*
X106432580Y-66531243D01*
X105942463Y-66328230D01*
X105411963Y-66328230D01*
X104921846Y-66531243D01*
X104546726Y-66906363D01*
X104523067Y-66963481D01*
X103824818Y-67661730D01*
X104523067Y-68359979D01*
X104546726Y-68417097D01*
X104921846Y-68792217D01*
X105258438Y-68931638D01*
X101485930Y-72704146D01*
X101416212Y-72750730D01*
X101369628Y-72820448D01*
X101231660Y-73026931D01*
X101166855Y-73352731D01*
X101183213Y-73434969D01*
X101183212Y-76478298D01*
X101166855Y-76560531D01*
X101183212Y-76642764D01*
X101183212Y-76642767D01*
X101231660Y-76886331D01*
X101416211Y-77162532D01*
X101485932Y-77209118D01*
X101672548Y-77395734D01*
X100730000Y-76844432D01*
X100730000Y-76786638D01*
X100841881Y-76711881D01*
X100998805Y-76477028D01*
X101053909Y-76200000D01*
X101040000Y-76130074D01*
X101040000Y-68595918D01*
X102890630Y-68595918D01*
X102952284Y-68831530D01*
X103452693Y-69007657D01*
X103982412Y-68978878D01*
X104338142Y-68831530D01*
X104399796Y-68595918D01*
X103645213Y-67841335D01*
X102890630Y-68595918D01*
X101040000Y-68595918D01*
X101040000Y-67469210D01*
X102299286Y-67469210D01*
X102328065Y-67998929D01*
X102475413Y-68354659D01*
X102711025Y-68416313D01*
X103465608Y-67661730D01*
X102711025Y-66907147D01*
X102475413Y-66968801D01*
X102299286Y-67469210D01*
X101040000Y-67469210D01*
X101040000Y-66727542D01*
X102890630Y-66727542D01*
X103645213Y-67482125D01*
X104399796Y-66727542D01*
X104338142Y-66491930D01*
X103837733Y-66315803D01*
X103308014Y-66344582D01*
X102952284Y-66491930D01*
X102890630Y-66727542D01*
X101040000Y-66727542D01*
X101040000Y-35758071D01*
X101079399Y-35560000D01*
X101022354Y-35273217D01*
X100859905Y-35030095D01*
X100730000Y-34943295D01*
X100730000Y-34906704D01*
X100859905Y-34819905D01*
X101022354Y-34576783D01*
X101065000Y-34362388D01*
X101065000Y-25962612D01*
X101052347Y-25899002D01*
X101062572Y-25784426D01*
X114714122Y-25784426D01*
X114902579Y-26127611D01*
X115778379Y-26476795D01*
X116721140Y-26464244D01*
X117533847Y-26127611D01*
X117722304Y-25784426D01*
X116218213Y-24280335D01*
X114714122Y-25784426D01*
X101062572Y-25784426D01*
X101111842Y-25232372D01*
X101316723Y-24483453D01*
X101650986Y-23782658D01*
X101738480Y-23660896D01*
X113842148Y-23660896D01*
X113854699Y-24603657D01*
X114191332Y-25416364D01*
X114534517Y-25604821D01*
X116038608Y-24100730D01*
X116397818Y-24100730D01*
X117901909Y-25604821D01*
X118245094Y-25416364D01*
X118594278Y-24540564D01*
X118581727Y-23597803D01*
X118245094Y-22785096D01*
X117901909Y-22596639D01*
X116397818Y-24100730D01*
X116038608Y-24100730D01*
X114534517Y-22596639D01*
X114191332Y-22785096D01*
X113842148Y-23660896D01*
X101738480Y-23660896D01*
X102104069Y-23152125D01*
X102661645Y-22611796D01*
X102951481Y-22417034D01*
X114714122Y-22417034D01*
X116218213Y-23921125D01*
X117722304Y-22417034D01*
X117533847Y-22073849D01*
X116658047Y-21724665D01*
X115715286Y-21737216D01*
X114902579Y-22073849D01*
X114714122Y-22417034D01*
X102951481Y-22417034D01*
X103306099Y-22178741D01*
X104017044Y-21866657D01*
X104777493Y-21684090D01*
X105461999Y-21633823D01*
X105586570Y-21613424D01*
X105605418Y-21606750D01*
X123543655Y-21635262D01*
X123543655Y-21635262D01*
G37*
X123543655Y-21635262D02*
X136463214Y-34554823D01*
X136463213Y-95140705D01*
X136368153Y-95557044D01*
X136174864Y-95922698D01*
X135893518Y-96225871D01*
X135543294Y-96445895D01*
X135148060Y-96567776D01*
X134734745Y-96583209D01*
X134311870Y-96486657D01*
X103570285Y-78505731D01*
X118642347Y-78505731D01*
X131203425Y-91066810D01*
X130993213Y-91574308D01*
X130993213Y-92517152D01*
X131354024Y-93388227D01*
X132020716Y-94054919D01*
X132891791Y-94415730D01*
X133834635Y-94415730D01*
X134705710Y-94054919D01*
X135372402Y-93388227D01*
X135733213Y-92517152D01*
X135733213Y-91574308D01*
X135372402Y-90703233D01*
X134705710Y-90036541D01*
X134198213Y-89826329D01*
X134198213Y-76900450D01*
X134214571Y-76818213D01*
X134179673Y-76642768D01*
X134149765Y-76492412D01*
X133965214Y-76216212D01*
X133895496Y-76169628D01*
X129978587Y-72252720D01*
X129932001Y-72182999D01*
X129655801Y-71998448D01*
X129478702Y-71963221D01*
X129387809Y-71827191D01*
X129177765Y-71686843D01*
X128965000Y-71644522D01*
X128965000Y-67857232D01*
X128981357Y-67774999D01*
X128965000Y-67692764D01*
X128965000Y-67692763D01*
X128916552Y-67449199D01*
X128732001Y-67172999D01*
X128662283Y-67126415D01*
X116008587Y-54472720D01*
X115962001Y-54402999D01*
X115685801Y-54218448D01*
X115508702Y-54183221D01*
X115417809Y-54047191D01*
X115406340Y-54039527D01*
X122242284Y-47203584D01*
X122312002Y-47157000D01*
X122496553Y-46880800D01*
X122545001Y-46637236D01*
X122561359Y-46554999D01*
X122545001Y-46472762D01*
X122545001Y-39477238D01*
X122561359Y-39395001D01*
X122539914Y-39287191D01*
X122496553Y-39069200D01*
X122312002Y-38793000D01*
X122242284Y-38746416D01*
X121957440Y-38461572D01*
X121957440Y-37995000D01*
X121908157Y-37747235D01*
X121767809Y-37537191D01*
X121557765Y-37396843D01*
X121310000Y-37347560D01*
X120570000Y-37347560D01*
X120570000Y-37189926D01*
X120583909Y-37120000D01*
X120528805Y-36842972D01*
X120371881Y-36608119D01*
X120137028Y-36451195D01*
X119929926Y-36410000D01*
X119929925Y-36410000D01*
X119860000Y-36396091D01*
X119790074Y-36410000D01*
X116429925Y-36410000D01*
X116360000Y-36396091D01*
X116290074Y-36410000D01*
X116082972Y-36451195D01*
X115848119Y-36608119D01*
X115691195Y-36842972D01*
X115636091Y-37120000D01*
X115650000Y-37189926D01*
X115650000Y-37347560D01*
X114910000Y-37347560D01*
X114662235Y-37396843D01*
X114452191Y-37537191D01*
X114311843Y-37747235D01*
X114262560Y-37995000D01*
X114262560Y-38995000D01*
X114311843Y-39242765D01*
X114392900Y-39364074D01*
X114371673Y-39385301D01*
X114275000Y-39618690D01*
X114275000Y-39959250D01*
X114433750Y-40118000D01*
X115583000Y-40118000D01*
X115583000Y-40098000D01*
X115650001Y-40098000D01*
X115650001Y-40392000D01*
X115583000Y-40392000D01*
X115583000Y-40372000D01*
X114433750Y-40372000D01*
X114275000Y-40530750D01*
X114275000Y-40871310D01*
X114371673Y-41104699D01*
X114550302Y-41283327D01*
X114783691Y-41380000D01*
X115424250Y-41380000D01*
X115582998Y-41221252D01*
X115582998Y-41380000D01*
X115650001Y-41380000D01*
X115650001Y-41550069D01*
X115636091Y-41620000D01*
X115691195Y-41897028D01*
X115848119Y-42131881D01*
X116082972Y-42288805D01*
X116290074Y-42330000D01*
X116290075Y-42330000D01*
X116360000Y-42343909D01*
X116429926Y-42330000D01*
X119510198Y-42330000D01*
X108875530Y-52964669D01*
X108812071Y-53007071D01*
X108644096Y-53258464D01*
X108600000Y-53480149D01*
X108600000Y-53480153D01*
X108585112Y-53555000D01*
X108600000Y-53629847D01*
X108600000Y-53857560D01*
X108560000Y-53857560D01*
X108312235Y-53906843D01*
X108102191Y-54047191D01*
X107961843Y-54257235D01*
X107912560Y-54505000D01*
X107912560Y-55505000D01*
X107961843Y-55752765D01*
X108042900Y-55874074D01*
X108021673Y-55895301D01*
X107925000Y-56128690D01*
X107925000Y-56469250D01*
X108083750Y-56628000D01*
X109233000Y-56628000D01*
X109233000Y-56608000D01*
X109300001Y-56608000D01*
X109300001Y-56902000D01*
X109233000Y-56902000D01*
X109233000Y-56882000D01*
X108083750Y-56882000D01*
X107925000Y-57040750D01*
X107925000Y-57381310D01*
X108021673Y-57614699D01*
X108200302Y-57793327D01*
X108433691Y-57890000D01*
X109074250Y-57890000D01*
X109232998Y-57731252D01*
X109232998Y-57890000D01*
X109300001Y-57890000D01*
X109300001Y-58060069D01*
X109286091Y-58130000D01*
X109341195Y-58407028D01*
X109498119Y-58641881D01*
X109732972Y-58798805D01*
X109940074Y-58840000D01*
X109940075Y-58840000D01*
X110010000Y-58853909D01*
X110079926Y-58840000D01*
X113440075Y-58840000D01*
X113510000Y-58853909D01*
X113787028Y-58798805D01*
X114021881Y-58641881D01*
X114178805Y-58407028D01*
X114220000Y-58199926D01*
X114233909Y-58130000D01*
X114220000Y-58060074D01*
X114220000Y-57902440D01*
X114532639Y-57902440D01*
X122570001Y-65939804D01*
X122570000Y-71637560D01*
X122530000Y-71637560D01*
X122282235Y-71686843D01*
X122072191Y-71827191D01*
X121931843Y-72037235D01*
X121882560Y-72285000D01*
X121882560Y-73285000D01*
X121931843Y-73532765D01*
X122012900Y-73654074D01*
X121991673Y-73675301D01*
X121895000Y-73908690D01*
X121895000Y-74249250D01*
X122053750Y-74408000D01*
X123203000Y-74408000D01*
X123203000Y-74388000D01*
X123270001Y-74388000D01*
X123270001Y-74682000D01*
X123203000Y-74682000D01*
X123203000Y-74662000D01*
X122053750Y-74662000D01*
X121940020Y-74775730D01*
X106403680Y-74775730D01*
X106162402Y-74193233D01*
X105495710Y-73526541D01*
X104624635Y-73165730D01*
X103681791Y-73165730D01*
X103176981Y-73374829D01*
X107556581Y-68995230D01*
X107974463Y-68995230D01*
X108464580Y-68792217D01*
X108839700Y-68417097D01*
X109042713Y-67926980D01*
X109042713Y-67396480D01*
X108839700Y-66906363D01*
X108464580Y-66531243D01*
X107974463Y-66328230D01*
X107443963Y-66328230D01*
X106953846Y-66531243D01*
X106693213Y-66791876D01*
X106432580Y-66531243D01*
X105942463Y-66328230D01*
X105411963Y-66328230D01*
X104921846Y-66531243D01*
X104546726Y-66906363D01*
X104523067Y-66963481D01*
X103824818Y-67661730D01*
X104523067Y-68359979D01*
X104546726Y-68417097D01*
X104921846Y-68792217D01*
X105258438Y-68931638D01*
X101485930Y-72704146D01*
X101416212Y-72750730D01*
X101369628Y-72820448D01*
X101231660Y-73026931D01*
X101166855Y-73352731D01*
X101183213Y-73434969D01*
X101183212Y-76478298D01*
X101166855Y-76560531D01*
X101183212Y-76642764D01*
X101183212Y-76642767D01*
X101231660Y-76886331D01*
X101416211Y-77162532D01*
X101485932Y-77209118D01*
X101672548Y-77395734D01*
X100730000Y-76844432D01*
X100730000Y-76786638D01*
X100841881Y-76711881D01*
X100998805Y-76477028D01*
X101053909Y-76200000D01*
X101040000Y-76130074D01*
X101040000Y-68595918D01*
X102890630Y-68595918D01*
X102952284Y-68831530D01*
X103452693Y-69007657D01*
X103982412Y-68978878D01*
X104338142Y-68831530D01*
X104399796Y-68595918D01*
X103645213Y-67841335D01*
X102890630Y-68595918D01*
X101040000Y-68595918D01*
X101040000Y-67469210D01*
X102299286Y-67469210D01*
X102328065Y-67998929D01*
X102475413Y-68354659D01*
X102711025Y-68416313D01*
X103465608Y-67661730D01*
X102711025Y-66907147D01*
X102475413Y-66968801D01*
X102299286Y-67469210D01*
X101040000Y-67469210D01*
X101040000Y-66727542D01*
X102890630Y-66727542D01*
X103645213Y-67482125D01*
X104399796Y-66727542D01*
X104338142Y-66491930D01*
X103837733Y-66315803D01*
X103308014Y-66344582D01*
X102952284Y-66491930D01*
X102890630Y-66727542D01*
X101040000Y-66727542D01*
X101040000Y-35758071D01*
X101079399Y-35560000D01*
X101022354Y-35273217D01*
X100859905Y-35030095D01*
X100730000Y-34943295D01*
X100730000Y-34906704D01*
X100859905Y-34819905D01*
X101022354Y-34576783D01*
X101065000Y-34362388D01*
X101065000Y-25962612D01*
X101052347Y-25899002D01*
X101062572Y-25784426D01*
X114714122Y-25784426D01*
X114902579Y-26127611D01*
X115778379Y-26476795D01*
X116721140Y-26464244D01*
X117533847Y-26127611D01*
X117722304Y-25784426D01*
X116218213Y-24280335D01*
X114714122Y-25784426D01*
X101062572Y-25784426D01*
X101111842Y-25232372D01*
X101316723Y-24483453D01*
X101650986Y-23782658D01*
X101738480Y-23660896D01*
X113842148Y-23660896D01*
X113854699Y-24603657D01*
X114191332Y-25416364D01*
X114534517Y-25604821D01*
X116038608Y-24100730D01*
X116397818Y-24100730D01*
X117901909Y-25604821D01*
X118245094Y-25416364D01*
X118594278Y-24540564D01*
X118581727Y-23597803D01*
X118245094Y-22785096D01*
X117901909Y-22596639D01*
X116397818Y-24100730D01*
X116038608Y-24100730D01*
X114534517Y-22596639D01*
X114191332Y-22785096D01*
X113842148Y-23660896D01*
X101738480Y-23660896D01*
X102104069Y-23152125D01*
X102661645Y-22611796D01*
X102951481Y-22417034D01*
X114714122Y-22417034D01*
X116218213Y-23921125D01*
X117722304Y-22417034D01*
X117533847Y-22073849D01*
X116658047Y-21724665D01*
X115715286Y-21737216D01*
X114902579Y-22073849D01*
X114714122Y-22417034D01*
X102951481Y-22417034D01*
X103306099Y-22178741D01*
X104017044Y-21866657D01*
X104777493Y-21684090D01*
X105461999Y-21633823D01*
X105586570Y-21613424D01*
X105605418Y-21606750D01*
X123543655Y-21635262D01*
G36*
X83538655Y-21635262D02*
X96517963Y-34614572D01*
X96643119Y-34801881D01*
X96755000Y-34876638D01*
X96755000Y-34943295D01*
X96625095Y-35030095D01*
X96462646Y-35273217D01*
X96405601Y-35560000D01*
X96445000Y-35758071D01*
X96445001Y-76130069D01*
X96431091Y-76200000D01*
X96486195Y-76477028D01*
X96643119Y-76711881D01*
X96755000Y-76786638D01*
X96755000Y-76883362D01*
X96643119Y-76958119D01*
X96642965Y-76958350D01*
X96642739Y-76958501D01*
X96564987Y-77075052D01*
X96486195Y-77192972D01*
X96486141Y-77193242D01*
X96485989Y-77193470D01*
X96458745Y-77330975D01*
X96431091Y-77470000D01*
X96445053Y-77540192D01*
X96458154Y-95140962D01*
X96363153Y-95557044D01*
X96169864Y-95922698D01*
X95888518Y-96225871D01*
X95538294Y-96445895D01*
X95143060Y-96567776D01*
X94729745Y-96583209D01*
X94306870Y-96486657D01*
X63565285Y-78505731D01*
X78637347Y-78505731D01*
X91198425Y-91066810D01*
X90988213Y-91574308D01*
X90988213Y-92517152D01*
X91349024Y-93388227D01*
X92015716Y-94054919D01*
X92886791Y-94415730D01*
X93829635Y-94415730D01*
X94700710Y-94054919D01*
X95367402Y-93388227D01*
X95728213Y-92517152D01*
X95728213Y-91574308D01*
X95367402Y-90703233D01*
X94700710Y-90036541D01*
X94193213Y-89826329D01*
X94193213Y-76900450D01*
X94209571Y-76818213D01*
X94174673Y-76642768D01*
X94144765Y-76492412D01*
X93960214Y-76216212D01*
X93890496Y-76169628D01*
X89973587Y-72252720D01*
X89927001Y-72182999D01*
X89650801Y-71998448D01*
X89473702Y-71963221D01*
X89382809Y-71827191D01*
X89172765Y-71686843D01*
X88960000Y-71644522D01*
X88960000Y-67857232D01*
X88976357Y-67774999D01*
X88960000Y-67692764D01*
X88960000Y-67692763D01*
X88911552Y-67449199D01*
X88727001Y-67172999D01*
X88657283Y-67126415D01*
X76003587Y-54472720D01*
X75957001Y-54402999D01*
X75680801Y-54218448D01*
X75503702Y-54183221D01*
X75412809Y-54047191D01*
X75401340Y-54039527D01*
X82237284Y-47203584D01*
X82307002Y-47157000D01*
X82491553Y-46880800D01*
X82540001Y-46637236D01*
X82556359Y-46554999D01*
X82540001Y-46472762D01*
X82540001Y-39477238D01*
X82556359Y-39395001D01*
X82534914Y-39287191D01*
X82491553Y-39069200D01*
X82307002Y-38793000D01*
X82237284Y-38746416D01*
X81952440Y-38461572D01*
X81952440Y-37995000D01*
X81903157Y-37747235D01*
X81762809Y-37537191D01*
X81552765Y-37396843D01*
X81305000Y-37347560D01*
X80565000Y-37347560D01*
X80565000Y-37189926D01*
X80578909Y-37120000D01*
X80523805Y-36842972D01*
X80366881Y-36608119D01*
X80132028Y-36451195D01*
X79924926Y-36410000D01*
X79924925Y-36410000D01*
X79855000Y-36396091D01*
X79785074Y-36410000D01*
X76424925Y-36410000D01*
X76355000Y-36396091D01*
X76285074Y-36410000D01*
X76077972Y-36451195D01*
X75843119Y-36608119D01*
X75686195Y-36842972D01*
X75631091Y-37120000D01*
X75645000Y-37189926D01*
X75645000Y-37347560D01*
X74905000Y-37347560D01*
X74657235Y-37396843D01*
X74447191Y-37537191D01*
X74306843Y-37747235D01*
X74257560Y-37995000D01*
X74257560Y-38995000D01*
X74306843Y-39242765D01*
X74387900Y-39364074D01*
X74366673Y-39385301D01*
X74270000Y-39618690D01*
X74270000Y-39959250D01*
X74428750Y-40118000D01*
X75578000Y-40118000D01*
X75578000Y-40098000D01*
X75645001Y-40098000D01*
X75645001Y-40392000D01*
X75578000Y-40392000D01*
X75578000Y-40372000D01*
X74428750Y-40372000D01*
X74270000Y-40530750D01*
X74270000Y-40871310D01*
X74366673Y-41104699D01*
X74545302Y-41283327D01*
X74778691Y-41380000D01*
X75419250Y-41380000D01*
X75577998Y-41221252D01*
X75577998Y-41380000D01*
X75645001Y-41380000D01*
X75645001Y-41550069D01*
X75631091Y-41620000D01*
X75686195Y-41897028D01*
X75843119Y-42131881D01*
X76077972Y-42288805D01*
X76285074Y-42330000D01*
X76285075Y-42330000D01*
X76355000Y-42343909D01*
X76424926Y-42330000D01*
X79505198Y-42330000D01*
X68870530Y-52964669D01*
X68807071Y-53007071D01*
X68639096Y-53258464D01*
X68595000Y-53480149D01*
X68595000Y-53480153D01*
X68580112Y-53555000D01*
X68595000Y-53629847D01*
X68595000Y-53857560D01*
X68555000Y-53857560D01*
X68307235Y-53906843D01*
X68097191Y-54047191D01*
X67956843Y-54257235D01*
X67907560Y-54505000D01*
X67907560Y-55505000D01*
X67956843Y-55752765D01*
X68037900Y-55874074D01*
X68016673Y-55895301D01*
X67920000Y-56128690D01*
X67920000Y-56469250D01*
X68078750Y-56628000D01*
X69228000Y-56628000D01*
X69228000Y-56608000D01*
X69295001Y-56608000D01*
X69295001Y-56902000D01*
X69228000Y-56902000D01*
X69228000Y-56882000D01*
X68078750Y-56882000D01*
X67920000Y-57040750D01*
X67920000Y-57381310D01*
X68016673Y-57614699D01*
X68195302Y-57793327D01*
X68428691Y-57890000D01*
X69069250Y-57890000D01*
X69227998Y-57731252D01*
X69227998Y-57890000D01*
X69295001Y-57890000D01*
X69295001Y-58060069D01*
X69281091Y-58130000D01*
X69336195Y-58407028D01*
X69493119Y-58641881D01*
X69727972Y-58798805D01*
X69935074Y-58840000D01*
X69935075Y-58840000D01*
X70005000Y-58853909D01*
X70074926Y-58840000D01*
X73435075Y-58840000D01*
X73505000Y-58853909D01*
X73782028Y-58798805D01*
X74016881Y-58641881D01*
X74173805Y-58407028D01*
X74215000Y-58199926D01*
X74228909Y-58130000D01*
X74215000Y-58060074D01*
X74215000Y-57902440D01*
X74527639Y-57902440D01*
X82565001Y-65939804D01*
X82565000Y-71637560D01*
X82525000Y-71637560D01*
X82277235Y-71686843D01*
X82067191Y-71827191D01*
X81926843Y-72037235D01*
X81877560Y-72285000D01*
X81877560Y-73285000D01*
X81926843Y-73532765D01*
X82007900Y-73654074D01*
X81986673Y-73675301D01*
X81890000Y-73908690D01*
X81890000Y-74249250D01*
X82048750Y-74408000D01*
X83198000Y-74408000D01*
X83198000Y-74388000D01*
X83265001Y-74388000D01*
X83265001Y-74682000D01*
X83198000Y-74682000D01*
X83198000Y-74662000D01*
X82048750Y-74662000D01*
X81935020Y-74775730D01*
X66398680Y-74775730D01*
X66157402Y-74193233D01*
X65490710Y-73526541D01*
X64619635Y-73165730D01*
X63676791Y-73165730D01*
X63171981Y-73374829D01*
X67551581Y-68995230D01*
X67969463Y-68995230D01*
X68459580Y-68792217D01*
X68834700Y-68417097D01*
X69037713Y-67926980D01*
X69037713Y-67396480D01*
X68834700Y-66906363D01*
X68459580Y-66531243D01*
X67969463Y-66328230D01*
X67438963Y-66328230D01*
X66948846Y-66531243D01*
X66688213Y-66791876D01*
X66427580Y-66531243D01*
X65937463Y-66328230D01*
X65406963Y-66328230D01*
X64916846Y-66531243D01*
X64541726Y-66906363D01*
X64518067Y-66963481D01*
X63819818Y-67661730D01*
X64518067Y-68359979D01*
X64541726Y-68417097D01*
X64916846Y-68792217D01*
X65253438Y-68931638D01*
X61480930Y-72704146D01*
X61411212Y-72750730D01*
X61364628Y-72820448D01*
X61226660Y-73026931D01*
X61161855Y-73352731D01*
X61178213Y-73434969D01*
X61178212Y-76478298D01*
X61161855Y-76560531D01*
X61178212Y-76642764D01*
X61178212Y-76642767D01*
X61226660Y-76886331D01*
X61411211Y-77162532D01*
X61480932Y-77209118D01*
X61667548Y-77395734D01*
X61035000Y-77025753D01*
X61035000Y-68595918D01*
X62885630Y-68595918D01*
X62947284Y-68831530D01*
X63447693Y-69007657D01*
X63977412Y-68978878D01*
X64333142Y-68831530D01*
X64394796Y-68595918D01*
X63640213Y-67841335D01*
X62885630Y-68595918D01*
X61035000Y-68595918D01*
X61035000Y-67469210D01*
X62294286Y-67469210D01*
X62323065Y-67998929D01*
X62470413Y-68354659D01*
X62706025Y-68416313D01*
X63460608Y-67661730D01*
X62706025Y-66907147D01*
X62470413Y-66968801D01*
X62294286Y-67469210D01*
X61035000Y-67469210D01*
X61035000Y-66727542D01*
X62885630Y-66727542D01*
X63640213Y-67482125D01*
X64394796Y-66727542D01*
X64333142Y-66491930D01*
X63832733Y-66315803D01*
X63303014Y-66344582D01*
X62947284Y-66491930D01*
X62885630Y-66727542D01*
X61035000Y-66727542D01*
X61035000Y-26037348D01*
X61057572Y-25784426D01*
X74709122Y-25784426D01*
X74897579Y-26127611D01*
X75773379Y-26476795D01*
X76716140Y-26464244D01*
X77528847Y-26127611D01*
X77717304Y-25784426D01*
X76213213Y-24280335D01*
X74709122Y-25784426D01*
X61057572Y-25784426D01*
X61106842Y-25232372D01*
X61311723Y-24483453D01*
X61645986Y-23782658D01*
X61733480Y-23660896D01*
X73837148Y-23660896D01*
X73849699Y-24603657D01*
X74186332Y-25416364D01*
X74529517Y-25604821D01*
X76033608Y-24100730D01*
X76392818Y-24100730D01*
X77896909Y-25604821D01*
X78240094Y-25416364D01*
X78589278Y-24540564D01*
X78576727Y-23597803D01*
X78240094Y-22785096D01*
X77896909Y-22596639D01*
X76392818Y-24100730D01*
X76033608Y-24100730D01*
X74529517Y-22596639D01*
X74186332Y-22785096D01*
X73837148Y-23660896D01*
X61733480Y-23660896D01*
X62099069Y-23152125D01*
X62656645Y-22611796D01*
X62946481Y-22417034D01*
X74709122Y-22417034D01*
X76213213Y-23921125D01*
X77717304Y-22417034D01*
X77528847Y-22073849D01*
X76653047Y-21724665D01*
X75710286Y-21737216D01*
X74897579Y-22073849D01*
X74709122Y-22417034D01*
X62946481Y-22417034D01*
X63301099Y-22178741D01*
X64012044Y-21866657D01*
X64772493Y-21684090D01*
X65456999Y-21633823D01*
X65581570Y-21613424D01*
X65600418Y-21606750D01*
X83538655Y-21635262D01*
X83538655Y-21635262D01*
G37*
X83538655Y-21635262D02*
X96517963Y-34614572D01*
X96643119Y-34801881D01*
X96755000Y-34876638D01*
X96755000Y-34943295D01*
X96625095Y-35030095D01*
X96462646Y-35273217D01*
X96405601Y-35560000D01*
X96445000Y-35758071D01*
X96445001Y-76130069D01*
X96431091Y-76200000D01*
X96486195Y-76477028D01*
X96643119Y-76711881D01*
X96755000Y-76786638D01*
X96755000Y-76883362D01*
X96643119Y-76958119D01*
X96642965Y-76958350D01*
X96642739Y-76958501D01*
X96564987Y-77075052D01*
X96486195Y-77192972D01*
X96486141Y-77193242D01*
X96485989Y-77193470D01*
X96458745Y-77330975D01*
X96431091Y-77470000D01*
X96445053Y-77540192D01*
X96458154Y-95140962D01*
X96363153Y-95557044D01*
X96169864Y-95922698D01*
X95888518Y-96225871D01*
X95538294Y-96445895D01*
X95143060Y-96567776D01*
X94729745Y-96583209D01*
X94306870Y-96486657D01*
X63565285Y-78505731D01*
X78637347Y-78505731D01*
X91198425Y-91066810D01*
X90988213Y-91574308D01*
X90988213Y-92517152D01*
X91349024Y-93388227D01*
X92015716Y-94054919D01*
X92886791Y-94415730D01*
X93829635Y-94415730D01*
X94700710Y-94054919D01*
X95367402Y-93388227D01*
X95728213Y-92517152D01*
X95728213Y-91574308D01*
X95367402Y-90703233D01*
X94700710Y-90036541D01*
X94193213Y-89826329D01*
X94193213Y-76900450D01*
X94209571Y-76818213D01*
X94174673Y-76642768D01*
X94144765Y-76492412D01*
X93960214Y-76216212D01*
X93890496Y-76169628D01*
X89973587Y-72252720D01*
X89927001Y-72182999D01*
X89650801Y-71998448D01*
X89473702Y-71963221D01*
X89382809Y-71827191D01*
X89172765Y-71686843D01*
X88960000Y-71644522D01*
X88960000Y-67857232D01*
X88976357Y-67774999D01*
X88960000Y-67692764D01*
X88960000Y-67692763D01*
X88911552Y-67449199D01*
X88727001Y-67172999D01*
X88657283Y-67126415D01*
X76003587Y-54472720D01*
X75957001Y-54402999D01*
X75680801Y-54218448D01*
X75503702Y-54183221D01*
X75412809Y-54047191D01*
X75401340Y-54039527D01*
X82237284Y-47203584D01*
X82307002Y-47157000D01*
X82491553Y-46880800D01*
X82540001Y-46637236D01*
X82556359Y-46554999D01*
X82540001Y-46472762D01*
X82540001Y-39477238D01*
X82556359Y-39395001D01*
X82534914Y-39287191D01*
X82491553Y-39069200D01*
X82307002Y-38793000D01*
X82237284Y-38746416D01*
X81952440Y-38461572D01*
X81952440Y-37995000D01*
X81903157Y-37747235D01*
X81762809Y-37537191D01*
X81552765Y-37396843D01*
X81305000Y-37347560D01*
X80565000Y-37347560D01*
X80565000Y-37189926D01*
X80578909Y-37120000D01*
X80523805Y-36842972D01*
X80366881Y-36608119D01*
X80132028Y-36451195D01*
X79924926Y-36410000D01*
X79924925Y-36410000D01*
X79855000Y-36396091D01*
X79785074Y-36410000D01*
X76424925Y-36410000D01*
X76355000Y-36396091D01*
X76285074Y-36410000D01*
X76077972Y-36451195D01*
X75843119Y-36608119D01*
X75686195Y-36842972D01*
X75631091Y-37120000D01*
X75645000Y-37189926D01*
X75645000Y-37347560D01*
X74905000Y-37347560D01*
X74657235Y-37396843D01*
X74447191Y-37537191D01*
X74306843Y-37747235D01*
X74257560Y-37995000D01*
X74257560Y-38995000D01*
X74306843Y-39242765D01*
X74387900Y-39364074D01*
X74366673Y-39385301D01*
X74270000Y-39618690D01*
X74270000Y-39959250D01*
X74428750Y-40118000D01*
X75578000Y-40118000D01*
X75578000Y-40098000D01*
X75645001Y-40098000D01*
X75645001Y-40392000D01*
X75578000Y-40392000D01*
X75578000Y-40372000D01*
X74428750Y-40372000D01*
X74270000Y-40530750D01*
X74270000Y-40871310D01*
X74366673Y-41104699D01*
X74545302Y-41283327D01*
X74778691Y-41380000D01*
X75419250Y-41380000D01*
X75577998Y-41221252D01*
X75577998Y-41380000D01*
X75645001Y-41380000D01*
X75645001Y-41550069D01*
X75631091Y-41620000D01*
X75686195Y-41897028D01*
X75843119Y-42131881D01*
X76077972Y-42288805D01*
X76285074Y-42330000D01*
X76285075Y-42330000D01*
X76355000Y-42343909D01*
X76424926Y-42330000D01*
X79505198Y-42330000D01*
X68870530Y-52964669D01*
X68807071Y-53007071D01*
X68639096Y-53258464D01*
X68595000Y-53480149D01*
X68595000Y-53480153D01*
X68580112Y-53555000D01*
X68595000Y-53629847D01*
X68595000Y-53857560D01*
X68555000Y-53857560D01*
X68307235Y-53906843D01*
X68097191Y-54047191D01*
X67956843Y-54257235D01*
X67907560Y-54505000D01*
X67907560Y-55505000D01*
X67956843Y-55752765D01*
X68037900Y-55874074D01*
X68016673Y-55895301D01*
X67920000Y-56128690D01*
X67920000Y-56469250D01*
X68078750Y-56628000D01*
X69228000Y-56628000D01*
X69228000Y-56608000D01*
X69295001Y-56608000D01*
X69295001Y-56902000D01*
X69228000Y-56902000D01*
X69228000Y-56882000D01*
X68078750Y-56882000D01*
X67920000Y-57040750D01*
X67920000Y-57381310D01*
X68016673Y-57614699D01*
X68195302Y-57793327D01*
X68428691Y-57890000D01*
X69069250Y-57890000D01*
X69227998Y-57731252D01*
X69227998Y-57890000D01*
X69295001Y-57890000D01*
X69295001Y-58060069D01*
X69281091Y-58130000D01*
X69336195Y-58407028D01*
X69493119Y-58641881D01*
X69727972Y-58798805D01*
X69935074Y-58840000D01*
X69935075Y-58840000D01*
X70005000Y-58853909D01*
X70074926Y-58840000D01*
X73435075Y-58840000D01*
X73505000Y-58853909D01*
X73782028Y-58798805D01*
X74016881Y-58641881D01*
X74173805Y-58407028D01*
X74215000Y-58199926D01*
X74228909Y-58130000D01*
X74215000Y-58060074D01*
X74215000Y-57902440D01*
X74527639Y-57902440D01*
X82565001Y-65939804D01*
X82565000Y-71637560D01*
X82525000Y-71637560D01*
X82277235Y-71686843D01*
X82067191Y-71827191D01*
X81926843Y-72037235D01*
X81877560Y-72285000D01*
X81877560Y-73285000D01*
X81926843Y-73532765D01*
X82007900Y-73654074D01*
X81986673Y-73675301D01*
X81890000Y-73908690D01*
X81890000Y-74249250D01*
X82048750Y-74408000D01*
X83198000Y-74408000D01*
X83198000Y-74388000D01*
X83265001Y-74388000D01*
X83265001Y-74682000D01*
X83198000Y-74682000D01*
X83198000Y-74662000D01*
X82048750Y-74662000D01*
X81935020Y-74775730D01*
X66398680Y-74775730D01*
X66157402Y-74193233D01*
X65490710Y-73526541D01*
X64619635Y-73165730D01*
X63676791Y-73165730D01*
X63171981Y-73374829D01*
X67551581Y-68995230D01*
X67969463Y-68995230D01*
X68459580Y-68792217D01*
X68834700Y-68417097D01*
X69037713Y-67926980D01*
X69037713Y-67396480D01*
X68834700Y-66906363D01*
X68459580Y-66531243D01*
X67969463Y-66328230D01*
X67438963Y-66328230D01*
X66948846Y-66531243D01*
X66688213Y-66791876D01*
X66427580Y-66531243D01*
X65937463Y-66328230D01*
X65406963Y-66328230D01*
X64916846Y-66531243D01*
X64541726Y-66906363D01*
X64518067Y-66963481D01*
X63819818Y-67661730D01*
X64518067Y-68359979D01*
X64541726Y-68417097D01*
X64916846Y-68792217D01*
X65253438Y-68931638D01*
X61480930Y-72704146D01*
X61411212Y-72750730D01*
X61364628Y-72820448D01*
X61226660Y-73026931D01*
X61161855Y-73352731D01*
X61178213Y-73434969D01*
X61178212Y-76478298D01*
X61161855Y-76560531D01*
X61178212Y-76642764D01*
X61178212Y-76642767D01*
X61226660Y-76886331D01*
X61411211Y-77162532D01*
X61480932Y-77209118D01*
X61667548Y-77395734D01*
X61035000Y-77025753D01*
X61035000Y-68595918D01*
X62885630Y-68595918D01*
X62947284Y-68831530D01*
X63447693Y-69007657D01*
X63977412Y-68978878D01*
X64333142Y-68831530D01*
X64394796Y-68595918D01*
X63640213Y-67841335D01*
X62885630Y-68595918D01*
X61035000Y-68595918D01*
X61035000Y-67469210D01*
X62294286Y-67469210D01*
X62323065Y-67998929D01*
X62470413Y-68354659D01*
X62706025Y-68416313D01*
X63460608Y-67661730D01*
X62706025Y-66907147D01*
X62470413Y-66968801D01*
X62294286Y-67469210D01*
X61035000Y-67469210D01*
X61035000Y-66727542D01*
X62885630Y-66727542D01*
X63640213Y-67482125D01*
X64394796Y-66727542D01*
X64333142Y-66491930D01*
X63832733Y-66315803D01*
X63303014Y-66344582D01*
X62947284Y-66491930D01*
X62885630Y-66727542D01*
X61035000Y-66727542D01*
X61035000Y-26037348D01*
X61057572Y-25784426D01*
X74709122Y-25784426D01*
X74897579Y-26127611D01*
X75773379Y-26476795D01*
X76716140Y-26464244D01*
X77528847Y-26127611D01*
X77717304Y-25784426D01*
X76213213Y-24280335D01*
X74709122Y-25784426D01*
X61057572Y-25784426D01*
X61106842Y-25232372D01*
X61311723Y-24483453D01*
X61645986Y-23782658D01*
X61733480Y-23660896D01*
X73837148Y-23660896D01*
X73849699Y-24603657D01*
X74186332Y-25416364D01*
X74529517Y-25604821D01*
X76033608Y-24100730D01*
X76392818Y-24100730D01*
X77896909Y-25604821D01*
X78240094Y-25416364D01*
X78589278Y-24540564D01*
X78576727Y-23597803D01*
X78240094Y-22785096D01*
X77896909Y-22596639D01*
X76392818Y-24100730D01*
X76033608Y-24100730D01*
X74529517Y-22596639D01*
X74186332Y-22785096D01*
X73837148Y-23660896D01*
X61733480Y-23660896D01*
X62099069Y-23152125D01*
X62656645Y-22611796D01*
X62946481Y-22417034D01*
X74709122Y-22417034D01*
X76213213Y-23921125D01*
X77717304Y-22417034D01*
X77528847Y-22073849D01*
X76653047Y-21724665D01*
X75710286Y-21737216D01*
X74897579Y-22073849D01*
X74709122Y-22417034D01*
X62946481Y-22417034D01*
X63301099Y-22178741D01*
X64012044Y-21866657D01*
X64772493Y-21684090D01*
X65456999Y-21633823D01*
X65581570Y-21613424D01*
X65600418Y-21606750D01*
X83538655Y-21635262D01*
G36*
X132528213Y-77164081D02*
X132528214Y-89509829D01*
X132528213Y-89509834D01*
X132528213Y-89826329D01*
X132384293Y-89885942D01*
X119636801Y-77138451D01*
X119590215Y-77068730D01*
X119314015Y-76884179D01*
X119070451Y-76835731D01*
X119070447Y-76835731D01*
X118988214Y-76819374D01*
X118905981Y-76835731D01*
X106180004Y-76835731D01*
X106403680Y-76295730D01*
X122210929Y-76295730D01*
X122599671Y-76684473D01*
X122642071Y-76747929D01*
X122893463Y-76915904D01*
X123115148Y-76960000D01*
X123115152Y-76960000D01*
X123190000Y-76974888D01*
X123264848Y-76960000D01*
X127560153Y-76960000D01*
X127635000Y-76974888D01*
X127709847Y-76960000D01*
X127709852Y-76960000D01*
X127931537Y-76915904D01*
X128182929Y-76747929D01*
X128225331Y-76684471D01*
X128614472Y-76295329D01*
X128677929Y-76252929D01*
X128825776Y-76031661D01*
X128845904Y-76001538D01*
X128855480Y-75953395D01*
X128890000Y-75779852D01*
X128890000Y-75779848D01*
X128904888Y-75705000D01*
X128900401Y-75682440D01*
X128930000Y-75682440D01*
X129177765Y-75633157D01*
X129387809Y-75492809D01*
X129528157Y-75282765D01*
X129577440Y-75035000D01*
X129577440Y-74213307D01*
X132528213Y-77164081D01*
X132528213Y-77164081D01*
G37*
X132528213Y-77164081D02*
X132528214Y-89509829D01*
X132528213Y-89509834D01*
X132528213Y-89826329D01*
X132384293Y-89885942D01*
X119636801Y-77138451D01*
X119590215Y-77068730D01*
X119314015Y-76884179D01*
X119070451Y-76835731D01*
X119070447Y-76835731D01*
X118988214Y-76819374D01*
X118905981Y-76835731D01*
X106180004Y-76835731D01*
X106403680Y-76295730D01*
X122210929Y-76295730D01*
X122599671Y-76684473D01*
X122642071Y-76747929D01*
X122893463Y-76915904D01*
X123115148Y-76960000D01*
X123115152Y-76960000D01*
X123190000Y-76974888D01*
X123264848Y-76960000D01*
X127560153Y-76960000D01*
X127635000Y-76974888D01*
X127709847Y-76960000D01*
X127709852Y-76960000D01*
X127931537Y-76915904D01*
X128182929Y-76747929D01*
X128225331Y-76684471D01*
X128614472Y-76295329D01*
X128677929Y-76252929D01*
X128825776Y-76031661D01*
X128845904Y-76001538D01*
X128855480Y-75953395D01*
X128890000Y-75779852D01*
X128890000Y-75779848D01*
X128904888Y-75705000D01*
X128900401Y-75682440D01*
X128930000Y-75682440D01*
X129177765Y-75633157D01*
X129387809Y-75492809D01*
X129528157Y-75282765D01*
X129577440Y-75035000D01*
X129577440Y-74213307D01*
X132528213Y-77164081D01*
G36*
X92523213Y-77164081D02*
X92523214Y-89509829D01*
X92523213Y-89509834D01*
X92523213Y-89826329D01*
X92379293Y-89885942D01*
X79631801Y-77138451D01*
X79585215Y-77068730D01*
X79309015Y-76884179D01*
X79065451Y-76835731D01*
X79065447Y-76835731D01*
X78983214Y-76819374D01*
X78900981Y-76835731D01*
X66175004Y-76835731D01*
X66398680Y-76295730D01*
X82205929Y-76295730D01*
X82594671Y-76684473D01*
X82637071Y-76747929D01*
X82888463Y-76915904D01*
X83110148Y-76960000D01*
X83110152Y-76960000D01*
X83185000Y-76974888D01*
X83259848Y-76960000D01*
X87555153Y-76960000D01*
X87630000Y-76974888D01*
X87704847Y-76960000D01*
X87704852Y-76960000D01*
X87926537Y-76915904D01*
X88177929Y-76747929D01*
X88220331Y-76684471D01*
X88609472Y-76295329D01*
X88672929Y-76252929D01*
X88820776Y-76031661D01*
X88840904Y-76001538D01*
X88850480Y-75953395D01*
X88885000Y-75779852D01*
X88885000Y-75779848D01*
X88899888Y-75705000D01*
X88895401Y-75682440D01*
X88925000Y-75682440D01*
X89172765Y-75633157D01*
X89382809Y-75492809D01*
X89523157Y-75282765D01*
X89572440Y-75035000D01*
X89572440Y-74213307D01*
X92523213Y-77164081D01*
X92523213Y-77164081D01*
G37*
X92523213Y-77164081D02*
X92523214Y-89509829D01*
X92523213Y-89509834D01*
X92523213Y-89826329D01*
X92379293Y-89885942D01*
X79631801Y-77138451D01*
X79585215Y-77068730D01*
X79309015Y-76884179D01*
X79065451Y-76835731D01*
X79065447Y-76835731D01*
X78983214Y-76819374D01*
X78900981Y-76835731D01*
X66175004Y-76835731D01*
X66398680Y-76295730D01*
X82205929Y-76295730D01*
X82594671Y-76684473D01*
X82637071Y-76747929D01*
X82888463Y-76915904D01*
X83110148Y-76960000D01*
X83110152Y-76960000D01*
X83185000Y-76974888D01*
X83259848Y-76960000D01*
X87555153Y-76960000D01*
X87630000Y-76974888D01*
X87704847Y-76960000D01*
X87704852Y-76960000D01*
X87926537Y-76915904D01*
X88177929Y-76747929D01*
X88220331Y-76684471D01*
X88609472Y-76295329D01*
X88672929Y-76252929D01*
X88820776Y-76031661D01*
X88840904Y-76001538D01*
X88850480Y-75953395D01*
X88885000Y-75779852D01*
X88885000Y-75779848D01*
X88899888Y-75705000D01*
X88895401Y-75682440D01*
X88925000Y-75682440D01*
X89172765Y-75633157D01*
X89382809Y-75492809D01*
X89523157Y-75282765D01*
X89572440Y-75035000D01*
X89572440Y-74213307D01*
X92523213Y-77164081D01*
G36*
X127295000Y-68120868D02*
X127295001Y-70700000D01*
X124090000Y-70700000D01*
X124090000Y-65699846D01*
X124104888Y-65624999D01*
X124090000Y-65550152D01*
X124090000Y-65550148D01*
X124045904Y-65328463D01*
X124004102Y-65265902D01*
X123920329Y-65140526D01*
X123920327Y-65140524D01*
X123877929Y-65077071D01*
X123814476Y-65034673D01*
X115607440Y-56827639D01*
X115607440Y-56433307D01*
X127295000Y-68120868D01*
X127295000Y-68120868D01*
G37*
X127295000Y-68120868D02*
X127295001Y-70700000D01*
X124090000Y-70700000D01*
X124090000Y-65699846D01*
X124104888Y-65624999D01*
X124090000Y-65550152D01*
X124090000Y-65550148D01*
X124045904Y-65328463D01*
X124004102Y-65265902D01*
X123920329Y-65140526D01*
X123920327Y-65140524D01*
X123877929Y-65077071D01*
X123814476Y-65034673D01*
X115607440Y-56827639D01*
X115607440Y-56433307D01*
X127295000Y-68120868D01*
G36*
X87290000Y-68120868D02*
X87290001Y-70700000D01*
X84085000Y-70700000D01*
X84085000Y-65699846D01*
X84099888Y-65624999D01*
X84085000Y-65550152D01*
X84085000Y-65550148D01*
X84040904Y-65328463D01*
X83999102Y-65265902D01*
X83915329Y-65140526D01*
X83915327Y-65140524D01*
X83872929Y-65077071D01*
X83809476Y-65034673D01*
X75602440Y-56827639D01*
X75602440Y-56433307D01*
X87290000Y-68120868D01*
X87290000Y-68120868D01*
G37*
X87290000Y-68120868D02*
X87290001Y-70700000D01*
X84085000Y-70700000D01*
X84085000Y-65699846D01*
X84099888Y-65624999D01*
X84085000Y-65550152D01*
X84085000Y-65550148D01*
X84040904Y-65328463D01*
X83999102Y-65265902D01*
X83915329Y-65140526D01*
X83915327Y-65140524D01*
X83872929Y-65077071D01*
X83809476Y-65034673D01*
X75602440Y-56827639D01*
X75602440Y-56433307D01*
X87290000Y-68120868D01*
G36*
X80870002Y-46209130D02*
X73983391Y-53095742D01*
X73782028Y-52961195D01*
X73574926Y-52920000D01*
X73574925Y-52920000D01*
X73505000Y-52906091D01*
X73435074Y-52920000D01*
X71064801Y-52920000D01*
X80870002Y-43114800D01*
X80870002Y-46209130D01*
X80870002Y-46209130D01*
G37*
X80870002Y-46209130D02*
X73983391Y-53095742D01*
X73782028Y-52961195D01*
X73574926Y-52920000D01*
X73574925Y-52920000D01*
X73505000Y-52906091D01*
X73435074Y-52920000D01*
X71064801Y-52920000D01*
X80870002Y-43114800D01*
X80870002Y-46209130D01*
G36*
X120875002Y-46209130D02*
X113988391Y-53095742D01*
X113787028Y-52961195D01*
X113579926Y-52920000D01*
X113579925Y-52920000D01*
X113510000Y-52906091D01*
X113440074Y-52920000D01*
X111069801Y-52920000D01*
X120875002Y-43114800D01*
X120875002Y-46209130D01*
X120875002Y-46209130D01*
G37*
X120875002Y-46209130D02*
X113988391Y-53095742D01*
X113787028Y-52961195D01*
X113579926Y-52920000D01*
X113579925Y-52920000D01*
X113510000Y-52906091D01*
X113440074Y-52920000D01*
X111069801Y-52920000D01*
X120875002Y-43114800D01*
X120875002Y-46209130D01*
G04 #@! TD*
M02*
