G04 #@! TF.GenerationSoftware,KiCad,Pcbnew,5.0.2-bee76a0~70~ubuntu18.04.1*
G04 #@! TF.CreationDate,2019-07-23T02:31:20+09:00*
G04 #@! TF.ProjectId,shieldL,73686965-6c64-44c2-9e6b-696361645f70,rev?*
G04 #@! TF.SameCoordinates,Original*
G04 #@! TF.FileFunction,Profile,NP*
%FSLAX46Y46*%
G04 Gerber Fmt 4.6, Leading zero omitted, Abs format (unit mm)*
G04 Created by KiCad (PCBNEW 5.0.2-bee76a0~70~ubuntu18.04.1) date 2019年07月23日 02時31分20秒*
%MOMM*%
%LPD*%
G01*
G04 APERTURE LIST*
%ADD10C,0.150000*%
%ADD11C,0.200000*%
G04 #@! TA.AperFunction,NonConductor*
%ADD12C,0.150000*%
G04 #@! TD*
G04 APERTURE END LIST*
D10*
X99695000Y-160655000D02*
X97155000Y-160655000D01*
X97155000Y-161925000D02*
X99695000Y-161925000D01*
X97155000Y-160655000D02*
X97155000Y-120015000D01*
D11*
X97155000Y-120015000D02*
X99695000Y-120015000D01*
X97155000Y-118745000D02*
X99695000Y-118745000D01*
D10*
X99695000Y-120015000D02*
X99695000Y-160655000D01*
X136725029Y-183695054D02*
G75*
G03X140911368Y-181303804I757339J3534250D01*
G01*
X140916029Y-181282055D02*
X140916029Y-118671055D01*
X140916029Y-118671055D02*
X127581029Y-105336055D01*
X99695000Y-161925000D02*
X136725029Y-183695055D01*
X99641029Y-110416055D02*
X99695000Y-118745000D01*
X104721029Y-105336055D02*
G75*
G03X99641029Y-110416055I0J-5080000D01*
G01*
X127581029Y-105336055D02*
X104721029Y-105336055D01*
X97155000Y-118745000D02*
X83766029Y-105336055D01*
X83766029Y-105336055D02*
X60906029Y-105336055D01*
X55826029Y-110416055D02*
X55826029Y-161851055D01*
X60906029Y-105336055D02*
G75*
G03X55826029Y-110416055I0J-5080000D01*
G01*
X55826029Y-161851055D02*
X92910029Y-183695055D01*
X92910029Y-183695054D02*
G75*
G03X97096368Y-181303804I757339J3534250D01*
G01*
X97101029Y-181282055D02*
X97155000Y-161925000D01*
D12*
G04 #@! TO.C,L4*
X131925000Y-165445000D02*
X131925000Y-160945000D01*
X128425000Y-165445000D02*
X128425000Y-160945000D01*
X131925000Y-165445000D02*
X128425000Y-165445000D01*
X128425000Y-160945000D02*
X131925000Y-160945000D01*
G04 #@! TO.C,L3*
X112875000Y-147030000D02*
X112875000Y-142530000D01*
X109375000Y-147030000D02*
X109375000Y-142530000D01*
X112875000Y-147030000D02*
X109375000Y-147030000D01*
X109375000Y-142530000D02*
X112875000Y-142530000D01*
G04 #@! TO.C,L1*
X112821029Y-120921055D02*
X112821029Y-116421055D01*
X109321029Y-120921055D02*
X109321029Y-116421055D01*
X112821029Y-120921055D02*
X109321029Y-120921055D01*
X109321029Y-116421055D02*
X112821029Y-116421055D01*
G04 #@! TO.C,L2*
X131925000Y-134965000D02*
X131925000Y-130465000D01*
X128425000Y-134965000D02*
X128425000Y-130465000D01*
X131925000Y-134965000D02*
X128425000Y-134965000D01*
X128425000Y-130465000D02*
X131925000Y-130465000D01*
G04 #@! TO.C,L3*
X65560000Y-142530000D02*
X69060000Y-142530000D01*
X69060000Y-147030000D02*
X65560000Y-147030000D01*
X65560000Y-147030000D02*
X65560000Y-142530000D01*
X69060000Y-147030000D02*
X69060000Y-142530000D01*
G04 #@! TO.C,L4*
X84610000Y-160945000D02*
X88110000Y-160945000D01*
X88110000Y-165445000D02*
X84610000Y-165445000D01*
X84610000Y-165445000D02*
X84610000Y-160945000D01*
X88110000Y-165445000D02*
X88110000Y-160945000D01*
G04 #@! TO.C,L2*
X84610000Y-130465000D02*
X88110000Y-130465000D01*
X88110000Y-134965000D02*
X84610000Y-134965000D01*
X84610000Y-134965000D02*
X84610000Y-130465000D01*
X88110000Y-134965000D02*
X88110000Y-130465000D01*
G04 #@! TO.C,L1*
X65506029Y-116421055D02*
X69006029Y-116421055D01*
X69006029Y-120921055D02*
X65506029Y-120921055D01*
X65506029Y-120921055D02*
X65506029Y-116421055D01*
X69006029Y-120921055D02*
X69006029Y-116421055D01*
G04 #@! TD*
M02*
