G04 #@! TF.GenerationSoftware,KiCad,Pcbnew,5.0.2-bee76a0~70~ubuntu18.04.1*
G04 #@! TF.CreationDate,2019-07-23T02:31:20+09:00*
G04 #@! TF.ProjectId,shieldL,73686965-6c64-44c2-9e6b-696361645f70,rev?*
G04 #@! TF.SameCoordinates,Original*
G04 #@! TF.FileFunction,Copper,L1,Top*
G04 #@! TF.FilePolarity,Positive*
%FSLAX46Y46*%
G04 Gerber Fmt 4.6, Leading zero omitted, Abs format (unit mm)*
G04 Created by KiCad (PCBNEW 5.0.2-bee76a0~70~ubuntu18.04.1) date 2019年07月23日 02時31分20秒*
%MOMM*%
%LPD*%
G01*
G04 APERTURE LIST*
G04 #@! TA.AperFunction,ComponentPad*
%ADD10C,3.470000*%
G04 #@! TD*
G04 #@! TA.AperFunction,ViaPad*
%ADD11C,0.800000*%
G04 #@! TD*
G04 #@! TA.AperFunction,Conductor*
%ADD12C,0.254000*%
G04 #@! TD*
G04 APERTURE END LIST*
D10*
G04 #@! TO.P,J5,1*
G04 #@! TO.N,GND*
X115516029Y-109146055D03*
G04 #@! TD*
G04 #@! TO.P,J3,1*
G04 #@! TO.N,LED*
X103451029Y-159946055D03*
G04 #@! TD*
G04 #@! TO.P,J4,1*
G04 #@! TO.N,VCC*
X137106029Y-177726055D03*
G04 #@! TD*
G04 #@! TO.P,J3,1*
G04 #@! TO.N,LED*
X59636029Y-159946055D03*
G04 #@! TD*
G04 #@! TO.P,J5,1*
G04 #@! TO.N,GND*
X71701029Y-109146055D03*
G04 #@! TD*
G04 #@! TO.P,J4,1*
G04 #@! TO.N,VCC*
X93291029Y-177726055D03*
G04 #@! TD*
D11*
G04 #@! TO.N,GND*
X74930000Y-133985000D03*
X73025000Y-127000000D03*
X118745000Y-133985000D03*
X116840000Y-127000000D03*
G04 #@! TD*
D12*
G04 #@! TO.N,GND*
G36*
X96512475Y-119106357D02*
X96625095Y-119274905D01*
X96782381Y-119380000D01*
X96625095Y-119485095D01*
X96462646Y-119728217D01*
X96405601Y-120015000D01*
X96445001Y-120213076D01*
X96445000Y-160585074D01*
X96431091Y-160655000D01*
X96486195Y-160932028D01*
X96643119Y-161166881D01*
X96827379Y-161290000D01*
X96761035Y-161334330D01*
X96644549Y-161411695D01*
X96643977Y-161412546D01*
X96643119Y-161413119D01*
X96564954Y-161530101D01*
X96486971Y-161646109D01*
X96486768Y-161647114D01*
X96486195Y-161647972D01*
X96458798Y-161785706D01*
X96445198Y-161853095D01*
X96445195Y-161854093D01*
X96431091Y-161925000D01*
X96444805Y-161993947D01*
X96391425Y-181138939D01*
X96168258Y-181630114D01*
X95808119Y-182117971D01*
X95354418Y-182520292D01*
X94826988Y-182819488D01*
X94248879Y-183002487D01*
X93644287Y-183061396D01*
X93139035Y-183005930D01*
X83375205Y-177254633D01*
X90921029Y-177254633D01*
X90921029Y-178197477D01*
X91281840Y-179068552D01*
X91948532Y-179735244D01*
X92819607Y-180096055D01*
X93762451Y-180096055D01*
X94633526Y-179735244D01*
X95300218Y-179068552D01*
X95661029Y-178197477D01*
X95661029Y-177254633D01*
X95300218Y-176383558D01*
X94633526Y-175716866D01*
X93762451Y-175356055D01*
X92819607Y-175356055D01*
X91948532Y-175716866D01*
X91281840Y-176383558D01*
X90921029Y-177254633D01*
X83375205Y-177254633D01*
X56536029Y-161445256D01*
X56536029Y-159474633D01*
X57266029Y-159474633D01*
X57266029Y-160417477D01*
X57626840Y-161288552D01*
X58293532Y-161955244D01*
X59164607Y-162316055D01*
X60107451Y-162316055D01*
X60978526Y-161955244D01*
X61645218Y-161288552D01*
X61787521Y-160945000D01*
X83886091Y-160945000D01*
X83900001Y-161014931D01*
X83900000Y-165375074D01*
X83886091Y-165445000D01*
X83941195Y-165722028D01*
X84098119Y-165956881D01*
X84332972Y-166113805D01*
X84610000Y-166168909D01*
X84679925Y-166155000D01*
X88040074Y-166155000D01*
X88110000Y-166168909D01*
X88179925Y-166155000D01*
X88179926Y-166155000D01*
X88387028Y-166113805D01*
X88621881Y-165956881D01*
X88778805Y-165722028D01*
X88833909Y-165445000D01*
X88820000Y-165375074D01*
X88820000Y-161014926D01*
X88833909Y-160945000D01*
X88778805Y-160667972D01*
X88621881Y-160433119D01*
X88387028Y-160276195D01*
X88179926Y-160235000D01*
X88110000Y-160221091D01*
X88040075Y-160235000D01*
X84679926Y-160235000D01*
X84610000Y-160221091D01*
X84540075Y-160235000D01*
X84540074Y-160235000D01*
X84332972Y-160276195D01*
X84098119Y-160433119D01*
X83941195Y-160667972D01*
X83886091Y-160945000D01*
X61787521Y-160945000D01*
X62006029Y-160417477D01*
X62006029Y-159474633D01*
X61645218Y-158603558D01*
X60978526Y-157936866D01*
X60107451Y-157576055D01*
X59164607Y-157576055D01*
X58293532Y-157936866D01*
X57626840Y-158603558D01*
X57266029Y-159474633D01*
X56536029Y-159474633D01*
X56536029Y-142530000D01*
X64836091Y-142530000D01*
X64850001Y-142599931D01*
X64850000Y-146960074D01*
X64836091Y-147030000D01*
X64891195Y-147307028D01*
X65048119Y-147541881D01*
X65282972Y-147698805D01*
X65560000Y-147753909D01*
X65629925Y-147740000D01*
X68990074Y-147740000D01*
X69060000Y-147753909D01*
X69129925Y-147740000D01*
X69129926Y-147740000D01*
X69337028Y-147698805D01*
X69571881Y-147541881D01*
X69728805Y-147307028D01*
X69783909Y-147030000D01*
X69770000Y-146960074D01*
X69770000Y-142599926D01*
X69783909Y-142530000D01*
X69728805Y-142252972D01*
X69571881Y-142018119D01*
X69337028Y-141861195D01*
X69129926Y-141820000D01*
X69060000Y-141806091D01*
X68990075Y-141820000D01*
X65629926Y-141820000D01*
X65560000Y-141806091D01*
X65490075Y-141820000D01*
X65490074Y-141820000D01*
X65282972Y-141861195D01*
X65048119Y-142018119D01*
X64891195Y-142252972D01*
X64836091Y-142530000D01*
X56536029Y-142530000D01*
X56536029Y-130465000D01*
X83886091Y-130465000D01*
X83900001Y-130534931D01*
X83900000Y-134895074D01*
X83886091Y-134965000D01*
X83941195Y-135242028D01*
X84098119Y-135476881D01*
X84332972Y-135633805D01*
X84610000Y-135688909D01*
X84679925Y-135675000D01*
X88040074Y-135675000D01*
X88110000Y-135688909D01*
X88179925Y-135675000D01*
X88179926Y-135675000D01*
X88387028Y-135633805D01*
X88621881Y-135476881D01*
X88778805Y-135242028D01*
X88833909Y-134965000D01*
X88820000Y-134895074D01*
X88820000Y-130534926D01*
X88833909Y-130465000D01*
X88778805Y-130187972D01*
X88621881Y-129953119D01*
X88387028Y-129796195D01*
X88179926Y-129755000D01*
X88110000Y-129741091D01*
X88040075Y-129755000D01*
X84679926Y-129755000D01*
X84610000Y-129741091D01*
X84540075Y-129755000D01*
X84540074Y-129755000D01*
X84332972Y-129796195D01*
X84098119Y-129953119D01*
X83941195Y-130187972D01*
X83886091Y-130465000D01*
X56536029Y-130465000D01*
X56536029Y-116421055D01*
X64782120Y-116421055D01*
X64796030Y-116490986D01*
X64796029Y-120851129D01*
X64782120Y-120921055D01*
X64837224Y-121198083D01*
X64994148Y-121432936D01*
X65229001Y-121589860D01*
X65506029Y-121644964D01*
X65575954Y-121631055D01*
X68936103Y-121631055D01*
X69006029Y-121644964D01*
X69075954Y-121631055D01*
X69075955Y-121631055D01*
X69283057Y-121589860D01*
X69517910Y-121432936D01*
X69674834Y-121198083D01*
X69729938Y-120921055D01*
X69716029Y-120851129D01*
X69716029Y-116490981D01*
X69729938Y-116421055D01*
X69674834Y-116144027D01*
X69517910Y-115909174D01*
X69283057Y-115752250D01*
X69075955Y-115711055D01*
X69006029Y-115697146D01*
X68936104Y-115711055D01*
X65575955Y-115711055D01*
X65506029Y-115697146D01*
X65436104Y-115711055D01*
X65436103Y-115711055D01*
X65229001Y-115752250D01*
X64994148Y-115909174D01*
X64837224Y-116144027D01*
X64782120Y-116421055D01*
X56536029Y-116421055D01*
X56536029Y-110829751D01*
X70196938Y-110829751D01*
X70385395Y-111172936D01*
X71261195Y-111522120D01*
X72203956Y-111509569D01*
X73016663Y-111172936D01*
X73205120Y-110829751D01*
X71701029Y-109325660D01*
X70196938Y-110829751D01*
X56536029Y-110829751D01*
X56536029Y-110447673D01*
X56607871Y-109642697D01*
X56812752Y-108893778D01*
X56902212Y-108706221D01*
X69324964Y-108706221D01*
X69337515Y-109648982D01*
X69674148Y-110461689D01*
X70017333Y-110650146D01*
X71521424Y-109146055D01*
X71880634Y-109146055D01*
X73384725Y-110650146D01*
X73727910Y-110461689D01*
X74077094Y-109585889D01*
X74064543Y-108643128D01*
X73727910Y-107830421D01*
X73384725Y-107641964D01*
X71880634Y-109146055D01*
X71521424Y-109146055D01*
X70017333Y-107641964D01*
X69674148Y-107830421D01*
X69324964Y-108706221D01*
X56902212Y-108706221D01*
X57147015Y-108192983D01*
X57600098Y-107562450D01*
X57703383Y-107462359D01*
X70196938Y-107462359D01*
X71701029Y-108966450D01*
X73205120Y-107462359D01*
X73016663Y-107119174D01*
X72140863Y-106769990D01*
X71198102Y-106782541D01*
X70385395Y-107119174D01*
X70196938Y-107462359D01*
X57703383Y-107462359D01*
X58157674Y-107022121D01*
X58802128Y-106589066D01*
X59513073Y-106276982D01*
X60273522Y-106094415D01*
X60932060Y-106046055D01*
X83471628Y-106046055D01*
X96512475Y-119106357D01*
X96512475Y-119106357D01*
G37*
X96512475Y-119106357D02*
X96625095Y-119274905D01*
X96782381Y-119380000D01*
X96625095Y-119485095D01*
X96462646Y-119728217D01*
X96405601Y-120015000D01*
X96445001Y-120213076D01*
X96445000Y-160585074D01*
X96431091Y-160655000D01*
X96486195Y-160932028D01*
X96643119Y-161166881D01*
X96827379Y-161290000D01*
X96761035Y-161334330D01*
X96644549Y-161411695D01*
X96643977Y-161412546D01*
X96643119Y-161413119D01*
X96564954Y-161530101D01*
X96486971Y-161646109D01*
X96486768Y-161647114D01*
X96486195Y-161647972D01*
X96458798Y-161785706D01*
X96445198Y-161853095D01*
X96445195Y-161854093D01*
X96431091Y-161925000D01*
X96444805Y-161993947D01*
X96391425Y-181138939D01*
X96168258Y-181630114D01*
X95808119Y-182117971D01*
X95354418Y-182520292D01*
X94826988Y-182819488D01*
X94248879Y-183002487D01*
X93644287Y-183061396D01*
X93139035Y-183005930D01*
X83375205Y-177254633D01*
X90921029Y-177254633D01*
X90921029Y-178197477D01*
X91281840Y-179068552D01*
X91948532Y-179735244D01*
X92819607Y-180096055D01*
X93762451Y-180096055D01*
X94633526Y-179735244D01*
X95300218Y-179068552D01*
X95661029Y-178197477D01*
X95661029Y-177254633D01*
X95300218Y-176383558D01*
X94633526Y-175716866D01*
X93762451Y-175356055D01*
X92819607Y-175356055D01*
X91948532Y-175716866D01*
X91281840Y-176383558D01*
X90921029Y-177254633D01*
X83375205Y-177254633D01*
X56536029Y-161445256D01*
X56536029Y-159474633D01*
X57266029Y-159474633D01*
X57266029Y-160417477D01*
X57626840Y-161288552D01*
X58293532Y-161955244D01*
X59164607Y-162316055D01*
X60107451Y-162316055D01*
X60978526Y-161955244D01*
X61645218Y-161288552D01*
X61787521Y-160945000D01*
X83886091Y-160945000D01*
X83900001Y-161014931D01*
X83900000Y-165375074D01*
X83886091Y-165445000D01*
X83941195Y-165722028D01*
X84098119Y-165956881D01*
X84332972Y-166113805D01*
X84610000Y-166168909D01*
X84679925Y-166155000D01*
X88040074Y-166155000D01*
X88110000Y-166168909D01*
X88179925Y-166155000D01*
X88179926Y-166155000D01*
X88387028Y-166113805D01*
X88621881Y-165956881D01*
X88778805Y-165722028D01*
X88833909Y-165445000D01*
X88820000Y-165375074D01*
X88820000Y-161014926D01*
X88833909Y-160945000D01*
X88778805Y-160667972D01*
X88621881Y-160433119D01*
X88387028Y-160276195D01*
X88179926Y-160235000D01*
X88110000Y-160221091D01*
X88040075Y-160235000D01*
X84679926Y-160235000D01*
X84610000Y-160221091D01*
X84540075Y-160235000D01*
X84540074Y-160235000D01*
X84332972Y-160276195D01*
X84098119Y-160433119D01*
X83941195Y-160667972D01*
X83886091Y-160945000D01*
X61787521Y-160945000D01*
X62006029Y-160417477D01*
X62006029Y-159474633D01*
X61645218Y-158603558D01*
X60978526Y-157936866D01*
X60107451Y-157576055D01*
X59164607Y-157576055D01*
X58293532Y-157936866D01*
X57626840Y-158603558D01*
X57266029Y-159474633D01*
X56536029Y-159474633D01*
X56536029Y-142530000D01*
X64836091Y-142530000D01*
X64850001Y-142599931D01*
X64850000Y-146960074D01*
X64836091Y-147030000D01*
X64891195Y-147307028D01*
X65048119Y-147541881D01*
X65282972Y-147698805D01*
X65560000Y-147753909D01*
X65629925Y-147740000D01*
X68990074Y-147740000D01*
X69060000Y-147753909D01*
X69129925Y-147740000D01*
X69129926Y-147740000D01*
X69337028Y-147698805D01*
X69571881Y-147541881D01*
X69728805Y-147307028D01*
X69783909Y-147030000D01*
X69770000Y-146960074D01*
X69770000Y-142599926D01*
X69783909Y-142530000D01*
X69728805Y-142252972D01*
X69571881Y-142018119D01*
X69337028Y-141861195D01*
X69129926Y-141820000D01*
X69060000Y-141806091D01*
X68990075Y-141820000D01*
X65629926Y-141820000D01*
X65560000Y-141806091D01*
X65490075Y-141820000D01*
X65490074Y-141820000D01*
X65282972Y-141861195D01*
X65048119Y-142018119D01*
X64891195Y-142252972D01*
X64836091Y-142530000D01*
X56536029Y-142530000D01*
X56536029Y-130465000D01*
X83886091Y-130465000D01*
X83900001Y-130534931D01*
X83900000Y-134895074D01*
X83886091Y-134965000D01*
X83941195Y-135242028D01*
X84098119Y-135476881D01*
X84332972Y-135633805D01*
X84610000Y-135688909D01*
X84679925Y-135675000D01*
X88040074Y-135675000D01*
X88110000Y-135688909D01*
X88179925Y-135675000D01*
X88179926Y-135675000D01*
X88387028Y-135633805D01*
X88621881Y-135476881D01*
X88778805Y-135242028D01*
X88833909Y-134965000D01*
X88820000Y-134895074D01*
X88820000Y-130534926D01*
X88833909Y-130465000D01*
X88778805Y-130187972D01*
X88621881Y-129953119D01*
X88387028Y-129796195D01*
X88179926Y-129755000D01*
X88110000Y-129741091D01*
X88040075Y-129755000D01*
X84679926Y-129755000D01*
X84610000Y-129741091D01*
X84540075Y-129755000D01*
X84540074Y-129755000D01*
X84332972Y-129796195D01*
X84098119Y-129953119D01*
X83941195Y-130187972D01*
X83886091Y-130465000D01*
X56536029Y-130465000D01*
X56536029Y-116421055D01*
X64782120Y-116421055D01*
X64796030Y-116490986D01*
X64796029Y-120851129D01*
X64782120Y-120921055D01*
X64837224Y-121198083D01*
X64994148Y-121432936D01*
X65229001Y-121589860D01*
X65506029Y-121644964D01*
X65575954Y-121631055D01*
X68936103Y-121631055D01*
X69006029Y-121644964D01*
X69075954Y-121631055D01*
X69075955Y-121631055D01*
X69283057Y-121589860D01*
X69517910Y-121432936D01*
X69674834Y-121198083D01*
X69729938Y-120921055D01*
X69716029Y-120851129D01*
X69716029Y-116490981D01*
X69729938Y-116421055D01*
X69674834Y-116144027D01*
X69517910Y-115909174D01*
X69283057Y-115752250D01*
X69075955Y-115711055D01*
X69006029Y-115697146D01*
X68936104Y-115711055D01*
X65575955Y-115711055D01*
X65506029Y-115697146D01*
X65436104Y-115711055D01*
X65436103Y-115711055D01*
X65229001Y-115752250D01*
X64994148Y-115909174D01*
X64837224Y-116144027D01*
X64782120Y-116421055D01*
X56536029Y-116421055D01*
X56536029Y-110829751D01*
X70196938Y-110829751D01*
X70385395Y-111172936D01*
X71261195Y-111522120D01*
X72203956Y-111509569D01*
X73016663Y-111172936D01*
X73205120Y-110829751D01*
X71701029Y-109325660D01*
X70196938Y-110829751D01*
X56536029Y-110829751D01*
X56536029Y-110447673D01*
X56607871Y-109642697D01*
X56812752Y-108893778D01*
X56902212Y-108706221D01*
X69324964Y-108706221D01*
X69337515Y-109648982D01*
X69674148Y-110461689D01*
X70017333Y-110650146D01*
X71521424Y-109146055D01*
X71880634Y-109146055D01*
X73384725Y-110650146D01*
X73727910Y-110461689D01*
X74077094Y-109585889D01*
X74064543Y-108643128D01*
X73727910Y-107830421D01*
X73384725Y-107641964D01*
X71880634Y-109146055D01*
X71521424Y-109146055D01*
X70017333Y-107641964D01*
X69674148Y-107830421D01*
X69324964Y-108706221D01*
X56902212Y-108706221D01*
X57147015Y-108192983D01*
X57600098Y-107562450D01*
X57703383Y-107462359D01*
X70196938Y-107462359D01*
X71701029Y-108966450D01*
X73205120Y-107462359D01*
X73016663Y-107119174D01*
X72140863Y-106769990D01*
X71198102Y-106782541D01*
X70385395Y-107119174D01*
X70196938Y-107462359D01*
X57703383Y-107462359D01*
X58157674Y-107022121D01*
X58802128Y-106589066D01*
X59513073Y-106276982D01*
X60273522Y-106094415D01*
X60932060Y-106046055D01*
X83471628Y-106046055D01*
X96512475Y-119106357D01*
G36*
X140206030Y-118965148D02*
X140206029Y-181139812D01*
X139983258Y-181630114D01*
X139623119Y-182117971D01*
X139169418Y-182520292D01*
X138641988Y-182819488D01*
X138063879Y-183002487D01*
X137459287Y-183061396D01*
X136953723Y-183005895D01*
X127171047Y-177254633D01*
X134736029Y-177254633D01*
X134736029Y-178197477D01*
X135096840Y-179068552D01*
X135763532Y-179735244D01*
X136634607Y-180096055D01*
X137577451Y-180096055D01*
X138448526Y-179735244D01*
X139115218Y-179068552D01*
X139476029Y-178197477D01*
X139476029Y-177254633D01*
X139115218Y-176383558D01*
X138448526Y-175716866D01*
X137577451Y-175356055D01*
X136634607Y-175356055D01*
X135763532Y-175716866D01*
X135096840Y-176383558D01*
X134736029Y-177254633D01*
X127171047Y-177254633D01*
X100072456Y-161323299D01*
X100022621Y-161290000D01*
X100206881Y-161166881D01*
X100363805Y-160932028D01*
X100405000Y-160724926D01*
X100405000Y-160724925D01*
X100418909Y-160655000D01*
X100405000Y-160585074D01*
X100405000Y-159474633D01*
X101081029Y-159474633D01*
X101081029Y-160417477D01*
X101441840Y-161288552D01*
X102108532Y-161955244D01*
X102979607Y-162316055D01*
X103922451Y-162316055D01*
X104793526Y-161955244D01*
X105460218Y-161288552D01*
X105602521Y-160945000D01*
X127701091Y-160945000D01*
X127715001Y-161014931D01*
X127715000Y-165375074D01*
X127701091Y-165445000D01*
X127756195Y-165722028D01*
X127913119Y-165956881D01*
X128147972Y-166113805D01*
X128425000Y-166168909D01*
X128494925Y-166155000D01*
X131855074Y-166155000D01*
X131925000Y-166168909D01*
X131994925Y-166155000D01*
X131994926Y-166155000D01*
X132202028Y-166113805D01*
X132436881Y-165956881D01*
X132593805Y-165722028D01*
X132648909Y-165445000D01*
X132635000Y-165375074D01*
X132635000Y-161014926D01*
X132648909Y-160945000D01*
X132593805Y-160667972D01*
X132436881Y-160433119D01*
X132202028Y-160276195D01*
X131994926Y-160235000D01*
X131925000Y-160221091D01*
X131855075Y-160235000D01*
X128494926Y-160235000D01*
X128425000Y-160221091D01*
X128355075Y-160235000D01*
X128355074Y-160235000D01*
X128147972Y-160276195D01*
X127913119Y-160433119D01*
X127756195Y-160667972D01*
X127701091Y-160945000D01*
X105602521Y-160945000D01*
X105821029Y-160417477D01*
X105821029Y-159474633D01*
X105460218Y-158603558D01*
X104793526Y-157936866D01*
X103922451Y-157576055D01*
X102979607Y-157576055D01*
X102108532Y-157936866D01*
X101441840Y-158603558D01*
X101081029Y-159474633D01*
X100405000Y-159474633D01*
X100405000Y-142530000D01*
X108651091Y-142530000D01*
X108665001Y-142599931D01*
X108665000Y-146960074D01*
X108651091Y-147030000D01*
X108706195Y-147307028D01*
X108863119Y-147541881D01*
X109097972Y-147698805D01*
X109375000Y-147753909D01*
X109444925Y-147740000D01*
X112805074Y-147740000D01*
X112875000Y-147753909D01*
X112944925Y-147740000D01*
X112944926Y-147740000D01*
X113152028Y-147698805D01*
X113386881Y-147541881D01*
X113543805Y-147307028D01*
X113598909Y-147030000D01*
X113585000Y-146960074D01*
X113585000Y-142599926D01*
X113598909Y-142530000D01*
X113543805Y-142252972D01*
X113386881Y-142018119D01*
X113152028Y-141861195D01*
X112944926Y-141820000D01*
X112875000Y-141806091D01*
X112805075Y-141820000D01*
X109444926Y-141820000D01*
X109375000Y-141806091D01*
X109305075Y-141820000D01*
X109305074Y-141820000D01*
X109097972Y-141861195D01*
X108863119Y-142018119D01*
X108706195Y-142252972D01*
X108651091Y-142530000D01*
X100405000Y-142530000D01*
X100405000Y-130465000D01*
X127701091Y-130465000D01*
X127715001Y-130534931D01*
X127715000Y-134895074D01*
X127701091Y-134965000D01*
X127756195Y-135242028D01*
X127913119Y-135476881D01*
X128147972Y-135633805D01*
X128425000Y-135688909D01*
X128494925Y-135675000D01*
X131855074Y-135675000D01*
X131925000Y-135688909D01*
X131994925Y-135675000D01*
X131994926Y-135675000D01*
X132202028Y-135633805D01*
X132436881Y-135476881D01*
X132593805Y-135242028D01*
X132648909Y-134965000D01*
X132635000Y-134895074D01*
X132635000Y-130534926D01*
X132648909Y-130465000D01*
X132593805Y-130187972D01*
X132436881Y-129953119D01*
X132202028Y-129796195D01*
X131994926Y-129755000D01*
X131925000Y-129741091D01*
X131855075Y-129755000D01*
X128494926Y-129755000D01*
X128425000Y-129741091D01*
X128355075Y-129755000D01*
X128355074Y-129755000D01*
X128147972Y-129796195D01*
X127913119Y-129953119D01*
X127756195Y-130187972D01*
X127701091Y-130465000D01*
X100405000Y-130465000D01*
X100405000Y-120213071D01*
X100444399Y-120015000D01*
X100387354Y-119728217D01*
X100224905Y-119485095D01*
X100067619Y-119380000D01*
X100224905Y-119274905D01*
X100387354Y-119031783D01*
X100444399Y-118745000D01*
X100403688Y-118540335D01*
X100389956Y-116421055D01*
X108597120Y-116421055D01*
X108611030Y-116490986D01*
X108611029Y-120851129D01*
X108597120Y-120921055D01*
X108652224Y-121198083D01*
X108809148Y-121432936D01*
X109044001Y-121589860D01*
X109321029Y-121644964D01*
X109390954Y-121631055D01*
X112751103Y-121631055D01*
X112821029Y-121644964D01*
X112890954Y-121631055D01*
X112890955Y-121631055D01*
X113098057Y-121589860D01*
X113332910Y-121432936D01*
X113489834Y-121198083D01*
X113544938Y-120921055D01*
X113531029Y-120851129D01*
X113531029Y-116490981D01*
X113544938Y-116421055D01*
X113489834Y-116144027D01*
X113332910Y-115909174D01*
X113098057Y-115752250D01*
X112890955Y-115711055D01*
X112821029Y-115697146D01*
X112751104Y-115711055D01*
X109390955Y-115711055D01*
X109321029Y-115697146D01*
X109251104Y-115711055D01*
X109251103Y-115711055D01*
X109044001Y-115752250D01*
X108809148Y-115909174D01*
X108652224Y-116144027D01*
X108597120Y-116421055D01*
X100389956Y-116421055D01*
X100353724Y-110829751D01*
X114011938Y-110829751D01*
X114200395Y-111172936D01*
X115076195Y-111522120D01*
X116018956Y-111509569D01*
X116831663Y-111172936D01*
X117020120Y-110829751D01*
X115516029Y-109325660D01*
X114011938Y-110829751D01*
X100353724Y-110829751D01*
X100351233Y-110445387D01*
X100422871Y-109642697D01*
X100627752Y-108893778D01*
X100717212Y-108706221D01*
X113139964Y-108706221D01*
X113152515Y-109648982D01*
X113489148Y-110461689D01*
X113832333Y-110650146D01*
X115336424Y-109146055D01*
X115695634Y-109146055D01*
X117199725Y-110650146D01*
X117542910Y-110461689D01*
X117892094Y-109585889D01*
X117879543Y-108643128D01*
X117542910Y-107830421D01*
X117199725Y-107641964D01*
X115695634Y-109146055D01*
X115336424Y-109146055D01*
X113832333Y-107641964D01*
X113489148Y-107830421D01*
X113139964Y-108706221D01*
X100717212Y-108706221D01*
X100962015Y-108192983D01*
X101415098Y-107562450D01*
X101518383Y-107462359D01*
X114011938Y-107462359D01*
X115516029Y-108966450D01*
X117020120Y-107462359D01*
X116831663Y-107119174D01*
X115955863Y-106769990D01*
X115013102Y-106782541D01*
X114200395Y-107119174D01*
X114011938Y-107462359D01*
X101518383Y-107462359D01*
X101972674Y-107022121D01*
X102617128Y-106589066D01*
X103328073Y-106276982D01*
X104088522Y-106094415D01*
X104747060Y-106046055D01*
X127286939Y-106046055D01*
X140206030Y-118965148D01*
X140206030Y-118965148D01*
G37*
X140206030Y-118965148D02*
X140206029Y-181139812D01*
X139983258Y-181630114D01*
X139623119Y-182117971D01*
X139169418Y-182520292D01*
X138641988Y-182819488D01*
X138063879Y-183002487D01*
X137459287Y-183061396D01*
X136953723Y-183005895D01*
X127171047Y-177254633D01*
X134736029Y-177254633D01*
X134736029Y-178197477D01*
X135096840Y-179068552D01*
X135763532Y-179735244D01*
X136634607Y-180096055D01*
X137577451Y-180096055D01*
X138448526Y-179735244D01*
X139115218Y-179068552D01*
X139476029Y-178197477D01*
X139476029Y-177254633D01*
X139115218Y-176383558D01*
X138448526Y-175716866D01*
X137577451Y-175356055D01*
X136634607Y-175356055D01*
X135763532Y-175716866D01*
X135096840Y-176383558D01*
X134736029Y-177254633D01*
X127171047Y-177254633D01*
X100072456Y-161323299D01*
X100022621Y-161290000D01*
X100206881Y-161166881D01*
X100363805Y-160932028D01*
X100405000Y-160724926D01*
X100405000Y-160724925D01*
X100418909Y-160655000D01*
X100405000Y-160585074D01*
X100405000Y-159474633D01*
X101081029Y-159474633D01*
X101081029Y-160417477D01*
X101441840Y-161288552D01*
X102108532Y-161955244D01*
X102979607Y-162316055D01*
X103922451Y-162316055D01*
X104793526Y-161955244D01*
X105460218Y-161288552D01*
X105602521Y-160945000D01*
X127701091Y-160945000D01*
X127715001Y-161014931D01*
X127715000Y-165375074D01*
X127701091Y-165445000D01*
X127756195Y-165722028D01*
X127913119Y-165956881D01*
X128147972Y-166113805D01*
X128425000Y-166168909D01*
X128494925Y-166155000D01*
X131855074Y-166155000D01*
X131925000Y-166168909D01*
X131994925Y-166155000D01*
X131994926Y-166155000D01*
X132202028Y-166113805D01*
X132436881Y-165956881D01*
X132593805Y-165722028D01*
X132648909Y-165445000D01*
X132635000Y-165375074D01*
X132635000Y-161014926D01*
X132648909Y-160945000D01*
X132593805Y-160667972D01*
X132436881Y-160433119D01*
X132202028Y-160276195D01*
X131994926Y-160235000D01*
X131925000Y-160221091D01*
X131855075Y-160235000D01*
X128494926Y-160235000D01*
X128425000Y-160221091D01*
X128355075Y-160235000D01*
X128355074Y-160235000D01*
X128147972Y-160276195D01*
X127913119Y-160433119D01*
X127756195Y-160667972D01*
X127701091Y-160945000D01*
X105602521Y-160945000D01*
X105821029Y-160417477D01*
X105821029Y-159474633D01*
X105460218Y-158603558D01*
X104793526Y-157936866D01*
X103922451Y-157576055D01*
X102979607Y-157576055D01*
X102108532Y-157936866D01*
X101441840Y-158603558D01*
X101081029Y-159474633D01*
X100405000Y-159474633D01*
X100405000Y-142530000D01*
X108651091Y-142530000D01*
X108665001Y-142599931D01*
X108665000Y-146960074D01*
X108651091Y-147030000D01*
X108706195Y-147307028D01*
X108863119Y-147541881D01*
X109097972Y-147698805D01*
X109375000Y-147753909D01*
X109444925Y-147740000D01*
X112805074Y-147740000D01*
X112875000Y-147753909D01*
X112944925Y-147740000D01*
X112944926Y-147740000D01*
X113152028Y-147698805D01*
X113386881Y-147541881D01*
X113543805Y-147307028D01*
X113598909Y-147030000D01*
X113585000Y-146960074D01*
X113585000Y-142599926D01*
X113598909Y-142530000D01*
X113543805Y-142252972D01*
X113386881Y-142018119D01*
X113152028Y-141861195D01*
X112944926Y-141820000D01*
X112875000Y-141806091D01*
X112805075Y-141820000D01*
X109444926Y-141820000D01*
X109375000Y-141806091D01*
X109305075Y-141820000D01*
X109305074Y-141820000D01*
X109097972Y-141861195D01*
X108863119Y-142018119D01*
X108706195Y-142252972D01*
X108651091Y-142530000D01*
X100405000Y-142530000D01*
X100405000Y-130465000D01*
X127701091Y-130465000D01*
X127715001Y-130534931D01*
X127715000Y-134895074D01*
X127701091Y-134965000D01*
X127756195Y-135242028D01*
X127913119Y-135476881D01*
X128147972Y-135633805D01*
X128425000Y-135688909D01*
X128494925Y-135675000D01*
X131855074Y-135675000D01*
X131925000Y-135688909D01*
X131994925Y-135675000D01*
X131994926Y-135675000D01*
X132202028Y-135633805D01*
X132436881Y-135476881D01*
X132593805Y-135242028D01*
X132648909Y-134965000D01*
X132635000Y-134895074D01*
X132635000Y-130534926D01*
X132648909Y-130465000D01*
X132593805Y-130187972D01*
X132436881Y-129953119D01*
X132202028Y-129796195D01*
X131994926Y-129755000D01*
X131925000Y-129741091D01*
X131855075Y-129755000D01*
X128494926Y-129755000D01*
X128425000Y-129741091D01*
X128355075Y-129755000D01*
X128355074Y-129755000D01*
X128147972Y-129796195D01*
X127913119Y-129953119D01*
X127756195Y-130187972D01*
X127701091Y-130465000D01*
X100405000Y-130465000D01*
X100405000Y-120213071D01*
X100444399Y-120015000D01*
X100387354Y-119728217D01*
X100224905Y-119485095D01*
X100067619Y-119380000D01*
X100224905Y-119274905D01*
X100387354Y-119031783D01*
X100444399Y-118745000D01*
X100403688Y-118540335D01*
X100389956Y-116421055D01*
X108597120Y-116421055D01*
X108611030Y-116490986D01*
X108611029Y-120851129D01*
X108597120Y-120921055D01*
X108652224Y-121198083D01*
X108809148Y-121432936D01*
X109044001Y-121589860D01*
X109321029Y-121644964D01*
X109390954Y-121631055D01*
X112751103Y-121631055D01*
X112821029Y-121644964D01*
X112890954Y-121631055D01*
X112890955Y-121631055D01*
X113098057Y-121589860D01*
X113332910Y-121432936D01*
X113489834Y-121198083D01*
X113544938Y-120921055D01*
X113531029Y-120851129D01*
X113531029Y-116490981D01*
X113544938Y-116421055D01*
X113489834Y-116144027D01*
X113332910Y-115909174D01*
X113098057Y-115752250D01*
X112890955Y-115711055D01*
X112821029Y-115697146D01*
X112751104Y-115711055D01*
X109390955Y-115711055D01*
X109321029Y-115697146D01*
X109251104Y-115711055D01*
X109251103Y-115711055D01*
X109044001Y-115752250D01*
X108809148Y-115909174D01*
X108652224Y-116144027D01*
X108597120Y-116421055D01*
X100389956Y-116421055D01*
X100353724Y-110829751D01*
X114011938Y-110829751D01*
X114200395Y-111172936D01*
X115076195Y-111522120D01*
X116018956Y-111509569D01*
X116831663Y-111172936D01*
X117020120Y-110829751D01*
X115516029Y-109325660D01*
X114011938Y-110829751D01*
X100353724Y-110829751D01*
X100351233Y-110445387D01*
X100422871Y-109642697D01*
X100627752Y-108893778D01*
X100717212Y-108706221D01*
X113139964Y-108706221D01*
X113152515Y-109648982D01*
X113489148Y-110461689D01*
X113832333Y-110650146D01*
X115336424Y-109146055D01*
X115695634Y-109146055D01*
X117199725Y-110650146D01*
X117542910Y-110461689D01*
X117892094Y-109585889D01*
X117879543Y-108643128D01*
X117542910Y-107830421D01*
X117199725Y-107641964D01*
X115695634Y-109146055D01*
X115336424Y-109146055D01*
X113832333Y-107641964D01*
X113489148Y-107830421D01*
X113139964Y-108706221D01*
X100717212Y-108706221D01*
X100962015Y-108192983D01*
X101415098Y-107562450D01*
X101518383Y-107462359D01*
X114011938Y-107462359D01*
X115516029Y-108966450D01*
X117020120Y-107462359D01*
X116831663Y-107119174D01*
X115955863Y-106769990D01*
X115013102Y-106782541D01*
X114200395Y-107119174D01*
X114011938Y-107462359D01*
X101518383Y-107462359D01*
X101972674Y-107022121D01*
X102617128Y-106589066D01*
X103328073Y-106276982D01*
X104088522Y-106094415D01*
X104747060Y-106046055D01*
X127286939Y-106046055D01*
X140206030Y-118965148D01*
G04 #@! TD*
M02*
