G04 #@! TF.GenerationSoftware,KiCad,Pcbnew,5.0.2-bee76a0~70~ubuntu18.04.1*
G04 #@! TF.CreationDate,2019-07-23T02:31:20+09:00*
G04 #@! TF.ProjectId,shieldL,73686965-6c64-44c2-9e6b-696361645f70,rev?*
G04 #@! TF.SameCoordinates,Original*
G04 #@! TF.FileFunction,Legend,Bot*
G04 #@! TF.FilePolarity,Positive*
%FSLAX46Y46*%
G04 Gerber Fmt 4.6, Leading zero omitted, Abs format (unit mm)*
G04 Created by KiCad (PCBNEW 5.0.2-bee76a0~70~ubuntu18.04.1) date 2019年07月23日 02時31分20秒*
%MOMM*%
%LPD*%
G01*
G04 APERTURE LIST*
%ADD10C,0.300000*%
G04 APERTURE END LIST*
D10*
G04 #@! TO.C,L4*
X126745000Y-164795000D02*
X126745000Y-163345000D01*
X126745000Y-163345000D02*
X128795000Y-163345000D01*
X128795000Y-163345000D02*
X128795000Y-164795000D01*
X128795000Y-164795000D02*
X126745000Y-164795000D01*
G04 #@! TO.C,L3*
X107695000Y-146380000D02*
X107695000Y-144930000D01*
X107695000Y-144930000D02*
X109745000Y-144930000D01*
X109745000Y-144930000D02*
X109745000Y-146380000D01*
X109745000Y-146380000D02*
X107695000Y-146380000D01*
G04 #@! TO.C,L1*
X107641029Y-120271055D02*
X107641029Y-118821055D01*
X107641029Y-118821055D02*
X109691029Y-118821055D01*
X109691029Y-118821055D02*
X109691029Y-120271055D01*
X109691029Y-120271055D02*
X107641029Y-120271055D01*
G04 #@! TO.C,L2*
X126745000Y-134315000D02*
X126745000Y-132865000D01*
X126745000Y-132865000D02*
X128795000Y-132865000D01*
X128795000Y-132865000D02*
X128795000Y-134315000D01*
X128795000Y-134315000D02*
X126745000Y-134315000D01*
G04 #@! TO.C,L3*
X65930000Y-146380000D02*
X63880000Y-146380000D01*
X65930000Y-144930000D02*
X65930000Y-146380000D01*
X63880000Y-144930000D02*
X65930000Y-144930000D01*
X63880000Y-146380000D02*
X63880000Y-144930000D01*
G04 #@! TO.C,L4*
X84980000Y-164795000D02*
X82930000Y-164795000D01*
X84980000Y-163345000D02*
X84980000Y-164795000D01*
X82930000Y-163345000D02*
X84980000Y-163345000D01*
X82930000Y-164795000D02*
X82930000Y-163345000D01*
G04 #@! TO.C,L2*
X84980000Y-134315000D02*
X82930000Y-134315000D01*
X84980000Y-132865000D02*
X84980000Y-134315000D01*
X82930000Y-132865000D02*
X84980000Y-132865000D01*
X82930000Y-134315000D02*
X82930000Y-132865000D01*
G04 #@! TO.C,L1*
X65876029Y-120271055D02*
X63826029Y-120271055D01*
X65876029Y-118821055D02*
X65876029Y-120271055D01*
X63826029Y-118821055D02*
X65876029Y-118821055D01*
X63826029Y-120271055D02*
X63826029Y-118821055D01*
G04 #@! TD*
M02*
