G04 #@! TF.GenerationSoftware,KiCad,Pcbnew,5.0.2-bee76a0~70~ubuntu18.04.1*
G04 #@! TF.CreationDate,2019-07-23T02:31:20+09:00*
G04 #@! TF.ProjectId,shieldL,73686965-6c64-44c2-9e6b-696361645f70,rev?*
G04 #@! TF.SameCoordinates,Original*
G04 #@! TF.FileFunction,Soldermask,Top*
G04 #@! TF.FilePolarity,Negative*
%FSLAX46Y46*%
G04 Gerber Fmt 4.6, Leading zero omitted, Abs format (unit mm)*
G04 Created by KiCad (PCBNEW 5.0.2-bee76a0~70~ubuntu18.04.1) date 2019年07月23日 02時31分20秒*
%MOMM*%
%LPD*%
G01*
G04 APERTURE LIST*
%ADD10C,0.150000*%
%ADD11C,0.100000*%
G04 APERTURE END LIST*
D10*
G36*
X97155000Y-20955000D02*
X97155000Y-77470000D01*
X55880000Y-102235000D01*
X55880000Y-34290000D01*
X69215000Y-20955000D01*
X97155000Y-20955000D01*
G37*
X97155000Y-20955000D02*
X97155000Y-77470000D01*
X55880000Y-102235000D01*
X55880000Y-34290000D01*
X69215000Y-20955000D01*
X97155000Y-20955000D01*
G36*
X99695000Y-102235000D02*
X140970000Y-77470000D01*
X140970000Y-20955000D01*
X113030000Y-20955000D01*
X99695000Y-34290000D01*
X99695000Y-102235000D01*
G37*
X99695000Y-102235000D02*
X140970000Y-77470000D01*
X140970000Y-20955000D01*
X113030000Y-20955000D01*
X99695000Y-34290000D01*
X99695000Y-102235000D01*
G36*
X99695000Y-105410000D02*
X99695000Y-161925000D01*
X140970000Y-186690000D01*
X140970000Y-118745000D01*
X127635000Y-105410000D01*
X99695000Y-105410000D01*
G37*
X99695000Y-105410000D02*
X99695000Y-161925000D01*
X140970000Y-186690000D01*
X140970000Y-118745000D01*
X127635000Y-105410000D01*
X99695000Y-105410000D01*
G36*
X55880000Y-105410000D02*
X55880000Y-161925000D01*
X97155000Y-186690000D01*
X97155000Y-118745000D01*
X83820000Y-105410000D01*
X55880000Y-105410000D01*
G37*
X55880000Y-105410000D02*
X55880000Y-161925000D01*
X97155000Y-186690000D01*
X97155000Y-118745000D01*
X83820000Y-105410000D01*
X55880000Y-105410000D01*
D11*
G36*
X137626986Y-176008689D02*
X137952016Y-176143321D01*
X138244541Y-176338780D01*
X138493304Y-176587543D01*
X138688763Y-176880068D01*
X138823395Y-177205098D01*
X138892029Y-177550148D01*
X138892029Y-177901962D01*
X138823395Y-178247012D01*
X138688763Y-178572042D01*
X138493304Y-178864567D01*
X138244541Y-179113330D01*
X137952016Y-179308789D01*
X137626986Y-179443421D01*
X137281936Y-179512055D01*
X136930122Y-179512055D01*
X136585072Y-179443421D01*
X136260042Y-179308789D01*
X135967517Y-179113330D01*
X135718754Y-178864567D01*
X135523295Y-178572042D01*
X135388663Y-178247012D01*
X135320029Y-177901962D01*
X135320029Y-177550148D01*
X135388663Y-177205098D01*
X135523295Y-176880068D01*
X135718754Y-176587543D01*
X135967517Y-176338780D01*
X136260042Y-176143321D01*
X136585072Y-176008689D01*
X136930122Y-175940055D01*
X137281936Y-175940055D01*
X137626986Y-176008689D01*
X137626986Y-176008689D01*
G37*
G36*
X93811986Y-176008689D02*
X94137016Y-176143321D01*
X94429541Y-176338780D01*
X94678304Y-176587543D01*
X94873763Y-176880068D01*
X95008395Y-177205098D01*
X95077029Y-177550148D01*
X95077029Y-177901962D01*
X95008395Y-178247012D01*
X94873763Y-178572042D01*
X94678304Y-178864567D01*
X94429541Y-179113330D01*
X94137016Y-179308789D01*
X93811986Y-179443421D01*
X93466936Y-179512055D01*
X93115122Y-179512055D01*
X92770072Y-179443421D01*
X92445042Y-179308789D01*
X92152517Y-179113330D01*
X91903754Y-178864567D01*
X91708295Y-178572042D01*
X91573663Y-178247012D01*
X91505029Y-177901962D01*
X91505029Y-177550148D01*
X91573663Y-177205098D01*
X91708295Y-176880068D01*
X91903754Y-176587543D01*
X92152517Y-176338780D01*
X92445042Y-176143321D01*
X92770072Y-176008689D01*
X93115122Y-175940055D01*
X93466936Y-175940055D01*
X93811986Y-176008689D01*
X93811986Y-176008689D01*
G37*
G36*
X103971986Y-158228689D02*
X104297016Y-158363321D01*
X104589541Y-158558780D01*
X104838304Y-158807543D01*
X105033763Y-159100068D01*
X105168395Y-159425098D01*
X105237029Y-159770148D01*
X105237029Y-160121962D01*
X105168395Y-160467012D01*
X105033763Y-160792042D01*
X104838304Y-161084567D01*
X104589541Y-161333330D01*
X104297016Y-161528789D01*
X103971986Y-161663421D01*
X103626936Y-161732055D01*
X103275122Y-161732055D01*
X102930072Y-161663421D01*
X102605042Y-161528789D01*
X102312517Y-161333330D01*
X102063754Y-161084567D01*
X101868295Y-160792042D01*
X101733663Y-160467012D01*
X101665029Y-160121962D01*
X101665029Y-159770148D01*
X101733663Y-159425098D01*
X101868295Y-159100068D01*
X102063754Y-158807543D01*
X102312517Y-158558780D01*
X102605042Y-158363321D01*
X102930072Y-158228689D01*
X103275122Y-158160055D01*
X103626936Y-158160055D01*
X103971986Y-158228689D01*
X103971986Y-158228689D01*
G37*
G36*
X60156986Y-158228689D02*
X60482016Y-158363321D01*
X60774541Y-158558780D01*
X61023304Y-158807543D01*
X61218763Y-159100068D01*
X61353395Y-159425098D01*
X61422029Y-159770148D01*
X61422029Y-160121962D01*
X61353395Y-160467012D01*
X61218763Y-160792042D01*
X61023304Y-161084567D01*
X60774541Y-161333330D01*
X60482016Y-161528789D01*
X60156986Y-161663421D01*
X59811936Y-161732055D01*
X59460122Y-161732055D01*
X59115072Y-161663421D01*
X58790042Y-161528789D01*
X58497517Y-161333330D01*
X58248754Y-161084567D01*
X58053295Y-160792042D01*
X57918663Y-160467012D01*
X57850029Y-160121962D01*
X57850029Y-159770148D01*
X57918663Y-159425098D01*
X58053295Y-159100068D01*
X58248754Y-158807543D01*
X58497517Y-158558780D01*
X58790042Y-158363321D01*
X59115072Y-158228689D01*
X59460122Y-158160055D01*
X59811936Y-158160055D01*
X60156986Y-158228689D01*
X60156986Y-158228689D01*
G37*
G36*
X116036986Y-107428689D02*
X116362016Y-107563321D01*
X116654541Y-107758780D01*
X116903304Y-108007543D01*
X117098763Y-108300068D01*
X117233395Y-108625098D01*
X117302029Y-108970148D01*
X117302029Y-109321962D01*
X117233395Y-109667012D01*
X117098763Y-109992042D01*
X116903304Y-110284567D01*
X116654541Y-110533330D01*
X116362016Y-110728789D01*
X116036986Y-110863421D01*
X115691936Y-110932055D01*
X115340122Y-110932055D01*
X114995072Y-110863421D01*
X114670042Y-110728789D01*
X114377517Y-110533330D01*
X114128754Y-110284567D01*
X113933295Y-109992042D01*
X113798663Y-109667012D01*
X113730029Y-109321962D01*
X113730029Y-108970148D01*
X113798663Y-108625098D01*
X113933295Y-108300068D01*
X114128754Y-108007543D01*
X114377517Y-107758780D01*
X114670042Y-107563321D01*
X114995072Y-107428689D01*
X115340122Y-107360055D01*
X115691936Y-107360055D01*
X116036986Y-107428689D01*
X116036986Y-107428689D01*
G37*
G36*
X72221986Y-107428689D02*
X72547016Y-107563321D01*
X72839541Y-107758780D01*
X73088304Y-108007543D01*
X73283763Y-108300068D01*
X73418395Y-108625098D01*
X73487029Y-108970148D01*
X73487029Y-109321962D01*
X73418395Y-109667012D01*
X73283763Y-109992042D01*
X73088304Y-110284567D01*
X72839541Y-110533330D01*
X72547016Y-110728789D01*
X72221986Y-110863421D01*
X71876936Y-110932055D01*
X71525122Y-110932055D01*
X71180072Y-110863421D01*
X70855042Y-110728789D01*
X70562517Y-110533330D01*
X70313754Y-110284567D01*
X70118295Y-109992042D01*
X69983663Y-109667012D01*
X69915029Y-109321962D01*
X69915029Y-108970148D01*
X69983663Y-108625098D01*
X70118295Y-108300068D01*
X70313754Y-108007543D01*
X70562517Y-107758780D01*
X70855042Y-107563321D01*
X71180072Y-107428689D01*
X71525122Y-107360055D01*
X71876936Y-107360055D01*
X72221986Y-107428689D01*
X72221986Y-107428689D01*
G37*
M02*
