M48
; DRILL file {KiCad 5.1.5+dfsg1-2build2} date 2020年12月19日 04時00分19秒
; FORMAT={-:-/ absolute / inch / decimal}
; #@! TF.CreationDate,2020-12-19T04:00:19+09:00
; #@! TF.GenerationSoftware,Kicad,Pcbnew,5.1.5+dfsg1-2build2
FMAT,2
INCH
T1C0.0157
T2C0.0866
%
G90
G05
T1
X1.75Y-2.21
X1.75Y-3.74
X2.075Y-2.45
X2.175Y-3.575
X2.475Y-2.21
X2.475Y-4.08
X3.475Y-2.21
X3.475Y-3.74
X3.8Y-2.45
X3.9Y-3.575
X4.2Y-2.21
X4.2Y-4.08
X2.635Y-4.65
X2.6541Y-4.6041
X2.6541Y-4.6959
X2.7Y-4.585
X2.7Y-4.715
X2.7459Y-4.6041
X2.7459Y-4.6959
X2.765Y-4.65
X4.36Y-4.65
X4.3791Y-4.6041
X4.3791Y-4.6959
X4.425Y-4.585
X4.425Y-4.715
X4.4709Y-4.6041
X4.4709Y-4.6959
X4.49Y-4.65
X3.035Y-3.95
X3.0541Y-3.9041
X3.0541Y-3.9959
X3.1Y-3.885
X3.1Y-4.015
X3.1459Y-3.9041
X3.1459Y-3.9959
X3.165Y-3.95
X4.36Y-1.95
X4.3791Y-1.9041
X4.3791Y-1.9959
X4.425Y-1.885
X4.425Y-2.015
X4.4709Y-1.9041
X4.4709Y-1.9959
X4.49Y-1.95
X1.31Y-3.95
X1.3291Y-3.9041
X1.3291Y-3.9959
X1.375Y-3.885
X1.375Y-4.015
X1.4209Y-3.9041
X1.4209Y-3.9959
X1.44Y-3.95
X2.635Y-1.95
X2.6541Y-1.9041
X2.6541Y-1.9959
X2.7Y-1.885
X2.7Y-2.015
X2.7459Y-1.9041
X2.7459Y-1.9959
X2.765Y-1.95
T2
X2.7Y-1.95
X2.7Y-4.65
X4.425Y-4.65
X3.1Y-3.95
X4.425Y-1.95
X1.375Y-3.95
T0
M30
