G04 #@! TF.GenerationSoftware,KiCad,Pcbnew,5.1.5+dfsg1-2build2*
G04 #@! TF.CreationDate,2020-12-13T19:03:44+09:00*
G04 #@! TF.ProjectId,shield,73686965-6c64-42e6-9b69-6361645f7063,rev?*
G04 #@! TF.SameCoordinates,Original*
G04 #@! TF.FileFunction,Soldermask,Top*
G04 #@! TF.FilePolarity,Negative*
%FSLAX46Y46*%
G04 Gerber Fmt 4.6, Leading zero omitted, Abs format (unit mm)*
G04 Created by KiCad (PCBNEW 5.1.5+dfsg1-2build2) date 2020-12-13 19:03:44*
%MOMM*%
%LPD*%
G04 APERTURE LIST*
%ADD10C,0.100000*%
G04 APERTURE END LIST*
D10*
G36*
X194310000Y-69215000D02*
G01*
X156210000Y-91440000D01*
X153035000Y-91440000D01*
X153035000Y-69215000D01*
X150495000Y-69215000D01*
X113030000Y-91440000D01*
X109220000Y-91440000D01*
X109220000Y-12700000D01*
X194310000Y-12700000D01*
X194310000Y-69215000D01*
G37*
X194310000Y-69215000D02*
X156210000Y-91440000D01*
X153035000Y-91440000D01*
X153035000Y-69215000D01*
X150495000Y-69215000D01*
X113030000Y-91440000D01*
X109220000Y-91440000D01*
X109220000Y-12700000D01*
X194310000Y-12700000D01*
X194310000Y-69215000D01*
G36*
X100330000Y-91440000D02*
G01*
X97155000Y-91440000D01*
X59055000Y-69215000D01*
X56515000Y-69215000D01*
X56515000Y-91440000D01*
X53340000Y-91440000D01*
X15240000Y-69215000D01*
X15240000Y-12700000D01*
X100330000Y-12700000D01*
X100330000Y-91440000D01*
G37*
X100330000Y-91440000D02*
X97155000Y-91440000D01*
X59055000Y-69215000D01*
X56515000Y-69215000D01*
X56515000Y-91440000D01*
X53340000Y-91440000D01*
X15240000Y-69215000D01*
X15240000Y-12700000D01*
X100330000Y-12700000D01*
X100330000Y-91440000D01*
G36*
X52980880Y-82849776D02*
G01*
X53361593Y-82925504D01*
X53771249Y-83095189D01*
X54139929Y-83341534D01*
X54453466Y-83655071D01*
X54699811Y-84023751D01*
X54869496Y-84433407D01*
X54956000Y-84868296D01*
X54956000Y-85311704D01*
X54869496Y-85746593D01*
X54699811Y-86156249D01*
X54453466Y-86524929D01*
X54139929Y-86838466D01*
X53771249Y-87084811D01*
X53361593Y-87254496D01*
X52980880Y-87330224D01*
X52926705Y-87341000D01*
X52483295Y-87341000D01*
X52429120Y-87330224D01*
X52048407Y-87254496D01*
X51638751Y-87084811D01*
X51270071Y-86838466D01*
X50956534Y-86524929D01*
X50710189Y-86156249D01*
X50540504Y-85746593D01*
X50454000Y-85311704D01*
X50454000Y-84868296D01*
X50540504Y-84433407D01*
X50710189Y-84023751D01*
X50956534Y-83655071D01*
X51270071Y-83341534D01*
X51638751Y-83095189D01*
X52048407Y-82925504D01*
X52429120Y-82849776D01*
X52483295Y-82839000D01*
X52926705Y-82839000D01*
X52980880Y-82849776D01*
G37*
G36*
X96795880Y-82849776D02*
G01*
X97176593Y-82925504D01*
X97586249Y-83095189D01*
X97954929Y-83341534D01*
X98268466Y-83655071D01*
X98514811Y-84023751D01*
X98684496Y-84433407D01*
X98771000Y-84868296D01*
X98771000Y-85311704D01*
X98684496Y-85746593D01*
X98514811Y-86156249D01*
X98268466Y-86524929D01*
X97954929Y-86838466D01*
X97586249Y-87084811D01*
X97176593Y-87254496D01*
X96795880Y-87330224D01*
X96741705Y-87341000D01*
X96298295Y-87341000D01*
X96244120Y-87330224D01*
X95863407Y-87254496D01*
X95453751Y-87084811D01*
X95085071Y-86838466D01*
X94771534Y-86524929D01*
X94525189Y-86156249D01*
X94355504Y-85746593D01*
X94269000Y-85311704D01*
X94269000Y-84868296D01*
X94355504Y-84433407D01*
X94525189Y-84023751D01*
X94771534Y-83655071D01*
X95085071Y-83341534D01*
X95453751Y-83095189D01*
X95863407Y-82925504D01*
X96244120Y-82849776D01*
X96298295Y-82839000D01*
X96741705Y-82839000D01*
X96795880Y-82849776D01*
G37*
G36*
X63140880Y-65069776D02*
G01*
X63521593Y-65145504D01*
X63931249Y-65315189D01*
X64299929Y-65561534D01*
X64613466Y-65875071D01*
X64859811Y-66243751D01*
X65029496Y-66653407D01*
X65116000Y-67088296D01*
X65116000Y-67531704D01*
X65029496Y-67966593D01*
X64859811Y-68376249D01*
X64613466Y-68744929D01*
X64299929Y-69058466D01*
X63931249Y-69304811D01*
X63521593Y-69474496D01*
X63140880Y-69550224D01*
X63086705Y-69561000D01*
X62643295Y-69561000D01*
X62589120Y-69550224D01*
X62208407Y-69474496D01*
X61798751Y-69304811D01*
X61430071Y-69058466D01*
X61116534Y-68744929D01*
X60870189Y-68376249D01*
X60700504Y-67966593D01*
X60614000Y-67531704D01*
X60614000Y-67088296D01*
X60700504Y-66653407D01*
X60870189Y-66243751D01*
X61116534Y-65875071D01*
X61430071Y-65561534D01*
X61798751Y-65315189D01*
X62208407Y-65145504D01*
X62589120Y-65069776D01*
X62643295Y-65059000D01*
X63086705Y-65059000D01*
X63140880Y-65069776D01*
G37*
G36*
X19325880Y-65069776D02*
G01*
X19706593Y-65145504D01*
X20116249Y-65315189D01*
X20484929Y-65561534D01*
X20798466Y-65875071D01*
X21044811Y-66243751D01*
X21214496Y-66653407D01*
X21301000Y-67088296D01*
X21301000Y-67531704D01*
X21214496Y-67966593D01*
X21044811Y-68376249D01*
X20798466Y-68744929D01*
X20484929Y-69058466D01*
X20116249Y-69304811D01*
X19706593Y-69474496D01*
X19325880Y-69550224D01*
X19271705Y-69561000D01*
X18828295Y-69561000D01*
X18774120Y-69550224D01*
X18393407Y-69474496D01*
X17983751Y-69304811D01*
X17615071Y-69058466D01*
X17301534Y-68744929D01*
X17055189Y-68376249D01*
X16885504Y-67966593D01*
X16799000Y-67531704D01*
X16799000Y-67088296D01*
X16885504Y-66653407D01*
X17055189Y-66243751D01*
X17301534Y-65875071D01*
X17615071Y-65561534D01*
X17983751Y-65315189D01*
X18393407Y-65145504D01*
X18774120Y-65069776D01*
X18828295Y-65059000D01*
X19271705Y-65059000D01*
X19325880Y-65069776D01*
G37*
G36*
X96795880Y-14269776D02*
G01*
X97176593Y-14345504D01*
X97586249Y-14515189D01*
X97954929Y-14761534D01*
X98268466Y-15075071D01*
X98514811Y-15443751D01*
X98684496Y-15853407D01*
X98771000Y-16288296D01*
X98771000Y-16731704D01*
X98684496Y-17166593D01*
X98514811Y-17576249D01*
X98268466Y-17944929D01*
X97954929Y-18258466D01*
X97586249Y-18504811D01*
X97176593Y-18674496D01*
X96795880Y-18750224D01*
X96741705Y-18761000D01*
X96298295Y-18761000D01*
X96244120Y-18750224D01*
X95863407Y-18674496D01*
X95453751Y-18504811D01*
X95085071Y-18258466D01*
X94771534Y-17944929D01*
X94525189Y-17576249D01*
X94355504Y-17166593D01*
X94269000Y-16731704D01*
X94269000Y-16288296D01*
X94355504Y-15853407D01*
X94525189Y-15443751D01*
X94771534Y-15075071D01*
X95085071Y-14761534D01*
X95453751Y-14515189D01*
X95863407Y-14345504D01*
X96244120Y-14269776D01*
X96298295Y-14259000D01*
X96741705Y-14259000D01*
X96795880Y-14269776D01*
G37*
G36*
X52980880Y-14269776D02*
G01*
X53361593Y-14345504D01*
X53771249Y-14515189D01*
X54139929Y-14761534D01*
X54453466Y-15075071D01*
X54699811Y-15443751D01*
X54869496Y-15853407D01*
X54956000Y-16288296D01*
X54956000Y-16731704D01*
X54869496Y-17166593D01*
X54699811Y-17576249D01*
X54453466Y-17944929D01*
X54139929Y-18258466D01*
X53771249Y-18504811D01*
X53361593Y-18674496D01*
X52980880Y-18750224D01*
X52926705Y-18761000D01*
X52483295Y-18761000D01*
X52429120Y-18750224D01*
X52048407Y-18674496D01*
X51638751Y-18504811D01*
X51270071Y-18258466D01*
X50956534Y-17944929D01*
X50710189Y-17576249D01*
X50540504Y-17166593D01*
X50454000Y-16731704D01*
X50454000Y-16288296D01*
X50540504Y-15853407D01*
X50710189Y-15443751D01*
X50956534Y-15075071D01*
X51270071Y-14761534D01*
X51638751Y-14515189D01*
X52048407Y-14345504D01*
X52429120Y-14269776D01*
X52483295Y-14259000D01*
X52926705Y-14259000D01*
X52980880Y-14269776D01*
G37*
M02*
