G04 #@! TF.GenerationSoftware,KiCad,Pcbnew,5.1.5+dfsg1-2build2*
G04 #@! TF.CreationDate,2020-12-19T04:00:09+09:00*
G04 #@! TF.ProjectId,shield,73686965-6c64-42e6-9b69-6361645f7063,rev?*
G04 #@! TF.SameCoordinates,Original*
G04 #@! TF.FileFunction,Copper,L1,Top*
G04 #@! TF.FilePolarity,Positive*
%FSLAX46Y46*%
G04 Gerber Fmt 4.6, Leading zero omitted, Abs format (unit mm)*
G04 Created by KiCad (PCBNEW 5.1.5+dfsg1-2build2) date 2020-12-19 04:00:09*
%MOMM*%
%LPD*%
G04 APERTURE LIST*
%ADD10C,4.400000*%
%ADD11C,0.700000*%
%ADD12C,0.800000*%
%ADD13C,0.400000*%
%ADD14C,0.254000*%
G04 APERTURE END LIST*
D10*
X78740000Y-100330000D03*
D11*
X77090000Y-100330000D03*
X77573274Y-101496726D03*
X78740000Y-101980000D03*
X79906726Y-101496726D03*
X80390000Y-100330000D03*
X79906726Y-99163274D03*
X78740000Y-98680000D03*
X77573274Y-99163274D03*
D10*
X112395000Y-118110000D03*
D11*
X110745000Y-118110000D03*
X111228274Y-119276726D03*
X112395000Y-119760000D03*
X113561726Y-119276726D03*
X114045000Y-118110000D03*
X113561726Y-116943274D03*
X112395000Y-116460000D03*
X111228274Y-116943274D03*
X111228274Y-48363274D03*
X112395000Y-47880000D03*
X113561726Y-48363274D03*
X114045000Y-49530000D03*
X113561726Y-50696726D03*
X112395000Y-51180000D03*
X111228274Y-50696726D03*
X110745000Y-49530000D03*
D10*
X112395000Y-49530000D03*
D11*
X33758274Y-99163274D03*
X34925000Y-98680000D03*
X36091726Y-99163274D03*
X36575000Y-100330000D03*
X36091726Y-101496726D03*
X34925000Y-101980000D03*
X33758274Y-101496726D03*
X33275000Y-100330000D03*
D10*
X34925000Y-100330000D03*
D11*
X67413274Y-116943274D03*
X68580000Y-116460000D03*
X69746726Y-116943274D03*
X70230000Y-118110000D03*
X69746726Y-119276726D03*
X68580000Y-119760000D03*
X67413274Y-119276726D03*
X66930000Y-118110000D03*
D10*
X68580000Y-118110000D03*
X68580000Y-49530000D03*
D11*
X66930000Y-49530000D03*
X67413274Y-50696726D03*
X68580000Y-51180000D03*
X69746726Y-50696726D03*
X70230000Y-49530000D03*
X69746726Y-48363274D03*
X68580000Y-47880000D03*
X67413274Y-48363274D03*
D12*
X44450000Y-56134000D03*
X62865000Y-56134000D03*
X62865000Y-103632000D03*
X44450000Y-94996000D03*
X55245000Y-90805000D03*
X52705000Y-62230000D03*
X88265000Y-56134000D03*
X106680000Y-56134000D03*
X106680000Y-103632000D03*
X88265000Y-94996000D03*
X99060000Y-90805000D03*
X96520000Y-62230000D03*
D13*
X62865000Y-55245000D02*
X62865000Y-56134000D01*
X68580000Y-49530000D02*
X62865000Y-55245000D01*
X62865000Y-56699685D02*
X62865000Y-56134000D01*
X62232675Y-57332010D02*
X62865000Y-56699685D01*
X45648010Y-57332010D02*
X62232675Y-57332010D01*
X44450000Y-56134000D02*
X45648010Y-57332010D01*
X68580000Y-52641269D02*
X68580000Y-49530000D01*
X63430685Y-103632000D02*
X68580000Y-98482685D01*
X62865000Y-103632000D02*
X63430685Y-103632000D01*
X68580000Y-81443765D02*
X68580000Y-78740000D01*
X55027765Y-94996000D02*
X68580000Y-81443765D01*
X44450000Y-94996000D02*
X55027765Y-94996000D01*
X68580000Y-78740000D02*
X68580000Y-52641269D01*
X68580000Y-98482685D02*
X68580000Y-78740000D01*
X106680000Y-55245000D02*
X106680000Y-56134000D01*
X112395000Y-49530000D02*
X106680000Y-55245000D01*
X106680000Y-56699685D02*
X106680000Y-56134000D01*
X106047675Y-57332010D02*
X106680000Y-56699685D01*
X89463010Y-57332010D02*
X106047675Y-57332010D01*
X88265000Y-56134000D02*
X89463010Y-57332010D01*
X112395000Y-52641269D02*
X112395000Y-49530000D01*
X107245685Y-103632000D02*
X112395000Y-98482685D01*
X106680000Y-103632000D02*
X107245685Y-103632000D01*
X112395000Y-81443765D02*
X112395000Y-78740000D01*
X98842765Y-94996000D02*
X112395000Y-81443765D01*
X88265000Y-94996000D02*
X98842765Y-94996000D01*
X112395000Y-78740000D02*
X112395000Y-52641269D01*
X112395000Y-98482685D02*
X112395000Y-78740000D01*
D14*
G36*
X38035273Y-45859184D02*
G01*
X38075872Y-45993020D01*
X38141800Y-46116363D01*
X38230525Y-46224475D01*
X38338637Y-46313200D01*
X38461980Y-46379128D01*
X38595816Y-46419727D01*
X38700123Y-46430000D01*
X38735000Y-46433435D01*
X38769877Y-46430000D01*
X64735123Y-46430000D01*
X64770000Y-46433435D01*
X64804877Y-46430000D01*
X64909184Y-46419727D01*
X65043020Y-46379128D01*
X65166363Y-46313200D01*
X65274475Y-46224475D01*
X65363200Y-46116363D01*
X65429128Y-45993020D01*
X65469727Y-45859184D01*
X65470927Y-45847000D01*
X66609074Y-45847000D01*
X66610274Y-45859184D01*
X66650873Y-45993020D01*
X66716801Y-46116363D01*
X66805526Y-46224475D01*
X66913638Y-46313200D01*
X67036981Y-46379128D01*
X67170817Y-46419727D01*
X67310000Y-46433435D01*
X67313266Y-46433113D01*
X68083358Y-46501842D01*
X68829526Y-46705970D01*
X68564826Y-46681322D01*
X68009368Y-46739019D01*
X67475839Y-46903972D01*
X67009976Y-47152982D01*
X66769830Y-47540225D01*
X68580000Y-49350395D01*
X68594143Y-49336253D01*
X68773748Y-49515858D01*
X68759605Y-49530000D01*
X70569775Y-51340170D01*
X70957018Y-51100024D01*
X71217641Y-50606123D01*
X71376901Y-50070867D01*
X71428678Y-49514826D01*
X71407690Y-49312773D01*
X71449073Y-49407044D01*
X71631640Y-50167493D01*
X71680001Y-50826044D01*
X71680000Y-121885280D01*
X71641809Y-122274784D01*
X71538771Y-122616063D01*
X71371409Y-122930825D01*
X71146097Y-123207083D01*
X70871418Y-123434317D01*
X70557838Y-123603869D01*
X70217288Y-123709287D01*
X69862749Y-123746550D01*
X69507731Y-123714242D01*
X69145884Y-123607744D01*
X69039984Y-123559967D01*
X59229273Y-117830777D01*
X65745000Y-117830777D01*
X65745000Y-118389223D01*
X65853948Y-118936939D01*
X66067656Y-119452876D01*
X66377912Y-119917207D01*
X66772793Y-120312088D01*
X67237124Y-120622344D01*
X67753061Y-120836052D01*
X68300777Y-120945000D01*
X68859223Y-120945000D01*
X69406939Y-120836052D01*
X69922876Y-120622344D01*
X70387207Y-120312088D01*
X70782088Y-119917207D01*
X71092344Y-119452876D01*
X71306052Y-118936939D01*
X71415000Y-118389223D01*
X71415000Y-117830777D01*
X71306052Y-117283061D01*
X71092344Y-116767124D01*
X70782088Y-116302793D01*
X70387207Y-115907912D01*
X69922876Y-115597656D01*
X69406939Y-115383948D01*
X68859223Y-115275000D01*
X68300777Y-115275000D01*
X67753061Y-115383948D01*
X67237124Y-115597656D01*
X66772793Y-115907912D01*
X66377912Y-116302793D01*
X66067656Y-116767124D01*
X65853948Y-117283061D01*
X65745000Y-117830777D01*
X59229273Y-117830777D01*
X31825000Y-101827423D01*
X31825000Y-100050777D01*
X32090000Y-100050777D01*
X32090000Y-100609223D01*
X32198948Y-101156939D01*
X32412656Y-101672876D01*
X32722912Y-102137207D01*
X33117793Y-102532088D01*
X33582124Y-102842344D01*
X34098061Y-103056052D01*
X34645777Y-103165000D01*
X35204223Y-103165000D01*
X35751939Y-103056052D01*
X36267876Y-102842344D01*
X36732207Y-102532088D01*
X37127088Y-102137207D01*
X37437344Y-101672876D01*
X37562799Y-101370000D01*
X57926638Y-101370000D01*
X57930001Y-101404145D01*
X57930000Y-104335865D01*
X57926638Y-104370000D01*
X57940057Y-104506244D01*
X57979798Y-104637252D01*
X58044333Y-104757989D01*
X58131183Y-104863817D01*
X58237011Y-104950667D01*
X58357748Y-105015202D01*
X58488756Y-105054943D01*
X58625000Y-105068362D01*
X58659134Y-105065000D01*
X61990866Y-105065000D01*
X62025000Y-105068362D01*
X62161244Y-105054943D01*
X62292252Y-105015202D01*
X62412989Y-104950667D01*
X62518817Y-104863817D01*
X62605667Y-104757989D01*
X62670202Y-104637252D01*
X62709943Y-104506244D01*
X62720000Y-104404135D01*
X62720000Y-104404134D01*
X62723362Y-104370000D01*
X62720000Y-104335865D01*
X62720000Y-101404135D01*
X62723362Y-101370000D01*
X62709943Y-101233756D01*
X62670202Y-101102748D01*
X62605667Y-100982011D01*
X62518817Y-100876183D01*
X62412989Y-100789333D01*
X62292252Y-100724798D01*
X62161244Y-100685057D01*
X62059135Y-100675000D01*
X62059134Y-100675000D01*
X62025000Y-100671638D01*
X61990865Y-100675000D01*
X58659135Y-100675000D01*
X58625000Y-100671638D01*
X58590866Y-100675000D01*
X58590865Y-100675000D01*
X58488756Y-100685057D01*
X58357748Y-100724798D01*
X58237011Y-100789333D01*
X58131183Y-100876183D01*
X58044333Y-100982011D01*
X57979798Y-101102748D01*
X57940057Y-101233756D01*
X57926638Y-101370000D01*
X37562799Y-101370000D01*
X37651052Y-101156939D01*
X37760000Y-100609223D01*
X37760000Y-100050777D01*
X37651052Y-99503061D01*
X37437344Y-98987124D01*
X37127088Y-98522793D01*
X36732207Y-98127912D01*
X36267876Y-97817656D01*
X35751939Y-97603948D01*
X35204223Y-97495000D01*
X34645777Y-97495000D01*
X34098061Y-97603948D01*
X33582124Y-97817656D01*
X33117793Y-98127912D01*
X32722912Y-98522793D01*
X32412656Y-98987124D01*
X32198948Y-99503061D01*
X32090000Y-100050777D01*
X31825000Y-100050777D01*
X31825000Y-92734000D01*
X39511638Y-92734000D01*
X39515001Y-92768145D01*
X39515000Y-95699865D01*
X39511638Y-95734000D01*
X39525057Y-95870244D01*
X39564798Y-96001252D01*
X39629333Y-96121989D01*
X39716183Y-96227817D01*
X39822011Y-96314667D01*
X39942748Y-96379202D01*
X40073756Y-96418943D01*
X40210000Y-96432362D01*
X40244134Y-96429000D01*
X43575866Y-96429000D01*
X43610000Y-96432362D01*
X43746244Y-96418943D01*
X43877252Y-96379202D01*
X43997989Y-96314667D01*
X44103817Y-96227817D01*
X44190667Y-96121989D01*
X44255202Y-96001252D01*
X44294943Y-95870244D01*
X44305000Y-95768135D01*
X44305000Y-95768134D01*
X44308362Y-95734000D01*
X44305000Y-95699865D01*
X44305000Y-92768135D01*
X44308362Y-92734000D01*
X44294943Y-92597756D01*
X44255202Y-92466748D01*
X44190667Y-92346011D01*
X44103817Y-92240183D01*
X43997989Y-92153333D01*
X43877252Y-92088798D01*
X43746244Y-92049057D01*
X43644135Y-92039000D01*
X43644134Y-92039000D01*
X43610000Y-92035638D01*
X43575865Y-92039000D01*
X40244135Y-92039000D01*
X40210000Y-92035638D01*
X40175866Y-92039000D01*
X40175865Y-92039000D01*
X40073756Y-92049057D01*
X39942748Y-92088798D01*
X39822011Y-92153333D01*
X39716183Y-92240183D01*
X39629333Y-92346011D01*
X39564798Y-92466748D01*
X39525057Y-92597756D01*
X39511638Y-92734000D01*
X31825000Y-92734000D01*
X31825000Y-67310000D01*
X36624565Y-67310000D01*
X36628001Y-67344887D01*
X36628000Y-85055123D01*
X36624565Y-85090000D01*
X36638273Y-85229184D01*
X36678872Y-85363020D01*
X36744800Y-85486363D01*
X36833525Y-85594475D01*
X36941637Y-85683200D01*
X37064980Y-85749128D01*
X37198816Y-85789727D01*
X37338000Y-85803435D01*
X37372877Y-85800000D01*
X64227123Y-85800000D01*
X64262000Y-85803435D01*
X64296877Y-85800000D01*
X64401184Y-85789727D01*
X64535020Y-85749128D01*
X64658363Y-85683200D01*
X64766475Y-85594475D01*
X64855200Y-85486363D01*
X64921128Y-85363020D01*
X64961727Y-85229184D01*
X64975435Y-85090000D01*
X64972000Y-85055123D01*
X64972000Y-67344877D01*
X64975435Y-67310000D01*
X64961727Y-67170816D01*
X64921128Y-67036980D01*
X64855200Y-66913637D01*
X64766475Y-66805525D01*
X64658363Y-66716800D01*
X64535020Y-66650872D01*
X64401184Y-66610273D01*
X64296877Y-66600000D01*
X64262000Y-66596565D01*
X64227123Y-66600000D01*
X37372877Y-66600000D01*
X37338000Y-66596565D01*
X37303123Y-66600000D01*
X37198816Y-66610273D01*
X37064980Y-66650872D01*
X36941637Y-66716800D01*
X36833525Y-66805525D01*
X36744800Y-66913637D01*
X36678872Y-67036980D01*
X36638273Y-67170816D01*
X36624565Y-67310000D01*
X31825000Y-67310000D01*
X31825000Y-53872000D01*
X39511638Y-53872000D01*
X39515001Y-53906145D01*
X39515000Y-56837865D01*
X39511638Y-56872000D01*
X39525057Y-57008244D01*
X39564798Y-57139252D01*
X39629333Y-57259989D01*
X39716183Y-57365817D01*
X39822011Y-57452667D01*
X39942748Y-57517202D01*
X40073756Y-57556943D01*
X40210000Y-57570362D01*
X40244134Y-57567000D01*
X43575866Y-57567000D01*
X43610000Y-57570362D01*
X43746244Y-57556943D01*
X43877252Y-57517202D01*
X43997989Y-57452667D01*
X44103817Y-57365817D01*
X44190667Y-57259989D01*
X44255202Y-57139252D01*
X44294943Y-57008244D01*
X44305000Y-56906135D01*
X44305000Y-56906134D01*
X44308362Y-56872000D01*
X44305000Y-56837865D01*
X44305000Y-53906135D01*
X44308362Y-53872000D01*
X57926638Y-53872000D01*
X57930001Y-53906145D01*
X57930000Y-56837865D01*
X57926638Y-56872000D01*
X57940057Y-57008244D01*
X57979798Y-57139252D01*
X58044333Y-57259989D01*
X58131183Y-57365817D01*
X58237011Y-57452667D01*
X58357748Y-57517202D01*
X58488756Y-57556943D01*
X58625000Y-57570362D01*
X58659134Y-57567000D01*
X61990866Y-57567000D01*
X62025000Y-57570362D01*
X62161244Y-57556943D01*
X62292252Y-57517202D01*
X62412989Y-57452667D01*
X62518817Y-57365817D01*
X62605667Y-57259989D01*
X62670202Y-57139252D01*
X62709943Y-57008244D01*
X62720000Y-56906135D01*
X62720000Y-56906134D01*
X62723362Y-56872000D01*
X62720000Y-56837865D01*
X62720000Y-53906135D01*
X62723362Y-53872000D01*
X62709943Y-53735756D01*
X62670202Y-53604748D01*
X62605667Y-53484011D01*
X62518817Y-53378183D01*
X62412989Y-53291333D01*
X62292252Y-53226798D01*
X62161244Y-53187057D01*
X62059135Y-53177000D01*
X62059134Y-53177000D01*
X62025000Y-53173638D01*
X61990865Y-53177000D01*
X58659135Y-53177000D01*
X58625000Y-53173638D01*
X58590866Y-53177000D01*
X58590865Y-53177000D01*
X58488756Y-53187057D01*
X58357748Y-53226798D01*
X58237011Y-53291333D01*
X58131183Y-53378183D01*
X58044333Y-53484011D01*
X57979798Y-53604748D01*
X57940057Y-53735756D01*
X57926638Y-53872000D01*
X44308362Y-53872000D01*
X44294943Y-53735756D01*
X44255202Y-53604748D01*
X44190667Y-53484011D01*
X44103817Y-53378183D01*
X43997989Y-53291333D01*
X43877252Y-53226798D01*
X43746244Y-53187057D01*
X43644135Y-53177000D01*
X43644134Y-53177000D01*
X43610000Y-53173638D01*
X43575865Y-53177000D01*
X40244135Y-53177000D01*
X40210000Y-53173638D01*
X40175866Y-53177000D01*
X40175865Y-53177000D01*
X40073756Y-53187057D01*
X39942748Y-53226798D01*
X39822011Y-53291333D01*
X39716183Y-53378183D01*
X39629333Y-53484011D01*
X39564798Y-53604748D01*
X39525057Y-53735756D01*
X39511638Y-53872000D01*
X31825000Y-53872000D01*
X31825000Y-51519775D01*
X66769830Y-51519775D01*
X67009976Y-51907018D01*
X67503877Y-52167641D01*
X68039133Y-52326901D01*
X68595174Y-52378678D01*
X69150632Y-52320981D01*
X69684161Y-52156028D01*
X70150024Y-51907018D01*
X70390170Y-51519775D01*
X68580000Y-49709605D01*
X66769830Y-51519775D01*
X31825000Y-51519775D01*
X31825000Y-50831618D01*
X31896842Y-50026642D01*
X32028556Y-49545174D01*
X65731322Y-49545174D01*
X65789019Y-50100632D01*
X65953972Y-50634161D01*
X66202982Y-51100024D01*
X66590225Y-51340170D01*
X68400395Y-49530000D01*
X66590225Y-47719830D01*
X66202982Y-47959976D01*
X65942359Y-48453877D01*
X65783099Y-48989133D01*
X65731322Y-49545174D01*
X32028556Y-49545174D01*
X32101723Y-49277723D01*
X32435986Y-48576928D01*
X32889069Y-47946395D01*
X33446645Y-47406066D01*
X34091099Y-46973011D01*
X34802044Y-46660927D01*
X35562493Y-46478360D01*
X36186139Y-46432562D01*
X36195000Y-46433435D01*
X36334183Y-46419727D01*
X36468019Y-46379128D01*
X36591362Y-46313200D01*
X36699474Y-46224475D01*
X36788200Y-46116363D01*
X36854128Y-45993020D01*
X36894727Y-45859184D01*
X36895927Y-45847000D01*
X38034073Y-45847000D01*
X38035273Y-45859184D01*
G37*
X38035273Y-45859184D02*
X38075872Y-45993020D01*
X38141800Y-46116363D01*
X38230525Y-46224475D01*
X38338637Y-46313200D01*
X38461980Y-46379128D01*
X38595816Y-46419727D01*
X38700123Y-46430000D01*
X38735000Y-46433435D01*
X38769877Y-46430000D01*
X64735123Y-46430000D01*
X64770000Y-46433435D01*
X64804877Y-46430000D01*
X64909184Y-46419727D01*
X65043020Y-46379128D01*
X65166363Y-46313200D01*
X65274475Y-46224475D01*
X65363200Y-46116363D01*
X65429128Y-45993020D01*
X65469727Y-45859184D01*
X65470927Y-45847000D01*
X66609074Y-45847000D01*
X66610274Y-45859184D01*
X66650873Y-45993020D01*
X66716801Y-46116363D01*
X66805526Y-46224475D01*
X66913638Y-46313200D01*
X67036981Y-46379128D01*
X67170817Y-46419727D01*
X67310000Y-46433435D01*
X67313266Y-46433113D01*
X68083358Y-46501842D01*
X68829526Y-46705970D01*
X68564826Y-46681322D01*
X68009368Y-46739019D01*
X67475839Y-46903972D01*
X67009976Y-47152982D01*
X66769830Y-47540225D01*
X68580000Y-49350395D01*
X68594143Y-49336253D01*
X68773748Y-49515858D01*
X68759605Y-49530000D01*
X70569775Y-51340170D01*
X70957018Y-51100024D01*
X71217641Y-50606123D01*
X71376901Y-50070867D01*
X71428678Y-49514826D01*
X71407690Y-49312773D01*
X71449073Y-49407044D01*
X71631640Y-50167493D01*
X71680001Y-50826044D01*
X71680000Y-121885280D01*
X71641809Y-122274784D01*
X71538771Y-122616063D01*
X71371409Y-122930825D01*
X71146097Y-123207083D01*
X70871418Y-123434317D01*
X70557838Y-123603869D01*
X70217288Y-123709287D01*
X69862749Y-123746550D01*
X69507731Y-123714242D01*
X69145884Y-123607744D01*
X69039984Y-123559967D01*
X59229273Y-117830777D01*
X65745000Y-117830777D01*
X65745000Y-118389223D01*
X65853948Y-118936939D01*
X66067656Y-119452876D01*
X66377912Y-119917207D01*
X66772793Y-120312088D01*
X67237124Y-120622344D01*
X67753061Y-120836052D01*
X68300777Y-120945000D01*
X68859223Y-120945000D01*
X69406939Y-120836052D01*
X69922876Y-120622344D01*
X70387207Y-120312088D01*
X70782088Y-119917207D01*
X71092344Y-119452876D01*
X71306052Y-118936939D01*
X71415000Y-118389223D01*
X71415000Y-117830777D01*
X71306052Y-117283061D01*
X71092344Y-116767124D01*
X70782088Y-116302793D01*
X70387207Y-115907912D01*
X69922876Y-115597656D01*
X69406939Y-115383948D01*
X68859223Y-115275000D01*
X68300777Y-115275000D01*
X67753061Y-115383948D01*
X67237124Y-115597656D01*
X66772793Y-115907912D01*
X66377912Y-116302793D01*
X66067656Y-116767124D01*
X65853948Y-117283061D01*
X65745000Y-117830777D01*
X59229273Y-117830777D01*
X31825000Y-101827423D01*
X31825000Y-100050777D01*
X32090000Y-100050777D01*
X32090000Y-100609223D01*
X32198948Y-101156939D01*
X32412656Y-101672876D01*
X32722912Y-102137207D01*
X33117793Y-102532088D01*
X33582124Y-102842344D01*
X34098061Y-103056052D01*
X34645777Y-103165000D01*
X35204223Y-103165000D01*
X35751939Y-103056052D01*
X36267876Y-102842344D01*
X36732207Y-102532088D01*
X37127088Y-102137207D01*
X37437344Y-101672876D01*
X37562799Y-101370000D01*
X57926638Y-101370000D01*
X57930001Y-101404145D01*
X57930000Y-104335865D01*
X57926638Y-104370000D01*
X57940057Y-104506244D01*
X57979798Y-104637252D01*
X58044333Y-104757989D01*
X58131183Y-104863817D01*
X58237011Y-104950667D01*
X58357748Y-105015202D01*
X58488756Y-105054943D01*
X58625000Y-105068362D01*
X58659134Y-105065000D01*
X61990866Y-105065000D01*
X62025000Y-105068362D01*
X62161244Y-105054943D01*
X62292252Y-105015202D01*
X62412989Y-104950667D01*
X62518817Y-104863817D01*
X62605667Y-104757989D01*
X62670202Y-104637252D01*
X62709943Y-104506244D01*
X62720000Y-104404135D01*
X62720000Y-104404134D01*
X62723362Y-104370000D01*
X62720000Y-104335865D01*
X62720000Y-101404135D01*
X62723362Y-101370000D01*
X62709943Y-101233756D01*
X62670202Y-101102748D01*
X62605667Y-100982011D01*
X62518817Y-100876183D01*
X62412989Y-100789333D01*
X62292252Y-100724798D01*
X62161244Y-100685057D01*
X62059135Y-100675000D01*
X62059134Y-100675000D01*
X62025000Y-100671638D01*
X61990865Y-100675000D01*
X58659135Y-100675000D01*
X58625000Y-100671638D01*
X58590866Y-100675000D01*
X58590865Y-100675000D01*
X58488756Y-100685057D01*
X58357748Y-100724798D01*
X58237011Y-100789333D01*
X58131183Y-100876183D01*
X58044333Y-100982011D01*
X57979798Y-101102748D01*
X57940057Y-101233756D01*
X57926638Y-101370000D01*
X37562799Y-101370000D01*
X37651052Y-101156939D01*
X37760000Y-100609223D01*
X37760000Y-100050777D01*
X37651052Y-99503061D01*
X37437344Y-98987124D01*
X37127088Y-98522793D01*
X36732207Y-98127912D01*
X36267876Y-97817656D01*
X35751939Y-97603948D01*
X35204223Y-97495000D01*
X34645777Y-97495000D01*
X34098061Y-97603948D01*
X33582124Y-97817656D01*
X33117793Y-98127912D01*
X32722912Y-98522793D01*
X32412656Y-98987124D01*
X32198948Y-99503061D01*
X32090000Y-100050777D01*
X31825000Y-100050777D01*
X31825000Y-92734000D01*
X39511638Y-92734000D01*
X39515001Y-92768145D01*
X39515000Y-95699865D01*
X39511638Y-95734000D01*
X39525057Y-95870244D01*
X39564798Y-96001252D01*
X39629333Y-96121989D01*
X39716183Y-96227817D01*
X39822011Y-96314667D01*
X39942748Y-96379202D01*
X40073756Y-96418943D01*
X40210000Y-96432362D01*
X40244134Y-96429000D01*
X43575866Y-96429000D01*
X43610000Y-96432362D01*
X43746244Y-96418943D01*
X43877252Y-96379202D01*
X43997989Y-96314667D01*
X44103817Y-96227817D01*
X44190667Y-96121989D01*
X44255202Y-96001252D01*
X44294943Y-95870244D01*
X44305000Y-95768135D01*
X44305000Y-95768134D01*
X44308362Y-95734000D01*
X44305000Y-95699865D01*
X44305000Y-92768135D01*
X44308362Y-92734000D01*
X44294943Y-92597756D01*
X44255202Y-92466748D01*
X44190667Y-92346011D01*
X44103817Y-92240183D01*
X43997989Y-92153333D01*
X43877252Y-92088798D01*
X43746244Y-92049057D01*
X43644135Y-92039000D01*
X43644134Y-92039000D01*
X43610000Y-92035638D01*
X43575865Y-92039000D01*
X40244135Y-92039000D01*
X40210000Y-92035638D01*
X40175866Y-92039000D01*
X40175865Y-92039000D01*
X40073756Y-92049057D01*
X39942748Y-92088798D01*
X39822011Y-92153333D01*
X39716183Y-92240183D01*
X39629333Y-92346011D01*
X39564798Y-92466748D01*
X39525057Y-92597756D01*
X39511638Y-92734000D01*
X31825000Y-92734000D01*
X31825000Y-67310000D01*
X36624565Y-67310000D01*
X36628001Y-67344887D01*
X36628000Y-85055123D01*
X36624565Y-85090000D01*
X36638273Y-85229184D01*
X36678872Y-85363020D01*
X36744800Y-85486363D01*
X36833525Y-85594475D01*
X36941637Y-85683200D01*
X37064980Y-85749128D01*
X37198816Y-85789727D01*
X37338000Y-85803435D01*
X37372877Y-85800000D01*
X64227123Y-85800000D01*
X64262000Y-85803435D01*
X64296877Y-85800000D01*
X64401184Y-85789727D01*
X64535020Y-85749128D01*
X64658363Y-85683200D01*
X64766475Y-85594475D01*
X64855200Y-85486363D01*
X64921128Y-85363020D01*
X64961727Y-85229184D01*
X64975435Y-85090000D01*
X64972000Y-85055123D01*
X64972000Y-67344877D01*
X64975435Y-67310000D01*
X64961727Y-67170816D01*
X64921128Y-67036980D01*
X64855200Y-66913637D01*
X64766475Y-66805525D01*
X64658363Y-66716800D01*
X64535020Y-66650872D01*
X64401184Y-66610273D01*
X64296877Y-66600000D01*
X64262000Y-66596565D01*
X64227123Y-66600000D01*
X37372877Y-66600000D01*
X37338000Y-66596565D01*
X37303123Y-66600000D01*
X37198816Y-66610273D01*
X37064980Y-66650872D01*
X36941637Y-66716800D01*
X36833525Y-66805525D01*
X36744800Y-66913637D01*
X36678872Y-67036980D01*
X36638273Y-67170816D01*
X36624565Y-67310000D01*
X31825000Y-67310000D01*
X31825000Y-53872000D01*
X39511638Y-53872000D01*
X39515001Y-53906145D01*
X39515000Y-56837865D01*
X39511638Y-56872000D01*
X39525057Y-57008244D01*
X39564798Y-57139252D01*
X39629333Y-57259989D01*
X39716183Y-57365817D01*
X39822011Y-57452667D01*
X39942748Y-57517202D01*
X40073756Y-57556943D01*
X40210000Y-57570362D01*
X40244134Y-57567000D01*
X43575866Y-57567000D01*
X43610000Y-57570362D01*
X43746244Y-57556943D01*
X43877252Y-57517202D01*
X43997989Y-57452667D01*
X44103817Y-57365817D01*
X44190667Y-57259989D01*
X44255202Y-57139252D01*
X44294943Y-57008244D01*
X44305000Y-56906135D01*
X44305000Y-56906134D01*
X44308362Y-56872000D01*
X44305000Y-56837865D01*
X44305000Y-53906135D01*
X44308362Y-53872000D01*
X57926638Y-53872000D01*
X57930001Y-53906145D01*
X57930000Y-56837865D01*
X57926638Y-56872000D01*
X57940057Y-57008244D01*
X57979798Y-57139252D01*
X58044333Y-57259989D01*
X58131183Y-57365817D01*
X58237011Y-57452667D01*
X58357748Y-57517202D01*
X58488756Y-57556943D01*
X58625000Y-57570362D01*
X58659134Y-57567000D01*
X61990866Y-57567000D01*
X62025000Y-57570362D01*
X62161244Y-57556943D01*
X62292252Y-57517202D01*
X62412989Y-57452667D01*
X62518817Y-57365817D01*
X62605667Y-57259989D01*
X62670202Y-57139252D01*
X62709943Y-57008244D01*
X62720000Y-56906135D01*
X62720000Y-56906134D01*
X62723362Y-56872000D01*
X62720000Y-56837865D01*
X62720000Y-53906135D01*
X62723362Y-53872000D01*
X62709943Y-53735756D01*
X62670202Y-53604748D01*
X62605667Y-53484011D01*
X62518817Y-53378183D01*
X62412989Y-53291333D01*
X62292252Y-53226798D01*
X62161244Y-53187057D01*
X62059135Y-53177000D01*
X62059134Y-53177000D01*
X62025000Y-53173638D01*
X61990865Y-53177000D01*
X58659135Y-53177000D01*
X58625000Y-53173638D01*
X58590866Y-53177000D01*
X58590865Y-53177000D01*
X58488756Y-53187057D01*
X58357748Y-53226798D01*
X58237011Y-53291333D01*
X58131183Y-53378183D01*
X58044333Y-53484011D01*
X57979798Y-53604748D01*
X57940057Y-53735756D01*
X57926638Y-53872000D01*
X44308362Y-53872000D01*
X44294943Y-53735756D01*
X44255202Y-53604748D01*
X44190667Y-53484011D01*
X44103817Y-53378183D01*
X43997989Y-53291333D01*
X43877252Y-53226798D01*
X43746244Y-53187057D01*
X43644135Y-53177000D01*
X43644134Y-53177000D01*
X43610000Y-53173638D01*
X43575865Y-53177000D01*
X40244135Y-53177000D01*
X40210000Y-53173638D01*
X40175866Y-53177000D01*
X40175865Y-53177000D01*
X40073756Y-53187057D01*
X39942748Y-53226798D01*
X39822011Y-53291333D01*
X39716183Y-53378183D01*
X39629333Y-53484011D01*
X39564798Y-53604748D01*
X39525057Y-53735756D01*
X39511638Y-53872000D01*
X31825000Y-53872000D01*
X31825000Y-51519775D01*
X66769830Y-51519775D01*
X67009976Y-51907018D01*
X67503877Y-52167641D01*
X68039133Y-52326901D01*
X68595174Y-52378678D01*
X69150632Y-52320981D01*
X69684161Y-52156028D01*
X70150024Y-51907018D01*
X70390170Y-51519775D01*
X68580000Y-49709605D01*
X66769830Y-51519775D01*
X31825000Y-51519775D01*
X31825000Y-50831618D01*
X31896842Y-50026642D01*
X32028556Y-49545174D01*
X65731322Y-49545174D01*
X65789019Y-50100632D01*
X65953972Y-50634161D01*
X66202982Y-51100024D01*
X66590225Y-51340170D01*
X68400395Y-49530000D01*
X66590225Y-47719830D01*
X66202982Y-47959976D01*
X65942359Y-48453877D01*
X65783099Y-48989133D01*
X65731322Y-49545174D01*
X32028556Y-49545174D01*
X32101723Y-49277723D01*
X32435986Y-48576928D01*
X32889069Y-47946395D01*
X33446645Y-47406066D01*
X34091099Y-46973011D01*
X34802044Y-46660927D01*
X35562493Y-46478360D01*
X36186139Y-46432562D01*
X36195000Y-46433435D01*
X36334183Y-46419727D01*
X36468019Y-46379128D01*
X36591362Y-46313200D01*
X36699474Y-46224475D01*
X36788200Y-46116363D01*
X36854128Y-45993020D01*
X36894727Y-45859184D01*
X36895927Y-45847000D01*
X38034073Y-45847000D01*
X38035273Y-45859184D01*
G36*
X81850273Y-45859184D02*
G01*
X81890872Y-45993020D01*
X81956800Y-46116363D01*
X82045525Y-46224475D01*
X82153637Y-46313200D01*
X82276980Y-46379128D01*
X82410816Y-46419727D01*
X82515123Y-46430000D01*
X82550000Y-46433435D01*
X82584877Y-46430000D01*
X108550123Y-46430000D01*
X108585000Y-46433435D01*
X108619877Y-46430000D01*
X108724184Y-46419727D01*
X108858020Y-46379128D01*
X108981363Y-46313200D01*
X109089475Y-46224475D01*
X109178200Y-46116363D01*
X109244128Y-45993020D01*
X109284727Y-45859184D01*
X109285927Y-45847000D01*
X110424074Y-45847000D01*
X110425274Y-45859184D01*
X110465873Y-45993020D01*
X110531801Y-46116363D01*
X110620526Y-46224475D01*
X110728638Y-46313200D01*
X110851981Y-46379128D01*
X110985817Y-46419727D01*
X111125000Y-46433435D01*
X111128266Y-46433113D01*
X111898358Y-46501842D01*
X112644526Y-46705970D01*
X112379826Y-46681322D01*
X111824368Y-46739019D01*
X111290839Y-46903972D01*
X110824976Y-47152982D01*
X110584830Y-47540225D01*
X112395000Y-49350395D01*
X112409143Y-49336253D01*
X112588748Y-49515858D01*
X112574605Y-49530000D01*
X114384775Y-51340170D01*
X114772018Y-51100024D01*
X115032641Y-50606123D01*
X115191901Y-50070867D01*
X115243678Y-49514826D01*
X115222690Y-49312773D01*
X115264073Y-49407044D01*
X115446640Y-50167493D01*
X115495001Y-50826044D01*
X115495000Y-121885280D01*
X115456809Y-122274784D01*
X115353771Y-122616063D01*
X115186409Y-122930825D01*
X114961097Y-123207083D01*
X114686418Y-123434317D01*
X114372838Y-123603869D01*
X114032288Y-123709287D01*
X113677749Y-123746550D01*
X113322731Y-123714242D01*
X112960884Y-123607744D01*
X112854984Y-123559967D01*
X103044273Y-117830777D01*
X109560000Y-117830777D01*
X109560000Y-118389223D01*
X109668948Y-118936939D01*
X109882656Y-119452876D01*
X110192912Y-119917207D01*
X110587793Y-120312088D01*
X111052124Y-120622344D01*
X111568061Y-120836052D01*
X112115777Y-120945000D01*
X112674223Y-120945000D01*
X113221939Y-120836052D01*
X113737876Y-120622344D01*
X114202207Y-120312088D01*
X114597088Y-119917207D01*
X114907344Y-119452876D01*
X115121052Y-118936939D01*
X115230000Y-118389223D01*
X115230000Y-117830777D01*
X115121052Y-117283061D01*
X114907344Y-116767124D01*
X114597088Y-116302793D01*
X114202207Y-115907912D01*
X113737876Y-115597656D01*
X113221939Y-115383948D01*
X112674223Y-115275000D01*
X112115777Y-115275000D01*
X111568061Y-115383948D01*
X111052124Y-115597656D01*
X110587793Y-115907912D01*
X110192912Y-116302793D01*
X109882656Y-116767124D01*
X109668948Y-117283061D01*
X109560000Y-117830777D01*
X103044273Y-117830777D01*
X75640000Y-101827423D01*
X75640000Y-100050777D01*
X75905000Y-100050777D01*
X75905000Y-100609223D01*
X76013948Y-101156939D01*
X76227656Y-101672876D01*
X76537912Y-102137207D01*
X76932793Y-102532088D01*
X77397124Y-102842344D01*
X77913061Y-103056052D01*
X78460777Y-103165000D01*
X79019223Y-103165000D01*
X79566939Y-103056052D01*
X80082876Y-102842344D01*
X80547207Y-102532088D01*
X80942088Y-102137207D01*
X81252344Y-101672876D01*
X81377799Y-101370000D01*
X101741638Y-101370000D01*
X101745001Y-101404145D01*
X101745000Y-104335865D01*
X101741638Y-104370000D01*
X101755057Y-104506244D01*
X101794798Y-104637252D01*
X101859333Y-104757989D01*
X101946183Y-104863817D01*
X102052011Y-104950667D01*
X102172748Y-105015202D01*
X102303756Y-105054943D01*
X102440000Y-105068362D01*
X102474134Y-105065000D01*
X105805866Y-105065000D01*
X105840000Y-105068362D01*
X105976244Y-105054943D01*
X106107252Y-105015202D01*
X106227989Y-104950667D01*
X106333817Y-104863817D01*
X106420667Y-104757989D01*
X106485202Y-104637252D01*
X106524943Y-104506244D01*
X106535000Y-104404135D01*
X106535000Y-104404134D01*
X106538362Y-104370000D01*
X106535000Y-104335865D01*
X106535000Y-101404135D01*
X106538362Y-101370000D01*
X106524943Y-101233756D01*
X106485202Y-101102748D01*
X106420667Y-100982011D01*
X106333817Y-100876183D01*
X106227989Y-100789333D01*
X106107252Y-100724798D01*
X105976244Y-100685057D01*
X105874135Y-100675000D01*
X105874134Y-100675000D01*
X105840000Y-100671638D01*
X105805865Y-100675000D01*
X102474135Y-100675000D01*
X102440000Y-100671638D01*
X102405866Y-100675000D01*
X102405865Y-100675000D01*
X102303756Y-100685057D01*
X102172748Y-100724798D01*
X102052011Y-100789333D01*
X101946183Y-100876183D01*
X101859333Y-100982011D01*
X101794798Y-101102748D01*
X101755057Y-101233756D01*
X101741638Y-101370000D01*
X81377799Y-101370000D01*
X81466052Y-101156939D01*
X81575000Y-100609223D01*
X81575000Y-100050777D01*
X81466052Y-99503061D01*
X81252344Y-98987124D01*
X80942088Y-98522793D01*
X80547207Y-98127912D01*
X80082876Y-97817656D01*
X79566939Y-97603948D01*
X79019223Y-97495000D01*
X78460777Y-97495000D01*
X77913061Y-97603948D01*
X77397124Y-97817656D01*
X76932793Y-98127912D01*
X76537912Y-98522793D01*
X76227656Y-98987124D01*
X76013948Y-99503061D01*
X75905000Y-100050777D01*
X75640000Y-100050777D01*
X75640000Y-92734000D01*
X83326638Y-92734000D01*
X83330001Y-92768145D01*
X83330000Y-95699865D01*
X83326638Y-95734000D01*
X83340057Y-95870244D01*
X83379798Y-96001252D01*
X83444333Y-96121989D01*
X83531183Y-96227817D01*
X83637011Y-96314667D01*
X83757748Y-96379202D01*
X83888756Y-96418943D01*
X84025000Y-96432362D01*
X84059134Y-96429000D01*
X87390866Y-96429000D01*
X87425000Y-96432362D01*
X87561244Y-96418943D01*
X87692252Y-96379202D01*
X87812989Y-96314667D01*
X87918817Y-96227817D01*
X88005667Y-96121989D01*
X88070202Y-96001252D01*
X88109943Y-95870244D01*
X88120000Y-95768135D01*
X88120000Y-95768134D01*
X88123362Y-95734000D01*
X88120000Y-95699865D01*
X88120000Y-92768135D01*
X88123362Y-92734000D01*
X88109943Y-92597756D01*
X88070202Y-92466748D01*
X88005667Y-92346011D01*
X87918817Y-92240183D01*
X87812989Y-92153333D01*
X87692252Y-92088798D01*
X87561244Y-92049057D01*
X87459135Y-92039000D01*
X87459134Y-92039000D01*
X87425000Y-92035638D01*
X87390865Y-92039000D01*
X84059135Y-92039000D01*
X84025000Y-92035638D01*
X83990866Y-92039000D01*
X83990865Y-92039000D01*
X83888756Y-92049057D01*
X83757748Y-92088798D01*
X83637011Y-92153333D01*
X83531183Y-92240183D01*
X83444333Y-92346011D01*
X83379798Y-92466748D01*
X83340057Y-92597756D01*
X83326638Y-92734000D01*
X75640000Y-92734000D01*
X75640000Y-67310000D01*
X80439565Y-67310000D01*
X80443001Y-67344887D01*
X80443000Y-85055123D01*
X80439565Y-85090000D01*
X80453273Y-85229184D01*
X80493872Y-85363020D01*
X80559800Y-85486363D01*
X80648525Y-85594475D01*
X80756637Y-85683200D01*
X80879980Y-85749128D01*
X81013816Y-85789727D01*
X81153000Y-85803435D01*
X81187877Y-85800000D01*
X108042123Y-85800000D01*
X108077000Y-85803435D01*
X108111877Y-85800000D01*
X108216184Y-85789727D01*
X108350020Y-85749128D01*
X108473363Y-85683200D01*
X108581475Y-85594475D01*
X108670200Y-85486363D01*
X108736128Y-85363020D01*
X108776727Y-85229184D01*
X108790435Y-85090000D01*
X108787000Y-85055123D01*
X108787000Y-67344877D01*
X108790435Y-67310000D01*
X108776727Y-67170816D01*
X108736128Y-67036980D01*
X108670200Y-66913637D01*
X108581475Y-66805525D01*
X108473363Y-66716800D01*
X108350020Y-66650872D01*
X108216184Y-66610273D01*
X108111877Y-66600000D01*
X108077000Y-66596565D01*
X108042123Y-66600000D01*
X81187877Y-66600000D01*
X81153000Y-66596565D01*
X81118123Y-66600000D01*
X81013816Y-66610273D01*
X80879980Y-66650872D01*
X80756637Y-66716800D01*
X80648525Y-66805525D01*
X80559800Y-66913637D01*
X80493872Y-67036980D01*
X80453273Y-67170816D01*
X80439565Y-67310000D01*
X75640000Y-67310000D01*
X75640000Y-53872000D01*
X83326638Y-53872000D01*
X83330001Y-53906145D01*
X83330000Y-56837865D01*
X83326638Y-56872000D01*
X83340057Y-57008244D01*
X83379798Y-57139252D01*
X83444333Y-57259989D01*
X83531183Y-57365817D01*
X83637011Y-57452667D01*
X83757748Y-57517202D01*
X83888756Y-57556943D01*
X84025000Y-57570362D01*
X84059134Y-57567000D01*
X87390866Y-57567000D01*
X87425000Y-57570362D01*
X87561244Y-57556943D01*
X87692252Y-57517202D01*
X87812989Y-57452667D01*
X87918817Y-57365817D01*
X88005667Y-57259989D01*
X88070202Y-57139252D01*
X88109943Y-57008244D01*
X88120000Y-56906135D01*
X88120000Y-56906134D01*
X88123362Y-56872000D01*
X88120000Y-56837865D01*
X88120000Y-53906135D01*
X88123362Y-53872000D01*
X101741638Y-53872000D01*
X101745001Y-53906145D01*
X101745000Y-56837865D01*
X101741638Y-56872000D01*
X101755057Y-57008244D01*
X101794798Y-57139252D01*
X101859333Y-57259989D01*
X101946183Y-57365817D01*
X102052011Y-57452667D01*
X102172748Y-57517202D01*
X102303756Y-57556943D01*
X102440000Y-57570362D01*
X102474134Y-57567000D01*
X105805866Y-57567000D01*
X105840000Y-57570362D01*
X105976244Y-57556943D01*
X106107252Y-57517202D01*
X106227989Y-57452667D01*
X106333817Y-57365817D01*
X106420667Y-57259989D01*
X106485202Y-57139252D01*
X106524943Y-57008244D01*
X106535000Y-56906135D01*
X106535000Y-56906134D01*
X106538362Y-56872000D01*
X106535000Y-56837865D01*
X106535000Y-53906135D01*
X106538362Y-53872000D01*
X106524943Y-53735756D01*
X106485202Y-53604748D01*
X106420667Y-53484011D01*
X106333817Y-53378183D01*
X106227989Y-53291333D01*
X106107252Y-53226798D01*
X105976244Y-53187057D01*
X105874135Y-53177000D01*
X105874134Y-53177000D01*
X105840000Y-53173638D01*
X105805865Y-53177000D01*
X102474135Y-53177000D01*
X102440000Y-53173638D01*
X102405866Y-53177000D01*
X102405865Y-53177000D01*
X102303756Y-53187057D01*
X102172748Y-53226798D01*
X102052011Y-53291333D01*
X101946183Y-53378183D01*
X101859333Y-53484011D01*
X101794798Y-53604748D01*
X101755057Y-53735756D01*
X101741638Y-53872000D01*
X88123362Y-53872000D01*
X88109943Y-53735756D01*
X88070202Y-53604748D01*
X88005667Y-53484011D01*
X87918817Y-53378183D01*
X87812989Y-53291333D01*
X87692252Y-53226798D01*
X87561244Y-53187057D01*
X87459135Y-53177000D01*
X87459134Y-53177000D01*
X87425000Y-53173638D01*
X87390865Y-53177000D01*
X84059135Y-53177000D01*
X84025000Y-53173638D01*
X83990866Y-53177000D01*
X83990865Y-53177000D01*
X83888756Y-53187057D01*
X83757748Y-53226798D01*
X83637011Y-53291333D01*
X83531183Y-53378183D01*
X83444333Y-53484011D01*
X83379798Y-53604748D01*
X83340057Y-53735756D01*
X83326638Y-53872000D01*
X75640000Y-53872000D01*
X75640000Y-51519775D01*
X110584830Y-51519775D01*
X110824976Y-51907018D01*
X111318877Y-52167641D01*
X111854133Y-52326901D01*
X112410174Y-52378678D01*
X112965632Y-52320981D01*
X113499161Y-52156028D01*
X113965024Y-51907018D01*
X114205170Y-51519775D01*
X112395000Y-49709605D01*
X110584830Y-51519775D01*
X75640000Y-51519775D01*
X75640000Y-50831618D01*
X75711842Y-50026642D01*
X75843556Y-49545174D01*
X109546322Y-49545174D01*
X109604019Y-50100632D01*
X109768972Y-50634161D01*
X110017982Y-51100024D01*
X110405225Y-51340170D01*
X112215395Y-49530000D01*
X110405225Y-47719830D01*
X110017982Y-47959976D01*
X109757359Y-48453877D01*
X109598099Y-48989133D01*
X109546322Y-49545174D01*
X75843556Y-49545174D01*
X75916723Y-49277723D01*
X76250986Y-48576928D01*
X76704069Y-47946395D01*
X77261645Y-47406066D01*
X77906099Y-46973011D01*
X78617044Y-46660927D01*
X79377493Y-46478360D01*
X80001139Y-46432562D01*
X80010000Y-46433435D01*
X80149183Y-46419727D01*
X80283019Y-46379128D01*
X80406362Y-46313200D01*
X80514474Y-46224475D01*
X80603200Y-46116363D01*
X80669128Y-45993020D01*
X80709727Y-45859184D01*
X80710927Y-45847000D01*
X81849073Y-45847000D01*
X81850273Y-45859184D01*
G37*
X81850273Y-45859184D02*
X81890872Y-45993020D01*
X81956800Y-46116363D01*
X82045525Y-46224475D01*
X82153637Y-46313200D01*
X82276980Y-46379128D01*
X82410816Y-46419727D01*
X82515123Y-46430000D01*
X82550000Y-46433435D01*
X82584877Y-46430000D01*
X108550123Y-46430000D01*
X108585000Y-46433435D01*
X108619877Y-46430000D01*
X108724184Y-46419727D01*
X108858020Y-46379128D01*
X108981363Y-46313200D01*
X109089475Y-46224475D01*
X109178200Y-46116363D01*
X109244128Y-45993020D01*
X109284727Y-45859184D01*
X109285927Y-45847000D01*
X110424074Y-45847000D01*
X110425274Y-45859184D01*
X110465873Y-45993020D01*
X110531801Y-46116363D01*
X110620526Y-46224475D01*
X110728638Y-46313200D01*
X110851981Y-46379128D01*
X110985817Y-46419727D01*
X111125000Y-46433435D01*
X111128266Y-46433113D01*
X111898358Y-46501842D01*
X112644526Y-46705970D01*
X112379826Y-46681322D01*
X111824368Y-46739019D01*
X111290839Y-46903972D01*
X110824976Y-47152982D01*
X110584830Y-47540225D01*
X112395000Y-49350395D01*
X112409143Y-49336253D01*
X112588748Y-49515858D01*
X112574605Y-49530000D01*
X114384775Y-51340170D01*
X114772018Y-51100024D01*
X115032641Y-50606123D01*
X115191901Y-50070867D01*
X115243678Y-49514826D01*
X115222690Y-49312773D01*
X115264073Y-49407044D01*
X115446640Y-50167493D01*
X115495001Y-50826044D01*
X115495000Y-121885280D01*
X115456809Y-122274784D01*
X115353771Y-122616063D01*
X115186409Y-122930825D01*
X114961097Y-123207083D01*
X114686418Y-123434317D01*
X114372838Y-123603869D01*
X114032288Y-123709287D01*
X113677749Y-123746550D01*
X113322731Y-123714242D01*
X112960884Y-123607744D01*
X112854984Y-123559967D01*
X103044273Y-117830777D01*
X109560000Y-117830777D01*
X109560000Y-118389223D01*
X109668948Y-118936939D01*
X109882656Y-119452876D01*
X110192912Y-119917207D01*
X110587793Y-120312088D01*
X111052124Y-120622344D01*
X111568061Y-120836052D01*
X112115777Y-120945000D01*
X112674223Y-120945000D01*
X113221939Y-120836052D01*
X113737876Y-120622344D01*
X114202207Y-120312088D01*
X114597088Y-119917207D01*
X114907344Y-119452876D01*
X115121052Y-118936939D01*
X115230000Y-118389223D01*
X115230000Y-117830777D01*
X115121052Y-117283061D01*
X114907344Y-116767124D01*
X114597088Y-116302793D01*
X114202207Y-115907912D01*
X113737876Y-115597656D01*
X113221939Y-115383948D01*
X112674223Y-115275000D01*
X112115777Y-115275000D01*
X111568061Y-115383948D01*
X111052124Y-115597656D01*
X110587793Y-115907912D01*
X110192912Y-116302793D01*
X109882656Y-116767124D01*
X109668948Y-117283061D01*
X109560000Y-117830777D01*
X103044273Y-117830777D01*
X75640000Y-101827423D01*
X75640000Y-100050777D01*
X75905000Y-100050777D01*
X75905000Y-100609223D01*
X76013948Y-101156939D01*
X76227656Y-101672876D01*
X76537912Y-102137207D01*
X76932793Y-102532088D01*
X77397124Y-102842344D01*
X77913061Y-103056052D01*
X78460777Y-103165000D01*
X79019223Y-103165000D01*
X79566939Y-103056052D01*
X80082876Y-102842344D01*
X80547207Y-102532088D01*
X80942088Y-102137207D01*
X81252344Y-101672876D01*
X81377799Y-101370000D01*
X101741638Y-101370000D01*
X101745001Y-101404145D01*
X101745000Y-104335865D01*
X101741638Y-104370000D01*
X101755057Y-104506244D01*
X101794798Y-104637252D01*
X101859333Y-104757989D01*
X101946183Y-104863817D01*
X102052011Y-104950667D01*
X102172748Y-105015202D01*
X102303756Y-105054943D01*
X102440000Y-105068362D01*
X102474134Y-105065000D01*
X105805866Y-105065000D01*
X105840000Y-105068362D01*
X105976244Y-105054943D01*
X106107252Y-105015202D01*
X106227989Y-104950667D01*
X106333817Y-104863817D01*
X106420667Y-104757989D01*
X106485202Y-104637252D01*
X106524943Y-104506244D01*
X106535000Y-104404135D01*
X106535000Y-104404134D01*
X106538362Y-104370000D01*
X106535000Y-104335865D01*
X106535000Y-101404135D01*
X106538362Y-101370000D01*
X106524943Y-101233756D01*
X106485202Y-101102748D01*
X106420667Y-100982011D01*
X106333817Y-100876183D01*
X106227989Y-100789333D01*
X106107252Y-100724798D01*
X105976244Y-100685057D01*
X105874135Y-100675000D01*
X105874134Y-100675000D01*
X105840000Y-100671638D01*
X105805865Y-100675000D01*
X102474135Y-100675000D01*
X102440000Y-100671638D01*
X102405866Y-100675000D01*
X102405865Y-100675000D01*
X102303756Y-100685057D01*
X102172748Y-100724798D01*
X102052011Y-100789333D01*
X101946183Y-100876183D01*
X101859333Y-100982011D01*
X101794798Y-101102748D01*
X101755057Y-101233756D01*
X101741638Y-101370000D01*
X81377799Y-101370000D01*
X81466052Y-101156939D01*
X81575000Y-100609223D01*
X81575000Y-100050777D01*
X81466052Y-99503061D01*
X81252344Y-98987124D01*
X80942088Y-98522793D01*
X80547207Y-98127912D01*
X80082876Y-97817656D01*
X79566939Y-97603948D01*
X79019223Y-97495000D01*
X78460777Y-97495000D01*
X77913061Y-97603948D01*
X77397124Y-97817656D01*
X76932793Y-98127912D01*
X76537912Y-98522793D01*
X76227656Y-98987124D01*
X76013948Y-99503061D01*
X75905000Y-100050777D01*
X75640000Y-100050777D01*
X75640000Y-92734000D01*
X83326638Y-92734000D01*
X83330001Y-92768145D01*
X83330000Y-95699865D01*
X83326638Y-95734000D01*
X83340057Y-95870244D01*
X83379798Y-96001252D01*
X83444333Y-96121989D01*
X83531183Y-96227817D01*
X83637011Y-96314667D01*
X83757748Y-96379202D01*
X83888756Y-96418943D01*
X84025000Y-96432362D01*
X84059134Y-96429000D01*
X87390866Y-96429000D01*
X87425000Y-96432362D01*
X87561244Y-96418943D01*
X87692252Y-96379202D01*
X87812989Y-96314667D01*
X87918817Y-96227817D01*
X88005667Y-96121989D01*
X88070202Y-96001252D01*
X88109943Y-95870244D01*
X88120000Y-95768135D01*
X88120000Y-95768134D01*
X88123362Y-95734000D01*
X88120000Y-95699865D01*
X88120000Y-92768135D01*
X88123362Y-92734000D01*
X88109943Y-92597756D01*
X88070202Y-92466748D01*
X88005667Y-92346011D01*
X87918817Y-92240183D01*
X87812989Y-92153333D01*
X87692252Y-92088798D01*
X87561244Y-92049057D01*
X87459135Y-92039000D01*
X87459134Y-92039000D01*
X87425000Y-92035638D01*
X87390865Y-92039000D01*
X84059135Y-92039000D01*
X84025000Y-92035638D01*
X83990866Y-92039000D01*
X83990865Y-92039000D01*
X83888756Y-92049057D01*
X83757748Y-92088798D01*
X83637011Y-92153333D01*
X83531183Y-92240183D01*
X83444333Y-92346011D01*
X83379798Y-92466748D01*
X83340057Y-92597756D01*
X83326638Y-92734000D01*
X75640000Y-92734000D01*
X75640000Y-67310000D01*
X80439565Y-67310000D01*
X80443001Y-67344887D01*
X80443000Y-85055123D01*
X80439565Y-85090000D01*
X80453273Y-85229184D01*
X80493872Y-85363020D01*
X80559800Y-85486363D01*
X80648525Y-85594475D01*
X80756637Y-85683200D01*
X80879980Y-85749128D01*
X81013816Y-85789727D01*
X81153000Y-85803435D01*
X81187877Y-85800000D01*
X108042123Y-85800000D01*
X108077000Y-85803435D01*
X108111877Y-85800000D01*
X108216184Y-85789727D01*
X108350020Y-85749128D01*
X108473363Y-85683200D01*
X108581475Y-85594475D01*
X108670200Y-85486363D01*
X108736128Y-85363020D01*
X108776727Y-85229184D01*
X108790435Y-85090000D01*
X108787000Y-85055123D01*
X108787000Y-67344877D01*
X108790435Y-67310000D01*
X108776727Y-67170816D01*
X108736128Y-67036980D01*
X108670200Y-66913637D01*
X108581475Y-66805525D01*
X108473363Y-66716800D01*
X108350020Y-66650872D01*
X108216184Y-66610273D01*
X108111877Y-66600000D01*
X108077000Y-66596565D01*
X108042123Y-66600000D01*
X81187877Y-66600000D01*
X81153000Y-66596565D01*
X81118123Y-66600000D01*
X81013816Y-66610273D01*
X80879980Y-66650872D01*
X80756637Y-66716800D01*
X80648525Y-66805525D01*
X80559800Y-66913637D01*
X80493872Y-67036980D01*
X80453273Y-67170816D01*
X80439565Y-67310000D01*
X75640000Y-67310000D01*
X75640000Y-53872000D01*
X83326638Y-53872000D01*
X83330001Y-53906145D01*
X83330000Y-56837865D01*
X83326638Y-56872000D01*
X83340057Y-57008244D01*
X83379798Y-57139252D01*
X83444333Y-57259989D01*
X83531183Y-57365817D01*
X83637011Y-57452667D01*
X83757748Y-57517202D01*
X83888756Y-57556943D01*
X84025000Y-57570362D01*
X84059134Y-57567000D01*
X87390866Y-57567000D01*
X87425000Y-57570362D01*
X87561244Y-57556943D01*
X87692252Y-57517202D01*
X87812989Y-57452667D01*
X87918817Y-57365817D01*
X88005667Y-57259989D01*
X88070202Y-57139252D01*
X88109943Y-57008244D01*
X88120000Y-56906135D01*
X88120000Y-56906134D01*
X88123362Y-56872000D01*
X88120000Y-56837865D01*
X88120000Y-53906135D01*
X88123362Y-53872000D01*
X101741638Y-53872000D01*
X101745001Y-53906145D01*
X101745000Y-56837865D01*
X101741638Y-56872000D01*
X101755057Y-57008244D01*
X101794798Y-57139252D01*
X101859333Y-57259989D01*
X101946183Y-57365817D01*
X102052011Y-57452667D01*
X102172748Y-57517202D01*
X102303756Y-57556943D01*
X102440000Y-57570362D01*
X102474134Y-57567000D01*
X105805866Y-57567000D01*
X105840000Y-57570362D01*
X105976244Y-57556943D01*
X106107252Y-57517202D01*
X106227989Y-57452667D01*
X106333817Y-57365817D01*
X106420667Y-57259989D01*
X106485202Y-57139252D01*
X106524943Y-57008244D01*
X106535000Y-56906135D01*
X106535000Y-56906134D01*
X106538362Y-56872000D01*
X106535000Y-56837865D01*
X106535000Y-53906135D01*
X106538362Y-53872000D01*
X106524943Y-53735756D01*
X106485202Y-53604748D01*
X106420667Y-53484011D01*
X106333817Y-53378183D01*
X106227989Y-53291333D01*
X106107252Y-53226798D01*
X105976244Y-53187057D01*
X105874135Y-53177000D01*
X105874134Y-53177000D01*
X105840000Y-53173638D01*
X105805865Y-53177000D01*
X102474135Y-53177000D01*
X102440000Y-53173638D01*
X102405866Y-53177000D01*
X102405865Y-53177000D01*
X102303756Y-53187057D01*
X102172748Y-53226798D01*
X102052011Y-53291333D01*
X101946183Y-53378183D01*
X101859333Y-53484011D01*
X101794798Y-53604748D01*
X101755057Y-53735756D01*
X101741638Y-53872000D01*
X88123362Y-53872000D01*
X88109943Y-53735756D01*
X88070202Y-53604748D01*
X88005667Y-53484011D01*
X87918817Y-53378183D01*
X87812989Y-53291333D01*
X87692252Y-53226798D01*
X87561244Y-53187057D01*
X87459135Y-53177000D01*
X87459134Y-53177000D01*
X87425000Y-53173638D01*
X87390865Y-53177000D01*
X84059135Y-53177000D01*
X84025000Y-53173638D01*
X83990866Y-53177000D01*
X83990865Y-53177000D01*
X83888756Y-53187057D01*
X83757748Y-53226798D01*
X83637011Y-53291333D01*
X83531183Y-53378183D01*
X83444333Y-53484011D01*
X83379798Y-53604748D01*
X83340057Y-53735756D01*
X83326638Y-53872000D01*
X75640000Y-53872000D01*
X75640000Y-51519775D01*
X110584830Y-51519775D01*
X110824976Y-51907018D01*
X111318877Y-52167641D01*
X111854133Y-52326901D01*
X112410174Y-52378678D01*
X112965632Y-52320981D01*
X113499161Y-52156028D01*
X113965024Y-51907018D01*
X114205170Y-51519775D01*
X112395000Y-49709605D01*
X110584830Y-51519775D01*
X75640000Y-51519775D01*
X75640000Y-50831618D01*
X75711842Y-50026642D01*
X75843556Y-49545174D01*
X109546322Y-49545174D01*
X109604019Y-50100632D01*
X109768972Y-50634161D01*
X110017982Y-51100024D01*
X110405225Y-51340170D01*
X112215395Y-49530000D01*
X110405225Y-47719830D01*
X110017982Y-47959976D01*
X109757359Y-48453877D01*
X109598099Y-48989133D01*
X109546322Y-49545174D01*
X75843556Y-49545174D01*
X75916723Y-49277723D01*
X76250986Y-48576928D01*
X76704069Y-47946395D01*
X77261645Y-47406066D01*
X77906099Y-46973011D01*
X78617044Y-46660927D01*
X79377493Y-46478360D01*
X80001139Y-46432562D01*
X80010000Y-46433435D01*
X80149183Y-46419727D01*
X80283019Y-46379128D01*
X80406362Y-46313200D01*
X80514474Y-46224475D01*
X80603200Y-46116363D01*
X80669128Y-45993020D01*
X80709727Y-45859184D01*
X80710927Y-45847000D01*
X81849073Y-45847000D01*
X81850273Y-45859184D01*
M02*
