G04 #@! TF.GenerationSoftware,KiCad,Pcbnew,5.1.5+dfsg1-2build2*
G04 #@! TF.CreationDate,2020-12-19T04:00:09+09:00*
G04 #@! TF.ProjectId,shield,73686965-6c64-42e6-9b69-6361645f7063,rev?*
G04 #@! TF.SameCoordinates,Original*
G04 #@! TF.FileFunction,Profile,NP*
%FSLAX46Y46*%
G04 Gerber Fmt 4.6, Leading zero omitted, Abs format (unit mm)*
G04 Created by KiCad (PCBNEW 5.1.5+dfsg1-2build2) date 2020-12-19 04:00:09*
%MOMM*%
%LPD*%
G04 APERTURE LIST*
%ADD10C,0.150000*%
%ADD11C,0.120000*%
G04 APERTURE END LIST*
D10*
X38735000Y-43180000D02*
X38735000Y-45720000D01*
X64770000Y-43180000D02*
X38735000Y-43180000D01*
X64770000Y-45720000D02*
X64770000Y-43180000D01*
X67310000Y-43180000D02*
X67310000Y-45720000D01*
X80010000Y-43180000D02*
X67310000Y-43180000D01*
X80010000Y-45720000D02*
X80010000Y-43180000D01*
X82550000Y-43180000D02*
X82550000Y-45720000D01*
X108585000Y-43180000D02*
X82550000Y-43180000D01*
X108585000Y-45720000D02*
X108585000Y-43180000D01*
X111125000Y-40640000D02*
X111125000Y-45720000D01*
X36195000Y-40640000D02*
X111125000Y-40640000D01*
X36195000Y-45720000D02*
X36195000Y-40640000D01*
X82550000Y-45720000D02*
X108585000Y-45720000D01*
X74930000Y-50800000D02*
G75*
G02X80010000Y-45720000I5080000J0D01*
G01*
X111125000Y-45720000D02*
G75*
G02X116205000Y-50800000I0J-5080000D01*
G01*
X112529077Y-124191845D02*
G75*
G03X116205000Y-121920000I1135923J2271845D01*
G01*
X116205000Y-121920000D02*
X116205000Y-50800000D01*
X112529077Y-124191845D02*
X74930000Y-102235000D01*
X74930000Y-102235000D02*
X74930000Y-50800000D01*
X81153000Y-67310000D02*
X108077000Y-67310000D01*
X108077000Y-67310000D02*
X108077000Y-85090000D01*
X108077000Y-85090000D02*
X81153000Y-85090000D01*
X81153000Y-85090000D02*
X81153000Y-67310000D01*
X64262000Y-85090000D02*
X37338000Y-85090000D01*
X37338000Y-85090000D02*
X37338000Y-67310000D01*
X64262000Y-67310000D02*
X64262000Y-85090000D01*
X37338000Y-67310000D02*
X64262000Y-67310000D01*
X31115000Y-102235000D02*
X31115000Y-50800000D01*
X68714077Y-124191845D02*
X31115000Y-102235000D01*
X72390000Y-121920000D02*
X72390000Y-50800000D01*
X68714077Y-124191845D02*
G75*
G03X72390000Y-121920000I1135923J2271845D01*
G01*
X67310000Y-45720000D02*
G75*
G02X72390000Y-50800000I0J-5080000D01*
G01*
X31115000Y-50800000D02*
G75*
G02X36195000Y-45720000I5080000J0D01*
G01*
X38735000Y-45720000D02*
X64770000Y-45720000D01*
X29606666Y-45085000D02*
G75*
G03X29606666Y-45085000I-1666666J0D01*
G01*
X25440000Y-45085000D02*
X30440000Y-45085000D01*
X27940000Y-42585000D02*
X27940000Y-47585000D01*
D11*
X87425000Y-92734000D02*
X87425000Y-95734000D01*
X87425000Y-95734000D02*
X84025000Y-95734000D01*
X84025000Y-95734000D02*
X84025000Y-92734000D01*
X84025000Y-92734000D02*
X87425000Y-92734000D01*
X105840000Y-101370000D02*
X105840000Y-104370000D01*
X105840000Y-104370000D02*
X102440000Y-104370000D01*
X102440000Y-104370000D02*
X102440000Y-101370000D01*
X102440000Y-101370000D02*
X105840000Y-101370000D01*
X87425000Y-53872000D02*
X87425000Y-56872000D01*
X87425000Y-56872000D02*
X84025000Y-56872000D01*
X84025000Y-56872000D02*
X84025000Y-53872000D01*
X84025000Y-53872000D02*
X87425000Y-53872000D01*
X105840000Y-53872000D02*
X105840000Y-56872000D01*
X105840000Y-56872000D02*
X102440000Y-56872000D01*
X102440000Y-56872000D02*
X102440000Y-53872000D01*
X102440000Y-53872000D02*
X105840000Y-53872000D01*
X40210000Y-92734000D02*
X43610000Y-92734000D01*
X40210000Y-95734000D02*
X40210000Y-92734000D01*
X43610000Y-95734000D02*
X40210000Y-95734000D01*
X43610000Y-92734000D02*
X43610000Y-95734000D01*
X40210000Y-53872000D02*
X43610000Y-53872000D01*
X40210000Y-56872000D02*
X40210000Y-53872000D01*
X43610000Y-56872000D02*
X40210000Y-56872000D01*
X43610000Y-53872000D02*
X43610000Y-56872000D01*
X58625000Y-101370000D02*
X62025000Y-101370000D01*
X58625000Y-104370000D02*
X58625000Y-101370000D01*
X62025000Y-104370000D02*
X58625000Y-104370000D01*
X62025000Y-101370000D02*
X62025000Y-104370000D01*
X58625000Y-53872000D02*
X62025000Y-53872000D01*
X58625000Y-56872000D02*
X58625000Y-53872000D01*
X62025000Y-56872000D02*
X58625000Y-56872000D01*
X62025000Y-53872000D02*
X62025000Y-56872000D01*
M02*
