G04 #@! TF.GenerationSoftware,KiCad,Pcbnew,5.1.5+dfsg1-2build2*
G04 #@! TF.CreationDate,2020-12-13T19:03:44+09:00*
G04 #@! TF.ProjectId,shield,73686965-6c64-42e6-9b69-6361645f7063,rev?*
G04 #@! TF.SameCoordinates,Original*
G04 #@! TF.FileFunction,Profile,NP*
%FSLAX46Y46*%
G04 Gerber Fmt 4.6, Leading zero omitted, Abs format (unit mm)*
G04 Created by KiCad (PCBNEW 5.1.5+dfsg1-2build2) date 2020-12-13 19:03:44*
%MOMM*%
%LPD*%
G04 APERTURE LIST*
%ADD10C,0.150000*%
%ADD11C,0.120000*%
G04 APERTURE END LIST*
D10*
X56515000Y-69215000D02*
X56515000Y-88900000D01*
X56515000Y-66675000D02*
X59055000Y-66675000D01*
X59055000Y-69215000D02*
X56515000Y-69215000D01*
X56515000Y-20955000D02*
X59055000Y-20955000D01*
X56515000Y-17780000D02*
X59055000Y-17780000D01*
X64135000Y-12700000D02*
X95250000Y-12700000D01*
X59055000Y-17780000D02*
G75*
G02X64135000Y-12700000I5080000J0D01*
G01*
X95250000Y-12700000D02*
G75*
G02X100330000Y-17780000I0J-5080000D01*
G01*
X96654077Y-91171845D02*
G75*
G03X100330000Y-88900000I1135923J2271845D01*
G01*
X100330000Y-88900000D02*
X100330000Y-17780000D01*
X96654077Y-91171845D02*
X59055000Y-69215000D01*
X59055000Y-66675000D02*
X59055000Y-20955000D01*
X65278000Y-34290000D02*
X92202000Y-34290000D01*
X92202000Y-34290000D02*
X92202000Y-52070000D01*
X92202000Y-52070000D02*
X65278000Y-52070000D01*
X65278000Y-52070000D02*
X65278000Y-34290000D01*
X48387000Y-52070000D02*
X21463000Y-52070000D01*
X21463000Y-52070000D02*
X21463000Y-34290000D01*
X48387000Y-34290000D02*
X48387000Y-52070000D01*
X21463000Y-34290000D02*
X48387000Y-34290000D01*
X15240000Y-69215000D02*
X15240000Y-17780000D01*
X52839077Y-91171845D02*
X15240000Y-69215000D01*
X56515000Y-66675000D02*
X56515000Y-20955000D01*
X52839077Y-91171845D02*
G75*
G03X56515000Y-88900000I1135923J2271845D01*
G01*
X51435000Y-12700000D02*
G75*
G02X56515000Y-17780000I0J-5080000D01*
G01*
X15240000Y-17780000D02*
G75*
G02X20320000Y-12700000I5080000J0D01*
G01*
X20320000Y-12700000D02*
X51435000Y-12700000D01*
X13731666Y-12065000D02*
G75*
G03X13731666Y-12065000I-1666666J0D01*
G01*
X9565000Y-12065000D02*
X14565000Y-12065000D01*
X12065000Y-9565000D02*
X12065000Y-14565000D01*
D11*
X71550000Y-59714000D02*
X71550000Y-62714000D01*
X71550000Y-62714000D02*
X68150000Y-62714000D01*
X68150000Y-62714000D02*
X68150000Y-59714000D01*
X68150000Y-59714000D02*
X71550000Y-59714000D01*
X89965000Y-68350000D02*
X89965000Y-71350000D01*
X89965000Y-71350000D02*
X86565000Y-71350000D01*
X86565000Y-71350000D02*
X86565000Y-68350000D01*
X86565000Y-68350000D02*
X89965000Y-68350000D01*
X71550000Y-20852000D02*
X71550000Y-23852000D01*
X71550000Y-23852000D02*
X68150000Y-23852000D01*
X68150000Y-23852000D02*
X68150000Y-20852000D01*
X68150000Y-20852000D02*
X71550000Y-20852000D01*
X89965000Y-20852000D02*
X89965000Y-23852000D01*
X89965000Y-23852000D02*
X86565000Y-23852000D01*
X86565000Y-23852000D02*
X86565000Y-20852000D01*
X86565000Y-20852000D02*
X89965000Y-20852000D01*
X24335000Y-59714000D02*
X27735000Y-59714000D01*
X24335000Y-62714000D02*
X24335000Y-59714000D01*
X27735000Y-62714000D02*
X24335000Y-62714000D01*
X27735000Y-59714000D02*
X27735000Y-62714000D01*
X24335000Y-20852000D02*
X27735000Y-20852000D01*
X24335000Y-23852000D02*
X24335000Y-20852000D01*
X27735000Y-23852000D02*
X24335000Y-23852000D01*
X27735000Y-20852000D02*
X27735000Y-23852000D01*
X42750000Y-68350000D02*
X46150000Y-68350000D01*
X42750000Y-71350000D02*
X42750000Y-68350000D01*
X46150000Y-71350000D02*
X42750000Y-71350000D01*
X46150000Y-68350000D02*
X46150000Y-71350000D01*
X42750000Y-20852000D02*
X46150000Y-20852000D01*
X42750000Y-23852000D02*
X42750000Y-20852000D01*
X46150000Y-23852000D02*
X42750000Y-23852000D01*
X46150000Y-20852000D02*
X46150000Y-23852000D01*
M02*
