M48
; DRILL file {KiCad 5.1.5+dfsg1-2build2} date 2020年12月13日 19時03分48秒
; FORMAT={-:-/ absolute / inch / decimal}
; #@! TF.CreationDate,2020-12-13T19:03:48+09:00
; #@! TF.GenerationSoftware,Kicad,Pcbnew,5.1.5+dfsg1-2build2
FMAT,2
INCH
T1C0.0157
T2C0.0866
%
G90
G05
T1
X1.125Y-0.91
X1.125Y-2.44
X1.45Y-1.15
X1.55Y-2.275
X1.85Y-0.91
X1.85Y-2.78
X2.85Y-0.91
X2.85Y-2.44
X3.175Y-1.15
X3.275Y-2.275
X3.575Y-0.91
X3.575Y-2.78
X0.685Y-2.65
X0.7041Y-2.6041
X0.7041Y-2.6959
X0.75Y-2.585
X0.75Y-2.715
X0.7959Y-2.6041
X0.7959Y-2.6959
X0.815Y-2.65
X2.41Y-2.65
X2.4291Y-2.6041
X2.4291Y-2.6959
X2.475Y-2.585
X2.475Y-2.715
X2.5209Y-2.6041
X2.5209Y-2.6959
X2.54Y-2.65
X3.735Y-0.65
X3.7541Y-0.6041
X3.7541Y-0.6959
X3.8Y-0.585
X3.8Y-0.715
X3.8459Y-0.6041
X3.8459Y-0.6959
X3.865Y-0.65
X3.735Y-3.35
X3.7541Y-3.3041
X3.7541Y-3.3959
X3.8Y-3.285
X3.8Y-3.415
X3.8459Y-3.3041
X3.8459Y-3.3959
X3.865Y-3.35
X2.01Y-0.65
X2.0291Y-0.6041
X2.0291Y-0.6959
X2.075Y-0.585
X2.075Y-0.715
X2.1209Y-0.6041
X2.1209Y-0.6959
X2.14Y-0.65
X2.01Y-3.35
X2.0291Y-3.3041
X2.0291Y-3.3959
X2.075Y-3.285
X2.075Y-3.415
X2.1209Y-3.3041
X2.1209Y-3.3959
X2.14Y-3.35
T2
X3.8Y-3.35
X2.075Y-0.65
X2.075Y-3.35
X0.75Y-2.65
X2.475Y-2.65
X3.8Y-0.65
T0
M30
