G04 #@! TF.GenerationSoftware,KiCad,Pcbnew,5.1.5+dfsg1-2build2*
G04 #@! TF.CreationDate,2020-12-13T19:03:44+09:00*
G04 #@! TF.ProjectId,shield,73686965-6c64-42e6-9b69-6361645f7063,rev?*
G04 #@! TF.SameCoordinates,Original*
G04 #@! TF.FileFunction,Legend,Bot*
G04 #@! TF.FilePolarity,Positive*
%FSLAX46Y46*%
G04 Gerber Fmt 4.6, Leading zero omitted, Abs format (unit mm)*
G04 Created by KiCad (PCBNEW 5.1.5+dfsg1-2build2) date 2020-12-13 19:03:44*
%MOMM*%
%LPD*%
G04 APERTURE LIST*
%ADD10C,0.150000*%
G04 APERTURE END LIST*
D10*
G36*
X73660000Y-62230000D02*
G01*
X72644000Y-63246000D01*
X73660000Y-63246000D01*
X73660000Y-62230000D01*
G37*
X73660000Y-62230000D02*
X72644000Y-63246000D01*
X73660000Y-63246000D01*
X73660000Y-62230000D01*
G36*
X92075000Y-70866000D02*
G01*
X91059000Y-71882000D01*
X92075000Y-71882000D01*
X92075000Y-70866000D01*
G37*
X92075000Y-70866000D02*
X91059000Y-71882000D01*
X92075000Y-71882000D01*
X92075000Y-70866000D01*
G36*
X73660000Y-23368000D02*
G01*
X72644000Y-24384000D01*
X73660000Y-24384000D01*
X73660000Y-23368000D01*
G37*
X73660000Y-23368000D02*
X72644000Y-24384000D01*
X73660000Y-24384000D01*
X73660000Y-23368000D01*
G36*
X92075000Y-23368000D02*
G01*
X91059000Y-24384000D01*
X92075000Y-24384000D01*
X92075000Y-23368000D01*
G37*
X92075000Y-23368000D02*
X91059000Y-24384000D01*
X92075000Y-24384000D01*
X92075000Y-23368000D01*
G36*
X29845000Y-62230000D02*
G01*
X28829000Y-63246000D01*
X29845000Y-63246000D01*
X29845000Y-62230000D01*
G37*
X29845000Y-62230000D02*
X28829000Y-63246000D01*
X29845000Y-63246000D01*
X29845000Y-62230000D01*
G36*
X29845000Y-23368000D02*
G01*
X28829000Y-24384000D01*
X29845000Y-24384000D01*
X29845000Y-23368000D01*
G37*
X29845000Y-23368000D02*
X28829000Y-24384000D01*
X29845000Y-24384000D01*
X29845000Y-23368000D01*
G36*
X48260000Y-70866000D02*
G01*
X47244000Y-71882000D01*
X48260000Y-71882000D01*
X48260000Y-70866000D01*
G37*
X48260000Y-70866000D02*
X47244000Y-71882000D01*
X48260000Y-71882000D01*
X48260000Y-70866000D01*
G36*
X48260000Y-23368000D02*
G01*
X47244000Y-24384000D01*
X48260000Y-24384000D01*
X48260000Y-23368000D01*
G37*
X48260000Y-23368000D02*
X47244000Y-24384000D01*
X48260000Y-24384000D01*
X48260000Y-23368000D01*
M02*
