G04 #@! TF.GenerationSoftware,KiCad,Pcbnew,5.1.5+dfsg1-2build2*
G04 #@! TF.CreationDate,2020-12-19T04:00:09+09:00*
G04 #@! TF.ProjectId,shield,73686965-6c64-42e6-9b69-6361645f7063,rev?*
G04 #@! TF.SameCoordinates,Original*
G04 #@! TF.FileFunction,Legend,Bot*
G04 #@! TF.FilePolarity,Positive*
%FSLAX46Y46*%
G04 Gerber Fmt 4.6, Leading zero omitted, Abs format (unit mm)*
G04 Created by KiCad (PCBNEW 5.1.5+dfsg1-2build2) date 2020-12-19 04:00:09*
%MOMM*%
%LPD*%
G04 APERTURE LIST*
%ADD10C,0.150000*%
G04 APERTURE END LIST*
D10*
G36*
X89535000Y-95250000D02*
G01*
X88519000Y-96266000D01*
X89535000Y-96266000D01*
X89535000Y-95250000D01*
G37*
X89535000Y-95250000D02*
X88519000Y-96266000D01*
X89535000Y-96266000D01*
X89535000Y-95250000D01*
G36*
X107950000Y-103886000D02*
G01*
X106934000Y-104902000D01*
X107950000Y-104902000D01*
X107950000Y-103886000D01*
G37*
X107950000Y-103886000D02*
X106934000Y-104902000D01*
X107950000Y-104902000D01*
X107950000Y-103886000D01*
G36*
X89535000Y-56388000D02*
G01*
X88519000Y-57404000D01*
X89535000Y-57404000D01*
X89535000Y-56388000D01*
G37*
X89535000Y-56388000D02*
X88519000Y-57404000D01*
X89535000Y-57404000D01*
X89535000Y-56388000D01*
G36*
X107950000Y-56388000D02*
G01*
X106934000Y-57404000D01*
X107950000Y-57404000D01*
X107950000Y-56388000D01*
G37*
X107950000Y-56388000D02*
X106934000Y-57404000D01*
X107950000Y-57404000D01*
X107950000Y-56388000D01*
G36*
X45720000Y-95250000D02*
G01*
X44704000Y-96266000D01*
X45720000Y-96266000D01*
X45720000Y-95250000D01*
G37*
X45720000Y-95250000D02*
X44704000Y-96266000D01*
X45720000Y-96266000D01*
X45720000Y-95250000D01*
G36*
X45720000Y-56388000D02*
G01*
X44704000Y-57404000D01*
X45720000Y-57404000D01*
X45720000Y-56388000D01*
G37*
X45720000Y-56388000D02*
X44704000Y-57404000D01*
X45720000Y-57404000D01*
X45720000Y-56388000D01*
G36*
X64135000Y-103886000D02*
G01*
X63119000Y-104902000D01*
X64135000Y-104902000D01*
X64135000Y-103886000D01*
G37*
X64135000Y-103886000D02*
X63119000Y-104902000D01*
X64135000Y-104902000D01*
X64135000Y-103886000D01*
G36*
X64135000Y-56388000D02*
G01*
X63119000Y-57404000D01*
X64135000Y-57404000D01*
X64135000Y-56388000D01*
G37*
X64135000Y-56388000D02*
X63119000Y-57404000D01*
X64135000Y-57404000D01*
X64135000Y-56388000D01*
M02*
