G04 #@! TF.GenerationSoftware,KiCad,Pcbnew,5.1.5+dfsg1-2build2*
G04 #@! TF.CreationDate,2020-12-13T19:03:44+09:00*
G04 #@! TF.ProjectId,shield,73686965-6c64-42e6-9b69-6361645f7063,rev?*
G04 #@! TF.SameCoordinates,Original*
G04 #@! TF.FileFunction,Copper,L2,Bot*
G04 #@! TF.FilePolarity,Positive*
%FSLAX46Y46*%
G04 Gerber Fmt 4.6, Leading zero omitted, Abs format (unit mm)*
G04 Created by KiCad (PCBNEW 5.1.5+dfsg1-2build2) date 2020-12-13 19:03:44*
%MOMM*%
%LPD*%
G04 APERTURE LIST*
%ADD10C,4.400000*%
%ADD11C,0.700000*%
%ADD12R,1.800000X0.820000*%
%ADD13C,0.800000*%
%ADD14C,0.400000*%
%ADD15C,0.250000*%
%ADD16C,0.254000*%
G04 APERTURE END LIST*
D10*
X62865000Y-67310000D03*
D11*
X61215000Y-67310000D03*
X61698274Y-68476726D03*
X62865000Y-68960000D03*
X64031726Y-68476726D03*
X64515000Y-67310000D03*
X64031726Y-66143274D03*
X62865000Y-65660000D03*
X61698274Y-66143274D03*
D10*
X96520000Y-85090000D03*
D11*
X94870000Y-85090000D03*
X95353274Y-86256726D03*
X96520000Y-86740000D03*
X97686726Y-86256726D03*
X98170000Y-85090000D03*
X97686726Y-83923274D03*
X96520000Y-83440000D03*
X95353274Y-83923274D03*
D12*
X72350000Y-60464000D03*
X72350000Y-61964000D03*
X67350000Y-61964000D03*
X67350000Y-60464000D03*
X90765000Y-69100000D03*
X90765000Y-70600000D03*
X85765000Y-70600000D03*
X85765000Y-69100000D03*
X72350000Y-21602000D03*
X72350000Y-23102000D03*
X67350000Y-23102000D03*
X67350000Y-21602000D03*
X90765000Y-21602000D03*
X90765000Y-23102000D03*
X85765000Y-23102000D03*
X85765000Y-21602000D03*
D11*
X95353274Y-15343274D03*
X96520000Y-14860000D03*
X97686726Y-15343274D03*
X98170000Y-16510000D03*
X97686726Y-17676726D03*
X96520000Y-18160000D03*
X95353274Y-17676726D03*
X94870000Y-16510000D03*
D10*
X96520000Y-16510000D03*
D11*
X17883274Y-66143274D03*
X19050000Y-65660000D03*
X20216726Y-66143274D03*
X20700000Y-67310000D03*
X20216726Y-68476726D03*
X19050000Y-68960000D03*
X17883274Y-68476726D03*
X17400000Y-67310000D03*
D10*
X19050000Y-67310000D03*
D11*
X51538274Y-83923274D03*
X52705000Y-83440000D03*
X53871726Y-83923274D03*
X54355000Y-85090000D03*
X53871726Y-86256726D03*
X52705000Y-86740000D03*
X51538274Y-86256726D03*
X51055000Y-85090000D03*
D10*
X52705000Y-85090000D03*
X52705000Y-16510000D03*
D11*
X51055000Y-16510000D03*
X51538274Y-17676726D03*
X52705000Y-18160000D03*
X53871726Y-17676726D03*
X54355000Y-16510000D03*
X53871726Y-15343274D03*
X52705000Y-14860000D03*
X51538274Y-15343274D03*
D12*
X23535000Y-60464000D03*
X23535000Y-61964000D03*
X28535000Y-61964000D03*
X28535000Y-60464000D03*
X23535000Y-21602000D03*
X23535000Y-23102000D03*
X28535000Y-23102000D03*
X28535000Y-21602000D03*
X41950000Y-69100000D03*
X41950000Y-70600000D03*
X46950000Y-70600000D03*
X46950000Y-69100000D03*
X41950000Y-21602000D03*
X41950000Y-23102000D03*
X46950000Y-23102000D03*
X46950000Y-21602000D03*
D13*
X28575000Y-23114000D03*
X46990000Y-23114000D03*
X46990000Y-70612000D03*
X28575000Y-61976000D03*
X39370000Y-57785000D03*
X36830000Y-29210000D03*
X72390000Y-23114000D03*
X90805000Y-23114000D03*
X90805000Y-70612000D03*
X72390000Y-61976000D03*
X83185000Y-57785000D03*
X80645000Y-29210000D03*
D14*
X22235000Y-21602000D02*
X23535000Y-21602000D01*
X20987990Y-22849010D02*
X22235000Y-21602000D01*
X23535000Y-59654000D02*
X20987990Y-57106990D01*
X23535000Y-60464000D02*
X23535000Y-59654000D01*
X41950000Y-68290000D02*
X41950000Y-69100000D01*
X50165000Y-60075000D02*
X41950000Y-68290000D01*
X47769992Y-20391990D02*
X50165000Y-22786998D01*
X42559458Y-20391990D02*
X47769992Y-20391990D01*
X41950000Y-21001448D02*
X42559458Y-20391990D01*
X41950000Y-21602000D02*
X41950000Y-21001448D01*
X41950000Y-20792000D02*
X41950000Y-21602000D01*
X41099980Y-19941980D02*
X41950000Y-20792000D01*
X22410068Y-19941980D02*
X41099980Y-19941980D01*
X19050000Y-23302048D02*
X22410068Y-19941980D01*
X19050000Y-67310000D02*
X19050000Y-23302048D01*
X50165000Y-24765000D02*
X21020980Y-24765000D01*
X20987990Y-24732010D02*
X20987990Y-22849010D01*
X20987990Y-57106990D02*
X20987990Y-24732010D01*
X50165000Y-22786998D02*
X50165000Y-24765000D01*
X21020980Y-24765000D02*
X20987990Y-24732010D01*
X50165000Y-24765000D02*
X50165000Y-60075000D01*
X86374458Y-20391990D02*
X91584992Y-20391990D01*
X85765000Y-21001448D02*
X86374458Y-20391990D01*
X85765000Y-21602000D02*
X85765000Y-21001448D01*
X85765000Y-20792000D02*
X85765000Y-21602000D01*
X84914980Y-19941980D02*
X85765000Y-20792000D01*
X64835980Y-24765000D02*
X64802990Y-24732010D01*
X93980000Y-24765000D02*
X93980000Y-60075000D01*
X67350000Y-59654000D02*
X64802990Y-57106990D01*
X67350000Y-60464000D02*
X67350000Y-59654000D01*
X85765000Y-68290000D02*
X85765000Y-69100000D01*
X93980000Y-60075000D02*
X85765000Y-68290000D01*
X91584992Y-20391990D02*
X93980000Y-22786998D01*
X66225068Y-19941980D02*
X84914980Y-19941980D01*
X62865000Y-23302048D02*
X66225068Y-19941980D01*
X66050000Y-21602000D02*
X67350000Y-21602000D01*
X64802990Y-22849010D02*
X66050000Y-21602000D01*
X64802990Y-24732010D02*
X64802990Y-22849010D01*
X64802990Y-57106990D02*
X64802990Y-24732010D01*
X62865000Y-67310000D02*
X62865000Y-23302048D01*
X93980000Y-22786998D02*
X93980000Y-24765000D01*
X93980000Y-24765000D02*
X64835980Y-24765000D01*
D15*
X48100000Y-69100000D02*
X46950000Y-69100000D01*
X52705000Y-73705000D02*
X48100000Y-69100000D01*
X52705000Y-85090000D02*
X52705000Y-73705000D01*
X91915000Y-69100000D02*
X90765000Y-69100000D01*
X96520000Y-73705000D02*
X91915000Y-69100000D01*
X96520000Y-85090000D02*
X96520000Y-73705000D01*
X29685000Y-60464000D02*
X28535000Y-60464000D01*
X30664000Y-60464000D02*
X29685000Y-60464000D01*
X40800000Y-70600000D02*
X30664000Y-60464000D01*
X41950000Y-70600000D02*
X40800000Y-70600000D01*
X85765000Y-70600000D02*
X84615000Y-70600000D01*
X73500000Y-60464000D02*
X72350000Y-60464000D01*
X74479000Y-60464000D02*
X73500000Y-60464000D01*
X84615000Y-70600000D02*
X74479000Y-60464000D01*
X22385000Y-61964000D02*
X23535000Y-61964000D01*
X20462980Y-60041980D02*
X22385000Y-61964000D01*
X22627534Y-20466990D02*
X20462980Y-22631544D01*
X28059990Y-20466990D02*
X22627534Y-20466990D01*
X28535000Y-20942000D02*
X28059990Y-20466990D01*
X20462980Y-22631544D02*
X20462980Y-60041980D01*
X28535000Y-21602000D02*
X28535000Y-20942000D01*
X64277980Y-22631544D02*
X64277980Y-60041980D01*
X72350000Y-21602000D02*
X72350000Y-20942000D01*
X66200000Y-61964000D02*
X67350000Y-61964000D01*
X64277980Y-60041980D02*
X66200000Y-61964000D01*
X66442534Y-20466990D02*
X64277980Y-22631544D01*
X71874990Y-20466990D02*
X66442534Y-20466990D01*
X72350000Y-20942000D02*
X71874990Y-20466990D01*
X48100000Y-21602000D02*
X46950000Y-21602000D01*
X48260000Y-21762000D02*
X48100000Y-21602000D01*
X48260000Y-23687002D02*
X48260000Y-21762000D01*
X47709992Y-24237010D02*
X48260000Y-23687002D01*
X24010010Y-24237010D02*
X47709992Y-24237010D01*
X23535000Y-23762000D02*
X24010010Y-24237010D01*
X23535000Y-23102000D02*
X23535000Y-23762000D01*
X67825010Y-24237010D02*
X91524992Y-24237010D01*
X67350000Y-23762000D02*
X67825010Y-24237010D01*
X67350000Y-23102000D02*
X67350000Y-23762000D01*
X91915000Y-21602000D02*
X90765000Y-21602000D01*
X92075000Y-21762000D02*
X91915000Y-21602000D01*
X92075000Y-23687002D02*
X92075000Y-21762000D01*
X91524992Y-24237010D02*
X92075000Y-23687002D01*
D16*
G36*
X52208358Y-13481842D02*
G01*
X52954526Y-13685970D01*
X52689826Y-13661322D01*
X52134368Y-13719019D01*
X51600839Y-13883972D01*
X51134976Y-14132982D01*
X50894830Y-14520225D01*
X52705000Y-16330395D01*
X52719143Y-16316253D01*
X52898748Y-16495858D01*
X52884605Y-16510000D01*
X54694775Y-18320170D01*
X55082018Y-18080024D01*
X55342641Y-17586123D01*
X55501901Y-17050867D01*
X55553678Y-16494826D01*
X55532690Y-16292773D01*
X55574073Y-16387044D01*
X55756640Y-17147493D01*
X55802438Y-17771139D01*
X55801565Y-17780000D01*
X55815273Y-17919184D01*
X55855872Y-18053020D01*
X55921800Y-18176363D01*
X56010525Y-18284475D01*
X56118637Y-18373200D01*
X56241980Y-18439128D01*
X56375816Y-18479727D01*
X56480123Y-18490000D01*
X59089877Y-18490000D01*
X59194184Y-18479727D01*
X59328020Y-18439128D01*
X59451363Y-18373200D01*
X59559475Y-18284475D01*
X59648200Y-18176363D01*
X59714128Y-18053020D01*
X59754727Y-17919184D01*
X59768435Y-17780000D01*
X59768113Y-17776734D01*
X59836842Y-17006642D01*
X59968556Y-16525174D01*
X93671322Y-16525174D01*
X93729019Y-17080632D01*
X93893972Y-17614161D01*
X94142982Y-18080024D01*
X94530225Y-18320170D01*
X96340395Y-16510000D01*
X94530225Y-14699830D01*
X94142982Y-14939976D01*
X93882359Y-15433877D01*
X93723099Y-15969133D01*
X93671322Y-16525174D01*
X59968556Y-16525174D01*
X60041723Y-16257723D01*
X60375986Y-15556928D01*
X60829069Y-14926395D01*
X61386645Y-14386066D01*
X62031099Y-13953011D01*
X62742044Y-13640927D01*
X63502493Y-13458360D01*
X64161031Y-13410000D01*
X95218382Y-13410000D01*
X96023358Y-13481842D01*
X96769526Y-13685970D01*
X96504826Y-13661322D01*
X95949368Y-13719019D01*
X95415839Y-13883972D01*
X94949976Y-14132982D01*
X94709830Y-14520225D01*
X96520000Y-16330395D01*
X96534143Y-16316253D01*
X96713748Y-16495858D01*
X96699605Y-16510000D01*
X98509775Y-18320170D01*
X98897018Y-18080024D01*
X99157641Y-17586123D01*
X99316901Y-17050867D01*
X99368678Y-16494826D01*
X99347690Y-16292773D01*
X99389073Y-16387044D01*
X99571640Y-17147493D01*
X99620001Y-17806044D01*
X99620000Y-84991477D01*
X99585960Y-89212449D01*
X99581809Y-89254784D01*
X99478771Y-89596063D01*
X99311409Y-89910825D01*
X99086097Y-90187083D01*
X98811418Y-90414317D01*
X98497838Y-90583869D01*
X98157288Y-90689287D01*
X97802749Y-90726550D01*
X97447731Y-90694242D01*
X97085884Y-90587744D01*
X96979984Y-90539967D01*
X59461786Y-68630354D01*
X59451363Y-68621800D01*
X59401486Y-68595140D01*
X59382923Y-68584300D01*
X59370751Y-68578712D01*
X59328020Y-68555872D01*
X59307322Y-68549593D01*
X59287669Y-68540571D01*
X59240554Y-68529339D01*
X59194184Y-68515273D01*
X59172654Y-68513153D01*
X59151623Y-68508139D01*
X59103220Y-68506314D01*
X59089877Y-68505000D01*
X59068364Y-68505000D01*
X59011867Y-68502870D01*
X58998556Y-68505000D01*
X56549877Y-68505000D01*
X56515000Y-68501565D01*
X56480123Y-68505000D01*
X56375816Y-68515273D01*
X56241980Y-68555872D01*
X56118637Y-68621800D01*
X56010525Y-68710525D01*
X55921800Y-68818637D01*
X55855872Y-68941980D01*
X55815273Y-69075816D01*
X55801565Y-69215000D01*
X55805000Y-69249876D01*
X55805001Y-88865269D01*
X55766809Y-89254784D01*
X55663771Y-89596063D01*
X55496409Y-89910825D01*
X55271097Y-90187083D01*
X54996418Y-90414317D01*
X54682838Y-90583869D01*
X54342288Y-90689287D01*
X53987749Y-90726550D01*
X53632731Y-90694242D01*
X53270884Y-90587744D01*
X53164984Y-90539967D01*
X15950000Y-68807423D01*
X15950000Y-67030777D01*
X16215000Y-67030777D01*
X16215000Y-67589223D01*
X16323948Y-68136939D01*
X16537656Y-68652876D01*
X16847912Y-69117207D01*
X17242793Y-69512088D01*
X17707124Y-69822344D01*
X18223061Y-70036052D01*
X18770777Y-70145000D01*
X19329223Y-70145000D01*
X19876939Y-70036052D01*
X20392876Y-69822344D01*
X20857207Y-69512088D01*
X21252088Y-69117207D01*
X21562344Y-68652876D01*
X21776052Y-68136939D01*
X21885000Y-67589223D01*
X21885000Y-67030777D01*
X21776052Y-66483061D01*
X21562344Y-65967124D01*
X21252088Y-65502793D01*
X20857207Y-65107912D01*
X20392876Y-64797656D01*
X19885000Y-64587287D01*
X19885000Y-60535703D01*
X19899181Y-60552982D01*
X19922980Y-60581981D01*
X19951978Y-60605779D01*
X21821201Y-62475003D01*
X21844999Y-62504001D01*
X21960724Y-62598974D01*
X22065035Y-62654730D01*
X22104463Y-62728494D01*
X22183815Y-62825185D01*
X22280506Y-62904537D01*
X22390820Y-62963502D01*
X22510518Y-62999812D01*
X22635000Y-63012072D01*
X23706272Y-63012072D01*
X23754333Y-63101989D01*
X23841183Y-63207817D01*
X23947011Y-63294667D01*
X24067748Y-63359202D01*
X24198756Y-63398943D01*
X24335000Y-63412362D01*
X24369134Y-63409000D01*
X27700866Y-63409000D01*
X27735000Y-63412362D01*
X27871244Y-63398943D01*
X28002252Y-63359202D01*
X28122989Y-63294667D01*
X28228817Y-63207817D01*
X28315667Y-63101989D01*
X28380202Y-62981252D01*
X28419943Y-62850244D01*
X28430000Y-62748135D01*
X28430000Y-62748134D01*
X28433362Y-62714000D01*
X28430000Y-62679865D01*
X28430000Y-62091000D01*
X28662000Y-62091000D01*
X28662000Y-62850250D01*
X28820750Y-63009000D01*
X29435000Y-63012072D01*
X29559482Y-62999812D01*
X29679180Y-62963502D01*
X29789494Y-62904537D01*
X29886185Y-62825185D01*
X29965537Y-62728494D01*
X30024502Y-62618180D01*
X30060812Y-62498482D01*
X30073072Y-62374000D01*
X30070000Y-62249750D01*
X29911250Y-62091000D01*
X28662000Y-62091000D01*
X28430000Y-62091000D01*
X28430000Y-61817000D01*
X28662000Y-61817000D01*
X28662000Y-61837000D01*
X29911250Y-61837000D01*
X30070000Y-61678250D01*
X30073072Y-61554000D01*
X30060812Y-61429518D01*
X30024502Y-61309820D01*
X29978630Y-61224000D01*
X30349199Y-61224000D01*
X40236201Y-71111003D01*
X40259999Y-71140001D01*
X40375724Y-71234974D01*
X40480035Y-71290730D01*
X40519463Y-71364494D01*
X40598815Y-71461185D01*
X40695506Y-71540537D01*
X40805820Y-71599502D01*
X40925518Y-71635812D01*
X41050000Y-71648072D01*
X42121272Y-71648072D01*
X42169333Y-71737989D01*
X42256183Y-71843817D01*
X42362011Y-71930667D01*
X42482748Y-71995202D01*
X42613756Y-72034943D01*
X42750000Y-72048362D01*
X42784134Y-72045000D01*
X46115866Y-72045000D01*
X46150000Y-72048362D01*
X46286244Y-72034943D01*
X46417252Y-71995202D01*
X46537989Y-71930667D01*
X46643817Y-71843817D01*
X46730667Y-71737989D01*
X46795202Y-71617252D01*
X46834943Y-71486244D01*
X46845000Y-71384135D01*
X46845000Y-71384134D01*
X46848362Y-71350000D01*
X46845000Y-71315865D01*
X46845000Y-70727000D01*
X47077000Y-70727000D01*
X47077000Y-71486250D01*
X47235750Y-71645000D01*
X47850000Y-71648072D01*
X47974482Y-71635812D01*
X48094180Y-71599502D01*
X48204494Y-71540537D01*
X48301185Y-71461185D01*
X48380537Y-71364494D01*
X48439502Y-71254180D01*
X48475812Y-71134482D01*
X48488072Y-71010000D01*
X48485000Y-70885750D01*
X48326250Y-70727000D01*
X47077000Y-70727000D01*
X46845000Y-70727000D01*
X46845000Y-70453000D01*
X47077000Y-70453000D01*
X47077000Y-70473000D01*
X48326250Y-70473000D01*
X48362224Y-70437026D01*
X51945001Y-74019804D01*
X51945000Y-82350633D01*
X51878061Y-82363948D01*
X51362124Y-82577656D01*
X50897793Y-82887912D01*
X50502912Y-83282793D01*
X50192656Y-83747124D01*
X49978948Y-84263061D01*
X49870000Y-84810777D01*
X49870000Y-85369223D01*
X49978948Y-85916939D01*
X50192656Y-86432876D01*
X50502912Y-86897207D01*
X50897793Y-87292088D01*
X51362124Y-87602344D01*
X51878061Y-87816052D01*
X52425777Y-87925000D01*
X52984223Y-87925000D01*
X53531939Y-87816052D01*
X54047876Y-87602344D01*
X54512207Y-87292088D01*
X54907088Y-86897207D01*
X55217344Y-86432876D01*
X55431052Y-85916939D01*
X55540000Y-85369223D01*
X55540000Y-84810777D01*
X55431052Y-84263061D01*
X55217344Y-83747124D01*
X54907088Y-83282793D01*
X54512207Y-82887912D01*
X54047876Y-82577656D01*
X53531939Y-82363948D01*
X53465000Y-82350633D01*
X53465000Y-73742322D01*
X53468676Y-73704999D01*
X53465000Y-73667676D01*
X53465000Y-73667667D01*
X53454003Y-73556014D01*
X53410546Y-73412753D01*
X53339974Y-73280724D01*
X53326811Y-73264685D01*
X53268799Y-73193996D01*
X53268795Y-73193992D01*
X53245001Y-73164999D01*
X53216008Y-73141205D01*
X48663804Y-68589003D01*
X48640001Y-68559999D01*
X48524276Y-68465026D01*
X48419965Y-68409270D01*
X48380537Y-68335506D01*
X48301185Y-68238815D01*
X48204494Y-68159463D01*
X48094180Y-68100498D01*
X47974482Y-68064188D01*
X47850000Y-68051928D01*
X46778728Y-68051928D01*
X46730667Y-67962011D01*
X46643817Y-67856183D01*
X46537989Y-67769333D01*
X46417252Y-67704798D01*
X46286244Y-67665057D01*
X46184135Y-67655000D01*
X46184134Y-67655000D01*
X46150000Y-67651638D01*
X46115865Y-67655000D01*
X43765867Y-67655000D01*
X50726427Y-60694441D01*
X50758291Y-60668291D01*
X50862636Y-60541146D01*
X50940172Y-60396087D01*
X50987918Y-60238689D01*
X51000000Y-60116019D01*
X51000000Y-60116009D01*
X51004039Y-60075001D01*
X51000000Y-60033993D01*
X51000000Y-24806019D01*
X51004040Y-24765000D01*
X51000000Y-24723981D01*
X51000000Y-22828016D01*
X51004040Y-22786998D01*
X50994684Y-22692000D01*
X50987918Y-22623309D01*
X50940172Y-22465911D01*
X50862636Y-22320852D01*
X50809183Y-22255719D01*
X50784439Y-22225568D01*
X50784437Y-22225566D01*
X50758291Y-22193707D01*
X50726433Y-22167562D01*
X49513870Y-20955000D01*
X55801565Y-20955000D01*
X55805001Y-20989887D01*
X55805000Y-66640123D01*
X55801565Y-66675000D01*
X55815273Y-66814184D01*
X55855872Y-66948020D01*
X55921800Y-67071363D01*
X56010525Y-67179475D01*
X56118637Y-67268200D01*
X56241980Y-67334128D01*
X56375816Y-67374727D01*
X56515000Y-67388435D01*
X56549877Y-67385000D01*
X59020123Y-67385000D01*
X59055000Y-67388435D01*
X59089877Y-67385000D01*
X59194184Y-67374727D01*
X59328020Y-67334128D01*
X59451363Y-67268200D01*
X59559475Y-67179475D01*
X59648200Y-67071363D01*
X59669893Y-67030777D01*
X60030000Y-67030777D01*
X60030000Y-67589223D01*
X60138948Y-68136939D01*
X60352656Y-68652876D01*
X60662912Y-69117207D01*
X61057793Y-69512088D01*
X61522124Y-69822344D01*
X62038061Y-70036052D01*
X62585777Y-70145000D01*
X63144223Y-70145000D01*
X63691939Y-70036052D01*
X64207876Y-69822344D01*
X64672207Y-69512088D01*
X65067088Y-69117207D01*
X65377344Y-68652876D01*
X65591052Y-68136939D01*
X65700000Y-67589223D01*
X65700000Y-67030777D01*
X65591052Y-66483061D01*
X65377344Y-65967124D01*
X65067088Y-65502793D01*
X64672207Y-65107912D01*
X64207876Y-64797656D01*
X63700000Y-64587287D01*
X63700000Y-60535703D01*
X63714181Y-60552982D01*
X63737980Y-60581981D01*
X63766978Y-60605779D01*
X65636201Y-62475003D01*
X65659999Y-62504001D01*
X65775724Y-62598974D01*
X65880035Y-62654730D01*
X65919463Y-62728494D01*
X65998815Y-62825185D01*
X66095506Y-62904537D01*
X66205820Y-62963502D01*
X66325518Y-62999812D01*
X66450000Y-63012072D01*
X67521272Y-63012072D01*
X67569333Y-63101989D01*
X67656183Y-63207817D01*
X67762011Y-63294667D01*
X67882748Y-63359202D01*
X68013756Y-63398943D01*
X68150000Y-63412362D01*
X68184134Y-63409000D01*
X71515866Y-63409000D01*
X71550000Y-63412362D01*
X71686244Y-63398943D01*
X71817252Y-63359202D01*
X71937989Y-63294667D01*
X72043817Y-63207817D01*
X72130667Y-63101989D01*
X72195202Y-62981252D01*
X72234943Y-62850244D01*
X72245000Y-62748135D01*
X72245000Y-62748134D01*
X72248362Y-62714000D01*
X72245000Y-62679865D01*
X72245000Y-62091000D01*
X72477000Y-62091000D01*
X72477000Y-62850250D01*
X72635750Y-63009000D01*
X73250000Y-63012072D01*
X73374482Y-62999812D01*
X73494180Y-62963502D01*
X73604494Y-62904537D01*
X73701185Y-62825185D01*
X73780537Y-62728494D01*
X73839502Y-62618180D01*
X73875812Y-62498482D01*
X73888072Y-62374000D01*
X73885000Y-62249750D01*
X73726250Y-62091000D01*
X72477000Y-62091000D01*
X72245000Y-62091000D01*
X72245000Y-61817000D01*
X72477000Y-61817000D01*
X72477000Y-61837000D01*
X73726250Y-61837000D01*
X73885000Y-61678250D01*
X73888072Y-61554000D01*
X73875812Y-61429518D01*
X73839502Y-61309820D01*
X73793630Y-61224000D01*
X74164199Y-61224000D01*
X84051201Y-71111003D01*
X84074999Y-71140001D01*
X84190724Y-71234974D01*
X84295035Y-71290730D01*
X84334463Y-71364494D01*
X84413815Y-71461185D01*
X84510506Y-71540537D01*
X84620820Y-71599502D01*
X84740518Y-71635812D01*
X84865000Y-71648072D01*
X85936272Y-71648072D01*
X85984333Y-71737989D01*
X86071183Y-71843817D01*
X86177011Y-71930667D01*
X86297748Y-71995202D01*
X86428756Y-72034943D01*
X86565000Y-72048362D01*
X86599134Y-72045000D01*
X89930866Y-72045000D01*
X89965000Y-72048362D01*
X90101244Y-72034943D01*
X90232252Y-71995202D01*
X90352989Y-71930667D01*
X90458817Y-71843817D01*
X90545667Y-71737989D01*
X90610202Y-71617252D01*
X90649943Y-71486244D01*
X90660000Y-71384135D01*
X90660000Y-71384134D01*
X90663362Y-71350000D01*
X90660000Y-71315865D01*
X90660000Y-70727000D01*
X90892000Y-70727000D01*
X90892000Y-71486250D01*
X91050750Y-71645000D01*
X91665000Y-71648072D01*
X91789482Y-71635812D01*
X91909180Y-71599502D01*
X92019494Y-71540537D01*
X92116185Y-71461185D01*
X92195537Y-71364494D01*
X92254502Y-71254180D01*
X92290812Y-71134482D01*
X92303072Y-71010000D01*
X92300000Y-70885750D01*
X92141250Y-70727000D01*
X90892000Y-70727000D01*
X90660000Y-70727000D01*
X90660000Y-70453000D01*
X90892000Y-70453000D01*
X90892000Y-70473000D01*
X92141250Y-70473000D01*
X92177224Y-70437026D01*
X95760001Y-74019804D01*
X95760000Y-82350633D01*
X95693061Y-82363948D01*
X95177124Y-82577656D01*
X94712793Y-82887912D01*
X94317912Y-83282793D01*
X94007656Y-83747124D01*
X93793948Y-84263061D01*
X93685000Y-84810777D01*
X93685000Y-85369223D01*
X93793948Y-85916939D01*
X94007656Y-86432876D01*
X94317912Y-86897207D01*
X94712793Y-87292088D01*
X95177124Y-87602344D01*
X95693061Y-87816052D01*
X96240777Y-87925000D01*
X96799223Y-87925000D01*
X97346939Y-87816052D01*
X97862876Y-87602344D01*
X98327207Y-87292088D01*
X98722088Y-86897207D01*
X99032344Y-86432876D01*
X99246052Y-85916939D01*
X99355000Y-85369223D01*
X99355000Y-84810777D01*
X99246052Y-84263061D01*
X99032344Y-83747124D01*
X98722088Y-83282793D01*
X98327207Y-82887912D01*
X97862876Y-82577656D01*
X97346939Y-82363948D01*
X97280000Y-82350633D01*
X97280000Y-73742322D01*
X97283676Y-73704999D01*
X97280000Y-73667676D01*
X97280000Y-73667667D01*
X97269003Y-73556014D01*
X97225546Y-73412753D01*
X97154974Y-73280724D01*
X97141811Y-73264685D01*
X97083799Y-73193996D01*
X97083795Y-73193992D01*
X97060001Y-73164999D01*
X97031008Y-73141205D01*
X92478804Y-68589003D01*
X92455001Y-68559999D01*
X92339276Y-68465026D01*
X92234965Y-68409270D01*
X92195537Y-68335506D01*
X92116185Y-68238815D01*
X92019494Y-68159463D01*
X91909180Y-68100498D01*
X91789482Y-68064188D01*
X91665000Y-68051928D01*
X90593728Y-68051928D01*
X90545667Y-67962011D01*
X90458817Y-67856183D01*
X90352989Y-67769333D01*
X90232252Y-67704798D01*
X90101244Y-67665057D01*
X89999135Y-67655000D01*
X89999134Y-67655000D01*
X89965000Y-67651638D01*
X89930865Y-67655000D01*
X87580867Y-67655000D01*
X94541427Y-60694441D01*
X94573291Y-60668291D01*
X94677636Y-60541146D01*
X94755172Y-60396087D01*
X94802918Y-60238689D01*
X94815000Y-60116019D01*
X94815000Y-60116009D01*
X94819039Y-60075001D01*
X94815000Y-60033993D01*
X94815000Y-24806019D01*
X94819040Y-24765000D01*
X94815000Y-24723981D01*
X94815000Y-22828016D01*
X94819040Y-22786998D01*
X94809684Y-22692000D01*
X94802918Y-22623309D01*
X94755172Y-22465911D01*
X94677636Y-22320852D01*
X94624183Y-22255719D01*
X94599439Y-22225568D01*
X94599437Y-22225566D01*
X94573291Y-22193707D01*
X94541433Y-22167562D01*
X92204438Y-19830569D01*
X92178283Y-19798699D01*
X92051138Y-19694354D01*
X91906079Y-19616818D01*
X91748681Y-19569072D01*
X91626011Y-19556990D01*
X91626010Y-19556990D01*
X91584992Y-19552950D01*
X91543974Y-19556990D01*
X86415476Y-19556990D01*
X86374458Y-19552950D01*
X86333440Y-19556990D01*
X86333439Y-19556990D01*
X86210769Y-19569072D01*
X86053371Y-19616818D01*
X85908312Y-19694354D01*
X85875308Y-19721440D01*
X85534425Y-19380558D01*
X85508271Y-19348689D01*
X85381126Y-19244344D01*
X85236067Y-19166808D01*
X85078669Y-19119062D01*
X84955999Y-19106980D01*
X84955998Y-19106980D01*
X84914980Y-19102940D01*
X84873962Y-19106980D01*
X66266086Y-19106980D01*
X66225068Y-19102940D01*
X66184050Y-19106980D01*
X66184049Y-19106980D01*
X66061379Y-19119062D01*
X65903981Y-19166808D01*
X65758922Y-19244344D01*
X65631777Y-19348689D01*
X65605631Y-19380548D01*
X62303574Y-22682607D01*
X62271710Y-22708757D01*
X62190907Y-22807216D01*
X62167364Y-22835903D01*
X62089828Y-22980962D01*
X62042082Y-23138360D01*
X62025960Y-23302048D01*
X62030001Y-23343077D01*
X62030000Y-64587287D01*
X61522124Y-64797656D01*
X61057793Y-65107912D01*
X60662912Y-65502793D01*
X60352656Y-65967124D01*
X60138948Y-66483061D01*
X60030000Y-67030777D01*
X59669893Y-67030777D01*
X59714128Y-66948020D01*
X59754727Y-66814184D01*
X59768435Y-66675000D01*
X59765000Y-66640123D01*
X59765000Y-20989877D01*
X59768435Y-20955000D01*
X59754727Y-20815816D01*
X59714128Y-20681980D01*
X59648200Y-20558637D01*
X59559475Y-20450525D01*
X59451363Y-20361800D01*
X59328020Y-20295872D01*
X59194184Y-20255273D01*
X59089877Y-20245000D01*
X59055000Y-20241565D01*
X59020123Y-20245000D01*
X56549877Y-20245000D01*
X56515000Y-20241565D01*
X56480123Y-20245000D01*
X56375816Y-20255273D01*
X56241980Y-20295872D01*
X56118637Y-20361800D01*
X56010525Y-20450525D01*
X55921800Y-20558637D01*
X55855872Y-20681980D01*
X55815273Y-20815816D01*
X55801565Y-20955000D01*
X49513870Y-20955000D01*
X48389438Y-19830569D01*
X48363283Y-19798699D01*
X48236138Y-19694354D01*
X48091079Y-19616818D01*
X47933681Y-19569072D01*
X47811011Y-19556990D01*
X47811010Y-19556990D01*
X47769992Y-19552950D01*
X47728974Y-19556990D01*
X42600476Y-19556990D01*
X42559458Y-19552950D01*
X42518440Y-19556990D01*
X42518439Y-19556990D01*
X42395769Y-19569072D01*
X42238371Y-19616818D01*
X42093312Y-19694354D01*
X42060308Y-19721440D01*
X41719425Y-19380558D01*
X41693271Y-19348689D01*
X41566126Y-19244344D01*
X41421067Y-19166808D01*
X41263669Y-19119062D01*
X41140999Y-19106980D01*
X41140998Y-19106980D01*
X41099980Y-19102940D01*
X41058962Y-19106980D01*
X22451086Y-19106980D01*
X22410068Y-19102940D01*
X22369050Y-19106980D01*
X22369049Y-19106980D01*
X22246379Y-19119062D01*
X22088981Y-19166808D01*
X21943922Y-19244344D01*
X21816777Y-19348689D01*
X21790631Y-19380548D01*
X18488574Y-22682607D01*
X18456710Y-22708757D01*
X18375907Y-22807216D01*
X18352364Y-22835903D01*
X18274828Y-22980962D01*
X18227082Y-23138360D01*
X18210960Y-23302048D01*
X18215001Y-23343077D01*
X18215000Y-64587287D01*
X17707124Y-64797656D01*
X17242793Y-65107912D01*
X16847912Y-65502793D01*
X16537656Y-65967124D01*
X16323948Y-66483061D01*
X16215000Y-67030777D01*
X15950000Y-67030777D01*
X15950000Y-18499775D01*
X50894830Y-18499775D01*
X51134976Y-18887018D01*
X51628877Y-19147641D01*
X52164133Y-19306901D01*
X52720174Y-19358678D01*
X53275632Y-19300981D01*
X53809161Y-19136028D01*
X54275024Y-18887018D01*
X54515170Y-18499775D01*
X94709830Y-18499775D01*
X94949976Y-18887018D01*
X95443877Y-19147641D01*
X95979133Y-19306901D01*
X96535174Y-19358678D01*
X97090632Y-19300981D01*
X97624161Y-19136028D01*
X98090024Y-18887018D01*
X98330170Y-18499775D01*
X96520000Y-16689605D01*
X94709830Y-18499775D01*
X54515170Y-18499775D01*
X52705000Y-16689605D01*
X50894830Y-18499775D01*
X15950000Y-18499775D01*
X15950000Y-17811618D01*
X16021842Y-17006642D01*
X16153556Y-16525174D01*
X49856322Y-16525174D01*
X49914019Y-17080632D01*
X50078972Y-17614161D01*
X50327982Y-18080024D01*
X50715225Y-18320170D01*
X52525395Y-16510000D01*
X50715225Y-14699830D01*
X50327982Y-14939976D01*
X50067359Y-15433877D01*
X49908099Y-15969133D01*
X49856322Y-16525174D01*
X16153556Y-16525174D01*
X16226723Y-16257723D01*
X16560986Y-15556928D01*
X17014069Y-14926395D01*
X17571645Y-14386066D01*
X18216099Y-13953011D01*
X18927044Y-13640927D01*
X19687493Y-13458360D01*
X20346031Y-13410000D01*
X51403382Y-13410000D01*
X52208358Y-13481842D01*
G37*
X52208358Y-13481842D02*
X52954526Y-13685970D01*
X52689826Y-13661322D01*
X52134368Y-13719019D01*
X51600839Y-13883972D01*
X51134976Y-14132982D01*
X50894830Y-14520225D01*
X52705000Y-16330395D01*
X52719143Y-16316253D01*
X52898748Y-16495858D01*
X52884605Y-16510000D01*
X54694775Y-18320170D01*
X55082018Y-18080024D01*
X55342641Y-17586123D01*
X55501901Y-17050867D01*
X55553678Y-16494826D01*
X55532690Y-16292773D01*
X55574073Y-16387044D01*
X55756640Y-17147493D01*
X55802438Y-17771139D01*
X55801565Y-17780000D01*
X55815273Y-17919184D01*
X55855872Y-18053020D01*
X55921800Y-18176363D01*
X56010525Y-18284475D01*
X56118637Y-18373200D01*
X56241980Y-18439128D01*
X56375816Y-18479727D01*
X56480123Y-18490000D01*
X59089877Y-18490000D01*
X59194184Y-18479727D01*
X59328020Y-18439128D01*
X59451363Y-18373200D01*
X59559475Y-18284475D01*
X59648200Y-18176363D01*
X59714128Y-18053020D01*
X59754727Y-17919184D01*
X59768435Y-17780000D01*
X59768113Y-17776734D01*
X59836842Y-17006642D01*
X59968556Y-16525174D01*
X93671322Y-16525174D01*
X93729019Y-17080632D01*
X93893972Y-17614161D01*
X94142982Y-18080024D01*
X94530225Y-18320170D01*
X96340395Y-16510000D01*
X94530225Y-14699830D01*
X94142982Y-14939976D01*
X93882359Y-15433877D01*
X93723099Y-15969133D01*
X93671322Y-16525174D01*
X59968556Y-16525174D01*
X60041723Y-16257723D01*
X60375986Y-15556928D01*
X60829069Y-14926395D01*
X61386645Y-14386066D01*
X62031099Y-13953011D01*
X62742044Y-13640927D01*
X63502493Y-13458360D01*
X64161031Y-13410000D01*
X95218382Y-13410000D01*
X96023358Y-13481842D01*
X96769526Y-13685970D01*
X96504826Y-13661322D01*
X95949368Y-13719019D01*
X95415839Y-13883972D01*
X94949976Y-14132982D01*
X94709830Y-14520225D01*
X96520000Y-16330395D01*
X96534143Y-16316253D01*
X96713748Y-16495858D01*
X96699605Y-16510000D01*
X98509775Y-18320170D01*
X98897018Y-18080024D01*
X99157641Y-17586123D01*
X99316901Y-17050867D01*
X99368678Y-16494826D01*
X99347690Y-16292773D01*
X99389073Y-16387044D01*
X99571640Y-17147493D01*
X99620001Y-17806044D01*
X99620000Y-84991477D01*
X99585960Y-89212449D01*
X99581809Y-89254784D01*
X99478771Y-89596063D01*
X99311409Y-89910825D01*
X99086097Y-90187083D01*
X98811418Y-90414317D01*
X98497838Y-90583869D01*
X98157288Y-90689287D01*
X97802749Y-90726550D01*
X97447731Y-90694242D01*
X97085884Y-90587744D01*
X96979984Y-90539967D01*
X59461786Y-68630354D01*
X59451363Y-68621800D01*
X59401486Y-68595140D01*
X59382923Y-68584300D01*
X59370751Y-68578712D01*
X59328020Y-68555872D01*
X59307322Y-68549593D01*
X59287669Y-68540571D01*
X59240554Y-68529339D01*
X59194184Y-68515273D01*
X59172654Y-68513153D01*
X59151623Y-68508139D01*
X59103220Y-68506314D01*
X59089877Y-68505000D01*
X59068364Y-68505000D01*
X59011867Y-68502870D01*
X58998556Y-68505000D01*
X56549877Y-68505000D01*
X56515000Y-68501565D01*
X56480123Y-68505000D01*
X56375816Y-68515273D01*
X56241980Y-68555872D01*
X56118637Y-68621800D01*
X56010525Y-68710525D01*
X55921800Y-68818637D01*
X55855872Y-68941980D01*
X55815273Y-69075816D01*
X55801565Y-69215000D01*
X55805000Y-69249876D01*
X55805001Y-88865269D01*
X55766809Y-89254784D01*
X55663771Y-89596063D01*
X55496409Y-89910825D01*
X55271097Y-90187083D01*
X54996418Y-90414317D01*
X54682838Y-90583869D01*
X54342288Y-90689287D01*
X53987749Y-90726550D01*
X53632731Y-90694242D01*
X53270884Y-90587744D01*
X53164984Y-90539967D01*
X15950000Y-68807423D01*
X15950000Y-67030777D01*
X16215000Y-67030777D01*
X16215000Y-67589223D01*
X16323948Y-68136939D01*
X16537656Y-68652876D01*
X16847912Y-69117207D01*
X17242793Y-69512088D01*
X17707124Y-69822344D01*
X18223061Y-70036052D01*
X18770777Y-70145000D01*
X19329223Y-70145000D01*
X19876939Y-70036052D01*
X20392876Y-69822344D01*
X20857207Y-69512088D01*
X21252088Y-69117207D01*
X21562344Y-68652876D01*
X21776052Y-68136939D01*
X21885000Y-67589223D01*
X21885000Y-67030777D01*
X21776052Y-66483061D01*
X21562344Y-65967124D01*
X21252088Y-65502793D01*
X20857207Y-65107912D01*
X20392876Y-64797656D01*
X19885000Y-64587287D01*
X19885000Y-60535703D01*
X19899181Y-60552982D01*
X19922980Y-60581981D01*
X19951978Y-60605779D01*
X21821201Y-62475003D01*
X21844999Y-62504001D01*
X21960724Y-62598974D01*
X22065035Y-62654730D01*
X22104463Y-62728494D01*
X22183815Y-62825185D01*
X22280506Y-62904537D01*
X22390820Y-62963502D01*
X22510518Y-62999812D01*
X22635000Y-63012072D01*
X23706272Y-63012072D01*
X23754333Y-63101989D01*
X23841183Y-63207817D01*
X23947011Y-63294667D01*
X24067748Y-63359202D01*
X24198756Y-63398943D01*
X24335000Y-63412362D01*
X24369134Y-63409000D01*
X27700866Y-63409000D01*
X27735000Y-63412362D01*
X27871244Y-63398943D01*
X28002252Y-63359202D01*
X28122989Y-63294667D01*
X28228817Y-63207817D01*
X28315667Y-63101989D01*
X28380202Y-62981252D01*
X28419943Y-62850244D01*
X28430000Y-62748135D01*
X28430000Y-62748134D01*
X28433362Y-62714000D01*
X28430000Y-62679865D01*
X28430000Y-62091000D01*
X28662000Y-62091000D01*
X28662000Y-62850250D01*
X28820750Y-63009000D01*
X29435000Y-63012072D01*
X29559482Y-62999812D01*
X29679180Y-62963502D01*
X29789494Y-62904537D01*
X29886185Y-62825185D01*
X29965537Y-62728494D01*
X30024502Y-62618180D01*
X30060812Y-62498482D01*
X30073072Y-62374000D01*
X30070000Y-62249750D01*
X29911250Y-62091000D01*
X28662000Y-62091000D01*
X28430000Y-62091000D01*
X28430000Y-61817000D01*
X28662000Y-61817000D01*
X28662000Y-61837000D01*
X29911250Y-61837000D01*
X30070000Y-61678250D01*
X30073072Y-61554000D01*
X30060812Y-61429518D01*
X30024502Y-61309820D01*
X29978630Y-61224000D01*
X30349199Y-61224000D01*
X40236201Y-71111003D01*
X40259999Y-71140001D01*
X40375724Y-71234974D01*
X40480035Y-71290730D01*
X40519463Y-71364494D01*
X40598815Y-71461185D01*
X40695506Y-71540537D01*
X40805820Y-71599502D01*
X40925518Y-71635812D01*
X41050000Y-71648072D01*
X42121272Y-71648072D01*
X42169333Y-71737989D01*
X42256183Y-71843817D01*
X42362011Y-71930667D01*
X42482748Y-71995202D01*
X42613756Y-72034943D01*
X42750000Y-72048362D01*
X42784134Y-72045000D01*
X46115866Y-72045000D01*
X46150000Y-72048362D01*
X46286244Y-72034943D01*
X46417252Y-71995202D01*
X46537989Y-71930667D01*
X46643817Y-71843817D01*
X46730667Y-71737989D01*
X46795202Y-71617252D01*
X46834943Y-71486244D01*
X46845000Y-71384135D01*
X46845000Y-71384134D01*
X46848362Y-71350000D01*
X46845000Y-71315865D01*
X46845000Y-70727000D01*
X47077000Y-70727000D01*
X47077000Y-71486250D01*
X47235750Y-71645000D01*
X47850000Y-71648072D01*
X47974482Y-71635812D01*
X48094180Y-71599502D01*
X48204494Y-71540537D01*
X48301185Y-71461185D01*
X48380537Y-71364494D01*
X48439502Y-71254180D01*
X48475812Y-71134482D01*
X48488072Y-71010000D01*
X48485000Y-70885750D01*
X48326250Y-70727000D01*
X47077000Y-70727000D01*
X46845000Y-70727000D01*
X46845000Y-70453000D01*
X47077000Y-70453000D01*
X47077000Y-70473000D01*
X48326250Y-70473000D01*
X48362224Y-70437026D01*
X51945001Y-74019804D01*
X51945000Y-82350633D01*
X51878061Y-82363948D01*
X51362124Y-82577656D01*
X50897793Y-82887912D01*
X50502912Y-83282793D01*
X50192656Y-83747124D01*
X49978948Y-84263061D01*
X49870000Y-84810777D01*
X49870000Y-85369223D01*
X49978948Y-85916939D01*
X50192656Y-86432876D01*
X50502912Y-86897207D01*
X50897793Y-87292088D01*
X51362124Y-87602344D01*
X51878061Y-87816052D01*
X52425777Y-87925000D01*
X52984223Y-87925000D01*
X53531939Y-87816052D01*
X54047876Y-87602344D01*
X54512207Y-87292088D01*
X54907088Y-86897207D01*
X55217344Y-86432876D01*
X55431052Y-85916939D01*
X55540000Y-85369223D01*
X55540000Y-84810777D01*
X55431052Y-84263061D01*
X55217344Y-83747124D01*
X54907088Y-83282793D01*
X54512207Y-82887912D01*
X54047876Y-82577656D01*
X53531939Y-82363948D01*
X53465000Y-82350633D01*
X53465000Y-73742322D01*
X53468676Y-73704999D01*
X53465000Y-73667676D01*
X53465000Y-73667667D01*
X53454003Y-73556014D01*
X53410546Y-73412753D01*
X53339974Y-73280724D01*
X53326811Y-73264685D01*
X53268799Y-73193996D01*
X53268795Y-73193992D01*
X53245001Y-73164999D01*
X53216008Y-73141205D01*
X48663804Y-68589003D01*
X48640001Y-68559999D01*
X48524276Y-68465026D01*
X48419965Y-68409270D01*
X48380537Y-68335506D01*
X48301185Y-68238815D01*
X48204494Y-68159463D01*
X48094180Y-68100498D01*
X47974482Y-68064188D01*
X47850000Y-68051928D01*
X46778728Y-68051928D01*
X46730667Y-67962011D01*
X46643817Y-67856183D01*
X46537989Y-67769333D01*
X46417252Y-67704798D01*
X46286244Y-67665057D01*
X46184135Y-67655000D01*
X46184134Y-67655000D01*
X46150000Y-67651638D01*
X46115865Y-67655000D01*
X43765867Y-67655000D01*
X50726427Y-60694441D01*
X50758291Y-60668291D01*
X50862636Y-60541146D01*
X50940172Y-60396087D01*
X50987918Y-60238689D01*
X51000000Y-60116019D01*
X51000000Y-60116009D01*
X51004039Y-60075001D01*
X51000000Y-60033993D01*
X51000000Y-24806019D01*
X51004040Y-24765000D01*
X51000000Y-24723981D01*
X51000000Y-22828016D01*
X51004040Y-22786998D01*
X50994684Y-22692000D01*
X50987918Y-22623309D01*
X50940172Y-22465911D01*
X50862636Y-22320852D01*
X50809183Y-22255719D01*
X50784439Y-22225568D01*
X50784437Y-22225566D01*
X50758291Y-22193707D01*
X50726433Y-22167562D01*
X49513870Y-20955000D01*
X55801565Y-20955000D01*
X55805001Y-20989887D01*
X55805000Y-66640123D01*
X55801565Y-66675000D01*
X55815273Y-66814184D01*
X55855872Y-66948020D01*
X55921800Y-67071363D01*
X56010525Y-67179475D01*
X56118637Y-67268200D01*
X56241980Y-67334128D01*
X56375816Y-67374727D01*
X56515000Y-67388435D01*
X56549877Y-67385000D01*
X59020123Y-67385000D01*
X59055000Y-67388435D01*
X59089877Y-67385000D01*
X59194184Y-67374727D01*
X59328020Y-67334128D01*
X59451363Y-67268200D01*
X59559475Y-67179475D01*
X59648200Y-67071363D01*
X59669893Y-67030777D01*
X60030000Y-67030777D01*
X60030000Y-67589223D01*
X60138948Y-68136939D01*
X60352656Y-68652876D01*
X60662912Y-69117207D01*
X61057793Y-69512088D01*
X61522124Y-69822344D01*
X62038061Y-70036052D01*
X62585777Y-70145000D01*
X63144223Y-70145000D01*
X63691939Y-70036052D01*
X64207876Y-69822344D01*
X64672207Y-69512088D01*
X65067088Y-69117207D01*
X65377344Y-68652876D01*
X65591052Y-68136939D01*
X65700000Y-67589223D01*
X65700000Y-67030777D01*
X65591052Y-66483061D01*
X65377344Y-65967124D01*
X65067088Y-65502793D01*
X64672207Y-65107912D01*
X64207876Y-64797656D01*
X63700000Y-64587287D01*
X63700000Y-60535703D01*
X63714181Y-60552982D01*
X63737980Y-60581981D01*
X63766978Y-60605779D01*
X65636201Y-62475003D01*
X65659999Y-62504001D01*
X65775724Y-62598974D01*
X65880035Y-62654730D01*
X65919463Y-62728494D01*
X65998815Y-62825185D01*
X66095506Y-62904537D01*
X66205820Y-62963502D01*
X66325518Y-62999812D01*
X66450000Y-63012072D01*
X67521272Y-63012072D01*
X67569333Y-63101989D01*
X67656183Y-63207817D01*
X67762011Y-63294667D01*
X67882748Y-63359202D01*
X68013756Y-63398943D01*
X68150000Y-63412362D01*
X68184134Y-63409000D01*
X71515866Y-63409000D01*
X71550000Y-63412362D01*
X71686244Y-63398943D01*
X71817252Y-63359202D01*
X71937989Y-63294667D01*
X72043817Y-63207817D01*
X72130667Y-63101989D01*
X72195202Y-62981252D01*
X72234943Y-62850244D01*
X72245000Y-62748135D01*
X72245000Y-62748134D01*
X72248362Y-62714000D01*
X72245000Y-62679865D01*
X72245000Y-62091000D01*
X72477000Y-62091000D01*
X72477000Y-62850250D01*
X72635750Y-63009000D01*
X73250000Y-63012072D01*
X73374482Y-62999812D01*
X73494180Y-62963502D01*
X73604494Y-62904537D01*
X73701185Y-62825185D01*
X73780537Y-62728494D01*
X73839502Y-62618180D01*
X73875812Y-62498482D01*
X73888072Y-62374000D01*
X73885000Y-62249750D01*
X73726250Y-62091000D01*
X72477000Y-62091000D01*
X72245000Y-62091000D01*
X72245000Y-61817000D01*
X72477000Y-61817000D01*
X72477000Y-61837000D01*
X73726250Y-61837000D01*
X73885000Y-61678250D01*
X73888072Y-61554000D01*
X73875812Y-61429518D01*
X73839502Y-61309820D01*
X73793630Y-61224000D01*
X74164199Y-61224000D01*
X84051201Y-71111003D01*
X84074999Y-71140001D01*
X84190724Y-71234974D01*
X84295035Y-71290730D01*
X84334463Y-71364494D01*
X84413815Y-71461185D01*
X84510506Y-71540537D01*
X84620820Y-71599502D01*
X84740518Y-71635812D01*
X84865000Y-71648072D01*
X85936272Y-71648072D01*
X85984333Y-71737989D01*
X86071183Y-71843817D01*
X86177011Y-71930667D01*
X86297748Y-71995202D01*
X86428756Y-72034943D01*
X86565000Y-72048362D01*
X86599134Y-72045000D01*
X89930866Y-72045000D01*
X89965000Y-72048362D01*
X90101244Y-72034943D01*
X90232252Y-71995202D01*
X90352989Y-71930667D01*
X90458817Y-71843817D01*
X90545667Y-71737989D01*
X90610202Y-71617252D01*
X90649943Y-71486244D01*
X90660000Y-71384135D01*
X90660000Y-71384134D01*
X90663362Y-71350000D01*
X90660000Y-71315865D01*
X90660000Y-70727000D01*
X90892000Y-70727000D01*
X90892000Y-71486250D01*
X91050750Y-71645000D01*
X91665000Y-71648072D01*
X91789482Y-71635812D01*
X91909180Y-71599502D01*
X92019494Y-71540537D01*
X92116185Y-71461185D01*
X92195537Y-71364494D01*
X92254502Y-71254180D01*
X92290812Y-71134482D01*
X92303072Y-71010000D01*
X92300000Y-70885750D01*
X92141250Y-70727000D01*
X90892000Y-70727000D01*
X90660000Y-70727000D01*
X90660000Y-70453000D01*
X90892000Y-70453000D01*
X90892000Y-70473000D01*
X92141250Y-70473000D01*
X92177224Y-70437026D01*
X95760001Y-74019804D01*
X95760000Y-82350633D01*
X95693061Y-82363948D01*
X95177124Y-82577656D01*
X94712793Y-82887912D01*
X94317912Y-83282793D01*
X94007656Y-83747124D01*
X93793948Y-84263061D01*
X93685000Y-84810777D01*
X93685000Y-85369223D01*
X93793948Y-85916939D01*
X94007656Y-86432876D01*
X94317912Y-86897207D01*
X94712793Y-87292088D01*
X95177124Y-87602344D01*
X95693061Y-87816052D01*
X96240777Y-87925000D01*
X96799223Y-87925000D01*
X97346939Y-87816052D01*
X97862876Y-87602344D01*
X98327207Y-87292088D01*
X98722088Y-86897207D01*
X99032344Y-86432876D01*
X99246052Y-85916939D01*
X99355000Y-85369223D01*
X99355000Y-84810777D01*
X99246052Y-84263061D01*
X99032344Y-83747124D01*
X98722088Y-83282793D01*
X98327207Y-82887912D01*
X97862876Y-82577656D01*
X97346939Y-82363948D01*
X97280000Y-82350633D01*
X97280000Y-73742322D01*
X97283676Y-73704999D01*
X97280000Y-73667676D01*
X97280000Y-73667667D01*
X97269003Y-73556014D01*
X97225546Y-73412753D01*
X97154974Y-73280724D01*
X97141811Y-73264685D01*
X97083799Y-73193996D01*
X97083795Y-73193992D01*
X97060001Y-73164999D01*
X97031008Y-73141205D01*
X92478804Y-68589003D01*
X92455001Y-68559999D01*
X92339276Y-68465026D01*
X92234965Y-68409270D01*
X92195537Y-68335506D01*
X92116185Y-68238815D01*
X92019494Y-68159463D01*
X91909180Y-68100498D01*
X91789482Y-68064188D01*
X91665000Y-68051928D01*
X90593728Y-68051928D01*
X90545667Y-67962011D01*
X90458817Y-67856183D01*
X90352989Y-67769333D01*
X90232252Y-67704798D01*
X90101244Y-67665057D01*
X89999135Y-67655000D01*
X89999134Y-67655000D01*
X89965000Y-67651638D01*
X89930865Y-67655000D01*
X87580867Y-67655000D01*
X94541427Y-60694441D01*
X94573291Y-60668291D01*
X94677636Y-60541146D01*
X94755172Y-60396087D01*
X94802918Y-60238689D01*
X94815000Y-60116019D01*
X94815000Y-60116009D01*
X94819039Y-60075001D01*
X94815000Y-60033993D01*
X94815000Y-24806019D01*
X94819040Y-24765000D01*
X94815000Y-24723981D01*
X94815000Y-22828016D01*
X94819040Y-22786998D01*
X94809684Y-22692000D01*
X94802918Y-22623309D01*
X94755172Y-22465911D01*
X94677636Y-22320852D01*
X94624183Y-22255719D01*
X94599439Y-22225568D01*
X94599437Y-22225566D01*
X94573291Y-22193707D01*
X94541433Y-22167562D01*
X92204438Y-19830569D01*
X92178283Y-19798699D01*
X92051138Y-19694354D01*
X91906079Y-19616818D01*
X91748681Y-19569072D01*
X91626011Y-19556990D01*
X91626010Y-19556990D01*
X91584992Y-19552950D01*
X91543974Y-19556990D01*
X86415476Y-19556990D01*
X86374458Y-19552950D01*
X86333440Y-19556990D01*
X86333439Y-19556990D01*
X86210769Y-19569072D01*
X86053371Y-19616818D01*
X85908312Y-19694354D01*
X85875308Y-19721440D01*
X85534425Y-19380558D01*
X85508271Y-19348689D01*
X85381126Y-19244344D01*
X85236067Y-19166808D01*
X85078669Y-19119062D01*
X84955999Y-19106980D01*
X84955998Y-19106980D01*
X84914980Y-19102940D01*
X84873962Y-19106980D01*
X66266086Y-19106980D01*
X66225068Y-19102940D01*
X66184050Y-19106980D01*
X66184049Y-19106980D01*
X66061379Y-19119062D01*
X65903981Y-19166808D01*
X65758922Y-19244344D01*
X65631777Y-19348689D01*
X65605631Y-19380548D01*
X62303574Y-22682607D01*
X62271710Y-22708757D01*
X62190907Y-22807216D01*
X62167364Y-22835903D01*
X62089828Y-22980962D01*
X62042082Y-23138360D01*
X62025960Y-23302048D01*
X62030001Y-23343077D01*
X62030000Y-64587287D01*
X61522124Y-64797656D01*
X61057793Y-65107912D01*
X60662912Y-65502793D01*
X60352656Y-65967124D01*
X60138948Y-66483061D01*
X60030000Y-67030777D01*
X59669893Y-67030777D01*
X59714128Y-66948020D01*
X59754727Y-66814184D01*
X59768435Y-66675000D01*
X59765000Y-66640123D01*
X59765000Y-20989877D01*
X59768435Y-20955000D01*
X59754727Y-20815816D01*
X59714128Y-20681980D01*
X59648200Y-20558637D01*
X59559475Y-20450525D01*
X59451363Y-20361800D01*
X59328020Y-20295872D01*
X59194184Y-20255273D01*
X59089877Y-20245000D01*
X59055000Y-20241565D01*
X59020123Y-20245000D01*
X56549877Y-20245000D01*
X56515000Y-20241565D01*
X56480123Y-20245000D01*
X56375816Y-20255273D01*
X56241980Y-20295872D01*
X56118637Y-20361800D01*
X56010525Y-20450525D01*
X55921800Y-20558637D01*
X55855872Y-20681980D01*
X55815273Y-20815816D01*
X55801565Y-20955000D01*
X49513870Y-20955000D01*
X48389438Y-19830569D01*
X48363283Y-19798699D01*
X48236138Y-19694354D01*
X48091079Y-19616818D01*
X47933681Y-19569072D01*
X47811011Y-19556990D01*
X47811010Y-19556990D01*
X47769992Y-19552950D01*
X47728974Y-19556990D01*
X42600476Y-19556990D01*
X42559458Y-19552950D01*
X42518440Y-19556990D01*
X42518439Y-19556990D01*
X42395769Y-19569072D01*
X42238371Y-19616818D01*
X42093312Y-19694354D01*
X42060308Y-19721440D01*
X41719425Y-19380558D01*
X41693271Y-19348689D01*
X41566126Y-19244344D01*
X41421067Y-19166808D01*
X41263669Y-19119062D01*
X41140999Y-19106980D01*
X41140998Y-19106980D01*
X41099980Y-19102940D01*
X41058962Y-19106980D01*
X22451086Y-19106980D01*
X22410068Y-19102940D01*
X22369050Y-19106980D01*
X22369049Y-19106980D01*
X22246379Y-19119062D01*
X22088981Y-19166808D01*
X21943922Y-19244344D01*
X21816777Y-19348689D01*
X21790631Y-19380548D01*
X18488574Y-22682607D01*
X18456710Y-22708757D01*
X18375907Y-22807216D01*
X18352364Y-22835903D01*
X18274828Y-22980962D01*
X18227082Y-23138360D01*
X18210960Y-23302048D01*
X18215001Y-23343077D01*
X18215000Y-64587287D01*
X17707124Y-64797656D01*
X17242793Y-65107912D01*
X16847912Y-65502793D01*
X16537656Y-65967124D01*
X16323948Y-66483061D01*
X16215000Y-67030777D01*
X15950000Y-67030777D01*
X15950000Y-18499775D01*
X50894830Y-18499775D01*
X51134976Y-18887018D01*
X51628877Y-19147641D01*
X52164133Y-19306901D01*
X52720174Y-19358678D01*
X53275632Y-19300981D01*
X53809161Y-19136028D01*
X54275024Y-18887018D01*
X54515170Y-18499775D01*
X94709830Y-18499775D01*
X94949976Y-18887018D01*
X95443877Y-19147641D01*
X95979133Y-19306901D01*
X96535174Y-19358678D01*
X97090632Y-19300981D01*
X97624161Y-19136028D01*
X98090024Y-18887018D01*
X98330170Y-18499775D01*
X96520000Y-16689605D01*
X94709830Y-18499775D01*
X54515170Y-18499775D01*
X52705000Y-16689605D01*
X50894830Y-18499775D01*
X15950000Y-18499775D01*
X15950000Y-17811618D01*
X16021842Y-17006642D01*
X16153556Y-16525174D01*
X49856322Y-16525174D01*
X49914019Y-17080632D01*
X50078972Y-17614161D01*
X50327982Y-18080024D01*
X50715225Y-18320170D01*
X52525395Y-16510000D01*
X50715225Y-14699830D01*
X50327982Y-14939976D01*
X50067359Y-15433877D01*
X49908099Y-15969133D01*
X49856322Y-16525174D01*
X16153556Y-16525174D01*
X16226723Y-16257723D01*
X16560986Y-15556928D01*
X17014069Y-14926395D01*
X17571645Y-14386066D01*
X18216099Y-13953011D01*
X18927044Y-13640927D01*
X19687493Y-13458360D01*
X20346031Y-13410000D01*
X51403382Y-13410000D01*
X52208358Y-13481842D01*
G36*
X93145001Y-59729131D02*
G01*
X85203579Y-67670554D01*
X85171709Y-67696709D01*
X85106168Y-67776572D01*
X85067364Y-67823855D01*
X84989828Y-67968914D01*
X84964646Y-68051928D01*
X84865000Y-68051928D01*
X84740518Y-68064188D01*
X84620820Y-68100498D01*
X84510506Y-68159463D01*
X84413815Y-68238815D01*
X84334463Y-68335506D01*
X84275498Y-68445820D01*
X84239188Y-68565518D01*
X84226928Y-68690000D01*
X84226928Y-69137126D01*
X75042804Y-59953003D01*
X75019001Y-59923999D01*
X74903276Y-59829026D01*
X74771247Y-59758454D01*
X74627986Y-59714997D01*
X74516333Y-59704000D01*
X74516322Y-59704000D01*
X74479000Y-59700324D01*
X74441678Y-59704000D01*
X73782939Y-59704000D01*
X73780537Y-59699506D01*
X73701185Y-59602815D01*
X73604494Y-59523463D01*
X73494180Y-59464498D01*
X73374482Y-59428188D01*
X73250000Y-59415928D01*
X72178728Y-59415928D01*
X72130667Y-59326011D01*
X72043817Y-59220183D01*
X71937989Y-59133333D01*
X71817252Y-59068798D01*
X71686244Y-59029057D01*
X71584135Y-59019000D01*
X71584134Y-59019000D01*
X71550000Y-59015638D01*
X71515865Y-59019000D01*
X68184135Y-59019000D01*
X68150000Y-59015638D01*
X68115866Y-59019000D01*
X68115865Y-59019000D01*
X68013756Y-59029057D01*
X67934148Y-59053206D01*
X67911427Y-59034559D01*
X65637990Y-56761123D01*
X65637990Y-52780000D01*
X92167123Y-52780000D01*
X92202000Y-52783435D01*
X92236877Y-52780000D01*
X92341184Y-52769727D01*
X92475020Y-52729128D01*
X92598363Y-52663200D01*
X92706475Y-52574475D01*
X92795200Y-52466363D01*
X92861128Y-52343020D01*
X92901727Y-52209184D01*
X92915435Y-52070000D01*
X92912000Y-52035123D01*
X92912000Y-34324877D01*
X92915435Y-34290000D01*
X92901727Y-34150816D01*
X92861128Y-34016980D01*
X92795200Y-33893637D01*
X92706475Y-33785525D01*
X92598363Y-33696800D01*
X92475020Y-33630872D01*
X92341184Y-33590273D01*
X92236877Y-33580000D01*
X92202000Y-33576565D01*
X92167123Y-33580000D01*
X65637990Y-33580000D01*
X65637990Y-25600000D01*
X93145000Y-25600000D01*
X93145001Y-59729131D01*
G37*
X93145001Y-59729131D02*
X85203579Y-67670554D01*
X85171709Y-67696709D01*
X85106168Y-67776572D01*
X85067364Y-67823855D01*
X84989828Y-67968914D01*
X84964646Y-68051928D01*
X84865000Y-68051928D01*
X84740518Y-68064188D01*
X84620820Y-68100498D01*
X84510506Y-68159463D01*
X84413815Y-68238815D01*
X84334463Y-68335506D01*
X84275498Y-68445820D01*
X84239188Y-68565518D01*
X84226928Y-68690000D01*
X84226928Y-69137126D01*
X75042804Y-59953003D01*
X75019001Y-59923999D01*
X74903276Y-59829026D01*
X74771247Y-59758454D01*
X74627986Y-59714997D01*
X74516333Y-59704000D01*
X74516322Y-59704000D01*
X74479000Y-59700324D01*
X74441678Y-59704000D01*
X73782939Y-59704000D01*
X73780537Y-59699506D01*
X73701185Y-59602815D01*
X73604494Y-59523463D01*
X73494180Y-59464498D01*
X73374482Y-59428188D01*
X73250000Y-59415928D01*
X72178728Y-59415928D01*
X72130667Y-59326011D01*
X72043817Y-59220183D01*
X71937989Y-59133333D01*
X71817252Y-59068798D01*
X71686244Y-59029057D01*
X71584135Y-59019000D01*
X71584134Y-59019000D01*
X71550000Y-59015638D01*
X71515865Y-59019000D01*
X68184135Y-59019000D01*
X68150000Y-59015638D01*
X68115866Y-59019000D01*
X68115865Y-59019000D01*
X68013756Y-59029057D01*
X67934148Y-59053206D01*
X67911427Y-59034559D01*
X65637990Y-56761123D01*
X65637990Y-52780000D01*
X92167123Y-52780000D01*
X92202000Y-52783435D01*
X92236877Y-52780000D01*
X92341184Y-52769727D01*
X92475020Y-52729128D01*
X92598363Y-52663200D01*
X92706475Y-52574475D01*
X92795200Y-52466363D01*
X92861128Y-52343020D01*
X92901727Y-52209184D01*
X92915435Y-52070000D01*
X92912000Y-52035123D01*
X92912000Y-34324877D01*
X92915435Y-34290000D01*
X92901727Y-34150816D01*
X92861128Y-34016980D01*
X92795200Y-33893637D01*
X92706475Y-33785525D01*
X92598363Y-33696800D01*
X92475020Y-33630872D01*
X92341184Y-33590273D01*
X92236877Y-33580000D01*
X92202000Y-33576565D01*
X92167123Y-33580000D01*
X65637990Y-33580000D01*
X65637990Y-25600000D01*
X93145000Y-25600000D01*
X93145001Y-59729131D01*
G36*
X84334463Y-20837506D02*
G01*
X84275498Y-20947820D01*
X84239188Y-21067518D01*
X84226928Y-21192000D01*
X84226928Y-22012000D01*
X84239188Y-22136482D01*
X84275498Y-22256180D01*
X84326716Y-22352000D01*
X84275498Y-22447820D01*
X84239188Y-22567518D01*
X84226928Y-22692000D01*
X84226928Y-23477010D01*
X73887207Y-23477010D01*
X73885000Y-23387750D01*
X73726250Y-23229000D01*
X72477000Y-23229000D01*
X72477000Y-23249000D01*
X72245000Y-23249000D01*
X72245000Y-22955000D01*
X72477000Y-22955000D01*
X72477000Y-22975000D01*
X73726250Y-22975000D01*
X73885000Y-22816250D01*
X73888072Y-22692000D01*
X73875812Y-22567518D01*
X73839502Y-22447820D01*
X73788284Y-22352000D01*
X73839502Y-22256180D01*
X73875812Y-22136482D01*
X73888072Y-22012000D01*
X73888072Y-21192000D01*
X73875812Y-21067518D01*
X73839502Y-20947820D01*
X73780537Y-20837506D01*
X73730865Y-20776980D01*
X84384135Y-20776980D01*
X84334463Y-20837506D01*
G37*
X84334463Y-20837506D02*
X84275498Y-20947820D01*
X84239188Y-21067518D01*
X84226928Y-21192000D01*
X84226928Y-22012000D01*
X84239188Y-22136482D01*
X84275498Y-22256180D01*
X84326716Y-22352000D01*
X84275498Y-22447820D01*
X84239188Y-22567518D01*
X84226928Y-22692000D01*
X84226928Y-23477010D01*
X73887207Y-23477010D01*
X73885000Y-23387750D01*
X73726250Y-23229000D01*
X72477000Y-23229000D01*
X72477000Y-23249000D01*
X72245000Y-23249000D01*
X72245000Y-22955000D01*
X72477000Y-22955000D01*
X72477000Y-22975000D01*
X73726250Y-22975000D01*
X73885000Y-22816250D01*
X73888072Y-22692000D01*
X73875812Y-22567518D01*
X73839502Y-22447820D01*
X73788284Y-22352000D01*
X73839502Y-22256180D01*
X73875812Y-22136482D01*
X73888072Y-22012000D01*
X73888072Y-21192000D01*
X73875812Y-21067518D01*
X73839502Y-20947820D01*
X73780537Y-20837506D01*
X73730865Y-20776980D01*
X84384135Y-20776980D01*
X84334463Y-20837506D01*
G36*
X90892000Y-22975000D02*
G01*
X90912000Y-22975000D01*
X90912000Y-23229000D01*
X90892000Y-23229000D01*
X90892000Y-23249000D01*
X90660000Y-23249000D01*
X90660000Y-22955000D01*
X90892000Y-22955000D01*
X90892000Y-22975000D01*
G37*
X90892000Y-22975000D02*
X90912000Y-22975000D01*
X90912000Y-23229000D01*
X90892000Y-23229000D01*
X90892000Y-23249000D01*
X90660000Y-23249000D01*
X90660000Y-22955000D01*
X90892000Y-22955000D01*
X90892000Y-22975000D01*
G36*
X49330001Y-59729131D02*
G01*
X41388579Y-67670554D01*
X41356709Y-67696709D01*
X41291168Y-67776572D01*
X41252364Y-67823855D01*
X41174828Y-67968914D01*
X41149646Y-68051928D01*
X41050000Y-68051928D01*
X40925518Y-68064188D01*
X40805820Y-68100498D01*
X40695506Y-68159463D01*
X40598815Y-68238815D01*
X40519463Y-68335506D01*
X40460498Y-68445820D01*
X40424188Y-68565518D01*
X40411928Y-68690000D01*
X40411928Y-69137126D01*
X31227804Y-59953003D01*
X31204001Y-59923999D01*
X31088276Y-59829026D01*
X30956247Y-59758454D01*
X30812986Y-59714997D01*
X30701333Y-59704000D01*
X30701322Y-59704000D01*
X30664000Y-59700324D01*
X30626678Y-59704000D01*
X29967939Y-59704000D01*
X29965537Y-59699506D01*
X29886185Y-59602815D01*
X29789494Y-59523463D01*
X29679180Y-59464498D01*
X29559482Y-59428188D01*
X29435000Y-59415928D01*
X28363728Y-59415928D01*
X28315667Y-59326011D01*
X28228817Y-59220183D01*
X28122989Y-59133333D01*
X28002252Y-59068798D01*
X27871244Y-59029057D01*
X27769135Y-59019000D01*
X27769134Y-59019000D01*
X27735000Y-59015638D01*
X27700865Y-59019000D01*
X24369135Y-59019000D01*
X24335000Y-59015638D01*
X24300866Y-59019000D01*
X24300865Y-59019000D01*
X24198756Y-59029057D01*
X24119148Y-59053206D01*
X24096427Y-59034559D01*
X21822990Y-56761123D01*
X21822990Y-52780000D01*
X48352123Y-52780000D01*
X48387000Y-52783435D01*
X48421877Y-52780000D01*
X48526184Y-52769727D01*
X48660020Y-52729128D01*
X48783363Y-52663200D01*
X48891475Y-52574475D01*
X48980200Y-52466363D01*
X49046128Y-52343020D01*
X49086727Y-52209184D01*
X49100435Y-52070000D01*
X49097000Y-52035123D01*
X49097000Y-34324877D01*
X49100435Y-34290000D01*
X49086727Y-34150816D01*
X49046128Y-34016980D01*
X48980200Y-33893637D01*
X48891475Y-33785525D01*
X48783363Y-33696800D01*
X48660020Y-33630872D01*
X48526184Y-33590273D01*
X48421877Y-33580000D01*
X48387000Y-33576565D01*
X48352123Y-33580000D01*
X21822990Y-33580000D01*
X21822990Y-25600000D01*
X49330000Y-25600000D01*
X49330001Y-59729131D01*
G37*
X49330001Y-59729131D02*
X41388579Y-67670554D01*
X41356709Y-67696709D01*
X41291168Y-67776572D01*
X41252364Y-67823855D01*
X41174828Y-67968914D01*
X41149646Y-68051928D01*
X41050000Y-68051928D01*
X40925518Y-68064188D01*
X40805820Y-68100498D01*
X40695506Y-68159463D01*
X40598815Y-68238815D01*
X40519463Y-68335506D01*
X40460498Y-68445820D01*
X40424188Y-68565518D01*
X40411928Y-68690000D01*
X40411928Y-69137126D01*
X31227804Y-59953003D01*
X31204001Y-59923999D01*
X31088276Y-59829026D01*
X30956247Y-59758454D01*
X30812986Y-59714997D01*
X30701333Y-59704000D01*
X30701322Y-59704000D01*
X30664000Y-59700324D01*
X30626678Y-59704000D01*
X29967939Y-59704000D01*
X29965537Y-59699506D01*
X29886185Y-59602815D01*
X29789494Y-59523463D01*
X29679180Y-59464498D01*
X29559482Y-59428188D01*
X29435000Y-59415928D01*
X28363728Y-59415928D01*
X28315667Y-59326011D01*
X28228817Y-59220183D01*
X28122989Y-59133333D01*
X28002252Y-59068798D01*
X27871244Y-59029057D01*
X27769135Y-59019000D01*
X27769134Y-59019000D01*
X27735000Y-59015638D01*
X27700865Y-59019000D01*
X24369135Y-59019000D01*
X24335000Y-59015638D01*
X24300866Y-59019000D01*
X24300865Y-59019000D01*
X24198756Y-59029057D01*
X24119148Y-59053206D01*
X24096427Y-59034559D01*
X21822990Y-56761123D01*
X21822990Y-52780000D01*
X48352123Y-52780000D01*
X48387000Y-52783435D01*
X48421877Y-52780000D01*
X48526184Y-52769727D01*
X48660020Y-52729128D01*
X48783363Y-52663200D01*
X48891475Y-52574475D01*
X48980200Y-52466363D01*
X49046128Y-52343020D01*
X49086727Y-52209184D01*
X49100435Y-52070000D01*
X49097000Y-52035123D01*
X49097000Y-34324877D01*
X49100435Y-34290000D01*
X49086727Y-34150816D01*
X49046128Y-34016980D01*
X48980200Y-33893637D01*
X48891475Y-33785525D01*
X48783363Y-33696800D01*
X48660020Y-33630872D01*
X48526184Y-33590273D01*
X48421877Y-33580000D01*
X48387000Y-33576565D01*
X48352123Y-33580000D01*
X21822990Y-33580000D01*
X21822990Y-25600000D01*
X49330000Y-25600000D01*
X49330001Y-59729131D01*
G36*
X40519463Y-20837506D02*
G01*
X40460498Y-20947820D01*
X40424188Y-21067518D01*
X40411928Y-21192000D01*
X40411928Y-22012000D01*
X40424188Y-22136482D01*
X40460498Y-22256180D01*
X40511716Y-22352000D01*
X40460498Y-22447820D01*
X40424188Y-22567518D01*
X40411928Y-22692000D01*
X40411928Y-23477010D01*
X30072207Y-23477010D01*
X30070000Y-23387750D01*
X29911250Y-23229000D01*
X28662000Y-23229000D01*
X28662000Y-23249000D01*
X28430000Y-23249000D01*
X28430000Y-22955000D01*
X28662000Y-22955000D01*
X28662000Y-22975000D01*
X29911250Y-22975000D01*
X30070000Y-22816250D01*
X30073072Y-22692000D01*
X30060812Y-22567518D01*
X30024502Y-22447820D01*
X29973284Y-22352000D01*
X30024502Y-22256180D01*
X30060812Y-22136482D01*
X30073072Y-22012000D01*
X30073072Y-21192000D01*
X30060812Y-21067518D01*
X30024502Y-20947820D01*
X29965537Y-20837506D01*
X29915865Y-20776980D01*
X40569135Y-20776980D01*
X40519463Y-20837506D01*
G37*
X40519463Y-20837506D02*
X40460498Y-20947820D01*
X40424188Y-21067518D01*
X40411928Y-21192000D01*
X40411928Y-22012000D01*
X40424188Y-22136482D01*
X40460498Y-22256180D01*
X40511716Y-22352000D01*
X40460498Y-22447820D01*
X40424188Y-22567518D01*
X40411928Y-22692000D01*
X40411928Y-23477010D01*
X30072207Y-23477010D01*
X30070000Y-23387750D01*
X29911250Y-23229000D01*
X28662000Y-23229000D01*
X28662000Y-23249000D01*
X28430000Y-23249000D01*
X28430000Y-22955000D01*
X28662000Y-22955000D01*
X28662000Y-22975000D01*
X29911250Y-22975000D01*
X30070000Y-22816250D01*
X30073072Y-22692000D01*
X30060812Y-22567518D01*
X30024502Y-22447820D01*
X29973284Y-22352000D01*
X30024502Y-22256180D01*
X30060812Y-22136482D01*
X30073072Y-22012000D01*
X30073072Y-21192000D01*
X30060812Y-21067518D01*
X30024502Y-20947820D01*
X29965537Y-20837506D01*
X29915865Y-20776980D01*
X40569135Y-20776980D01*
X40519463Y-20837506D01*
G36*
X47077000Y-22975000D02*
G01*
X47097000Y-22975000D01*
X47097000Y-23229000D01*
X47077000Y-23229000D01*
X47077000Y-23249000D01*
X46845000Y-23249000D01*
X46845000Y-22955000D01*
X47077000Y-22955000D01*
X47077000Y-22975000D01*
G37*
X47077000Y-22975000D02*
X47097000Y-22975000D01*
X47097000Y-23229000D01*
X47077000Y-23229000D01*
X47077000Y-23249000D01*
X46845000Y-23249000D01*
X46845000Y-22955000D01*
X47077000Y-22955000D01*
X47077000Y-22975000D01*
M02*
