<?xml version="1.0" standalone="no"?>
 <!DOCTYPE svg PUBLIC "-//W3C//DTD SVG 1.1//EN" 
 "http://www.w3.org/Graphics/SVG/1.1/DTD/svg11.dtd"> 
<svg xmlns="http://www.w3.org/2000/svg" version="1.1" 
    width="17.3355cm" height="11.9761cm" viewBox="0 0 68250 47150 ">
<title>SVG Picture created as case2-brd.svg date 2019/08/19 23:28:49 </title>
  <desc>Picture generated by PCBNEW </desc>
<g style="fill:#000000; fill-opacity:1;stroke:#000000; stroke-opacity:1;
stroke-linecap:round; stroke-linejoin:round; "
 transform="translate(0 0) scale(1 1)">
</g>
<g style="fill:#000000; fill-opacity:0.0; 
stroke:#000000; stroke-width:-0.000393701; stroke-opacity:1; 
stroke-linecap:round; stroke-linejoin:round;">
</g>
<g style="fill:#000000; fill-opacity:0.0; 
stroke:#000000; stroke-width:59.0551; stroke-opacity:1; 
stroke-linecap:round; stroke-linejoin:round;">
<path d="M36476 1779
L43976 1779
" />
<path d="M10476 1779
L21476 1779
" />
<path d="M66476 10779
L66476 33279
" />
<path d="M31226 35779
L23726 35779
" />
<path d="M23726 35779
L10726 43279
" />
<path d="M5226 33779
L5226 7029
" />
<path d="M5226 7029
L10476 1779
" />
<path d="M5226 13029
L5226 23029
" />
</g>
<g style="fill:#000000; fill-opacity:0.0; 
stroke:#000000; stroke-width:78.7402; stroke-opacity:1; 
stroke-linecap:round; stroke-linejoin:round;">
<path d="M4726 7529
L4726 12529
" />
</g>
<g style="fill:#000000; fill-opacity:0.0; 
stroke:#000000; stroke-width:59.0551; stroke-opacity:1; 
stroke-linecap:round; stroke-linejoin:round;">
<path d="M10726 43279
L5226 33779
" />
<path d="M9226 1529
L10726 29
" />
<path d="M4726 6029
L3476 7279
" />
<path d="M6226 6029
L4726 6029
" />
<path d="M9226 3029
L9226 1529
" />
<path d="M4726 7529
L10976 1279
" />
<path d="M31226 34029
L31226 35779
" />
<path d="M38726 34029
L31226 34029
" />
<path d="M21476 4779
L21476 1779
" />
<path d="M28976 4779
L21476 4779
" />
<path d="M28976 3279
L28976 4779
" />
<path d="M36476 3279
L28976 3279
" />
<path d="M36476 1779
L36476 3279
" />
<path d="M43976 3279
L43976 1779
" />
<path d="M51476 3279
L43976 3279
" />
<path d="M51476 7029
L51476 3279
" />
<path d="M58976 7029
L51476 7029
" />
<path d="M58976 10779
L58976 7029
" />
<path d="M66476 10779
L58976 10779
" />
<path d="M58976 33279
L66476 33279
" />
<path d="M58976 29529
L58976 33279
" />
<path d="M51476 29529
L58976 29529
" />
<path d="M51476 25779
L51476 29529
" />
<path d="M43976 25779
L51476 25779
" />
<path d="M43976 24279
L43976 25779
" />
<path d="M38726 24279
L43976 24279
" />
<path d="M38726 34029
L38726 24279
" />
<path d="M3476 11279
L3476 7279
" />
<path d="M5226 13029
L3476 11279
" />
<path d="M5226 23029
L3476 24779
" />
</g>
<g style="fill:#000000; fill-opacity:0.0; 
stroke:#000000; stroke-width:78.7402; stroke-opacity:1; 
stroke-linecap:round; stroke-linejoin:round;">
<circle cx="62726.1" cy="34529.5" r="551.181" /> 
<circle cx="62726.1" cy="8029.53" r="551.181" /> 
<circle cx="25226.1" cy="3279.53" r="551.181" /> 
<circle cx="6976.1" cy="39029.5" r="551.181" /> 
</g>
<g style="fill:#000000; fill-opacity:0.0; 
stroke:#000000; stroke-width:59.0551; stroke-opacity:1; 
stroke-linecap:round; stroke-linejoin:round;">
<path d="M64476.1 37529.5 A3750 3750 0.0 0 0 68226.1 33779.5 " />
<path d="M68226.1 7779.53 A3750 3750 0.0 0 0 64476.1 4029.53 " />
<path d="M43976 29
L10726 29
" />
<path d="M64476 4029
L43976 29
" />
<path d="M68226 33779
L68226 7779
" />
<path d="M23726 37529
L64476 37529
" />
<path d="M10726 45029
L23726 37529
" />
</g>
<g style="fill:#000000; fill-opacity:0.0; 
stroke:#000000; stroke-width:78.7402; stroke-opacity:1; 
stroke-linecap:round; stroke-linejoin:round;">
<path d="M3476 40779
L10726 45029
" />
<path d="M3476 24779
L3476 40779
" />
</g>
<g style="fill:#000000; fill-opacity:0.0; 
stroke:#000000; stroke-width:59.0551; stroke-opacity:1; 
stroke-linecap:round; stroke-linejoin:round;">
<circle cx="5226.1" cy="1779.53" r="656.168" /> 
<path d="M4241 1779
L6210 1779
" />
<path d="M5226 795
L5226 2763
" />
<path d="M10726 43779
L4726 40279
" />
<path d="M66976.1 7779.53 A2500 2500 0.0 0 0 64476.1 5279.53 " />
<path d="M64476.1 36279.5 A2500 2500 0.0 0 0 66976.1 33779.5 " />
<path d="M4726 40279
L4726 23529
" />
<path d="M23726 36279
L10726 43779
" />
<path d="M64476 36279
L23726 36279
" />
<path d="M66976 7779
L66976 33779
" />
<path d="M43976 1279
L64476 5279
" />
<path d="M10976 1279
L43976 1279
" />
</g> 
</svg>
