<?xml version="1.0" standalone="no"?>
 <!DOCTYPE svg PUBLIC "-//W3C//DTD SVG 1.1//EN" 
 "http://www.w3.org/Graphics/SVG/1.1/DTD/svg11.dtd"> 
<svg xmlns="http://www.w3.org/2000/svg" version="1.1" 
    width="17.2085cm" height="11.8491cm" viewBox="0 0 67750 46650 ">
<title>SVG Picture created as case-brd.svg date 2019/08/16 03:13:29 </title>
  <desc>Picture generated by PCBNEW </desc>
<g style="fill:#000000; fill-opacity:1;stroke:#000000; stroke-opacity:1;
stroke-linecap:round; stroke-linejoin:round; "
 transform="translate(0 0) scale(1 1)">
</g>
<g style="fill:#000000; fill-opacity:0.0; 
stroke:#000000; stroke-width:-0.000393701; stroke-opacity:1; 
stroke-linecap:round; stroke-linejoin:round;">
</g>
<g style="fill:#000000; fill-opacity:0.0; 
stroke:#000000; stroke-width:59.0551; stroke-opacity:1; 
stroke-linecap:round; stroke-linejoin:round;">
<path d="M9226 1029
L10226 29
" />
<path d="M4976 5279
L3976 6279
" />
<path d="M6476 5279
L4976 5279
" />
<path d="M9226 2529
L9226 1029
" />
<path d="M5226 6529
L10476 1279
" />
<path d="M31226 33529
L31226 35279
" />
<path d="M38726 33529
L31226 33529
" />
<path d="M10726 42779
L5226 33129
" />
<path d="M21476 4279
L21476 1279
" />
<path d="M28976 4279
L21476 4279
" />
<path d="M28976 2779
L28976 4279
" />
<path d="M36476 2779
L28976 2779
" />
<path d="M36476 1279
L36476 2779
" />
<path d="M43976 2779
L43976 1279
" />
<path d="M51476 2779
L43976 2779
" />
<path d="M51476 6529
L51476 2779
" />
<path d="M58976 6529
L51476 6529
" />
<path d="M58976 10279
L58976 6529
" />
<path d="M66476 10279
L58976 10279
" />
<path d="M58976 32779
L66476 32779
" />
<path d="M58976 29029
L58976 32779
" />
<path d="M51476 29029
L58976 29029
" />
<path d="M51476 25279
L51476 29029
" />
<path d="M43976 25279
L51476 25279
" />
<path d="M43976 23779
L43976 25279
" />
<path d="M38726 23779
L43976 23779
" />
<path d="M38726 33529
L38726 23779
" />
<path d="M3976 11279
L3976 6279
" />
<path d="M5226 12529
L3976 11279
" />
<path d="M5226 22279
L3976 23529
" />
</g>
<g style="fill:#000000; fill-opacity:0.0; 
stroke:#000000; stroke-width:78.7402; stroke-opacity:1; 
stroke-linecap:round; stroke-linejoin:round;">
<circle cx="62726.1" cy="34029.5" r="551.181" /> 
<circle cx="62726.1" cy="7529.53" r="551.181" /> 
<circle cx="25226.1" cy="2779.53" r="551.181" /> 
<circle cx="6976.1" cy="38529.5" r="551.181" /> 
</g>
<g style="fill:#000000; fill-opacity:0.0; 
stroke:#000000; stroke-width:59.0551; stroke-opacity:1; 
stroke-linecap:round; stroke-linejoin:round;">
<path d="M64476.1 36529.5 A3250 3250 0.0 0 0 67726.1 33279.5 " />
<path d="M67726.1 7279.53 A3250 3250 0.0 0 0 64476.1 4029.53 " />
<path d="M43976 29
L10226 29
" />
<path d="M64476 4029
L43976 29
" />
<path d="M67726 33279
L67726 7279
" />
<path d="M23726 36529
L64476 36529
" />
<path d="M10726 44029
L23726 36529
" />
</g>
<g style="fill:#000000; fill-opacity:0.0; 
stroke:#000000; stroke-width:78.7402; stroke-opacity:1; 
stroke-linecap:round; stroke-linejoin:round;">
<path d="M3976 40529
L10726 44029
" />
<path d="M3976 23529
L3976 40529
" />
</g>
<g style="fill:#000000; fill-opacity:0.0; 
stroke:#000000; stroke-width:59.0551; stroke-opacity:1; 
stroke-linecap:round; stroke-linejoin:round;">
<circle cx="5226.1" cy="1279.53" r="656.168" /> 
<path d="M4241 1279
L6210 1279
" />
<path d="M5226 295
L5226 2263
" />
<path d="M10726 42779
L5226 39529
" />
<path d="M66476.1 7279.53 A2000 2000 0.0 0 0 64476.1 5279.53 " />
<path d="M64476.1 35279.5 A2000 2000 0.0 0 0 66476.1 33279.5 " />
<path d="M5226 39529
L5226 6529
" />
<path d="M23726 35279
L10726 42779
" />
<path d="M64476 35279
L23726 35279
" />
<path d="M66476 7279
L66476 33279
" />
<path d="M43976 1279
L64476 5279
" />
<path d="M10476 1279
L43976 1279
" />
</g> 
</svg>
