G04 #@! TF.GenerationSoftware,KiCad,Pcbnew,5.1.5+dfsg1-2build2*
G04 #@! TF.CreationDate,2020-09-19T22:34:38+09:00*
G04 #@! TF.ProjectId,toppcb,746f7070-6362-42e6-9b69-6361645f7063,rev?*
G04 #@! TF.SameCoordinates,Original*
G04 #@! TF.FileFunction,Copper,L2,Bot*
G04 #@! TF.FilePolarity,Positive*
%FSLAX46Y46*%
G04 Gerber Fmt 4.6, Leading zero omitted, Abs format (unit mm)*
G04 Created by KiCad (PCBNEW 5.1.5+dfsg1-2build2) date 2020-09-19 22:34:38*
%MOMM*%
%LPD*%
G04 APERTURE LIST*
%ADD10C,0.010000*%
%ADD11C,2.000000*%
%ADD12O,2.000000X8.000000*%
%ADD13O,8.000000X2.000000*%
%ADD14C,0.700000*%
%ADD15C,4.400000*%
G04 APERTURE END LIST*
D10*
G36*
X118995184Y-90203845D02*
G01*
X118820718Y-90264295D01*
X118708435Y-90351708D01*
X118504989Y-90710773D01*
X118518525Y-91124687D01*
X118730715Y-91552666D01*
X119123232Y-91953923D01*
X119550755Y-92226225D01*
X120078500Y-92497365D01*
X119669645Y-92665957D01*
X119323191Y-92896141D01*
X119065900Y-93211426D01*
X118949497Y-93485388D01*
X118953758Y-93714957D01*
X119081952Y-94030640D01*
X119086663Y-94040534D01*
X119454982Y-94521445D01*
X120053224Y-94910593D01*
X120872683Y-95203234D01*
X121447074Y-95327081D01*
X121954317Y-95433666D01*
X122380641Y-95555922D01*
X122650016Y-95671181D01*
X122683317Y-95695691D01*
X122916416Y-95864106D01*
X123065155Y-95837741D01*
X123124531Y-95761186D01*
X123288976Y-95700421D01*
X123616132Y-95698638D01*
X123767026Y-95714949D01*
X124104107Y-95744884D01*
X124306682Y-95731480D01*
X124333000Y-95710378D01*
X124283175Y-95556558D01*
X124156372Y-95257180D01*
X124068199Y-95064890D01*
X123887589Y-94721791D01*
X123710430Y-94548758D01*
X123448569Y-94478948D01*
X123274449Y-94463024D01*
X123147458Y-94443451D01*
X122174000Y-94443451D01*
X122058821Y-94488443D01*
X121748002Y-94482328D01*
X121293619Y-94430146D01*
X120747749Y-94336934D01*
X120463110Y-94277910D01*
X119950201Y-94151730D01*
X119650778Y-94029998D01*
X119526898Y-93881118D01*
X119540616Y-93673489D01*
X119544359Y-93662500D01*
X119380000Y-93662500D01*
X119316500Y-93726000D01*
X119253000Y-93662500D01*
X119316500Y-93599000D01*
X119380000Y-93662500D01*
X119544359Y-93662500D01*
X119584088Y-93545887D01*
X119694761Y-93428909D01*
X119947809Y-93365961D01*
X120395084Y-93345215D01*
X120464820Y-93345000D01*
X121110634Y-93373008D01*
X121553502Y-93469698D01*
X121839571Y-93654066D01*
X122014988Y-93945107D01*
X122031415Y-93989882D01*
X122127543Y-94277352D01*
X122173368Y-94437441D01*
X122174000Y-94443451D01*
X123147458Y-94443451D01*
X122912213Y-94407193D01*
X122694494Y-94261904D01*
X122525641Y-93983959D01*
X122392465Y-93617240D01*
X122430391Y-93418809D01*
X122554103Y-93149265D01*
X122467762Y-92877241D01*
X122241088Y-92711364D01*
X122067450Y-92578395D01*
X121438380Y-92578395D01*
X120694940Y-92322634D01*
X120179891Y-92132042D01*
X119664935Y-91920528D01*
X119405889Y-91802770D01*
X119043108Y-91586474D01*
X118930376Y-91413183D01*
X119066855Y-91287513D01*
X119451703Y-91214080D01*
X119514012Y-91209036D01*
X120219632Y-91210830D01*
X120732270Y-91346603D01*
X121085381Y-91635263D01*
X121312420Y-92095715D01*
X121355951Y-92249969D01*
X121438380Y-92578395D01*
X122067450Y-92578395D01*
X122015724Y-92538785D01*
X121799399Y-92242838D01*
X121640486Y-91912390D01*
X121587357Y-91636310D01*
X121610839Y-91553508D01*
X121782186Y-91458350D01*
X121927496Y-91440000D01*
X122118016Y-91343621D01*
X122174620Y-91103105D01*
X122095294Y-90791384D01*
X121951750Y-90562422D01*
X121822649Y-90439874D01*
X121638770Y-90354212D01*
X121348975Y-90294432D01*
X120902123Y-90249532D01*
X120327685Y-90212989D01*
X119697999Y-90182533D01*
X119270721Y-90178038D01*
X118995184Y-90203845D01*
G37*
X118995184Y-90203845D02*
X118820718Y-90264295D01*
X118708435Y-90351708D01*
X118504989Y-90710773D01*
X118518525Y-91124687D01*
X118730715Y-91552666D01*
X119123232Y-91953923D01*
X119550755Y-92226225D01*
X120078500Y-92497365D01*
X119669645Y-92665957D01*
X119323191Y-92896141D01*
X119065900Y-93211426D01*
X118949497Y-93485388D01*
X118953758Y-93714957D01*
X119081952Y-94030640D01*
X119086663Y-94040534D01*
X119454982Y-94521445D01*
X120053224Y-94910593D01*
X120872683Y-95203234D01*
X121447074Y-95327081D01*
X121954317Y-95433666D01*
X122380641Y-95555922D01*
X122650016Y-95671181D01*
X122683317Y-95695691D01*
X122916416Y-95864106D01*
X123065155Y-95837741D01*
X123124531Y-95761186D01*
X123288976Y-95700421D01*
X123616132Y-95698638D01*
X123767026Y-95714949D01*
X124104107Y-95744884D01*
X124306682Y-95731480D01*
X124333000Y-95710378D01*
X124283175Y-95556558D01*
X124156372Y-95257180D01*
X124068199Y-95064890D01*
X123887589Y-94721791D01*
X123710430Y-94548758D01*
X123448569Y-94478948D01*
X123274449Y-94463024D01*
X123147458Y-94443451D01*
X122174000Y-94443451D01*
X122058821Y-94488443D01*
X121748002Y-94482328D01*
X121293619Y-94430146D01*
X120747749Y-94336934D01*
X120463110Y-94277910D01*
X119950201Y-94151730D01*
X119650778Y-94029998D01*
X119526898Y-93881118D01*
X119540616Y-93673489D01*
X119544359Y-93662500D01*
X119380000Y-93662500D01*
X119316500Y-93726000D01*
X119253000Y-93662500D01*
X119316500Y-93599000D01*
X119380000Y-93662500D01*
X119544359Y-93662500D01*
X119584088Y-93545887D01*
X119694761Y-93428909D01*
X119947809Y-93365961D01*
X120395084Y-93345215D01*
X120464820Y-93345000D01*
X121110634Y-93373008D01*
X121553502Y-93469698D01*
X121839571Y-93654066D01*
X122014988Y-93945107D01*
X122031415Y-93989882D01*
X122127543Y-94277352D01*
X122173368Y-94437441D01*
X122174000Y-94443451D01*
X123147458Y-94443451D01*
X122912213Y-94407193D01*
X122694494Y-94261904D01*
X122525641Y-93983959D01*
X122392465Y-93617240D01*
X122430391Y-93418809D01*
X122554103Y-93149265D01*
X122467762Y-92877241D01*
X122241088Y-92711364D01*
X122067450Y-92578395D01*
X121438380Y-92578395D01*
X120694940Y-92322634D01*
X120179891Y-92132042D01*
X119664935Y-91920528D01*
X119405889Y-91802770D01*
X119043108Y-91586474D01*
X118930376Y-91413183D01*
X119066855Y-91287513D01*
X119451703Y-91214080D01*
X119514012Y-91209036D01*
X120219632Y-91210830D01*
X120732270Y-91346603D01*
X121085381Y-91635263D01*
X121312420Y-92095715D01*
X121355951Y-92249969D01*
X121438380Y-92578395D01*
X122067450Y-92578395D01*
X122015724Y-92538785D01*
X121799399Y-92242838D01*
X121640486Y-91912390D01*
X121587357Y-91636310D01*
X121610839Y-91553508D01*
X121782186Y-91458350D01*
X121927496Y-91440000D01*
X122118016Y-91343621D01*
X122174620Y-91103105D01*
X122095294Y-90791384D01*
X121951750Y-90562422D01*
X121822649Y-90439874D01*
X121638770Y-90354212D01*
X121348975Y-90294432D01*
X120902123Y-90249532D01*
X120327685Y-90212989D01*
X119697999Y-90182533D01*
X119270721Y-90178038D01*
X118995184Y-90203845D01*
G36*
X108646264Y-77583830D02*
G01*
X108501888Y-77883725D01*
X108397046Y-78200250D01*
X108227048Y-78794044D01*
X108103922Y-79183839D01*
X108007622Y-79410658D01*
X107918103Y-79515530D01*
X107815318Y-79539479D01*
X107745832Y-79533017D01*
X107505047Y-79515937D01*
X107094625Y-79501213D01*
X106598926Y-79491788D01*
X106547007Y-79491241D01*
X105393512Y-79602552D01*
X104300252Y-79944694D01*
X103301023Y-80495877D01*
X102429620Y-81234312D01*
X101719839Y-82138208D01*
X101341921Y-82847144D01*
X101179864Y-83183622D01*
X101051203Y-83398029D01*
X101006085Y-83439000D01*
X100857187Y-83407593D01*
X100526672Y-83324102D01*
X100077599Y-83204618D01*
X99931553Y-83164808D01*
X99459082Y-83047503D01*
X99084320Y-82977180D01*
X98870609Y-82964966D01*
X98847359Y-82974308D01*
X98805989Y-83063896D01*
X98893872Y-83153922D01*
X99144577Y-83260699D01*
X99591675Y-83400538D01*
X99911185Y-83491251D01*
X100901500Y-83767300D01*
X100857144Y-84725604D01*
X100913855Y-85894954D01*
X101180705Y-87013843D01*
X101638646Y-88044232D01*
X102268632Y-88948083D01*
X103051616Y-89687359D01*
X103487903Y-89979500D01*
X103844300Y-90223078D01*
X104078444Y-90449077D01*
X104137480Y-90572362D01*
X104185841Y-90886211D01*
X104217088Y-90985112D01*
X104220099Y-91112714D01*
X104067094Y-91175321D01*
X103740838Y-91194595D01*
X103448142Y-91210949D01*
X103367117Y-91254514D01*
X103508110Y-91335452D01*
X103881470Y-91463929D01*
X104076500Y-91524307D01*
X104306181Y-91625921D01*
X104421727Y-91792634D01*
X104440576Y-92084652D01*
X104380165Y-92562181D01*
X104379075Y-92569000D01*
X104395306Y-92820443D01*
X104479458Y-92925569D01*
X104610189Y-92861702D01*
X104676064Y-92685569D01*
X104717260Y-92532474D01*
X104784795Y-92560538D01*
X104909632Y-92793186D01*
X104960152Y-92900500D01*
X105101861Y-93315965D01*
X105187848Y-93791575D01*
X105216393Y-94260451D01*
X105185781Y-94655712D01*
X105094291Y-94910481D01*
X105013251Y-94967402D01*
X104778759Y-94901271D01*
X104475775Y-94666476D01*
X104157181Y-94317477D01*
X103875860Y-93908733D01*
X103751707Y-93668216D01*
X103604000Y-93381231D01*
X103526499Y-93312378D01*
X103526128Y-93433796D01*
X103609811Y-93717626D01*
X103688999Y-93920529D01*
X104004607Y-94510109D01*
X104405900Y-95018589D01*
X104845063Y-95399611D01*
X105274284Y-95606815D01*
X105453124Y-95631000D01*
X105680051Y-95555766D01*
X105924443Y-95397320D01*
X106174373Y-95045562D01*
X106287763Y-94623198D01*
X106362500Y-94082756D01*
X106716145Y-94361552D01*
X107174036Y-94608028D01*
X107691602Y-94712193D01*
X108201733Y-94680622D01*
X108637322Y-94519889D01*
X108931260Y-94236568D01*
X108977593Y-94140009D01*
X109041294Y-93865918D01*
X109022914Y-93715342D01*
X108994675Y-93604476D01*
X109008766Y-93599000D01*
X109102811Y-93696766D01*
X109285962Y-93949497D01*
X109456791Y-94207181D01*
X109955947Y-94845447D01*
X110474033Y-95236290D01*
X111006864Y-95376612D01*
X111036675Y-95377000D01*
X111474168Y-95282139D01*
X111781720Y-94988229D01*
X111971068Y-94481282D01*
X112017328Y-94208063D01*
X112024886Y-94047094D01*
X110963300Y-94047094D01*
X110888631Y-94519750D01*
X110768893Y-94768376D01*
X110629428Y-94847816D01*
X110400148Y-94767480D01*
X110145833Y-94619483D01*
X109689442Y-94222472D01*
X109291570Y-93657245D01*
X109010317Y-93009585D01*
X108977493Y-92894451D01*
X108940188Y-92807888D01*
X107891530Y-92807888D01*
X107881676Y-92971806D01*
X107765610Y-93037130D01*
X107590745Y-92893856D01*
X107549445Y-92844387D01*
X107406052Y-92599144D01*
X107394593Y-92429961D01*
X107529120Y-92412930D01*
X107726825Y-92557379D01*
X107891530Y-92807888D01*
X108940188Y-92807888D01*
X108790094Y-92459615D01*
X108504290Y-92058936D01*
X108454004Y-92007670D01*
X108064956Y-91634939D01*
X107594728Y-91886719D01*
X107211595Y-92200365D01*
X107066522Y-92585587D01*
X107164620Y-93012719D01*
X107353096Y-93289416D01*
X107659028Y-93645084D01*
X107893933Y-93370734D01*
X108089675Y-93196544D01*
X108216107Y-93235265D01*
X108227975Y-93252442D01*
X108325779Y-93622560D01*
X108200672Y-94011118D01*
X108028555Y-94219856D01*
X107806879Y-94400165D01*
X107613966Y-94431471D01*
X107326659Y-94330336D01*
X107298305Y-94318063D01*
X106754105Y-94001438D01*
X106362616Y-93566967D01*
X106080703Y-92959915D01*
X105989026Y-92656765D01*
X105946498Y-92493941D01*
X105183091Y-92493941D01*
X105175216Y-92642107D01*
X105152011Y-92644034D01*
X105054307Y-92485776D01*
X104963797Y-92194235D01*
X104963186Y-92191462D01*
X104913132Y-91857756D01*
X104942639Y-91754109D01*
X105025355Y-91879716D01*
X105125635Y-92196430D01*
X105183091Y-92493941D01*
X105946498Y-92493941D01*
X105871907Y-92208363D01*
X105823947Y-91938986D01*
X105845685Y-91783107D01*
X105937657Y-91675194D01*
X105997467Y-91628330D01*
X106157645Y-91492535D01*
X106100088Y-91449125D01*
X105958822Y-91444039D01*
X105680059Y-91364012D01*
X105420931Y-91182645D01*
X105286059Y-90976895D01*
X105283008Y-90946990D01*
X104775000Y-90946990D01*
X104724896Y-91117827D01*
X104648000Y-91122500D01*
X104542395Y-90943887D01*
X104521000Y-90790009D01*
X104571105Y-90619172D01*
X104648000Y-90614500D01*
X104753606Y-90793112D01*
X104775000Y-90946990D01*
X105283008Y-90946990D01*
X105283000Y-90946921D01*
X105400913Y-90906770D01*
X105718354Y-90874587D01*
X106180880Y-90854623D01*
X106521250Y-90850236D01*
X107210083Y-90833843D01*
X107750198Y-90774601D01*
X108245889Y-90652097D01*
X108801445Y-90445918D01*
X108989795Y-90367071D01*
X109153254Y-90365186D01*
X109318994Y-90535148D01*
X109483921Y-90826215D01*
X109708870Y-91231068D01*
X110008715Y-91723342D01*
X110261463Y-92110954D01*
X110636835Y-92777098D01*
X110875927Y-93442243D01*
X110963300Y-94047094D01*
X112024886Y-94047094D01*
X112041675Y-93689525D01*
X111953047Y-93196107D01*
X111835300Y-92845555D01*
X111612888Y-92316978D01*
X110850818Y-92316978D01*
X110842131Y-92453232D01*
X110734916Y-92388310D01*
X110538982Y-92128291D01*
X110264138Y-91679256D01*
X109920194Y-91047284D01*
X109911977Y-91031471D01*
X109734061Y-90648274D01*
X109621520Y-90328057D01*
X109601000Y-90208858D01*
X109653035Y-90096983D01*
X109790536Y-90176258D01*
X109985599Y-90410535D01*
X110210320Y-90763669D01*
X110436795Y-91199513D01*
X110533373Y-91416621D01*
X110751169Y-91973467D01*
X110850818Y-92316978D01*
X111612888Y-92316978D01*
X111535940Y-92134107D01*
X111185112Y-91438047D01*
X110820440Y-90824000D01*
X110479544Y-90358591D01*
X110357130Y-90227875D01*
X109990817Y-89876925D01*
X110682280Y-89130063D01*
X111078466Y-88652041D01*
X111452161Y-88117087D01*
X111722190Y-87641539D01*
X112040207Y-86964648D01*
X111563115Y-86964648D01*
X111502679Y-87233646D01*
X111288583Y-87644930D01*
X111176574Y-87840962D01*
X110571480Y-88661307D01*
X109789661Y-89361449D01*
X108881874Y-89914778D01*
X107898879Y-90294687D01*
X106891433Y-90474565D01*
X106172000Y-90464514D01*
X105792668Y-90418779D01*
X105513614Y-90373995D01*
X105454631Y-90359948D01*
X105401287Y-90241312D01*
X105438592Y-89932032D01*
X105569343Y-89411409D01*
X105594919Y-89321678D01*
X105845780Y-88451006D01*
X105438805Y-88451006D01*
X105401071Y-88805901D01*
X105267532Y-89323763D01*
X105219262Y-89491117D01*
X105096245Y-89884818D01*
X104992231Y-90084273D01*
X104861758Y-90140920D01*
X104672714Y-90109510D01*
X104369251Y-89992451D01*
X103970574Y-89786369D01*
X103736972Y-89646008D01*
X102878223Y-88959933D01*
X102177019Y-88118457D01*
X101655463Y-87164789D01*
X101335656Y-86142142D01*
X101239699Y-85093728D01*
X101256420Y-84796284D01*
X101302291Y-84387740D01*
X101351859Y-84093140D01*
X101385297Y-83992370D01*
X101527400Y-83995537D01*
X101852610Y-84057440D01*
X102300163Y-84165799D01*
X102475930Y-84212828D01*
X103505000Y-84494848D01*
X103505000Y-85222422D01*
X103626511Y-86080021D01*
X103977232Y-86853333D01*
X104536447Y-87503378D01*
X104843167Y-87740272D01*
X105173253Y-87980576D01*
X105367333Y-88196693D01*
X105438805Y-88451006D01*
X105845780Y-88451006D01*
X105881077Y-88328500D01*
X106699403Y-88256906D01*
X107619159Y-88066876D01*
X108391350Y-87670317D01*
X109017053Y-87066668D01*
X109042367Y-87033860D01*
X109283496Y-86701246D01*
X109454712Y-86435422D01*
X109500922Y-86342736D01*
X109592289Y-86279379D01*
X109824936Y-86291058D01*
X110235990Y-86382461D01*
X110596087Y-86481045D01*
X111132456Y-86641379D01*
X111447253Y-86784903D01*
X111563115Y-86964648D01*
X112040207Y-86964648D01*
X112070638Y-86899877D01*
X112963069Y-87143362D01*
X113435998Y-87273190D01*
X113833152Y-87383644D01*
X114071801Y-87451706D01*
X114077750Y-87453482D01*
X114265700Y-87437603D01*
X114300000Y-87347398D01*
X114185733Y-87213052D01*
X113887064Y-87073710D01*
X113696750Y-87015510D01*
X113224172Y-86890758D01*
X112766827Y-86769937D01*
X112641559Y-86736820D01*
X112189617Y-86617300D01*
X112243913Y-85481652D01*
X112251245Y-85117743D01*
X111885266Y-85117743D01*
X111870230Y-85586119D01*
X111832763Y-86014160D01*
X111781287Y-86334900D01*
X111724224Y-86481376D01*
X111713438Y-86483978D01*
X111592862Y-86449520D01*
X111286334Y-86360340D01*
X110851616Y-86233260D01*
X110680500Y-86183127D01*
X110545049Y-86143421D01*
X109342220Y-86143421D01*
X109058860Y-86648229D01*
X108735482Y-87069936D01*
X108275539Y-87489678D01*
X107781635Y-87819965D01*
X107569000Y-87918638D01*
X107341006Y-87960619D01*
X106958514Y-87991266D01*
X106663916Y-88000973D01*
X105949332Y-88011000D01*
X106328403Y-86697128D01*
X106700950Y-85405872D01*
X106354218Y-85405872D01*
X106301258Y-85687498D01*
X106208581Y-85985887D01*
X106074353Y-86434146D01*
X105926810Y-86937921D01*
X105919482Y-86963250D01*
X105784457Y-87402985D01*
X105669514Y-87728458D01*
X105596136Y-87879849D01*
X105588816Y-87884000D01*
X105441980Y-87831110D01*
X105181444Y-87704838D01*
X104595372Y-87266827D01*
X104117469Y-86651959D01*
X103793502Y-85929593D01*
X103687905Y-85441438D01*
X103655501Y-85047645D01*
X103699562Y-84803661D01*
X103856703Y-84694215D01*
X104163538Y-84704038D01*
X104656683Y-84817858D01*
X104972691Y-84905622D01*
X105488421Y-85052975D01*
X105918521Y-85177441D01*
X106199165Y-85260477D01*
X106262649Y-85280377D01*
X106354218Y-85405872D01*
X106700950Y-85405872D01*
X106707475Y-85383257D01*
X108024848Y-85763339D01*
X109342220Y-86143421D01*
X110545049Y-86143421D01*
X109664500Y-85885298D01*
X109705923Y-85426422D01*
X109699822Y-85329863D01*
X109467684Y-85329863D01*
X109446849Y-85573413D01*
X109339538Y-85696984D01*
X109108381Y-85712376D01*
X108716006Y-85631388D01*
X108125043Y-85465819D01*
X107966231Y-85419669D01*
X107485912Y-85276013D01*
X107107818Y-85155381D01*
X106891508Y-85077083D01*
X106863927Y-85062260D01*
X106871433Y-84924353D01*
X106936845Y-84607585D01*
X107042815Y-84175690D01*
X107171996Y-83692401D01*
X107307038Y-83221454D01*
X107430593Y-82826581D01*
X107525313Y-82571517D01*
X107557133Y-82515584D01*
X107713673Y-82518267D01*
X107985584Y-82666928D01*
X108318437Y-82918646D01*
X108657800Y-83230501D01*
X108949241Y-83559571D01*
X109038328Y-83683559D01*
X109313363Y-84271089D01*
X109439415Y-84954536D01*
X109467684Y-85329863D01*
X109699822Y-85329863D01*
X109658901Y-84682314D01*
X109412226Y-83924584D01*
X108999250Y-83240723D01*
X108776821Y-82989136D01*
X108423220Y-82675172D01*
X108083895Y-82438412D01*
X107950749Y-82377513D01*
X107188000Y-82377513D01*
X107155414Y-82550042D01*
X107069555Y-82888284D01*
X106948277Y-83330668D01*
X106809432Y-83815623D01*
X106670871Y-84281577D01*
X106550447Y-84666961D01*
X106466013Y-84910202D01*
X106438354Y-84963000D01*
X106300396Y-84932075D01*
X105971757Y-84848648D01*
X105506894Y-84726737D01*
X105134814Y-84627412D01*
X104549540Y-84454662D01*
X104130125Y-84298487D01*
X103910553Y-84172444D01*
X103886000Y-84129285D01*
X103980213Y-83867320D01*
X104225391Y-83520093D01*
X104565345Y-83149319D01*
X104943886Y-82816716D01*
X105283000Y-82594878D01*
X105624072Y-82464880D01*
X106046233Y-82363680D01*
X106481312Y-82299058D01*
X106861137Y-82278792D01*
X107117537Y-82310661D01*
X107188000Y-82377513D01*
X107950749Y-82377513D01*
X107886618Y-82348181D01*
X107662896Y-82240346D01*
X107611323Y-82114891D01*
X107672546Y-81921494D01*
X107776256Y-81562767D01*
X107891782Y-81146310D01*
X108018504Y-80713628D01*
X108132542Y-80380249D01*
X108177365Y-80284779D01*
X107754892Y-80284779D01*
X107690835Y-80626513D01*
X107567316Y-81102916D01*
X107292542Y-82105544D01*
X106738542Y-82061482D01*
X106003456Y-82115398D01*
X105270141Y-82365556D01*
X104602799Y-82774078D01*
X104065630Y-83303087D01*
X103759330Y-83819203D01*
X103647157Y-84078555D01*
X103586468Y-84197174D01*
X103584843Y-84197978D01*
X103464657Y-84163164D01*
X103158622Y-84073024D01*
X102724374Y-83944554D01*
X102552500Y-83893601D01*
X102036891Y-83735385D01*
X101734891Y-83600613D01*
X101617745Y-83436724D01*
X101656701Y-83191158D01*
X101823006Y-82811353D01*
X101886950Y-82677000D01*
X102302847Y-82022302D01*
X102898678Y-81375307D01*
X103606606Y-80799627D01*
X104358795Y-80358874D01*
X104359224Y-80358673D01*
X104850746Y-80147753D01*
X105286819Y-80018553D01*
X105772938Y-79947624D01*
X106362500Y-79913400D01*
X106890927Y-79906587D01*
X107331547Y-79924480D01*
X107616202Y-79963325D01*
X107673795Y-79985614D01*
X107747611Y-80087944D01*
X107754892Y-80284779D01*
X108177365Y-80284779D01*
X108206049Y-80223685D01*
X108377943Y-80204789D01*
X108694992Y-80312564D01*
X109101567Y-80518113D01*
X109542038Y-80792540D01*
X109960775Y-81106947D01*
X110044587Y-81178727D01*
X110827994Y-82023912D01*
X111406849Y-82986461D01*
X111764739Y-84031253D01*
X111885266Y-85117743D01*
X112251245Y-85117743D01*
X112257653Y-84799743D01*
X112215383Y-84252406D01*
X112104854Y-83724014D01*
X112030106Y-83463332D01*
X111622441Y-82496230D01*
X111027929Y-81599434D01*
X110291158Y-80822784D01*
X109456716Y-80216121D01*
X108870750Y-79931730D01*
X108548975Y-79789622D01*
X108355858Y-79671959D01*
X108331000Y-79636973D01*
X108364278Y-79484101D01*
X108453005Y-79149629D01*
X108580523Y-78695505D01*
X108633715Y-78511227D01*
X108778055Y-77981028D01*
X108839800Y-77654759D01*
X108823477Y-77497759D01*
X108769727Y-77470000D01*
X108646264Y-77583830D01*
G37*
X108646264Y-77583830D02*
X108501888Y-77883725D01*
X108397046Y-78200250D01*
X108227048Y-78794044D01*
X108103922Y-79183839D01*
X108007622Y-79410658D01*
X107918103Y-79515530D01*
X107815318Y-79539479D01*
X107745832Y-79533017D01*
X107505047Y-79515937D01*
X107094625Y-79501213D01*
X106598926Y-79491788D01*
X106547007Y-79491241D01*
X105393512Y-79602552D01*
X104300252Y-79944694D01*
X103301023Y-80495877D01*
X102429620Y-81234312D01*
X101719839Y-82138208D01*
X101341921Y-82847144D01*
X101179864Y-83183622D01*
X101051203Y-83398029D01*
X101006085Y-83439000D01*
X100857187Y-83407593D01*
X100526672Y-83324102D01*
X100077599Y-83204618D01*
X99931553Y-83164808D01*
X99459082Y-83047503D01*
X99084320Y-82977180D01*
X98870609Y-82964966D01*
X98847359Y-82974308D01*
X98805989Y-83063896D01*
X98893872Y-83153922D01*
X99144577Y-83260699D01*
X99591675Y-83400538D01*
X99911185Y-83491251D01*
X100901500Y-83767300D01*
X100857144Y-84725604D01*
X100913855Y-85894954D01*
X101180705Y-87013843D01*
X101638646Y-88044232D01*
X102268632Y-88948083D01*
X103051616Y-89687359D01*
X103487903Y-89979500D01*
X103844300Y-90223078D01*
X104078444Y-90449077D01*
X104137480Y-90572362D01*
X104185841Y-90886211D01*
X104217088Y-90985112D01*
X104220099Y-91112714D01*
X104067094Y-91175321D01*
X103740838Y-91194595D01*
X103448142Y-91210949D01*
X103367117Y-91254514D01*
X103508110Y-91335452D01*
X103881470Y-91463929D01*
X104076500Y-91524307D01*
X104306181Y-91625921D01*
X104421727Y-91792634D01*
X104440576Y-92084652D01*
X104380165Y-92562181D01*
X104379075Y-92569000D01*
X104395306Y-92820443D01*
X104479458Y-92925569D01*
X104610189Y-92861702D01*
X104676064Y-92685569D01*
X104717260Y-92532474D01*
X104784795Y-92560538D01*
X104909632Y-92793186D01*
X104960152Y-92900500D01*
X105101861Y-93315965D01*
X105187848Y-93791575D01*
X105216393Y-94260451D01*
X105185781Y-94655712D01*
X105094291Y-94910481D01*
X105013251Y-94967402D01*
X104778759Y-94901271D01*
X104475775Y-94666476D01*
X104157181Y-94317477D01*
X103875860Y-93908733D01*
X103751707Y-93668216D01*
X103604000Y-93381231D01*
X103526499Y-93312378D01*
X103526128Y-93433796D01*
X103609811Y-93717626D01*
X103688999Y-93920529D01*
X104004607Y-94510109D01*
X104405900Y-95018589D01*
X104845063Y-95399611D01*
X105274284Y-95606815D01*
X105453124Y-95631000D01*
X105680051Y-95555766D01*
X105924443Y-95397320D01*
X106174373Y-95045562D01*
X106287763Y-94623198D01*
X106362500Y-94082756D01*
X106716145Y-94361552D01*
X107174036Y-94608028D01*
X107691602Y-94712193D01*
X108201733Y-94680622D01*
X108637322Y-94519889D01*
X108931260Y-94236568D01*
X108977593Y-94140009D01*
X109041294Y-93865918D01*
X109022914Y-93715342D01*
X108994675Y-93604476D01*
X109008766Y-93599000D01*
X109102811Y-93696766D01*
X109285962Y-93949497D01*
X109456791Y-94207181D01*
X109955947Y-94845447D01*
X110474033Y-95236290D01*
X111006864Y-95376612D01*
X111036675Y-95377000D01*
X111474168Y-95282139D01*
X111781720Y-94988229D01*
X111971068Y-94481282D01*
X112017328Y-94208063D01*
X112024886Y-94047094D01*
X110963300Y-94047094D01*
X110888631Y-94519750D01*
X110768893Y-94768376D01*
X110629428Y-94847816D01*
X110400148Y-94767480D01*
X110145833Y-94619483D01*
X109689442Y-94222472D01*
X109291570Y-93657245D01*
X109010317Y-93009585D01*
X108977493Y-92894451D01*
X108940188Y-92807888D01*
X107891530Y-92807888D01*
X107881676Y-92971806D01*
X107765610Y-93037130D01*
X107590745Y-92893856D01*
X107549445Y-92844387D01*
X107406052Y-92599144D01*
X107394593Y-92429961D01*
X107529120Y-92412930D01*
X107726825Y-92557379D01*
X107891530Y-92807888D01*
X108940188Y-92807888D01*
X108790094Y-92459615D01*
X108504290Y-92058936D01*
X108454004Y-92007670D01*
X108064956Y-91634939D01*
X107594728Y-91886719D01*
X107211595Y-92200365D01*
X107066522Y-92585587D01*
X107164620Y-93012719D01*
X107353096Y-93289416D01*
X107659028Y-93645084D01*
X107893933Y-93370734D01*
X108089675Y-93196544D01*
X108216107Y-93235265D01*
X108227975Y-93252442D01*
X108325779Y-93622560D01*
X108200672Y-94011118D01*
X108028555Y-94219856D01*
X107806879Y-94400165D01*
X107613966Y-94431471D01*
X107326659Y-94330336D01*
X107298305Y-94318063D01*
X106754105Y-94001438D01*
X106362616Y-93566967D01*
X106080703Y-92959915D01*
X105989026Y-92656765D01*
X105946498Y-92493941D01*
X105183091Y-92493941D01*
X105175216Y-92642107D01*
X105152011Y-92644034D01*
X105054307Y-92485776D01*
X104963797Y-92194235D01*
X104963186Y-92191462D01*
X104913132Y-91857756D01*
X104942639Y-91754109D01*
X105025355Y-91879716D01*
X105125635Y-92196430D01*
X105183091Y-92493941D01*
X105946498Y-92493941D01*
X105871907Y-92208363D01*
X105823947Y-91938986D01*
X105845685Y-91783107D01*
X105937657Y-91675194D01*
X105997467Y-91628330D01*
X106157645Y-91492535D01*
X106100088Y-91449125D01*
X105958822Y-91444039D01*
X105680059Y-91364012D01*
X105420931Y-91182645D01*
X105286059Y-90976895D01*
X105283008Y-90946990D01*
X104775000Y-90946990D01*
X104724896Y-91117827D01*
X104648000Y-91122500D01*
X104542395Y-90943887D01*
X104521000Y-90790009D01*
X104571105Y-90619172D01*
X104648000Y-90614500D01*
X104753606Y-90793112D01*
X104775000Y-90946990D01*
X105283008Y-90946990D01*
X105283000Y-90946921D01*
X105400913Y-90906770D01*
X105718354Y-90874587D01*
X106180880Y-90854623D01*
X106521250Y-90850236D01*
X107210083Y-90833843D01*
X107750198Y-90774601D01*
X108245889Y-90652097D01*
X108801445Y-90445918D01*
X108989795Y-90367071D01*
X109153254Y-90365186D01*
X109318994Y-90535148D01*
X109483921Y-90826215D01*
X109708870Y-91231068D01*
X110008715Y-91723342D01*
X110261463Y-92110954D01*
X110636835Y-92777098D01*
X110875927Y-93442243D01*
X110963300Y-94047094D01*
X112024886Y-94047094D01*
X112041675Y-93689525D01*
X111953047Y-93196107D01*
X111835300Y-92845555D01*
X111612888Y-92316978D01*
X110850818Y-92316978D01*
X110842131Y-92453232D01*
X110734916Y-92388310D01*
X110538982Y-92128291D01*
X110264138Y-91679256D01*
X109920194Y-91047284D01*
X109911977Y-91031471D01*
X109734061Y-90648274D01*
X109621520Y-90328057D01*
X109601000Y-90208858D01*
X109653035Y-90096983D01*
X109790536Y-90176258D01*
X109985599Y-90410535D01*
X110210320Y-90763669D01*
X110436795Y-91199513D01*
X110533373Y-91416621D01*
X110751169Y-91973467D01*
X110850818Y-92316978D01*
X111612888Y-92316978D01*
X111535940Y-92134107D01*
X111185112Y-91438047D01*
X110820440Y-90824000D01*
X110479544Y-90358591D01*
X110357130Y-90227875D01*
X109990817Y-89876925D01*
X110682280Y-89130063D01*
X111078466Y-88652041D01*
X111452161Y-88117087D01*
X111722190Y-87641539D01*
X112040207Y-86964648D01*
X111563115Y-86964648D01*
X111502679Y-87233646D01*
X111288583Y-87644930D01*
X111176574Y-87840962D01*
X110571480Y-88661307D01*
X109789661Y-89361449D01*
X108881874Y-89914778D01*
X107898879Y-90294687D01*
X106891433Y-90474565D01*
X106172000Y-90464514D01*
X105792668Y-90418779D01*
X105513614Y-90373995D01*
X105454631Y-90359948D01*
X105401287Y-90241312D01*
X105438592Y-89932032D01*
X105569343Y-89411409D01*
X105594919Y-89321678D01*
X105845780Y-88451006D01*
X105438805Y-88451006D01*
X105401071Y-88805901D01*
X105267532Y-89323763D01*
X105219262Y-89491117D01*
X105096245Y-89884818D01*
X104992231Y-90084273D01*
X104861758Y-90140920D01*
X104672714Y-90109510D01*
X104369251Y-89992451D01*
X103970574Y-89786369D01*
X103736972Y-89646008D01*
X102878223Y-88959933D01*
X102177019Y-88118457D01*
X101655463Y-87164789D01*
X101335656Y-86142142D01*
X101239699Y-85093728D01*
X101256420Y-84796284D01*
X101302291Y-84387740D01*
X101351859Y-84093140D01*
X101385297Y-83992370D01*
X101527400Y-83995537D01*
X101852610Y-84057440D01*
X102300163Y-84165799D01*
X102475930Y-84212828D01*
X103505000Y-84494848D01*
X103505000Y-85222422D01*
X103626511Y-86080021D01*
X103977232Y-86853333D01*
X104536447Y-87503378D01*
X104843167Y-87740272D01*
X105173253Y-87980576D01*
X105367333Y-88196693D01*
X105438805Y-88451006D01*
X105845780Y-88451006D01*
X105881077Y-88328500D01*
X106699403Y-88256906D01*
X107619159Y-88066876D01*
X108391350Y-87670317D01*
X109017053Y-87066668D01*
X109042367Y-87033860D01*
X109283496Y-86701246D01*
X109454712Y-86435422D01*
X109500922Y-86342736D01*
X109592289Y-86279379D01*
X109824936Y-86291058D01*
X110235990Y-86382461D01*
X110596087Y-86481045D01*
X111132456Y-86641379D01*
X111447253Y-86784903D01*
X111563115Y-86964648D01*
X112040207Y-86964648D01*
X112070638Y-86899877D01*
X112963069Y-87143362D01*
X113435998Y-87273190D01*
X113833152Y-87383644D01*
X114071801Y-87451706D01*
X114077750Y-87453482D01*
X114265700Y-87437603D01*
X114300000Y-87347398D01*
X114185733Y-87213052D01*
X113887064Y-87073710D01*
X113696750Y-87015510D01*
X113224172Y-86890758D01*
X112766827Y-86769937D01*
X112641559Y-86736820D01*
X112189617Y-86617300D01*
X112243913Y-85481652D01*
X112251245Y-85117743D01*
X111885266Y-85117743D01*
X111870230Y-85586119D01*
X111832763Y-86014160D01*
X111781287Y-86334900D01*
X111724224Y-86481376D01*
X111713438Y-86483978D01*
X111592862Y-86449520D01*
X111286334Y-86360340D01*
X110851616Y-86233260D01*
X110680500Y-86183127D01*
X110545049Y-86143421D01*
X109342220Y-86143421D01*
X109058860Y-86648229D01*
X108735482Y-87069936D01*
X108275539Y-87489678D01*
X107781635Y-87819965D01*
X107569000Y-87918638D01*
X107341006Y-87960619D01*
X106958514Y-87991266D01*
X106663916Y-88000973D01*
X105949332Y-88011000D01*
X106328403Y-86697128D01*
X106700950Y-85405872D01*
X106354218Y-85405872D01*
X106301258Y-85687498D01*
X106208581Y-85985887D01*
X106074353Y-86434146D01*
X105926810Y-86937921D01*
X105919482Y-86963250D01*
X105784457Y-87402985D01*
X105669514Y-87728458D01*
X105596136Y-87879849D01*
X105588816Y-87884000D01*
X105441980Y-87831110D01*
X105181444Y-87704838D01*
X104595372Y-87266827D01*
X104117469Y-86651959D01*
X103793502Y-85929593D01*
X103687905Y-85441438D01*
X103655501Y-85047645D01*
X103699562Y-84803661D01*
X103856703Y-84694215D01*
X104163538Y-84704038D01*
X104656683Y-84817858D01*
X104972691Y-84905622D01*
X105488421Y-85052975D01*
X105918521Y-85177441D01*
X106199165Y-85260477D01*
X106262649Y-85280377D01*
X106354218Y-85405872D01*
X106700950Y-85405872D01*
X106707475Y-85383257D01*
X108024848Y-85763339D01*
X109342220Y-86143421D01*
X110545049Y-86143421D01*
X109664500Y-85885298D01*
X109705923Y-85426422D01*
X109699822Y-85329863D01*
X109467684Y-85329863D01*
X109446849Y-85573413D01*
X109339538Y-85696984D01*
X109108381Y-85712376D01*
X108716006Y-85631388D01*
X108125043Y-85465819D01*
X107966231Y-85419669D01*
X107485912Y-85276013D01*
X107107818Y-85155381D01*
X106891508Y-85077083D01*
X106863927Y-85062260D01*
X106871433Y-84924353D01*
X106936845Y-84607585D01*
X107042815Y-84175690D01*
X107171996Y-83692401D01*
X107307038Y-83221454D01*
X107430593Y-82826581D01*
X107525313Y-82571517D01*
X107557133Y-82515584D01*
X107713673Y-82518267D01*
X107985584Y-82666928D01*
X108318437Y-82918646D01*
X108657800Y-83230501D01*
X108949241Y-83559571D01*
X109038328Y-83683559D01*
X109313363Y-84271089D01*
X109439415Y-84954536D01*
X109467684Y-85329863D01*
X109699822Y-85329863D01*
X109658901Y-84682314D01*
X109412226Y-83924584D01*
X108999250Y-83240723D01*
X108776821Y-82989136D01*
X108423220Y-82675172D01*
X108083895Y-82438412D01*
X107950749Y-82377513D01*
X107188000Y-82377513D01*
X107155414Y-82550042D01*
X107069555Y-82888284D01*
X106948277Y-83330668D01*
X106809432Y-83815623D01*
X106670871Y-84281577D01*
X106550447Y-84666961D01*
X106466013Y-84910202D01*
X106438354Y-84963000D01*
X106300396Y-84932075D01*
X105971757Y-84848648D01*
X105506894Y-84726737D01*
X105134814Y-84627412D01*
X104549540Y-84454662D01*
X104130125Y-84298487D01*
X103910553Y-84172444D01*
X103886000Y-84129285D01*
X103980213Y-83867320D01*
X104225391Y-83520093D01*
X104565345Y-83149319D01*
X104943886Y-82816716D01*
X105283000Y-82594878D01*
X105624072Y-82464880D01*
X106046233Y-82363680D01*
X106481312Y-82299058D01*
X106861137Y-82278792D01*
X107117537Y-82310661D01*
X107188000Y-82377513D01*
X107950749Y-82377513D01*
X107886618Y-82348181D01*
X107662896Y-82240346D01*
X107611323Y-82114891D01*
X107672546Y-81921494D01*
X107776256Y-81562767D01*
X107891782Y-81146310D01*
X108018504Y-80713628D01*
X108132542Y-80380249D01*
X108177365Y-80284779D01*
X107754892Y-80284779D01*
X107690835Y-80626513D01*
X107567316Y-81102916D01*
X107292542Y-82105544D01*
X106738542Y-82061482D01*
X106003456Y-82115398D01*
X105270141Y-82365556D01*
X104602799Y-82774078D01*
X104065630Y-83303087D01*
X103759330Y-83819203D01*
X103647157Y-84078555D01*
X103586468Y-84197174D01*
X103584843Y-84197978D01*
X103464657Y-84163164D01*
X103158622Y-84073024D01*
X102724374Y-83944554D01*
X102552500Y-83893601D01*
X102036891Y-83735385D01*
X101734891Y-83600613D01*
X101617745Y-83436724D01*
X101656701Y-83191158D01*
X101823006Y-82811353D01*
X101886950Y-82677000D01*
X102302847Y-82022302D01*
X102898678Y-81375307D01*
X103606606Y-80799627D01*
X104358795Y-80358874D01*
X104359224Y-80358673D01*
X104850746Y-80147753D01*
X105286819Y-80018553D01*
X105772938Y-79947624D01*
X106362500Y-79913400D01*
X106890927Y-79906587D01*
X107331547Y-79924480D01*
X107616202Y-79963325D01*
X107673795Y-79985614D01*
X107747611Y-80087944D01*
X107754892Y-80284779D01*
X108177365Y-80284779D01*
X108206049Y-80223685D01*
X108377943Y-80204789D01*
X108694992Y-80312564D01*
X109101567Y-80518113D01*
X109542038Y-80792540D01*
X109960775Y-81106947D01*
X110044587Y-81178727D01*
X110827994Y-82023912D01*
X111406849Y-82986461D01*
X111764739Y-84031253D01*
X111885266Y-85117743D01*
X112251245Y-85117743D01*
X112257653Y-84799743D01*
X112215383Y-84252406D01*
X112104854Y-83724014D01*
X112030106Y-83463332D01*
X111622441Y-82496230D01*
X111027929Y-81599434D01*
X110291158Y-80822784D01*
X109456716Y-80216121D01*
X108870750Y-79931730D01*
X108548975Y-79789622D01*
X108355858Y-79671959D01*
X108331000Y-79636973D01*
X108364278Y-79484101D01*
X108453005Y-79149629D01*
X108580523Y-78695505D01*
X108633715Y-78511227D01*
X108778055Y-77981028D01*
X108839800Y-77654759D01*
X108823477Y-77497759D01*
X108769727Y-77470000D01*
X108646264Y-77583830D01*
G36*
X112215377Y-89829526D02*
G01*
X112176837Y-90146031D01*
X112323975Y-90630729D01*
X112656208Y-91281685D01*
X113163656Y-92083258D01*
X113443600Y-92548522D01*
X113677757Y-93029149D01*
X113791120Y-93341730D01*
X113866546Y-93804090D01*
X113861787Y-94259468D01*
X113784353Y-94625195D01*
X113657765Y-94809971D01*
X113467173Y-94798403D01*
X113169913Y-94656597D01*
X112840474Y-94432354D01*
X112553346Y-94173477D01*
X112434812Y-94025170D01*
X112274112Y-93825084D01*
X112173443Y-93778224D01*
X112196743Y-93917069D01*
X112352183Y-94178347D01*
X112595533Y-94501701D01*
X112882567Y-94826778D01*
X113085292Y-95022588D01*
X113546803Y-95305805D01*
X114018207Y-95381597D01*
X114442004Y-95249245D01*
X114671783Y-95042372D01*
X114859767Y-94693345D01*
X114935000Y-94343076D01*
X114935000Y-93978406D01*
X115462055Y-94360203D01*
X115956486Y-94638926D01*
X116389483Y-94735362D01*
X116724648Y-94654792D01*
X116925586Y-94402497D01*
X116967000Y-94141838D01*
X116981956Y-93949827D01*
X117073415Y-93916792D01*
X117311263Y-94024539D01*
X117346905Y-94042933D01*
X117772722Y-94172147D01*
X118141725Y-94122295D01*
X118389911Y-93908703D01*
X118440993Y-93780954D01*
X118420579Y-93501774D01*
X118289142Y-93092259D01*
X118083392Y-92628697D01*
X117840035Y-92187373D01*
X117595779Y-91844574D01*
X117440656Y-91702024D01*
X117199774Y-91608473D01*
X117083844Y-91713068D01*
X117091047Y-92024200D01*
X117219564Y-92550257D01*
X117241177Y-92622089D01*
X117361386Y-93056267D01*
X117430566Y-93389131D01*
X117434971Y-93553379D01*
X117432171Y-93557162D01*
X117223783Y-93605078D01*
X116928927Y-93488278D01*
X116614450Y-93244558D01*
X116378865Y-92961640D01*
X116098214Y-92582609D01*
X115918044Y-92434726D01*
X115845677Y-92512838D01*
X115888436Y-92811794D01*
X116014500Y-93218000D01*
X116168374Y-93733440D01*
X116191161Y-94055887D01*
X116081319Y-94210829D01*
X115953004Y-94234000D01*
X115604150Y-94119541D01*
X115254515Y-93815225D01*
X114956147Y-93379636D01*
X114768331Y-92900500D01*
X114574901Y-92335949D01*
X114562270Y-92309494D01*
X113768209Y-92309494D01*
X113762374Y-92451103D01*
X113664082Y-92402169D01*
X113485364Y-92172201D01*
X113238255Y-91770704D01*
X112934788Y-91207187D01*
X112769519Y-90875533D01*
X112592021Y-90483700D01*
X112483044Y-90188779D01*
X112465898Y-90056768D01*
X112598807Y-90078667D01*
X112803172Y-90284925D01*
X113045027Y-90628815D01*
X113290405Y-91063608D01*
X113454373Y-91416621D01*
X113669553Y-91967835D01*
X113768209Y-92309494D01*
X114562270Y-92309494D01*
X114288593Y-91736300D01*
X113939837Y-91143608D01*
X113559068Y-90599929D01*
X113176716Y-90147318D01*
X112823215Y-89827830D01*
X112528997Y-89683521D01*
X112440179Y-89683149D01*
X112215377Y-89829526D01*
G37*
X112215377Y-89829526D02*
X112176837Y-90146031D01*
X112323975Y-90630729D01*
X112656208Y-91281685D01*
X113163656Y-92083258D01*
X113443600Y-92548522D01*
X113677757Y-93029149D01*
X113791120Y-93341730D01*
X113866546Y-93804090D01*
X113861787Y-94259468D01*
X113784353Y-94625195D01*
X113657765Y-94809971D01*
X113467173Y-94798403D01*
X113169913Y-94656597D01*
X112840474Y-94432354D01*
X112553346Y-94173477D01*
X112434812Y-94025170D01*
X112274112Y-93825084D01*
X112173443Y-93778224D01*
X112196743Y-93917069D01*
X112352183Y-94178347D01*
X112595533Y-94501701D01*
X112882567Y-94826778D01*
X113085292Y-95022588D01*
X113546803Y-95305805D01*
X114018207Y-95381597D01*
X114442004Y-95249245D01*
X114671783Y-95042372D01*
X114859767Y-94693345D01*
X114935000Y-94343076D01*
X114935000Y-93978406D01*
X115462055Y-94360203D01*
X115956486Y-94638926D01*
X116389483Y-94735362D01*
X116724648Y-94654792D01*
X116925586Y-94402497D01*
X116967000Y-94141838D01*
X116981956Y-93949827D01*
X117073415Y-93916792D01*
X117311263Y-94024539D01*
X117346905Y-94042933D01*
X117772722Y-94172147D01*
X118141725Y-94122295D01*
X118389911Y-93908703D01*
X118440993Y-93780954D01*
X118420579Y-93501774D01*
X118289142Y-93092259D01*
X118083392Y-92628697D01*
X117840035Y-92187373D01*
X117595779Y-91844574D01*
X117440656Y-91702024D01*
X117199774Y-91608473D01*
X117083844Y-91713068D01*
X117091047Y-92024200D01*
X117219564Y-92550257D01*
X117241177Y-92622089D01*
X117361386Y-93056267D01*
X117430566Y-93389131D01*
X117434971Y-93553379D01*
X117432171Y-93557162D01*
X117223783Y-93605078D01*
X116928927Y-93488278D01*
X116614450Y-93244558D01*
X116378865Y-92961640D01*
X116098214Y-92582609D01*
X115918044Y-92434726D01*
X115845677Y-92512838D01*
X115888436Y-92811794D01*
X116014500Y-93218000D01*
X116168374Y-93733440D01*
X116191161Y-94055887D01*
X116081319Y-94210829D01*
X115953004Y-94234000D01*
X115604150Y-94119541D01*
X115254515Y-93815225D01*
X114956147Y-93379636D01*
X114768331Y-92900500D01*
X114574901Y-92335949D01*
X114562270Y-92309494D01*
X113768209Y-92309494D01*
X113762374Y-92451103D01*
X113664082Y-92402169D01*
X113485364Y-92172201D01*
X113238255Y-91770704D01*
X112934788Y-91207187D01*
X112769519Y-90875533D01*
X112592021Y-90483700D01*
X112483044Y-90188779D01*
X112465898Y-90056768D01*
X112598807Y-90078667D01*
X112803172Y-90284925D01*
X113045027Y-90628815D01*
X113290405Y-91063608D01*
X113454373Y-91416621D01*
X113669553Y-91967835D01*
X113768209Y-92309494D01*
X114562270Y-92309494D01*
X114288593Y-91736300D01*
X113939837Y-91143608D01*
X113559068Y-90599929D01*
X113176716Y-90147318D01*
X112823215Y-89827830D01*
X112528997Y-89683521D01*
X112440179Y-89683149D01*
X112215377Y-89829526D01*
G36*
X101451639Y-90399562D02*
G01*
X101350469Y-90542650D01*
X101223479Y-90950738D01*
X101333549Y-91287597D01*
X101650360Y-91558878D01*
X102028350Y-91851051D01*
X102294934Y-92168659D01*
X102432671Y-92466674D01*
X102424123Y-92700068D01*
X102251849Y-92823811D01*
X102143736Y-92832801D01*
X101942649Y-92708011D01*
X101704349Y-92338012D01*
X101575297Y-92070801D01*
X101384368Y-91683943D01*
X101218595Y-91410859D01*
X101118014Y-91313000D01*
X101075104Y-91423487D01*
X101079688Y-91701700D01*
X101122594Y-92067768D01*
X101194650Y-92441818D01*
X101280598Y-92728903D01*
X101286379Y-92946993D01*
X101227659Y-93022149D01*
X101098872Y-93184675D01*
X101160342Y-93320086D01*
X101268367Y-93345000D01*
X101409651Y-93460819D01*
X101519097Y-93763653D01*
X101530523Y-93821250D01*
X101669069Y-94485517D01*
X101809967Y-94925035D01*
X101966040Y-95168835D01*
X102150114Y-95245952D01*
X102159853Y-95245960D01*
X102479125Y-95166405D01*
X102657182Y-95066313D01*
X102775860Y-94958209D01*
X102814068Y-94828442D01*
X102766261Y-94611677D01*
X102626895Y-94242582D01*
X102576695Y-94117852D01*
X102264526Y-93345000D01*
X102599013Y-93343055D01*
X102986227Y-93282904D01*
X103244831Y-93065736D01*
X103358988Y-92877099D01*
X103473067Y-92582536D01*
X103469542Y-92299232D01*
X103329630Y-91978103D01*
X103034550Y-91570065D01*
X102715165Y-91194563D01*
X102253911Y-90702655D01*
X101905355Y-90413725D01*
X101645822Y-90316464D01*
X101451639Y-90399562D01*
G37*
X101451639Y-90399562D02*
X101350469Y-90542650D01*
X101223479Y-90950738D01*
X101333549Y-91287597D01*
X101650360Y-91558878D01*
X102028350Y-91851051D01*
X102294934Y-92168659D01*
X102432671Y-92466674D01*
X102424123Y-92700068D01*
X102251849Y-92823811D01*
X102143736Y-92832801D01*
X101942649Y-92708011D01*
X101704349Y-92338012D01*
X101575297Y-92070801D01*
X101384368Y-91683943D01*
X101218595Y-91410859D01*
X101118014Y-91313000D01*
X101075104Y-91423487D01*
X101079688Y-91701700D01*
X101122594Y-92067768D01*
X101194650Y-92441818D01*
X101280598Y-92728903D01*
X101286379Y-92946993D01*
X101227659Y-93022149D01*
X101098872Y-93184675D01*
X101160342Y-93320086D01*
X101268367Y-93345000D01*
X101409651Y-93460819D01*
X101519097Y-93763653D01*
X101530523Y-93821250D01*
X101669069Y-94485517D01*
X101809967Y-94925035D01*
X101966040Y-95168835D01*
X102150114Y-95245952D01*
X102159853Y-95245960D01*
X102479125Y-95166405D01*
X102657182Y-95066313D01*
X102775860Y-94958209D01*
X102814068Y-94828442D01*
X102766261Y-94611677D01*
X102626895Y-94242582D01*
X102576695Y-94117852D01*
X102264526Y-93345000D01*
X102599013Y-93343055D01*
X102986227Y-93282904D01*
X103244831Y-93065736D01*
X103358988Y-92877099D01*
X103473067Y-92582536D01*
X103469542Y-92299232D01*
X103329630Y-91978103D01*
X103034550Y-91570065D01*
X102715165Y-91194563D01*
X102253911Y-90702655D01*
X101905355Y-90413725D01*
X101645822Y-90316464D01*
X101451639Y-90399562D01*
G36*
X98660375Y-90397048D02*
G01*
X98556469Y-90542650D01*
X98432559Y-90945484D01*
X98543374Y-91287882D01*
X98857444Y-91576574D01*
X99197656Y-91864701D01*
X99469625Y-92193026D01*
X99628979Y-92496545D01*
X99631344Y-92710253D01*
X99631339Y-92710260D01*
X99444101Y-92851749D01*
X99217843Y-92755063D01*
X98966253Y-92430501D01*
X98781297Y-92070801D01*
X98587986Y-91683664D01*
X98416298Y-91410538D01*
X98308222Y-91313000D01*
X98238762Y-91424003D01*
X98250345Y-91723366D01*
X98337554Y-92160615D01*
X98436584Y-92508721D01*
X98486301Y-92837198D01*
X98364177Y-93087302D01*
X98342521Y-93111971D01*
X98205411Y-93284379D01*
X98259222Y-93340352D01*
X98389085Y-93345000D01*
X98577055Y-93407886D01*
X98687491Y-93636258D01*
X98725155Y-93821250D01*
X98853125Y-94482043D01*
X98987560Y-94919389D01*
X99141856Y-95163742D01*
X99329408Y-95245561D01*
X99351720Y-95245960D01*
X99676762Y-95172681D01*
X99835767Y-95086359D01*
X99957458Y-94948462D01*
X99970085Y-94747445D01*
X99889689Y-94423649D01*
X99753927Y-94022517D01*
X99610882Y-93680236D01*
X99585704Y-93630750D01*
X99500226Y-93426477D01*
X99588464Y-93352747D01*
X99785782Y-93343055D01*
X100179145Y-93287259D01*
X100437668Y-93083702D01*
X100564988Y-92877099D01*
X100679594Y-92579895D01*
X100674872Y-92294029D01*
X100532004Y-91970620D01*
X100232171Y-91560785D01*
X99917250Y-91194538D01*
X99455578Y-90706031D01*
X99108606Y-90418136D01*
X98851737Y-90319069D01*
X98660375Y-90397048D01*
G37*
X98660375Y-90397048D02*
X98556469Y-90542650D01*
X98432559Y-90945484D01*
X98543374Y-91287882D01*
X98857444Y-91576574D01*
X99197656Y-91864701D01*
X99469625Y-92193026D01*
X99628979Y-92496545D01*
X99631344Y-92710253D01*
X99631339Y-92710260D01*
X99444101Y-92851749D01*
X99217843Y-92755063D01*
X98966253Y-92430501D01*
X98781297Y-92070801D01*
X98587986Y-91683664D01*
X98416298Y-91410538D01*
X98308222Y-91313000D01*
X98238762Y-91424003D01*
X98250345Y-91723366D01*
X98337554Y-92160615D01*
X98436584Y-92508721D01*
X98486301Y-92837198D01*
X98364177Y-93087302D01*
X98342521Y-93111971D01*
X98205411Y-93284379D01*
X98259222Y-93340352D01*
X98389085Y-93345000D01*
X98577055Y-93407886D01*
X98687491Y-93636258D01*
X98725155Y-93821250D01*
X98853125Y-94482043D01*
X98987560Y-94919389D01*
X99141856Y-95163742D01*
X99329408Y-95245561D01*
X99351720Y-95245960D01*
X99676762Y-95172681D01*
X99835767Y-95086359D01*
X99957458Y-94948462D01*
X99970085Y-94747445D01*
X99889689Y-94423649D01*
X99753927Y-94022517D01*
X99610882Y-93680236D01*
X99585704Y-93630750D01*
X99500226Y-93426477D01*
X99588464Y-93352747D01*
X99785782Y-93343055D01*
X100179145Y-93287259D01*
X100437668Y-93083702D01*
X100564988Y-92877099D01*
X100679594Y-92579895D01*
X100674872Y-92294029D01*
X100532004Y-91970620D01*
X100232171Y-91560785D01*
X99917250Y-91194538D01*
X99455578Y-90706031D01*
X99108606Y-90418136D01*
X98851737Y-90319069D01*
X98660375Y-90397048D01*
G36*
X127100028Y-82899856D02*
G01*
X126735586Y-82969046D01*
X126547729Y-83070598D01*
X126546966Y-83071809D01*
X126526063Y-83296781D01*
X126605329Y-83639685D01*
X126750070Y-84003212D01*
X126925594Y-84290053D01*
X127010446Y-84371822D01*
X127262452Y-84480365D01*
X127599113Y-84470149D01*
X127800553Y-84429816D01*
X128336892Y-84360955D01*
X128867398Y-84381953D01*
X129300644Y-84484415D01*
X129478813Y-84583918D01*
X129589269Y-84763500D01*
X129512233Y-84985419D01*
X129233045Y-85270688D01*
X128746196Y-85634026D01*
X128153858Y-86124966D01*
X127813188Y-86611171D01*
X127722056Y-87098060D01*
X127878335Y-87591052D01*
X127938394Y-87689794D01*
X128284003Y-88078751D01*
X128743878Y-88323360D01*
X129380315Y-88456109D01*
X129415523Y-88460131D01*
X129892654Y-88487304D01*
X130212164Y-88431508D01*
X130397250Y-88330474D01*
X130610208Y-88102000D01*
X130683001Y-87901817D01*
X130608031Y-87660502D01*
X130420274Y-87336762D01*
X130175461Y-87005086D01*
X129929321Y-86739964D01*
X129737583Y-86615886D01*
X129719514Y-86614000D01*
X129562255Y-86669757D01*
X129600649Y-86851046D01*
X129734540Y-87051023D01*
X129925575Y-87396882D01*
X129907425Y-87626369D01*
X129701894Y-87728745D01*
X129330791Y-87693273D01*
X128815919Y-87509214D01*
X128809750Y-87506420D01*
X128456021Y-87304670D01*
X128296123Y-87092668D01*
X128338390Y-86850400D01*
X128591155Y-86557853D01*
X129062752Y-86195013D01*
X129467544Y-85926709D01*
X129954631Y-85559702D01*
X130296668Y-85188857D01*
X130381177Y-85047261D01*
X130505470Y-84738874D01*
X130501502Y-84506474D01*
X130374746Y-84218879D01*
X130015344Y-83753282D01*
X129480285Y-83341530D01*
X128847910Y-83037180D01*
X128501105Y-82937954D01*
X128057963Y-82879160D01*
X127565878Y-82868178D01*
X127100028Y-82899856D01*
G37*
X127100028Y-82899856D02*
X126735586Y-82969046D01*
X126547729Y-83070598D01*
X126546966Y-83071809D01*
X126526063Y-83296781D01*
X126605329Y-83639685D01*
X126750070Y-84003212D01*
X126925594Y-84290053D01*
X127010446Y-84371822D01*
X127262452Y-84480365D01*
X127599113Y-84470149D01*
X127800553Y-84429816D01*
X128336892Y-84360955D01*
X128867398Y-84381953D01*
X129300644Y-84484415D01*
X129478813Y-84583918D01*
X129589269Y-84763500D01*
X129512233Y-84985419D01*
X129233045Y-85270688D01*
X128746196Y-85634026D01*
X128153858Y-86124966D01*
X127813188Y-86611171D01*
X127722056Y-87098060D01*
X127878335Y-87591052D01*
X127938394Y-87689794D01*
X128284003Y-88078751D01*
X128743878Y-88323360D01*
X129380315Y-88456109D01*
X129415523Y-88460131D01*
X129892654Y-88487304D01*
X130212164Y-88431508D01*
X130397250Y-88330474D01*
X130610208Y-88102000D01*
X130683001Y-87901817D01*
X130608031Y-87660502D01*
X130420274Y-87336762D01*
X130175461Y-87005086D01*
X129929321Y-86739964D01*
X129737583Y-86615886D01*
X129719514Y-86614000D01*
X129562255Y-86669757D01*
X129600649Y-86851046D01*
X129734540Y-87051023D01*
X129925575Y-87396882D01*
X129907425Y-87626369D01*
X129701894Y-87728745D01*
X129330791Y-87693273D01*
X128815919Y-87509214D01*
X128809750Y-87506420D01*
X128456021Y-87304670D01*
X128296123Y-87092668D01*
X128338390Y-86850400D01*
X128591155Y-86557853D01*
X129062752Y-86195013D01*
X129467544Y-85926709D01*
X129954631Y-85559702D01*
X130296668Y-85188857D01*
X130381177Y-85047261D01*
X130505470Y-84738874D01*
X130501502Y-84506474D01*
X130374746Y-84218879D01*
X130015344Y-83753282D01*
X129480285Y-83341530D01*
X128847910Y-83037180D01*
X128501105Y-82937954D01*
X128057963Y-82879160D01*
X127565878Y-82868178D01*
X127100028Y-82899856D01*
G36*
X122367340Y-82629983D02*
G01*
X122183001Y-82815277D01*
X122177983Y-83163627D01*
X122353323Y-83678770D01*
X122710057Y-84364441D01*
X122964334Y-84784445D01*
X123308886Y-85342872D01*
X123538574Y-85754205D01*
X123679025Y-86082956D01*
X123755868Y-86393637D01*
X123794732Y-86750762D01*
X123804082Y-86898268D01*
X123806702Y-87448088D01*
X123726995Y-87765565D01*
X123549709Y-87863341D01*
X123259590Y-87754056D01*
X122993206Y-87570309D01*
X122396757Y-86970684D01*
X121985698Y-86215004D01*
X121783625Y-85492974D01*
X121696883Y-85064260D01*
X121628686Y-84845791D01*
X121551503Y-84798024D01*
X121437801Y-84881419D01*
X121390378Y-84928178D01*
X121253778Y-85134384D01*
X121165762Y-85460838D01*
X121112664Y-85965637D01*
X121101770Y-86155174D01*
X121069874Y-86631313D01*
X121030352Y-87001476D01*
X120990709Y-87198965D01*
X120982826Y-87212508D01*
X120880462Y-87164085D01*
X120711353Y-86949394D01*
X120512975Y-86633800D01*
X120322803Y-86282670D01*
X120178311Y-85961368D01*
X120116974Y-85735260D01*
X120118376Y-85704692D01*
X120100611Y-85493381D01*
X119977206Y-85457800D01*
X119799151Y-85573724D01*
X119617437Y-85816927D01*
X119541019Y-85979000D01*
X119338646Y-86356942D01*
X119136762Y-86482689D01*
X118949018Y-86356810D01*
X118789065Y-85979875D01*
X118787000Y-85972356D01*
X117669606Y-85972356D01*
X117526595Y-86042134D01*
X117362603Y-85934650D01*
X117243523Y-85711321D01*
X117221000Y-85554227D01*
X117221000Y-85287555D01*
X117490413Y-85556967D01*
X117654470Y-85790785D01*
X117669606Y-85972356D01*
X118787000Y-85972356D01*
X118780103Y-85947250D01*
X118590963Y-85504467D01*
X118308229Y-85099144D01*
X118245929Y-85034648D01*
X117991275Y-84805654D01*
X117808777Y-84731834D01*
X117587629Y-84792174D01*
X117407753Y-84875710D01*
X117098688Y-85060732D01*
X116903747Y-85246739D01*
X116885890Y-85280595D01*
X116864974Y-85640219D01*
X117008281Y-86067522D01*
X117201013Y-86366854D01*
X117438248Y-86659827D01*
X117673043Y-86385606D01*
X117868728Y-86211496D01*
X117995138Y-86250305D01*
X118006975Y-86267442D01*
X118105443Y-86634901D01*
X118013027Y-87030103D01*
X117862890Y-87242110D01*
X117636232Y-87405160D01*
X117370185Y-87412178D01*
X117203373Y-87370944D01*
X116870501Y-87212271D01*
X116501317Y-86944365D01*
X116160662Y-86627215D01*
X115913377Y-86320810D01*
X115824000Y-86094809D01*
X115786375Y-85856600D01*
X115690144Y-85481268D01*
X115614208Y-85231583D01*
X115423025Y-84787401D01*
X115210151Y-84591413D01*
X114964187Y-84638025D01*
X114764184Y-84814250D01*
X114616047Y-85012577D01*
X114570022Y-85217334D01*
X114629792Y-85499427D01*
X114799038Y-85929765D01*
X114825302Y-85991071D01*
X114992042Y-86422719D01*
X115037076Y-86640527D01*
X114973346Y-86646031D01*
X114813793Y-86440764D01*
X114571358Y-86026263D01*
X114534134Y-85956533D01*
X114259175Y-85486064D01*
X114038113Y-85228131D01*
X113855500Y-85153500D01*
X113689577Y-85199057D01*
X113601853Y-85377992D01*
X113561931Y-85703836D01*
X113520556Y-86044748D01*
X113443826Y-86183452D01*
X113307931Y-86173224D01*
X113164926Y-86131363D01*
X113212953Y-86211350D01*
X113293203Y-86294303D01*
X113546787Y-86427892D01*
X113782314Y-86355705D01*
X113959947Y-86125032D01*
X114039849Y-85783163D01*
X114003885Y-85450667D01*
X113975170Y-85270554D01*
X114026767Y-85290524D01*
X114136998Y-85478040D01*
X114284182Y-85800560D01*
X114355894Y-85979000D01*
X114697555Y-86808961D01*
X114988137Y-87398188D01*
X115231765Y-87753874D01*
X115432562Y-87883213D01*
X115447755Y-87884000D01*
X115706868Y-87769660D01*
X115889546Y-87473498D01*
X115951001Y-87106588D01*
X115951000Y-86820478D01*
X116300250Y-87146221D01*
X116800910Y-87536847D01*
X117272087Y-87726231D01*
X117585384Y-87757000D01*
X118171286Y-87672853D01*
X118578780Y-87426158D01*
X118763777Y-87122728D01*
X118913723Y-86857295D01*
X119093015Y-86741203D01*
X119099725Y-86741000D01*
X119323216Y-86658158D01*
X119599389Y-86455861D01*
X119629915Y-86427413D01*
X119957229Y-86113827D01*
X120464940Y-87030663D01*
X120770999Y-87542162D01*
X121014817Y-87848031D01*
X121223257Y-87980499D01*
X121263852Y-87989134D01*
X121571108Y-87923629D01*
X121868781Y-87698262D01*
X122081425Y-87392816D01*
X122133592Y-87087070D01*
X122130509Y-87072681D01*
X122092866Y-86887238D01*
X122142319Y-86931742D01*
X122215542Y-87050162D01*
X122382178Y-87280061D01*
X122651660Y-87609001D01*
X122856925Y-87843912D01*
X123166695Y-88162750D01*
X123417044Y-88327297D01*
X123700849Y-88386543D01*
X123896027Y-88392000D01*
X124280203Y-88360699D01*
X124527901Y-88232330D01*
X124705353Y-88023144D01*
X124885823Y-87692856D01*
X124967577Y-87391483D01*
X124968000Y-87374988D01*
X124981146Y-87218304D01*
X125053511Y-87199731D01*
X125234492Y-87331906D01*
X125416920Y-87489843D01*
X125871495Y-87796987D01*
X126284497Y-87866977D01*
X126690377Y-87705016D01*
X126717742Y-87686298D01*
X126940680Y-87414981D01*
X127000000Y-87043092D01*
X126948142Y-86651378D01*
X126814539Y-86200059D01*
X126632152Y-85768336D01*
X126433941Y-85435409D01*
X126268533Y-85285422D01*
X126020062Y-85273343D01*
X125906341Y-85457990D01*
X125941549Y-85812529D01*
X125958519Y-85872057D01*
X126121855Y-86514534D01*
X126172372Y-86984097D01*
X126118527Y-87236821D01*
X125932817Y-87349641D01*
X125675331Y-87274854D01*
X125388010Y-87051977D01*
X125112797Y-86720522D01*
X124891634Y-86320005D01*
X124782079Y-85977730D01*
X124655300Y-85573263D01*
X123822184Y-85573263D01*
X123822177Y-85573515D01*
X123763993Y-85578965D01*
X123614081Y-85399296D01*
X123398687Y-85074330D01*
X123144055Y-84643891D01*
X122876430Y-84147800D01*
X122855012Y-84106013D01*
X122625052Y-83612050D01*
X122507596Y-83265398D01*
X122501985Y-83085526D01*
X122607562Y-83091906D01*
X122823668Y-83304010D01*
X122879824Y-83372493D01*
X123040050Y-83629787D01*
X123240936Y-84028809D01*
X123451038Y-84496113D01*
X123638910Y-84958254D01*
X123773107Y-85341786D01*
X123822184Y-85573263D01*
X124655300Y-85573263D01*
X124629676Y-85491516D01*
X124376283Y-84942462D01*
X124051458Y-84371546D01*
X123684758Y-83819746D01*
X123305739Y-83328040D01*
X122943961Y-82937405D01*
X122628979Y-82688818D01*
X122390352Y-82623259D01*
X122367340Y-82629983D01*
G37*
X122367340Y-82629983D02*
X122183001Y-82815277D01*
X122177983Y-83163627D01*
X122353323Y-83678770D01*
X122710057Y-84364441D01*
X122964334Y-84784445D01*
X123308886Y-85342872D01*
X123538574Y-85754205D01*
X123679025Y-86082956D01*
X123755868Y-86393637D01*
X123794732Y-86750762D01*
X123804082Y-86898268D01*
X123806702Y-87448088D01*
X123726995Y-87765565D01*
X123549709Y-87863341D01*
X123259590Y-87754056D01*
X122993206Y-87570309D01*
X122396757Y-86970684D01*
X121985698Y-86215004D01*
X121783625Y-85492974D01*
X121696883Y-85064260D01*
X121628686Y-84845791D01*
X121551503Y-84798024D01*
X121437801Y-84881419D01*
X121390378Y-84928178D01*
X121253778Y-85134384D01*
X121165762Y-85460838D01*
X121112664Y-85965637D01*
X121101770Y-86155174D01*
X121069874Y-86631313D01*
X121030352Y-87001476D01*
X120990709Y-87198965D01*
X120982826Y-87212508D01*
X120880462Y-87164085D01*
X120711353Y-86949394D01*
X120512975Y-86633800D01*
X120322803Y-86282670D01*
X120178311Y-85961368D01*
X120116974Y-85735260D01*
X120118376Y-85704692D01*
X120100611Y-85493381D01*
X119977206Y-85457800D01*
X119799151Y-85573724D01*
X119617437Y-85816927D01*
X119541019Y-85979000D01*
X119338646Y-86356942D01*
X119136762Y-86482689D01*
X118949018Y-86356810D01*
X118789065Y-85979875D01*
X118787000Y-85972356D01*
X117669606Y-85972356D01*
X117526595Y-86042134D01*
X117362603Y-85934650D01*
X117243523Y-85711321D01*
X117221000Y-85554227D01*
X117221000Y-85287555D01*
X117490413Y-85556967D01*
X117654470Y-85790785D01*
X117669606Y-85972356D01*
X118787000Y-85972356D01*
X118780103Y-85947250D01*
X118590963Y-85504467D01*
X118308229Y-85099144D01*
X118245929Y-85034648D01*
X117991275Y-84805654D01*
X117808777Y-84731834D01*
X117587629Y-84792174D01*
X117407753Y-84875710D01*
X117098688Y-85060732D01*
X116903747Y-85246739D01*
X116885890Y-85280595D01*
X116864974Y-85640219D01*
X117008281Y-86067522D01*
X117201013Y-86366854D01*
X117438248Y-86659827D01*
X117673043Y-86385606D01*
X117868728Y-86211496D01*
X117995138Y-86250305D01*
X118006975Y-86267442D01*
X118105443Y-86634901D01*
X118013027Y-87030103D01*
X117862890Y-87242110D01*
X117636232Y-87405160D01*
X117370185Y-87412178D01*
X117203373Y-87370944D01*
X116870501Y-87212271D01*
X116501317Y-86944365D01*
X116160662Y-86627215D01*
X115913377Y-86320810D01*
X115824000Y-86094809D01*
X115786375Y-85856600D01*
X115690144Y-85481268D01*
X115614208Y-85231583D01*
X115423025Y-84787401D01*
X115210151Y-84591413D01*
X114964187Y-84638025D01*
X114764184Y-84814250D01*
X114616047Y-85012577D01*
X114570022Y-85217334D01*
X114629792Y-85499427D01*
X114799038Y-85929765D01*
X114825302Y-85991071D01*
X114992042Y-86422719D01*
X115037076Y-86640527D01*
X114973346Y-86646031D01*
X114813793Y-86440764D01*
X114571358Y-86026263D01*
X114534134Y-85956533D01*
X114259175Y-85486064D01*
X114038113Y-85228131D01*
X113855500Y-85153500D01*
X113689577Y-85199057D01*
X113601853Y-85377992D01*
X113561931Y-85703836D01*
X113520556Y-86044748D01*
X113443826Y-86183452D01*
X113307931Y-86173224D01*
X113164926Y-86131363D01*
X113212953Y-86211350D01*
X113293203Y-86294303D01*
X113546787Y-86427892D01*
X113782314Y-86355705D01*
X113959947Y-86125032D01*
X114039849Y-85783163D01*
X114003885Y-85450667D01*
X113975170Y-85270554D01*
X114026767Y-85290524D01*
X114136998Y-85478040D01*
X114284182Y-85800560D01*
X114355894Y-85979000D01*
X114697555Y-86808961D01*
X114988137Y-87398188D01*
X115231765Y-87753874D01*
X115432562Y-87883213D01*
X115447755Y-87884000D01*
X115706868Y-87769660D01*
X115889546Y-87473498D01*
X115951001Y-87106588D01*
X115951000Y-86820478D01*
X116300250Y-87146221D01*
X116800910Y-87536847D01*
X117272087Y-87726231D01*
X117585384Y-87757000D01*
X118171286Y-87672853D01*
X118578780Y-87426158D01*
X118763777Y-87122728D01*
X118913723Y-86857295D01*
X119093015Y-86741203D01*
X119099725Y-86741000D01*
X119323216Y-86658158D01*
X119599389Y-86455861D01*
X119629915Y-86427413D01*
X119957229Y-86113827D01*
X120464940Y-87030663D01*
X120770999Y-87542162D01*
X121014817Y-87848031D01*
X121223257Y-87980499D01*
X121263852Y-87989134D01*
X121571108Y-87923629D01*
X121868781Y-87698262D01*
X122081425Y-87392816D01*
X122133592Y-87087070D01*
X122130509Y-87072681D01*
X122092866Y-86887238D01*
X122142319Y-86931742D01*
X122215542Y-87050162D01*
X122382178Y-87280061D01*
X122651660Y-87609001D01*
X122856925Y-87843912D01*
X123166695Y-88162750D01*
X123417044Y-88327297D01*
X123700849Y-88386543D01*
X123896027Y-88392000D01*
X124280203Y-88360699D01*
X124527901Y-88232330D01*
X124705353Y-88023144D01*
X124885823Y-87692856D01*
X124967577Y-87391483D01*
X124968000Y-87374988D01*
X124981146Y-87218304D01*
X125053511Y-87199731D01*
X125234492Y-87331906D01*
X125416920Y-87489843D01*
X125871495Y-87796987D01*
X126284497Y-87866977D01*
X126690377Y-87705016D01*
X126717742Y-87686298D01*
X126940680Y-87414981D01*
X127000000Y-87043092D01*
X126948142Y-86651378D01*
X126814539Y-86200059D01*
X126632152Y-85768336D01*
X126433941Y-85435409D01*
X126268533Y-85285422D01*
X126020062Y-85273343D01*
X125906341Y-85457990D01*
X125941549Y-85812529D01*
X125958519Y-85872057D01*
X126121855Y-86514534D01*
X126172372Y-86984097D01*
X126118527Y-87236821D01*
X125932817Y-87349641D01*
X125675331Y-87274854D01*
X125388010Y-87051977D01*
X125112797Y-86720522D01*
X124891634Y-86320005D01*
X124782079Y-85977730D01*
X124655300Y-85573263D01*
X123822184Y-85573263D01*
X123822177Y-85573515D01*
X123763993Y-85578965D01*
X123614081Y-85399296D01*
X123398687Y-85074330D01*
X123144055Y-84643891D01*
X122876430Y-84147800D01*
X122855012Y-84106013D01*
X122625052Y-83612050D01*
X122507596Y-83265398D01*
X122501985Y-83085526D01*
X122607562Y-83091906D01*
X122823668Y-83304010D01*
X122879824Y-83372493D01*
X123040050Y-83629787D01*
X123240936Y-84028809D01*
X123451038Y-84496113D01*
X123638910Y-84958254D01*
X123773107Y-85341786D01*
X123822184Y-85573263D01*
X124655300Y-85573263D01*
X124629676Y-85491516D01*
X124376283Y-84942462D01*
X124051458Y-84371546D01*
X123684758Y-83819746D01*
X123305739Y-83328040D01*
X122943961Y-82937405D01*
X122628979Y-82688818D01*
X122390352Y-82623259D01*
X122367340Y-82629983D01*
G36*
X125730386Y-84279014D02*
G01*
X125666452Y-84444285D01*
X125794408Y-84628264D01*
X126027752Y-84801432D01*
X126195271Y-84822074D01*
X126238000Y-84733273D01*
X126169730Y-84560713D01*
X126056050Y-84384023D01*
X125879032Y-84223122D01*
X125730386Y-84279014D01*
G37*
X125730386Y-84279014D02*
X125666452Y-84444285D01*
X125794408Y-84628264D01*
X126027752Y-84801432D01*
X126195271Y-84822074D01*
X126238000Y-84733273D01*
X126169730Y-84560713D01*
X126056050Y-84384023D01*
X125879032Y-84223122D01*
X125730386Y-84279014D01*
D11*
X51377178Y-89903076D02*
X48377178Y-84706924D01*
X39252822Y-96903076D02*
X36252822Y-91706924D01*
X37716924Y-86242822D02*
X42913076Y-83242822D01*
X44716924Y-98367178D02*
X49913076Y-95367178D01*
X37252822Y-93438974D02*
X34252822Y-88242822D01*
X41252822Y-100367178D02*
X38252822Y-95171026D01*
X53377178Y-93367178D02*
X50377178Y-88171026D01*
X34252822Y-88242822D02*
X39448974Y-85242822D01*
X41181026Y-84242822D02*
X46377178Y-81242822D01*
X41252822Y-100367178D02*
X46448974Y-97367178D01*
X48181026Y-96367178D02*
X53377178Y-93367178D01*
X49377178Y-86438974D02*
X46377178Y-81242822D01*
X34867178Y-99428076D02*
X31867178Y-94231924D01*
X22742822Y-106428076D02*
X19742822Y-101231924D01*
X21206924Y-95767822D02*
X26403076Y-92767822D01*
X28206924Y-107892178D02*
X33403076Y-104892178D01*
X20742822Y-102963974D02*
X17742822Y-97767822D01*
X24742822Y-109892178D02*
X21742822Y-104696026D01*
X36867178Y-102892178D02*
X33867178Y-97696026D01*
X17742822Y-97767822D02*
X22938974Y-94767822D01*
X24671026Y-93767822D02*
X29867178Y-90767822D01*
X24742822Y-109892178D02*
X29938974Y-106892178D01*
X31671026Y-105892178D02*
X36867178Y-102892178D01*
X32867178Y-95963974D02*
X29867178Y-90767822D01*
D12*
X80630000Y-85725000D03*
X94630000Y-85725000D03*
D13*
X87630000Y-92725000D03*
X87630000Y-78725000D03*
D12*
X94630000Y-89725000D03*
X94630000Y-81725000D03*
X80630000Y-81725000D03*
D13*
X91630000Y-92725000D03*
X83630000Y-92725000D03*
X91630000Y-78725000D03*
X83630000Y-78725000D03*
D12*
X80630000Y-89725000D03*
D13*
X81915000Y-19035000D03*
X81915000Y-33035000D03*
D12*
X74915000Y-26035000D03*
X88915000Y-26035000D03*
D13*
X77915000Y-33035000D03*
X85915000Y-33035000D03*
X85915000Y-19035000D03*
D12*
X74915000Y-30035000D03*
X74915000Y-22035000D03*
X88915000Y-30035000D03*
X88915000Y-22035000D03*
D13*
X77915000Y-19035000D03*
X100965000Y-14590000D03*
X100965000Y-28590000D03*
D12*
X93965000Y-21590000D03*
X107965000Y-21590000D03*
D13*
X96965000Y-28590000D03*
X104965000Y-28590000D03*
X104965000Y-14590000D03*
D12*
X93965000Y-25590000D03*
X93965000Y-17590000D03*
X107965000Y-25590000D03*
X107965000Y-17590000D03*
D13*
X96965000Y-14590000D03*
X120015000Y-19035000D03*
X120015000Y-33035000D03*
D12*
X113015000Y-26035000D03*
X127015000Y-26035000D03*
D13*
X116015000Y-33035000D03*
X124015000Y-33035000D03*
X124015000Y-19035000D03*
D12*
X113015000Y-30035000D03*
X113015000Y-22035000D03*
X127015000Y-30035000D03*
X127015000Y-22035000D03*
D13*
X116015000Y-19035000D03*
X139065000Y-27925000D03*
X139065000Y-41925000D03*
D12*
X132065000Y-34925000D03*
X146065000Y-34925000D03*
D13*
X135065000Y-41925000D03*
X143065000Y-41925000D03*
X143065000Y-27925000D03*
D12*
X132065000Y-38925000D03*
X132065000Y-30925000D03*
X146065000Y-38925000D03*
X146065000Y-30925000D03*
D13*
X135065000Y-27925000D03*
X158115000Y-37450000D03*
X158115000Y-51450000D03*
D12*
X151115000Y-44450000D03*
X165115000Y-44450000D03*
D13*
X154115000Y-51450000D03*
X162115000Y-51450000D03*
X162115000Y-37450000D03*
D12*
X151115000Y-48450000D03*
X151115000Y-40450000D03*
X165115000Y-48450000D03*
X165115000Y-40450000D03*
D13*
X154115000Y-37450000D03*
X62865000Y-43165000D03*
X62865000Y-57165000D03*
D12*
X55865000Y-50165000D03*
X69865000Y-50165000D03*
D13*
X58865000Y-57165000D03*
X66865000Y-57165000D03*
X66865000Y-43165000D03*
D12*
X55865000Y-54165000D03*
X55865000Y-46165000D03*
X69865000Y-54165000D03*
X69865000Y-46165000D03*
D13*
X58865000Y-43165000D03*
X81915000Y-38085000D03*
X81915000Y-52085000D03*
D12*
X74915000Y-45085000D03*
X88915000Y-45085000D03*
D13*
X77915000Y-52085000D03*
X85915000Y-52085000D03*
X85915000Y-38085000D03*
D12*
X74915000Y-49085000D03*
X74915000Y-41085000D03*
X88915000Y-49085000D03*
X88915000Y-41085000D03*
D13*
X77915000Y-38085000D03*
X100965000Y-33640000D03*
X100965000Y-47640000D03*
D12*
X93965000Y-40640000D03*
X107965000Y-40640000D03*
D13*
X96965000Y-47640000D03*
X104965000Y-47640000D03*
X104965000Y-33640000D03*
D12*
X93965000Y-44640000D03*
X93965000Y-36640000D03*
X107965000Y-44640000D03*
X107965000Y-36640000D03*
D13*
X96965000Y-33640000D03*
X120015000Y-38085000D03*
X120015000Y-52085000D03*
D12*
X113015000Y-45085000D03*
X127015000Y-45085000D03*
D13*
X116015000Y-52085000D03*
X124015000Y-52085000D03*
X124015000Y-38085000D03*
D12*
X113015000Y-49085000D03*
X113015000Y-41085000D03*
X127015000Y-49085000D03*
X127015000Y-41085000D03*
D13*
X116015000Y-38085000D03*
X139065000Y-46975000D03*
X139065000Y-60975000D03*
D12*
X132065000Y-53975000D03*
X146065000Y-53975000D03*
D13*
X135065000Y-60975000D03*
X143065000Y-60975000D03*
X143065000Y-46975000D03*
D12*
X132065000Y-57975000D03*
X132065000Y-49975000D03*
X146065000Y-57975000D03*
X146065000Y-49975000D03*
D13*
X135065000Y-46975000D03*
X158115000Y-56500000D03*
X158115000Y-70500000D03*
D12*
X151115000Y-63500000D03*
X165115000Y-63500000D03*
D13*
X154115000Y-70500000D03*
X162115000Y-70500000D03*
X162115000Y-56500000D03*
D12*
X151115000Y-67500000D03*
X151115000Y-59500000D03*
X165115000Y-67500000D03*
X165115000Y-59500000D03*
D13*
X154115000Y-56500000D03*
X62865000Y-62215000D03*
X62865000Y-76215000D03*
D12*
X55865000Y-69215000D03*
X69865000Y-69215000D03*
D13*
X58865000Y-76215000D03*
X66865000Y-76215000D03*
X66865000Y-62215000D03*
D12*
X55865000Y-73215000D03*
X55865000Y-65215000D03*
X69865000Y-73215000D03*
X69865000Y-65215000D03*
D13*
X58865000Y-62215000D03*
X81915000Y-57135000D03*
X81915000Y-71135000D03*
D12*
X74915000Y-64135000D03*
X88915000Y-64135000D03*
D13*
X77915000Y-71135000D03*
X85915000Y-71135000D03*
X85915000Y-57135000D03*
D12*
X74915000Y-68135000D03*
X74915000Y-60135000D03*
X88915000Y-68135000D03*
X88915000Y-60135000D03*
D13*
X77915000Y-57135000D03*
X100965000Y-52690000D03*
X100965000Y-66690000D03*
D12*
X93965000Y-59690000D03*
X107965000Y-59690000D03*
D13*
X96965000Y-66690000D03*
X104965000Y-66690000D03*
X104965000Y-52690000D03*
D12*
X93965000Y-63690000D03*
X93965000Y-55690000D03*
X107965000Y-63690000D03*
X107965000Y-55690000D03*
D13*
X96965000Y-52690000D03*
X120015000Y-57135000D03*
X120015000Y-71135000D03*
D12*
X113015000Y-64135000D03*
X127015000Y-64135000D03*
D13*
X116015000Y-71135000D03*
X124015000Y-71135000D03*
X124015000Y-57135000D03*
D12*
X113015000Y-68135000D03*
X113015000Y-60135000D03*
X127015000Y-68135000D03*
X127015000Y-60135000D03*
D13*
X116015000Y-57135000D03*
X139065000Y-66025000D03*
X139065000Y-80025000D03*
D12*
X132065000Y-73025000D03*
X146065000Y-73025000D03*
D13*
X135065000Y-80025000D03*
X143065000Y-80025000D03*
X143065000Y-66025000D03*
D12*
X132065000Y-77025000D03*
X132065000Y-69025000D03*
X146065000Y-77025000D03*
X146065000Y-69025000D03*
D13*
X135065000Y-66025000D03*
X158115000Y-75550000D03*
X158115000Y-89550000D03*
D12*
X151115000Y-82550000D03*
X165115000Y-82550000D03*
D13*
X154115000Y-89550000D03*
X162115000Y-89550000D03*
X162115000Y-75550000D03*
D12*
X151115000Y-86550000D03*
X151115000Y-78550000D03*
X165115000Y-86550000D03*
X165115000Y-78550000D03*
D13*
X154115000Y-75550000D03*
X68580000Y-95265000D03*
X68580000Y-81265000D03*
D12*
X75580000Y-88265000D03*
X61580000Y-88265000D03*
D13*
X72580000Y-81265000D03*
X64580000Y-81265000D03*
X64580000Y-95265000D03*
D12*
X75580000Y-84265000D03*
X75580000Y-92265000D03*
X61580000Y-84265000D03*
X61580000Y-92265000D03*
D13*
X72580000Y-95265000D03*
X62865000Y-24115000D03*
X62865000Y-38115000D03*
D12*
X55865000Y-31115000D03*
X69865000Y-31115000D03*
D13*
X58865000Y-38115000D03*
X66865000Y-38115000D03*
X66865000Y-24115000D03*
D12*
X55865000Y-35115000D03*
X55865000Y-27115000D03*
X69865000Y-35115000D03*
X69865000Y-27115000D03*
D13*
X58865000Y-24115000D03*
D14*
X159281726Y-94083274D03*
X158115000Y-93600000D03*
X156948274Y-94083274D03*
X156465000Y-95250000D03*
X156948274Y-96416726D03*
X158115000Y-96900000D03*
X159281726Y-96416726D03*
X159765000Y-95250000D03*
D15*
X158115000Y-95250000D03*
D14*
X17676726Y-105513274D03*
X16510000Y-105030000D03*
X15343274Y-105513274D03*
X14860000Y-106680000D03*
X15343274Y-107846726D03*
X16510000Y-108330000D03*
X17676726Y-107846726D03*
X18160000Y-106680000D03*
D15*
X16510000Y-106680000D03*
D14*
X64031726Y-14708274D03*
X62865000Y-14225000D03*
X61698274Y-14708274D03*
X61215000Y-15875000D03*
X61698274Y-17041726D03*
X62865000Y-17525000D03*
X64031726Y-17041726D03*
X64515000Y-15875000D03*
D15*
X62865000Y-15875000D03*
D14*
X159281726Y-26773274D03*
X158115000Y-26290000D03*
X156948274Y-26773274D03*
X156465000Y-27940000D03*
X156948274Y-29106726D03*
X158115000Y-29590000D03*
X159281726Y-29106726D03*
X159765000Y-27940000D03*
D15*
X158115000Y-27940000D03*
M02*
