M48
; DRILL file {KiCad 5.1.5+dfsg1-2build2} date 2020年09月19日 22時34分41秒
; FORMAT={-:-/ absolute / inch / decimal}
; #@! TF.CreationDate,2020-09-19T22:34:41+09:00
; #@! TF.GenerationSoftware,Kicad,Pcbnew,5.1.5+dfsg1-2build2
FMAT,2
INCH
T1C0.0004
T2C0.0157
T3C0.0866
%
G90
G05
T2
X0.585Y-4.2
X0.6041Y-4.1541
X0.6041Y-4.2459
X0.65Y-4.135
X0.65Y-4.265
X0.6959Y-4.1541
X0.6959Y-4.2459
X0.715Y-4.2
X2.41Y-0.625
X2.4291Y-0.5791
X2.4291Y-0.6709
X2.475Y-0.56
X2.475Y-0.69
X2.5209Y-0.5791
X2.5209Y-0.6709
X2.54Y-0.625
X6.16Y-3.75
X6.1791Y-3.7041
X6.1791Y-3.7959
X6.225Y-3.685
X6.225Y-3.815
X6.2709Y-3.7041
X6.2709Y-3.7959
X6.29Y-3.75
X6.16Y-1.1
X6.1791Y-1.0541
X6.1791Y-1.1459
X6.225Y-1.035
X6.225Y-1.165
X6.2709Y-1.0541
X6.2709Y-1.1459
X6.29Y-1.1
T3
X0.65Y-4.2
X2.475Y-0.625
X6.225Y-3.75
X6.225Y-1.1
T1
G00X2.1994Y-1.1854
M15
G01X2.1994Y-0.9496
M16
G05
G00X2.1994Y-1.3429
M15
G01X2.1994Y-1.1071
M16
G05
G00X2.1994Y-1.5004
M15
G01X2.1994Y-1.2646
M16
G05
G00X2.4354Y-0.9494
M15
G01X2.1996Y-0.9494
M16
G05
G00X2.4354Y-1.5006
M15
G01X2.1996Y-1.5006
M16
G05
G00X2.5929Y-0.9494
M15
G01X2.3571Y-0.9494
M16
G05
G00X2.5929Y-1.5006
M15
G01X2.3571Y-1.5006
M16
G05
G00X2.7504Y-0.9494
M15
G01X2.5146Y-0.9494
M16
G05
G00X2.7504Y-1.5006
M15
G01X2.5146Y-1.5006
M16
G05
G00X2.7506Y-1.1854
M15
G01X2.7506Y-0.9496
M16
G05
G00X2.7506Y-1.3429
M15
G01X2.7506Y-1.1071
M16
G05
G00X2.7506Y-1.5004
M15
G01X2.7506Y-1.2646
M16
G05
G00X5.1994Y-1.3354
M15
G01X5.1994Y-1.0996
M16
G05
G00X5.1994Y-1.4929
M15
G01X5.1994Y-1.2571
M16
G05
G00X5.1994Y-1.6504
M15
G01X5.1994Y-1.4146
M16
G05
G00X5.4354Y-1.0994
M15
G01X5.1996Y-1.0994
M16
G05
G00X5.4354Y-1.6506
M15
G01X5.1996Y-1.6506
M16
G05
G00X5.5929Y-1.0994
M15
G01X5.3571Y-1.0994
M16
G05
G00X5.5929Y-1.6506
M15
G01X5.3571Y-1.6506
M16
G05
G00X5.7504Y-1.0994
M15
G01X5.5146Y-1.0994
M16
G05
G00X5.7504Y-1.6506
M15
G01X5.5146Y-1.6506
M16
G05
G00X5.7506Y-1.3354
M15
G01X5.7506Y-1.0996
M16
G05
G00X5.7506Y-1.4929
M15
G01X5.7506Y-1.2571
M16
G05
G00X5.7506Y-1.6504
M15
G01X5.7506Y-1.4146
M16
G05
G00X3.1744Y-3.0996
M15
G01X3.1744Y-3.3354
M16
G05
G00X3.1744Y-3.2571
M15
G01X3.1744Y-3.4929
M16
G05
G00X3.1744Y-3.4146
M15
G01X3.1744Y-3.6504
M16
G05
G00X3.4104Y-3.0994
M15
G01X3.1746Y-3.0994
M16
G05
G00X3.4104Y-3.6506
M15
G01X3.1746Y-3.6506
M16
G05
G00X3.5679Y-3.0994
M15
G01X3.3321Y-3.0994
M16
G05
G00X3.5679Y-3.6506
M15
G01X3.3321Y-3.6506
M16
G05
G00X3.7254Y-3.0994
M15
G01X3.4896Y-3.0994
M16
G05
G00X3.7254Y-3.6506
M15
G01X3.4896Y-3.6506
M16
G05
G00X3.7256Y-3.0996
M15
G01X3.7256Y-3.3354
M16
G05
G00X3.7256Y-3.2571
M15
G01X3.7256Y-3.4929
M16
G05
G00X3.7256Y-3.4146
M15
G01X3.7256Y-3.6504
M16
G05
G00X5.1994Y-2.8354
M15
G01X5.1994Y-2.5996
M16
G05
G00X5.1994Y-2.9929
M15
G01X5.1994Y-2.7571
M16
G05
G00X5.1994Y-3.1504
M15
G01X5.1994Y-2.9146
M16
G05
G00X5.4354Y-2.5994
M15
G01X5.1996Y-2.5994
M16
G05
G00X5.4354Y-3.1506
M15
G01X5.1996Y-3.1506
M16
G05
G00X5.5929Y-2.5994
M15
G01X5.3571Y-2.5994
M16
G05
G00X5.5929Y-3.1506
M15
G01X5.3571Y-3.1506
M16
G05
G00X5.7504Y-2.5994
M15
G01X5.5146Y-2.5994
M16
G05
G00X5.7504Y-3.1506
M15
G01X5.5146Y-3.1506
M16
G05
G00X5.7506Y-2.8354
M15
G01X5.7506Y-2.5996
M16
G05
G00X5.7506Y-2.9929
M15
G01X5.7506Y-2.7571
M16
G05
G00X5.7506Y-3.1504
M15
G01X5.7506Y-2.9146
M16
G05
G00X3.6994Y-0.8104
M15
G01X3.6994Y-0.5746
M16
G05
G00X3.6994Y-0.9679
M15
G01X3.6994Y-0.7321
M16
G05
G00X3.6994Y-1.1254
M15
G01X3.6994Y-0.8896
M16
G05
G00X3.9354Y-0.5744
M15
G01X3.6996Y-0.5744
M16
G05
G00X3.9354Y-1.1256
M15
G01X3.6996Y-1.1256
M16
G05
G00X4.0929Y-0.5744
M15
G01X3.8571Y-0.5744
M16
G05
G00X4.0929Y-1.1256
M15
G01X3.8571Y-1.1256
M16
G05
G00X4.2504Y-0.5744
M15
G01X4.0146Y-0.5744
M16
G05
G00X4.2504Y-1.1256
M15
G01X4.0146Y-1.1256
M16
G05
G00X4.2506Y-0.8104
M15
G01X4.2506Y-0.5746
M16
G05
G00X4.2506Y-0.9679
M15
G01X4.2506Y-0.7321
M16
G05
G00X4.2506Y-1.1254
M15
G01X4.2506Y-0.8896
M16
G05
G00X4.4494Y-0.9854
M15
G01X4.4494Y-0.7496
M16
G05
G00X4.4494Y-1.1429
M15
G01X4.4494Y-0.9071
M16
G05
G00X4.4494Y-1.3004
M15
G01X4.4494Y-1.0646
M16
G05
G00X4.6854Y-0.7494
M15
G01X4.4496Y-0.7494
M16
G05
G00X4.6854Y-1.3006
M15
G01X4.4496Y-1.3006
M16
G05
G00X4.8429Y-0.7494
M15
G01X4.6071Y-0.7494
M16
G05
G00X4.8429Y-1.3006
M15
G01X4.6071Y-1.3006
M16
G05
G00X5.0004Y-0.7494
M15
G01X4.7646Y-0.7494
M16
G05
G00X5.0004Y-1.3006
M15
G01X4.7646Y-1.3006
M16
G05
G00X5.0006Y-0.9854
M15
G01X5.0006Y-0.7496
M16
G05
G00X5.0006Y-1.1429
M15
G01X5.0006Y-0.9071
M16
G05
G00X5.0006Y-1.3004
M15
G01X5.0006Y-1.0646
M16
G05
G00X2.1994Y-2.6854
M15
G01X2.1994Y-2.4496
M16
G05
G00X2.1994Y-2.8429
M15
G01X2.1994Y-2.6071
M16
G05
G00X2.1994Y-3.0004
M15
G01X2.1994Y-2.7646
M16
G05
G00X2.4354Y-2.4494
M15
G01X2.1996Y-2.4494
M16
G05
G00X2.4354Y-3.0006
M15
G01X2.1996Y-3.0006
M16
G05
G00X2.5929Y-2.4494
M15
G01X2.3571Y-2.4494
M16
G05
G00X2.5929Y-3.0006
M15
G01X2.3571Y-3.0006
M16
G05
G00X2.7504Y-2.4494
M15
G01X2.5146Y-2.4494
M16
G05
G00X2.7504Y-3.0006
M15
G01X2.5146Y-3.0006
M16
G05
G00X2.7506Y-2.6854
M15
G01X2.7506Y-2.4496
M16
G05
G00X2.7506Y-2.8429
M15
G01X2.7506Y-2.6071
M16
G05
G00X2.7506Y-3.0004
M15
G01X2.7506Y-2.7646
M16
G05
G00X2.4244Y-3.1996
M15
G01X2.4244Y-3.4354
M16
G05
G00X2.4244Y-3.3571
M15
G01X2.4244Y-3.5929
M16
G05
G00X2.4244Y-3.5146
M15
G01X2.4244Y-3.7504
M16
G05
G00X2.4246Y-3.1994
M15
G01X2.6604Y-3.1994
M16
G05
G00X2.4246Y-3.7506
M15
G01X2.6604Y-3.7506
M16
G05
G00X2.5821Y-3.1994
M15
G01X2.8179Y-3.1994
M16
G05
G00X2.5821Y-3.7506
M15
G01X2.8179Y-3.7506
M16
G05
G00X2.7396Y-3.1994
M15
G01X2.9754Y-3.1994
M16
G05
G00X2.7396Y-3.7506
M15
G01X2.9754Y-3.7506
M16
G05
G00X2.9756Y-3.1996
M15
G01X2.9756Y-3.4354
M16
G05
G00X2.9756Y-3.3571
M15
G01X2.9756Y-3.5929
M16
G05
G00X2.9756Y-3.5146
M15
G01X2.9756Y-3.7504
M16
G05
G00X4.4494Y-1.7354
M15
G01X4.4494Y-1.4996
M16
G05
G00X4.4494Y-1.8929
M15
G01X4.4494Y-1.6571
M16
G05
G00X4.4494Y-2.0504
M15
G01X4.4494Y-1.8146
M16
G05
G00X4.6854Y-1.4994
M15
G01X4.4496Y-1.4994
M16
G05
G00X4.6854Y-2.0506
M15
G01X4.4496Y-2.0506
M16
G05
G00X4.8429Y-1.4994
M15
G01X4.6071Y-1.4994
M16
G05
G00X4.8429Y-2.0506
M15
G01X4.6071Y-2.0506
M16
G05
G00X5.0004Y-1.4994
M15
G01X4.7646Y-1.4994
M16
G05
G00X5.0004Y-2.0506
M15
G01X4.7646Y-2.0506
M16
G05
G00X5.0006Y-1.7354
M15
G01X5.0006Y-1.4996
M16
G05
G00X5.0006Y-1.8929
M15
G01X5.0006Y-1.6571
M16
G05
G00X5.0006Y-2.0504
M15
G01X5.0006Y-1.8146
M16
G05
G00X2.9494Y-0.9854
M15
G01X2.9494Y-0.7496
M16
G05
G00X2.9494Y-1.1429
M15
G01X2.9494Y-0.9071
M16
G05
G00X2.9494Y-1.3004
M15
G01X2.9494Y-1.0646
M16
G05
G00X3.1854Y-0.7494
M15
G01X2.9496Y-0.7494
M16
G05
G00X3.1854Y-1.3006
M15
G01X2.9496Y-1.3006
M16
G05
G00X3.3429Y-0.7494
M15
G01X3.1071Y-0.7494
M16
G05
G00X3.3429Y-1.3006
M15
G01X3.1071Y-1.3006
M16
G05
G00X3.5004Y-0.7494
M15
G01X3.2646Y-0.7494
M16
G05
G00X3.5004Y-1.3006
M15
G01X3.2646Y-1.3006
M16
G05
G00X3.5006Y-0.9854
M15
G01X3.5006Y-0.7496
M16
G05
G00X3.5006Y-1.1429
M15
G01X3.5006Y-0.9071
M16
G05
G00X3.5006Y-1.3004
M15
G01X3.5006Y-1.0646
M16
G05
G00X2.9494Y-1.7354
M15
G01X2.9494Y-1.4996
M16
G05
G00X2.9494Y-1.8929
M15
G01X2.9494Y-1.6571
M16
G05
G00X2.9494Y-2.0504
M15
G01X2.9494Y-1.8146
M16
G05
G00X3.1854Y-1.4994
M15
G01X2.9496Y-1.4994
M16
G05
G00X3.1854Y-2.0506
M15
G01X2.9496Y-2.0506
M16
G05
G00X3.3429Y-1.4994
M15
G01X3.1071Y-1.4994
M16
G05
G00X3.3429Y-2.0506
M15
G01X3.1071Y-2.0506
M16
G05
G00X3.5004Y-1.4994
M15
G01X3.2646Y-1.4994
M16
G05
G00X3.5004Y-2.0506
M15
G01X3.2646Y-2.0506
M16
G05
G00X3.5006Y-1.7354
M15
G01X3.5006Y-1.4996
M16
G05
G00X3.5006Y-1.8929
M15
G01X3.5006Y-1.6571
M16
G05
G00X3.5006Y-2.0504
M15
G01X3.5006Y-1.8146
M16
G05
G00X5.9494Y-3.2104
M15
G01X5.9494Y-2.9746
M16
G05
G00X5.9494Y-3.3679
M15
G01X5.9494Y-3.1321
M16
G05
G00X5.9494Y-3.5254
M15
G01X5.9494Y-3.2896
M16
G05
G00X6.1854Y-2.9744
M15
G01X5.9496Y-2.9744
M16
G05
G00X6.1854Y-3.5256
M15
G01X5.9496Y-3.5256
M16
G05
G00X6.3429Y-2.9744
M15
G01X6.1071Y-2.9744
M16
G05
G00X6.3429Y-3.5256
M15
G01X6.1071Y-3.5256
M16
G05
G00X6.5004Y-2.9744
M15
G01X6.2646Y-2.9744
M16
G05
G00X6.5004Y-3.5256
M15
G01X6.2646Y-3.5256
M16
G05
G00X6.5006Y-3.2104
M15
G01X6.5006Y-2.9746
M16
G05
G00X6.5006Y-3.3679
M15
G01X6.5006Y-3.1321
M16
G05
G00X6.5006Y-3.5254
M15
G01X6.5006Y-3.2896
M16
G05
G00X1.4665Y-3.6785
M15
G01X1.3486Y-3.4743
M16
G05
G00X1.3487Y-3.474
M15
G01X1.5529Y-3.3561
M16
G05
G00X1.5453Y-3.8149
M15
G01X1.4274Y-3.6107
M16
G05
G00X1.624Y-3.9513
M15
G01X1.5061Y-3.7471
M16
G05
G00X1.4851Y-3.3953
M15
G01X1.6893Y-3.2774
M16
G05
G00X1.6215Y-3.3165
M15
G01X1.8257Y-3.1986
M16
G05
G00X1.6243Y-3.9514
M15
G01X1.8285Y-3.8335
M16
G05
G00X1.7607Y-3.8726
M15
G01X1.9649Y-3.7547
M16
G05
G00X1.9439Y-3.4029
M15
G01X1.826Y-3.1987
M16
G05
G00X2.0226Y-3.5393
M15
G01X1.9047Y-3.3351
M16
G05
G00X1.8971Y-3.7939
M15
G01X2.1013Y-3.676
M16
G05
G00X2.1014Y-3.6757
M15
G01X1.9835Y-3.4715
M16
G05
G00X3.6994Y-2.3104
M15
G01X3.6994Y-2.0746
M16
G05
G00X3.6994Y-2.4679
M15
G01X3.6994Y-2.2321
M16
G05
G00X3.6994Y-2.6254
M15
G01X3.6994Y-2.3896
M16
G05
G00X3.9354Y-2.0744
M15
G01X3.6996Y-2.0744
M16
G05
G00X3.9354Y-2.6256
M15
G01X3.6996Y-2.6256
M16
G05
G00X4.0929Y-2.0744
M15
G01X3.8571Y-2.0744
M16
G05
G00X4.0929Y-2.6256
M15
G01X3.8571Y-2.6256
M16
G05
G00X4.2504Y-2.0744
M15
G01X4.0146Y-2.0744
M16
G05
G00X4.2504Y-2.6256
M15
G01X4.0146Y-2.6256
M16
G05
G00X4.2506Y-2.3104
M15
G01X4.2506Y-2.0746
M16
G05
G00X4.2506Y-2.4679
M15
G01X4.2506Y-2.2321
M16
G05
G00X4.2506Y-2.6254
M15
G01X4.2506Y-2.3896
M16
G05
G00X5.1994Y-2.0854
M15
G01X5.1994Y-1.8496
M16
G05
G00X5.1994Y-2.2429
M15
G01X5.1994Y-2.0071
M16
G05
G00X5.1994Y-2.4004
M15
G01X5.1994Y-2.1646
M16
G05
G00X5.4354Y-1.8494
M15
G01X5.1996Y-1.8494
M16
G05
G00X5.4354Y-2.4006
M15
G01X5.1996Y-2.4006
M16
G05
G00X5.5929Y-1.8494
M15
G01X5.3571Y-1.8494
M16
G05
G00X5.5929Y-2.4006
M15
G01X5.3571Y-2.4006
M16
G05
G00X5.7504Y-1.8494
M15
G01X5.5146Y-1.8494
M16
G05
G00X5.7504Y-2.4006
M15
G01X5.5146Y-2.4006
M16
G05
G00X5.7506Y-2.0854
M15
G01X5.7506Y-1.8496
M16
G05
G00X5.7506Y-2.2429
M15
G01X5.7506Y-2.0071
M16
G05
G00X5.7506Y-2.4004
M15
G01X5.7506Y-2.1646
M16
G05
G00X5.9494Y-1.7104
M15
G01X5.9494Y-1.4746
M16
G05
G00X5.9494Y-1.8679
M15
G01X5.9494Y-1.6321
M16
G05
G00X5.9494Y-2.0254
M15
G01X5.9494Y-1.7896
M16
G05
G00X6.1854Y-1.4744
M15
G01X5.9496Y-1.4744
M16
G05
G00X6.1854Y-2.0256
M15
G01X5.9496Y-2.0256
M16
G05
G00X6.3429Y-1.4744
M15
G01X6.1071Y-1.4744
M16
G05
G00X6.3429Y-2.0256
M15
G01X6.1071Y-2.0256
M16
G05
G00X6.5004Y-1.4744
M15
G01X6.2646Y-1.4744
M16
G05
G00X6.5004Y-2.0256
M15
G01X6.2646Y-2.0256
M16
G05
G00X6.5006Y-1.7104
M15
G01X6.5006Y-1.4746
M16
G05
G00X6.5006Y-1.8679
M15
G01X6.5006Y-1.6321
M16
G05
G00X6.5006Y-2.0254
M15
G01X6.5006Y-1.7896
M16
G05
G00X3.6994Y-1.5604
M15
G01X3.6994Y-1.3246
M16
G05
G00X3.6994Y-1.7179
M15
G01X3.6994Y-1.4821
M16
G05
G00X3.6994Y-1.8754
M15
G01X3.6994Y-1.6396
M16
G05
G00X3.9354Y-1.3244
M15
G01X3.6996Y-1.3244
M16
G05
G00X3.9354Y-1.8756
M15
G01X3.6996Y-1.8756
M16
G05
G00X4.0929Y-1.3244
M15
G01X3.8571Y-1.3244
M16
G05
G00X4.0929Y-1.8756
M15
G01X3.8571Y-1.8756
M16
G05
G00X4.2504Y-1.3244
M15
G01X4.0146Y-1.3244
M16
G05
G00X4.2504Y-1.8756
M15
G01X4.0146Y-1.8756
M16
G05
G00X4.2506Y-1.5604
M15
G01X4.2506Y-1.3246
M16
G05
G00X4.2506Y-1.7179
M15
G01X4.2506Y-1.4821
M16
G05
G00X4.2506Y-1.8754
M15
G01X4.2506Y-1.6396
M16
G05
G00X4.4494Y-2.4854
M15
G01X4.4494Y-2.2496
M16
G05
G00X4.4494Y-2.6429
M15
G01X4.4494Y-2.4071
M16
G05
G00X4.4494Y-2.8004
M15
G01X4.4494Y-2.5646
M16
G05
G00X4.6854Y-2.2494
M15
G01X4.4496Y-2.2494
M16
G05
G00X4.6854Y-2.8006
M15
G01X4.4496Y-2.8006
M16
G05
G00X4.8429Y-2.2494
M15
G01X4.6071Y-2.2494
M16
G05
G00X4.8429Y-2.8006
M15
G01X4.6071Y-2.8006
M16
G05
G00X5.0004Y-2.2494
M15
G01X4.7646Y-2.2494
M16
G05
G00X5.0004Y-2.8006
M15
G01X4.7646Y-2.8006
M16
G05
G00X5.0006Y-2.4854
M15
G01X5.0006Y-2.2496
M16
G05
G00X5.0006Y-2.6429
M15
G01X5.0006Y-2.4071
M16
G05
G00X5.0006Y-2.8004
M15
G01X5.0006Y-2.5646
M16
G05
G00X2.9494Y-2.4854
M15
G01X2.9494Y-2.2496
M16
G05
G00X2.9494Y-2.6429
M15
G01X2.9494Y-2.4071
M16
G05
G00X2.9494Y-2.8004
M15
G01X2.9494Y-2.5646
M16
G05
G00X3.1854Y-2.2494
M15
G01X2.9496Y-2.2494
M16
G05
G00X3.1854Y-2.8006
M15
G01X2.9496Y-2.8006
M16
G05
G00X3.3429Y-2.2494
M15
G01X3.1071Y-2.2494
M16
G05
G00X3.3429Y-2.8006
M15
G01X3.1071Y-2.8006
M16
G05
G00X3.5004Y-2.2494
M15
G01X3.2646Y-2.2494
M16
G05
G00X3.5004Y-2.8006
M15
G01X3.2646Y-2.8006
M16
G05
G00X3.5006Y-2.4854
M15
G01X3.5006Y-2.2496
M16
G05
G00X3.5006Y-2.6429
M15
G01X3.5006Y-2.4071
M16
G05
G00X3.5006Y-2.8004
M15
G01X3.5006Y-2.5646
M16
G05
G00X5.9494Y-2.4604
M15
G01X5.9494Y-2.2246
M16
G05
G00X5.9494Y-2.6179
M15
G01X5.9494Y-2.3821
M16
G05
G00X5.9494Y-2.7754
M15
G01X5.9494Y-2.5396
M16
G05
G00X6.1854Y-2.2244
M15
G01X5.9496Y-2.2244
M16
G05
G00X6.1854Y-2.7756
M15
G01X5.9496Y-2.7756
M16
G05
G00X6.3429Y-2.2244
M15
G01X6.1071Y-2.2244
M16
G05
G00X6.3429Y-2.7756
M15
G01X6.1071Y-2.7756
M16
G05
G00X6.5004Y-2.2244
M15
G01X6.2646Y-2.2244
M16
G05
G00X6.5004Y-2.7756
M15
G01X6.2646Y-2.7756
M16
G05
G00X6.5006Y-2.4604
M15
G01X6.5006Y-2.2246
M16
G05
G00X6.5006Y-2.6179
M15
G01X6.5006Y-2.3821
M16
G05
G00X6.5006Y-2.7754
M15
G01X6.5006Y-2.5396
M16
G05
G00X2.1994Y-1.9354
M15
G01X2.1994Y-1.6996
M16
G05
G00X2.1994Y-2.0929
M15
G01X2.1994Y-1.8571
M16
G05
G00X2.1994Y-2.2504
M15
G01X2.1994Y-2.0146
M16
G05
G00X2.4354Y-1.6994
M15
G01X2.1996Y-1.6994
M16
G05
G00X2.4354Y-2.2506
M15
G01X2.1996Y-2.2506
M16
G05
G00X2.5929Y-1.6994
M15
G01X2.3571Y-1.6994
M16
G05
G00X2.5929Y-2.2506
M15
G01X2.3571Y-2.2506
M16
G05
G00X2.7504Y-1.6994
M15
G01X2.5146Y-1.6994
M16
G05
G00X2.7504Y-2.2506
M15
G01X2.5146Y-2.2506
M16
G05
G00X2.7506Y-1.9354
M15
G01X2.7506Y-1.6996
M16
G05
G00X2.7506Y-2.0929
M15
G01X2.7506Y-1.8571
M16
G05
G00X2.7506Y-2.2504
M15
G01X2.7506Y-2.0146
M16
G05
G00X0.8165Y-4.0535
M15
G01X0.6986Y-3.8493
M16
G05
G00X0.6987Y-3.849
M15
G01X0.9029Y-3.7311
M16
G05
G00X0.8953Y-4.1899
M15
G01X0.7774Y-3.9857
M16
G05
G00X0.974Y-4.3263
M15
G01X0.8561Y-4.1221
M16
G05
G00X0.8351Y-3.7703
M15
G01X1.0393Y-3.6524
M16
G05
G00X0.9715Y-3.6915
M15
G01X1.1757Y-3.5736
M16
G05
G00X0.9743Y-4.3264
M15
G01X1.1785Y-4.2085
M16
G05
G00X1.1107Y-4.2476
M15
G01X1.3149Y-4.1297
M16
G05
G00X1.2939Y-3.7779
M15
G01X1.176Y-3.5737
M16
G05
G00X1.3726Y-3.9143
M15
G01X1.2547Y-3.7101
M16
G05
G00X1.2471Y-4.1689
M15
G01X1.4513Y-4.051
M16
G05
G00X1.4514Y-4.0507
M15
G01X1.3335Y-3.8465
M16
G05
T0
M30
