G04 #@! TF.GenerationSoftware,KiCad,Pcbnew,5.1.5+dfsg1-2build2*
G04 #@! TF.CreationDate,2020-09-19T22:34:38+09:00*
G04 #@! TF.ProjectId,toppcb,746f7070-6362-42e6-9b69-6361645f7063,rev?*
G04 #@! TF.SameCoordinates,Original*
G04 #@! TF.FileFunction,Copper,L1,Top*
G04 #@! TF.FilePolarity,Positive*
%FSLAX46Y46*%
G04 Gerber Fmt 4.6, Leading zero omitted, Abs format (unit mm)*
G04 Created by KiCad (PCBNEW 5.1.5+dfsg1-2build2) date 2020-09-19 22:34:38*
%MOMM*%
%LPD*%
G04 APERTURE LIST*
%ADD10C,0.010000*%
%ADD11C,2.000000*%
%ADD12O,2.000000X8.000000*%
%ADD13O,8.000000X2.000000*%
%ADD14C,0.700000*%
%ADD15C,4.400000*%
G04 APERTURE END LIST*
D10*
G36*
X103504614Y-84279014D02*
G01*
X103568548Y-84444285D01*
X103440592Y-84628264D01*
X103207248Y-84801432D01*
X103039729Y-84822074D01*
X102997000Y-84733273D01*
X103065270Y-84560713D01*
X103178950Y-84384023D01*
X103355968Y-84223122D01*
X103504614Y-84279014D01*
G37*
X103504614Y-84279014D02*
X103568548Y-84444285D01*
X103440592Y-84628264D01*
X103207248Y-84801432D01*
X103039729Y-84822074D01*
X102997000Y-84733273D01*
X103065270Y-84560713D01*
X103178950Y-84384023D01*
X103355968Y-84223122D01*
X103504614Y-84279014D01*
G36*
X106867660Y-82629983D02*
G01*
X107051999Y-82815277D01*
X107057017Y-83163627D01*
X106881677Y-83678770D01*
X106524943Y-84364441D01*
X106270666Y-84784445D01*
X105926114Y-85342872D01*
X105696426Y-85754205D01*
X105555975Y-86082956D01*
X105479132Y-86393637D01*
X105440268Y-86750762D01*
X105430918Y-86898268D01*
X105428298Y-87448088D01*
X105508005Y-87765565D01*
X105685291Y-87863341D01*
X105975410Y-87754056D01*
X106241794Y-87570309D01*
X106838243Y-86970684D01*
X107249302Y-86215004D01*
X107451375Y-85492974D01*
X107538117Y-85064260D01*
X107606314Y-84845791D01*
X107683497Y-84798024D01*
X107797199Y-84881419D01*
X107844622Y-84928178D01*
X107981222Y-85134384D01*
X108069238Y-85460838D01*
X108122336Y-85965637D01*
X108133230Y-86155174D01*
X108165126Y-86631313D01*
X108204648Y-87001476D01*
X108244291Y-87198965D01*
X108252174Y-87212508D01*
X108354538Y-87164085D01*
X108523647Y-86949394D01*
X108722025Y-86633800D01*
X108912197Y-86282670D01*
X109056689Y-85961368D01*
X109118026Y-85735260D01*
X109116624Y-85704692D01*
X109134389Y-85493381D01*
X109257794Y-85457800D01*
X109435849Y-85573724D01*
X109617563Y-85816927D01*
X109693981Y-85979000D01*
X109896354Y-86356942D01*
X110098238Y-86482689D01*
X110285982Y-86356810D01*
X110445935Y-85979875D01*
X110448000Y-85972356D01*
X111565394Y-85972356D01*
X111708405Y-86042134D01*
X111872397Y-85934650D01*
X111991477Y-85711321D01*
X112014000Y-85554227D01*
X112014000Y-85287555D01*
X111744587Y-85556967D01*
X111580530Y-85790785D01*
X111565394Y-85972356D01*
X110448000Y-85972356D01*
X110454897Y-85947250D01*
X110644037Y-85504467D01*
X110926771Y-85099144D01*
X110989071Y-85034648D01*
X111243725Y-84805654D01*
X111426223Y-84731834D01*
X111647371Y-84792174D01*
X111827247Y-84875710D01*
X112136312Y-85060732D01*
X112331253Y-85246739D01*
X112349110Y-85280595D01*
X112370026Y-85640219D01*
X112226719Y-86067522D01*
X112033987Y-86366854D01*
X111796752Y-86659827D01*
X111561957Y-86385606D01*
X111366272Y-86211496D01*
X111239862Y-86250305D01*
X111228025Y-86267442D01*
X111129557Y-86634901D01*
X111221973Y-87030103D01*
X111372110Y-87242110D01*
X111598768Y-87405160D01*
X111864815Y-87412178D01*
X112031627Y-87370944D01*
X112364499Y-87212271D01*
X112733683Y-86944365D01*
X113074338Y-86627215D01*
X113321623Y-86320810D01*
X113411000Y-86094809D01*
X113448625Y-85856600D01*
X113544856Y-85481268D01*
X113620792Y-85231583D01*
X113811975Y-84787401D01*
X114024849Y-84591413D01*
X114270813Y-84638025D01*
X114470816Y-84814250D01*
X114618953Y-85012577D01*
X114664978Y-85217334D01*
X114605208Y-85499427D01*
X114435962Y-85929765D01*
X114409698Y-85991071D01*
X114242958Y-86422719D01*
X114197924Y-86640527D01*
X114261654Y-86646031D01*
X114421207Y-86440764D01*
X114663642Y-86026263D01*
X114700866Y-85956533D01*
X114975825Y-85486064D01*
X115196887Y-85228131D01*
X115379500Y-85153500D01*
X115545423Y-85199057D01*
X115633147Y-85377992D01*
X115673069Y-85703836D01*
X115714444Y-86044748D01*
X115791174Y-86183452D01*
X115927069Y-86173224D01*
X116070074Y-86131363D01*
X116022047Y-86211350D01*
X115941797Y-86294303D01*
X115688213Y-86427892D01*
X115452686Y-86355705D01*
X115275053Y-86125032D01*
X115195151Y-85783163D01*
X115231115Y-85450667D01*
X115259830Y-85270554D01*
X115208233Y-85290524D01*
X115098002Y-85478040D01*
X114950818Y-85800560D01*
X114879106Y-85979000D01*
X114537445Y-86808961D01*
X114246863Y-87398188D01*
X114003235Y-87753874D01*
X113802438Y-87883213D01*
X113787245Y-87884000D01*
X113528132Y-87769660D01*
X113345454Y-87473498D01*
X113283999Y-87106588D01*
X113284000Y-86820478D01*
X112934750Y-87146221D01*
X112434090Y-87536847D01*
X111962913Y-87726231D01*
X111649616Y-87757000D01*
X111063714Y-87672853D01*
X110656220Y-87426158D01*
X110471223Y-87122728D01*
X110321277Y-86857295D01*
X110141985Y-86741203D01*
X110135275Y-86741000D01*
X109911784Y-86658158D01*
X109635611Y-86455861D01*
X109605085Y-86427413D01*
X109277771Y-86113827D01*
X108770060Y-87030663D01*
X108464001Y-87542162D01*
X108220183Y-87848031D01*
X108011743Y-87980499D01*
X107971148Y-87989134D01*
X107663892Y-87923629D01*
X107366219Y-87698262D01*
X107153575Y-87392816D01*
X107101408Y-87087070D01*
X107104491Y-87072681D01*
X107142134Y-86887238D01*
X107092681Y-86931742D01*
X107019458Y-87050162D01*
X106852822Y-87280061D01*
X106583340Y-87609001D01*
X106378075Y-87843912D01*
X106068305Y-88162750D01*
X105817956Y-88327297D01*
X105534151Y-88386543D01*
X105338973Y-88392000D01*
X104954797Y-88360699D01*
X104707099Y-88232330D01*
X104529647Y-88023144D01*
X104349177Y-87692856D01*
X104267423Y-87391483D01*
X104267000Y-87374988D01*
X104253854Y-87218304D01*
X104181489Y-87199731D01*
X104000508Y-87331906D01*
X103818080Y-87489843D01*
X103363505Y-87796987D01*
X102950503Y-87866977D01*
X102544623Y-87705016D01*
X102517258Y-87686298D01*
X102294320Y-87414981D01*
X102235000Y-87043092D01*
X102286858Y-86651378D01*
X102420461Y-86200059D01*
X102602848Y-85768336D01*
X102801059Y-85435409D01*
X102966467Y-85285422D01*
X103214938Y-85273343D01*
X103328659Y-85457990D01*
X103293451Y-85812529D01*
X103276481Y-85872057D01*
X103113145Y-86514534D01*
X103062628Y-86984097D01*
X103116473Y-87236821D01*
X103302183Y-87349641D01*
X103559669Y-87274854D01*
X103846990Y-87051977D01*
X104122203Y-86720522D01*
X104343366Y-86320005D01*
X104452921Y-85977730D01*
X104579700Y-85573263D01*
X105412816Y-85573263D01*
X105412823Y-85573515D01*
X105471007Y-85578965D01*
X105620919Y-85399296D01*
X105836313Y-85074330D01*
X106090945Y-84643891D01*
X106358570Y-84147800D01*
X106379988Y-84106013D01*
X106609948Y-83612050D01*
X106727404Y-83265398D01*
X106733015Y-83085526D01*
X106627438Y-83091906D01*
X106411332Y-83304010D01*
X106355176Y-83372493D01*
X106194950Y-83629787D01*
X105994064Y-84028809D01*
X105783962Y-84496113D01*
X105596090Y-84958254D01*
X105461893Y-85341786D01*
X105412816Y-85573263D01*
X104579700Y-85573263D01*
X104605324Y-85491516D01*
X104858717Y-84942462D01*
X105183542Y-84371546D01*
X105550242Y-83819746D01*
X105929261Y-83328040D01*
X106291039Y-82937405D01*
X106606021Y-82688818D01*
X106844648Y-82623259D01*
X106867660Y-82629983D01*
G37*
X106867660Y-82629983D02*
X107051999Y-82815277D01*
X107057017Y-83163627D01*
X106881677Y-83678770D01*
X106524943Y-84364441D01*
X106270666Y-84784445D01*
X105926114Y-85342872D01*
X105696426Y-85754205D01*
X105555975Y-86082956D01*
X105479132Y-86393637D01*
X105440268Y-86750762D01*
X105430918Y-86898268D01*
X105428298Y-87448088D01*
X105508005Y-87765565D01*
X105685291Y-87863341D01*
X105975410Y-87754056D01*
X106241794Y-87570309D01*
X106838243Y-86970684D01*
X107249302Y-86215004D01*
X107451375Y-85492974D01*
X107538117Y-85064260D01*
X107606314Y-84845791D01*
X107683497Y-84798024D01*
X107797199Y-84881419D01*
X107844622Y-84928178D01*
X107981222Y-85134384D01*
X108069238Y-85460838D01*
X108122336Y-85965637D01*
X108133230Y-86155174D01*
X108165126Y-86631313D01*
X108204648Y-87001476D01*
X108244291Y-87198965D01*
X108252174Y-87212508D01*
X108354538Y-87164085D01*
X108523647Y-86949394D01*
X108722025Y-86633800D01*
X108912197Y-86282670D01*
X109056689Y-85961368D01*
X109118026Y-85735260D01*
X109116624Y-85704692D01*
X109134389Y-85493381D01*
X109257794Y-85457800D01*
X109435849Y-85573724D01*
X109617563Y-85816927D01*
X109693981Y-85979000D01*
X109896354Y-86356942D01*
X110098238Y-86482689D01*
X110285982Y-86356810D01*
X110445935Y-85979875D01*
X110448000Y-85972356D01*
X111565394Y-85972356D01*
X111708405Y-86042134D01*
X111872397Y-85934650D01*
X111991477Y-85711321D01*
X112014000Y-85554227D01*
X112014000Y-85287555D01*
X111744587Y-85556967D01*
X111580530Y-85790785D01*
X111565394Y-85972356D01*
X110448000Y-85972356D01*
X110454897Y-85947250D01*
X110644037Y-85504467D01*
X110926771Y-85099144D01*
X110989071Y-85034648D01*
X111243725Y-84805654D01*
X111426223Y-84731834D01*
X111647371Y-84792174D01*
X111827247Y-84875710D01*
X112136312Y-85060732D01*
X112331253Y-85246739D01*
X112349110Y-85280595D01*
X112370026Y-85640219D01*
X112226719Y-86067522D01*
X112033987Y-86366854D01*
X111796752Y-86659827D01*
X111561957Y-86385606D01*
X111366272Y-86211496D01*
X111239862Y-86250305D01*
X111228025Y-86267442D01*
X111129557Y-86634901D01*
X111221973Y-87030103D01*
X111372110Y-87242110D01*
X111598768Y-87405160D01*
X111864815Y-87412178D01*
X112031627Y-87370944D01*
X112364499Y-87212271D01*
X112733683Y-86944365D01*
X113074338Y-86627215D01*
X113321623Y-86320810D01*
X113411000Y-86094809D01*
X113448625Y-85856600D01*
X113544856Y-85481268D01*
X113620792Y-85231583D01*
X113811975Y-84787401D01*
X114024849Y-84591413D01*
X114270813Y-84638025D01*
X114470816Y-84814250D01*
X114618953Y-85012577D01*
X114664978Y-85217334D01*
X114605208Y-85499427D01*
X114435962Y-85929765D01*
X114409698Y-85991071D01*
X114242958Y-86422719D01*
X114197924Y-86640527D01*
X114261654Y-86646031D01*
X114421207Y-86440764D01*
X114663642Y-86026263D01*
X114700866Y-85956533D01*
X114975825Y-85486064D01*
X115196887Y-85228131D01*
X115379500Y-85153500D01*
X115545423Y-85199057D01*
X115633147Y-85377992D01*
X115673069Y-85703836D01*
X115714444Y-86044748D01*
X115791174Y-86183452D01*
X115927069Y-86173224D01*
X116070074Y-86131363D01*
X116022047Y-86211350D01*
X115941797Y-86294303D01*
X115688213Y-86427892D01*
X115452686Y-86355705D01*
X115275053Y-86125032D01*
X115195151Y-85783163D01*
X115231115Y-85450667D01*
X115259830Y-85270554D01*
X115208233Y-85290524D01*
X115098002Y-85478040D01*
X114950818Y-85800560D01*
X114879106Y-85979000D01*
X114537445Y-86808961D01*
X114246863Y-87398188D01*
X114003235Y-87753874D01*
X113802438Y-87883213D01*
X113787245Y-87884000D01*
X113528132Y-87769660D01*
X113345454Y-87473498D01*
X113283999Y-87106588D01*
X113284000Y-86820478D01*
X112934750Y-87146221D01*
X112434090Y-87536847D01*
X111962913Y-87726231D01*
X111649616Y-87757000D01*
X111063714Y-87672853D01*
X110656220Y-87426158D01*
X110471223Y-87122728D01*
X110321277Y-86857295D01*
X110141985Y-86741203D01*
X110135275Y-86741000D01*
X109911784Y-86658158D01*
X109635611Y-86455861D01*
X109605085Y-86427413D01*
X109277771Y-86113827D01*
X108770060Y-87030663D01*
X108464001Y-87542162D01*
X108220183Y-87848031D01*
X108011743Y-87980499D01*
X107971148Y-87989134D01*
X107663892Y-87923629D01*
X107366219Y-87698262D01*
X107153575Y-87392816D01*
X107101408Y-87087070D01*
X107104491Y-87072681D01*
X107142134Y-86887238D01*
X107092681Y-86931742D01*
X107019458Y-87050162D01*
X106852822Y-87280061D01*
X106583340Y-87609001D01*
X106378075Y-87843912D01*
X106068305Y-88162750D01*
X105817956Y-88327297D01*
X105534151Y-88386543D01*
X105338973Y-88392000D01*
X104954797Y-88360699D01*
X104707099Y-88232330D01*
X104529647Y-88023144D01*
X104349177Y-87692856D01*
X104267423Y-87391483D01*
X104267000Y-87374988D01*
X104253854Y-87218304D01*
X104181489Y-87199731D01*
X104000508Y-87331906D01*
X103818080Y-87489843D01*
X103363505Y-87796987D01*
X102950503Y-87866977D01*
X102544623Y-87705016D01*
X102517258Y-87686298D01*
X102294320Y-87414981D01*
X102235000Y-87043092D01*
X102286858Y-86651378D01*
X102420461Y-86200059D01*
X102602848Y-85768336D01*
X102801059Y-85435409D01*
X102966467Y-85285422D01*
X103214938Y-85273343D01*
X103328659Y-85457990D01*
X103293451Y-85812529D01*
X103276481Y-85872057D01*
X103113145Y-86514534D01*
X103062628Y-86984097D01*
X103116473Y-87236821D01*
X103302183Y-87349641D01*
X103559669Y-87274854D01*
X103846990Y-87051977D01*
X104122203Y-86720522D01*
X104343366Y-86320005D01*
X104452921Y-85977730D01*
X104579700Y-85573263D01*
X105412816Y-85573263D01*
X105412823Y-85573515D01*
X105471007Y-85578965D01*
X105620919Y-85399296D01*
X105836313Y-85074330D01*
X106090945Y-84643891D01*
X106358570Y-84147800D01*
X106379988Y-84106013D01*
X106609948Y-83612050D01*
X106727404Y-83265398D01*
X106733015Y-83085526D01*
X106627438Y-83091906D01*
X106411332Y-83304010D01*
X106355176Y-83372493D01*
X106194950Y-83629787D01*
X105994064Y-84028809D01*
X105783962Y-84496113D01*
X105596090Y-84958254D01*
X105461893Y-85341786D01*
X105412816Y-85573263D01*
X104579700Y-85573263D01*
X104605324Y-85491516D01*
X104858717Y-84942462D01*
X105183542Y-84371546D01*
X105550242Y-83819746D01*
X105929261Y-83328040D01*
X106291039Y-82937405D01*
X106606021Y-82688818D01*
X106844648Y-82623259D01*
X106867660Y-82629983D01*
G36*
X102134972Y-82899856D02*
G01*
X102499414Y-82969046D01*
X102687271Y-83070598D01*
X102688034Y-83071809D01*
X102708937Y-83296781D01*
X102629671Y-83639685D01*
X102484930Y-84003212D01*
X102309406Y-84290053D01*
X102224554Y-84371822D01*
X101972548Y-84480365D01*
X101635887Y-84470149D01*
X101434447Y-84429816D01*
X100898108Y-84360955D01*
X100367602Y-84381953D01*
X99934356Y-84484415D01*
X99756187Y-84583918D01*
X99645731Y-84763500D01*
X99722767Y-84985419D01*
X100001955Y-85270688D01*
X100488804Y-85634026D01*
X101081142Y-86124966D01*
X101421812Y-86611171D01*
X101512944Y-87098060D01*
X101356665Y-87591052D01*
X101296606Y-87689794D01*
X100950997Y-88078751D01*
X100491122Y-88323360D01*
X99854685Y-88456109D01*
X99819477Y-88460131D01*
X99342346Y-88487304D01*
X99022836Y-88431508D01*
X98837750Y-88330474D01*
X98624792Y-88102000D01*
X98551999Y-87901817D01*
X98626969Y-87660502D01*
X98814726Y-87336762D01*
X99059539Y-87005086D01*
X99305679Y-86739964D01*
X99497417Y-86615886D01*
X99515486Y-86614000D01*
X99672745Y-86669757D01*
X99634351Y-86851046D01*
X99500460Y-87051023D01*
X99309425Y-87396882D01*
X99327575Y-87626369D01*
X99533106Y-87728745D01*
X99904209Y-87693273D01*
X100419081Y-87509214D01*
X100425250Y-87506420D01*
X100778979Y-87304670D01*
X100938877Y-87092668D01*
X100896610Y-86850400D01*
X100643845Y-86557853D01*
X100172248Y-86195013D01*
X99767456Y-85926709D01*
X99280369Y-85559702D01*
X98938332Y-85188857D01*
X98853823Y-85047261D01*
X98729530Y-84738874D01*
X98733498Y-84506474D01*
X98860254Y-84218879D01*
X99219656Y-83753282D01*
X99754715Y-83341530D01*
X100387090Y-83037180D01*
X100733895Y-82937954D01*
X101177037Y-82879160D01*
X101669122Y-82868178D01*
X102134972Y-82899856D01*
G37*
X102134972Y-82899856D02*
X102499414Y-82969046D01*
X102687271Y-83070598D01*
X102688034Y-83071809D01*
X102708937Y-83296781D01*
X102629671Y-83639685D01*
X102484930Y-84003212D01*
X102309406Y-84290053D01*
X102224554Y-84371822D01*
X101972548Y-84480365D01*
X101635887Y-84470149D01*
X101434447Y-84429816D01*
X100898108Y-84360955D01*
X100367602Y-84381953D01*
X99934356Y-84484415D01*
X99756187Y-84583918D01*
X99645731Y-84763500D01*
X99722767Y-84985419D01*
X100001955Y-85270688D01*
X100488804Y-85634026D01*
X101081142Y-86124966D01*
X101421812Y-86611171D01*
X101512944Y-87098060D01*
X101356665Y-87591052D01*
X101296606Y-87689794D01*
X100950997Y-88078751D01*
X100491122Y-88323360D01*
X99854685Y-88456109D01*
X99819477Y-88460131D01*
X99342346Y-88487304D01*
X99022836Y-88431508D01*
X98837750Y-88330474D01*
X98624792Y-88102000D01*
X98551999Y-87901817D01*
X98626969Y-87660502D01*
X98814726Y-87336762D01*
X99059539Y-87005086D01*
X99305679Y-86739964D01*
X99497417Y-86615886D01*
X99515486Y-86614000D01*
X99672745Y-86669757D01*
X99634351Y-86851046D01*
X99500460Y-87051023D01*
X99309425Y-87396882D01*
X99327575Y-87626369D01*
X99533106Y-87728745D01*
X99904209Y-87693273D01*
X100419081Y-87509214D01*
X100425250Y-87506420D01*
X100778979Y-87304670D01*
X100938877Y-87092668D01*
X100896610Y-86850400D01*
X100643845Y-86557853D01*
X100172248Y-86195013D01*
X99767456Y-85926709D01*
X99280369Y-85559702D01*
X98938332Y-85188857D01*
X98853823Y-85047261D01*
X98729530Y-84738874D01*
X98733498Y-84506474D01*
X98860254Y-84218879D01*
X99219656Y-83753282D01*
X99754715Y-83341530D01*
X100387090Y-83037180D01*
X100733895Y-82937954D01*
X101177037Y-82879160D01*
X101669122Y-82868178D01*
X102134972Y-82899856D01*
G36*
X130574625Y-90397048D02*
G01*
X130678531Y-90542650D01*
X130802441Y-90945484D01*
X130691626Y-91287882D01*
X130377556Y-91576574D01*
X130037344Y-91864701D01*
X129765375Y-92193026D01*
X129606021Y-92496545D01*
X129603656Y-92710253D01*
X129603661Y-92710260D01*
X129790899Y-92851749D01*
X130017157Y-92755063D01*
X130268747Y-92430501D01*
X130453703Y-92070801D01*
X130647014Y-91683664D01*
X130818702Y-91410538D01*
X130926778Y-91313000D01*
X130996238Y-91424003D01*
X130984655Y-91723366D01*
X130897446Y-92160615D01*
X130798416Y-92508721D01*
X130748699Y-92837198D01*
X130870823Y-93087302D01*
X130892479Y-93111971D01*
X131029589Y-93284379D01*
X130975778Y-93340352D01*
X130845915Y-93345000D01*
X130657945Y-93407886D01*
X130547509Y-93636258D01*
X130509845Y-93821250D01*
X130381875Y-94482043D01*
X130247440Y-94919389D01*
X130093144Y-95163742D01*
X129905592Y-95245561D01*
X129883280Y-95245960D01*
X129558238Y-95172681D01*
X129399233Y-95086359D01*
X129277542Y-94948462D01*
X129264915Y-94747445D01*
X129345311Y-94423649D01*
X129481073Y-94022517D01*
X129624118Y-93680236D01*
X129649296Y-93630750D01*
X129734774Y-93426477D01*
X129646536Y-93352747D01*
X129449218Y-93343055D01*
X129055855Y-93287259D01*
X128797332Y-93083702D01*
X128670012Y-92877099D01*
X128555406Y-92579895D01*
X128560128Y-92294029D01*
X128702996Y-91970620D01*
X129002829Y-91560785D01*
X129317750Y-91194538D01*
X129779422Y-90706031D01*
X130126394Y-90418136D01*
X130383263Y-90319069D01*
X130574625Y-90397048D01*
G37*
X130574625Y-90397048D02*
X130678531Y-90542650D01*
X130802441Y-90945484D01*
X130691626Y-91287882D01*
X130377556Y-91576574D01*
X130037344Y-91864701D01*
X129765375Y-92193026D01*
X129606021Y-92496545D01*
X129603656Y-92710253D01*
X129603661Y-92710260D01*
X129790899Y-92851749D01*
X130017157Y-92755063D01*
X130268747Y-92430501D01*
X130453703Y-92070801D01*
X130647014Y-91683664D01*
X130818702Y-91410538D01*
X130926778Y-91313000D01*
X130996238Y-91424003D01*
X130984655Y-91723366D01*
X130897446Y-92160615D01*
X130798416Y-92508721D01*
X130748699Y-92837198D01*
X130870823Y-93087302D01*
X130892479Y-93111971D01*
X131029589Y-93284379D01*
X130975778Y-93340352D01*
X130845915Y-93345000D01*
X130657945Y-93407886D01*
X130547509Y-93636258D01*
X130509845Y-93821250D01*
X130381875Y-94482043D01*
X130247440Y-94919389D01*
X130093144Y-95163742D01*
X129905592Y-95245561D01*
X129883280Y-95245960D01*
X129558238Y-95172681D01*
X129399233Y-95086359D01*
X129277542Y-94948462D01*
X129264915Y-94747445D01*
X129345311Y-94423649D01*
X129481073Y-94022517D01*
X129624118Y-93680236D01*
X129649296Y-93630750D01*
X129734774Y-93426477D01*
X129646536Y-93352747D01*
X129449218Y-93343055D01*
X129055855Y-93287259D01*
X128797332Y-93083702D01*
X128670012Y-92877099D01*
X128555406Y-92579895D01*
X128560128Y-92294029D01*
X128702996Y-91970620D01*
X129002829Y-91560785D01*
X129317750Y-91194538D01*
X129779422Y-90706031D01*
X130126394Y-90418136D01*
X130383263Y-90319069D01*
X130574625Y-90397048D01*
G36*
X127783361Y-90399562D02*
G01*
X127884531Y-90542650D01*
X128011521Y-90950738D01*
X127901451Y-91287597D01*
X127584640Y-91558878D01*
X127206650Y-91851051D01*
X126940066Y-92168659D01*
X126802329Y-92466674D01*
X126810877Y-92700068D01*
X126983151Y-92823811D01*
X127091264Y-92832801D01*
X127292351Y-92708011D01*
X127530651Y-92338012D01*
X127659703Y-92070801D01*
X127850632Y-91683943D01*
X128016405Y-91410859D01*
X128116986Y-91313000D01*
X128159896Y-91423487D01*
X128155312Y-91701700D01*
X128112406Y-92067768D01*
X128040350Y-92441818D01*
X127954402Y-92728903D01*
X127948621Y-92946993D01*
X128007341Y-93022149D01*
X128136128Y-93184675D01*
X128074658Y-93320086D01*
X127966633Y-93345000D01*
X127825349Y-93460819D01*
X127715903Y-93763653D01*
X127704477Y-93821250D01*
X127565931Y-94485517D01*
X127425033Y-94925035D01*
X127268960Y-95168835D01*
X127084886Y-95245952D01*
X127075147Y-95245960D01*
X126755875Y-95166405D01*
X126577818Y-95066313D01*
X126459140Y-94958209D01*
X126420932Y-94828442D01*
X126468739Y-94611677D01*
X126608105Y-94242582D01*
X126658305Y-94117852D01*
X126970474Y-93345000D01*
X126635987Y-93343055D01*
X126248773Y-93282904D01*
X125990169Y-93065736D01*
X125876012Y-92877099D01*
X125761933Y-92582536D01*
X125765458Y-92299232D01*
X125905370Y-91978103D01*
X126200450Y-91570065D01*
X126519835Y-91194563D01*
X126981089Y-90702655D01*
X127329645Y-90413725D01*
X127589178Y-90316464D01*
X127783361Y-90399562D01*
G37*
X127783361Y-90399562D02*
X127884531Y-90542650D01*
X128011521Y-90950738D01*
X127901451Y-91287597D01*
X127584640Y-91558878D01*
X127206650Y-91851051D01*
X126940066Y-92168659D01*
X126802329Y-92466674D01*
X126810877Y-92700068D01*
X126983151Y-92823811D01*
X127091264Y-92832801D01*
X127292351Y-92708011D01*
X127530651Y-92338012D01*
X127659703Y-92070801D01*
X127850632Y-91683943D01*
X128016405Y-91410859D01*
X128116986Y-91313000D01*
X128159896Y-91423487D01*
X128155312Y-91701700D01*
X128112406Y-92067768D01*
X128040350Y-92441818D01*
X127954402Y-92728903D01*
X127948621Y-92946993D01*
X128007341Y-93022149D01*
X128136128Y-93184675D01*
X128074658Y-93320086D01*
X127966633Y-93345000D01*
X127825349Y-93460819D01*
X127715903Y-93763653D01*
X127704477Y-93821250D01*
X127565931Y-94485517D01*
X127425033Y-94925035D01*
X127268960Y-95168835D01*
X127084886Y-95245952D01*
X127075147Y-95245960D01*
X126755875Y-95166405D01*
X126577818Y-95066313D01*
X126459140Y-94958209D01*
X126420932Y-94828442D01*
X126468739Y-94611677D01*
X126608105Y-94242582D01*
X126658305Y-94117852D01*
X126970474Y-93345000D01*
X126635987Y-93343055D01*
X126248773Y-93282904D01*
X125990169Y-93065736D01*
X125876012Y-92877099D01*
X125761933Y-92582536D01*
X125765458Y-92299232D01*
X125905370Y-91978103D01*
X126200450Y-91570065D01*
X126519835Y-91194563D01*
X126981089Y-90702655D01*
X127329645Y-90413725D01*
X127589178Y-90316464D01*
X127783361Y-90399562D01*
G36*
X117019623Y-89829526D02*
G01*
X117058163Y-90146031D01*
X116911025Y-90630729D01*
X116578792Y-91281685D01*
X116071344Y-92083258D01*
X115791400Y-92548522D01*
X115557243Y-93029149D01*
X115443880Y-93341730D01*
X115368454Y-93804090D01*
X115373213Y-94259468D01*
X115450647Y-94625195D01*
X115577235Y-94809971D01*
X115767827Y-94798403D01*
X116065087Y-94656597D01*
X116394526Y-94432354D01*
X116681654Y-94173477D01*
X116800188Y-94025170D01*
X116960888Y-93825084D01*
X117061557Y-93778224D01*
X117038257Y-93917069D01*
X116882817Y-94178347D01*
X116639467Y-94501701D01*
X116352433Y-94826778D01*
X116149708Y-95022588D01*
X115688197Y-95305805D01*
X115216793Y-95381597D01*
X114792996Y-95249245D01*
X114563217Y-95042372D01*
X114375233Y-94693345D01*
X114300000Y-94343076D01*
X114300000Y-93978406D01*
X113772945Y-94360203D01*
X113278514Y-94638926D01*
X112845517Y-94735362D01*
X112510352Y-94654792D01*
X112309414Y-94402497D01*
X112268000Y-94141838D01*
X112253044Y-93949827D01*
X112161585Y-93916792D01*
X111923737Y-94024539D01*
X111888095Y-94042933D01*
X111462278Y-94172147D01*
X111093275Y-94122295D01*
X110845089Y-93908703D01*
X110794007Y-93780954D01*
X110814421Y-93501774D01*
X110945858Y-93092259D01*
X111151608Y-92628697D01*
X111394965Y-92187373D01*
X111639221Y-91844574D01*
X111794344Y-91702024D01*
X112035226Y-91608473D01*
X112151156Y-91713068D01*
X112143953Y-92024200D01*
X112015436Y-92550257D01*
X111993823Y-92622089D01*
X111873614Y-93056267D01*
X111804434Y-93389131D01*
X111800029Y-93553379D01*
X111802829Y-93557162D01*
X112011217Y-93605078D01*
X112306073Y-93488278D01*
X112620550Y-93244558D01*
X112856135Y-92961640D01*
X113136786Y-92582609D01*
X113316956Y-92434726D01*
X113389323Y-92512838D01*
X113346564Y-92811794D01*
X113220500Y-93218000D01*
X113066626Y-93733440D01*
X113043839Y-94055887D01*
X113153681Y-94210829D01*
X113281996Y-94234000D01*
X113630850Y-94119541D01*
X113980485Y-93815225D01*
X114278853Y-93379636D01*
X114466669Y-92900500D01*
X114660099Y-92335949D01*
X114672730Y-92309494D01*
X115466791Y-92309494D01*
X115472626Y-92451103D01*
X115570918Y-92402169D01*
X115749636Y-92172201D01*
X115996745Y-91770704D01*
X116300212Y-91207187D01*
X116465481Y-90875533D01*
X116642979Y-90483700D01*
X116751956Y-90188779D01*
X116769102Y-90056768D01*
X116636193Y-90078667D01*
X116431828Y-90284925D01*
X116189973Y-90628815D01*
X115944595Y-91063608D01*
X115780627Y-91416621D01*
X115565447Y-91967835D01*
X115466791Y-92309494D01*
X114672730Y-92309494D01*
X114946407Y-91736300D01*
X115295163Y-91143608D01*
X115675932Y-90599929D01*
X116058284Y-90147318D01*
X116411785Y-89827830D01*
X116706003Y-89683521D01*
X116794821Y-89683149D01*
X117019623Y-89829526D01*
G37*
X117019623Y-89829526D02*
X117058163Y-90146031D01*
X116911025Y-90630729D01*
X116578792Y-91281685D01*
X116071344Y-92083258D01*
X115791400Y-92548522D01*
X115557243Y-93029149D01*
X115443880Y-93341730D01*
X115368454Y-93804090D01*
X115373213Y-94259468D01*
X115450647Y-94625195D01*
X115577235Y-94809971D01*
X115767827Y-94798403D01*
X116065087Y-94656597D01*
X116394526Y-94432354D01*
X116681654Y-94173477D01*
X116800188Y-94025170D01*
X116960888Y-93825084D01*
X117061557Y-93778224D01*
X117038257Y-93917069D01*
X116882817Y-94178347D01*
X116639467Y-94501701D01*
X116352433Y-94826778D01*
X116149708Y-95022588D01*
X115688197Y-95305805D01*
X115216793Y-95381597D01*
X114792996Y-95249245D01*
X114563217Y-95042372D01*
X114375233Y-94693345D01*
X114300000Y-94343076D01*
X114300000Y-93978406D01*
X113772945Y-94360203D01*
X113278514Y-94638926D01*
X112845517Y-94735362D01*
X112510352Y-94654792D01*
X112309414Y-94402497D01*
X112268000Y-94141838D01*
X112253044Y-93949827D01*
X112161585Y-93916792D01*
X111923737Y-94024539D01*
X111888095Y-94042933D01*
X111462278Y-94172147D01*
X111093275Y-94122295D01*
X110845089Y-93908703D01*
X110794007Y-93780954D01*
X110814421Y-93501774D01*
X110945858Y-93092259D01*
X111151608Y-92628697D01*
X111394965Y-92187373D01*
X111639221Y-91844574D01*
X111794344Y-91702024D01*
X112035226Y-91608473D01*
X112151156Y-91713068D01*
X112143953Y-92024200D01*
X112015436Y-92550257D01*
X111993823Y-92622089D01*
X111873614Y-93056267D01*
X111804434Y-93389131D01*
X111800029Y-93553379D01*
X111802829Y-93557162D01*
X112011217Y-93605078D01*
X112306073Y-93488278D01*
X112620550Y-93244558D01*
X112856135Y-92961640D01*
X113136786Y-92582609D01*
X113316956Y-92434726D01*
X113389323Y-92512838D01*
X113346564Y-92811794D01*
X113220500Y-93218000D01*
X113066626Y-93733440D01*
X113043839Y-94055887D01*
X113153681Y-94210829D01*
X113281996Y-94234000D01*
X113630850Y-94119541D01*
X113980485Y-93815225D01*
X114278853Y-93379636D01*
X114466669Y-92900500D01*
X114660099Y-92335949D01*
X114672730Y-92309494D01*
X115466791Y-92309494D01*
X115472626Y-92451103D01*
X115570918Y-92402169D01*
X115749636Y-92172201D01*
X115996745Y-91770704D01*
X116300212Y-91207187D01*
X116465481Y-90875533D01*
X116642979Y-90483700D01*
X116751956Y-90188779D01*
X116769102Y-90056768D01*
X116636193Y-90078667D01*
X116431828Y-90284925D01*
X116189973Y-90628815D01*
X115944595Y-91063608D01*
X115780627Y-91416621D01*
X115565447Y-91967835D01*
X115466791Y-92309494D01*
X114672730Y-92309494D01*
X114946407Y-91736300D01*
X115295163Y-91143608D01*
X115675932Y-90599929D01*
X116058284Y-90147318D01*
X116411785Y-89827830D01*
X116706003Y-89683521D01*
X116794821Y-89683149D01*
X117019623Y-89829526D01*
G36*
X120588736Y-77583830D02*
G01*
X120733112Y-77883725D01*
X120837954Y-78200250D01*
X121007952Y-78794044D01*
X121131078Y-79183839D01*
X121227378Y-79410658D01*
X121316897Y-79515530D01*
X121419682Y-79539479D01*
X121489168Y-79533017D01*
X121729953Y-79515937D01*
X122140375Y-79501213D01*
X122636074Y-79491788D01*
X122687993Y-79491241D01*
X123841488Y-79602552D01*
X124934748Y-79944694D01*
X125933977Y-80495877D01*
X126805380Y-81234312D01*
X127515161Y-82138208D01*
X127893079Y-82847144D01*
X128055136Y-83183622D01*
X128183797Y-83398029D01*
X128228915Y-83439000D01*
X128377813Y-83407593D01*
X128708328Y-83324102D01*
X129157401Y-83204618D01*
X129303447Y-83164808D01*
X129775918Y-83047503D01*
X130150680Y-82977180D01*
X130364391Y-82964966D01*
X130387641Y-82974308D01*
X130429011Y-83063896D01*
X130341128Y-83153922D01*
X130090423Y-83260699D01*
X129643325Y-83400538D01*
X129323815Y-83491251D01*
X128333500Y-83767300D01*
X128377856Y-84725604D01*
X128321145Y-85894954D01*
X128054295Y-87013843D01*
X127596354Y-88044232D01*
X126966368Y-88948083D01*
X126183384Y-89687359D01*
X125747097Y-89979500D01*
X125390700Y-90223078D01*
X125156556Y-90449077D01*
X125097520Y-90572362D01*
X125049159Y-90886211D01*
X125017912Y-90985112D01*
X125014901Y-91112714D01*
X125167906Y-91175321D01*
X125494162Y-91194595D01*
X125786858Y-91210949D01*
X125867883Y-91254514D01*
X125726890Y-91335452D01*
X125353530Y-91463929D01*
X125158500Y-91524307D01*
X124928819Y-91625921D01*
X124813273Y-91792634D01*
X124794424Y-92084652D01*
X124854835Y-92562181D01*
X124855925Y-92569000D01*
X124839694Y-92820443D01*
X124755542Y-92925569D01*
X124624811Y-92861702D01*
X124558936Y-92685569D01*
X124517740Y-92532474D01*
X124450205Y-92560538D01*
X124325368Y-92793186D01*
X124274848Y-92900500D01*
X124133139Y-93315965D01*
X124047152Y-93791575D01*
X124018607Y-94260451D01*
X124049219Y-94655712D01*
X124140709Y-94910481D01*
X124221749Y-94967402D01*
X124456241Y-94901271D01*
X124759225Y-94666476D01*
X125077819Y-94317477D01*
X125359140Y-93908733D01*
X125483293Y-93668216D01*
X125631000Y-93381231D01*
X125708501Y-93312378D01*
X125708872Y-93433796D01*
X125625189Y-93717626D01*
X125546001Y-93920529D01*
X125230393Y-94510109D01*
X124829100Y-95018589D01*
X124389937Y-95399611D01*
X123960716Y-95606815D01*
X123781876Y-95631000D01*
X123554949Y-95555766D01*
X123310557Y-95397320D01*
X123060627Y-95045562D01*
X122947237Y-94623198D01*
X122872500Y-94082756D01*
X122518855Y-94361552D01*
X122060964Y-94608028D01*
X121543398Y-94712193D01*
X121033267Y-94680622D01*
X120597678Y-94519889D01*
X120303740Y-94236568D01*
X120257407Y-94140009D01*
X120193706Y-93865918D01*
X120212086Y-93715342D01*
X120240325Y-93604476D01*
X120226234Y-93599000D01*
X120132189Y-93696766D01*
X119949038Y-93949497D01*
X119778209Y-94207181D01*
X119279053Y-94845447D01*
X118760967Y-95236290D01*
X118228136Y-95376612D01*
X118198325Y-95377000D01*
X117760832Y-95282139D01*
X117453280Y-94988229D01*
X117263932Y-94481282D01*
X117217672Y-94208063D01*
X117210114Y-94047094D01*
X118271700Y-94047094D01*
X118346369Y-94519750D01*
X118466107Y-94768376D01*
X118605572Y-94847816D01*
X118834852Y-94767480D01*
X119089167Y-94619483D01*
X119545558Y-94222472D01*
X119943430Y-93657245D01*
X120224683Y-93009585D01*
X120257507Y-92894451D01*
X120294812Y-92807888D01*
X121343470Y-92807888D01*
X121353324Y-92971806D01*
X121469390Y-93037130D01*
X121644255Y-92893856D01*
X121685555Y-92844387D01*
X121828948Y-92599144D01*
X121840407Y-92429961D01*
X121705880Y-92412930D01*
X121508175Y-92557379D01*
X121343470Y-92807888D01*
X120294812Y-92807888D01*
X120444906Y-92459615D01*
X120730710Y-92058936D01*
X120780996Y-92007670D01*
X121170044Y-91634939D01*
X121640272Y-91886719D01*
X122023405Y-92200365D01*
X122168478Y-92585587D01*
X122070380Y-93012719D01*
X121881904Y-93289416D01*
X121575972Y-93645084D01*
X121341067Y-93370734D01*
X121145325Y-93196544D01*
X121018893Y-93235265D01*
X121007025Y-93252442D01*
X120909221Y-93622560D01*
X121034328Y-94011118D01*
X121206445Y-94219856D01*
X121428121Y-94400165D01*
X121621034Y-94431471D01*
X121908341Y-94330336D01*
X121936695Y-94318063D01*
X122480895Y-94001438D01*
X122872384Y-93566967D01*
X123154297Y-92959915D01*
X123245974Y-92656765D01*
X123288502Y-92493941D01*
X124051909Y-92493941D01*
X124059784Y-92642107D01*
X124082989Y-92644034D01*
X124180693Y-92485776D01*
X124271203Y-92194235D01*
X124271814Y-92191462D01*
X124321868Y-91857756D01*
X124292361Y-91754109D01*
X124209645Y-91879716D01*
X124109365Y-92196430D01*
X124051909Y-92493941D01*
X123288502Y-92493941D01*
X123363093Y-92208363D01*
X123411053Y-91938986D01*
X123389315Y-91783107D01*
X123297343Y-91675194D01*
X123237533Y-91628330D01*
X123077355Y-91492535D01*
X123134912Y-91449125D01*
X123276178Y-91444039D01*
X123554941Y-91364012D01*
X123814069Y-91182645D01*
X123948941Y-90976895D01*
X123951992Y-90946990D01*
X124460000Y-90946990D01*
X124510104Y-91117827D01*
X124587000Y-91122500D01*
X124692605Y-90943887D01*
X124714000Y-90790009D01*
X124663895Y-90619172D01*
X124587000Y-90614500D01*
X124481394Y-90793112D01*
X124460000Y-90946990D01*
X123951992Y-90946990D01*
X123952000Y-90946921D01*
X123834087Y-90906770D01*
X123516646Y-90874587D01*
X123054120Y-90854623D01*
X122713750Y-90850236D01*
X122024917Y-90833843D01*
X121484802Y-90774601D01*
X120989111Y-90652097D01*
X120433555Y-90445918D01*
X120245205Y-90367071D01*
X120081746Y-90365186D01*
X119916006Y-90535148D01*
X119751079Y-90826215D01*
X119526130Y-91231068D01*
X119226285Y-91723342D01*
X118973537Y-92110954D01*
X118598165Y-92777098D01*
X118359073Y-93442243D01*
X118271700Y-94047094D01*
X117210114Y-94047094D01*
X117193325Y-93689525D01*
X117281953Y-93196107D01*
X117399700Y-92845555D01*
X117622112Y-92316978D01*
X118384182Y-92316978D01*
X118392869Y-92453232D01*
X118500084Y-92388310D01*
X118696018Y-92128291D01*
X118970862Y-91679256D01*
X119314806Y-91047284D01*
X119323023Y-91031471D01*
X119500939Y-90648274D01*
X119613480Y-90328057D01*
X119634000Y-90208858D01*
X119581965Y-90096983D01*
X119444464Y-90176258D01*
X119249401Y-90410535D01*
X119024680Y-90763669D01*
X118798205Y-91199513D01*
X118701627Y-91416621D01*
X118483831Y-91973467D01*
X118384182Y-92316978D01*
X117622112Y-92316978D01*
X117699060Y-92134107D01*
X118049888Y-91438047D01*
X118414560Y-90824000D01*
X118755456Y-90358591D01*
X118877870Y-90227875D01*
X119244183Y-89876925D01*
X118552720Y-89130063D01*
X118156534Y-88652041D01*
X117782839Y-88117087D01*
X117512810Y-87641539D01*
X117194793Y-86964648D01*
X117671885Y-86964648D01*
X117732321Y-87233646D01*
X117946417Y-87644930D01*
X118058426Y-87840962D01*
X118663520Y-88661307D01*
X119445339Y-89361449D01*
X120353126Y-89914778D01*
X121336121Y-90294687D01*
X122343567Y-90474565D01*
X123063000Y-90464514D01*
X123442332Y-90418779D01*
X123721386Y-90373995D01*
X123780369Y-90359948D01*
X123833713Y-90241312D01*
X123796408Y-89932032D01*
X123665657Y-89411409D01*
X123640081Y-89321678D01*
X123389220Y-88451006D01*
X123796195Y-88451006D01*
X123833929Y-88805901D01*
X123967468Y-89323763D01*
X124015738Y-89491117D01*
X124138755Y-89884818D01*
X124242769Y-90084273D01*
X124373242Y-90140920D01*
X124562286Y-90109510D01*
X124865749Y-89992451D01*
X125264426Y-89786369D01*
X125498028Y-89646008D01*
X126356777Y-88959933D01*
X127057981Y-88118457D01*
X127579537Y-87164789D01*
X127899344Y-86142142D01*
X127995301Y-85093728D01*
X127978580Y-84796284D01*
X127932709Y-84387740D01*
X127883141Y-84093140D01*
X127849703Y-83992370D01*
X127707600Y-83995537D01*
X127382390Y-84057440D01*
X126934837Y-84165799D01*
X126759070Y-84212828D01*
X125730000Y-84494848D01*
X125730000Y-85222422D01*
X125608489Y-86080021D01*
X125257768Y-86853333D01*
X124698553Y-87503378D01*
X124391833Y-87740272D01*
X124061747Y-87980576D01*
X123867667Y-88196693D01*
X123796195Y-88451006D01*
X123389220Y-88451006D01*
X123353923Y-88328500D01*
X122535597Y-88256906D01*
X121615841Y-88066876D01*
X120843650Y-87670317D01*
X120217947Y-87066668D01*
X120192633Y-87033860D01*
X119951504Y-86701246D01*
X119780288Y-86435422D01*
X119734078Y-86342736D01*
X119642711Y-86279379D01*
X119410064Y-86291058D01*
X118999010Y-86382461D01*
X118638913Y-86481045D01*
X118102544Y-86641379D01*
X117787747Y-86784903D01*
X117671885Y-86964648D01*
X117194793Y-86964648D01*
X117164362Y-86899877D01*
X116271931Y-87143362D01*
X115799002Y-87273190D01*
X115401848Y-87383644D01*
X115163199Y-87451706D01*
X115157250Y-87453482D01*
X114969300Y-87437603D01*
X114935000Y-87347398D01*
X115049267Y-87213052D01*
X115347936Y-87073710D01*
X115538250Y-87015510D01*
X116010828Y-86890758D01*
X116468173Y-86769937D01*
X116593441Y-86736820D01*
X117045383Y-86617300D01*
X116991087Y-85481652D01*
X116983755Y-85117743D01*
X117349734Y-85117743D01*
X117364770Y-85586119D01*
X117402237Y-86014160D01*
X117453713Y-86334900D01*
X117510776Y-86481376D01*
X117521562Y-86483978D01*
X117642138Y-86449520D01*
X117948666Y-86360340D01*
X118383384Y-86233260D01*
X118554500Y-86183127D01*
X118689951Y-86143421D01*
X119892780Y-86143421D01*
X120176140Y-86648229D01*
X120499518Y-87069936D01*
X120959461Y-87489678D01*
X121453365Y-87819965D01*
X121666000Y-87918638D01*
X121893994Y-87960619D01*
X122276486Y-87991266D01*
X122571084Y-88000973D01*
X123285668Y-88011000D01*
X122906597Y-86697128D01*
X122534050Y-85405872D01*
X122880782Y-85405872D01*
X122933742Y-85687498D01*
X123026419Y-85985887D01*
X123160647Y-86434146D01*
X123308190Y-86937921D01*
X123315518Y-86963250D01*
X123450543Y-87402985D01*
X123565486Y-87728458D01*
X123638864Y-87879849D01*
X123646184Y-87884000D01*
X123793020Y-87831110D01*
X124053556Y-87704838D01*
X124639628Y-87266827D01*
X125117531Y-86651959D01*
X125441498Y-85929593D01*
X125547095Y-85441438D01*
X125579499Y-85047645D01*
X125535438Y-84803661D01*
X125378297Y-84694215D01*
X125071462Y-84704038D01*
X124578317Y-84817858D01*
X124262309Y-84905622D01*
X123746579Y-85052975D01*
X123316479Y-85177441D01*
X123035835Y-85260477D01*
X122972351Y-85280377D01*
X122880782Y-85405872D01*
X122534050Y-85405872D01*
X122527525Y-85383257D01*
X121210152Y-85763339D01*
X119892780Y-86143421D01*
X118689951Y-86143421D01*
X119570500Y-85885298D01*
X119529077Y-85426422D01*
X119535178Y-85329863D01*
X119767316Y-85329863D01*
X119788151Y-85573413D01*
X119895462Y-85696984D01*
X120126619Y-85712376D01*
X120518994Y-85631388D01*
X121109957Y-85465819D01*
X121268769Y-85419669D01*
X121749088Y-85276013D01*
X122127182Y-85155381D01*
X122343492Y-85077083D01*
X122371073Y-85062260D01*
X122363567Y-84924353D01*
X122298155Y-84607585D01*
X122192185Y-84175690D01*
X122063004Y-83692401D01*
X121927962Y-83221454D01*
X121804407Y-82826581D01*
X121709687Y-82571517D01*
X121677867Y-82515584D01*
X121521327Y-82518267D01*
X121249416Y-82666928D01*
X120916563Y-82918646D01*
X120577200Y-83230501D01*
X120285759Y-83559571D01*
X120196672Y-83683559D01*
X119921637Y-84271089D01*
X119795585Y-84954536D01*
X119767316Y-85329863D01*
X119535178Y-85329863D01*
X119576099Y-84682314D01*
X119822774Y-83924584D01*
X120235750Y-83240723D01*
X120458179Y-82989136D01*
X120811780Y-82675172D01*
X121151105Y-82438412D01*
X121284251Y-82377513D01*
X122047000Y-82377513D01*
X122079586Y-82550042D01*
X122165445Y-82888284D01*
X122286723Y-83330668D01*
X122425568Y-83815623D01*
X122564129Y-84281577D01*
X122684553Y-84666961D01*
X122768987Y-84910202D01*
X122796646Y-84963000D01*
X122934604Y-84932075D01*
X123263243Y-84848648D01*
X123728106Y-84726737D01*
X124100186Y-84627412D01*
X124685460Y-84454662D01*
X125104875Y-84298487D01*
X125324447Y-84172444D01*
X125349000Y-84129285D01*
X125254787Y-83867320D01*
X125009609Y-83520093D01*
X124669655Y-83149319D01*
X124291114Y-82816716D01*
X123952000Y-82594878D01*
X123610928Y-82464880D01*
X123188767Y-82363680D01*
X122753688Y-82299058D01*
X122373863Y-82278792D01*
X122117463Y-82310661D01*
X122047000Y-82377513D01*
X121284251Y-82377513D01*
X121348382Y-82348181D01*
X121572104Y-82240346D01*
X121623677Y-82114891D01*
X121562454Y-81921494D01*
X121458744Y-81562767D01*
X121343218Y-81146310D01*
X121216496Y-80713628D01*
X121102458Y-80380249D01*
X121057635Y-80284779D01*
X121480108Y-80284779D01*
X121544165Y-80626513D01*
X121667684Y-81102916D01*
X121942458Y-82105544D01*
X122496458Y-82061482D01*
X123231544Y-82115398D01*
X123964859Y-82365556D01*
X124632201Y-82774078D01*
X125169370Y-83303087D01*
X125475670Y-83819203D01*
X125587843Y-84078555D01*
X125648532Y-84197174D01*
X125650157Y-84197978D01*
X125770343Y-84163164D01*
X126076378Y-84073024D01*
X126510626Y-83944554D01*
X126682500Y-83893601D01*
X127198109Y-83735385D01*
X127500109Y-83600613D01*
X127617255Y-83436724D01*
X127578299Y-83191158D01*
X127411994Y-82811353D01*
X127348050Y-82677000D01*
X126932153Y-82022302D01*
X126336322Y-81375307D01*
X125628394Y-80799627D01*
X124876205Y-80358874D01*
X124875776Y-80358673D01*
X124384254Y-80147753D01*
X123948181Y-80018553D01*
X123462062Y-79947624D01*
X122872500Y-79913400D01*
X122344073Y-79906587D01*
X121903453Y-79924480D01*
X121618798Y-79963325D01*
X121561205Y-79985614D01*
X121487389Y-80087944D01*
X121480108Y-80284779D01*
X121057635Y-80284779D01*
X121028951Y-80223685D01*
X120857057Y-80204789D01*
X120540008Y-80312564D01*
X120133433Y-80518113D01*
X119692962Y-80792540D01*
X119274225Y-81106947D01*
X119190413Y-81178727D01*
X118407006Y-82023912D01*
X117828151Y-82986461D01*
X117470261Y-84031253D01*
X117349734Y-85117743D01*
X116983755Y-85117743D01*
X116977347Y-84799743D01*
X117019617Y-84252406D01*
X117130146Y-83724014D01*
X117204894Y-83463332D01*
X117612559Y-82496230D01*
X118207071Y-81599434D01*
X118943842Y-80822784D01*
X119778284Y-80216121D01*
X120364250Y-79931730D01*
X120686025Y-79789622D01*
X120879142Y-79671959D01*
X120904000Y-79636973D01*
X120870722Y-79484101D01*
X120781995Y-79149629D01*
X120654477Y-78695505D01*
X120601285Y-78511227D01*
X120456945Y-77981028D01*
X120395200Y-77654759D01*
X120411523Y-77497759D01*
X120465273Y-77470000D01*
X120588736Y-77583830D01*
G37*
X120588736Y-77583830D02*
X120733112Y-77883725D01*
X120837954Y-78200250D01*
X121007952Y-78794044D01*
X121131078Y-79183839D01*
X121227378Y-79410658D01*
X121316897Y-79515530D01*
X121419682Y-79539479D01*
X121489168Y-79533017D01*
X121729953Y-79515937D01*
X122140375Y-79501213D01*
X122636074Y-79491788D01*
X122687993Y-79491241D01*
X123841488Y-79602552D01*
X124934748Y-79944694D01*
X125933977Y-80495877D01*
X126805380Y-81234312D01*
X127515161Y-82138208D01*
X127893079Y-82847144D01*
X128055136Y-83183622D01*
X128183797Y-83398029D01*
X128228915Y-83439000D01*
X128377813Y-83407593D01*
X128708328Y-83324102D01*
X129157401Y-83204618D01*
X129303447Y-83164808D01*
X129775918Y-83047503D01*
X130150680Y-82977180D01*
X130364391Y-82964966D01*
X130387641Y-82974308D01*
X130429011Y-83063896D01*
X130341128Y-83153922D01*
X130090423Y-83260699D01*
X129643325Y-83400538D01*
X129323815Y-83491251D01*
X128333500Y-83767300D01*
X128377856Y-84725604D01*
X128321145Y-85894954D01*
X128054295Y-87013843D01*
X127596354Y-88044232D01*
X126966368Y-88948083D01*
X126183384Y-89687359D01*
X125747097Y-89979500D01*
X125390700Y-90223078D01*
X125156556Y-90449077D01*
X125097520Y-90572362D01*
X125049159Y-90886211D01*
X125017912Y-90985112D01*
X125014901Y-91112714D01*
X125167906Y-91175321D01*
X125494162Y-91194595D01*
X125786858Y-91210949D01*
X125867883Y-91254514D01*
X125726890Y-91335452D01*
X125353530Y-91463929D01*
X125158500Y-91524307D01*
X124928819Y-91625921D01*
X124813273Y-91792634D01*
X124794424Y-92084652D01*
X124854835Y-92562181D01*
X124855925Y-92569000D01*
X124839694Y-92820443D01*
X124755542Y-92925569D01*
X124624811Y-92861702D01*
X124558936Y-92685569D01*
X124517740Y-92532474D01*
X124450205Y-92560538D01*
X124325368Y-92793186D01*
X124274848Y-92900500D01*
X124133139Y-93315965D01*
X124047152Y-93791575D01*
X124018607Y-94260451D01*
X124049219Y-94655712D01*
X124140709Y-94910481D01*
X124221749Y-94967402D01*
X124456241Y-94901271D01*
X124759225Y-94666476D01*
X125077819Y-94317477D01*
X125359140Y-93908733D01*
X125483293Y-93668216D01*
X125631000Y-93381231D01*
X125708501Y-93312378D01*
X125708872Y-93433796D01*
X125625189Y-93717626D01*
X125546001Y-93920529D01*
X125230393Y-94510109D01*
X124829100Y-95018589D01*
X124389937Y-95399611D01*
X123960716Y-95606815D01*
X123781876Y-95631000D01*
X123554949Y-95555766D01*
X123310557Y-95397320D01*
X123060627Y-95045562D01*
X122947237Y-94623198D01*
X122872500Y-94082756D01*
X122518855Y-94361552D01*
X122060964Y-94608028D01*
X121543398Y-94712193D01*
X121033267Y-94680622D01*
X120597678Y-94519889D01*
X120303740Y-94236568D01*
X120257407Y-94140009D01*
X120193706Y-93865918D01*
X120212086Y-93715342D01*
X120240325Y-93604476D01*
X120226234Y-93599000D01*
X120132189Y-93696766D01*
X119949038Y-93949497D01*
X119778209Y-94207181D01*
X119279053Y-94845447D01*
X118760967Y-95236290D01*
X118228136Y-95376612D01*
X118198325Y-95377000D01*
X117760832Y-95282139D01*
X117453280Y-94988229D01*
X117263932Y-94481282D01*
X117217672Y-94208063D01*
X117210114Y-94047094D01*
X118271700Y-94047094D01*
X118346369Y-94519750D01*
X118466107Y-94768376D01*
X118605572Y-94847816D01*
X118834852Y-94767480D01*
X119089167Y-94619483D01*
X119545558Y-94222472D01*
X119943430Y-93657245D01*
X120224683Y-93009585D01*
X120257507Y-92894451D01*
X120294812Y-92807888D01*
X121343470Y-92807888D01*
X121353324Y-92971806D01*
X121469390Y-93037130D01*
X121644255Y-92893856D01*
X121685555Y-92844387D01*
X121828948Y-92599144D01*
X121840407Y-92429961D01*
X121705880Y-92412930D01*
X121508175Y-92557379D01*
X121343470Y-92807888D01*
X120294812Y-92807888D01*
X120444906Y-92459615D01*
X120730710Y-92058936D01*
X120780996Y-92007670D01*
X121170044Y-91634939D01*
X121640272Y-91886719D01*
X122023405Y-92200365D01*
X122168478Y-92585587D01*
X122070380Y-93012719D01*
X121881904Y-93289416D01*
X121575972Y-93645084D01*
X121341067Y-93370734D01*
X121145325Y-93196544D01*
X121018893Y-93235265D01*
X121007025Y-93252442D01*
X120909221Y-93622560D01*
X121034328Y-94011118D01*
X121206445Y-94219856D01*
X121428121Y-94400165D01*
X121621034Y-94431471D01*
X121908341Y-94330336D01*
X121936695Y-94318063D01*
X122480895Y-94001438D01*
X122872384Y-93566967D01*
X123154297Y-92959915D01*
X123245974Y-92656765D01*
X123288502Y-92493941D01*
X124051909Y-92493941D01*
X124059784Y-92642107D01*
X124082989Y-92644034D01*
X124180693Y-92485776D01*
X124271203Y-92194235D01*
X124271814Y-92191462D01*
X124321868Y-91857756D01*
X124292361Y-91754109D01*
X124209645Y-91879716D01*
X124109365Y-92196430D01*
X124051909Y-92493941D01*
X123288502Y-92493941D01*
X123363093Y-92208363D01*
X123411053Y-91938986D01*
X123389315Y-91783107D01*
X123297343Y-91675194D01*
X123237533Y-91628330D01*
X123077355Y-91492535D01*
X123134912Y-91449125D01*
X123276178Y-91444039D01*
X123554941Y-91364012D01*
X123814069Y-91182645D01*
X123948941Y-90976895D01*
X123951992Y-90946990D01*
X124460000Y-90946990D01*
X124510104Y-91117827D01*
X124587000Y-91122500D01*
X124692605Y-90943887D01*
X124714000Y-90790009D01*
X124663895Y-90619172D01*
X124587000Y-90614500D01*
X124481394Y-90793112D01*
X124460000Y-90946990D01*
X123951992Y-90946990D01*
X123952000Y-90946921D01*
X123834087Y-90906770D01*
X123516646Y-90874587D01*
X123054120Y-90854623D01*
X122713750Y-90850236D01*
X122024917Y-90833843D01*
X121484802Y-90774601D01*
X120989111Y-90652097D01*
X120433555Y-90445918D01*
X120245205Y-90367071D01*
X120081746Y-90365186D01*
X119916006Y-90535148D01*
X119751079Y-90826215D01*
X119526130Y-91231068D01*
X119226285Y-91723342D01*
X118973537Y-92110954D01*
X118598165Y-92777098D01*
X118359073Y-93442243D01*
X118271700Y-94047094D01*
X117210114Y-94047094D01*
X117193325Y-93689525D01*
X117281953Y-93196107D01*
X117399700Y-92845555D01*
X117622112Y-92316978D01*
X118384182Y-92316978D01*
X118392869Y-92453232D01*
X118500084Y-92388310D01*
X118696018Y-92128291D01*
X118970862Y-91679256D01*
X119314806Y-91047284D01*
X119323023Y-91031471D01*
X119500939Y-90648274D01*
X119613480Y-90328057D01*
X119634000Y-90208858D01*
X119581965Y-90096983D01*
X119444464Y-90176258D01*
X119249401Y-90410535D01*
X119024680Y-90763669D01*
X118798205Y-91199513D01*
X118701627Y-91416621D01*
X118483831Y-91973467D01*
X118384182Y-92316978D01*
X117622112Y-92316978D01*
X117699060Y-92134107D01*
X118049888Y-91438047D01*
X118414560Y-90824000D01*
X118755456Y-90358591D01*
X118877870Y-90227875D01*
X119244183Y-89876925D01*
X118552720Y-89130063D01*
X118156534Y-88652041D01*
X117782839Y-88117087D01*
X117512810Y-87641539D01*
X117194793Y-86964648D01*
X117671885Y-86964648D01*
X117732321Y-87233646D01*
X117946417Y-87644930D01*
X118058426Y-87840962D01*
X118663520Y-88661307D01*
X119445339Y-89361449D01*
X120353126Y-89914778D01*
X121336121Y-90294687D01*
X122343567Y-90474565D01*
X123063000Y-90464514D01*
X123442332Y-90418779D01*
X123721386Y-90373995D01*
X123780369Y-90359948D01*
X123833713Y-90241312D01*
X123796408Y-89932032D01*
X123665657Y-89411409D01*
X123640081Y-89321678D01*
X123389220Y-88451006D01*
X123796195Y-88451006D01*
X123833929Y-88805901D01*
X123967468Y-89323763D01*
X124015738Y-89491117D01*
X124138755Y-89884818D01*
X124242769Y-90084273D01*
X124373242Y-90140920D01*
X124562286Y-90109510D01*
X124865749Y-89992451D01*
X125264426Y-89786369D01*
X125498028Y-89646008D01*
X126356777Y-88959933D01*
X127057981Y-88118457D01*
X127579537Y-87164789D01*
X127899344Y-86142142D01*
X127995301Y-85093728D01*
X127978580Y-84796284D01*
X127932709Y-84387740D01*
X127883141Y-84093140D01*
X127849703Y-83992370D01*
X127707600Y-83995537D01*
X127382390Y-84057440D01*
X126934837Y-84165799D01*
X126759070Y-84212828D01*
X125730000Y-84494848D01*
X125730000Y-85222422D01*
X125608489Y-86080021D01*
X125257768Y-86853333D01*
X124698553Y-87503378D01*
X124391833Y-87740272D01*
X124061747Y-87980576D01*
X123867667Y-88196693D01*
X123796195Y-88451006D01*
X123389220Y-88451006D01*
X123353923Y-88328500D01*
X122535597Y-88256906D01*
X121615841Y-88066876D01*
X120843650Y-87670317D01*
X120217947Y-87066668D01*
X120192633Y-87033860D01*
X119951504Y-86701246D01*
X119780288Y-86435422D01*
X119734078Y-86342736D01*
X119642711Y-86279379D01*
X119410064Y-86291058D01*
X118999010Y-86382461D01*
X118638913Y-86481045D01*
X118102544Y-86641379D01*
X117787747Y-86784903D01*
X117671885Y-86964648D01*
X117194793Y-86964648D01*
X117164362Y-86899877D01*
X116271931Y-87143362D01*
X115799002Y-87273190D01*
X115401848Y-87383644D01*
X115163199Y-87451706D01*
X115157250Y-87453482D01*
X114969300Y-87437603D01*
X114935000Y-87347398D01*
X115049267Y-87213052D01*
X115347936Y-87073710D01*
X115538250Y-87015510D01*
X116010828Y-86890758D01*
X116468173Y-86769937D01*
X116593441Y-86736820D01*
X117045383Y-86617300D01*
X116991087Y-85481652D01*
X116983755Y-85117743D01*
X117349734Y-85117743D01*
X117364770Y-85586119D01*
X117402237Y-86014160D01*
X117453713Y-86334900D01*
X117510776Y-86481376D01*
X117521562Y-86483978D01*
X117642138Y-86449520D01*
X117948666Y-86360340D01*
X118383384Y-86233260D01*
X118554500Y-86183127D01*
X118689951Y-86143421D01*
X119892780Y-86143421D01*
X120176140Y-86648229D01*
X120499518Y-87069936D01*
X120959461Y-87489678D01*
X121453365Y-87819965D01*
X121666000Y-87918638D01*
X121893994Y-87960619D01*
X122276486Y-87991266D01*
X122571084Y-88000973D01*
X123285668Y-88011000D01*
X122906597Y-86697128D01*
X122534050Y-85405872D01*
X122880782Y-85405872D01*
X122933742Y-85687498D01*
X123026419Y-85985887D01*
X123160647Y-86434146D01*
X123308190Y-86937921D01*
X123315518Y-86963250D01*
X123450543Y-87402985D01*
X123565486Y-87728458D01*
X123638864Y-87879849D01*
X123646184Y-87884000D01*
X123793020Y-87831110D01*
X124053556Y-87704838D01*
X124639628Y-87266827D01*
X125117531Y-86651959D01*
X125441498Y-85929593D01*
X125547095Y-85441438D01*
X125579499Y-85047645D01*
X125535438Y-84803661D01*
X125378297Y-84694215D01*
X125071462Y-84704038D01*
X124578317Y-84817858D01*
X124262309Y-84905622D01*
X123746579Y-85052975D01*
X123316479Y-85177441D01*
X123035835Y-85260477D01*
X122972351Y-85280377D01*
X122880782Y-85405872D01*
X122534050Y-85405872D01*
X122527525Y-85383257D01*
X121210152Y-85763339D01*
X119892780Y-86143421D01*
X118689951Y-86143421D01*
X119570500Y-85885298D01*
X119529077Y-85426422D01*
X119535178Y-85329863D01*
X119767316Y-85329863D01*
X119788151Y-85573413D01*
X119895462Y-85696984D01*
X120126619Y-85712376D01*
X120518994Y-85631388D01*
X121109957Y-85465819D01*
X121268769Y-85419669D01*
X121749088Y-85276013D01*
X122127182Y-85155381D01*
X122343492Y-85077083D01*
X122371073Y-85062260D01*
X122363567Y-84924353D01*
X122298155Y-84607585D01*
X122192185Y-84175690D01*
X122063004Y-83692401D01*
X121927962Y-83221454D01*
X121804407Y-82826581D01*
X121709687Y-82571517D01*
X121677867Y-82515584D01*
X121521327Y-82518267D01*
X121249416Y-82666928D01*
X120916563Y-82918646D01*
X120577200Y-83230501D01*
X120285759Y-83559571D01*
X120196672Y-83683559D01*
X119921637Y-84271089D01*
X119795585Y-84954536D01*
X119767316Y-85329863D01*
X119535178Y-85329863D01*
X119576099Y-84682314D01*
X119822774Y-83924584D01*
X120235750Y-83240723D01*
X120458179Y-82989136D01*
X120811780Y-82675172D01*
X121151105Y-82438412D01*
X121284251Y-82377513D01*
X122047000Y-82377513D01*
X122079586Y-82550042D01*
X122165445Y-82888284D01*
X122286723Y-83330668D01*
X122425568Y-83815623D01*
X122564129Y-84281577D01*
X122684553Y-84666961D01*
X122768987Y-84910202D01*
X122796646Y-84963000D01*
X122934604Y-84932075D01*
X123263243Y-84848648D01*
X123728106Y-84726737D01*
X124100186Y-84627412D01*
X124685460Y-84454662D01*
X125104875Y-84298487D01*
X125324447Y-84172444D01*
X125349000Y-84129285D01*
X125254787Y-83867320D01*
X125009609Y-83520093D01*
X124669655Y-83149319D01*
X124291114Y-82816716D01*
X123952000Y-82594878D01*
X123610928Y-82464880D01*
X123188767Y-82363680D01*
X122753688Y-82299058D01*
X122373863Y-82278792D01*
X122117463Y-82310661D01*
X122047000Y-82377513D01*
X121284251Y-82377513D01*
X121348382Y-82348181D01*
X121572104Y-82240346D01*
X121623677Y-82114891D01*
X121562454Y-81921494D01*
X121458744Y-81562767D01*
X121343218Y-81146310D01*
X121216496Y-80713628D01*
X121102458Y-80380249D01*
X121057635Y-80284779D01*
X121480108Y-80284779D01*
X121544165Y-80626513D01*
X121667684Y-81102916D01*
X121942458Y-82105544D01*
X122496458Y-82061482D01*
X123231544Y-82115398D01*
X123964859Y-82365556D01*
X124632201Y-82774078D01*
X125169370Y-83303087D01*
X125475670Y-83819203D01*
X125587843Y-84078555D01*
X125648532Y-84197174D01*
X125650157Y-84197978D01*
X125770343Y-84163164D01*
X126076378Y-84073024D01*
X126510626Y-83944554D01*
X126682500Y-83893601D01*
X127198109Y-83735385D01*
X127500109Y-83600613D01*
X127617255Y-83436724D01*
X127578299Y-83191158D01*
X127411994Y-82811353D01*
X127348050Y-82677000D01*
X126932153Y-82022302D01*
X126336322Y-81375307D01*
X125628394Y-80799627D01*
X124876205Y-80358874D01*
X124875776Y-80358673D01*
X124384254Y-80147753D01*
X123948181Y-80018553D01*
X123462062Y-79947624D01*
X122872500Y-79913400D01*
X122344073Y-79906587D01*
X121903453Y-79924480D01*
X121618798Y-79963325D01*
X121561205Y-79985614D01*
X121487389Y-80087944D01*
X121480108Y-80284779D01*
X121057635Y-80284779D01*
X121028951Y-80223685D01*
X120857057Y-80204789D01*
X120540008Y-80312564D01*
X120133433Y-80518113D01*
X119692962Y-80792540D01*
X119274225Y-81106947D01*
X119190413Y-81178727D01*
X118407006Y-82023912D01*
X117828151Y-82986461D01*
X117470261Y-84031253D01*
X117349734Y-85117743D01*
X116983755Y-85117743D01*
X116977347Y-84799743D01*
X117019617Y-84252406D01*
X117130146Y-83724014D01*
X117204894Y-83463332D01*
X117612559Y-82496230D01*
X118207071Y-81599434D01*
X118943842Y-80822784D01*
X119778284Y-80216121D01*
X120364250Y-79931730D01*
X120686025Y-79789622D01*
X120879142Y-79671959D01*
X120904000Y-79636973D01*
X120870722Y-79484101D01*
X120781995Y-79149629D01*
X120654477Y-78695505D01*
X120601285Y-78511227D01*
X120456945Y-77981028D01*
X120395200Y-77654759D01*
X120411523Y-77497759D01*
X120465273Y-77470000D01*
X120588736Y-77583830D01*
G36*
X110239816Y-90203845D02*
G01*
X110414282Y-90264295D01*
X110526565Y-90351708D01*
X110730011Y-90710773D01*
X110716475Y-91124687D01*
X110504285Y-91552666D01*
X110111768Y-91953923D01*
X109684245Y-92226225D01*
X109156500Y-92497365D01*
X109565355Y-92665957D01*
X109911809Y-92896141D01*
X110169100Y-93211426D01*
X110285503Y-93485388D01*
X110281242Y-93714957D01*
X110153048Y-94030640D01*
X110148337Y-94040534D01*
X109780018Y-94521445D01*
X109181776Y-94910593D01*
X108362317Y-95203234D01*
X107787926Y-95327081D01*
X107280683Y-95433666D01*
X106854359Y-95555922D01*
X106584984Y-95671181D01*
X106551683Y-95695691D01*
X106318584Y-95864106D01*
X106169845Y-95837741D01*
X106110469Y-95761186D01*
X105946024Y-95700421D01*
X105618868Y-95698638D01*
X105467974Y-95714949D01*
X105130893Y-95744884D01*
X104928318Y-95731480D01*
X104902000Y-95710378D01*
X104951825Y-95556558D01*
X105078628Y-95257180D01*
X105166801Y-95064890D01*
X105347411Y-94721791D01*
X105524570Y-94548758D01*
X105786431Y-94478948D01*
X105960551Y-94463024D01*
X106087542Y-94443451D01*
X107061000Y-94443451D01*
X107176179Y-94488443D01*
X107486998Y-94482328D01*
X107941381Y-94430146D01*
X108487251Y-94336934D01*
X108771890Y-94277910D01*
X109284799Y-94151730D01*
X109584222Y-94029998D01*
X109708102Y-93881118D01*
X109694384Y-93673489D01*
X109690641Y-93662500D01*
X109855000Y-93662500D01*
X109918500Y-93726000D01*
X109982000Y-93662500D01*
X109918500Y-93599000D01*
X109855000Y-93662500D01*
X109690641Y-93662500D01*
X109650912Y-93545887D01*
X109540239Y-93428909D01*
X109287191Y-93365961D01*
X108839916Y-93345215D01*
X108770180Y-93345000D01*
X108124366Y-93373008D01*
X107681498Y-93469698D01*
X107395429Y-93654066D01*
X107220012Y-93945107D01*
X107203585Y-93989882D01*
X107107457Y-94277352D01*
X107061632Y-94437441D01*
X107061000Y-94443451D01*
X106087542Y-94443451D01*
X106322787Y-94407193D01*
X106540506Y-94261904D01*
X106709359Y-93983959D01*
X106842535Y-93617240D01*
X106804609Y-93418809D01*
X106680897Y-93149265D01*
X106767238Y-92877241D01*
X106993912Y-92711364D01*
X107167550Y-92578395D01*
X107796620Y-92578395D01*
X108540060Y-92322634D01*
X109055109Y-92132042D01*
X109570065Y-91920528D01*
X109829111Y-91802770D01*
X110191892Y-91586474D01*
X110304624Y-91413183D01*
X110168145Y-91287513D01*
X109783297Y-91214080D01*
X109720988Y-91209036D01*
X109015368Y-91210830D01*
X108502730Y-91346603D01*
X108149619Y-91635263D01*
X107922580Y-92095715D01*
X107879049Y-92249969D01*
X107796620Y-92578395D01*
X107167550Y-92578395D01*
X107219276Y-92538785D01*
X107435601Y-92242838D01*
X107594514Y-91912390D01*
X107647643Y-91636310D01*
X107624161Y-91553508D01*
X107452814Y-91458350D01*
X107307504Y-91440000D01*
X107116984Y-91343621D01*
X107060380Y-91103105D01*
X107139706Y-90791384D01*
X107283250Y-90562422D01*
X107412351Y-90439874D01*
X107596230Y-90354212D01*
X107886025Y-90294432D01*
X108332877Y-90249532D01*
X108907315Y-90212989D01*
X109537001Y-90182533D01*
X109964279Y-90178038D01*
X110239816Y-90203845D01*
G37*
X110239816Y-90203845D02*
X110414282Y-90264295D01*
X110526565Y-90351708D01*
X110730011Y-90710773D01*
X110716475Y-91124687D01*
X110504285Y-91552666D01*
X110111768Y-91953923D01*
X109684245Y-92226225D01*
X109156500Y-92497365D01*
X109565355Y-92665957D01*
X109911809Y-92896141D01*
X110169100Y-93211426D01*
X110285503Y-93485388D01*
X110281242Y-93714957D01*
X110153048Y-94030640D01*
X110148337Y-94040534D01*
X109780018Y-94521445D01*
X109181776Y-94910593D01*
X108362317Y-95203234D01*
X107787926Y-95327081D01*
X107280683Y-95433666D01*
X106854359Y-95555922D01*
X106584984Y-95671181D01*
X106551683Y-95695691D01*
X106318584Y-95864106D01*
X106169845Y-95837741D01*
X106110469Y-95761186D01*
X105946024Y-95700421D01*
X105618868Y-95698638D01*
X105467974Y-95714949D01*
X105130893Y-95744884D01*
X104928318Y-95731480D01*
X104902000Y-95710378D01*
X104951825Y-95556558D01*
X105078628Y-95257180D01*
X105166801Y-95064890D01*
X105347411Y-94721791D01*
X105524570Y-94548758D01*
X105786431Y-94478948D01*
X105960551Y-94463024D01*
X106087542Y-94443451D01*
X107061000Y-94443451D01*
X107176179Y-94488443D01*
X107486998Y-94482328D01*
X107941381Y-94430146D01*
X108487251Y-94336934D01*
X108771890Y-94277910D01*
X109284799Y-94151730D01*
X109584222Y-94029998D01*
X109708102Y-93881118D01*
X109694384Y-93673489D01*
X109690641Y-93662500D01*
X109855000Y-93662500D01*
X109918500Y-93726000D01*
X109982000Y-93662500D01*
X109918500Y-93599000D01*
X109855000Y-93662500D01*
X109690641Y-93662500D01*
X109650912Y-93545887D01*
X109540239Y-93428909D01*
X109287191Y-93365961D01*
X108839916Y-93345215D01*
X108770180Y-93345000D01*
X108124366Y-93373008D01*
X107681498Y-93469698D01*
X107395429Y-93654066D01*
X107220012Y-93945107D01*
X107203585Y-93989882D01*
X107107457Y-94277352D01*
X107061632Y-94437441D01*
X107061000Y-94443451D01*
X106087542Y-94443451D01*
X106322787Y-94407193D01*
X106540506Y-94261904D01*
X106709359Y-93983959D01*
X106842535Y-93617240D01*
X106804609Y-93418809D01*
X106680897Y-93149265D01*
X106767238Y-92877241D01*
X106993912Y-92711364D01*
X107167550Y-92578395D01*
X107796620Y-92578395D01*
X108540060Y-92322634D01*
X109055109Y-92132042D01*
X109570065Y-91920528D01*
X109829111Y-91802770D01*
X110191892Y-91586474D01*
X110304624Y-91413183D01*
X110168145Y-91287513D01*
X109783297Y-91214080D01*
X109720988Y-91209036D01*
X109015368Y-91210830D01*
X108502730Y-91346603D01*
X108149619Y-91635263D01*
X107922580Y-92095715D01*
X107879049Y-92249969D01*
X107796620Y-92578395D01*
X107167550Y-92578395D01*
X107219276Y-92538785D01*
X107435601Y-92242838D01*
X107594514Y-91912390D01*
X107647643Y-91636310D01*
X107624161Y-91553508D01*
X107452814Y-91458350D01*
X107307504Y-91440000D01*
X107116984Y-91343621D01*
X107060380Y-91103105D01*
X107139706Y-90791384D01*
X107283250Y-90562422D01*
X107412351Y-90439874D01*
X107596230Y-90354212D01*
X107886025Y-90294432D01*
X108332877Y-90249532D01*
X108907315Y-90212989D01*
X109537001Y-90182533D01*
X109964279Y-90178038D01*
X110239816Y-90203845D01*
D11*
X51377178Y-89903076D02*
X48377178Y-84706924D01*
X39252822Y-96903076D02*
X36252822Y-91706924D01*
X37716924Y-86242822D02*
X42913076Y-83242822D01*
X44716924Y-98367178D02*
X49913076Y-95367178D01*
X37252822Y-93438974D02*
X34252822Y-88242822D01*
X41252822Y-100367178D02*
X38252822Y-95171026D01*
X53377178Y-93367178D02*
X50377178Y-88171026D01*
X34252822Y-88242822D02*
X39448974Y-85242822D01*
X41181026Y-84242822D02*
X46377178Y-81242822D01*
X41252822Y-100367178D02*
X46448974Y-97367178D01*
X48181026Y-96367178D02*
X53377178Y-93367178D01*
X49377178Y-86438974D02*
X46377178Y-81242822D01*
X34867178Y-99428076D02*
X31867178Y-94231924D01*
X22742822Y-106428076D02*
X19742822Y-101231924D01*
X21206924Y-95767822D02*
X26403076Y-92767822D01*
X28206924Y-107892178D02*
X33403076Y-104892178D01*
X20742822Y-102963974D02*
X17742822Y-97767822D01*
X24742822Y-109892178D02*
X21742822Y-104696026D01*
X36867178Y-102892178D02*
X33867178Y-97696026D01*
X17742822Y-97767822D02*
X22938974Y-94767822D01*
X24671026Y-93767822D02*
X29867178Y-90767822D01*
X24742822Y-109892178D02*
X29938974Y-106892178D01*
X31671026Y-105892178D02*
X36867178Y-102892178D01*
X32867178Y-95963974D02*
X29867178Y-90767822D01*
D12*
X80630000Y-85725000D03*
X94630000Y-85725000D03*
D13*
X87630000Y-92725000D03*
X87630000Y-78725000D03*
D12*
X94630000Y-89725000D03*
X94630000Y-81725000D03*
X80630000Y-81725000D03*
D13*
X91630000Y-92725000D03*
X83630000Y-92725000D03*
X91630000Y-78725000D03*
X83630000Y-78725000D03*
D12*
X80630000Y-89725000D03*
D13*
X81915000Y-19035000D03*
X81915000Y-33035000D03*
D12*
X74915000Y-26035000D03*
X88915000Y-26035000D03*
D13*
X77915000Y-33035000D03*
X85915000Y-33035000D03*
X85915000Y-19035000D03*
D12*
X74915000Y-30035000D03*
X74915000Y-22035000D03*
X88915000Y-30035000D03*
X88915000Y-22035000D03*
D13*
X77915000Y-19035000D03*
X100965000Y-14590000D03*
X100965000Y-28590000D03*
D12*
X93965000Y-21590000D03*
X107965000Y-21590000D03*
D13*
X96965000Y-28590000D03*
X104965000Y-28590000D03*
X104965000Y-14590000D03*
D12*
X93965000Y-25590000D03*
X93965000Y-17590000D03*
X107965000Y-25590000D03*
X107965000Y-17590000D03*
D13*
X96965000Y-14590000D03*
X120015000Y-19035000D03*
X120015000Y-33035000D03*
D12*
X113015000Y-26035000D03*
X127015000Y-26035000D03*
D13*
X116015000Y-33035000D03*
X124015000Y-33035000D03*
X124015000Y-19035000D03*
D12*
X113015000Y-30035000D03*
X113015000Y-22035000D03*
X127015000Y-30035000D03*
X127015000Y-22035000D03*
D13*
X116015000Y-19035000D03*
X139065000Y-27925000D03*
X139065000Y-41925000D03*
D12*
X132065000Y-34925000D03*
X146065000Y-34925000D03*
D13*
X135065000Y-41925000D03*
X143065000Y-41925000D03*
X143065000Y-27925000D03*
D12*
X132065000Y-38925000D03*
X132065000Y-30925000D03*
X146065000Y-38925000D03*
X146065000Y-30925000D03*
D13*
X135065000Y-27925000D03*
X158115000Y-37450000D03*
X158115000Y-51450000D03*
D12*
X151115000Y-44450000D03*
X165115000Y-44450000D03*
D13*
X154115000Y-51450000D03*
X162115000Y-51450000D03*
X162115000Y-37450000D03*
D12*
X151115000Y-48450000D03*
X151115000Y-40450000D03*
X165115000Y-48450000D03*
X165115000Y-40450000D03*
D13*
X154115000Y-37450000D03*
X62865000Y-43165000D03*
X62865000Y-57165000D03*
D12*
X55865000Y-50165000D03*
X69865000Y-50165000D03*
D13*
X58865000Y-57165000D03*
X66865000Y-57165000D03*
X66865000Y-43165000D03*
D12*
X55865000Y-54165000D03*
X55865000Y-46165000D03*
X69865000Y-54165000D03*
X69865000Y-46165000D03*
D13*
X58865000Y-43165000D03*
X81915000Y-38085000D03*
X81915000Y-52085000D03*
D12*
X74915000Y-45085000D03*
X88915000Y-45085000D03*
D13*
X77915000Y-52085000D03*
X85915000Y-52085000D03*
X85915000Y-38085000D03*
D12*
X74915000Y-49085000D03*
X74915000Y-41085000D03*
X88915000Y-49085000D03*
X88915000Y-41085000D03*
D13*
X77915000Y-38085000D03*
X100965000Y-33640000D03*
X100965000Y-47640000D03*
D12*
X93965000Y-40640000D03*
X107965000Y-40640000D03*
D13*
X96965000Y-47640000D03*
X104965000Y-47640000D03*
X104965000Y-33640000D03*
D12*
X93965000Y-44640000D03*
X93965000Y-36640000D03*
X107965000Y-44640000D03*
X107965000Y-36640000D03*
D13*
X96965000Y-33640000D03*
X120015000Y-38085000D03*
X120015000Y-52085000D03*
D12*
X113015000Y-45085000D03*
X127015000Y-45085000D03*
D13*
X116015000Y-52085000D03*
X124015000Y-52085000D03*
X124015000Y-38085000D03*
D12*
X113015000Y-49085000D03*
X113015000Y-41085000D03*
X127015000Y-49085000D03*
X127015000Y-41085000D03*
D13*
X116015000Y-38085000D03*
X139065000Y-46975000D03*
X139065000Y-60975000D03*
D12*
X132065000Y-53975000D03*
X146065000Y-53975000D03*
D13*
X135065000Y-60975000D03*
X143065000Y-60975000D03*
X143065000Y-46975000D03*
D12*
X132065000Y-57975000D03*
X132065000Y-49975000D03*
X146065000Y-57975000D03*
X146065000Y-49975000D03*
D13*
X135065000Y-46975000D03*
X158115000Y-56500000D03*
X158115000Y-70500000D03*
D12*
X151115000Y-63500000D03*
X165115000Y-63500000D03*
D13*
X154115000Y-70500000D03*
X162115000Y-70500000D03*
X162115000Y-56500000D03*
D12*
X151115000Y-67500000D03*
X151115000Y-59500000D03*
X165115000Y-67500000D03*
X165115000Y-59500000D03*
D13*
X154115000Y-56500000D03*
X62865000Y-62215000D03*
X62865000Y-76215000D03*
D12*
X55865000Y-69215000D03*
X69865000Y-69215000D03*
D13*
X58865000Y-76215000D03*
X66865000Y-76215000D03*
X66865000Y-62215000D03*
D12*
X55865000Y-73215000D03*
X55865000Y-65215000D03*
X69865000Y-73215000D03*
X69865000Y-65215000D03*
D13*
X58865000Y-62215000D03*
X81915000Y-57135000D03*
X81915000Y-71135000D03*
D12*
X74915000Y-64135000D03*
X88915000Y-64135000D03*
D13*
X77915000Y-71135000D03*
X85915000Y-71135000D03*
X85915000Y-57135000D03*
D12*
X74915000Y-68135000D03*
X74915000Y-60135000D03*
X88915000Y-68135000D03*
X88915000Y-60135000D03*
D13*
X77915000Y-57135000D03*
X100965000Y-52690000D03*
X100965000Y-66690000D03*
D12*
X93965000Y-59690000D03*
X107965000Y-59690000D03*
D13*
X96965000Y-66690000D03*
X104965000Y-66690000D03*
X104965000Y-52690000D03*
D12*
X93965000Y-63690000D03*
X93965000Y-55690000D03*
X107965000Y-63690000D03*
X107965000Y-55690000D03*
D13*
X96965000Y-52690000D03*
X120015000Y-57135000D03*
X120015000Y-71135000D03*
D12*
X113015000Y-64135000D03*
X127015000Y-64135000D03*
D13*
X116015000Y-71135000D03*
X124015000Y-71135000D03*
X124015000Y-57135000D03*
D12*
X113015000Y-68135000D03*
X113015000Y-60135000D03*
X127015000Y-68135000D03*
X127015000Y-60135000D03*
D13*
X116015000Y-57135000D03*
X139065000Y-66025000D03*
X139065000Y-80025000D03*
D12*
X132065000Y-73025000D03*
X146065000Y-73025000D03*
D13*
X135065000Y-80025000D03*
X143065000Y-80025000D03*
X143065000Y-66025000D03*
D12*
X132065000Y-77025000D03*
X132065000Y-69025000D03*
X146065000Y-77025000D03*
X146065000Y-69025000D03*
D13*
X135065000Y-66025000D03*
X158115000Y-75550000D03*
X158115000Y-89550000D03*
D12*
X151115000Y-82550000D03*
X165115000Y-82550000D03*
D13*
X154115000Y-89550000D03*
X162115000Y-89550000D03*
X162115000Y-75550000D03*
D12*
X151115000Y-86550000D03*
X151115000Y-78550000D03*
X165115000Y-86550000D03*
X165115000Y-78550000D03*
D13*
X154115000Y-75550000D03*
X68580000Y-95265000D03*
X68580000Y-81265000D03*
D12*
X75580000Y-88265000D03*
X61580000Y-88265000D03*
D13*
X72580000Y-81265000D03*
X64580000Y-81265000D03*
X64580000Y-95265000D03*
D12*
X75580000Y-84265000D03*
X75580000Y-92265000D03*
X61580000Y-84265000D03*
X61580000Y-92265000D03*
D13*
X72580000Y-95265000D03*
X62865000Y-24115000D03*
X62865000Y-38115000D03*
D12*
X55865000Y-31115000D03*
X69865000Y-31115000D03*
D13*
X58865000Y-38115000D03*
X66865000Y-38115000D03*
X66865000Y-24115000D03*
D12*
X55865000Y-35115000D03*
X55865000Y-27115000D03*
X69865000Y-35115000D03*
X69865000Y-27115000D03*
D13*
X58865000Y-24115000D03*
D14*
X159281726Y-94083274D03*
X158115000Y-93600000D03*
X156948274Y-94083274D03*
X156465000Y-95250000D03*
X156948274Y-96416726D03*
X158115000Y-96900000D03*
X159281726Y-96416726D03*
X159765000Y-95250000D03*
D15*
X158115000Y-95250000D03*
D14*
X17676726Y-105513274D03*
X16510000Y-105030000D03*
X15343274Y-105513274D03*
X14860000Y-106680000D03*
X15343274Y-107846726D03*
X16510000Y-108330000D03*
X17676726Y-107846726D03*
X18160000Y-106680000D03*
D15*
X16510000Y-106680000D03*
D14*
X64031726Y-14708274D03*
X62865000Y-14225000D03*
X61698274Y-14708274D03*
X61215000Y-15875000D03*
X61698274Y-17041726D03*
X62865000Y-17525000D03*
X64031726Y-17041726D03*
X64515000Y-15875000D03*
D15*
X62865000Y-15875000D03*
D14*
X159281726Y-26773274D03*
X158115000Y-26290000D03*
X156948274Y-26773274D03*
X156465000Y-27940000D03*
X156948274Y-29106726D03*
X158115000Y-29590000D03*
X159281726Y-29106726D03*
X159765000Y-27940000D03*
D15*
X158115000Y-27940000D03*
M02*
