G04 #@! TF.GenerationSoftware,KiCad,Pcbnew,5.0.2-bee76a0~70~ubuntu18.04.1*
G04 #@! TF.CreationDate,2019-06-11T22:58:44+09:00*
G04 #@! TF.ProjectId,top,746f702e-6b69-4636-9164-5f7063625858,rev?*
G04 #@! TF.SameCoordinates,Original*
G04 #@! TF.FileFunction,Soldermask,Top*
G04 #@! TF.FilePolarity,Negative*
%FSLAX46Y46*%
G04 Gerber Fmt 4.6, Leading zero omitted, Abs format (unit mm)*
G04 Created by KiCad (PCBNEW 5.0.2-bee76a0~70~ubuntu18.04.1) date 2019年06月11日 22時58分44秒*
%MOMM*%
%LPD*%
G01*
G04 APERTURE LIST*
%ADD10C,0.150000*%
%ADD11C,0.100000*%
G04 APERTURE END LIST*
D10*
G36*
X97155000Y-20955000D02*
X154305000Y-20955000D01*
X211455000Y-31750000D01*
X211455000Y-195580000D01*
X97155000Y-195580000D01*
X97155000Y-20955000D01*
G37*
X97155000Y-20955000D02*
X154305000Y-20955000D01*
X211455000Y-31750000D01*
X211455000Y-195580000D01*
X97155000Y-195580000D01*
X97155000Y-20955000D01*
D11*
G36*
X107040848Y-190654279D02*
X107040850Y-190654280D01*
X107040851Y-190654280D01*
X107121588Y-190687723D01*
X107259420Y-190744814D01*
X107358108Y-190810755D01*
X107456125Y-190876248D01*
X107623410Y-191043533D01*
X107688903Y-191141550D01*
X107754844Y-191240238D01*
X107845379Y-191458810D01*
X107891532Y-191690836D01*
X107891532Y-191927416D01*
X107845379Y-192159442D01*
X107754844Y-192378014D01*
X107688903Y-192476702D01*
X107623410Y-192574719D01*
X107456125Y-192742004D01*
X107358108Y-192807497D01*
X107259420Y-192873438D01*
X107121588Y-192930529D01*
X107040851Y-192963972D01*
X107040850Y-192963972D01*
X107040848Y-192963973D01*
X106808822Y-193010126D01*
X106572242Y-193010126D01*
X106340216Y-192963973D01*
X106340214Y-192963972D01*
X106340213Y-192963972D01*
X106259476Y-192930529D01*
X106121644Y-192873438D01*
X106022956Y-192807497D01*
X105924939Y-192742004D01*
X105757654Y-192574719D01*
X105692161Y-192476702D01*
X105626220Y-192378014D01*
X105535685Y-192159442D01*
X105489532Y-191927416D01*
X105489532Y-191690836D01*
X105535685Y-191458810D01*
X105626220Y-191240238D01*
X105692161Y-191141550D01*
X105757654Y-191043533D01*
X105924939Y-190876248D01*
X106022956Y-190810755D01*
X106121644Y-190744814D01*
X106259476Y-190687723D01*
X106340213Y-190654280D01*
X106340214Y-190654280D01*
X106340216Y-190654279D01*
X106572242Y-190608126D01*
X106808822Y-190608126D01*
X107040848Y-190654279D01*
X107040848Y-190654279D01*
G37*
G36*
X202290848Y-111279279D02*
X202290850Y-111279280D01*
X202290851Y-111279280D01*
X202371588Y-111312723D01*
X202509420Y-111369814D01*
X202608108Y-111435755D01*
X202706125Y-111501248D01*
X202873410Y-111668533D01*
X202938903Y-111766550D01*
X203004844Y-111865238D01*
X203095379Y-112083810D01*
X203141532Y-112315836D01*
X203141532Y-112552416D01*
X203095379Y-112784442D01*
X203004844Y-113003014D01*
X202938903Y-113101702D01*
X202873410Y-113199719D01*
X202706125Y-113367004D01*
X202608108Y-113432497D01*
X202509420Y-113498438D01*
X202371588Y-113555529D01*
X202290851Y-113588972D01*
X202290850Y-113588972D01*
X202290848Y-113588973D01*
X202058822Y-113635126D01*
X201822242Y-113635126D01*
X201590216Y-113588973D01*
X201590214Y-113588972D01*
X201590213Y-113588972D01*
X201509476Y-113555529D01*
X201371644Y-113498438D01*
X201272956Y-113432497D01*
X201174939Y-113367004D01*
X201007654Y-113199719D01*
X200942161Y-113101702D01*
X200876220Y-113003014D01*
X200785685Y-112784442D01*
X200739532Y-112552416D01*
X200739532Y-112315836D01*
X200785685Y-112083810D01*
X200876220Y-111865238D01*
X200942161Y-111766550D01*
X201007654Y-111668533D01*
X201174939Y-111501248D01*
X201272956Y-111435755D01*
X201371644Y-111369814D01*
X201509476Y-111312723D01*
X201590213Y-111279280D01*
X201590214Y-111279280D01*
X201590216Y-111279279D01*
X201822242Y-111233126D01*
X202058822Y-111233126D01*
X202290848Y-111279279D01*
X202290848Y-111279279D01*
G37*
G36*
X202280316Y-102985153D02*
X202280318Y-102985154D01*
X202280319Y-102985154D01*
X202361056Y-103018597D01*
X202498888Y-103075688D01*
X202597576Y-103141629D01*
X202695593Y-103207122D01*
X202862878Y-103374407D01*
X202928371Y-103472424D01*
X202994312Y-103571112D01*
X203084847Y-103789684D01*
X203131000Y-104021710D01*
X203131000Y-104258290D01*
X203084847Y-104490316D01*
X202994312Y-104708888D01*
X202928371Y-104807576D01*
X202862878Y-104905593D01*
X202695593Y-105072878D01*
X202597576Y-105138371D01*
X202498888Y-105204312D01*
X202361056Y-105261403D01*
X202280319Y-105294846D01*
X202280318Y-105294846D01*
X202280316Y-105294847D01*
X202048290Y-105341000D01*
X201811710Y-105341000D01*
X201579684Y-105294847D01*
X201579682Y-105294846D01*
X201579681Y-105294846D01*
X201498944Y-105261403D01*
X201361112Y-105204312D01*
X201262424Y-105138371D01*
X201164407Y-105072878D01*
X200997122Y-104905593D01*
X200931629Y-104807576D01*
X200865688Y-104708888D01*
X200775153Y-104490316D01*
X200729000Y-104258290D01*
X200729000Y-104021710D01*
X200775153Y-103789684D01*
X200865688Y-103571112D01*
X200931629Y-103472424D01*
X200997122Y-103374407D01*
X201164407Y-103207122D01*
X201262424Y-103141629D01*
X201361112Y-103075688D01*
X201498944Y-103018597D01*
X201579681Y-102985154D01*
X201579682Y-102985154D01*
X201579684Y-102985153D01*
X201811710Y-102939000D01*
X202048290Y-102939000D01*
X202280316Y-102985153D01*
X202280316Y-102985153D01*
G37*
G36*
X107030316Y-23610153D02*
X107030318Y-23610154D01*
X107030319Y-23610154D01*
X107111056Y-23643597D01*
X107248888Y-23700688D01*
X107347576Y-23766629D01*
X107445593Y-23832122D01*
X107612878Y-23999407D01*
X107678371Y-24097424D01*
X107744312Y-24196112D01*
X107834847Y-24414684D01*
X107881000Y-24646710D01*
X107881000Y-24883290D01*
X107834847Y-25115316D01*
X107744312Y-25333888D01*
X107678371Y-25432576D01*
X107612878Y-25530593D01*
X107445593Y-25697878D01*
X107347576Y-25763371D01*
X107248888Y-25829312D01*
X107111056Y-25886403D01*
X107030319Y-25919846D01*
X107030318Y-25919846D01*
X107030316Y-25919847D01*
X106798290Y-25966000D01*
X106561710Y-25966000D01*
X106329684Y-25919847D01*
X106329682Y-25919846D01*
X106329681Y-25919846D01*
X106248944Y-25886403D01*
X106111112Y-25829312D01*
X106012424Y-25763371D01*
X105914407Y-25697878D01*
X105747122Y-25530593D01*
X105681629Y-25432576D01*
X105615688Y-25333888D01*
X105525153Y-25115316D01*
X105479000Y-24883290D01*
X105479000Y-24646710D01*
X105525153Y-24414684D01*
X105615688Y-24196112D01*
X105681629Y-24097424D01*
X105747122Y-23999407D01*
X105914407Y-23832122D01*
X106012424Y-23766629D01*
X106111112Y-23700688D01*
X106248944Y-23643597D01*
X106329681Y-23610154D01*
X106329682Y-23610154D01*
X106329684Y-23610153D01*
X106561710Y-23564000D01*
X106798290Y-23564000D01*
X107030316Y-23610153D01*
X107030316Y-23610153D01*
G37*
M02*
