M48
;DRILL file {KiCad 5.0.2-bee76a0~70~ubuntu18.04.1} date 2019年07月25日 01時46分30秒
;FORMAT={-:-/ absolute / inch / decimal}
FMAT,2
INCH,TZ
T1C0.0591
T2C0.0866
%
G90
G05
T1
X5.445Y-2.445
X5.445Y-2.955
X5.955Y-2.445
X5.955Y-2.955
X5.445Y-1.695
X5.445Y-2.205
X5.955Y-1.695
X5.955Y-2.205
X6.195Y-1.845
X6.195Y-2.355
X6.705Y-1.845
X6.705Y-2.355
X2.4517Y-4.2067
X2.7067Y-4.6483
X2.8933Y-3.9517
X3.1483Y-4.3933
X3.1017Y-3.8317
X3.3567Y-4.2733
X3.5433Y-3.5767
X3.7983Y-4.0183
X5.445Y-0.945
X5.445Y-1.455
X5.955Y-0.945
X5.955Y-1.455
X7.695Y-1.845
X7.695Y-2.355
X8.205Y-1.845
X8.205Y-2.355
X3.945Y-1.245
X3.945Y-1.755
X4.455Y-1.245
X4.455Y-1.755
X7.695Y-2.595
X7.695Y-3.105
X8.205Y-2.595
X8.205Y-3.105
X4.92Y-3.42
X4.92Y-3.93
X5.43Y-3.42
X5.43Y-3.93
X4.695Y-2.595
X4.695Y-3.105
X5.205Y-2.595
X5.205Y-3.105
X6.945Y-1.47
X6.945Y-1.98
X7.455Y-1.47
X7.455Y-1.98
X6.195Y-2.595
X6.195Y-3.105
X6.705Y-2.595
X6.705Y-3.105
X4.695Y-1.845
X4.695Y-2.355
X5.205Y-1.845
X5.205Y-2.355
X3.945Y-2.745
X3.945Y-3.255
X4.455Y-2.745
X4.455Y-3.255
X6.945Y-2.97
X6.945Y-3.48
X7.455Y-2.97
X7.455Y-3.48
X6.195Y-1.095
X6.195Y-1.605
X6.705Y-1.095
X6.705Y-1.605
X7.695Y-3.345
X7.695Y-3.855
X8.205Y-3.345
X8.205Y-3.855
X6.945Y-2.22
X6.945Y-2.73
X7.455Y-2.22
X7.455Y-2.73
X4.695Y-1.095
X4.695Y-1.605
X5.205Y-1.095
X5.205Y-1.605
X4.17Y-3.57
X4.17Y-4.08
X4.68Y-3.57
X4.68Y-4.08
X3.945Y-1.995
X3.945Y-2.505
X4.455Y-1.995
X4.455Y-2.505
T2
X4.2Y-0.975
X2.375Y-4.55
X7.95Y-4.1
X7.95Y-1.45
T0
M30
