G04 #@! TF.GenerationSoftware,KiCad,Pcbnew,5.0.2-bee76a0~70~ubuntu18.04.1*
G04 #@! TF.CreationDate,2019-07-25T01:53:21+09:00*
G04 #@! TF.ProjectId,top,746f702e-6b69-4636-9164-5f7063625858,rev?*
G04 #@! TF.SameCoordinates,Original*
G04 #@! TF.FileFunction,Profile,NP*
%FSLAX46Y46*%
G04 Gerber Fmt 4.6, Leading zero omitted, Abs format (unit mm)*
G04 Created by KiCad (PCBNEW 5.0.2-bee76a0~70~ubuntu18.04.1) date 2019年07月25日 01時53分21秒*
%MOMM*%
%LPD*%
G01*
G04 APERTURE LIST*
%ADD10C,0.150000*%
G04 #@! TA.AperFunction,NonConductor*
%ADD11C,0.150000*%
G04 #@! TD*
G04 APERTURE END LIST*
D10*
X97155000Y-26035000D02*
G75*
G02X102235000Y-20955000I5080000J0D01*
G01*
X97155000Y-77470000D02*
X97155000Y-26035000D01*
X55880000Y-101600000D02*
X97155000Y-77470000D01*
X57546666Y-20955000D02*
G75*
G03X57546666Y-20955000I-1666666J0D01*
G01*
X53380000Y-20955000D02*
X58380000Y-20955000D01*
X55880000Y-18455000D02*
X55880000Y-23455000D01*
X69850000Y-126365000D02*
X55880000Y-118110000D01*
X206375000Y-31115000D02*
G75*
G02X211455000Y-36195000I0J-5080000D01*
G01*
X211455000Y-102235000D02*
G75*
G02X206375000Y-107315000I-5080000J0D01*
G01*
X55880000Y-118110000D02*
X55880000Y-101600000D01*
X102870000Y-107315000D02*
X69850000Y-126365000D01*
X206375000Y-107315000D02*
X102870000Y-107315000D01*
X211455000Y-36195000D02*
X211455000Y-102235000D01*
X154305000Y-20955000D02*
X206375000Y-31115000D01*
X102235000Y-20955000D02*
X154305000Y-20955000D01*
D11*
G04 #@! TO.C,SW8*
X118730000Y-79390000D02*
X118730000Y-65390000D01*
X132730000Y-79390000D02*
X118730000Y-79390000D01*
X132730000Y-65390000D02*
X118730000Y-65390000D01*
X132730000Y-79390000D02*
X132730000Y-65390000D01*
G04 #@! TO.C,SW19*
X61557822Y-106657822D02*
X73682178Y-99657822D01*
X68557822Y-118782178D02*
X61557822Y-106657822D01*
X80682178Y-111782178D02*
X73682178Y-99657822D01*
X68557822Y-118782178D02*
X80682178Y-111782178D01*
G04 #@! TO.C,SW20*
X78067822Y-97132822D02*
X90192178Y-90132822D01*
X85067822Y-109257178D02*
X78067822Y-97132822D01*
X97192178Y-102257178D02*
X90192178Y-90132822D01*
X85067822Y-109257178D02*
X97192178Y-102257178D01*
G04 #@! TO.C,SW16*
X156830000Y-79390000D02*
X156830000Y-65390000D01*
X170830000Y-79390000D02*
X156830000Y-79390000D01*
X170830000Y-65390000D02*
X156830000Y-65390000D01*
X170830000Y-79390000D02*
X170830000Y-65390000D01*
G04 #@! TO.C,SW8*
X118730000Y-60340000D02*
X118730000Y-46340000D01*
X132730000Y-60340000D02*
X118730000Y-60340000D01*
X132730000Y-46340000D02*
X118730000Y-46340000D01*
X132730000Y-60340000D02*
X132730000Y-46340000D01*
G04 #@! TO.C,SW22*
X124445000Y-100345000D02*
X124445000Y-86345000D01*
X138445000Y-100345000D02*
X124445000Y-100345000D01*
X138445000Y-86345000D02*
X124445000Y-86345000D01*
X138445000Y-100345000D02*
X138445000Y-86345000D01*
G04 #@! TO.C,SW21*
X105395000Y-104155000D02*
X105395000Y-90155000D01*
X119395000Y-104155000D02*
X105395000Y-104155000D01*
X119395000Y-90155000D02*
X105395000Y-90155000D01*
X119395000Y-104155000D02*
X119395000Y-90155000D01*
G04 #@! TO.C,SW1*
X99680000Y-45100000D02*
X99680000Y-31100000D01*
X113680000Y-45100000D02*
X99680000Y-45100000D01*
X113680000Y-31100000D02*
X99680000Y-31100000D01*
X113680000Y-45100000D02*
X113680000Y-31100000D01*
G04 #@! TO.C,SW2*
X118730000Y-41290000D02*
X118730000Y-27290000D01*
X132730000Y-41290000D02*
X118730000Y-41290000D01*
X132730000Y-27290000D02*
X118730000Y-27290000D01*
X132730000Y-41290000D02*
X132730000Y-27290000D01*
G04 #@! TO.C,SW3*
X137780000Y-37480000D02*
X137780000Y-23480000D01*
X151780000Y-37480000D02*
X137780000Y-37480000D01*
X151780000Y-23480000D02*
X137780000Y-23480000D01*
X151780000Y-37480000D02*
X151780000Y-23480000D01*
G04 #@! TO.C,SW4*
X156830000Y-41290000D02*
X156830000Y-27290000D01*
X170830000Y-41290000D02*
X156830000Y-41290000D01*
X170830000Y-27290000D02*
X156830000Y-27290000D01*
X170830000Y-41290000D02*
X170830000Y-27290000D01*
G04 #@! TO.C,SW5*
X175880000Y-50815000D02*
X175880000Y-36815000D01*
X189880000Y-50815000D02*
X175880000Y-50815000D01*
X189880000Y-36815000D02*
X175880000Y-36815000D01*
X189880000Y-50815000D02*
X189880000Y-36815000D01*
G04 #@! TO.C,SW6*
X194930000Y-60340000D02*
X194930000Y-46340000D01*
X208930000Y-60340000D02*
X194930000Y-60340000D01*
X208930000Y-46340000D02*
X194930000Y-46340000D01*
X208930000Y-60340000D02*
X208930000Y-46340000D01*
G04 #@! TO.C,SW7*
X99680000Y-64150000D02*
X99680000Y-50150000D01*
X113680000Y-64150000D02*
X99680000Y-64150000D01*
X113680000Y-50150000D02*
X99680000Y-50150000D01*
X113680000Y-64150000D02*
X113680000Y-50150000D01*
G04 #@! TO.C,SW9*
X137780000Y-56530000D02*
X137780000Y-42530000D01*
X151780000Y-56530000D02*
X137780000Y-56530000D01*
X151780000Y-42530000D02*
X137780000Y-42530000D01*
X151780000Y-56530000D02*
X151780000Y-42530000D01*
G04 #@! TO.C,SW10*
X156830000Y-60340000D02*
X156830000Y-46340000D01*
X170830000Y-60340000D02*
X156830000Y-60340000D01*
X170830000Y-46340000D02*
X156830000Y-46340000D01*
X170830000Y-60340000D02*
X170830000Y-46340000D01*
G04 #@! TO.C,SW11*
X175880000Y-69865000D02*
X175880000Y-55865000D01*
X189880000Y-69865000D02*
X175880000Y-69865000D01*
X189880000Y-55865000D02*
X175880000Y-55865000D01*
X189880000Y-69865000D02*
X189880000Y-55865000D01*
G04 #@! TO.C,SW12*
X194930000Y-79390000D02*
X194930000Y-65390000D01*
X208930000Y-79390000D02*
X194930000Y-79390000D01*
X208930000Y-65390000D02*
X194930000Y-65390000D01*
X208930000Y-79390000D02*
X208930000Y-65390000D01*
G04 #@! TO.C,SW13*
X99680000Y-83200000D02*
X99680000Y-69200000D01*
X113680000Y-83200000D02*
X99680000Y-83200000D01*
X113680000Y-69200000D02*
X99680000Y-69200000D01*
X113680000Y-83200000D02*
X113680000Y-69200000D01*
G04 #@! TO.C,SW15*
X137780000Y-75580000D02*
X137780000Y-61580000D01*
X151780000Y-75580000D02*
X137780000Y-75580000D01*
X151780000Y-61580000D02*
X137780000Y-61580000D01*
X151780000Y-75580000D02*
X151780000Y-61580000D01*
G04 #@! TO.C,SW17*
X175880000Y-88915000D02*
X175880000Y-74915000D01*
X189880000Y-88915000D02*
X175880000Y-88915000D01*
X189880000Y-74915000D02*
X175880000Y-74915000D01*
X189880000Y-88915000D02*
X189880000Y-74915000D01*
G04 #@! TO.C,SW18*
X194930000Y-98440000D02*
X194930000Y-84440000D01*
X208930000Y-98440000D02*
X194930000Y-98440000D01*
X208930000Y-84440000D02*
X194930000Y-84440000D01*
X208930000Y-98440000D02*
X208930000Y-84440000D01*
G04 #@! TD*
M02*
