G04 #@! TF.GenerationSoftware,KiCad,Pcbnew,5.0.2-bee76a0~70~ubuntu18.04.1*
G04 #@! TF.CreationDate,2019-07-25T01:53:21+09:00*
G04 #@! TF.ProjectId,top,746f702e-6b69-4636-9164-5f7063625858,rev?*
G04 #@! TF.SameCoordinates,Original*
G04 #@! TF.FileFunction,Soldermask,Top*
G04 #@! TF.FilePolarity,Negative*
%FSLAX46Y46*%
G04 Gerber Fmt 4.6, Leading zero omitted, Abs format (unit mm)*
G04 Created by KiCad (PCBNEW 5.0.2-bee76a0~70~ubuntu18.04.1) date 2019年07月25日 01時53分21秒*
%MOMM*%
%LPD*%
G01*
G04 APERTURE LIST*
%ADD10C,0.150000*%
%ADD11C,0.100000*%
G04 APERTURE END LIST*
D10*
G36*
X55880000Y-101600000D02*
X55880000Y-118110000D01*
X69850000Y-126365000D01*
X102870000Y-107315000D01*
X211455000Y-107315000D01*
X211455000Y-31115000D01*
X154305000Y-20955000D01*
X97155000Y-20955000D01*
X97155000Y-77470000D01*
X55880000Y-101600000D01*
G37*
X55880000Y-101600000D02*
X55880000Y-118110000D01*
X69850000Y-126365000D01*
X102870000Y-107315000D01*
X211455000Y-107315000D01*
X211455000Y-31115000D01*
X154305000Y-20955000D01*
X97155000Y-20955000D01*
X97155000Y-77470000D01*
X55880000Y-101600000D01*
D11*
G36*
X68986395Y-117285989D02*
X69134355Y-117347277D01*
X69267511Y-117436249D01*
X69380751Y-117549489D01*
X69469723Y-117682645D01*
X69531011Y-117830605D01*
X69562253Y-117987672D01*
X69562253Y-118147822D01*
X69531011Y-118304889D01*
X69469723Y-118452849D01*
X69380751Y-118586005D01*
X69267511Y-118699245D01*
X69134355Y-118788217D01*
X68986395Y-118849505D01*
X68829328Y-118880747D01*
X68669178Y-118880747D01*
X68512111Y-118849505D01*
X68364151Y-118788217D01*
X68230995Y-118699245D01*
X68117755Y-118586005D01*
X68028783Y-118452849D01*
X67967495Y-118304889D01*
X67936253Y-118147822D01*
X67936253Y-117987672D01*
X67967495Y-117830605D01*
X68028783Y-117682645D01*
X68117755Y-117549489D01*
X68230995Y-117436249D01*
X68364151Y-117347277D01*
X68512111Y-117285989D01*
X68669178Y-117254747D01*
X68829328Y-117254747D01*
X68986395Y-117285989D01*
X68986395Y-117285989D01*
G37*
G36*
X60923252Y-113597818D02*
X60923254Y-113597819D01*
X60923255Y-113597819D01*
X61296513Y-113752427D01*
X61296514Y-113752428D01*
X61632439Y-113976886D01*
X61918114Y-114262561D01*
X61918116Y-114262564D01*
X62142573Y-114598487D01*
X62297181Y-114971745D01*
X62376000Y-115367994D01*
X62376000Y-115772006D01*
X62297181Y-116168255D01*
X62142573Y-116541513D01*
X62142572Y-116541514D01*
X61918114Y-116877439D01*
X61632439Y-117163114D01*
X61632436Y-117163116D01*
X61296513Y-117387573D01*
X60923255Y-117542181D01*
X60923254Y-117542181D01*
X60923252Y-117542182D01*
X60527007Y-117621000D01*
X60122993Y-117621000D01*
X59726748Y-117542182D01*
X59726746Y-117542181D01*
X59726745Y-117542181D01*
X59353487Y-117387573D01*
X59017564Y-117163116D01*
X59017561Y-117163114D01*
X58731886Y-116877439D01*
X58507428Y-116541514D01*
X58507427Y-116541513D01*
X58352819Y-116168255D01*
X58274000Y-115772006D01*
X58274000Y-115367994D01*
X58352819Y-114971745D01*
X58507427Y-114598487D01*
X58731884Y-114262564D01*
X58731886Y-114262561D01*
X59017561Y-113976886D01*
X59353486Y-113752428D01*
X59353487Y-113752427D01*
X59726745Y-113597819D01*
X59726746Y-113597819D01*
X59726748Y-113597818D01*
X60122993Y-113519000D01*
X60527007Y-113519000D01*
X60923252Y-113597818D01*
X60923252Y-113597818D01*
G37*
G36*
X80204889Y-110808989D02*
X80352849Y-110870277D01*
X80486005Y-110959249D01*
X80599245Y-111072489D01*
X80688217Y-111205645D01*
X80749505Y-111353605D01*
X80780747Y-111510672D01*
X80780747Y-111670822D01*
X80749505Y-111827889D01*
X80688217Y-111975849D01*
X80599245Y-112109005D01*
X80486005Y-112222245D01*
X80352849Y-112311217D01*
X80204889Y-112372505D01*
X80047822Y-112403747D01*
X79887672Y-112403747D01*
X79730605Y-112372505D01*
X79582645Y-112311217D01*
X79449489Y-112222245D01*
X79336249Y-112109005D01*
X79247277Y-111975849D01*
X79185989Y-111827889D01*
X79154747Y-111670822D01*
X79154747Y-111510672D01*
X79185989Y-111353605D01*
X79247277Y-111205645D01*
X79336249Y-111072489D01*
X79449489Y-110959249D01*
X79582645Y-110870277D01*
X79730605Y-110808989D01*
X79887672Y-110777747D01*
X80047822Y-110777747D01*
X80204889Y-110808989D01*
X80204889Y-110808989D01*
G37*
G36*
X85496395Y-107760989D02*
X85644355Y-107822277D01*
X85777511Y-107911249D01*
X85890751Y-108024489D01*
X85979723Y-108157645D01*
X86041011Y-108305605D01*
X86072253Y-108462672D01*
X86072253Y-108622822D01*
X86041011Y-108779889D01*
X85979723Y-108927849D01*
X85890751Y-109061005D01*
X85777511Y-109174245D01*
X85644355Y-109263217D01*
X85496395Y-109324505D01*
X85339328Y-109355747D01*
X85179178Y-109355747D01*
X85022111Y-109324505D01*
X84874151Y-109263217D01*
X84740995Y-109174245D01*
X84627755Y-109061005D01*
X84538783Y-108927849D01*
X84477495Y-108779889D01*
X84446253Y-108622822D01*
X84446253Y-108462672D01*
X84477495Y-108305605D01*
X84538783Y-108157645D01*
X84627755Y-108024489D01*
X84740995Y-107911249D01*
X84874151Y-107822277D01*
X85022111Y-107760989D01*
X85179178Y-107729747D01*
X85339328Y-107729747D01*
X85496395Y-107760989D01*
X85496395Y-107760989D01*
G37*
G36*
X62509395Y-106067495D02*
X62657355Y-106128783D01*
X62724383Y-106173570D01*
X62750470Y-106191000D01*
X62790511Y-106217755D01*
X62903751Y-106330995D01*
X62992723Y-106464151D01*
X63054011Y-106612111D01*
X63085253Y-106769178D01*
X63085253Y-106929328D01*
X63054011Y-107086395D01*
X62992723Y-107234355D01*
X62903751Y-107367511D01*
X62790511Y-107480751D01*
X62657355Y-107569723D01*
X62509395Y-107631011D01*
X62352328Y-107662253D01*
X62192178Y-107662253D01*
X62035111Y-107631011D01*
X61887151Y-107569723D01*
X61753995Y-107480751D01*
X61640755Y-107367511D01*
X61551783Y-107234355D01*
X61490495Y-107086395D01*
X61459253Y-106929328D01*
X61459253Y-106769178D01*
X61490495Y-106612111D01*
X61551783Y-106464151D01*
X61640755Y-106330995D01*
X61753995Y-106217755D01*
X61794037Y-106191000D01*
X61820123Y-106173570D01*
X61887151Y-106128783D01*
X62035111Y-106067495D01*
X62192178Y-106036253D01*
X62352328Y-106036253D01*
X62509395Y-106067495D01*
X62509395Y-106067495D01*
G37*
G36*
X202528252Y-102167818D02*
X202528254Y-102167819D01*
X202528255Y-102167819D01*
X202901513Y-102322427D01*
X202901514Y-102322428D01*
X203237439Y-102546886D01*
X203523114Y-102832561D01*
X203523116Y-102832564D01*
X203747573Y-103168487D01*
X203902181Y-103541745D01*
X203902182Y-103541748D01*
X203981000Y-103937993D01*
X203981000Y-104342007D01*
X203978919Y-104352471D01*
X203902181Y-104738255D01*
X203747573Y-105111513D01*
X203747572Y-105111514D01*
X203523114Y-105447439D01*
X203237439Y-105733114D01*
X203237436Y-105733116D01*
X202901513Y-105957573D01*
X202528255Y-106112181D01*
X202528254Y-106112181D01*
X202528252Y-106112182D01*
X202132007Y-106191000D01*
X201727993Y-106191000D01*
X201331748Y-106112182D01*
X201331746Y-106112181D01*
X201331745Y-106112181D01*
X200958487Y-105957573D01*
X200622564Y-105733116D01*
X200622561Y-105733114D01*
X200336886Y-105447439D01*
X200112428Y-105111514D01*
X200112427Y-105111513D01*
X199957819Y-104738255D01*
X199881082Y-104352471D01*
X199879000Y-104342007D01*
X199879000Y-103937993D01*
X199957818Y-103541748D01*
X199957819Y-103541745D01*
X200112427Y-103168487D01*
X200336884Y-102832564D01*
X200336886Y-102832561D01*
X200622561Y-102546886D01*
X200958486Y-102322428D01*
X200958487Y-102322427D01*
X201331745Y-102167819D01*
X201331746Y-102167819D01*
X201331748Y-102167818D01*
X201727993Y-102089000D01*
X202132007Y-102089000D01*
X202528252Y-102167818D01*
X202528252Y-102167818D01*
G37*
G36*
X106155142Y-102850242D02*
X106303102Y-102911530D01*
X106436258Y-103000502D01*
X106549498Y-103113742D01*
X106638470Y-103246898D01*
X106699758Y-103394858D01*
X106731000Y-103551925D01*
X106731000Y-103712075D01*
X106699758Y-103869142D01*
X106638470Y-104017102D01*
X106549498Y-104150258D01*
X106436258Y-104263498D01*
X106303102Y-104352470D01*
X106155142Y-104413758D01*
X105998075Y-104445000D01*
X105837925Y-104445000D01*
X105680858Y-104413758D01*
X105532898Y-104352470D01*
X105399742Y-104263498D01*
X105286502Y-104150258D01*
X105197530Y-104017102D01*
X105136242Y-103869142D01*
X105105000Y-103712075D01*
X105105000Y-103551925D01*
X105136242Y-103394858D01*
X105197530Y-103246898D01*
X105286502Y-103113742D01*
X105399742Y-103000502D01*
X105532898Y-102911530D01*
X105680858Y-102850242D01*
X105837925Y-102819000D01*
X105998075Y-102819000D01*
X106155142Y-102850242D01*
X106155142Y-102850242D01*
G37*
G36*
X119109142Y-102850242D02*
X119257102Y-102911530D01*
X119390258Y-103000502D01*
X119503498Y-103113742D01*
X119592470Y-103246898D01*
X119653758Y-103394858D01*
X119685000Y-103551925D01*
X119685000Y-103712075D01*
X119653758Y-103869142D01*
X119592470Y-104017102D01*
X119503498Y-104150258D01*
X119390258Y-104263498D01*
X119257102Y-104352470D01*
X119109142Y-104413758D01*
X118952075Y-104445000D01*
X118791925Y-104445000D01*
X118634858Y-104413758D01*
X118486898Y-104352470D01*
X118353742Y-104263498D01*
X118240502Y-104150258D01*
X118151530Y-104017102D01*
X118090242Y-103869142D01*
X118059000Y-103712075D01*
X118059000Y-103551925D01*
X118090242Y-103394858D01*
X118151530Y-103246898D01*
X118240502Y-103113742D01*
X118353742Y-103000502D01*
X118486898Y-102911530D01*
X118634858Y-102850242D01*
X118791925Y-102819000D01*
X118952075Y-102819000D01*
X119109142Y-102850242D01*
X119109142Y-102850242D01*
G37*
G36*
X96714889Y-101283989D02*
X96862849Y-101345277D01*
X96996005Y-101434249D01*
X97109245Y-101547489D01*
X97198217Y-101680645D01*
X97259505Y-101828605D01*
X97290747Y-101985672D01*
X97290747Y-102145822D01*
X97259505Y-102302889D01*
X97212101Y-102417330D01*
X97198218Y-102450847D01*
X97134049Y-102546884D01*
X97109245Y-102584005D01*
X96996005Y-102697245D01*
X96862849Y-102786217D01*
X96714889Y-102847505D01*
X96557822Y-102878747D01*
X96397672Y-102878747D01*
X96240605Y-102847505D01*
X96092645Y-102786217D01*
X95959489Y-102697245D01*
X95846249Y-102584005D01*
X95821446Y-102546884D01*
X95757276Y-102450847D01*
X95743393Y-102417330D01*
X95695989Y-102302889D01*
X95664747Y-102145822D01*
X95664747Y-101985672D01*
X95695989Y-101828605D01*
X95757277Y-101680645D01*
X95846249Y-101547489D01*
X95959489Y-101434249D01*
X96092645Y-101345277D01*
X96240605Y-101283989D01*
X96397672Y-101252747D01*
X96557822Y-101252747D01*
X96714889Y-101283989D01*
X96714889Y-101283989D01*
G37*
G36*
X73727889Y-99590495D02*
X73875849Y-99651783D01*
X74009005Y-99740755D01*
X74122245Y-99853995D01*
X74211217Y-99987151D01*
X74272505Y-100135111D01*
X74303747Y-100292178D01*
X74303747Y-100452328D01*
X74272505Y-100609395D01*
X74211217Y-100757355D01*
X74122245Y-100890511D01*
X74009005Y-101003751D01*
X73875849Y-101092723D01*
X73727889Y-101154011D01*
X73570822Y-101185253D01*
X73410672Y-101185253D01*
X73253605Y-101154011D01*
X73105645Y-101092723D01*
X72972489Y-101003751D01*
X72859249Y-100890511D01*
X72770277Y-100757355D01*
X72708989Y-100609395D01*
X72677747Y-100452328D01*
X72677747Y-100292178D01*
X72708989Y-100135111D01*
X72770277Y-99987151D01*
X72859249Y-99853995D01*
X72972489Y-99740755D01*
X73105645Y-99651783D01*
X73253605Y-99590495D01*
X73410672Y-99559253D01*
X73570822Y-99559253D01*
X73727889Y-99590495D01*
X73727889Y-99590495D01*
G37*
G36*
X125205142Y-99040242D02*
X125353102Y-99101530D01*
X125486258Y-99190502D01*
X125599498Y-99303742D01*
X125688470Y-99436898D01*
X125749758Y-99584858D01*
X125781000Y-99741925D01*
X125781000Y-99902075D01*
X125749758Y-100059142D01*
X125688470Y-100207102D01*
X125599498Y-100340258D01*
X125486258Y-100453498D01*
X125353102Y-100542470D01*
X125205142Y-100603758D01*
X125048075Y-100635000D01*
X124887925Y-100635000D01*
X124730858Y-100603758D01*
X124582898Y-100542470D01*
X124449742Y-100453498D01*
X124336502Y-100340258D01*
X124247530Y-100207102D01*
X124186242Y-100059142D01*
X124155000Y-99902075D01*
X124155000Y-99741925D01*
X124186242Y-99584858D01*
X124247530Y-99436898D01*
X124336502Y-99303742D01*
X124449742Y-99190502D01*
X124582898Y-99101530D01*
X124730858Y-99040242D01*
X124887925Y-99009000D01*
X125048075Y-99009000D01*
X125205142Y-99040242D01*
X125205142Y-99040242D01*
G37*
G36*
X138159142Y-99040242D02*
X138307102Y-99101530D01*
X138440258Y-99190502D01*
X138553498Y-99303742D01*
X138642470Y-99436898D01*
X138703758Y-99584858D01*
X138735000Y-99741925D01*
X138735000Y-99902075D01*
X138703758Y-100059142D01*
X138642470Y-100207102D01*
X138553498Y-100340258D01*
X138440258Y-100453498D01*
X138307102Y-100542470D01*
X138159142Y-100603758D01*
X138002075Y-100635000D01*
X137841925Y-100635000D01*
X137684858Y-100603758D01*
X137536898Y-100542470D01*
X137403742Y-100453498D01*
X137290502Y-100340258D01*
X137201530Y-100207102D01*
X137140242Y-100059142D01*
X137109000Y-99902075D01*
X137109000Y-99741925D01*
X137140242Y-99584858D01*
X137201530Y-99436898D01*
X137290502Y-99303742D01*
X137403742Y-99190502D01*
X137536898Y-99101530D01*
X137684858Y-99040242D01*
X137841925Y-99009000D01*
X138002075Y-99009000D01*
X138159142Y-99040242D01*
X138159142Y-99040242D01*
G37*
G36*
X208644142Y-97135242D02*
X208792102Y-97196530D01*
X208859130Y-97241317D01*
X208925257Y-97285501D01*
X209038499Y-97398743D01*
X209082683Y-97464870D01*
X209127470Y-97531898D01*
X209188758Y-97679858D01*
X209220000Y-97836925D01*
X209220000Y-97997075D01*
X209188758Y-98154142D01*
X209127470Y-98302102D01*
X209038498Y-98435258D01*
X208925258Y-98548498D01*
X208792102Y-98637470D01*
X208644142Y-98698758D01*
X208487075Y-98730000D01*
X208326925Y-98730000D01*
X208169858Y-98698758D01*
X208021898Y-98637470D01*
X207888742Y-98548498D01*
X207775502Y-98435258D01*
X207686530Y-98302102D01*
X207625242Y-98154142D01*
X207594000Y-97997075D01*
X207594000Y-97836925D01*
X207625242Y-97679858D01*
X207686530Y-97531898D01*
X207731317Y-97464870D01*
X207775501Y-97398743D01*
X207888743Y-97285501D01*
X207954870Y-97241317D01*
X208021898Y-97196530D01*
X208169858Y-97135242D01*
X208326925Y-97104000D01*
X208487075Y-97104000D01*
X208644142Y-97135242D01*
X208644142Y-97135242D01*
G37*
G36*
X195690142Y-97135242D02*
X195838102Y-97196530D01*
X195905130Y-97241317D01*
X195971257Y-97285501D01*
X196084499Y-97398743D01*
X196128683Y-97464870D01*
X196173470Y-97531898D01*
X196234758Y-97679858D01*
X196266000Y-97836925D01*
X196266000Y-97997075D01*
X196234758Y-98154142D01*
X196173470Y-98302102D01*
X196084498Y-98435258D01*
X195971258Y-98548498D01*
X195838102Y-98637470D01*
X195690142Y-98698758D01*
X195533075Y-98730000D01*
X195372925Y-98730000D01*
X195215858Y-98698758D01*
X195067898Y-98637470D01*
X194934742Y-98548498D01*
X194821502Y-98435258D01*
X194732530Y-98302102D01*
X194671242Y-98154142D01*
X194640000Y-97997075D01*
X194640000Y-97836925D01*
X194671242Y-97679858D01*
X194732530Y-97531898D01*
X194777317Y-97464870D01*
X194821501Y-97398743D01*
X194934743Y-97285501D01*
X195000870Y-97241317D01*
X195067898Y-97196530D01*
X195215858Y-97135242D01*
X195372925Y-97104000D01*
X195533075Y-97104000D01*
X195690142Y-97135242D01*
X195690142Y-97135242D01*
G37*
G36*
X79019395Y-96542495D02*
X79167355Y-96603783D01*
X79300511Y-96692755D01*
X79413751Y-96805995D01*
X79502723Y-96939151D01*
X79564011Y-97087111D01*
X79595253Y-97244178D01*
X79595253Y-97404328D01*
X79564011Y-97561395D01*
X79516607Y-97675836D01*
X79502724Y-97709353D01*
X79417484Y-97836925D01*
X79413751Y-97842511D01*
X79300511Y-97955751D01*
X79167355Y-98044723D01*
X79019395Y-98106011D01*
X78862328Y-98137253D01*
X78702178Y-98137253D01*
X78545111Y-98106011D01*
X78397151Y-98044723D01*
X78263995Y-97955751D01*
X78150755Y-97842511D01*
X78147023Y-97836925D01*
X78061782Y-97709353D01*
X78047899Y-97675836D01*
X78000495Y-97561395D01*
X77969253Y-97404328D01*
X77969253Y-97244178D01*
X78000495Y-97087111D01*
X78061783Y-96939151D01*
X78150755Y-96805995D01*
X78263995Y-96692755D01*
X78397151Y-96603783D01*
X78545111Y-96542495D01*
X78702178Y-96511253D01*
X78862328Y-96511253D01*
X79019395Y-96542495D01*
X79019395Y-96542495D01*
G37*
G36*
X90237889Y-90065495D02*
X90385849Y-90126783D01*
X90519005Y-90215755D01*
X90632245Y-90328995D01*
X90721217Y-90462151D01*
X90782505Y-90610111D01*
X90813747Y-90767178D01*
X90813747Y-90927328D01*
X90782505Y-91084395D01*
X90721217Y-91232355D01*
X90632245Y-91365511D01*
X90519005Y-91478751D01*
X90385849Y-91567723D01*
X90237889Y-91629011D01*
X90080822Y-91660253D01*
X89920672Y-91660253D01*
X89763605Y-91629011D01*
X89615645Y-91567723D01*
X89482489Y-91478751D01*
X89369249Y-91365511D01*
X89280277Y-91232355D01*
X89218989Y-91084395D01*
X89187747Y-90927328D01*
X89187747Y-90767178D01*
X89218989Y-90610111D01*
X89280277Y-90462151D01*
X89369249Y-90328995D01*
X89482489Y-90215755D01*
X89615645Y-90126783D01*
X89763605Y-90065495D01*
X89920672Y-90034253D01*
X90080822Y-90034253D01*
X90237889Y-90065495D01*
X90237889Y-90065495D01*
G37*
G36*
X106155142Y-89896242D02*
X106303102Y-89957530D01*
X106436258Y-90046502D01*
X106549498Y-90159742D01*
X106638470Y-90292898D01*
X106699758Y-90440858D01*
X106731000Y-90597925D01*
X106731000Y-90758075D01*
X106699758Y-90915142D01*
X106638470Y-91063102D01*
X106549498Y-91196258D01*
X106436258Y-91309498D01*
X106303102Y-91398470D01*
X106155142Y-91459758D01*
X105998075Y-91491000D01*
X105837925Y-91491000D01*
X105680858Y-91459758D01*
X105532898Y-91398470D01*
X105399742Y-91309498D01*
X105286502Y-91196258D01*
X105197530Y-91063102D01*
X105136242Y-90915142D01*
X105105000Y-90758075D01*
X105105000Y-90597925D01*
X105136242Y-90440858D01*
X105197530Y-90292898D01*
X105286502Y-90159742D01*
X105399742Y-90046502D01*
X105532898Y-89957530D01*
X105680858Y-89896242D01*
X105837925Y-89865000D01*
X105998075Y-89865000D01*
X106155142Y-89896242D01*
X106155142Y-89896242D01*
G37*
G36*
X119109142Y-89896242D02*
X119257102Y-89957530D01*
X119390258Y-90046502D01*
X119503498Y-90159742D01*
X119592470Y-90292898D01*
X119653758Y-90440858D01*
X119685000Y-90597925D01*
X119685000Y-90758075D01*
X119653758Y-90915142D01*
X119592470Y-91063102D01*
X119503498Y-91196258D01*
X119390258Y-91309498D01*
X119257102Y-91398470D01*
X119109142Y-91459758D01*
X118952075Y-91491000D01*
X118791925Y-91491000D01*
X118634858Y-91459758D01*
X118486898Y-91398470D01*
X118353742Y-91309498D01*
X118240502Y-91196258D01*
X118151530Y-91063102D01*
X118090242Y-90915142D01*
X118059000Y-90758075D01*
X118059000Y-90597925D01*
X118090242Y-90440858D01*
X118151530Y-90292898D01*
X118240502Y-90159742D01*
X118353742Y-90046502D01*
X118486898Y-89957530D01*
X118634858Y-89896242D01*
X118791925Y-89865000D01*
X118952075Y-89865000D01*
X119109142Y-89896242D01*
X119109142Y-89896242D01*
G37*
G36*
X176640142Y-87610242D02*
X176788102Y-87671530D01*
X176921258Y-87760502D01*
X177034498Y-87873742D01*
X177123470Y-88006898D01*
X177184758Y-88154858D01*
X177216000Y-88311925D01*
X177216000Y-88472075D01*
X177184758Y-88629142D01*
X177123470Y-88777102D01*
X177034498Y-88910258D01*
X176921258Y-89023498D01*
X176788102Y-89112470D01*
X176640142Y-89173758D01*
X176483075Y-89205000D01*
X176322925Y-89205000D01*
X176165858Y-89173758D01*
X176017898Y-89112470D01*
X175884742Y-89023498D01*
X175771502Y-88910258D01*
X175682530Y-88777102D01*
X175621242Y-88629142D01*
X175590000Y-88472075D01*
X175590000Y-88311925D01*
X175621242Y-88154858D01*
X175682530Y-88006898D01*
X175771502Y-87873742D01*
X175884742Y-87760502D01*
X176017898Y-87671530D01*
X176165858Y-87610242D01*
X176322925Y-87579000D01*
X176483075Y-87579000D01*
X176640142Y-87610242D01*
X176640142Y-87610242D01*
G37*
G36*
X189594142Y-87610242D02*
X189742102Y-87671530D01*
X189875258Y-87760502D01*
X189988498Y-87873742D01*
X190077470Y-88006898D01*
X190138758Y-88154858D01*
X190170000Y-88311925D01*
X190170000Y-88472075D01*
X190138758Y-88629142D01*
X190077470Y-88777102D01*
X189988498Y-88910258D01*
X189875258Y-89023498D01*
X189742102Y-89112470D01*
X189594142Y-89173758D01*
X189437075Y-89205000D01*
X189276925Y-89205000D01*
X189119858Y-89173758D01*
X188971898Y-89112470D01*
X188838742Y-89023498D01*
X188725502Y-88910258D01*
X188636530Y-88777102D01*
X188575242Y-88629142D01*
X188544000Y-88472075D01*
X188544000Y-88311925D01*
X188575242Y-88154858D01*
X188636530Y-88006898D01*
X188725502Y-87873742D01*
X188838742Y-87760502D01*
X188971898Y-87671530D01*
X189119858Y-87610242D01*
X189276925Y-87579000D01*
X189437075Y-87579000D01*
X189594142Y-87610242D01*
X189594142Y-87610242D01*
G37*
G36*
X125205142Y-86086242D02*
X125353102Y-86147530D01*
X125486258Y-86236502D01*
X125599498Y-86349742D01*
X125688470Y-86482898D01*
X125749758Y-86630858D01*
X125781000Y-86787925D01*
X125781000Y-86948075D01*
X125749758Y-87105142D01*
X125688470Y-87253102D01*
X125599498Y-87386258D01*
X125486258Y-87499498D01*
X125353102Y-87588470D01*
X125205142Y-87649758D01*
X125048075Y-87681000D01*
X124887925Y-87681000D01*
X124730858Y-87649758D01*
X124582898Y-87588470D01*
X124449742Y-87499498D01*
X124336502Y-87386258D01*
X124247530Y-87253102D01*
X124186242Y-87105142D01*
X124155000Y-86948075D01*
X124155000Y-86787925D01*
X124186242Y-86630858D01*
X124247530Y-86482898D01*
X124336502Y-86349742D01*
X124449742Y-86236502D01*
X124582898Y-86147530D01*
X124730858Y-86086242D01*
X124887925Y-86055000D01*
X125048075Y-86055000D01*
X125205142Y-86086242D01*
X125205142Y-86086242D01*
G37*
G36*
X138159142Y-86086242D02*
X138307102Y-86147530D01*
X138440258Y-86236502D01*
X138553498Y-86349742D01*
X138642470Y-86482898D01*
X138703758Y-86630858D01*
X138735000Y-86787925D01*
X138735000Y-86948075D01*
X138703758Y-87105142D01*
X138642470Y-87253102D01*
X138553498Y-87386258D01*
X138440258Y-87499498D01*
X138307102Y-87588470D01*
X138159142Y-87649758D01*
X138002075Y-87681000D01*
X137841925Y-87681000D01*
X137684858Y-87649758D01*
X137536898Y-87588470D01*
X137403742Y-87499498D01*
X137290502Y-87386258D01*
X137201530Y-87253102D01*
X137140242Y-87105142D01*
X137109000Y-86948075D01*
X137109000Y-86787925D01*
X137140242Y-86630858D01*
X137201530Y-86482898D01*
X137290502Y-86349742D01*
X137403742Y-86236502D01*
X137536898Y-86147530D01*
X137684858Y-86086242D01*
X137841925Y-86055000D01*
X138002075Y-86055000D01*
X138159142Y-86086242D01*
X138159142Y-86086242D01*
G37*
G36*
X195690142Y-84181242D02*
X195838102Y-84242530D01*
X195971258Y-84331502D01*
X196084498Y-84444742D01*
X196173470Y-84577898D01*
X196234758Y-84725858D01*
X196266000Y-84882925D01*
X196266000Y-85043075D01*
X196234758Y-85200142D01*
X196173470Y-85348102D01*
X196084498Y-85481258D01*
X195971258Y-85594498D01*
X195838102Y-85683470D01*
X195690142Y-85744758D01*
X195533075Y-85776000D01*
X195372925Y-85776000D01*
X195215858Y-85744758D01*
X195067898Y-85683470D01*
X194934742Y-85594498D01*
X194821502Y-85481258D01*
X194732530Y-85348102D01*
X194671242Y-85200142D01*
X194640000Y-85043075D01*
X194640000Y-84882925D01*
X194671242Y-84725858D01*
X194732530Y-84577898D01*
X194821502Y-84444742D01*
X194934742Y-84331502D01*
X195067898Y-84242530D01*
X195215858Y-84181242D01*
X195372925Y-84150000D01*
X195533075Y-84150000D01*
X195690142Y-84181242D01*
X195690142Y-84181242D01*
G37*
G36*
X208644142Y-84181242D02*
X208792102Y-84242530D01*
X208925258Y-84331502D01*
X209038498Y-84444742D01*
X209127470Y-84577898D01*
X209188758Y-84725858D01*
X209220000Y-84882925D01*
X209220000Y-85043075D01*
X209188758Y-85200142D01*
X209127470Y-85348102D01*
X209038498Y-85481258D01*
X208925258Y-85594498D01*
X208792102Y-85683470D01*
X208644142Y-85744758D01*
X208487075Y-85776000D01*
X208326925Y-85776000D01*
X208169858Y-85744758D01*
X208021898Y-85683470D01*
X207888742Y-85594498D01*
X207775502Y-85481258D01*
X207686530Y-85348102D01*
X207625242Y-85200142D01*
X207594000Y-85043075D01*
X207594000Y-84882925D01*
X207625242Y-84725858D01*
X207686530Y-84577898D01*
X207775502Y-84444742D01*
X207888742Y-84331502D01*
X208021898Y-84242530D01*
X208169858Y-84181242D01*
X208326925Y-84150000D01*
X208487075Y-84150000D01*
X208644142Y-84181242D01*
X208644142Y-84181242D01*
G37*
G36*
X113394142Y-81895242D02*
X113542102Y-81956530D01*
X113675258Y-82045502D01*
X113788498Y-82158742D01*
X113877470Y-82291898D01*
X113938758Y-82439858D01*
X113970000Y-82596925D01*
X113970000Y-82757075D01*
X113938758Y-82914142D01*
X113877470Y-83062102D01*
X113788498Y-83195258D01*
X113675258Y-83308498D01*
X113542102Y-83397470D01*
X113394142Y-83458758D01*
X113237075Y-83490000D01*
X113076925Y-83490000D01*
X112919858Y-83458758D01*
X112771898Y-83397470D01*
X112638742Y-83308498D01*
X112525502Y-83195258D01*
X112436530Y-83062102D01*
X112375242Y-82914142D01*
X112344000Y-82757075D01*
X112344000Y-82596925D01*
X112375242Y-82439858D01*
X112436530Y-82291898D01*
X112525502Y-82158742D01*
X112638742Y-82045502D01*
X112771898Y-81956530D01*
X112919858Y-81895242D01*
X113076925Y-81864000D01*
X113237075Y-81864000D01*
X113394142Y-81895242D01*
X113394142Y-81895242D01*
G37*
G36*
X100440142Y-81895242D02*
X100588102Y-81956530D01*
X100721258Y-82045502D01*
X100834498Y-82158742D01*
X100923470Y-82291898D01*
X100984758Y-82439858D01*
X101016000Y-82596925D01*
X101016000Y-82757075D01*
X100984758Y-82914142D01*
X100923470Y-83062102D01*
X100834498Y-83195258D01*
X100721258Y-83308498D01*
X100588102Y-83397470D01*
X100440142Y-83458758D01*
X100283075Y-83490000D01*
X100122925Y-83490000D01*
X99965858Y-83458758D01*
X99817898Y-83397470D01*
X99684742Y-83308498D01*
X99571502Y-83195258D01*
X99482530Y-83062102D01*
X99421242Y-82914142D01*
X99390000Y-82757075D01*
X99390000Y-82596925D01*
X99421242Y-82439858D01*
X99482530Y-82291898D01*
X99571502Y-82158742D01*
X99684742Y-82045502D01*
X99817898Y-81956530D01*
X99965858Y-81895242D01*
X100122925Y-81864000D01*
X100283075Y-81864000D01*
X100440142Y-81895242D01*
X100440142Y-81895242D01*
G37*
G36*
X157590142Y-78085242D02*
X157738102Y-78146530D01*
X157871258Y-78235502D01*
X157984498Y-78348742D01*
X158073470Y-78481898D01*
X158134758Y-78629858D01*
X158166000Y-78786925D01*
X158166000Y-78947075D01*
X158134758Y-79104142D01*
X158073470Y-79252102D01*
X157984498Y-79385258D01*
X157871258Y-79498498D01*
X157738102Y-79587470D01*
X157590142Y-79648758D01*
X157433075Y-79680000D01*
X157272925Y-79680000D01*
X157115858Y-79648758D01*
X156967898Y-79587470D01*
X156834742Y-79498498D01*
X156721502Y-79385258D01*
X156632530Y-79252102D01*
X156571242Y-79104142D01*
X156540000Y-78947075D01*
X156540000Y-78786925D01*
X156571242Y-78629858D01*
X156632530Y-78481898D01*
X156721502Y-78348742D01*
X156834742Y-78235502D01*
X156967898Y-78146530D01*
X157115858Y-78085242D01*
X157272925Y-78054000D01*
X157433075Y-78054000D01*
X157590142Y-78085242D01*
X157590142Y-78085242D01*
G37*
G36*
X170544142Y-78085242D02*
X170692102Y-78146530D01*
X170825258Y-78235502D01*
X170938498Y-78348742D01*
X171027470Y-78481898D01*
X171088758Y-78629858D01*
X171120000Y-78786925D01*
X171120000Y-78947075D01*
X171088758Y-79104142D01*
X171027470Y-79252102D01*
X170938498Y-79385258D01*
X170825258Y-79498498D01*
X170692102Y-79587470D01*
X170544142Y-79648758D01*
X170387075Y-79680000D01*
X170226925Y-79680000D01*
X170069858Y-79648758D01*
X169921898Y-79587470D01*
X169788742Y-79498498D01*
X169675502Y-79385258D01*
X169586530Y-79252102D01*
X169525242Y-79104142D01*
X169494000Y-78947075D01*
X169494000Y-78786925D01*
X169525242Y-78629858D01*
X169586530Y-78481898D01*
X169675502Y-78348742D01*
X169788742Y-78235502D01*
X169921898Y-78146530D01*
X170069858Y-78085242D01*
X170226925Y-78054000D01*
X170387075Y-78054000D01*
X170544142Y-78085242D01*
X170544142Y-78085242D01*
G37*
G36*
X195690142Y-78085242D02*
X195838102Y-78146530D01*
X195971258Y-78235502D01*
X196084498Y-78348742D01*
X196173470Y-78481898D01*
X196234758Y-78629858D01*
X196266000Y-78786925D01*
X196266000Y-78947075D01*
X196234758Y-79104142D01*
X196173470Y-79252102D01*
X196084498Y-79385258D01*
X195971258Y-79498498D01*
X195838102Y-79587470D01*
X195690142Y-79648758D01*
X195533075Y-79680000D01*
X195372925Y-79680000D01*
X195215858Y-79648758D01*
X195067898Y-79587470D01*
X194934742Y-79498498D01*
X194821502Y-79385258D01*
X194732530Y-79252102D01*
X194671242Y-79104142D01*
X194640000Y-78947075D01*
X194640000Y-78786925D01*
X194671242Y-78629858D01*
X194732530Y-78481898D01*
X194821502Y-78348742D01*
X194934742Y-78235502D01*
X195067898Y-78146530D01*
X195215858Y-78085242D01*
X195372925Y-78054000D01*
X195533075Y-78054000D01*
X195690142Y-78085242D01*
X195690142Y-78085242D01*
G37*
G36*
X208644142Y-78085242D02*
X208792102Y-78146530D01*
X208925258Y-78235502D01*
X209038498Y-78348742D01*
X209127470Y-78481898D01*
X209188758Y-78629858D01*
X209220000Y-78786925D01*
X209220000Y-78947075D01*
X209188758Y-79104142D01*
X209127470Y-79252102D01*
X209038498Y-79385258D01*
X208925258Y-79498498D01*
X208792102Y-79587470D01*
X208644142Y-79648758D01*
X208487075Y-79680000D01*
X208326925Y-79680000D01*
X208169858Y-79648758D01*
X208021898Y-79587470D01*
X207888742Y-79498498D01*
X207775502Y-79385258D01*
X207686530Y-79252102D01*
X207625242Y-79104142D01*
X207594000Y-78947075D01*
X207594000Y-78786925D01*
X207625242Y-78629858D01*
X207686530Y-78481898D01*
X207775502Y-78348742D01*
X207888742Y-78235502D01*
X208021898Y-78146530D01*
X208169858Y-78085242D01*
X208326925Y-78054000D01*
X208487075Y-78054000D01*
X208644142Y-78085242D01*
X208644142Y-78085242D01*
G37*
G36*
X132444142Y-78085242D02*
X132592102Y-78146530D01*
X132725258Y-78235502D01*
X132838498Y-78348742D01*
X132927470Y-78481898D01*
X132988758Y-78629858D01*
X133020000Y-78786925D01*
X133020000Y-78947075D01*
X132988758Y-79104142D01*
X132927470Y-79252102D01*
X132838498Y-79385258D01*
X132725258Y-79498498D01*
X132592102Y-79587470D01*
X132444142Y-79648758D01*
X132287075Y-79680000D01*
X132126925Y-79680000D01*
X131969858Y-79648758D01*
X131821898Y-79587470D01*
X131688742Y-79498498D01*
X131575502Y-79385258D01*
X131486530Y-79252102D01*
X131425242Y-79104142D01*
X131394000Y-78947075D01*
X131394000Y-78786925D01*
X131425242Y-78629858D01*
X131486530Y-78481898D01*
X131575502Y-78348742D01*
X131688742Y-78235502D01*
X131821898Y-78146530D01*
X131969858Y-78085242D01*
X132126925Y-78054000D01*
X132287075Y-78054000D01*
X132444142Y-78085242D01*
X132444142Y-78085242D01*
G37*
G36*
X119490142Y-78085242D02*
X119638102Y-78146530D01*
X119771258Y-78235502D01*
X119884498Y-78348742D01*
X119973470Y-78481898D01*
X120034758Y-78629858D01*
X120066000Y-78786925D01*
X120066000Y-78947075D01*
X120034758Y-79104142D01*
X119973470Y-79252102D01*
X119884498Y-79385258D01*
X119771258Y-79498498D01*
X119638102Y-79587470D01*
X119490142Y-79648758D01*
X119333075Y-79680000D01*
X119172925Y-79680000D01*
X119015858Y-79648758D01*
X118867898Y-79587470D01*
X118734742Y-79498498D01*
X118621502Y-79385258D01*
X118532530Y-79252102D01*
X118471242Y-79104142D01*
X118440000Y-78947075D01*
X118440000Y-78786925D01*
X118471242Y-78629858D01*
X118532530Y-78481898D01*
X118621502Y-78348742D01*
X118734742Y-78235502D01*
X118867898Y-78146530D01*
X119015858Y-78085242D01*
X119172925Y-78054000D01*
X119333075Y-78054000D01*
X119490142Y-78085242D01*
X119490142Y-78085242D01*
G37*
G36*
X189594142Y-74656242D02*
X189742102Y-74717530D01*
X189809130Y-74762317D01*
X189875257Y-74806501D01*
X189988499Y-74919743D01*
X190026707Y-74976926D01*
X190077470Y-75052898D01*
X190138758Y-75200858D01*
X190170000Y-75357925D01*
X190170000Y-75518075D01*
X190138758Y-75675142D01*
X190077470Y-75823102D01*
X189988498Y-75956258D01*
X189875258Y-76069498D01*
X189742102Y-76158470D01*
X189594142Y-76219758D01*
X189437075Y-76251000D01*
X189276925Y-76251000D01*
X189119858Y-76219758D01*
X188971898Y-76158470D01*
X188838742Y-76069498D01*
X188725502Y-75956258D01*
X188636530Y-75823102D01*
X188575242Y-75675142D01*
X188544000Y-75518075D01*
X188544000Y-75357925D01*
X188575242Y-75200858D01*
X188636530Y-75052898D01*
X188687293Y-74976926D01*
X188725501Y-74919743D01*
X188838743Y-74806501D01*
X188904870Y-74762317D01*
X188971898Y-74717530D01*
X189119858Y-74656242D01*
X189276925Y-74625000D01*
X189437075Y-74625000D01*
X189594142Y-74656242D01*
X189594142Y-74656242D01*
G37*
G36*
X176640142Y-74656242D02*
X176788102Y-74717530D01*
X176855130Y-74762317D01*
X176921257Y-74806501D01*
X177034499Y-74919743D01*
X177072707Y-74976926D01*
X177123470Y-75052898D01*
X177184758Y-75200858D01*
X177216000Y-75357925D01*
X177216000Y-75518075D01*
X177184758Y-75675142D01*
X177123470Y-75823102D01*
X177034498Y-75956258D01*
X176921258Y-76069498D01*
X176788102Y-76158470D01*
X176640142Y-76219758D01*
X176483075Y-76251000D01*
X176322925Y-76251000D01*
X176165858Y-76219758D01*
X176017898Y-76158470D01*
X175884742Y-76069498D01*
X175771502Y-75956258D01*
X175682530Y-75823102D01*
X175621242Y-75675142D01*
X175590000Y-75518075D01*
X175590000Y-75357925D01*
X175621242Y-75200858D01*
X175682530Y-75052898D01*
X175733293Y-74976926D01*
X175771501Y-74919743D01*
X175884743Y-74806501D01*
X175950870Y-74762317D01*
X176017898Y-74717530D01*
X176165858Y-74656242D01*
X176322925Y-74625000D01*
X176483075Y-74625000D01*
X176640142Y-74656242D01*
X176640142Y-74656242D01*
G37*
G36*
X151494142Y-74275242D02*
X151642102Y-74336530D01*
X151775258Y-74425502D01*
X151888498Y-74538742D01*
X151977470Y-74671898D01*
X152038758Y-74819858D01*
X152070000Y-74976925D01*
X152070000Y-75137075D01*
X152038758Y-75294142D01*
X152012338Y-75357925D01*
X151977471Y-75442100D01*
X151926707Y-75518075D01*
X151888498Y-75575258D01*
X151775258Y-75688498D01*
X151642102Y-75777470D01*
X151494142Y-75838758D01*
X151337075Y-75870000D01*
X151176925Y-75870000D01*
X151019858Y-75838758D01*
X150871898Y-75777470D01*
X150738742Y-75688498D01*
X150625502Y-75575258D01*
X150587294Y-75518075D01*
X150536529Y-75442100D01*
X150501662Y-75357925D01*
X150475242Y-75294142D01*
X150444000Y-75137075D01*
X150444000Y-74976925D01*
X150475242Y-74819858D01*
X150536530Y-74671898D01*
X150625502Y-74538742D01*
X150738742Y-74425502D01*
X150871898Y-74336530D01*
X151019858Y-74275242D01*
X151176925Y-74244000D01*
X151337075Y-74244000D01*
X151494142Y-74275242D01*
X151494142Y-74275242D01*
G37*
G36*
X138540142Y-74275242D02*
X138688102Y-74336530D01*
X138821258Y-74425502D01*
X138934498Y-74538742D01*
X139023470Y-74671898D01*
X139084758Y-74819858D01*
X139116000Y-74976925D01*
X139116000Y-75137075D01*
X139084758Y-75294142D01*
X139058338Y-75357925D01*
X139023471Y-75442100D01*
X138972707Y-75518075D01*
X138934498Y-75575258D01*
X138821258Y-75688498D01*
X138688102Y-75777470D01*
X138540142Y-75838758D01*
X138383075Y-75870000D01*
X138222925Y-75870000D01*
X138065858Y-75838758D01*
X137917898Y-75777470D01*
X137784742Y-75688498D01*
X137671502Y-75575258D01*
X137633294Y-75518075D01*
X137582529Y-75442100D01*
X137547662Y-75357925D01*
X137521242Y-75294142D01*
X137490000Y-75137075D01*
X137490000Y-74976925D01*
X137521242Y-74819858D01*
X137582530Y-74671898D01*
X137671502Y-74538742D01*
X137784742Y-74425502D01*
X137917898Y-74336530D01*
X138065858Y-74275242D01*
X138222925Y-74244000D01*
X138383075Y-74244000D01*
X138540142Y-74275242D01*
X138540142Y-74275242D01*
G37*
G36*
X113394142Y-68941242D02*
X113542102Y-69002530D01*
X113609130Y-69047317D01*
X113675257Y-69091501D01*
X113788499Y-69204743D01*
X113826707Y-69261926D01*
X113877470Y-69337898D01*
X113938758Y-69485858D01*
X113970000Y-69642925D01*
X113970000Y-69803075D01*
X113938758Y-69960142D01*
X113877470Y-70108102D01*
X113788498Y-70241258D01*
X113675258Y-70354498D01*
X113542102Y-70443470D01*
X113394142Y-70504758D01*
X113237075Y-70536000D01*
X113076925Y-70536000D01*
X112919858Y-70504758D01*
X112771898Y-70443470D01*
X112638742Y-70354498D01*
X112525502Y-70241258D01*
X112436530Y-70108102D01*
X112375242Y-69960142D01*
X112344000Y-69803075D01*
X112344000Y-69642925D01*
X112375242Y-69485858D01*
X112436530Y-69337898D01*
X112487293Y-69261926D01*
X112525501Y-69204743D01*
X112638743Y-69091501D01*
X112704870Y-69047317D01*
X112771898Y-69002530D01*
X112919858Y-68941242D01*
X113076925Y-68910000D01*
X113237075Y-68910000D01*
X113394142Y-68941242D01*
X113394142Y-68941242D01*
G37*
G36*
X100440142Y-68941242D02*
X100588102Y-69002530D01*
X100655130Y-69047317D01*
X100721257Y-69091501D01*
X100834499Y-69204743D01*
X100872707Y-69261926D01*
X100923470Y-69337898D01*
X100984758Y-69485858D01*
X101016000Y-69642925D01*
X101016000Y-69803075D01*
X100984758Y-69960142D01*
X100923470Y-70108102D01*
X100834498Y-70241258D01*
X100721258Y-70354498D01*
X100588102Y-70443470D01*
X100440142Y-70504758D01*
X100283075Y-70536000D01*
X100122925Y-70536000D01*
X99965858Y-70504758D01*
X99817898Y-70443470D01*
X99684742Y-70354498D01*
X99571502Y-70241258D01*
X99482530Y-70108102D01*
X99421242Y-69960142D01*
X99390000Y-69803075D01*
X99390000Y-69642925D01*
X99421242Y-69485858D01*
X99482530Y-69337898D01*
X99533293Y-69261926D01*
X99571501Y-69204743D01*
X99684743Y-69091501D01*
X99750870Y-69047317D01*
X99817898Y-69002530D01*
X99965858Y-68941242D01*
X100122925Y-68910000D01*
X100283075Y-68910000D01*
X100440142Y-68941242D01*
X100440142Y-68941242D01*
G37*
G36*
X189594142Y-68560242D02*
X189742102Y-68621530D01*
X189875258Y-68710502D01*
X189988498Y-68823742D01*
X190077470Y-68956898D01*
X190138758Y-69104858D01*
X190170000Y-69261925D01*
X190170000Y-69422075D01*
X190138758Y-69579142D01*
X190112338Y-69642925D01*
X190077471Y-69727100D01*
X190026707Y-69803075D01*
X189988498Y-69860258D01*
X189875258Y-69973498D01*
X189742102Y-70062470D01*
X189594142Y-70123758D01*
X189437075Y-70155000D01*
X189276925Y-70155000D01*
X189119858Y-70123758D01*
X188971898Y-70062470D01*
X188838742Y-69973498D01*
X188725502Y-69860258D01*
X188687294Y-69803075D01*
X188636529Y-69727100D01*
X188601662Y-69642925D01*
X188575242Y-69579142D01*
X188544000Y-69422075D01*
X188544000Y-69261925D01*
X188575242Y-69104858D01*
X188636530Y-68956898D01*
X188725502Y-68823742D01*
X188838742Y-68710502D01*
X188971898Y-68621530D01*
X189119858Y-68560242D01*
X189276925Y-68529000D01*
X189437075Y-68529000D01*
X189594142Y-68560242D01*
X189594142Y-68560242D01*
G37*
G36*
X176640142Y-68560242D02*
X176788102Y-68621530D01*
X176921258Y-68710502D01*
X177034498Y-68823742D01*
X177123470Y-68956898D01*
X177184758Y-69104858D01*
X177216000Y-69261925D01*
X177216000Y-69422075D01*
X177184758Y-69579142D01*
X177158338Y-69642925D01*
X177123471Y-69727100D01*
X177072707Y-69803075D01*
X177034498Y-69860258D01*
X176921258Y-69973498D01*
X176788102Y-70062470D01*
X176640142Y-70123758D01*
X176483075Y-70155000D01*
X176322925Y-70155000D01*
X176165858Y-70123758D01*
X176017898Y-70062470D01*
X175884742Y-69973498D01*
X175771502Y-69860258D01*
X175733294Y-69803075D01*
X175682529Y-69727100D01*
X175647662Y-69642925D01*
X175621242Y-69579142D01*
X175590000Y-69422075D01*
X175590000Y-69261925D01*
X175621242Y-69104858D01*
X175682530Y-68956898D01*
X175771502Y-68823742D01*
X175884742Y-68710502D01*
X176017898Y-68621530D01*
X176165858Y-68560242D01*
X176322925Y-68529000D01*
X176483075Y-68529000D01*
X176640142Y-68560242D01*
X176640142Y-68560242D01*
G37*
G36*
X119490142Y-65131242D02*
X119638102Y-65192530D01*
X119771258Y-65281502D01*
X119884498Y-65394742D01*
X119973470Y-65527898D01*
X120034758Y-65675858D01*
X120066000Y-65832925D01*
X120066000Y-65993075D01*
X120034758Y-66150142D01*
X119973470Y-66298102D01*
X119884498Y-66431258D01*
X119771258Y-66544498D01*
X119638102Y-66633470D01*
X119490142Y-66694758D01*
X119333075Y-66726000D01*
X119172925Y-66726000D01*
X119015858Y-66694758D01*
X118867898Y-66633470D01*
X118734742Y-66544498D01*
X118621502Y-66431258D01*
X118532530Y-66298102D01*
X118471242Y-66150142D01*
X118440000Y-65993075D01*
X118440000Y-65832925D01*
X118471242Y-65675858D01*
X118532530Y-65527898D01*
X118621502Y-65394742D01*
X118734742Y-65281502D01*
X118867898Y-65192530D01*
X119015858Y-65131242D01*
X119172925Y-65100000D01*
X119333075Y-65100000D01*
X119490142Y-65131242D01*
X119490142Y-65131242D01*
G37*
G36*
X157590142Y-65131242D02*
X157738102Y-65192530D01*
X157871258Y-65281502D01*
X157984498Y-65394742D01*
X158073470Y-65527898D01*
X158134758Y-65675858D01*
X158166000Y-65832925D01*
X158166000Y-65993075D01*
X158134758Y-66150142D01*
X158073470Y-66298102D01*
X157984498Y-66431258D01*
X157871258Y-66544498D01*
X157738102Y-66633470D01*
X157590142Y-66694758D01*
X157433075Y-66726000D01*
X157272925Y-66726000D01*
X157115858Y-66694758D01*
X156967898Y-66633470D01*
X156834742Y-66544498D01*
X156721502Y-66431258D01*
X156632530Y-66298102D01*
X156571242Y-66150142D01*
X156540000Y-65993075D01*
X156540000Y-65832925D01*
X156571242Y-65675858D01*
X156632530Y-65527898D01*
X156721502Y-65394742D01*
X156834742Y-65281502D01*
X156967898Y-65192530D01*
X157115858Y-65131242D01*
X157272925Y-65100000D01*
X157433075Y-65100000D01*
X157590142Y-65131242D01*
X157590142Y-65131242D01*
G37*
G36*
X170544142Y-65131242D02*
X170692102Y-65192530D01*
X170825258Y-65281502D01*
X170938498Y-65394742D01*
X171027470Y-65527898D01*
X171088758Y-65675858D01*
X171120000Y-65832925D01*
X171120000Y-65993075D01*
X171088758Y-66150142D01*
X171027470Y-66298102D01*
X170938498Y-66431258D01*
X170825258Y-66544498D01*
X170692102Y-66633470D01*
X170544142Y-66694758D01*
X170387075Y-66726000D01*
X170226925Y-66726000D01*
X170069858Y-66694758D01*
X169921898Y-66633470D01*
X169788742Y-66544498D01*
X169675502Y-66431258D01*
X169586530Y-66298102D01*
X169525242Y-66150142D01*
X169494000Y-65993075D01*
X169494000Y-65832925D01*
X169525242Y-65675858D01*
X169586530Y-65527898D01*
X169675502Y-65394742D01*
X169788742Y-65281502D01*
X169921898Y-65192530D01*
X170069858Y-65131242D01*
X170226925Y-65100000D01*
X170387075Y-65100000D01*
X170544142Y-65131242D01*
X170544142Y-65131242D01*
G37*
G36*
X132444142Y-65131242D02*
X132592102Y-65192530D01*
X132725258Y-65281502D01*
X132838498Y-65394742D01*
X132927470Y-65527898D01*
X132988758Y-65675858D01*
X133020000Y-65832925D01*
X133020000Y-65993075D01*
X132988758Y-66150142D01*
X132927470Y-66298102D01*
X132838498Y-66431258D01*
X132725258Y-66544498D01*
X132592102Y-66633470D01*
X132444142Y-66694758D01*
X132287075Y-66726000D01*
X132126925Y-66726000D01*
X131969858Y-66694758D01*
X131821898Y-66633470D01*
X131688742Y-66544498D01*
X131575502Y-66431258D01*
X131486530Y-66298102D01*
X131425242Y-66150142D01*
X131394000Y-65993075D01*
X131394000Y-65832925D01*
X131425242Y-65675858D01*
X131486530Y-65527898D01*
X131575502Y-65394742D01*
X131688742Y-65281502D01*
X131821898Y-65192530D01*
X131969858Y-65131242D01*
X132126925Y-65100000D01*
X132287075Y-65100000D01*
X132444142Y-65131242D01*
X132444142Y-65131242D01*
G37*
G36*
X195690142Y-65131242D02*
X195838102Y-65192530D01*
X195971258Y-65281502D01*
X196084498Y-65394742D01*
X196173470Y-65527898D01*
X196234758Y-65675858D01*
X196266000Y-65832925D01*
X196266000Y-65993075D01*
X196234758Y-66150142D01*
X196173470Y-66298102D01*
X196084498Y-66431258D01*
X195971258Y-66544498D01*
X195838102Y-66633470D01*
X195690142Y-66694758D01*
X195533075Y-66726000D01*
X195372925Y-66726000D01*
X195215858Y-66694758D01*
X195067898Y-66633470D01*
X194934742Y-66544498D01*
X194821502Y-66431258D01*
X194732530Y-66298102D01*
X194671242Y-66150142D01*
X194640000Y-65993075D01*
X194640000Y-65832925D01*
X194671242Y-65675858D01*
X194732530Y-65527898D01*
X194821502Y-65394742D01*
X194934742Y-65281502D01*
X195067898Y-65192530D01*
X195215858Y-65131242D01*
X195372925Y-65100000D01*
X195533075Y-65100000D01*
X195690142Y-65131242D01*
X195690142Y-65131242D01*
G37*
G36*
X208644142Y-65131242D02*
X208792102Y-65192530D01*
X208925258Y-65281502D01*
X209038498Y-65394742D01*
X209127470Y-65527898D01*
X209188758Y-65675858D01*
X209220000Y-65832925D01*
X209220000Y-65993075D01*
X209188758Y-66150142D01*
X209127470Y-66298102D01*
X209038498Y-66431258D01*
X208925258Y-66544498D01*
X208792102Y-66633470D01*
X208644142Y-66694758D01*
X208487075Y-66726000D01*
X208326925Y-66726000D01*
X208169858Y-66694758D01*
X208021898Y-66633470D01*
X207888742Y-66544498D01*
X207775502Y-66431258D01*
X207686530Y-66298102D01*
X207625242Y-66150142D01*
X207594000Y-65993075D01*
X207594000Y-65832925D01*
X207625242Y-65675858D01*
X207686530Y-65527898D01*
X207775502Y-65394742D01*
X207888742Y-65281502D01*
X208021898Y-65192530D01*
X208169858Y-65131242D01*
X208326925Y-65100000D01*
X208487075Y-65100000D01*
X208644142Y-65131242D01*
X208644142Y-65131242D01*
G37*
G36*
X113394142Y-62845242D02*
X113542102Y-62906530D01*
X113675258Y-62995502D01*
X113788498Y-63108742D01*
X113877470Y-63241898D01*
X113938758Y-63389858D01*
X113970000Y-63546925D01*
X113970000Y-63707075D01*
X113938758Y-63864142D01*
X113877470Y-64012102D01*
X113788498Y-64145258D01*
X113675258Y-64258498D01*
X113542102Y-64347470D01*
X113394142Y-64408758D01*
X113237075Y-64440000D01*
X113076925Y-64440000D01*
X112919858Y-64408758D01*
X112771898Y-64347470D01*
X112638742Y-64258498D01*
X112525502Y-64145258D01*
X112436530Y-64012102D01*
X112375242Y-63864142D01*
X112344000Y-63707075D01*
X112344000Y-63546925D01*
X112375242Y-63389858D01*
X112436530Y-63241898D01*
X112525502Y-63108742D01*
X112638742Y-62995502D01*
X112771898Y-62906530D01*
X112919858Y-62845242D01*
X113076925Y-62814000D01*
X113237075Y-62814000D01*
X113394142Y-62845242D01*
X113394142Y-62845242D01*
G37*
G36*
X100440142Y-62845242D02*
X100588102Y-62906530D01*
X100721258Y-62995502D01*
X100834498Y-63108742D01*
X100923470Y-63241898D01*
X100984758Y-63389858D01*
X101016000Y-63546925D01*
X101016000Y-63707075D01*
X100984758Y-63864142D01*
X100923470Y-64012102D01*
X100834498Y-64145258D01*
X100721258Y-64258498D01*
X100588102Y-64347470D01*
X100440142Y-64408758D01*
X100283075Y-64440000D01*
X100122925Y-64440000D01*
X99965858Y-64408758D01*
X99817898Y-64347470D01*
X99684742Y-64258498D01*
X99571502Y-64145258D01*
X99482530Y-64012102D01*
X99421242Y-63864142D01*
X99390000Y-63707075D01*
X99390000Y-63546925D01*
X99421242Y-63389858D01*
X99482530Y-63241898D01*
X99571502Y-63108742D01*
X99684742Y-62995502D01*
X99817898Y-62906530D01*
X99965858Y-62845242D01*
X100122925Y-62814000D01*
X100283075Y-62814000D01*
X100440142Y-62845242D01*
X100440142Y-62845242D01*
G37*
G36*
X138540142Y-61321242D02*
X138688102Y-61382530D01*
X138821258Y-61471502D01*
X138934498Y-61584742D01*
X139023470Y-61717898D01*
X139084758Y-61865858D01*
X139116000Y-62022925D01*
X139116000Y-62183075D01*
X139084758Y-62340142D01*
X139023470Y-62488102D01*
X138934498Y-62621258D01*
X138821258Y-62734498D01*
X138688102Y-62823470D01*
X138540142Y-62884758D01*
X138383075Y-62916000D01*
X138222925Y-62916000D01*
X138065858Y-62884758D01*
X137917898Y-62823470D01*
X137784742Y-62734498D01*
X137671502Y-62621258D01*
X137582530Y-62488102D01*
X137521242Y-62340142D01*
X137490000Y-62183075D01*
X137490000Y-62022925D01*
X137521242Y-61865858D01*
X137582530Y-61717898D01*
X137671502Y-61584742D01*
X137784742Y-61471502D01*
X137917898Y-61382530D01*
X138065858Y-61321242D01*
X138222925Y-61290000D01*
X138383075Y-61290000D01*
X138540142Y-61321242D01*
X138540142Y-61321242D01*
G37*
G36*
X151494142Y-61321242D02*
X151642102Y-61382530D01*
X151775258Y-61471502D01*
X151888498Y-61584742D01*
X151977470Y-61717898D01*
X152038758Y-61865858D01*
X152070000Y-62022925D01*
X152070000Y-62183075D01*
X152038758Y-62340142D01*
X151977470Y-62488102D01*
X151888498Y-62621258D01*
X151775258Y-62734498D01*
X151642102Y-62823470D01*
X151494142Y-62884758D01*
X151337075Y-62916000D01*
X151176925Y-62916000D01*
X151019858Y-62884758D01*
X150871898Y-62823470D01*
X150738742Y-62734498D01*
X150625502Y-62621258D01*
X150536530Y-62488102D01*
X150475242Y-62340142D01*
X150444000Y-62183075D01*
X150444000Y-62022925D01*
X150475242Y-61865858D01*
X150536530Y-61717898D01*
X150625502Y-61584742D01*
X150738742Y-61471502D01*
X150871898Y-61382530D01*
X151019858Y-61321242D01*
X151176925Y-61290000D01*
X151337075Y-61290000D01*
X151494142Y-61321242D01*
X151494142Y-61321242D01*
G37*
G36*
X132444142Y-59035242D02*
X132592102Y-59096530D01*
X132725258Y-59185502D01*
X132838498Y-59298742D01*
X132927470Y-59431898D01*
X132988758Y-59579858D01*
X133020000Y-59736925D01*
X133020000Y-59897075D01*
X132988758Y-60054142D01*
X132927470Y-60202102D01*
X132838498Y-60335258D01*
X132725258Y-60448498D01*
X132592102Y-60537470D01*
X132444142Y-60598758D01*
X132287075Y-60630000D01*
X132126925Y-60630000D01*
X131969858Y-60598758D01*
X131821898Y-60537470D01*
X131688742Y-60448498D01*
X131575502Y-60335258D01*
X131486530Y-60202102D01*
X131425242Y-60054142D01*
X131394000Y-59897075D01*
X131394000Y-59736925D01*
X131425242Y-59579858D01*
X131486530Y-59431898D01*
X131575502Y-59298742D01*
X131688742Y-59185502D01*
X131821898Y-59096530D01*
X131969858Y-59035242D01*
X132126925Y-59004000D01*
X132287075Y-59004000D01*
X132444142Y-59035242D01*
X132444142Y-59035242D01*
G37*
G36*
X195690142Y-59035242D02*
X195838102Y-59096530D01*
X195971258Y-59185502D01*
X196084498Y-59298742D01*
X196173470Y-59431898D01*
X196234758Y-59579858D01*
X196266000Y-59736925D01*
X196266000Y-59897075D01*
X196234758Y-60054142D01*
X196173470Y-60202102D01*
X196084498Y-60335258D01*
X195971258Y-60448498D01*
X195838102Y-60537470D01*
X195690142Y-60598758D01*
X195533075Y-60630000D01*
X195372925Y-60630000D01*
X195215858Y-60598758D01*
X195067898Y-60537470D01*
X194934742Y-60448498D01*
X194821502Y-60335258D01*
X194732530Y-60202102D01*
X194671242Y-60054142D01*
X194640000Y-59897075D01*
X194640000Y-59736925D01*
X194671242Y-59579858D01*
X194732530Y-59431898D01*
X194821502Y-59298742D01*
X194934742Y-59185502D01*
X195067898Y-59096530D01*
X195215858Y-59035242D01*
X195372925Y-59004000D01*
X195533075Y-59004000D01*
X195690142Y-59035242D01*
X195690142Y-59035242D01*
G37*
G36*
X208644142Y-59035242D02*
X208792102Y-59096530D01*
X208925258Y-59185502D01*
X209038498Y-59298742D01*
X209127470Y-59431898D01*
X209188758Y-59579858D01*
X209220000Y-59736925D01*
X209220000Y-59897075D01*
X209188758Y-60054142D01*
X209127470Y-60202102D01*
X209038498Y-60335258D01*
X208925258Y-60448498D01*
X208792102Y-60537470D01*
X208644142Y-60598758D01*
X208487075Y-60630000D01*
X208326925Y-60630000D01*
X208169858Y-60598758D01*
X208021898Y-60537470D01*
X207888742Y-60448498D01*
X207775502Y-60335258D01*
X207686530Y-60202102D01*
X207625242Y-60054142D01*
X207594000Y-59897075D01*
X207594000Y-59736925D01*
X207625242Y-59579858D01*
X207686530Y-59431898D01*
X207775502Y-59298742D01*
X207888742Y-59185502D01*
X208021898Y-59096530D01*
X208169858Y-59035242D01*
X208326925Y-59004000D01*
X208487075Y-59004000D01*
X208644142Y-59035242D01*
X208644142Y-59035242D01*
G37*
G36*
X157590142Y-59035242D02*
X157738102Y-59096530D01*
X157871258Y-59185502D01*
X157984498Y-59298742D01*
X158073470Y-59431898D01*
X158134758Y-59579858D01*
X158166000Y-59736925D01*
X158166000Y-59897075D01*
X158134758Y-60054142D01*
X158073470Y-60202102D01*
X157984498Y-60335258D01*
X157871258Y-60448498D01*
X157738102Y-60537470D01*
X157590142Y-60598758D01*
X157433075Y-60630000D01*
X157272925Y-60630000D01*
X157115858Y-60598758D01*
X156967898Y-60537470D01*
X156834742Y-60448498D01*
X156721502Y-60335258D01*
X156632530Y-60202102D01*
X156571242Y-60054142D01*
X156540000Y-59897075D01*
X156540000Y-59736925D01*
X156571242Y-59579858D01*
X156632530Y-59431898D01*
X156721502Y-59298742D01*
X156834742Y-59185502D01*
X156967898Y-59096530D01*
X157115858Y-59035242D01*
X157272925Y-59004000D01*
X157433075Y-59004000D01*
X157590142Y-59035242D01*
X157590142Y-59035242D01*
G37*
G36*
X170544142Y-59035242D02*
X170692102Y-59096530D01*
X170825258Y-59185502D01*
X170938498Y-59298742D01*
X171027470Y-59431898D01*
X171088758Y-59579858D01*
X171120000Y-59736925D01*
X171120000Y-59897075D01*
X171088758Y-60054142D01*
X171027470Y-60202102D01*
X170938498Y-60335258D01*
X170825258Y-60448498D01*
X170692102Y-60537470D01*
X170544142Y-60598758D01*
X170387075Y-60630000D01*
X170226925Y-60630000D01*
X170069858Y-60598758D01*
X169921898Y-60537470D01*
X169788742Y-60448498D01*
X169675502Y-60335258D01*
X169586530Y-60202102D01*
X169525242Y-60054142D01*
X169494000Y-59897075D01*
X169494000Y-59736925D01*
X169525242Y-59579858D01*
X169586530Y-59431898D01*
X169675502Y-59298742D01*
X169788742Y-59185502D01*
X169921898Y-59096530D01*
X170069858Y-59035242D01*
X170226925Y-59004000D01*
X170387075Y-59004000D01*
X170544142Y-59035242D01*
X170544142Y-59035242D01*
G37*
G36*
X119490142Y-59035242D02*
X119638102Y-59096530D01*
X119771258Y-59185502D01*
X119884498Y-59298742D01*
X119973470Y-59431898D01*
X120034758Y-59579858D01*
X120066000Y-59736925D01*
X120066000Y-59897075D01*
X120034758Y-60054142D01*
X119973470Y-60202102D01*
X119884498Y-60335258D01*
X119771258Y-60448498D01*
X119638102Y-60537470D01*
X119490142Y-60598758D01*
X119333075Y-60630000D01*
X119172925Y-60630000D01*
X119015858Y-60598758D01*
X118867898Y-60537470D01*
X118734742Y-60448498D01*
X118621502Y-60335258D01*
X118532530Y-60202102D01*
X118471242Y-60054142D01*
X118440000Y-59897075D01*
X118440000Y-59736925D01*
X118471242Y-59579858D01*
X118532530Y-59431898D01*
X118621502Y-59298742D01*
X118734742Y-59185502D01*
X118867898Y-59096530D01*
X119015858Y-59035242D01*
X119172925Y-59004000D01*
X119333075Y-59004000D01*
X119490142Y-59035242D01*
X119490142Y-59035242D01*
G37*
G36*
X189594142Y-55606242D02*
X189742102Y-55667530D01*
X189809130Y-55712317D01*
X189875257Y-55756501D01*
X189988499Y-55869743D01*
X190026707Y-55926926D01*
X190077470Y-56002898D01*
X190138758Y-56150858D01*
X190170000Y-56307925D01*
X190170000Y-56468075D01*
X190138758Y-56625142D01*
X190077470Y-56773102D01*
X189988498Y-56906258D01*
X189875258Y-57019498D01*
X189742102Y-57108470D01*
X189594142Y-57169758D01*
X189437075Y-57201000D01*
X189276925Y-57201000D01*
X189119858Y-57169758D01*
X188971898Y-57108470D01*
X188838742Y-57019498D01*
X188725502Y-56906258D01*
X188636530Y-56773102D01*
X188575242Y-56625142D01*
X188544000Y-56468075D01*
X188544000Y-56307925D01*
X188575242Y-56150858D01*
X188636530Y-56002898D01*
X188687293Y-55926926D01*
X188725501Y-55869743D01*
X188838743Y-55756501D01*
X188904870Y-55712317D01*
X188971898Y-55667530D01*
X189119858Y-55606242D01*
X189276925Y-55575000D01*
X189437075Y-55575000D01*
X189594142Y-55606242D01*
X189594142Y-55606242D01*
G37*
G36*
X176640142Y-55606242D02*
X176788102Y-55667530D01*
X176855130Y-55712317D01*
X176921257Y-55756501D01*
X177034499Y-55869743D01*
X177072707Y-55926926D01*
X177123470Y-56002898D01*
X177184758Y-56150858D01*
X177216000Y-56307925D01*
X177216000Y-56468075D01*
X177184758Y-56625142D01*
X177123470Y-56773102D01*
X177034498Y-56906258D01*
X176921258Y-57019498D01*
X176788102Y-57108470D01*
X176640142Y-57169758D01*
X176483075Y-57201000D01*
X176322925Y-57201000D01*
X176165858Y-57169758D01*
X176017898Y-57108470D01*
X175884742Y-57019498D01*
X175771502Y-56906258D01*
X175682530Y-56773102D01*
X175621242Y-56625142D01*
X175590000Y-56468075D01*
X175590000Y-56307925D01*
X175621242Y-56150858D01*
X175682530Y-56002898D01*
X175733293Y-55926926D01*
X175771501Y-55869743D01*
X175884743Y-55756501D01*
X175950870Y-55712317D01*
X176017898Y-55667530D01*
X176165858Y-55606242D01*
X176322925Y-55575000D01*
X176483075Y-55575000D01*
X176640142Y-55606242D01*
X176640142Y-55606242D01*
G37*
G36*
X151494142Y-55225242D02*
X151642102Y-55286530D01*
X151775258Y-55375502D01*
X151888498Y-55488742D01*
X151977470Y-55621898D01*
X152038758Y-55769858D01*
X152070000Y-55926925D01*
X152070000Y-56087075D01*
X152038758Y-56244142D01*
X152012338Y-56307925D01*
X151977471Y-56392100D01*
X151926707Y-56468075D01*
X151888498Y-56525258D01*
X151775258Y-56638498D01*
X151642102Y-56727470D01*
X151494142Y-56788758D01*
X151337075Y-56820000D01*
X151176925Y-56820000D01*
X151019858Y-56788758D01*
X150871898Y-56727470D01*
X150738742Y-56638498D01*
X150625502Y-56525258D01*
X150587294Y-56468075D01*
X150536529Y-56392100D01*
X150501662Y-56307925D01*
X150475242Y-56244142D01*
X150444000Y-56087075D01*
X150444000Y-55926925D01*
X150475242Y-55769858D01*
X150536530Y-55621898D01*
X150625502Y-55488742D01*
X150738742Y-55375502D01*
X150871898Y-55286530D01*
X151019858Y-55225242D01*
X151176925Y-55194000D01*
X151337075Y-55194000D01*
X151494142Y-55225242D01*
X151494142Y-55225242D01*
G37*
G36*
X138540142Y-55225242D02*
X138688102Y-55286530D01*
X138821258Y-55375502D01*
X138934498Y-55488742D01*
X139023470Y-55621898D01*
X139084758Y-55769858D01*
X139116000Y-55926925D01*
X139116000Y-56087075D01*
X139084758Y-56244142D01*
X139058338Y-56307925D01*
X139023471Y-56392100D01*
X138972707Y-56468075D01*
X138934498Y-56525258D01*
X138821258Y-56638498D01*
X138688102Y-56727470D01*
X138540142Y-56788758D01*
X138383075Y-56820000D01*
X138222925Y-56820000D01*
X138065858Y-56788758D01*
X137917898Y-56727470D01*
X137784742Y-56638498D01*
X137671502Y-56525258D01*
X137633294Y-56468075D01*
X137582529Y-56392100D01*
X137547662Y-56307925D01*
X137521242Y-56244142D01*
X137490000Y-56087075D01*
X137490000Y-55926925D01*
X137521242Y-55769858D01*
X137582530Y-55621898D01*
X137671502Y-55488742D01*
X137784742Y-55375502D01*
X137917898Y-55286530D01*
X138065858Y-55225242D01*
X138222925Y-55194000D01*
X138383075Y-55194000D01*
X138540142Y-55225242D01*
X138540142Y-55225242D01*
G37*
G36*
X113394142Y-49891242D02*
X113542102Y-49952530D01*
X113609130Y-49997317D01*
X113675257Y-50041501D01*
X113788499Y-50154743D01*
X113826707Y-50211926D01*
X113877470Y-50287898D01*
X113938758Y-50435858D01*
X113970000Y-50592925D01*
X113970000Y-50753075D01*
X113938758Y-50910142D01*
X113877470Y-51058102D01*
X113788498Y-51191258D01*
X113675258Y-51304498D01*
X113542102Y-51393470D01*
X113394142Y-51454758D01*
X113237075Y-51486000D01*
X113076925Y-51486000D01*
X112919858Y-51454758D01*
X112771898Y-51393470D01*
X112638742Y-51304498D01*
X112525502Y-51191258D01*
X112436530Y-51058102D01*
X112375242Y-50910142D01*
X112344000Y-50753075D01*
X112344000Y-50592925D01*
X112375242Y-50435858D01*
X112436530Y-50287898D01*
X112487293Y-50211926D01*
X112525501Y-50154743D01*
X112638743Y-50041501D01*
X112704870Y-49997317D01*
X112771898Y-49952530D01*
X112919858Y-49891242D01*
X113076925Y-49860000D01*
X113237075Y-49860000D01*
X113394142Y-49891242D01*
X113394142Y-49891242D01*
G37*
G36*
X100440142Y-49891242D02*
X100588102Y-49952530D01*
X100655130Y-49997317D01*
X100721257Y-50041501D01*
X100834499Y-50154743D01*
X100872707Y-50211926D01*
X100923470Y-50287898D01*
X100984758Y-50435858D01*
X101016000Y-50592925D01*
X101016000Y-50753075D01*
X100984758Y-50910142D01*
X100923470Y-51058102D01*
X100834498Y-51191258D01*
X100721258Y-51304498D01*
X100588102Y-51393470D01*
X100440142Y-51454758D01*
X100283075Y-51486000D01*
X100122925Y-51486000D01*
X99965858Y-51454758D01*
X99817898Y-51393470D01*
X99684742Y-51304498D01*
X99571502Y-51191258D01*
X99482530Y-51058102D01*
X99421242Y-50910142D01*
X99390000Y-50753075D01*
X99390000Y-50592925D01*
X99421242Y-50435858D01*
X99482530Y-50287898D01*
X99533293Y-50211926D01*
X99571501Y-50154743D01*
X99684743Y-50041501D01*
X99750870Y-49997317D01*
X99817898Y-49952530D01*
X99965858Y-49891242D01*
X100122925Y-49860000D01*
X100283075Y-49860000D01*
X100440142Y-49891242D01*
X100440142Y-49891242D01*
G37*
G36*
X189594142Y-49510242D02*
X189742102Y-49571530D01*
X189875258Y-49660502D01*
X189988498Y-49773742D01*
X190077470Y-49906898D01*
X190138758Y-50054858D01*
X190170000Y-50211925D01*
X190170000Y-50372075D01*
X190138758Y-50529142D01*
X190112338Y-50592925D01*
X190077471Y-50677100D01*
X190026707Y-50753075D01*
X189988498Y-50810258D01*
X189875258Y-50923498D01*
X189742102Y-51012470D01*
X189594142Y-51073758D01*
X189437075Y-51105000D01*
X189276925Y-51105000D01*
X189119858Y-51073758D01*
X188971898Y-51012470D01*
X188838742Y-50923498D01*
X188725502Y-50810258D01*
X188687294Y-50753075D01*
X188636529Y-50677100D01*
X188601662Y-50592925D01*
X188575242Y-50529142D01*
X188544000Y-50372075D01*
X188544000Y-50211925D01*
X188575242Y-50054858D01*
X188636530Y-49906898D01*
X188725502Y-49773742D01*
X188838742Y-49660502D01*
X188971898Y-49571530D01*
X189119858Y-49510242D01*
X189276925Y-49479000D01*
X189437075Y-49479000D01*
X189594142Y-49510242D01*
X189594142Y-49510242D01*
G37*
G36*
X176640142Y-49510242D02*
X176788102Y-49571530D01*
X176921258Y-49660502D01*
X177034498Y-49773742D01*
X177123470Y-49906898D01*
X177184758Y-50054858D01*
X177216000Y-50211925D01*
X177216000Y-50372075D01*
X177184758Y-50529142D01*
X177158338Y-50592925D01*
X177123471Y-50677100D01*
X177072707Y-50753075D01*
X177034498Y-50810258D01*
X176921258Y-50923498D01*
X176788102Y-51012470D01*
X176640142Y-51073758D01*
X176483075Y-51105000D01*
X176322925Y-51105000D01*
X176165858Y-51073758D01*
X176017898Y-51012470D01*
X175884742Y-50923498D01*
X175771502Y-50810258D01*
X175733294Y-50753075D01*
X175682529Y-50677100D01*
X175647662Y-50592925D01*
X175621242Y-50529142D01*
X175590000Y-50372075D01*
X175590000Y-50211925D01*
X175621242Y-50054858D01*
X175682530Y-49906898D01*
X175771502Y-49773742D01*
X175884742Y-49660502D01*
X176017898Y-49571530D01*
X176165858Y-49510242D01*
X176322925Y-49479000D01*
X176483075Y-49479000D01*
X176640142Y-49510242D01*
X176640142Y-49510242D01*
G37*
G36*
X132444142Y-46081242D02*
X132592102Y-46142530D01*
X132725258Y-46231502D01*
X132838498Y-46344742D01*
X132927470Y-46477898D01*
X132988758Y-46625858D01*
X133020000Y-46782925D01*
X133020000Y-46943075D01*
X132988758Y-47100142D01*
X132927470Y-47248102D01*
X132838498Y-47381258D01*
X132725258Y-47494498D01*
X132592102Y-47583470D01*
X132444142Y-47644758D01*
X132287075Y-47676000D01*
X132126925Y-47676000D01*
X131969858Y-47644758D01*
X131821898Y-47583470D01*
X131688742Y-47494498D01*
X131575502Y-47381258D01*
X131486530Y-47248102D01*
X131425242Y-47100142D01*
X131394000Y-46943075D01*
X131394000Y-46782925D01*
X131425242Y-46625858D01*
X131486530Y-46477898D01*
X131575502Y-46344742D01*
X131688742Y-46231502D01*
X131821898Y-46142530D01*
X131969858Y-46081242D01*
X132126925Y-46050000D01*
X132287075Y-46050000D01*
X132444142Y-46081242D01*
X132444142Y-46081242D01*
G37*
G36*
X157590142Y-46081242D02*
X157738102Y-46142530D01*
X157871258Y-46231502D01*
X157984498Y-46344742D01*
X158073470Y-46477898D01*
X158134758Y-46625858D01*
X158166000Y-46782925D01*
X158166000Y-46943075D01*
X158134758Y-47100142D01*
X158073470Y-47248102D01*
X157984498Y-47381258D01*
X157871258Y-47494498D01*
X157738102Y-47583470D01*
X157590142Y-47644758D01*
X157433075Y-47676000D01*
X157272925Y-47676000D01*
X157115858Y-47644758D01*
X156967898Y-47583470D01*
X156834742Y-47494498D01*
X156721502Y-47381258D01*
X156632530Y-47248102D01*
X156571242Y-47100142D01*
X156540000Y-46943075D01*
X156540000Y-46782925D01*
X156571242Y-46625858D01*
X156632530Y-46477898D01*
X156721502Y-46344742D01*
X156834742Y-46231502D01*
X156967898Y-46142530D01*
X157115858Y-46081242D01*
X157272925Y-46050000D01*
X157433075Y-46050000D01*
X157590142Y-46081242D01*
X157590142Y-46081242D01*
G37*
G36*
X170544142Y-46081242D02*
X170692102Y-46142530D01*
X170825258Y-46231502D01*
X170938498Y-46344742D01*
X171027470Y-46477898D01*
X171088758Y-46625858D01*
X171120000Y-46782925D01*
X171120000Y-46943075D01*
X171088758Y-47100142D01*
X171027470Y-47248102D01*
X170938498Y-47381258D01*
X170825258Y-47494498D01*
X170692102Y-47583470D01*
X170544142Y-47644758D01*
X170387075Y-47676000D01*
X170226925Y-47676000D01*
X170069858Y-47644758D01*
X169921898Y-47583470D01*
X169788742Y-47494498D01*
X169675502Y-47381258D01*
X169586530Y-47248102D01*
X169525242Y-47100142D01*
X169494000Y-46943075D01*
X169494000Y-46782925D01*
X169525242Y-46625858D01*
X169586530Y-46477898D01*
X169675502Y-46344742D01*
X169788742Y-46231502D01*
X169921898Y-46142530D01*
X170069858Y-46081242D01*
X170226925Y-46050000D01*
X170387075Y-46050000D01*
X170544142Y-46081242D01*
X170544142Y-46081242D01*
G37*
G36*
X195690142Y-46081242D02*
X195838102Y-46142530D01*
X195971258Y-46231502D01*
X196084498Y-46344742D01*
X196173470Y-46477898D01*
X196234758Y-46625858D01*
X196266000Y-46782925D01*
X196266000Y-46943075D01*
X196234758Y-47100142D01*
X196173470Y-47248102D01*
X196084498Y-47381258D01*
X195971258Y-47494498D01*
X195838102Y-47583470D01*
X195690142Y-47644758D01*
X195533075Y-47676000D01*
X195372925Y-47676000D01*
X195215858Y-47644758D01*
X195067898Y-47583470D01*
X194934742Y-47494498D01*
X194821502Y-47381258D01*
X194732530Y-47248102D01*
X194671242Y-47100142D01*
X194640000Y-46943075D01*
X194640000Y-46782925D01*
X194671242Y-46625858D01*
X194732530Y-46477898D01*
X194821502Y-46344742D01*
X194934742Y-46231502D01*
X195067898Y-46142530D01*
X195215858Y-46081242D01*
X195372925Y-46050000D01*
X195533075Y-46050000D01*
X195690142Y-46081242D01*
X195690142Y-46081242D01*
G37*
G36*
X208644142Y-46081242D02*
X208792102Y-46142530D01*
X208925258Y-46231502D01*
X209038498Y-46344742D01*
X209127470Y-46477898D01*
X209188758Y-46625858D01*
X209220000Y-46782925D01*
X209220000Y-46943075D01*
X209188758Y-47100142D01*
X209127470Y-47248102D01*
X209038498Y-47381258D01*
X208925258Y-47494498D01*
X208792102Y-47583470D01*
X208644142Y-47644758D01*
X208487075Y-47676000D01*
X208326925Y-47676000D01*
X208169858Y-47644758D01*
X208021898Y-47583470D01*
X207888742Y-47494498D01*
X207775502Y-47381258D01*
X207686530Y-47248102D01*
X207625242Y-47100142D01*
X207594000Y-46943075D01*
X207594000Y-46782925D01*
X207625242Y-46625858D01*
X207686530Y-46477898D01*
X207775502Y-46344742D01*
X207888742Y-46231502D01*
X208021898Y-46142530D01*
X208169858Y-46081242D01*
X208326925Y-46050000D01*
X208487075Y-46050000D01*
X208644142Y-46081242D01*
X208644142Y-46081242D01*
G37*
G36*
X119490142Y-46081242D02*
X119638102Y-46142530D01*
X119771258Y-46231502D01*
X119884498Y-46344742D01*
X119973470Y-46477898D01*
X120034758Y-46625858D01*
X120066000Y-46782925D01*
X120066000Y-46943075D01*
X120034758Y-47100142D01*
X119973470Y-47248102D01*
X119884498Y-47381258D01*
X119771258Y-47494498D01*
X119638102Y-47583470D01*
X119490142Y-47644758D01*
X119333075Y-47676000D01*
X119172925Y-47676000D01*
X119015858Y-47644758D01*
X118867898Y-47583470D01*
X118734742Y-47494498D01*
X118621502Y-47381258D01*
X118532530Y-47248102D01*
X118471242Y-47100142D01*
X118440000Y-46943075D01*
X118440000Y-46782925D01*
X118471242Y-46625858D01*
X118532530Y-46477898D01*
X118621502Y-46344742D01*
X118734742Y-46231502D01*
X118867898Y-46142530D01*
X119015858Y-46081242D01*
X119172925Y-46050000D01*
X119333075Y-46050000D01*
X119490142Y-46081242D01*
X119490142Y-46081242D01*
G37*
G36*
X100440142Y-43795242D02*
X100588102Y-43856530D01*
X100721258Y-43945502D01*
X100834498Y-44058742D01*
X100923470Y-44191898D01*
X100984758Y-44339858D01*
X101016000Y-44496925D01*
X101016000Y-44657075D01*
X100984758Y-44814142D01*
X100923470Y-44962102D01*
X100834498Y-45095258D01*
X100721258Y-45208498D01*
X100588102Y-45297470D01*
X100440142Y-45358758D01*
X100283075Y-45390000D01*
X100122925Y-45390000D01*
X99965858Y-45358758D01*
X99817898Y-45297470D01*
X99684742Y-45208498D01*
X99571502Y-45095258D01*
X99482530Y-44962102D01*
X99421242Y-44814142D01*
X99390000Y-44657075D01*
X99390000Y-44496925D01*
X99421242Y-44339858D01*
X99482530Y-44191898D01*
X99571502Y-44058742D01*
X99684742Y-43945502D01*
X99817898Y-43856530D01*
X99965858Y-43795242D01*
X100122925Y-43764000D01*
X100283075Y-43764000D01*
X100440142Y-43795242D01*
X100440142Y-43795242D01*
G37*
G36*
X113394142Y-43795242D02*
X113542102Y-43856530D01*
X113675258Y-43945502D01*
X113788498Y-44058742D01*
X113877470Y-44191898D01*
X113938758Y-44339858D01*
X113970000Y-44496925D01*
X113970000Y-44657075D01*
X113938758Y-44814142D01*
X113877470Y-44962102D01*
X113788498Y-45095258D01*
X113675258Y-45208498D01*
X113542102Y-45297470D01*
X113394142Y-45358758D01*
X113237075Y-45390000D01*
X113076925Y-45390000D01*
X112919858Y-45358758D01*
X112771898Y-45297470D01*
X112638742Y-45208498D01*
X112525502Y-45095258D01*
X112436530Y-44962102D01*
X112375242Y-44814142D01*
X112344000Y-44657075D01*
X112344000Y-44496925D01*
X112375242Y-44339858D01*
X112436530Y-44191898D01*
X112525502Y-44058742D01*
X112638742Y-43945502D01*
X112771898Y-43856530D01*
X112919858Y-43795242D01*
X113076925Y-43764000D01*
X113237075Y-43764000D01*
X113394142Y-43795242D01*
X113394142Y-43795242D01*
G37*
G36*
X151494142Y-42271242D02*
X151642102Y-42332530D01*
X151775258Y-42421502D01*
X151888498Y-42534742D01*
X151977470Y-42667898D01*
X152038758Y-42815858D01*
X152070000Y-42972925D01*
X152070000Y-43133075D01*
X152038758Y-43290142D01*
X151977470Y-43438102D01*
X151888498Y-43571258D01*
X151775258Y-43684498D01*
X151642102Y-43773470D01*
X151494142Y-43834758D01*
X151337075Y-43866000D01*
X151176925Y-43866000D01*
X151019858Y-43834758D01*
X150871898Y-43773470D01*
X150738742Y-43684498D01*
X150625502Y-43571258D01*
X150536530Y-43438102D01*
X150475242Y-43290142D01*
X150444000Y-43133075D01*
X150444000Y-42972925D01*
X150475242Y-42815858D01*
X150536530Y-42667898D01*
X150625502Y-42534742D01*
X150738742Y-42421502D01*
X150871898Y-42332530D01*
X151019858Y-42271242D01*
X151176925Y-42240000D01*
X151337075Y-42240000D01*
X151494142Y-42271242D01*
X151494142Y-42271242D01*
G37*
G36*
X138540142Y-42271242D02*
X138688102Y-42332530D01*
X138821258Y-42421502D01*
X138934498Y-42534742D01*
X139023470Y-42667898D01*
X139084758Y-42815858D01*
X139116000Y-42972925D01*
X139116000Y-43133075D01*
X139084758Y-43290142D01*
X139023470Y-43438102D01*
X138934498Y-43571258D01*
X138821258Y-43684498D01*
X138688102Y-43773470D01*
X138540142Y-43834758D01*
X138383075Y-43866000D01*
X138222925Y-43866000D01*
X138065858Y-43834758D01*
X137917898Y-43773470D01*
X137784742Y-43684498D01*
X137671502Y-43571258D01*
X137582530Y-43438102D01*
X137521242Y-43290142D01*
X137490000Y-43133075D01*
X137490000Y-42972925D01*
X137521242Y-42815858D01*
X137582530Y-42667898D01*
X137671502Y-42534742D01*
X137784742Y-42421502D01*
X137917898Y-42332530D01*
X138065858Y-42271242D01*
X138222925Y-42240000D01*
X138383075Y-42240000D01*
X138540142Y-42271242D01*
X138540142Y-42271242D01*
G37*
G36*
X170544142Y-39985242D02*
X170692102Y-40046530D01*
X170825258Y-40135502D01*
X170938498Y-40248742D01*
X171027470Y-40381898D01*
X171088758Y-40529858D01*
X171120000Y-40686925D01*
X171120000Y-40847075D01*
X171088758Y-41004142D01*
X171027470Y-41152102D01*
X170938498Y-41285258D01*
X170825258Y-41398498D01*
X170692102Y-41487470D01*
X170544142Y-41548758D01*
X170387075Y-41580000D01*
X170226925Y-41580000D01*
X170069858Y-41548758D01*
X169921898Y-41487470D01*
X169788742Y-41398498D01*
X169675502Y-41285258D01*
X169586530Y-41152102D01*
X169525242Y-41004142D01*
X169494000Y-40847075D01*
X169494000Y-40686925D01*
X169525242Y-40529858D01*
X169586530Y-40381898D01*
X169675502Y-40248742D01*
X169788742Y-40135502D01*
X169921898Y-40046530D01*
X170069858Y-39985242D01*
X170226925Y-39954000D01*
X170387075Y-39954000D01*
X170544142Y-39985242D01*
X170544142Y-39985242D01*
G37*
G36*
X119490142Y-39985242D02*
X119638102Y-40046530D01*
X119771258Y-40135502D01*
X119884498Y-40248742D01*
X119973470Y-40381898D01*
X120034758Y-40529858D01*
X120066000Y-40686925D01*
X120066000Y-40847075D01*
X120034758Y-41004142D01*
X119973470Y-41152102D01*
X119884498Y-41285258D01*
X119771258Y-41398498D01*
X119638102Y-41487470D01*
X119490142Y-41548758D01*
X119333075Y-41580000D01*
X119172925Y-41580000D01*
X119015858Y-41548758D01*
X118867898Y-41487470D01*
X118734742Y-41398498D01*
X118621502Y-41285258D01*
X118532530Y-41152102D01*
X118471242Y-41004142D01*
X118440000Y-40847075D01*
X118440000Y-40686925D01*
X118471242Y-40529858D01*
X118532530Y-40381898D01*
X118621502Y-40248742D01*
X118734742Y-40135502D01*
X118867898Y-40046530D01*
X119015858Y-39985242D01*
X119172925Y-39954000D01*
X119333075Y-39954000D01*
X119490142Y-39985242D01*
X119490142Y-39985242D01*
G37*
G36*
X132444142Y-39985242D02*
X132592102Y-40046530D01*
X132725258Y-40135502D01*
X132838498Y-40248742D01*
X132927470Y-40381898D01*
X132988758Y-40529858D01*
X133020000Y-40686925D01*
X133020000Y-40847075D01*
X132988758Y-41004142D01*
X132927470Y-41152102D01*
X132838498Y-41285258D01*
X132725258Y-41398498D01*
X132592102Y-41487470D01*
X132444142Y-41548758D01*
X132287075Y-41580000D01*
X132126925Y-41580000D01*
X131969858Y-41548758D01*
X131821898Y-41487470D01*
X131688742Y-41398498D01*
X131575502Y-41285258D01*
X131486530Y-41152102D01*
X131425242Y-41004142D01*
X131394000Y-40847075D01*
X131394000Y-40686925D01*
X131425242Y-40529858D01*
X131486530Y-40381898D01*
X131575502Y-40248742D01*
X131688742Y-40135502D01*
X131821898Y-40046530D01*
X131969858Y-39985242D01*
X132126925Y-39954000D01*
X132287075Y-39954000D01*
X132444142Y-39985242D01*
X132444142Y-39985242D01*
G37*
G36*
X157590142Y-39985242D02*
X157738102Y-40046530D01*
X157871258Y-40135502D01*
X157984498Y-40248742D01*
X158073470Y-40381898D01*
X158134758Y-40529858D01*
X158166000Y-40686925D01*
X158166000Y-40847075D01*
X158134758Y-41004142D01*
X158073470Y-41152102D01*
X157984498Y-41285258D01*
X157871258Y-41398498D01*
X157738102Y-41487470D01*
X157590142Y-41548758D01*
X157433075Y-41580000D01*
X157272925Y-41580000D01*
X157115858Y-41548758D01*
X156967898Y-41487470D01*
X156834742Y-41398498D01*
X156721502Y-41285258D01*
X156632530Y-41152102D01*
X156571242Y-41004142D01*
X156540000Y-40847075D01*
X156540000Y-40686925D01*
X156571242Y-40529858D01*
X156632530Y-40381898D01*
X156721502Y-40248742D01*
X156834742Y-40135502D01*
X156967898Y-40046530D01*
X157115858Y-39985242D01*
X157272925Y-39954000D01*
X157433075Y-39954000D01*
X157590142Y-39985242D01*
X157590142Y-39985242D01*
G37*
G36*
X202528252Y-34857818D02*
X202528254Y-34857819D01*
X202528255Y-34857819D01*
X202901513Y-35012427D01*
X202901514Y-35012428D01*
X203237439Y-35236886D01*
X203523114Y-35522561D01*
X203523116Y-35522564D01*
X203747573Y-35858487D01*
X203878777Y-36175243D01*
X203902182Y-36231748D01*
X203981000Y-36627993D01*
X203981000Y-37032007D01*
X203904207Y-37418074D01*
X203902181Y-37428255D01*
X203747573Y-37801513D01*
X203747572Y-37801514D01*
X203523114Y-38137439D01*
X203237439Y-38423114D01*
X203237436Y-38423116D01*
X202901513Y-38647573D01*
X202528255Y-38802181D01*
X202528254Y-38802181D01*
X202528252Y-38802182D01*
X202132007Y-38881000D01*
X201727993Y-38881000D01*
X201331748Y-38802182D01*
X201331746Y-38802181D01*
X201331745Y-38802181D01*
X200958487Y-38647573D01*
X200622564Y-38423116D01*
X200622561Y-38423114D01*
X200336886Y-38137439D01*
X200112428Y-37801514D01*
X200112427Y-37801513D01*
X199957819Y-37428255D01*
X199955794Y-37418074D01*
X199879000Y-37032007D01*
X199879000Y-36627993D01*
X199957818Y-36231748D01*
X199981223Y-36175243D01*
X200112427Y-35858487D01*
X200336884Y-35522564D01*
X200336886Y-35522561D01*
X200622561Y-35236886D01*
X200958486Y-35012428D01*
X200958487Y-35012427D01*
X201331745Y-34857819D01*
X201331746Y-34857819D01*
X201331748Y-34857818D01*
X201727993Y-34779000D01*
X202132007Y-34779000D01*
X202528252Y-34857818D01*
X202528252Y-34857818D01*
G37*
G36*
X189594142Y-36556242D02*
X189742102Y-36617530D01*
X189757761Y-36627993D01*
X189875257Y-36706501D01*
X189988499Y-36819743D01*
X190026707Y-36876926D01*
X190077470Y-36952898D01*
X190138758Y-37100858D01*
X190170000Y-37257925D01*
X190170000Y-37418075D01*
X190138758Y-37575142D01*
X190077470Y-37723102D01*
X189988498Y-37856258D01*
X189875258Y-37969498D01*
X189742102Y-38058470D01*
X189594142Y-38119758D01*
X189437075Y-38151000D01*
X189276925Y-38151000D01*
X189119858Y-38119758D01*
X188971898Y-38058470D01*
X188838742Y-37969498D01*
X188725502Y-37856258D01*
X188636530Y-37723102D01*
X188575242Y-37575142D01*
X188544000Y-37418075D01*
X188544000Y-37257925D01*
X188575242Y-37100858D01*
X188636530Y-36952898D01*
X188687293Y-36876926D01*
X188725501Y-36819743D01*
X188838743Y-36706501D01*
X188956239Y-36627993D01*
X188971898Y-36617530D01*
X189119858Y-36556242D01*
X189276925Y-36525000D01*
X189437075Y-36525000D01*
X189594142Y-36556242D01*
X189594142Y-36556242D01*
G37*
G36*
X176640142Y-36556242D02*
X176788102Y-36617530D01*
X176803761Y-36627993D01*
X176921257Y-36706501D01*
X177034499Y-36819743D01*
X177072707Y-36876926D01*
X177123470Y-36952898D01*
X177184758Y-37100858D01*
X177216000Y-37257925D01*
X177216000Y-37418075D01*
X177184758Y-37575142D01*
X177123470Y-37723102D01*
X177034498Y-37856258D01*
X176921258Y-37969498D01*
X176788102Y-38058470D01*
X176640142Y-38119758D01*
X176483075Y-38151000D01*
X176322925Y-38151000D01*
X176165858Y-38119758D01*
X176017898Y-38058470D01*
X175884742Y-37969498D01*
X175771502Y-37856258D01*
X175682530Y-37723102D01*
X175621242Y-37575142D01*
X175590000Y-37418075D01*
X175590000Y-37257925D01*
X175621242Y-37100858D01*
X175682530Y-36952898D01*
X175733293Y-36876926D01*
X175771501Y-36819743D01*
X175884743Y-36706501D01*
X176002239Y-36627993D01*
X176017898Y-36617530D01*
X176165858Y-36556242D01*
X176322925Y-36525000D01*
X176483075Y-36525000D01*
X176640142Y-36556242D01*
X176640142Y-36556242D01*
G37*
G36*
X138540142Y-36175242D02*
X138654583Y-36222646D01*
X138676558Y-36231748D01*
X138688102Y-36236530D01*
X138821258Y-36325502D01*
X138934498Y-36438742D01*
X139023470Y-36571898D01*
X139084758Y-36719858D01*
X139116000Y-36876925D01*
X139116000Y-37037075D01*
X139084758Y-37194142D01*
X139058338Y-37257925D01*
X139023471Y-37342100D01*
X138965907Y-37428252D01*
X138934498Y-37475258D01*
X138821258Y-37588498D01*
X138688102Y-37677470D01*
X138540142Y-37738758D01*
X138383075Y-37770000D01*
X138222925Y-37770000D01*
X138065858Y-37738758D01*
X137917898Y-37677470D01*
X137784742Y-37588498D01*
X137671502Y-37475258D01*
X137640094Y-37428252D01*
X137582529Y-37342100D01*
X137547662Y-37257925D01*
X137521242Y-37194142D01*
X137490000Y-37037075D01*
X137490000Y-36876925D01*
X137521242Y-36719858D01*
X137582530Y-36571898D01*
X137671502Y-36438742D01*
X137784742Y-36325502D01*
X137917898Y-36236530D01*
X137929443Y-36231748D01*
X137951417Y-36222646D01*
X138065858Y-36175242D01*
X138222925Y-36144000D01*
X138383075Y-36144000D01*
X138540142Y-36175242D01*
X138540142Y-36175242D01*
G37*
G36*
X151494142Y-36175242D02*
X151608583Y-36222646D01*
X151630558Y-36231748D01*
X151642102Y-36236530D01*
X151775258Y-36325502D01*
X151888498Y-36438742D01*
X151977470Y-36571898D01*
X152038758Y-36719858D01*
X152070000Y-36876925D01*
X152070000Y-37037075D01*
X152038758Y-37194142D01*
X152012338Y-37257925D01*
X151977471Y-37342100D01*
X151919907Y-37428252D01*
X151888498Y-37475258D01*
X151775258Y-37588498D01*
X151642102Y-37677470D01*
X151494142Y-37738758D01*
X151337075Y-37770000D01*
X151176925Y-37770000D01*
X151019858Y-37738758D01*
X150871898Y-37677470D01*
X150738742Y-37588498D01*
X150625502Y-37475258D01*
X150594094Y-37428252D01*
X150536529Y-37342100D01*
X150501662Y-37257925D01*
X150475242Y-37194142D01*
X150444000Y-37037075D01*
X150444000Y-36876925D01*
X150475242Y-36719858D01*
X150536530Y-36571898D01*
X150625502Y-36438742D01*
X150738742Y-36325502D01*
X150871898Y-36236530D01*
X150883443Y-36231748D01*
X150905417Y-36222646D01*
X151019858Y-36175242D01*
X151176925Y-36144000D01*
X151337075Y-36144000D01*
X151494142Y-36175242D01*
X151494142Y-36175242D01*
G37*
G36*
X100440142Y-30841242D02*
X100588102Y-30902530D01*
X100721258Y-30991502D01*
X100834498Y-31104742D01*
X100923470Y-31237898D01*
X100984758Y-31385858D01*
X101016000Y-31542925D01*
X101016000Y-31703075D01*
X100984758Y-31860142D01*
X100923470Y-32008102D01*
X100834498Y-32141258D01*
X100721258Y-32254498D01*
X100588102Y-32343470D01*
X100440142Y-32404758D01*
X100283075Y-32436000D01*
X100122925Y-32436000D01*
X99965858Y-32404758D01*
X99817898Y-32343470D01*
X99684742Y-32254498D01*
X99571502Y-32141258D01*
X99482530Y-32008102D01*
X99421242Y-31860142D01*
X99390000Y-31703075D01*
X99390000Y-31542925D01*
X99421242Y-31385858D01*
X99482530Y-31237898D01*
X99571502Y-31104742D01*
X99684742Y-30991502D01*
X99817898Y-30902530D01*
X99965858Y-30841242D01*
X100122925Y-30810000D01*
X100283075Y-30810000D01*
X100440142Y-30841242D01*
X100440142Y-30841242D01*
G37*
G36*
X113394142Y-30841242D02*
X113542102Y-30902530D01*
X113675258Y-30991502D01*
X113788498Y-31104742D01*
X113877470Y-31237898D01*
X113938758Y-31385858D01*
X113970000Y-31542925D01*
X113970000Y-31703075D01*
X113938758Y-31860142D01*
X113877470Y-32008102D01*
X113788498Y-32141258D01*
X113675258Y-32254498D01*
X113542102Y-32343470D01*
X113394142Y-32404758D01*
X113237075Y-32436000D01*
X113076925Y-32436000D01*
X112919858Y-32404758D01*
X112771898Y-32343470D01*
X112638742Y-32254498D01*
X112525502Y-32141258D01*
X112436530Y-32008102D01*
X112375242Y-31860142D01*
X112344000Y-31703075D01*
X112344000Y-31542925D01*
X112375242Y-31385858D01*
X112436530Y-31237898D01*
X112525502Y-31104742D01*
X112638742Y-30991502D01*
X112771898Y-30902530D01*
X112919858Y-30841242D01*
X113076925Y-30810000D01*
X113237075Y-30810000D01*
X113394142Y-30841242D01*
X113394142Y-30841242D01*
G37*
G36*
X119490142Y-27031242D02*
X119638102Y-27092530D01*
X119771258Y-27181502D01*
X119884498Y-27294742D01*
X119973470Y-27427898D01*
X120034758Y-27575858D01*
X120066000Y-27732925D01*
X120066000Y-27893075D01*
X120034758Y-28050142D01*
X119973470Y-28198102D01*
X119884498Y-28331258D01*
X119771258Y-28444498D01*
X119638102Y-28533470D01*
X119490142Y-28594758D01*
X119333075Y-28626000D01*
X119172925Y-28626000D01*
X119015858Y-28594758D01*
X118867898Y-28533470D01*
X118734742Y-28444498D01*
X118621502Y-28331258D01*
X118532530Y-28198102D01*
X118471242Y-28050142D01*
X118440000Y-27893075D01*
X118440000Y-27732925D01*
X118471242Y-27575858D01*
X118532530Y-27427898D01*
X118621502Y-27294742D01*
X118734742Y-27181502D01*
X118867898Y-27092530D01*
X119015858Y-27031242D01*
X119172925Y-27000000D01*
X119333075Y-27000000D01*
X119490142Y-27031242D01*
X119490142Y-27031242D01*
G37*
G36*
X157590142Y-27031242D02*
X157738102Y-27092530D01*
X157871258Y-27181502D01*
X157984498Y-27294742D01*
X158073470Y-27427898D01*
X158134758Y-27575858D01*
X158166000Y-27732925D01*
X158166000Y-27893075D01*
X158134758Y-28050142D01*
X158073470Y-28198102D01*
X157984498Y-28331258D01*
X157871258Y-28444498D01*
X157738102Y-28533470D01*
X157590142Y-28594758D01*
X157433075Y-28626000D01*
X157272925Y-28626000D01*
X157115858Y-28594758D01*
X156967898Y-28533470D01*
X156834742Y-28444498D01*
X156721502Y-28331258D01*
X156632530Y-28198102D01*
X156571242Y-28050142D01*
X156540000Y-27893075D01*
X156540000Y-27732925D01*
X156571242Y-27575858D01*
X156632530Y-27427898D01*
X156721502Y-27294742D01*
X156834742Y-27181502D01*
X156967898Y-27092530D01*
X157115858Y-27031242D01*
X157272925Y-27000000D01*
X157433075Y-27000000D01*
X157590142Y-27031242D01*
X157590142Y-27031242D01*
G37*
G36*
X170544142Y-27031242D02*
X170692102Y-27092530D01*
X170825258Y-27181502D01*
X170938498Y-27294742D01*
X171027470Y-27427898D01*
X171088758Y-27575858D01*
X171120000Y-27732925D01*
X171120000Y-27893075D01*
X171088758Y-28050142D01*
X171027470Y-28198102D01*
X170938498Y-28331258D01*
X170825258Y-28444498D01*
X170692102Y-28533470D01*
X170544142Y-28594758D01*
X170387075Y-28626000D01*
X170226925Y-28626000D01*
X170069858Y-28594758D01*
X169921898Y-28533470D01*
X169788742Y-28444498D01*
X169675502Y-28331258D01*
X169586530Y-28198102D01*
X169525242Y-28050142D01*
X169494000Y-27893075D01*
X169494000Y-27732925D01*
X169525242Y-27575858D01*
X169586530Y-27427898D01*
X169675502Y-27294742D01*
X169788742Y-27181502D01*
X169921898Y-27092530D01*
X170069858Y-27031242D01*
X170226925Y-27000000D01*
X170387075Y-27000000D01*
X170544142Y-27031242D01*
X170544142Y-27031242D01*
G37*
G36*
X132444142Y-27031242D02*
X132592102Y-27092530D01*
X132725258Y-27181502D01*
X132838498Y-27294742D01*
X132927470Y-27427898D01*
X132988758Y-27575858D01*
X133020000Y-27732925D01*
X133020000Y-27893075D01*
X132988758Y-28050142D01*
X132927470Y-28198102D01*
X132838498Y-28331258D01*
X132725258Y-28444498D01*
X132592102Y-28533470D01*
X132444142Y-28594758D01*
X132287075Y-28626000D01*
X132126925Y-28626000D01*
X131969858Y-28594758D01*
X131821898Y-28533470D01*
X131688742Y-28444498D01*
X131575502Y-28331258D01*
X131486530Y-28198102D01*
X131425242Y-28050142D01*
X131394000Y-27893075D01*
X131394000Y-27732925D01*
X131425242Y-27575858D01*
X131486530Y-27427898D01*
X131575502Y-27294742D01*
X131688742Y-27181502D01*
X131821898Y-27092530D01*
X131969858Y-27031242D01*
X132126925Y-27000000D01*
X132287075Y-27000000D01*
X132444142Y-27031242D01*
X132444142Y-27031242D01*
G37*
G36*
X107278252Y-22792818D02*
X107278254Y-22792819D01*
X107278255Y-22792819D01*
X107651513Y-22947427D01*
X107651514Y-22947428D01*
X107987439Y-23171886D01*
X108273114Y-23457561D01*
X108273116Y-23457564D01*
X108497573Y-23793487D01*
X108551188Y-23922926D01*
X108652182Y-24166748D01*
X108696212Y-24388102D01*
X108731000Y-24562994D01*
X108731000Y-24967006D01*
X108652181Y-25363255D01*
X108497573Y-25736513D01*
X108497572Y-25736514D01*
X108273114Y-26072439D01*
X107987439Y-26358114D01*
X107987436Y-26358116D01*
X107651513Y-26582573D01*
X107278255Y-26737181D01*
X107278254Y-26737181D01*
X107278252Y-26737182D01*
X106882007Y-26816000D01*
X106477993Y-26816000D01*
X106081748Y-26737182D01*
X106081746Y-26737181D01*
X106081745Y-26737181D01*
X105708487Y-26582573D01*
X105372564Y-26358116D01*
X105372561Y-26358114D01*
X105086886Y-26072439D01*
X104862428Y-25736514D01*
X104862427Y-25736513D01*
X104707819Y-25363255D01*
X104629000Y-24967006D01*
X104629000Y-24562994D01*
X104663788Y-24388102D01*
X104707818Y-24166748D01*
X104808812Y-23922926D01*
X104862427Y-23793487D01*
X105086884Y-23457564D01*
X105086886Y-23457561D01*
X105372561Y-23171886D01*
X105708486Y-22947428D01*
X105708487Y-22947427D01*
X106081745Y-22792819D01*
X106081746Y-22792819D01*
X106081748Y-22792818D01*
X106477993Y-22714000D01*
X106882007Y-22714000D01*
X107278252Y-22792818D01*
X107278252Y-22792818D01*
G37*
G36*
X151494142Y-23221242D02*
X151642102Y-23282530D01*
X151775258Y-23371502D01*
X151888498Y-23484742D01*
X151977470Y-23617898D01*
X152038758Y-23765858D01*
X152070000Y-23922925D01*
X152070000Y-24083075D01*
X152038758Y-24240142D01*
X151977470Y-24388102D01*
X151888498Y-24521258D01*
X151775258Y-24634498D01*
X151642102Y-24723470D01*
X151494142Y-24784758D01*
X151337075Y-24816000D01*
X151176925Y-24816000D01*
X151019858Y-24784758D01*
X150871898Y-24723470D01*
X150738742Y-24634498D01*
X150625502Y-24521258D01*
X150536530Y-24388102D01*
X150475242Y-24240142D01*
X150444000Y-24083075D01*
X150444000Y-23922925D01*
X150475242Y-23765858D01*
X150536530Y-23617898D01*
X150625502Y-23484742D01*
X150738742Y-23371502D01*
X150871898Y-23282530D01*
X151019858Y-23221242D01*
X151176925Y-23190000D01*
X151337075Y-23190000D01*
X151494142Y-23221242D01*
X151494142Y-23221242D01*
G37*
G36*
X138540142Y-23221242D02*
X138688102Y-23282530D01*
X138821258Y-23371502D01*
X138934498Y-23484742D01*
X139023470Y-23617898D01*
X139084758Y-23765858D01*
X139116000Y-23922925D01*
X139116000Y-24083075D01*
X139084758Y-24240142D01*
X139023470Y-24388102D01*
X138934498Y-24521258D01*
X138821258Y-24634498D01*
X138688102Y-24723470D01*
X138540142Y-24784758D01*
X138383075Y-24816000D01*
X138222925Y-24816000D01*
X138065858Y-24784758D01*
X137917898Y-24723470D01*
X137784742Y-24634498D01*
X137671502Y-24521258D01*
X137582530Y-24388102D01*
X137521242Y-24240142D01*
X137490000Y-24083075D01*
X137490000Y-23922925D01*
X137521242Y-23765858D01*
X137582530Y-23617898D01*
X137671502Y-23484742D01*
X137784742Y-23371502D01*
X137917898Y-23282530D01*
X138065858Y-23221242D01*
X138222925Y-23190000D01*
X138383075Y-23190000D01*
X138540142Y-23221242D01*
X138540142Y-23221242D01*
G37*
M02*
