M48
;DRILL file {KiCad 5.0.2-bee76a0~70~ubuntu18.04.1} date 2019年07月29日 20時21分31秒
;FORMAT={-:-/ absolute / inch / decimal}
FMAT,2
INCH,TZ
T1C0.0591
T2C0.0866
%
G90
G05
T1
X6.6391Y-3.6034
X6.6391Y-4.1134
X7.1491Y-3.6034
X7.1491Y-4.1134
X2.8891Y-4.2034
X2.8891Y-4.7134
X3.3991Y-4.2034
X3.3991Y-4.7134
X3.6391Y-3.0784
X3.6391Y-3.5884
X4.1491Y-3.0784
X4.1491Y-3.5884
X6.4141Y-4.4284
X6.4141Y-4.9384
X6.9241Y-4.4284
X6.9241Y-4.9384
X5.8891Y-3.4534
X5.8891Y-3.9634
X6.3991Y-3.4534
X6.3991Y-3.9634
X5.1391Y-1.8034
X5.1391Y-2.3134
X5.6491Y-1.8034
X5.6491Y-2.3134
X5.1391Y-3.3034
X5.1391Y-3.8134
X5.6491Y-3.3034
X5.6491Y-3.8134
X5.8891Y-2.7034
X5.8891Y-3.2134
X6.3991Y-2.7034
X6.3991Y-3.2134
X7.2958Y-4.8768
X7.5508Y-4.4351
X7.7374Y-5.1318
X7.9924Y-4.6901
X6.6391Y-2.1034
X6.6391Y-2.6134
X7.1491Y-2.1034
X7.1491Y-2.6134
X4.3891Y-3.4534
X4.3891Y-3.9634
X4.8991Y-3.4534
X4.8991Y-3.9634
X2.8891Y-2.7034
X2.8891Y-3.2134
X3.3991Y-2.7034
X3.3991Y-3.2134
X3.6391Y-3.8284
X3.6391Y-4.3384
X4.1491Y-3.8284
X4.1491Y-4.3384
X3.6391Y-2.3284
X3.6391Y-2.8384
X4.1491Y-2.3284
X4.1491Y-2.8384
X5.1391Y-2.5534
X5.1391Y-3.0634
X5.6491Y-2.5534
X5.6491Y-3.0634
X5.8891Y-1.9534
X5.8891Y-2.4634
X6.3991Y-1.9534
X6.3991Y-2.4634
X7.9458Y-5.2518
X8.2008Y-4.8101
X8.3874Y-5.5068
X8.6424Y-5.0651
X5.6641Y-4.2784
X5.6641Y-4.7884
X6.1741Y-4.2784
X6.1741Y-4.7884
X6.6391Y-2.8534
X6.6391Y-3.3634
X7.1491Y-2.8534
X7.1491Y-3.3634
X4.3891Y-2.7034
X4.3891Y-3.2134
X4.8991Y-2.7034
X4.8991Y-3.2134
X4.3891Y-1.9534
X4.3891Y-2.4634
X4.8991Y-1.9534
X4.8991Y-2.4634
X2.8891Y-3.4534
X2.8891Y-3.9634
X3.3991Y-3.4534
X3.3991Y-3.9634
T2
X8.7191Y-5.4084
X3.1441Y-2.3084
X6.8941Y-1.8334
X3.1441Y-4.9584
T0
M30
