G04 #@! TF.GenerationSoftware,KiCad,Pcbnew,5.0.2-bee76a0~70~ubuntu18.04.1*
G04 #@! TF.CreationDate,2019-07-25T02:00:29+09:00*
G04 #@! TF.ProjectId,topR,746f7052-2e6b-4696-9361-645f70636258,rev?*
G04 #@! TF.SameCoordinates,Original*
G04 #@! TF.FileFunction,Soldermask,Top*
G04 #@! TF.FilePolarity,Negative*
%FSLAX46Y46*%
G04 Gerber Fmt 4.6, Leading zero omitted, Abs format (unit mm)*
G04 Created by KiCad (PCBNEW 5.0.2-bee76a0~70~ubuntu18.04.1) date 2019年07月25日 02時00分29秒*
%MOMM*%
%LPD*%
G01*
G04 APERTURE LIST*
%ADD10C,0.150000*%
%ADD11C,0.100000*%
G04 APERTURE END LIST*
D10*
G36*
X184785000Y-99060000D02*
X226060000Y-123190000D01*
X226060000Y-140335000D01*
X212090000Y-148590000D01*
X178435000Y-129540000D01*
X69850000Y-129540000D01*
X69850000Y-53340000D01*
X127635000Y-42545000D01*
X184785000Y-42545000D01*
X184785000Y-99060000D01*
G37*
X184785000Y-99060000D02*
X226060000Y-123190000D01*
X226060000Y-140335000D01*
X212090000Y-148590000D01*
X178435000Y-129540000D01*
X69850000Y-129540000D01*
X69850000Y-53340000D01*
X127635000Y-42545000D01*
X184785000Y-42545000D01*
X184785000Y-99060000D01*
D11*
G36*
X213277730Y-139090415D02*
X213425690Y-139151703D01*
X213558846Y-139240675D01*
X213672086Y-139353915D01*
X213761058Y-139487071D01*
X213822346Y-139635031D01*
X213853588Y-139792098D01*
X213853588Y-139952248D01*
X213822346Y-140109315D01*
X213761058Y-140257275D01*
X213672086Y-140390431D01*
X213558846Y-140503671D01*
X213425690Y-140592643D01*
X213277730Y-140653931D01*
X213120663Y-140685173D01*
X212960513Y-140685173D01*
X212803446Y-140653931D01*
X212655486Y-140592643D01*
X212522330Y-140503671D01*
X212409090Y-140390431D01*
X212320118Y-140257275D01*
X212258830Y-140109315D01*
X212227588Y-139952248D01*
X212227588Y-139792098D01*
X212258830Y-139635031D01*
X212320118Y-139487071D01*
X212409090Y-139353915D01*
X212522330Y-139240675D01*
X212655486Y-139151703D01*
X212803446Y-139090415D01*
X212960513Y-139059173D01*
X213120663Y-139059173D01*
X213277730Y-139090415D01*
X213277730Y-139090415D01*
G37*
G36*
X222063093Y-135402244D02*
X222063095Y-135402245D01*
X222063096Y-135402245D01*
X222436354Y-135556853D01*
X222436355Y-135556854D01*
X222772280Y-135781312D01*
X223057955Y-136066987D01*
X223057957Y-136066990D01*
X223282414Y-136402913D01*
X223437022Y-136776171D01*
X223515841Y-137172420D01*
X223515841Y-137576432D01*
X223437022Y-137972681D01*
X223282414Y-138345939D01*
X223282413Y-138345940D01*
X223057955Y-138681865D01*
X222772280Y-138967540D01*
X222772277Y-138967542D01*
X222436354Y-139191999D01*
X222063096Y-139346607D01*
X222063095Y-139346607D01*
X222063093Y-139346608D01*
X221666848Y-139425426D01*
X221262834Y-139425426D01*
X220866589Y-139346608D01*
X220866587Y-139346607D01*
X220866586Y-139346607D01*
X220493328Y-139191999D01*
X220157405Y-138967542D01*
X220157402Y-138967540D01*
X219871727Y-138681865D01*
X219647269Y-138345940D01*
X219647268Y-138345939D01*
X219492660Y-137972681D01*
X219413841Y-137576432D01*
X219413841Y-137172420D01*
X219492660Y-136776171D01*
X219647268Y-136402913D01*
X219871725Y-136066990D01*
X219871727Y-136066987D01*
X220157402Y-135781312D01*
X220493327Y-135556854D01*
X220493328Y-135556853D01*
X220866586Y-135402245D01*
X220866587Y-135402245D01*
X220866589Y-135402244D01*
X221262834Y-135323426D01*
X221666848Y-135323426D01*
X222063093Y-135402244D01*
X222063093Y-135402244D01*
G37*
G36*
X202059236Y-132613415D02*
X202207196Y-132674703D01*
X202340352Y-132763675D01*
X202453592Y-132876915D01*
X202542564Y-133010071D01*
X202603852Y-133158031D01*
X202635094Y-133315098D01*
X202635094Y-133475248D01*
X202603852Y-133632315D01*
X202542564Y-133780275D01*
X202453592Y-133913431D01*
X202340352Y-134026671D01*
X202207196Y-134115643D01*
X202059236Y-134176931D01*
X201902169Y-134208173D01*
X201742019Y-134208173D01*
X201584952Y-134176931D01*
X201436992Y-134115643D01*
X201303836Y-134026671D01*
X201190596Y-133913431D01*
X201101624Y-133780275D01*
X201040336Y-133632315D01*
X201009094Y-133475248D01*
X201009094Y-133315098D01*
X201040336Y-133158031D01*
X201101624Y-133010071D01*
X201190596Y-132876915D01*
X201303836Y-132763675D01*
X201436992Y-132674703D01*
X201584952Y-132613415D01*
X201742019Y-132582173D01*
X201902169Y-132582173D01*
X202059236Y-132613415D01*
X202059236Y-132613415D01*
G37*
G36*
X196767730Y-129565415D02*
X196915690Y-129626703D01*
X197048846Y-129715675D01*
X197162086Y-129828915D01*
X197251058Y-129962071D01*
X197312346Y-130110031D01*
X197343588Y-130267098D01*
X197343588Y-130427248D01*
X197312346Y-130584315D01*
X197251058Y-130732275D01*
X197162086Y-130865431D01*
X197048846Y-130978671D01*
X196915690Y-131067643D01*
X196767730Y-131128931D01*
X196610663Y-131160173D01*
X196450513Y-131160173D01*
X196293446Y-131128931D01*
X196145486Y-131067643D01*
X196012330Y-130978671D01*
X195899090Y-130865431D01*
X195810118Y-130732275D01*
X195748830Y-130584315D01*
X195717588Y-130427248D01*
X195717588Y-130267098D01*
X195748830Y-130110031D01*
X195810118Y-129962071D01*
X195899090Y-129828915D01*
X196012330Y-129715675D01*
X196145486Y-129626703D01*
X196293446Y-129565415D01*
X196450513Y-129534173D01*
X196610663Y-129534173D01*
X196767730Y-129565415D01*
X196767730Y-129565415D01*
G37*
G36*
X219754730Y-127871921D02*
X219902690Y-127933209D01*
X219969718Y-127977996D01*
X219995805Y-127995426D01*
X220035846Y-128022181D01*
X220149086Y-128135421D01*
X220238058Y-128268577D01*
X220299346Y-128416537D01*
X220330588Y-128573604D01*
X220330588Y-128733754D01*
X220299346Y-128890821D01*
X220238058Y-129038781D01*
X220149086Y-129171937D01*
X220035846Y-129285177D01*
X219902690Y-129374149D01*
X219754730Y-129435437D01*
X219597663Y-129466679D01*
X219437513Y-129466679D01*
X219280446Y-129435437D01*
X219132486Y-129374149D01*
X218999330Y-129285177D01*
X218886090Y-129171937D01*
X218797118Y-129038781D01*
X218735830Y-128890821D01*
X218704588Y-128733754D01*
X218704588Y-128573604D01*
X218735830Y-128416537D01*
X218797118Y-128268577D01*
X218886090Y-128135421D01*
X218999330Y-128022181D01*
X219039372Y-127995426D01*
X219065458Y-127977996D01*
X219132486Y-127933209D01*
X219280446Y-127871921D01*
X219437513Y-127840679D01*
X219597663Y-127840679D01*
X219754730Y-127871921D01*
X219754730Y-127871921D01*
G37*
G36*
X80458093Y-123972244D02*
X80458095Y-123972245D01*
X80458096Y-123972245D01*
X80831354Y-124126853D01*
X80831355Y-124126854D01*
X81167280Y-124351312D01*
X81452955Y-124636987D01*
X81452957Y-124636990D01*
X81677414Y-124972913D01*
X81832022Y-125346171D01*
X81832023Y-125346174D01*
X81910841Y-125742419D01*
X81910841Y-126146433D01*
X81908760Y-126156897D01*
X81832022Y-126542681D01*
X81677414Y-126915939D01*
X81677413Y-126915940D01*
X81452955Y-127251865D01*
X81167280Y-127537540D01*
X81167277Y-127537542D01*
X80831354Y-127761999D01*
X80458096Y-127916607D01*
X80458095Y-127916607D01*
X80458093Y-127916608D01*
X80061848Y-127995426D01*
X79657834Y-127995426D01*
X79261589Y-127916608D01*
X79261587Y-127916607D01*
X79261586Y-127916607D01*
X78888328Y-127761999D01*
X78552405Y-127537542D01*
X78552402Y-127537540D01*
X78266727Y-127251865D01*
X78042269Y-126915940D01*
X78042268Y-126915939D01*
X77887660Y-126542681D01*
X77810923Y-126156897D01*
X77808841Y-126146433D01*
X77808841Y-125742419D01*
X77887659Y-125346174D01*
X77887660Y-125346171D01*
X78042268Y-124972913D01*
X78266725Y-124636990D01*
X78266727Y-124636987D01*
X78552402Y-124351312D01*
X78888327Y-124126854D01*
X78888328Y-124126853D01*
X79261586Y-123972245D01*
X79261587Y-123972245D01*
X79261589Y-123972244D01*
X79657834Y-123893426D01*
X80061848Y-123893426D01*
X80458093Y-123972244D01*
X80458093Y-123972244D01*
G37*
G36*
X163154983Y-124654668D02*
X163302943Y-124715956D01*
X163436099Y-124804928D01*
X163549339Y-124918168D01*
X163638311Y-125051324D01*
X163699599Y-125199284D01*
X163730841Y-125356351D01*
X163730841Y-125516501D01*
X163699599Y-125673568D01*
X163638311Y-125821528D01*
X163549339Y-125954684D01*
X163436099Y-126067924D01*
X163302943Y-126156896D01*
X163154983Y-126218184D01*
X162997916Y-126249426D01*
X162837766Y-126249426D01*
X162680699Y-126218184D01*
X162532739Y-126156896D01*
X162399583Y-126067924D01*
X162286343Y-125954684D01*
X162197371Y-125821528D01*
X162136083Y-125673568D01*
X162104841Y-125516501D01*
X162104841Y-125356351D01*
X162136083Y-125199284D01*
X162197371Y-125051324D01*
X162286343Y-124918168D01*
X162399583Y-124804928D01*
X162532739Y-124715956D01*
X162680699Y-124654668D01*
X162837766Y-124623426D01*
X162997916Y-124623426D01*
X163154983Y-124654668D01*
X163154983Y-124654668D01*
G37*
G36*
X176108983Y-124654668D02*
X176256943Y-124715956D01*
X176390099Y-124804928D01*
X176503339Y-124918168D01*
X176592311Y-125051324D01*
X176653599Y-125199284D01*
X176684841Y-125356351D01*
X176684841Y-125516501D01*
X176653599Y-125673568D01*
X176592311Y-125821528D01*
X176503339Y-125954684D01*
X176390099Y-126067924D01*
X176256943Y-126156896D01*
X176108983Y-126218184D01*
X175951916Y-126249426D01*
X175791766Y-126249426D01*
X175634699Y-126218184D01*
X175486739Y-126156896D01*
X175353583Y-126067924D01*
X175240343Y-125954684D01*
X175151371Y-125821528D01*
X175090083Y-125673568D01*
X175058841Y-125516501D01*
X175058841Y-125356351D01*
X175090083Y-125199284D01*
X175151371Y-125051324D01*
X175240343Y-124918168D01*
X175353583Y-124804928D01*
X175486739Y-124715956D01*
X175634699Y-124654668D01*
X175791766Y-124623426D01*
X175951916Y-124623426D01*
X176108983Y-124654668D01*
X176108983Y-124654668D01*
G37*
G36*
X185549236Y-123088415D02*
X185697196Y-123149703D01*
X185830352Y-123238675D01*
X185943592Y-123351915D01*
X186032564Y-123485071D01*
X186093852Y-123633031D01*
X186125094Y-123790098D01*
X186125094Y-123950248D01*
X186093852Y-124107315D01*
X186046448Y-124221756D01*
X186032565Y-124255273D01*
X185968396Y-124351310D01*
X185943592Y-124388431D01*
X185830352Y-124501671D01*
X185697196Y-124590643D01*
X185549236Y-124651931D01*
X185392169Y-124683173D01*
X185232019Y-124683173D01*
X185074952Y-124651931D01*
X184926992Y-124590643D01*
X184793836Y-124501671D01*
X184680596Y-124388431D01*
X184655793Y-124351310D01*
X184591623Y-124255273D01*
X184577740Y-124221756D01*
X184530336Y-124107315D01*
X184499094Y-123950248D01*
X184499094Y-123790098D01*
X184530336Y-123633031D01*
X184591624Y-123485071D01*
X184680596Y-123351915D01*
X184793836Y-123238675D01*
X184926992Y-123149703D01*
X185074952Y-123088415D01*
X185232019Y-123057173D01*
X185392169Y-123057173D01*
X185549236Y-123088415D01*
X185549236Y-123088415D01*
G37*
G36*
X208536236Y-121394921D02*
X208684196Y-121456209D01*
X208817352Y-121545181D01*
X208930592Y-121658421D01*
X209019564Y-121791577D01*
X209080852Y-121939537D01*
X209112094Y-122096604D01*
X209112094Y-122256754D01*
X209080852Y-122413821D01*
X209019564Y-122561781D01*
X208930592Y-122694937D01*
X208817352Y-122808177D01*
X208684196Y-122897149D01*
X208536236Y-122958437D01*
X208379169Y-122989679D01*
X208219019Y-122989679D01*
X208061952Y-122958437D01*
X207913992Y-122897149D01*
X207780836Y-122808177D01*
X207667596Y-122694937D01*
X207578624Y-122561781D01*
X207517336Y-122413821D01*
X207486094Y-122256754D01*
X207486094Y-122096604D01*
X207517336Y-121939537D01*
X207578624Y-121791577D01*
X207667596Y-121658421D01*
X207780836Y-121545181D01*
X207913992Y-121456209D01*
X208061952Y-121394921D01*
X208219019Y-121363679D01*
X208379169Y-121363679D01*
X208536236Y-121394921D01*
X208536236Y-121394921D01*
G37*
G36*
X144104983Y-120844668D02*
X144252943Y-120905956D01*
X144386099Y-120994928D01*
X144499339Y-121108168D01*
X144588311Y-121241324D01*
X144649599Y-121389284D01*
X144680841Y-121546351D01*
X144680841Y-121706501D01*
X144649599Y-121863568D01*
X144588311Y-122011528D01*
X144499339Y-122144684D01*
X144386099Y-122257924D01*
X144252943Y-122346896D01*
X144104983Y-122408184D01*
X143947916Y-122439426D01*
X143787766Y-122439426D01*
X143630699Y-122408184D01*
X143482739Y-122346896D01*
X143349583Y-122257924D01*
X143236343Y-122144684D01*
X143147371Y-122011528D01*
X143086083Y-121863568D01*
X143054841Y-121706501D01*
X143054841Y-121546351D01*
X143086083Y-121389284D01*
X143147371Y-121241324D01*
X143236343Y-121108168D01*
X143349583Y-120994928D01*
X143482739Y-120905956D01*
X143630699Y-120844668D01*
X143787766Y-120813426D01*
X143947916Y-120813426D01*
X144104983Y-120844668D01*
X144104983Y-120844668D01*
G37*
G36*
X157058983Y-120844668D02*
X157206943Y-120905956D01*
X157340099Y-120994928D01*
X157453339Y-121108168D01*
X157542311Y-121241324D01*
X157603599Y-121389284D01*
X157634841Y-121546351D01*
X157634841Y-121706501D01*
X157603599Y-121863568D01*
X157542311Y-122011528D01*
X157453339Y-122144684D01*
X157340099Y-122257924D01*
X157206943Y-122346896D01*
X157058983Y-122408184D01*
X156901916Y-122439426D01*
X156741766Y-122439426D01*
X156584699Y-122408184D01*
X156436739Y-122346896D01*
X156303583Y-122257924D01*
X156190343Y-122144684D01*
X156101371Y-122011528D01*
X156040083Y-121863568D01*
X156008841Y-121706501D01*
X156008841Y-121546351D01*
X156040083Y-121389284D01*
X156101371Y-121241324D01*
X156190343Y-121108168D01*
X156303583Y-120994928D01*
X156436739Y-120905956D01*
X156584699Y-120844668D01*
X156741766Y-120813426D01*
X156901916Y-120813426D01*
X157058983Y-120844668D01*
X157058983Y-120844668D01*
G37*
G36*
X73619983Y-118939668D02*
X73767943Y-119000956D01*
X73834971Y-119045743D01*
X73901098Y-119089927D01*
X74014340Y-119203169D01*
X74058524Y-119269296D01*
X74103311Y-119336324D01*
X74164599Y-119484284D01*
X74195841Y-119641351D01*
X74195841Y-119801501D01*
X74164599Y-119958568D01*
X74103311Y-120106528D01*
X74014339Y-120239684D01*
X73901099Y-120352924D01*
X73767943Y-120441896D01*
X73619983Y-120503184D01*
X73462916Y-120534426D01*
X73302766Y-120534426D01*
X73145699Y-120503184D01*
X72997739Y-120441896D01*
X72864583Y-120352924D01*
X72751343Y-120239684D01*
X72662371Y-120106528D01*
X72601083Y-119958568D01*
X72569841Y-119801501D01*
X72569841Y-119641351D01*
X72601083Y-119484284D01*
X72662371Y-119336324D01*
X72707158Y-119269296D01*
X72751342Y-119203169D01*
X72864584Y-119089927D01*
X72930711Y-119045743D01*
X72997739Y-119000956D01*
X73145699Y-118939668D01*
X73302766Y-118908426D01*
X73462916Y-118908426D01*
X73619983Y-118939668D01*
X73619983Y-118939668D01*
G37*
G36*
X86573983Y-118939668D02*
X86721943Y-119000956D01*
X86788971Y-119045743D01*
X86855098Y-119089927D01*
X86968340Y-119203169D01*
X87012524Y-119269296D01*
X87057311Y-119336324D01*
X87118599Y-119484284D01*
X87149841Y-119641351D01*
X87149841Y-119801501D01*
X87118599Y-119958568D01*
X87057311Y-120106528D01*
X86968339Y-120239684D01*
X86855099Y-120352924D01*
X86721943Y-120441896D01*
X86573983Y-120503184D01*
X86416916Y-120534426D01*
X86256766Y-120534426D01*
X86099699Y-120503184D01*
X85951739Y-120441896D01*
X85818583Y-120352924D01*
X85705343Y-120239684D01*
X85616371Y-120106528D01*
X85555083Y-119958568D01*
X85523841Y-119801501D01*
X85523841Y-119641351D01*
X85555083Y-119484284D01*
X85616371Y-119336324D01*
X85661158Y-119269296D01*
X85705342Y-119203169D01*
X85818584Y-119089927D01*
X85884711Y-119045743D01*
X85951739Y-119000956D01*
X86099699Y-118939668D01*
X86256766Y-118908426D01*
X86416916Y-118908426D01*
X86573983Y-118939668D01*
X86573983Y-118939668D01*
G37*
G36*
X203244730Y-118346921D02*
X203392690Y-118408209D01*
X203525846Y-118497181D01*
X203639086Y-118610421D01*
X203728058Y-118743577D01*
X203789346Y-118891537D01*
X203820588Y-119048604D01*
X203820588Y-119208754D01*
X203789346Y-119365821D01*
X203741942Y-119480262D01*
X203728059Y-119513779D01*
X203642819Y-119641351D01*
X203639086Y-119646937D01*
X203525846Y-119760177D01*
X203392690Y-119849149D01*
X203244730Y-119910437D01*
X203087663Y-119941679D01*
X202927513Y-119941679D01*
X202770446Y-119910437D01*
X202622486Y-119849149D01*
X202489330Y-119760177D01*
X202376090Y-119646937D01*
X202372358Y-119641351D01*
X202287117Y-119513779D01*
X202273234Y-119480262D01*
X202225830Y-119365821D01*
X202194588Y-119208754D01*
X202194588Y-119048604D01*
X202225830Y-118891537D01*
X202287118Y-118743577D01*
X202376090Y-118610421D01*
X202489330Y-118497181D01*
X202622486Y-118408209D01*
X202770446Y-118346921D01*
X202927513Y-118315679D01*
X203087663Y-118315679D01*
X203244730Y-118346921D01*
X203244730Y-118346921D01*
G37*
G36*
X192026236Y-111869921D02*
X192174196Y-111931209D01*
X192307352Y-112020181D01*
X192420592Y-112133421D01*
X192509564Y-112266577D01*
X192570852Y-112414537D01*
X192602094Y-112571604D01*
X192602094Y-112731754D01*
X192570852Y-112888821D01*
X192509564Y-113036781D01*
X192420592Y-113169937D01*
X192307352Y-113283177D01*
X192174196Y-113372149D01*
X192026236Y-113433437D01*
X191869169Y-113464679D01*
X191709019Y-113464679D01*
X191551952Y-113433437D01*
X191403992Y-113372149D01*
X191270836Y-113283177D01*
X191157596Y-113169937D01*
X191068624Y-113036781D01*
X191007336Y-112888821D01*
X190976094Y-112731754D01*
X190976094Y-112571604D01*
X191007336Y-112414537D01*
X191068624Y-112266577D01*
X191157596Y-112133421D01*
X191270836Y-112020181D01*
X191403992Y-111931209D01*
X191551952Y-111869921D01*
X191709019Y-111838679D01*
X191869169Y-111838679D01*
X192026236Y-111869921D01*
X192026236Y-111869921D01*
G37*
G36*
X176108983Y-111700668D02*
X176256943Y-111761956D01*
X176390099Y-111850928D01*
X176503339Y-111964168D01*
X176592311Y-112097324D01*
X176653599Y-112245284D01*
X176684841Y-112402351D01*
X176684841Y-112562501D01*
X176653599Y-112719568D01*
X176592311Y-112867528D01*
X176503339Y-113000684D01*
X176390099Y-113113924D01*
X176256943Y-113202896D01*
X176108983Y-113264184D01*
X175951916Y-113295426D01*
X175791766Y-113295426D01*
X175634699Y-113264184D01*
X175486739Y-113202896D01*
X175353583Y-113113924D01*
X175240343Y-113000684D01*
X175151371Y-112867528D01*
X175090083Y-112719568D01*
X175058841Y-112562501D01*
X175058841Y-112402351D01*
X175090083Y-112245284D01*
X175151371Y-112097324D01*
X175240343Y-111964168D01*
X175353583Y-111850928D01*
X175486739Y-111761956D01*
X175634699Y-111700668D01*
X175791766Y-111669426D01*
X175951916Y-111669426D01*
X176108983Y-111700668D01*
X176108983Y-111700668D01*
G37*
G36*
X163154983Y-111700668D02*
X163302943Y-111761956D01*
X163436099Y-111850928D01*
X163549339Y-111964168D01*
X163638311Y-112097324D01*
X163699599Y-112245284D01*
X163730841Y-112402351D01*
X163730841Y-112562501D01*
X163699599Y-112719568D01*
X163638311Y-112867528D01*
X163549339Y-113000684D01*
X163436099Y-113113924D01*
X163302943Y-113202896D01*
X163154983Y-113264184D01*
X162997916Y-113295426D01*
X162837766Y-113295426D01*
X162680699Y-113264184D01*
X162532739Y-113202896D01*
X162399583Y-113113924D01*
X162286343Y-113000684D01*
X162197371Y-112867528D01*
X162136083Y-112719568D01*
X162104841Y-112562501D01*
X162104841Y-112402351D01*
X162136083Y-112245284D01*
X162197371Y-112097324D01*
X162286343Y-111964168D01*
X162399583Y-111850928D01*
X162532739Y-111761956D01*
X162680699Y-111700668D01*
X162837766Y-111669426D01*
X162997916Y-111669426D01*
X163154983Y-111700668D01*
X163154983Y-111700668D01*
G37*
G36*
X92669983Y-109414668D02*
X92817943Y-109475956D01*
X92951099Y-109564928D01*
X93064339Y-109678168D01*
X93153311Y-109811324D01*
X93214599Y-109959284D01*
X93245841Y-110116351D01*
X93245841Y-110276501D01*
X93214599Y-110433568D01*
X93153311Y-110581528D01*
X93064339Y-110714684D01*
X92951099Y-110827924D01*
X92817943Y-110916896D01*
X92669983Y-110978184D01*
X92512916Y-111009426D01*
X92352766Y-111009426D01*
X92195699Y-110978184D01*
X92047739Y-110916896D01*
X91914583Y-110827924D01*
X91801343Y-110714684D01*
X91712371Y-110581528D01*
X91651083Y-110433568D01*
X91619841Y-110276501D01*
X91619841Y-110116351D01*
X91651083Y-109959284D01*
X91712371Y-109811324D01*
X91801343Y-109678168D01*
X91914583Y-109564928D01*
X92047739Y-109475956D01*
X92195699Y-109414668D01*
X92352766Y-109383426D01*
X92512916Y-109383426D01*
X92669983Y-109414668D01*
X92669983Y-109414668D01*
G37*
G36*
X105623983Y-109414668D02*
X105771943Y-109475956D01*
X105905099Y-109564928D01*
X106018339Y-109678168D01*
X106107311Y-109811324D01*
X106168599Y-109959284D01*
X106199841Y-110116351D01*
X106199841Y-110276501D01*
X106168599Y-110433568D01*
X106107311Y-110581528D01*
X106018339Y-110714684D01*
X105905099Y-110827924D01*
X105771943Y-110916896D01*
X105623983Y-110978184D01*
X105466916Y-111009426D01*
X105306766Y-111009426D01*
X105149699Y-110978184D01*
X105001739Y-110916896D01*
X104868583Y-110827924D01*
X104755343Y-110714684D01*
X104666371Y-110581528D01*
X104605083Y-110433568D01*
X104573841Y-110276501D01*
X104573841Y-110116351D01*
X104605083Y-109959284D01*
X104666371Y-109811324D01*
X104755343Y-109678168D01*
X104868583Y-109564928D01*
X105001739Y-109475956D01*
X105149699Y-109414668D01*
X105306766Y-109383426D01*
X105466916Y-109383426D01*
X105623983Y-109414668D01*
X105623983Y-109414668D01*
G37*
G36*
X144104983Y-107890668D02*
X144252943Y-107951956D01*
X144386099Y-108040928D01*
X144499339Y-108154168D01*
X144588311Y-108287324D01*
X144649599Y-108435284D01*
X144680841Y-108592351D01*
X144680841Y-108752501D01*
X144649599Y-108909568D01*
X144588311Y-109057528D01*
X144499339Y-109190684D01*
X144386099Y-109303924D01*
X144252943Y-109392896D01*
X144104983Y-109454184D01*
X143947916Y-109485426D01*
X143787766Y-109485426D01*
X143630699Y-109454184D01*
X143482739Y-109392896D01*
X143349583Y-109303924D01*
X143236343Y-109190684D01*
X143147371Y-109057528D01*
X143086083Y-108909568D01*
X143054841Y-108752501D01*
X143054841Y-108592351D01*
X143086083Y-108435284D01*
X143147371Y-108287324D01*
X143236343Y-108154168D01*
X143349583Y-108040928D01*
X143482739Y-107951956D01*
X143630699Y-107890668D01*
X143787766Y-107859426D01*
X143947916Y-107859426D01*
X144104983Y-107890668D01*
X144104983Y-107890668D01*
G37*
G36*
X157058983Y-107890668D02*
X157206943Y-107951956D01*
X157340099Y-108040928D01*
X157453339Y-108154168D01*
X157542311Y-108287324D01*
X157603599Y-108435284D01*
X157634841Y-108592351D01*
X157634841Y-108752501D01*
X157603599Y-108909568D01*
X157542311Y-109057528D01*
X157453339Y-109190684D01*
X157340099Y-109303924D01*
X157206943Y-109392896D01*
X157058983Y-109454184D01*
X156901916Y-109485426D01*
X156741766Y-109485426D01*
X156584699Y-109454184D01*
X156436739Y-109392896D01*
X156303583Y-109303924D01*
X156190343Y-109190684D01*
X156101371Y-109057528D01*
X156040083Y-108909568D01*
X156008841Y-108752501D01*
X156008841Y-108592351D01*
X156040083Y-108435284D01*
X156101371Y-108287324D01*
X156190343Y-108154168D01*
X156303583Y-108040928D01*
X156436739Y-107951956D01*
X156584699Y-107890668D01*
X156741766Y-107859426D01*
X156901916Y-107859426D01*
X157058983Y-107890668D01*
X157058983Y-107890668D01*
G37*
G36*
X73619983Y-105985668D02*
X73767943Y-106046956D01*
X73901099Y-106135928D01*
X74014339Y-106249168D01*
X74103311Y-106382324D01*
X74164599Y-106530284D01*
X74195841Y-106687351D01*
X74195841Y-106847501D01*
X74164599Y-107004568D01*
X74103311Y-107152528D01*
X74014339Y-107285684D01*
X73901099Y-107398924D01*
X73767943Y-107487896D01*
X73619983Y-107549184D01*
X73462916Y-107580426D01*
X73302766Y-107580426D01*
X73145699Y-107549184D01*
X72997739Y-107487896D01*
X72864583Y-107398924D01*
X72751343Y-107285684D01*
X72662371Y-107152528D01*
X72601083Y-107004568D01*
X72569841Y-106847501D01*
X72569841Y-106687351D01*
X72601083Y-106530284D01*
X72662371Y-106382324D01*
X72751343Y-106249168D01*
X72864583Y-106135928D01*
X72997739Y-106046956D01*
X73145699Y-105985668D01*
X73302766Y-105954426D01*
X73462916Y-105954426D01*
X73619983Y-105985668D01*
X73619983Y-105985668D01*
G37*
G36*
X86573983Y-105985668D02*
X86721943Y-106046956D01*
X86855099Y-106135928D01*
X86968339Y-106249168D01*
X87057311Y-106382324D01*
X87118599Y-106530284D01*
X87149841Y-106687351D01*
X87149841Y-106847501D01*
X87118599Y-107004568D01*
X87057311Y-107152528D01*
X86968339Y-107285684D01*
X86855099Y-107398924D01*
X86721943Y-107487896D01*
X86573983Y-107549184D01*
X86416916Y-107580426D01*
X86256766Y-107580426D01*
X86099699Y-107549184D01*
X85951739Y-107487896D01*
X85818583Y-107398924D01*
X85705343Y-107285684D01*
X85616371Y-107152528D01*
X85555083Y-107004568D01*
X85523841Y-106847501D01*
X85523841Y-106687351D01*
X85555083Y-106530284D01*
X85616371Y-106382324D01*
X85705343Y-106249168D01*
X85818583Y-106135928D01*
X85951739Y-106046956D01*
X86099699Y-105985668D01*
X86256766Y-105954426D01*
X86416916Y-105954426D01*
X86573983Y-105985668D01*
X86573983Y-105985668D01*
G37*
G36*
X181823983Y-103699668D02*
X181971943Y-103760956D01*
X182105099Y-103849928D01*
X182218339Y-103963168D01*
X182307311Y-104096324D01*
X182368599Y-104244284D01*
X182399841Y-104401351D01*
X182399841Y-104561501D01*
X182368599Y-104718568D01*
X182307311Y-104866528D01*
X182218339Y-104999684D01*
X182105099Y-105112924D01*
X181971943Y-105201896D01*
X181823983Y-105263184D01*
X181666916Y-105294426D01*
X181506766Y-105294426D01*
X181349699Y-105263184D01*
X181201739Y-105201896D01*
X181068583Y-105112924D01*
X180955343Y-104999684D01*
X180866371Y-104866528D01*
X180805083Y-104718568D01*
X180773841Y-104561501D01*
X180773841Y-104401351D01*
X180805083Y-104244284D01*
X180866371Y-104096324D01*
X180955343Y-103963168D01*
X181068583Y-103849928D01*
X181201739Y-103760956D01*
X181349699Y-103699668D01*
X181506766Y-103668426D01*
X181666916Y-103668426D01*
X181823983Y-103699668D01*
X181823983Y-103699668D01*
G37*
G36*
X168869983Y-103699668D02*
X169017943Y-103760956D01*
X169151099Y-103849928D01*
X169264339Y-103963168D01*
X169353311Y-104096324D01*
X169414599Y-104244284D01*
X169445841Y-104401351D01*
X169445841Y-104561501D01*
X169414599Y-104718568D01*
X169353311Y-104866528D01*
X169264339Y-104999684D01*
X169151099Y-105112924D01*
X169017943Y-105201896D01*
X168869983Y-105263184D01*
X168712916Y-105294426D01*
X168552766Y-105294426D01*
X168395699Y-105263184D01*
X168247739Y-105201896D01*
X168114583Y-105112924D01*
X168001343Y-104999684D01*
X167912371Y-104866528D01*
X167851083Y-104718568D01*
X167819841Y-104561501D01*
X167819841Y-104401351D01*
X167851083Y-104244284D01*
X167912371Y-104096324D01*
X168001343Y-103963168D01*
X168114583Y-103849928D01*
X168247739Y-103760956D01*
X168395699Y-103699668D01*
X168552766Y-103668426D01*
X168712916Y-103668426D01*
X168869983Y-103699668D01*
X168869983Y-103699668D01*
G37*
G36*
X124673983Y-99889668D02*
X124821943Y-99950956D01*
X124955099Y-100039928D01*
X125068339Y-100153168D01*
X125157311Y-100286324D01*
X125218599Y-100434284D01*
X125249841Y-100591351D01*
X125249841Y-100751501D01*
X125218599Y-100908568D01*
X125157311Y-101056528D01*
X125068339Y-101189684D01*
X124955099Y-101302924D01*
X124821943Y-101391896D01*
X124673983Y-101453184D01*
X124516916Y-101484426D01*
X124356766Y-101484426D01*
X124199699Y-101453184D01*
X124051739Y-101391896D01*
X123918583Y-101302924D01*
X123805343Y-101189684D01*
X123716371Y-101056528D01*
X123655083Y-100908568D01*
X123623841Y-100751501D01*
X123623841Y-100591351D01*
X123655083Y-100434284D01*
X123716371Y-100286324D01*
X123805343Y-100153168D01*
X123918583Y-100039928D01*
X124051739Y-99950956D01*
X124199699Y-99889668D01*
X124356766Y-99858426D01*
X124516916Y-99858426D01*
X124673983Y-99889668D01*
X124673983Y-99889668D01*
G37*
G36*
X111719983Y-99889668D02*
X111867943Y-99950956D01*
X112001099Y-100039928D01*
X112114339Y-100153168D01*
X112203311Y-100286324D01*
X112264599Y-100434284D01*
X112295841Y-100591351D01*
X112295841Y-100751501D01*
X112264599Y-100908568D01*
X112203311Y-101056528D01*
X112114339Y-101189684D01*
X112001099Y-101302924D01*
X111867943Y-101391896D01*
X111719983Y-101453184D01*
X111562916Y-101484426D01*
X111402766Y-101484426D01*
X111245699Y-101453184D01*
X111097739Y-101391896D01*
X110964583Y-101302924D01*
X110851343Y-101189684D01*
X110762371Y-101056528D01*
X110701083Y-100908568D01*
X110669841Y-100751501D01*
X110669841Y-100591351D01*
X110701083Y-100434284D01*
X110762371Y-100286324D01*
X110851343Y-100153168D01*
X110964583Y-100039928D01*
X111097739Y-99950956D01*
X111245699Y-99889668D01*
X111402766Y-99858426D01*
X111562916Y-99858426D01*
X111719983Y-99889668D01*
X111719983Y-99889668D01*
G37*
G36*
X86573983Y-99889668D02*
X86721943Y-99950956D01*
X86855099Y-100039928D01*
X86968339Y-100153168D01*
X87057311Y-100286324D01*
X87118599Y-100434284D01*
X87149841Y-100591351D01*
X87149841Y-100751501D01*
X87118599Y-100908568D01*
X87057311Y-101056528D01*
X86968339Y-101189684D01*
X86855099Y-101302924D01*
X86721943Y-101391896D01*
X86573983Y-101453184D01*
X86416916Y-101484426D01*
X86256766Y-101484426D01*
X86099699Y-101453184D01*
X85951739Y-101391896D01*
X85818583Y-101302924D01*
X85705343Y-101189684D01*
X85616371Y-101056528D01*
X85555083Y-100908568D01*
X85523841Y-100751501D01*
X85523841Y-100591351D01*
X85555083Y-100434284D01*
X85616371Y-100286324D01*
X85705343Y-100153168D01*
X85818583Y-100039928D01*
X85951739Y-99950956D01*
X86099699Y-99889668D01*
X86256766Y-99858426D01*
X86416916Y-99858426D01*
X86573983Y-99889668D01*
X86573983Y-99889668D01*
G37*
G36*
X73619983Y-99889668D02*
X73767943Y-99950956D01*
X73901099Y-100039928D01*
X74014339Y-100153168D01*
X74103311Y-100286324D01*
X74164599Y-100434284D01*
X74195841Y-100591351D01*
X74195841Y-100751501D01*
X74164599Y-100908568D01*
X74103311Y-101056528D01*
X74014339Y-101189684D01*
X73901099Y-101302924D01*
X73767943Y-101391896D01*
X73619983Y-101453184D01*
X73462916Y-101484426D01*
X73302766Y-101484426D01*
X73145699Y-101453184D01*
X72997739Y-101391896D01*
X72864583Y-101302924D01*
X72751343Y-101189684D01*
X72662371Y-101056528D01*
X72601083Y-100908568D01*
X72569841Y-100751501D01*
X72569841Y-100591351D01*
X72601083Y-100434284D01*
X72662371Y-100286324D01*
X72751343Y-100153168D01*
X72864583Y-100039928D01*
X72997739Y-99950956D01*
X73145699Y-99889668D01*
X73302766Y-99858426D01*
X73462916Y-99858426D01*
X73619983Y-99889668D01*
X73619983Y-99889668D01*
G37*
G36*
X149819983Y-99889668D02*
X149967943Y-99950956D01*
X150101099Y-100039928D01*
X150214339Y-100153168D01*
X150303311Y-100286324D01*
X150364599Y-100434284D01*
X150395841Y-100591351D01*
X150395841Y-100751501D01*
X150364599Y-100908568D01*
X150303311Y-101056528D01*
X150214339Y-101189684D01*
X150101099Y-101302924D01*
X149967943Y-101391896D01*
X149819983Y-101453184D01*
X149662916Y-101484426D01*
X149502766Y-101484426D01*
X149345699Y-101453184D01*
X149197739Y-101391896D01*
X149064583Y-101302924D01*
X148951343Y-101189684D01*
X148862371Y-101056528D01*
X148801083Y-100908568D01*
X148769841Y-100751501D01*
X148769841Y-100591351D01*
X148801083Y-100434284D01*
X148862371Y-100286324D01*
X148951343Y-100153168D01*
X149064583Y-100039928D01*
X149197739Y-99950956D01*
X149345699Y-99889668D01*
X149502766Y-99858426D01*
X149662916Y-99858426D01*
X149819983Y-99889668D01*
X149819983Y-99889668D01*
G37*
G36*
X162773983Y-99889668D02*
X162921943Y-99950956D01*
X163055099Y-100039928D01*
X163168339Y-100153168D01*
X163257311Y-100286324D01*
X163318599Y-100434284D01*
X163349841Y-100591351D01*
X163349841Y-100751501D01*
X163318599Y-100908568D01*
X163257311Y-101056528D01*
X163168339Y-101189684D01*
X163055099Y-101302924D01*
X162921943Y-101391896D01*
X162773983Y-101453184D01*
X162616916Y-101484426D01*
X162456766Y-101484426D01*
X162299699Y-101453184D01*
X162151739Y-101391896D01*
X162018583Y-101302924D01*
X161905343Y-101189684D01*
X161816371Y-101056528D01*
X161755083Y-100908568D01*
X161723841Y-100751501D01*
X161723841Y-100591351D01*
X161755083Y-100434284D01*
X161816371Y-100286324D01*
X161905343Y-100153168D01*
X162018583Y-100039928D01*
X162151739Y-99950956D01*
X162299699Y-99889668D01*
X162456766Y-99858426D01*
X162616916Y-99858426D01*
X162773983Y-99889668D01*
X162773983Y-99889668D01*
G37*
G36*
X105623983Y-96460668D02*
X105771943Y-96521956D01*
X105838971Y-96566743D01*
X105905098Y-96610927D01*
X106018340Y-96724169D01*
X106056548Y-96781352D01*
X106107311Y-96857324D01*
X106168599Y-97005284D01*
X106199841Y-97162351D01*
X106199841Y-97322501D01*
X106168599Y-97479568D01*
X106107311Y-97627528D01*
X106018339Y-97760684D01*
X105905099Y-97873924D01*
X105771943Y-97962896D01*
X105623983Y-98024184D01*
X105466916Y-98055426D01*
X105306766Y-98055426D01*
X105149699Y-98024184D01*
X105001739Y-97962896D01*
X104868583Y-97873924D01*
X104755343Y-97760684D01*
X104666371Y-97627528D01*
X104605083Y-97479568D01*
X104573841Y-97322501D01*
X104573841Y-97162351D01*
X104605083Y-97005284D01*
X104666371Y-96857324D01*
X104717134Y-96781352D01*
X104755342Y-96724169D01*
X104868584Y-96610927D01*
X104934711Y-96566743D01*
X105001739Y-96521956D01*
X105149699Y-96460668D01*
X105306766Y-96429426D01*
X105466916Y-96429426D01*
X105623983Y-96460668D01*
X105623983Y-96460668D01*
G37*
G36*
X92669983Y-96460668D02*
X92817943Y-96521956D01*
X92884971Y-96566743D01*
X92951098Y-96610927D01*
X93064340Y-96724169D01*
X93102548Y-96781352D01*
X93153311Y-96857324D01*
X93214599Y-97005284D01*
X93245841Y-97162351D01*
X93245841Y-97322501D01*
X93214599Y-97479568D01*
X93153311Y-97627528D01*
X93064339Y-97760684D01*
X92951099Y-97873924D01*
X92817943Y-97962896D01*
X92669983Y-98024184D01*
X92512916Y-98055426D01*
X92352766Y-98055426D01*
X92195699Y-98024184D01*
X92047739Y-97962896D01*
X91914583Y-97873924D01*
X91801343Y-97760684D01*
X91712371Y-97627528D01*
X91651083Y-97479568D01*
X91619841Y-97322501D01*
X91619841Y-97162351D01*
X91651083Y-97005284D01*
X91712371Y-96857324D01*
X91763134Y-96781352D01*
X91801342Y-96724169D01*
X91914584Y-96610927D01*
X91980711Y-96566743D01*
X92047739Y-96521956D01*
X92195699Y-96460668D01*
X92352766Y-96429426D01*
X92512916Y-96429426D01*
X92669983Y-96460668D01*
X92669983Y-96460668D01*
G37*
G36*
X143723983Y-96079668D02*
X143871943Y-96140956D01*
X144005099Y-96229928D01*
X144118339Y-96343168D01*
X144207311Y-96476324D01*
X144268599Y-96624284D01*
X144299841Y-96781351D01*
X144299841Y-96941501D01*
X144268599Y-97098568D01*
X144242179Y-97162351D01*
X144207312Y-97246526D01*
X144156548Y-97322501D01*
X144118339Y-97379684D01*
X144005099Y-97492924D01*
X143871943Y-97581896D01*
X143723983Y-97643184D01*
X143566916Y-97674426D01*
X143406766Y-97674426D01*
X143249699Y-97643184D01*
X143101739Y-97581896D01*
X142968583Y-97492924D01*
X142855343Y-97379684D01*
X142817135Y-97322501D01*
X142766370Y-97246526D01*
X142731503Y-97162351D01*
X142705083Y-97098568D01*
X142673841Y-96941501D01*
X142673841Y-96781351D01*
X142705083Y-96624284D01*
X142766371Y-96476324D01*
X142855343Y-96343168D01*
X142968583Y-96229928D01*
X143101739Y-96140956D01*
X143249699Y-96079668D01*
X143406766Y-96048426D01*
X143566916Y-96048426D01*
X143723983Y-96079668D01*
X143723983Y-96079668D01*
G37*
G36*
X130769983Y-96079668D02*
X130917943Y-96140956D01*
X131051099Y-96229928D01*
X131164339Y-96343168D01*
X131253311Y-96476324D01*
X131314599Y-96624284D01*
X131345841Y-96781351D01*
X131345841Y-96941501D01*
X131314599Y-97098568D01*
X131288179Y-97162351D01*
X131253312Y-97246526D01*
X131202548Y-97322501D01*
X131164339Y-97379684D01*
X131051099Y-97492924D01*
X130917943Y-97581896D01*
X130769983Y-97643184D01*
X130612916Y-97674426D01*
X130452766Y-97674426D01*
X130295699Y-97643184D01*
X130147739Y-97581896D01*
X130014583Y-97492924D01*
X129901343Y-97379684D01*
X129863135Y-97322501D01*
X129812370Y-97246526D01*
X129777503Y-97162351D01*
X129751083Y-97098568D01*
X129719841Y-96941501D01*
X129719841Y-96781351D01*
X129751083Y-96624284D01*
X129812371Y-96476324D01*
X129901343Y-96343168D01*
X130014583Y-96229928D01*
X130147739Y-96140956D01*
X130295699Y-96079668D01*
X130452766Y-96048426D01*
X130612916Y-96048426D01*
X130769983Y-96079668D01*
X130769983Y-96079668D01*
G37*
G36*
X168869983Y-90745668D02*
X169017943Y-90806956D01*
X169084971Y-90851743D01*
X169151098Y-90895927D01*
X169264340Y-91009169D01*
X169302548Y-91066352D01*
X169353311Y-91142324D01*
X169414599Y-91290284D01*
X169445841Y-91447351D01*
X169445841Y-91607501D01*
X169414599Y-91764568D01*
X169353311Y-91912528D01*
X169264339Y-92045684D01*
X169151099Y-92158924D01*
X169017943Y-92247896D01*
X168869983Y-92309184D01*
X168712916Y-92340426D01*
X168552766Y-92340426D01*
X168395699Y-92309184D01*
X168247739Y-92247896D01*
X168114583Y-92158924D01*
X168001343Y-92045684D01*
X167912371Y-91912528D01*
X167851083Y-91764568D01*
X167819841Y-91607501D01*
X167819841Y-91447351D01*
X167851083Y-91290284D01*
X167912371Y-91142324D01*
X167963134Y-91066352D01*
X168001342Y-91009169D01*
X168114584Y-90895927D01*
X168180711Y-90851743D01*
X168247739Y-90806956D01*
X168395699Y-90745668D01*
X168552766Y-90714426D01*
X168712916Y-90714426D01*
X168869983Y-90745668D01*
X168869983Y-90745668D01*
G37*
G36*
X181823983Y-90745668D02*
X181971943Y-90806956D01*
X182038971Y-90851743D01*
X182105098Y-90895927D01*
X182218340Y-91009169D01*
X182256548Y-91066352D01*
X182307311Y-91142324D01*
X182368599Y-91290284D01*
X182399841Y-91447351D01*
X182399841Y-91607501D01*
X182368599Y-91764568D01*
X182307311Y-91912528D01*
X182218339Y-92045684D01*
X182105099Y-92158924D01*
X181971943Y-92247896D01*
X181823983Y-92309184D01*
X181666916Y-92340426D01*
X181506766Y-92340426D01*
X181349699Y-92309184D01*
X181201739Y-92247896D01*
X181068583Y-92158924D01*
X180955343Y-92045684D01*
X180866371Y-91912528D01*
X180805083Y-91764568D01*
X180773841Y-91607501D01*
X180773841Y-91447351D01*
X180805083Y-91290284D01*
X180866371Y-91142324D01*
X180917134Y-91066352D01*
X180955342Y-91009169D01*
X181068584Y-90895927D01*
X181134711Y-90851743D01*
X181201739Y-90806956D01*
X181349699Y-90745668D01*
X181506766Y-90714426D01*
X181666916Y-90714426D01*
X181823983Y-90745668D01*
X181823983Y-90745668D01*
G37*
G36*
X105623983Y-90364668D02*
X105771943Y-90425956D01*
X105905099Y-90514928D01*
X106018339Y-90628168D01*
X106107311Y-90761324D01*
X106168599Y-90909284D01*
X106199841Y-91066351D01*
X106199841Y-91226501D01*
X106168599Y-91383568D01*
X106142179Y-91447351D01*
X106107312Y-91531526D01*
X106056548Y-91607501D01*
X106018339Y-91664684D01*
X105905099Y-91777924D01*
X105771943Y-91866896D01*
X105623983Y-91928184D01*
X105466916Y-91959426D01*
X105306766Y-91959426D01*
X105149699Y-91928184D01*
X105001739Y-91866896D01*
X104868583Y-91777924D01*
X104755343Y-91664684D01*
X104717135Y-91607501D01*
X104666370Y-91531526D01*
X104631503Y-91447351D01*
X104605083Y-91383568D01*
X104573841Y-91226501D01*
X104573841Y-91066351D01*
X104605083Y-90909284D01*
X104666371Y-90761324D01*
X104755343Y-90628168D01*
X104868583Y-90514928D01*
X105001739Y-90425956D01*
X105149699Y-90364668D01*
X105306766Y-90333426D01*
X105466916Y-90333426D01*
X105623983Y-90364668D01*
X105623983Y-90364668D01*
G37*
G36*
X92669983Y-90364668D02*
X92817943Y-90425956D01*
X92951099Y-90514928D01*
X93064339Y-90628168D01*
X93153311Y-90761324D01*
X93214599Y-90909284D01*
X93245841Y-91066351D01*
X93245841Y-91226501D01*
X93214599Y-91383568D01*
X93188179Y-91447351D01*
X93153312Y-91531526D01*
X93102548Y-91607501D01*
X93064339Y-91664684D01*
X92951099Y-91777924D01*
X92817943Y-91866896D01*
X92669983Y-91928184D01*
X92512916Y-91959426D01*
X92352766Y-91959426D01*
X92195699Y-91928184D01*
X92047739Y-91866896D01*
X91914583Y-91777924D01*
X91801343Y-91664684D01*
X91763135Y-91607501D01*
X91712370Y-91531526D01*
X91677503Y-91447351D01*
X91651083Y-91383568D01*
X91619841Y-91226501D01*
X91619841Y-91066351D01*
X91651083Y-90909284D01*
X91712371Y-90761324D01*
X91801343Y-90628168D01*
X91914583Y-90514928D01*
X92047739Y-90425956D01*
X92195699Y-90364668D01*
X92352766Y-90333426D01*
X92512916Y-90333426D01*
X92669983Y-90364668D01*
X92669983Y-90364668D01*
G37*
G36*
X73619983Y-86935668D02*
X73767943Y-86996956D01*
X73901099Y-87085928D01*
X74014339Y-87199168D01*
X74103311Y-87332324D01*
X74164599Y-87480284D01*
X74195841Y-87637351D01*
X74195841Y-87797501D01*
X74164599Y-87954568D01*
X74103311Y-88102528D01*
X74014339Y-88235684D01*
X73901099Y-88348924D01*
X73767943Y-88437896D01*
X73619983Y-88499184D01*
X73462916Y-88530426D01*
X73302766Y-88530426D01*
X73145699Y-88499184D01*
X72997739Y-88437896D01*
X72864583Y-88348924D01*
X72751343Y-88235684D01*
X72662371Y-88102528D01*
X72601083Y-87954568D01*
X72569841Y-87797501D01*
X72569841Y-87637351D01*
X72601083Y-87480284D01*
X72662371Y-87332324D01*
X72751343Y-87199168D01*
X72864583Y-87085928D01*
X72997739Y-86996956D01*
X73145699Y-86935668D01*
X73302766Y-86904426D01*
X73462916Y-86904426D01*
X73619983Y-86935668D01*
X73619983Y-86935668D01*
G37*
G36*
X111719983Y-86935668D02*
X111867943Y-86996956D01*
X112001099Y-87085928D01*
X112114339Y-87199168D01*
X112203311Y-87332324D01*
X112264599Y-87480284D01*
X112295841Y-87637351D01*
X112295841Y-87797501D01*
X112264599Y-87954568D01*
X112203311Y-88102528D01*
X112114339Y-88235684D01*
X112001099Y-88348924D01*
X111867943Y-88437896D01*
X111719983Y-88499184D01*
X111562916Y-88530426D01*
X111402766Y-88530426D01*
X111245699Y-88499184D01*
X111097739Y-88437896D01*
X110964583Y-88348924D01*
X110851343Y-88235684D01*
X110762371Y-88102528D01*
X110701083Y-87954568D01*
X110669841Y-87797501D01*
X110669841Y-87637351D01*
X110701083Y-87480284D01*
X110762371Y-87332324D01*
X110851343Y-87199168D01*
X110964583Y-87085928D01*
X111097739Y-86996956D01*
X111245699Y-86935668D01*
X111402766Y-86904426D01*
X111562916Y-86904426D01*
X111719983Y-86935668D01*
X111719983Y-86935668D01*
G37*
G36*
X124673983Y-86935668D02*
X124821943Y-86996956D01*
X124955099Y-87085928D01*
X125068339Y-87199168D01*
X125157311Y-87332324D01*
X125218599Y-87480284D01*
X125249841Y-87637351D01*
X125249841Y-87797501D01*
X125218599Y-87954568D01*
X125157311Y-88102528D01*
X125068339Y-88235684D01*
X124955099Y-88348924D01*
X124821943Y-88437896D01*
X124673983Y-88499184D01*
X124516916Y-88530426D01*
X124356766Y-88530426D01*
X124199699Y-88499184D01*
X124051739Y-88437896D01*
X123918583Y-88348924D01*
X123805343Y-88235684D01*
X123716371Y-88102528D01*
X123655083Y-87954568D01*
X123623841Y-87797501D01*
X123623841Y-87637351D01*
X123655083Y-87480284D01*
X123716371Y-87332324D01*
X123805343Y-87199168D01*
X123918583Y-87085928D01*
X124051739Y-86996956D01*
X124199699Y-86935668D01*
X124356766Y-86904426D01*
X124516916Y-86904426D01*
X124673983Y-86935668D01*
X124673983Y-86935668D01*
G37*
G36*
X149819983Y-86935668D02*
X149967943Y-86996956D01*
X150101099Y-87085928D01*
X150214339Y-87199168D01*
X150303311Y-87332324D01*
X150364599Y-87480284D01*
X150395841Y-87637351D01*
X150395841Y-87797501D01*
X150364599Y-87954568D01*
X150303311Y-88102528D01*
X150214339Y-88235684D01*
X150101099Y-88348924D01*
X149967943Y-88437896D01*
X149819983Y-88499184D01*
X149662916Y-88530426D01*
X149502766Y-88530426D01*
X149345699Y-88499184D01*
X149197739Y-88437896D01*
X149064583Y-88348924D01*
X148951343Y-88235684D01*
X148862371Y-88102528D01*
X148801083Y-87954568D01*
X148769841Y-87797501D01*
X148769841Y-87637351D01*
X148801083Y-87480284D01*
X148862371Y-87332324D01*
X148951343Y-87199168D01*
X149064583Y-87085928D01*
X149197739Y-86996956D01*
X149345699Y-86935668D01*
X149502766Y-86904426D01*
X149662916Y-86904426D01*
X149819983Y-86935668D01*
X149819983Y-86935668D01*
G37*
G36*
X162773983Y-86935668D02*
X162921943Y-86996956D01*
X163055099Y-87085928D01*
X163168339Y-87199168D01*
X163257311Y-87332324D01*
X163318599Y-87480284D01*
X163349841Y-87637351D01*
X163349841Y-87797501D01*
X163318599Y-87954568D01*
X163257311Y-88102528D01*
X163168339Y-88235684D01*
X163055099Y-88348924D01*
X162921943Y-88437896D01*
X162773983Y-88499184D01*
X162616916Y-88530426D01*
X162456766Y-88530426D01*
X162299699Y-88499184D01*
X162151739Y-88437896D01*
X162018583Y-88348924D01*
X161905343Y-88235684D01*
X161816371Y-88102528D01*
X161755083Y-87954568D01*
X161723841Y-87797501D01*
X161723841Y-87637351D01*
X161755083Y-87480284D01*
X161816371Y-87332324D01*
X161905343Y-87199168D01*
X162018583Y-87085928D01*
X162151739Y-86996956D01*
X162299699Y-86935668D01*
X162456766Y-86904426D01*
X162616916Y-86904426D01*
X162773983Y-86935668D01*
X162773983Y-86935668D01*
G37*
G36*
X86573983Y-86935668D02*
X86721943Y-86996956D01*
X86855099Y-87085928D01*
X86968339Y-87199168D01*
X87057311Y-87332324D01*
X87118599Y-87480284D01*
X87149841Y-87637351D01*
X87149841Y-87797501D01*
X87118599Y-87954568D01*
X87057311Y-88102528D01*
X86968339Y-88235684D01*
X86855099Y-88348924D01*
X86721943Y-88437896D01*
X86573983Y-88499184D01*
X86416916Y-88530426D01*
X86256766Y-88530426D01*
X86099699Y-88499184D01*
X85951739Y-88437896D01*
X85818583Y-88348924D01*
X85705343Y-88235684D01*
X85616371Y-88102528D01*
X85555083Y-87954568D01*
X85523841Y-87797501D01*
X85523841Y-87637351D01*
X85555083Y-87480284D01*
X85616371Y-87332324D01*
X85705343Y-87199168D01*
X85818583Y-87085928D01*
X85951739Y-86996956D01*
X86099699Y-86935668D01*
X86256766Y-86904426D01*
X86416916Y-86904426D01*
X86573983Y-86935668D01*
X86573983Y-86935668D01*
G37*
G36*
X181823983Y-84649668D02*
X181971943Y-84710956D01*
X182105099Y-84799928D01*
X182218339Y-84913168D01*
X182307311Y-85046324D01*
X182368599Y-85194284D01*
X182399841Y-85351351D01*
X182399841Y-85511501D01*
X182368599Y-85668568D01*
X182307311Y-85816528D01*
X182218339Y-85949684D01*
X182105099Y-86062924D01*
X181971943Y-86151896D01*
X181823983Y-86213184D01*
X181666916Y-86244426D01*
X181506766Y-86244426D01*
X181349699Y-86213184D01*
X181201739Y-86151896D01*
X181068583Y-86062924D01*
X180955343Y-85949684D01*
X180866371Y-85816528D01*
X180805083Y-85668568D01*
X180773841Y-85511501D01*
X180773841Y-85351351D01*
X180805083Y-85194284D01*
X180866371Y-85046324D01*
X180955343Y-84913168D01*
X181068583Y-84799928D01*
X181201739Y-84710956D01*
X181349699Y-84649668D01*
X181506766Y-84618426D01*
X181666916Y-84618426D01*
X181823983Y-84649668D01*
X181823983Y-84649668D01*
G37*
G36*
X168869983Y-84649668D02*
X169017943Y-84710956D01*
X169151099Y-84799928D01*
X169264339Y-84913168D01*
X169353311Y-85046324D01*
X169414599Y-85194284D01*
X169445841Y-85351351D01*
X169445841Y-85511501D01*
X169414599Y-85668568D01*
X169353311Y-85816528D01*
X169264339Y-85949684D01*
X169151099Y-86062924D01*
X169017943Y-86151896D01*
X168869983Y-86213184D01*
X168712916Y-86244426D01*
X168552766Y-86244426D01*
X168395699Y-86213184D01*
X168247739Y-86151896D01*
X168114583Y-86062924D01*
X168001343Y-85949684D01*
X167912371Y-85816528D01*
X167851083Y-85668568D01*
X167819841Y-85511501D01*
X167819841Y-85351351D01*
X167851083Y-85194284D01*
X167912371Y-85046324D01*
X168001343Y-84913168D01*
X168114583Y-84799928D01*
X168247739Y-84710956D01*
X168395699Y-84649668D01*
X168552766Y-84618426D01*
X168712916Y-84618426D01*
X168869983Y-84649668D01*
X168869983Y-84649668D01*
G37*
G36*
X143723983Y-83125668D02*
X143871943Y-83186956D01*
X144005099Y-83275928D01*
X144118339Y-83389168D01*
X144207311Y-83522324D01*
X144268599Y-83670284D01*
X144299841Y-83827351D01*
X144299841Y-83987501D01*
X144268599Y-84144568D01*
X144207311Y-84292528D01*
X144118339Y-84425684D01*
X144005099Y-84538924D01*
X143871943Y-84627896D01*
X143723983Y-84689184D01*
X143566916Y-84720426D01*
X143406766Y-84720426D01*
X143249699Y-84689184D01*
X143101739Y-84627896D01*
X142968583Y-84538924D01*
X142855343Y-84425684D01*
X142766371Y-84292528D01*
X142705083Y-84144568D01*
X142673841Y-83987501D01*
X142673841Y-83827351D01*
X142705083Y-83670284D01*
X142766371Y-83522324D01*
X142855343Y-83389168D01*
X142968583Y-83275928D01*
X143101739Y-83186956D01*
X143249699Y-83125668D01*
X143406766Y-83094426D01*
X143566916Y-83094426D01*
X143723983Y-83125668D01*
X143723983Y-83125668D01*
G37*
G36*
X130769983Y-83125668D02*
X130917943Y-83186956D01*
X131051099Y-83275928D01*
X131164339Y-83389168D01*
X131253311Y-83522324D01*
X131314599Y-83670284D01*
X131345841Y-83827351D01*
X131345841Y-83987501D01*
X131314599Y-84144568D01*
X131253311Y-84292528D01*
X131164339Y-84425684D01*
X131051099Y-84538924D01*
X130917943Y-84627896D01*
X130769983Y-84689184D01*
X130612916Y-84720426D01*
X130452766Y-84720426D01*
X130295699Y-84689184D01*
X130147739Y-84627896D01*
X130014583Y-84538924D01*
X129901343Y-84425684D01*
X129812371Y-84292528D01*
X129751083Y-84144568D01*
X129719841Y-83987501D01*
X129719841Y-83827351D01*
X129751083Y-83670284D01*
X129812371Y-83522324D01*
X129901343Y-83389168D01*
X130014583Y-83275928D01*
X130147739Y-83186956D01*
X130295699Y-83125668D01*
X130452766Y-83094426D01*
X130612916Y-83094426D01*
X130769983Y-83125668D01*
X130769983Y-83125668D01*
G37*
G36*
X86573983Y-80839668D02*
X86721943Y-80900956D01*
X86855099Y-80989928D01*
X86968339Y-81103168D01*
X87057311Y-81236324D01*
X87118599Y-81384284D01*
X87149841Y-81541351D01*
X87149841Y-81701501D01*
X87118599Y-81858568D01*
X87057311Y-82006528D01*
X86968339Y-82139684D01*
X86855099Y-82252924D01*
X86721943Y-82341896D01*
X86573983Y-82403184D01*
X86416916Y-82434426D01*
X86256766Y-82434426D01*
X86099699Y-82403184D01*
X85951739Y-82341896D01*
X85818583Y-82252924D01*
X85705343Y-82139684D01*
X85616371Y-82006528D01*
X85555083Y-81858568D01*
X85523841Y-81701501D01*
X85523841Y-81541351D01*
X85555083Y-81384284D01*
X85616371Y-81236324D01*
X85705343Y-81103168D01*
X85818583Y-80989928D01*
X85951739Y-80900956D01*
X86099699Y-80839668D01*
X86256766Y-80808426D01*
X86416916Y-80808426D01*
X86573983Y-80839668D01*
X86573983Y-80839668D01*
G37*
G36*
X73619983Y-80839668D02*
X73767943Y-80900956D01*
X73901099Y-80989928D01*
X74014339Y-81103168D01*
X74103311Y-81236324D01*
X74164599Y-81384284D01*
X74195841Y-81541351D01*
X74195841Y-81701501D01*
X74164599Y-81858568D01*
X74103311Y-82006528D01*
X74014339Y-82139684D01*
X73901099Y-82252924D01*
X73767943Y-82341896D01*
X73619983Y-82403184D01*
X73462916Y-82434426D01*
X73302766Y-82434426D01*
X73145699Y-82403184D01*
X72997739Y-82341896D01*
X72864583Y-82252924D01*
X72751343Y-82139684D01*
X72662371Y-82006528D01*
X72601083Y-81858568D01*
X72569841Y-81701501D01*
X72569841Y-81541351D01*
X72601083Y-81384284D01*
X72662371Y-81236324D01*
X72751343Y-81103168D01*
X72864583Y-80989928D01*
X72997739Y-80900956D01*
X73145699Y-80839668D01*
X73302766Y-80808426D01*
X73462916Y-80808426D01*
X73619983Y-80839668D01*
X73619983Y-80839668D01*
G37*
G36*
X149819983Y-80839668D02*
X149967943Y-80900956D01*
X150101099Y-80989928D01*
X150214339Y-81103168D01*
X150303311Y-81236324D01*
X150364599Y-81384284D01*
X150395841Y-81541351D01*
X150395841Y-81701501D01*
X150364599Y-81858568D01*
X150303311Y-82006528D01*
X150214339Y-82139684D01*
X150101099Y-82252924D01*
X149967943Y-82341896D01*
X149819983Y-82403184D01*
X149662916Y-82434426D01*
X149502766Y-82434426D01*
X149345699Y-82403184D01*
X149197739Y-82341896D01*
X149064583Y-82252924D01*
X148951343Y-82139684D01*
X148862371Y-82006528D01*
X148801083Y-81858568D01*
X148769841Y-81701501D01*
X148769841Y-81541351D01*
X148801083Y-81384284D01*
X148862371Y-81236324D01*
X148951343Y-81103168D01*
X149064583Y-80989928D01*
X149197739Y-80900956D01*
X149345699Y-80839668D01*
X149502766Y-80808426D01*
X149662916Y-80808426D01*
X149819983Y-80839668D01*
X149819983Y-80839668D01*
G37*
G36*
X124673983Y-80839668D02*
X124821943Y-80900956D01*
X124955099Y-80989928D01*
X125068339Y-81103168D01*
X125157311Y-81236324D01*
X125218599Y-81384284D01*
X125249841Y-81541351D01*
X125249841Y-81701501D01*
X125218599Y-81858568D01*
X125157311Y-82006528D01*
X125068339Y-82139684D01*
X124955099Y-82252924D01*
X124821943Y-82341896D01*
X124673983Y-82403184D01*
X124516916Y-82434426D01*
X124356766Y-82434426D01*
X124199699Y-82403184D01*
X124051739Y-82341896D01*
X123918583Y-82252924D01*
X123805343Y-82139684D01*
X123716371Y-82006528D01*
X123655083Y-81858568D01*
X123623841Y-81701501D01*
X123623841Y-81541351D01*
X123655083Y-81384284D01*
X123716371Y-81236324D01*
X123805343Y-81103168D01*
X123918583Y-80989928D01*
X124051739Y-80900956D01*
X124199699Y-80839668D01*
X124356766Y-80808426D01*
X124516916Y-80808426D01*
X124673983Y-80839668D01*
X124673983Y-80839668D01*
G37*
G36*
X111719983Y-80839668D02*
X111867943Y-80900956D01*
X112001099Y-80989928D01*
X112114339Y-81103168D01*
X112203311Y-81236324D01*
X112264599Y-81384284D01*
X112295841Y-81541351D01*
X112295841Y-81701501D01*
X112264599Y-81858568D01*
X112203311Y-82006528D01*
X112114339Y-82139684D01*
X112001099Y-82252924D01*
X111867943Y-82341896D01*
X111719983Y-82403184D01*
X111562916Y-82434426D01*
X111402766Y-82434426D01*
X111245699Y-82403184D01*
X111097739Y-82341896D01*
X110964583Y-82252924D01*
X110851343Y-82139684D01*
X110762371Y-82006528D01*
X110701083Y-81858568D01*
X110669841Y-81701501D01*
X110669841Y-81541351D01*
X110701083Y-81384284D01*
X110762371Y-81236324D01*
X110851343Y-81103168D01*
X110964583Y-80989928D01*
X111097739Y-80900956D01*
X111245699Y-80839668D01*
X111402766Y-80808426D01*
X111562916Y-80808426D01*
X111719983Y-80839668D01*
X111719983Y-80839668D01*
G37*
G36*
X162773983Y-80839668D02*
X162921943Y-80900956D01*
X163055099Y-80989928D01*
X163168339Y-81103168D01*
X163257311Y-81236324D01*
X163318599Y-81384284D01*
X163349841Y-81541351D01*
X163349841Y-81701501D01*
X163318599Y-81858568D01*
X163257311Y-82006528D01*
X163168339Y-82139684D01*
X163055099Y-82252924D01*
X162921943Y-82341896D01*
X162773983Y-82403184D01*
X162616916Y-82434426D01*
X162456766Y-82434426D01*
X162299699Y-82403184D01*
X162151739Y-82341896D01*
X162018583Y-82252924D01*
X161905343Y-82139684D01*
X161816371Y-82006528D01*
X161755083Y-81858568D01*
X161723841Y-81701501D01*
X161723841Y-81541351D01*
X161755083Y-81384284D01*
X161816371Y-81236324D01*
X161905343Y-81103168D01*
X162018583Y-80989928D01*
X162151739Y-80900956D01*
X162299699Y-80839668D01*
X162456766Y-80808426D01*
X162616916Y-80808426D01*
X162773983Y-80839668D01*
X162773983Y-80839668D01*
G37*
G36*
X105623983Y-77410668D02*
X105771943Y-77471956D01*
X105838971Y-77516743D01*
X105905098Y-77560927D01*
X106018340Y-77674169D01*
X106056548Y-77731352D01*
X106107311Y-77807324D01*
X106168599Y-77955284D01*
X106199841Y-78112351D01*
X106199841Y-78272501D01*
X106168599Y-78429568D01*
X106107311Y-78577528D01*
X106018339Y-78710684D01*
X105905099Y-78823924D01*
X105771943Y-78912896D01*
X105623983Y-78974184D01*
X105466916Y-79005426D01*
X105306766Y-79005426D01*
X105149699Y-78974184D01*
X105001739Y-78912896D01*
X104868583Y-78823924D01*
X104755343Y-78710684D01*
X104666371Y-78577528D01*
X104605083Y-78429568D01*
X104573841Y-78272501D01*
X104573841Y-78112351D01*
X104605083Y-77955284D01*
X104666371Y-77807324D01*
X104717134Y-77731352D01*
X104755342Y-77674169D01*
X104868584Y-77560927D01*
X104934711Y-77516743D01*
X105001739Y-77471956D01*
X105149699Y-77410668D01*
X105306766Y-77379426D01*
X105466916Y-77379426D01*
X105623983Y-77410668D01*
X105623983Y-77410668D01*
G37*
G36*
X92669983Y-77410668D02*
X92817943Y-77471956D01*
X92884971Y-77516743D01*
X92951098Y-77560927D01*
X93064340Y-77674169D01*
X93102548Y-77731352D01*
X93153311Y-77807324D01*
X93214599Y-77955284D01*
X93245841Y-78112351D01*
X93245841Y-78272501D01*
X93214599Y-78429568D01*
X93153311Y-78577528D01*
X93064339Y-78710684D01*
X92951099Y-78823924D01*
X92817943Y-78912896D01*
X92669983Y-78974184D01*
X92512916Y-79005426D01*
X92352766Y-79005426D01*
X92195699Y-78974184D01*
X92047739Y-78912896D01*
X91914583Y-78823924D01*
X91801343Y-78710684D01*
X91712371Y-78577528D01*
X91651083Y-78429568D01*
X91619841Y-78272501D01*
X91619841Y-78112351D01*
X91651083Y-77955284D01*
X91712371Y-77807324D01*
X91763134Y-77731352D01*
X91801342Y-77674169D01*
X91914584Y-77560927D01*
X91980711Y-77516743D01*
X92047739Y-77471956D01*
X92195699Y-77410668D01*
X92352766Y-77379426D01*
X92512916Y-77379426D01*
X92669983Y-77410668D01*
X92669983Y-77410668D01*
G37*
G36*
X130769983Y-77029668D02*
X130917943Y-77090956D01*
X131051099Y-77179928D01*
X131164339Y-77293168D01*
X131253311Y-77426324D01*
X131314599Y-77574284D01*
X131345841Y-77731351D01*
X131345841Y-77891501D01*
X131314599Y-78048568D01*
X131288179Y-78112351D01*
X131253312Y-78196526D01*
X131202548Y-78272501D01*
X131164339Y-78329684D01*
X131051099Y-78442924D01*
X130917943Y-78531896D01*
X130769983Y-78593184D01*
X130612916Y-78624426D01*
X130452766Y-78624426D01*
X130295699Y-78593184D01*
X130147739Y-78531896D01*
X130014583Y-78442924D01*
X129901343Y-78329684D01*
X129863135Y-78272501D01*
X129812370Y-78196526D01*
X129777503Y-78112351D01*
X129751083Y-78048568D01*
X129719841Y-77891501D01*
X129719841Y-77731351D01*
X129751083Y-77574284D01*
X129812371Y-77426324D01*
X129901343Y-77293168D01*
X130014583Y-77179928D01*
X130147739Y-77090956D01*
X130295699Y-77029668D01*
X130452766Y-76998426D01*
X130612916Y-76998426D01*
X130769983Y-77029668D01*
X130769983Y-77029668D01*
G37*
G36*
X143723983Y-77029668D02*
X143871943Y-77090956D01*
X144005099Y-77179928D01*
X144118339Y-77293168D01*
X144207311Y-77426324D01*
X144268599Y-77574284D01*
X144299841Y-77731351D01*
X144299841Y-77891501D01*
X144268599Y-78048568D01*
X144242179Y-78112351D01*
X144207312Y-78196526D01*
X144156548Y-78272501D01*
X144118339Y-78329684D01*
X144005099Y-78442924D01*
X143871943Y-78531896D01*
X143723983Y-78593184D01*
X143566916Y-78624426D01*
X143406766Y-78624426D01*
X143249699Y-78593184D01*
X143101739Y-78531896D01*
X142968583Y-78442924D01*
X142855343Y-78329684D01*
X142817135Y-78272501D01*
X142766370Y-78196526D01*
X142731503Y-78112351D01*
X142705083Y-78048568D01*
X142673841Y-77891501D01*
X142673841Y-77731351D01*
X142705083Y-77574284D01*
X142766371Y-77426324D01*
X142855343Y-77293168D01*
X142968583Y-77179928D01*
X143101739Y-77090956D01*
X143249699Y-77029668D01*
X143406766Y-76998426D01*
X143566916Y-76998426D01*
X143723983Y-77029668D01*
X143723983Y-77029668D01*
G37*
G36*
X181823983Y-71695668D02*
X181971943Y-71756956D01*
X182038971Y-71801743D01*
X182105098Y-71845927D01*
X182218340Y-71959169D01*
X182256548Y-72016352D01*
X182307311Y-72092324D01*
X182368599Y-72240284D01*
X182399841Y-72397351D01*
X182399841Y-72557501D01*
X182368599Y-72714568D01*
X182307311Y-72862528D01*
X182218339Y-72995684D01*
X182105099Y-73108924D01*
X181971943Y-73197896D01*
X181823983Y-73259184D01*
X181666916Y-73290426D01*
X181506766Y-73290426D01*
X181349699Y-73259184D01*
X181201739Y-73197896D01*
X181068583Y-73108924D01*
X180955343Y-72995684D01*
X180866371Y-72862528D01*
X180805083Y-72714568D01*
X180773841Y-72557501D01*
X180773841Y-72397351D01*
X180805083Y-72240284D01*
X180866371Y-72092324D01*
X180917134Y-72016352D01*
X180955342Y-71959169D01*
X181068584Y-71845927D01*
X181134711Y-71801743D01*
X181201739Y-71756956D01*
X181349699Y-71695668D01*
X181506766Y-71664426D01*
X181666916Y-71664426D01*
X181823983Y-71695668D01*
X181823983Y-71695668D01*
G37*
G36*
X168869983Y-71695668D02*
X169017943Y-71756956D01*
X169084971Y-71801743D01*
X169151098Y-71845927D01*
X169264340Y-71959169D01*
X169302548Y-72016352D01*
X169353311Y-72092324D01*
X169414599Y-72240284D01*
X169445841Y-72397351D01*
X169445841Y-72557501D01*
X169414599Y-72714568D01*
X169353311Y-72862528D01*
X169264339Y-72995684D01*
X169151099Y-73108924D01*
X169017943Y-73197896D01*
X168869983Y-73259184D01*
X168712916Y-73290426D01*
X168552766Y-73290426D01*
X168395699Y-73259184D01*
X168247739Y-73197896D01*
X168114583Y-73108924D01*
X168001343Y-72995684D01*
X167912371Y-72862528D01*
X167851083Y-72714568D01*
X167819841Y-72557501D01*
X167819841Y-72397351D01*
X167851083Y-72240284D01*
X167912371Y-72092324D01*
X167963134Y-72016352D01*
X168001342Y-71959169D01*
X168114584Y-71845927D01*
X168180711Y-71801743D01*
X168247739Y-71756956D01*
X168395699Y-71695668D01*
X168552766Y-71664426D01*
X168712916Y-71664426D01*
X168869983Y-71695668D01*
X168869983Y-71695668D01*
G37*
G36*
X92669983Y-71314668D02*
X92817943Y-71375956D01*
X92951099Y-71464928D01*
X93064339Y-71578168D01*
X93153311Y-71711324D01*
X93214599Y-71859284D01*
X93245841Y-72016351D01*
X93245841Y-72176501D01*
X93214599Y-72333568D01*
X93188179Y-72397351D01*
X93153312Y-72481526D01*
X93102548Y-72557501D01*
X93064339Y-72614684D01*
X92951099Y-72727924D01*
X92817943Y-72816896D01*
X92669983Y-72878184D01*
X92512916Y-72909426D01*
X92352766Y-72909426D01*
X92195699Y-72878184D01*
X92047739Y-72816896D01*
X91914583Y-72727924D01*
X91801343Y-72614684D01*
X91763135Y-72557501D01*
X91712370Y-72481526D01*
X91677503Y-72397351D01*
X91651083Y-72333568D01*
X91619841Y-72176501D01*
X91619841Y-72016351D01*
X91651083Y-71859284D01*
X91712371Y-71711324D01*
X91801343Y-71578168D01*
X91914583Y-71464928D01*
X92047739Y-71375956D01*
X92195699Y-71314668D01*
X92352766Y-71283426D01*
X92512916Y-71283426D01*
X92669983Y-71314668D01*
X92669983Y-71314668D01*
G37*
G36*
X105623983Y-71314668D02*
X105771943Y-71375956D01*
X105905099Y-71464928D01*
X106018339Y-71578168D01*
X106107311Y-71711324D01*
X106168599Y-71859284D01*
X106199841Y-72016351D01*
X106199841Y-72176501D01*
X106168599Y-72333568D01*
X106142179Y-72397351D01*
X106107312Y-72481526D01*
X106056548Y-72557501D01*
X106018339Y-72614684D01*
X105905099Y-72727924D01*
X105771943Y-72816896D01*
X105623983Y-72878184D01*
X105466916Y-72909426D01*
X105306766Y-72909426D01*
X105149699Y-72878184D01*
X105001739Y-72816896D01*
X104868583Y-72727924D01*
X104755343Y-72614684D01*
X104717135Y-72557501D01*
X104666370Y-72481526D01*
X104631503Y-72397351D01*
X104605083Y-72333568D01*
X104573841Y-72176501D01*
X104573841Y-72016351D01*
X104605083Y-71859284D01*
X104666371Y-71711324D01*
X104755343Y-71578168D01*
X104868583Y-71464928D01*
X105001739Y-71375956D01*
X105149699Y-71314668D01*
X105306766Y-71283426D01*
X105466916Y-71283426D01*
X105623983Y-71314668D01*
X105623983Y-71314668D01*
G37*
G36*
X124673983Y-67885668D02*
X124821943Y-67946956D01*
X124955099Y-68035928D01*
X125068339Y-68149168D01*
X125157311Y-68282324D01*
X125218599Y-68430284D01*
X125249841Y-68587351D01*
X125249841Y-68747501D01*
X125218599Y-68904568D01*
X125157311Y-69052528D01*
X125068339Y-69185684D01*
X124955099Y-69298924D01*
X124821943Y-69387896D01*
X124673983Y-69449184D01*
X124516916Y-69480426D01*
X124356766Y-69480426D01*
X124199699Y-69449184D01*
X124051739Y-69387896D01*
X123918583Y-69298924D01*
X123805343Y-69185684D01*
X123716371Y-69052528D01*
X123655083Y-68904568D01*
X123623841Y-68747501D01*
X123623841Y-68587351D01*
X123655083Y-68430284D01*
X123716371Y-68282324D01*
X123805343Y-68149168D01*
X123918583Y-68035928D01*
X124051739Y-67946956D01*
X124199699Y-67885668D01*
X124356766Y-67854426D01*
X124516916Y-67854426D01*
X124673983Y-67885668D01*
X124673983Y-67885668D01*
G37*
G36*
X149819983Y-67885668D02*
X149967943Y-67946956D01*
X150101099Y-68035928D01*
X150214339Y-68149168D01*
X150303311Y-68282324D01*
X150364599Y-68430284D01*
X150395841Y-68587351D01*
X150395841Y-68747501D01*
X150364599Y-68904568D01*
X150303311Y-69052528D01*
X150214339Y-69185684D01*
X150101099Y-69298924D01*
X149967943Y-69387896D01*
X149819983Y-69449184D01*
X149662916Y-69480426D01*
X149502766Y-69480426D01*
X149345699Y-69449184D01*
X149197739Y-69387896D01*
X149064583Y-69298924D01*
X148951343Y-69185684D01*
X148862371Y-69052528D01*
X148801083Y-68904568D01*
X148769841Y-68747501D01*
X148769841Y-68587351D01*
X148801083Y-68430284D01*
X148862371Y-68282324D01*
X148951343Y-68149168D01*
X149064583Y-68035928D01*
X149197739Y-67946956D01*
X149345699Y-67885668D01*
X149502766Y-67854426D01*
X149662916Y-67854426D01*
X149819983Y-67885668D01*
X149819983Y-67885668D01*
G37*
G36*
X111719983Y-67885668D02*
X111867943Y-67946956D01*
X112001099Y-68035928D01*
X112114339Y-68149168D01*
X112203311Y-68282324D01*
X112264599Y-68430284D01*
X112295841Y-68587351D01*
X112295841Y-68747501D01*
X112264599Y-68904568D01*
X112203311Y-69052528D01*
X112114339Y-69185684D01*
X112001099Y-69298924D01*
X111867943Y-69387896D01*
X111719983Y-69449184D01*
X111562916Y-69480426D01*
X111402766Y-69480426D01*
X111245699Y-69449184D01*
X111097739Y-69387896D01*
X110964583Y-69298924D01*
X110851343Y-69185684D01*
X110762371Y-69052528D01*
X110701083Y-68904568D01*
X110669841Y-68747501D01*
X110669841Y-68587351D01*
X110701083Y-68430284D01*
X110762371Y-68282324D01*
X110851343Y-68149168D01*
X110964583Y-68035928D01*
X111097739Y-67946956D01*
X111245699Y-67885668D01*
X111402766Y-67854426D01*
X111562916Y-67854426D01*
X111719983Y-67885668D01*
X111719983Y-67885668D01*
G37*
G36*
X73619983Y-67885668D02*
X73767943Y-67946956D01*
X73901099Y-68035928D01*
X74014339Y-68149168D01*
X74103311Y-68282324D01*
X74164599Y-68430284D01*
X74195841Y-68587351D01*
X74195841Y-68747501D01*
X74164599Y-68904568D01*
X74103311Y-69052528D01*
X74014339Y-69185684D01*
X73901099Y-69298924D01*
X73767943Y-69387896D01*
X73619983Y-69449184D01*
X73462916Y-69480426D01*
X73302766Y-69480426D01*
X73145699Y-69449184D01*
X72997739Y-69387896D01*
X72864583Y-69298924D01*
X72751343Y-69185684D01*
X72662371Y-69052528D01*
X72601083Y-68904568D01*
X72569841Y-68747501D01*
X72569841Y-68587351D01*
X72601083Y-68430284D01*
X72662371Y-68282324D01*
X72751343Y-68149168D01*
X72864583Y-68035928D01*
X72997739Y-67946956D01*
X73145699Y-67885668D01*
X73302766Y-67854426D01*
X73462916Y-67854426D01*
X73619983Y-67885668D01*
X73619983Y-67885668D01*
G37*
G36*
X162773983Y-67885668D02*
X162921943Y-67946956D01*
X163055099Y-68035928D01*
X163168339Y-68149168D01*
X163257311Y-68282324D01*
X163318599Y-68430284D01*
X163349841Y-68587351D01*
X163349841Y-68747501D01*
X163318599Y-68904568D01*
X163257311Y-69052528D01*
X163168339Y-69185684D01*
X163055099Y-69298924D01*
X162921943Y-69387896D01*
X162773983Y-69449184D01*
X162616916Y-69480426D01*
X162456766Y-69480426D01*
X162299699Y-69449184D01*
X162151739Y-69387896D01*
X162018583Y-69298924D01*
X161905343Y-69185684D01*
X161816371Y-69052528D01*
X161755083Y-68904568D01*
X161723841Y-68747501D01*
X161723841Y-68587351D01*
X161755083Y-68430284D01*
X161816371Y-68282324D01*
X161905343Y-68149168D01*
X162018583Y-68035928D01*
X162151739Y-67946956D01*
X162299699Y-67885668D01*
X162456766Y-67854426D01*
X162616916Y-67854426D01*
X162773983Y-67885668D01*
X162773983Y-67885668D01*
G37*
G36*
X86573983Y-67885668D02*
X86721943Y-67946956D01*
X86855099Y-68035928D01*
X86968339Y-68149168D01*
X87057311Y-68282324D01*
X87118599Y-68430284D01*
X87149841Y-68587351D01*
X87149841Y-68747501D01*
X87118599Y-68904568D01*
X87057311Y-69052528D01*
X86968339Y-69185684D01*
X86855099Y-69298924D01*
X86721943Y-69387896D01*
X86573983Y-69449184D01*
X86416916Y-69480426D01*
X86256766Y-69480426D01*
X86099699Y-69449184D01*
X85951739Y-69387896D01*
X85818583Y-69298924D01*
X85705343Y-69185684D01*
X85616371Y-69052528D01*
X85555083Y-68904568D01*
X85523841Y-68747501D01*
X85523841Y-68587351D01*
X85555083Y-68430284D01*
X85616371Y-68282324D01*
X85705343Y-68149168D01*
X85818583Y-68035928D01*
X85951739Y-67946956D01*
X86099699Y-67885668D01*
X86256766Y-67854426D01*
X86416916Y-67854426D01*
X86573983Y-67885668D01*
X86573983Y-67885668D01*
G37*
G36*
X181823983Y-65599668D02*
X181971943Y-65660956D01*
X182105099Y-65749928D01*
X182218339Y-65863168D01*
X182307311Y-65996324D01*
X182368599Y-66144284D01*
X182399841Y-66301351D01*
X182399841Y-66461501D01*
X182368599Y-66618568D01*
X182307311Y-66766528D01*
X182218339Y-66899684D01*
X182105099Y-67012924D01*
X181971943Y-67101896D01*
X181823983Y-67163184D01*
X181666916Y-67194426D01*
X181506766Y-67194426D01*
X181349699Y-67163184D01*
X181201739Y-67101896D01*
X181068583Y-67012924D01*
X180955343Y-66899684D01*
X180866371Y-66766528D01*
X180805083Y-66618568D01*
X180773841Y-66461501D01*
X180773841Y-66301351D01*
X180805083Y-66144284D01*
X180866371Y-65996324D01*
X180955343Y-65863168D01*
X181068583Y-65749928D01*
X181201739Y-65660956D01*
X181349699Y-65599668D01*
X181506766Y-65568426D01*
X181666916Y-65568426D01*
X181823983Y-65599668D01*
X181823983Y-65599668D01*
G37*
G36*
X168869983Y-65599668D02*
X169017943Y-65660956D01*
X169151099Y-65749928D01*
X169264339Y-65863168D01*
X169353311Y-65996324D01*
X169414599Y-66144284D01*
X169445841Y-66301351D01*
X169445841Y-66461501D01*
X169414599Y-66618568D01*
X169353311Y-66766528D01*
X169264339Y-66899684D01*
X169151099Y-67012924D01*
X169017943Y-67101896D01*
X168869983Y-67163184D01*
X168712916Y-67194426D01*
X168552766Y-67194426D01*
X168395699Y-67163184D01*
X168247739Y-67101896D01*
X168114583Y-67012924D01*
X168001343Y-66899684D01*
X167912371Y-66766528D01*
X167851083Y-66618568D01*
X167819841Y-66461501D01*
X167819841Y-66301351D01*
X167851083Y-66144284D01*
X167912371Y-65996324D01*
X168001343Y-65863168D01*
X168114583Y-65749928D01*
X168247739Y-65660956D01*
X168395699Y-65599668D01*
X168552766Y-65568426D01*
X168712916Y-65568426D01*
X168869983Y-65599668D01*
X168869983Y-65599668D01*
G37*
G36*
X143723983Y-64075668D02*
X143871943Y-64136956D01*
X144005099Y-64225928D01*
X144118339Y-64339168D01*
X144207311Y-64472324D01*
X144268599Y-64620284D01*
X144299841Y-64777351D01*
X144299841Y-64937501D01*
X144268599Y-65094568D01*
X144207311Y-65242528D01*
X144118339Y-65375684D01*
X144005099Y-65488924D01*
X143871943Y-65577896D01*
X143723983Y-65639184D01*
X143566916Y-65670426D01*
X143406766Y-65670426D01*
X143249699Y-65639184D01*
X143101739Y-65577896D01*
X142968583Y-65488924D01*
X142855343Y-65375684D01*
X142766371Y-65242528D01*
X142705083Y-65094568D01*
X142673841Y-64937501D01*
X142673841Y-64777351D01*
X142705083Y-64620284D01*
X142766371Y-64472324D01*
X142855343Y-64339168D01*
X142968583Y-64225928D01*
X143101739Y-64136956D01*
X143249699Y-64075668D01*
X143406766Y-64044426D01*
X143566916Y-64044426D01*
X143723983Y-64075668D01*
X143723983Y-64075668D01*
G37*
G36*
X130769983Y-64075668D02*
X130917943Y-64136956D01*
X131051099Y-64225928D01*
X131164339Y-64339168D01*
X131253311Y-64472324D01*
X131314599Y-64620284D01*
X131345841Y-64777351D01*
X131345841Y-64937501D01*
X131314599Y-65094568D01*
X131253311Y-65242528D01*
X131164339Y-65375684D01*
X131051099Y-65488924D01*
X130917943Y-65577896D01*
X130769983Y-65639184D01*
X130612916Y-65670426D01*
X130452766Y-65670426D01*
X130295699Y-65639184D01*
X130147739Y-65577896D01*
X130014583Y-65488924D01*
X129901343Y-65375684D01*
X129812371Y-65242528D01*
X129751083Y-65094568D01*
X129719841Y-64937501D01*
X129719841Y-64777351D01*
X129751083Y-64620284D01*
X129812371Y-64472324D01*
X129901343Y-64339168D01*
X130014583Y-64225928D01*
X130147739Y-64136956D01*
X130295699Y-64075668D01*
X130452766Y-64044426D01*
X130612916Y-64044426D01*
X130769983Y-64075668D01*
X130769983Y-64075668D01*
G37*
G36*
X162773983Y-61789668D02*
X162921943Y-61850956D01*
X163055099Y-61939928D01*
X163168339Y-62053168D01*
X163257311Y-62186324D01*
X163318599Y-62334284D01*
X163349841Y-62491351D01*
X163349841Y-62651501D01*
X163318599Y-62808568D01*
X163257311Y-62956528D01*
X163168339Y-63089684D01*
X163055099Y-63202924D01*
X162921943Y-63291896D01*
X162773983Y-63353184D01*
X162616916Y-63384426D01*
X162456766Y-63384426D01*
X162299699Y-63353184D01*
X162151739Y-63291896D01*
X162018583Y-63202924D01*
X161905343Y-63089684D01*
X161816371Y-62956528D01*
X161755083Y-62808568D01*
X161723841Y-62651501D01*
X161723841Y-62491351D01*
X161755083Y-62334284D01*
X161816371Y-62186324D01*
X161905343Y-62053168D01*
X162018583Y-61939928D01*
X162151739Y-61850956D01*
X162299699Y-61789668D01*
X162456766Y-61758426D01*
X162616916Y-61758426D01*
X162773983Y-61789668D01*
X162773983Y-61789668D01*
G37*
G36*
X111719983Y-61789668D02*
X111867943Y-61850956D01*
X112001099Y-61939928D01*
X112114339Y-62053168D01*
X112203311Y-62186324D01*
X112264599Y-62334284D01*
X112295841Y-62491351D01*
X112295841Y-62651501D01*
X112264599Y-62808568D01*
X112203311Y-62956528D01*
X112114339Y-63089684D01*
X112001099Y-63202924D01*
X111867943Y-63291896D01*
X111719983Y-63353184D01*
X111562916Y-63384426D01*
X111402766Y-63384426D01*
X111245699Y-63353184D01*
X111097739Y-63291896D01*
X110964583Y-63202924D01*
X110851343Y-63089684D01*
X110762371Y-62956528D01*
X110701083Y-62808568D01*
X110669841Y-62651501D01*
X110669841Y-62491351D01*
X110701083Y-62334284D01*
X110762371Y-62186324D01*
X110851343Y-62053168D01*
X110964583Y-61939928D01*
X111097739Y-61850956D01*
X111245699Y-61789668D01*
X111402766Y-61758426D01*
X111562916Y-61758426D01*
X111719983Y-61789668D01*
X111719983Y-61789668D01*
G37*
G36*
X124673983Y-61789668D02*
X124821943Y-61850956D01*
X124955099Y-61939928D01*
X125068339Y-62053168D01*
X125157311Y-62186324D01*
X125218599Y-62334284D01*
X125249841Y-62491351D01*
X125249841Y-62651501D01*
X125218599Y-62808568D01*
X125157311Y-62956528D01*
X125068339Y-63089684D01*
X124955099Y-63202924D01*
X124821943Y-63291896D01*
X124673983Y-63353184D01*
X124516916Y-63384426D01*
X124356766Y-63384426D01*
X124199699Y-63353184D01*
X124051739Y-63291896D01*
X123918583Y-63202924D01*
X123805343Y-63089684D01*
X123716371Y-62956528D01*
X123655083Y-62808568D01*
X123623841Y-62651501D01*
X123623841Y-62491351D01*
X123655083Y-62334284D01*
X123716371Y-62186324D01*
X123805343Y-62053168D01*
X123918583Y-61939928D01*
X124051739Y-61850956D01*
X124199699Y-61789668D01*
X124356766Y-61758426D01*
X124516916Y-61758426D01*
X124673983Y-61789668D01*
X124673983Y-61789668D01*
G37*
G36*
X149819983Y-61789668D02*
X149967943Y-61850956D01*
X150101099Y-61939928D01*
X150214339Y-62053168D01*
X150303311Y-62186324D01*
X150364599Y-62334284D01*
X150395841Y-62491351D01*
X150395841Y-62651501D01*
X150364599Y-62808568D01*
X150303311Y-62956528D01*
X150214339Y-63089684D01*
X150101099Y-63202924D01*
X149967943Y-63291896D01*
X149819983Y-63353184D01*
X149662916Y-63384426D01*
X149502766Y-63384426D01*
X149345699Y-63353184D01*
X149197739Y-63291896D01*
X149064583Y-63202924D01*
X148951343Y-63089684D01*
X148862371Y-62956528D01*
X148801083Y-62808568D01*
X148769841Y-62651501D01*
X148769841Y-62491351D01*
X148801083Y-62334284D01*
X148862371Y-62186324D01*
X148951343Y-62053168D01*
X149064583Y-61939928D01*
X149197739Y-61850956D01*
X149345699Y-61789668D01*
X149502766Y-61758426D01*
X149662916Y-61758426D01*
X149819983Y-61789668D01*
X149819983Y-61789668D01*
G37*
G36*
X80458093Y-56662244D02*
X80458095Y-56662245D01*
X80458096Y-56662245D01*
X80831354Y-56816853D01*
X80831355Y-56816854D01*
X81167280Y-57041312D01*
X81452955Y-57326987D01*
X81452957Y-57326990D01*
X81677414Y-57662913D01*
X81808618Y-57979669D01*
X81832023Y-58036174D01*
X81910841Y-58432419D01*
X81910841Y-58836433D01*
X81834048Y-59222500D01*
X81832022Y-59232681D01*
X81677414Y-59605939D01*
X81677413Y-59605940D01*
X81452955Y-59941865D01*
X81167280Y-60227540D01*
X81167277Y-60227542D01*
X80831354Y-60451999D01*
X80458096Y-60606607D01*
X80458095Y-60606607D01*
X80458093Y-60606608D01*
X80061848Y-60685426D01*
X79657834Y-60685426D01*
X79261589Y-60606608D01*
X79261587Y-60606607D01*
X79261586Y-60606607D01*
X78888328Y-60451999D01*
X78552405Y-60227542D01*
X78552402Y-60227540D01*
X78266727Y-59941865D01*
X78042269Y-59605940D01*
X78042268Y-59605939D01*
X77887660Y-59232681D01*
X77885635Y-59222500D01*
X77808841Y-58836433D01*
X77808841Y-58432419D01*
X77887659Y-58036174D01*
X77911064Y-57979669D01*
X78042268Y-57662913D01*
X78266725Y-57326990D01*
X78266727Y-57326987D01*
X78552402Y-57041312D01*
X78888327Y-56816854D01*
X78888328Y-56816853D01*
X79261586Y-56662245D01*
X79261587Y-56662245D01*
X79261589Y-56662244D01*
X79657834Y-56583426D01*
X80061848Y-56583426D01*
X80458093Y-56662244D01*
X80458093Y-56662244D01*
G37*
G36*
X92669983Y-58360668D02*
X92817943Y-58421956D01*
X92833602Y-58432419D01*
X92951098Y-58510927D01*
X93064340Y-58624169D01*
X93102548Y-58681352D01*
X93153311Y-58757324D01*
X93214599Y-58905284D01*
X93245841Y-59062351D01*
X93245841Y-59222501D01*
X93214599Y-59379568D01*
X93153311Y-59527528D01*
X93064339Y-59660684D01*
X92951099Y-59773924D01*
X92817943Y-59862896D01*
X92669983Y-59924184D01*
X92512916Y-59955426D01*
X92352766Y-59955426D01*
X92195699Y-59924184D01*
X92047739Y-59862896D01*
X91914583Y-59773924D01*
X91801343Y-59660684D01*
X91712371Y-59527528D01*
X91651083Y-59379568D01*
X91619841Y-59222501D01*
X91619841Y-59062351D01*
X91651083Y-58905284D01*
X91712371Y-58757324D01*
X91763134Y-58681352D01*
X91801342Y-58624169D01*
X91914584Y-58510927D01*
X92032080Y-58432419D01*
X92047739Y-58421956D01*
X92195699Y-58360668D01*
X92352766Y-58329426D01*
X92512916Y-58329426D01*
X92669983Y-58360668D01*
X92669983Y-58360668D01*
G37*
G36*
X105623983Y-58360668D02*
X105771943Y-58421956D01*
X105787602Y-58432419D01*
X105905098Y-58510927D01*
X106018340Y-58624169D01*
X106056548Y-58681352D01*
X106107311Y-58757324D01*
X106168599Y-58905284D01*
X106199841Y-59062351D01*
X106199841Y-59222501D01*
X106168599Y-59379568D01*
X106107311Y-59527528D01*
X106018339Y-59660684D01*
X105905099Y-59773924D01*
X105771943Y-59862896D01*
X105623983Y-59924184D01*
X105466916Y-59955426D01*
X105306766Y-59955426D01*
X105149699Y-59924184D01*
X105001739Y-59862896D01*
X104868583Y-59773924D01*
X104755343Y-59660684D01*
X104666371Y-59527528D01*
X104605083Y-59379568D01*
X104573841Y-59222501D01*
X104573841Y-59062351D01*
X104605083Y-58905284D01*
X104666371Y-58757324D01*
X104717134Y-58681352D01*
X104755342Y-58624169D01*
X104868584Y-58510927D01*
X104986080Y-58432419D01*
X105001739Y-58421956D01*
X105149699Y-58360668D01*
X105306766Y-58329426D01*
X105466916Y-58329426D01*
X105623983Y-58360668D01*
X105623983Y-58360668D01*
G37*
G36*
X143723983Y-57979668D02*
X143838424Y-58027072D01*
X143860399Y-58036174D01*
X143871943Y-58040956D01*
X144005099Y-58129928D01*
X144118339Y-58243168D01*
X144207311Y-58376324D01*
X144268599Y-58524284D01*
X144299841Y-58681351D01*
X144299841Y-58841501D01*
X144268599Y-58998568D01*
X144242179Y-59062351D01*
X144207312Y-59146526D01*
X144149748Y-59232678D01*
X144118339Y-59279684D01*
X144005099Y-59392924D01*
X143871943Y-59481896D01*
X143723983Y-59543184D01*
X143566916Y-59574426D01*
X143406766Y-59574426D01*
X143249699Y-59543184D01*
X143101739Y-59481896D01*
X142968583Y-59392924D01*
X142855343Y-59279684D01*
X142823935Y-59232678D01*
X142766370Y-59146526D01*
X142731503Y-59062351D01*
X142705083Y-58998568D01*
X142673841Y-58841501D01*
X142673841Y-58681351D01*
X142705083Y-58524284D01*
X142766371Y-58376324D01*
X142855343Y-58243168D01*
X142968583Y-58129928D01*
X143101739Y-58040956D01*
X143113284Y-58036174D01*
X143135258Y-58027072D01*
X143249699Y-57979668D01*
X143406766Y-57948426D01*
X143566916Y-57948426D01*
X143723983Y-57979668D01*
X143723983Y-57979668D01*
G37*
G36*
X130769983Y-57979668D02*
X130884424Y-58027072D01*
X130906399Y-58036174D01*
X130917943Y-58040956D01*
X131051099Y-58129928D01*
X131164339Y-58243168D01*
X131253311Y-58376324D01*
X131314599Y-58524284D01*
X131345841Y-58681351D01*
X131345841Y-58841501D01*
X131314599Y-58998568D01*
X131288179Y-59062351D01*
X131253312Y-59146526D01*
X131195748Y-59232678D01*
X131164339Y-59279684D01*
X131051099Y-59392924D01*
X130917943Y-59481896D01*
X130769983Y-59543184D01*
X130612916Y-59574426D01*
X130452766Y-59574426D01*
X130295699Y-59543184D01*
X130147739Y-59481896D01*
X130014583Y-59392924D01*
X129901343Y-59279684D01*
X129869935Y-59232678D01*
X129812370Y-59146526D01*
X129777503Y-59062351D01*
X129751083Y-58998568D01*
X129719841Y-58841501D01*
X129719841Y-58681351D01*
X129751083Y-58524284D01*
X129812371Y-58376324D01*
X129901343Y-58243168D01*
X130014583Y-58129928D01*
X130147739Y-58040956D01*
X130159284Y-58036174D01*
X130181258Y-58027072D01*
X130295699Y-57979668D01*
X130452766Y-57948426D01*
X130612916Y-57948426D01*
X130769983Y-57979668D01*
X130769983Y-57979668D01*
G37*
G36*
X181823983Y-52645668D02*
X181971943Y-52706956D01*
X182105099Y-52795928D01*
X182218339Y-52909168D01*
X182307311Y-53042324D01*
X182368599Y-53190284D01*
X182399841Y-53347351D01*
X182399841Y-53507501D01*
X182368599Y-53664568D01*
X182307311Y-53812528D01*
X182218339Y-53945684D01*
X182105099Y-54058924D01*
X181971943Y-54147896D01*
X181823983Y-54209184D01*
X181666916Y-54240426D01*
X181506766Y-54240426D01*
X181349699Y-54209184D01*
X181201739Y-54147896D01*
X181068583Y-54058924D01*
X180955343Y-53945684D01*
X180866371Y-53812528D01*
X180805083Y-53664568D01*
X180773841Y-53507501D01*
X180773841Y-53347351D01*
X180805083Y-53190284D01*
X180866371Y-53042324D01*
X180955343Y-52909168D01*
X181068583Y-52795928D01*
X181201739Y-52706956D01*
X181349699Y-52645668D01*
X181506766Y-52614426D01*
X181666916Y-52614426D01*
X181823983Y-52645668D01*
X181823983Y-52645668D01*
G37*
G36*
X168869983Y-52645668D02*
X169017943Y-52706956D01*
X169151099Y-52795928D01*
X169264339Y-52909168D01*
X169353311Y-53042324D01*
X169414599Y-53190284D01*
X169445841Y-53347351D01*
X169445841Y-53507501D01*
X169414599Y-53664568D01*
X169353311Y-53812528D01*
X169264339Y-53945684D01*
X169151099Y-54058924D01*
X169017943Y-54147896D01*
X168869983Y-54209184D01*
X168712916Y-54240426D01*
X168552766Y-54240426D01*
X168395699Y-54209184D01*
X168247739Y-54147896D01*
X168114583Y-54058924D01*
X168001343Y-53945684D01*
X167912371Y-53812528D01*
X167851083Y-53664568D01*
X167819841Y-53507501D01*
X167819841Y-53347351D01*
X167851083Y-53190284D01*
X167912371Y-53042324D01*
X168001343Y-52909168D01*
X168114583Y-52795928D01*
X168247739Y-52706956D01*
X168395699Y-52645668D01*
X168552766Y-52614426D01*
X168712916Y-52614426D01*
X168869983Y-52645668D01*
X168869983Y-52645668D01*
G37*
G36*
X111719983Y-48835668D02*
X111867943Y-48896956D01*
X112001099Y-48985928D01*
X112114339Y-49099168D01*
X112203311Y-49232324D01*
X112264599Y-49380284D01*
X112295841Y-49537351D01*
X112295841Y-49697501D01*
X112264599Y-49854568D01*
X112203311Y-50002528D01*
X112114339Y-50135684D01*
X112001099Y-50248924D01*
X111867943Y-50337896D01*
X111719983Y-50399184D01*
X111562916Y-50430426D01*
X111402766Y-50430426D01*
X111245699Y-50399184D01*
X111097739Y-50337896D01*
X110964583Y-50248924D01*
X110851343Y-50135684D01*
X110762371Y-50002528D01*
X110701083Y-49854568D01*
X110669841Y-49697501D01*
X110669841Y-49537351D01*
X110701083Y-49380284D01*
X110762371Y-49232324D01*
X110851343Y-49099168D01*
X110964583Y-48985928D01*
X111097739Y-48896956D01*
X111245699Y-48835668D01*
X111402766Y-48804426D01*
X111562916Y-48804426D01*
X111719983Y-48835668D01*
X111719983Y-48835668D01*
G37*
G36*
X124673983Y-48835668D02*
X124821943Y-48896956D01*
X124955099Y-48985928D01*
X125068339Y-49099168D01*
X125157311Y-49232324D01*
X125218599Y-49380284D01*
X125249841Y-49537351D01*
X125249841Y-49697501D01*
X125218599Y-49854568D01*
X125157311Y-50002528D01*
X125068339Y-50135684D01*
X124955099Y-50248924D01*
X124821943Y-50337896D01*
X124673983Y-50399184D01*
X124516916Y-50430426D01*
X124356766Y-50430426D01*
X124199699Y-50399184D01*
X124051739Y-50337896D01*
X123918583Y-50248924D01*
X123805343Y-50135684D01*
X123716371Y-50002528D01*
X123655083Y-49854568D01*
X123623841Y-49697501D01*
X123623841Y-49537351D01*
X123655083Y-49380284D01*
X123716371Y-49232324D01*
X123805343Y-49099168D01*
X123918583Y-48985928D01*
X124051739Y-48896956D01*
X124199699Y-48835668D01*
X124356766Y-48804426D01*
X124516916Y-48804426D01*
X124673983Y-48835668D01*
X124673983Y-48835668D01*
G37*
G36*
X162773983Y-48835668D02*
X162921943Y-48896956D01*
X163055099Y-48985928D01*
X163168339Y-49099168D01*
X163257311Y-49232324D01*
X163318599Y-49380284D01*
X163349841Y-49537351D01*
X163349841Y-49697501D01*
X163318599Y-49854568D01*
X163257311Y-50002528D01*
X163168339Y-50135684D01*
X163055099Y-50248924D01*
X162921943Y-50337896D01*
X162773983Y-50399184D01*
X162616916Y-50430426D01*
X162456766Y-50430426D01*
X162299699Y-50399184D01*
X162151739Y-50337896D01*
X162018583Y-50248924D01*
X161905343Y-50135684D01*
X161816371Y-50002528D01*
X161755083Y-49854568D01*
X161723841Y-49697501D01*
X161723841Y-49537351D01*
X161755083Y-49380284D01*
X161816371Y-49232324D01*
X161905343Y-49099168D01*
X162018583Y-48985928D01*
X162151739Y-48896956D01*
X162299699Y-48835668D01*
X162456766Y-48804426D01*
X162616916Y-48804426D01*
X162773983Y-48835668D01*
X162773983Y-48835668D01*
G37*
G36*
X149819983Y-48835668D02*
X149967943Y-48896956D01*
X150101099Y-48985928D01*
X150214339Y-49099168D01*
X150303311Y-49232324D01*
X150364599Y-49380284D01*
X150395841Y-49537351D01*
X150395841Y-49697501D01*
X150364599Y-49854568D01*
X150303311Y-50002528D01*
X150214339Y-50135684D01*
X150101099Y-50248924D01*
X149967943Y-50337896D01*
X149819983Y-50399184D01*
X149662916Y-50430426D01*
X149502766Y-50430426D01*
X149345699Y-50399184D01*
X149197739Y-50337896D01*
X149064583Y-50248924D01*
X148951343Y-50135684D01*
X148862371Y-50002528D01*
X148801083Y-49854568D01*
X148769841Y-49697501D01*
X148769841Y-49537351D01*
X148801083Y-49380284D01*
X148862371Y-49232324D01*
X148951343Y-49099168D01*
X149064583Y-48985928D01*
X149197739Y-48896956D01*
X149345699Y-48835668D01*
X149502766Y-48804426D01*
X149662916Y-48804426D01*
X149819983Y-48835668D01*
X149819983Y-48835668D01*
G37*
G36*
X175708093Y-44597244D02*
X175708095Y-44597245D01*
X175708096Y-44597245D01*
X176081354Y-44751853D01*
X176081355Y-44751854D01*
X176417280Y-44976312D01*
X176702955Y-45261987D01*
X176702957Y-45261990D01*
X176927414Y-45597913D01*
X176981029Y-45727352D01*
X177082023Y-45971174D01*
X177126053Y-46192528D01*
X177160841Y-46367420D01*
X177160841Y-46771432D01*
X177082022Y-47167681D01*
X176927414Y-47540939D01*
X176927413Y-47540940D01*
X176702955Y-47876865D01*
X176417280Y-48162540D01*
X176417277Y-48162542D01*
X176081354Y-48386999D01*
X175708096Y-48541607D01*
X175708095Y-48541607D01*
X175708093Y-48541608D01*
X175311848Y-48620426D01*
X174907834Y-48620426D01*
X174511589Y-48541608D01*
X174511587Y-48541607D01*
X174511586Y-48541607D01*
X174138328Y-48386999D01*
X173802405Y-48162542D01*
X173802402Y-48162540D01*
X173516727Y-47876865D01*
X173292269Y-47540940D01*
X173292268Y-47540939D01*
X173137660Y-47167681D01*
X173058841Y-46771432D01*
X173058841Y-46367420D01*
X173093629Y-46192528D01*
X173137659Y-45971174D01*
X173238653Y-45727352D01*
X173292268Y-45597913D01*
X173516725Y-45261990D01*
X173516727Y-45261987D01*
X173802402Y-44976312D01*
X174138327Y-44751854D01*
X174138328Y-44751853D01*
X174511586Y-44597245D01*
X174511587Y-44597245D01*
X174511589Y-44597244D01*
X174907834Y-44518426D01*
X175311848Y-44518426D01*
X175708093Y-44597244D01*
X175708093Y-44597244D01*
G37*
G36*
X143723983Y-45025668D02*
X143871943Y-45086956D01*
X144005099Y-45175928D01*
X144118339Y-45289168D01*
X144207311Y-45422324D01*
X144268599Y-45570284D01*
X144299841Y-45727351D01*
X144299841Y-45887501D01*
X144268599Y-46044568D01*
X144207311Y-46192528D01*
X144118339Y-46325684D01*
X144005099Y-46438924D01*
X143871943Y-46527896D01*
X143723983Y-46589184D01*
X143566916Y-46620426D01*
X143406766Y-46620426D01*
X143249699Y-46589184D01*
X143101739Y-46527896D01*
X142968583Y-46438924D01*
X142855343Y-46325684D01*
X142766371Y-46192528D01*
X142705083Y-46044568D01*
X142673841Y-45887501D01*
X142673841Y-45727351D01*
X142705083Y-45570284D01*
X142766371Y-45422324D01*
X142855343Y-45289168D01*
X142968583Y-45175928D01*
X143101739Y-45086956D01*
X143249699Y-45025668D01*
X143406766Y-44994426D01*
X143566916Y-44994426D01*
X143723983Y-45025668D01*
X143723983Y-45025668D01*
G37*
G36*
X130769983Y-45025668D02*
X130917943Y-45086956D01*
X131051099Y-45175928D01*
X131164339Y-45289168D01*
X131253311Y-45422324D01*
X131314599Y-45570284D01*
X131345841Y-45727351D01*
X131345841Y-45887501D01*
X131314599Y-46044568D01*
X131253311Y-46192528D01*
X131164339Y-46325684D01*
X131051099Y-46438924D01*
X130917943Y-46527896D01*
X130769983Y-46589184D01*
X130612916Y-46620426D01*
X130452766Y-46620426D01*
X130295699Y-46589184D01*
X130147739Y-46527896D01*
X130014583Y-46438924D01*
X129901343Y-46325684D01*
X129812371Y-46192528D01*
X129751083Y-46044568D01*
X129719841Y-45887501D01*
X129719841Y-45727351D01*
X129751083Y-45570284D01*
X129812371Y-45422324D01*
X129901343Y-45289168D01*
X130014583Y-45175928D01*
X130147739Y-45086956D01*
X130295699Y-45025668D01*
X130452766Y-44994426D01*
X130612916Y-44994426D01*
X130769983Y-45025668D01*
X130769983Y-45025668D01*
G37*
M02*
