G04 #@! TF.GenerationSoftware,KiCad,Pcbnew,5.0.2-bee76a0~70~ubuntu18.04.1*
G04 #@! TF.CreationDate,2019-07-25T02:00:29+09:00*
G04 #@! TF.ProjectId,topR,746f7052-2e6b-4696-9361-645f70636258,rev?*
G04 #@! TF.SameCoordinates,Original*
G04 #@! TF.FileFunction,Copper,L1,Top*
G04 #@! TF.FilePolarity,Positive*
%FSLAX46Y46*%
G04 Gerber Fmt 4.6, Leading zero omitted, Abs format (unit mm)*
G04 Created by KiCad (PCBNEW 5.0.2-bee76a0~70~ubuntu18.04.1) date 2019年07月25日 02時00分29秒*
%MOMM*%
%LPD*%
G01*
G04 APERTURE LIST*
G04 #@! TA.AperFunction,WasherPad*
%ADD10C,1.524000*%
G04 #@! TD*
G04 #@! TA.AperFunction,WasherPad*
%ADD11C,4.000000*%
G04 #@! TD*
G04 APERTURE END LIST*
D10*
G04 #@! TO.P,SW8,*
G04 #@! TO.N,*
X162536841Y-100671426D03*
X149582841Y-87717426D03*
X162536841Y-87717426D03*
X149582841Y-100671426D03*
G04 #@! TD*
G04 #@! TO.P,SW19,*
G04 #@! TO.N,*
X219517588Y-128653679D03*
X201822094Y-133395173D03*
X208299094Y-122176679D03*
X213040588Y-139872173D03*
G04 #@! TD*
G04 #@! TO.P,SW20,*
G04 #@! TO.N,*
X203007588Y-119128679D03*
X185312094Y-123870173D03*
X191789094Y-112651679D03*
X196530588Y-130347173D03*
G04 #@! TD*
G04 #@! TO.P,SW16,*
G04 #@! TO.N,*
X124436841Y-100671426D03*
X111482841Y-87717426D03*
X124436841Y-87717426D03*
X111482841Y-100671426D03*
G04 #@! TD*
G04 #@! TO.P,SW8,*
G04 #@! TO.N,*
X162536841Y-81621426D03*
X149582841Y-68667426D03*
X162536841Y-68667426D03*
X149582841Y-81621426D03*
G04 #@! TD*
G04 #@! TO.P,SW22,*
G04 #@! TO.N,*
X156821841Y-121626426D03*
X143867841Y-108672426D03*
X156821841Y-108672426D03*
X143867841Y-121626426D03*
G04 #@! TD*
G04 #@! TO.P,SW21,*
G04 #@! TO.N,*
X175871841Y-125436426D03*
X162917841Y-112482426D03*
X175871841Y-112482426D03*
X162917841Y-125436426D03*
G04 #@! TD*
G04 #@! TO.P,SW1,*
G04 #@! TO.N,*
X181586841Y-66381426D03*
X168632841Y-53427426D03*
X181586841Y-53427426D03*
X168632841Y-66381426D03*
G04 #@! TD*
G04 #@! TO.P,SW2,*
G04 #@! TO.N,*
X162536841Y-62571426D03*
X149582841Y-49617426D03*
X162536841Y-49617426D03*
X149582841Y-62571426D03*
G04 #@! TD*
G04 #@! TO.P,SW3,*
G04 #@! TO.N,*
X143486841Y-58761426D03*
X130532841Y-45807426D03*
X143486841Y-45807426D03*
X130532841Y-58761426D03*
G04 #@! TD*
G04 #@! TO.P,SW4,*
G04 #@! TO.N,*
X124436841Y-62571426D03*
X111482841Y-49617426D03*
X124436841Y-49617426D03*
X111482841Y-62571426D03*
G04 #@! TD*
G04 #@! TO.P,SW5,*
G04 #@! TO.N,*
X105386841Y-72096426D03*
X92432841Y-59142426D03*
X105386841Y-59142426D03*
X92432841Y-72096426D03*
G04 #@! TD*
G04 #@! TO.P,SW6,*
G04 #@! TO.N,*
X86336841Y-81621426D03*
X73382841Y-68667426D03*
X86336841Y-68667426D03*
X73382841Y-81621426D03*
G04 #@! TD*
G04 #@! TO.P,SW7,*
G04 #@! TO.N,*
X181586841Y-85431426D03*
X168632841Y-72477426D03*
X181586841Y-72477426D03*
X168632841Y-85431426D03*
G04 #@! TD*
G04 #@! TO.P,SW9,*
G04 #@! TO.N,*
X143486841Y-77811426D03*
X130532841Y-64857426D03*
X143486841Y-64857426D03*
X130532841Y-77811426D03*
G04 #@! TD*
G04 #@! TO.P,SW10,*
G04 #@! TO.N,*
X124436841Y-81621426D03*
X111482841Y-68667426D03*
X124436841Y-68667426D03*
X111482841Y-81621426D03*
G04 #@! TD*
G04 #@! TO.P,SW11,*
G04 #@! TO.N,*
X105386841Y-91146426D03*
X92432841Y-78192426D03*
X105386841Y-78192426D03*
X92432841Y-91146426D03*
G04 #@! TD*
G04 #@! TO.P,SW12,*
G04 #@! TO.N,*
X86336841Y-100671426D03*
X73382841Y-87717426D03*
X86336841Y-87717426D03*
X73382841Y-100671426D03*
G04 #@! TD*
G04 #@! TO.P,SW13,*
G04 #@! TO.N,*
X181586841Y-104481426D03*
X168632841Y-91527426D03*
X181586841Y-91527426D03*
X168632841Y-104481426D03*
G04 #@! TD*
G04 #@! TO.P,SW15,*
G04 #@! TO.N,*
X143486841Y-96861426D03*
X130532841Y-83907426D03*
X143486841Y-83907426D03*
X130532841Y-96861426D03*
G04 #@! TD*
G04 #@! TO.P,SW17,*
G04 #@! TO.N,*
X105386841Y-110196426D03*
X92432841Y-97242426D03*
X105386841Y-97242426D03*
X92432841Y-110196426D03*
G04 #@! TD*
G04 #@! TO.P,SW18,*
G04 #@! TO.N,*
X86336841Y-119721426D03*
X73382841Y-106767426D03*
X86336841Y-106767426D03*
X73382841Y-119721426D03*
G04 #@! TD*
D11*
G04 #@! TO.P,Ref1,*
G04 #@! TO.N,*
X175109841Y-46569426D03*
G04 #@! TD*
G04 #@! TO.P,Ref3,*
G04 #@! TO.N,*
X221464841Y-137374426D03*
G04 #@! TD*
G04 #@! TO.P,Ref5,*
G04 #@! TO.N,*
X79859841Y-125944426D03*
G04 #@! TD*
G04 #@! TO.P,Ref2,*
G04 #@! TO.N,*
X79859841Y-58634426D03*
G04 #@! TD*
M02*
