%TF.GenerationSoftware,KiCad,Pcbnew,(6.0.5-0)*%
%TF.CreationDate,2022-10-31T01:20:07+09:00*%
%TF.ProjectId,silverbullet44,73696c76-6572-4627-956c-6c657434342e,rev?*%
%TF.SameCoordinates,Original*%
%TF.FileFunction,Copper,L1,Top*%
%TF.FilePolarity,Positive*%
%FSLAX46Y46*%
G04 Gerber Fmt 4.6, Leading zero omitted, Abs format (unit mm)*
G04 Created by KiCad (PCBNEW (6.0.5-0)) date 2022-10-31 01:20:07*
%MOMM*%
%LPD*%
G01*
G04 APERTURE LIST*
G04 Aperture macros list*
%AMRotRect*
0 Rectangle, with rotation*
0 The origin of the aperture is its center*
0 $1 length*
0 $2 width*
0 $3 Rotation angle, in degrees counterclockwise*
0 Add horizontal line*
21,1,$1,$2,0,0,$3*%
G04 Aperture macros list end*
%TA.AperFunction,EtchedComponent*%
%ADD10C,0.010000*%
%TD*%
%TA.AperFunction,ComponentPad*%
%ADD11O,2.500000X1.250000*%
%TD*%
%TA.AperFunction,WasherPad*%
%ADD12C,5.000000*%
%TD*%
%TA.AperFunction,SMDPad,CuDef*%
%ADD13R,0.950000X1.300000*%
%TD*%
%TA.AperFunction,SMDPad,CuDef*%
%ADD14RotRect,1.300000X0.950000X210.000000*%
%TD*%
%TA.AperFunction,SMDPad,CuDef*%
%ADD15RotRect,1.800000X0.820000X300.000000*%
%TD*%
%TA.AperFunction,SMDPad,CuDef*%
%ADD16R,1.800000X0.820000*%
%TD*%
%TA.AperFunction,SMDPad,CuDef*%
%ADD17R,0.820000X1.800000*%
%TD*%
%TA.AperFunction,SMDPad,CuDef*%
%ADD18R,2.300000X2.000000*%
%TD*%
%TA.AperFunction,SMDPad,CuDef*%
%ADD19RotRect,2.300000X2.000000X120.000000*%
%TD*%
%TA.AperFunction,SMDPad,CuDef*%
%ADD20R,2.000000X2.300000*%
%TD*%
%TA.AperFunction,ComponentPad*%
%ADD21C,2.100000*%
%TD*%
%TA.AperFunction,ComponentPad*%
%ADD22C,1.750000*%
%TD*%
%TA.AperFunction,ComponentPad*%
%ADD23C,1.524000*%
%TD*%
%TA.AperFunction,ComponentPad*%
%ADD24R,1.524000X1.524000*%
%TD*%
%TA.AperFunction,ComponentPad*%
%ADD25C,1.800000*%
%TD*%
%TA.AperFunction,ComponentPad*%
%ADD26R,1.000000X1.000000*%
%TD*%
%TA.AperFunction,ComponentPad*%
%ADD27C,1.000000*%
%TD*%
%TA.AperFunction,ComponentPad*%
%ADD28C,0.700000*%
%TD*%
%TA.AperFunction,ComponentPad*%
%ADD29C,4.400000*%
%TD*%
%TA.AperFunction,ComponentPad*%
%ADD30R,1.000000X1.500000*%
%TD*%
%TA.AperFunction,ComponentPad*%
%ADD31O,1.000000X1.500000*%
%TD*%
%TA.AperFunction,ViaPad*%
%ADD32C,0.800000*%
%TD*%
%TA.AperFunction,Conductor*%
%ADD33C,0.400000*%
%TD*%
%TA.AperFunction,Conductor*%
%ADD34C,0.250000*%
%TD*%
G04 APERTURE END LIST*
G36*
X139609037Y-104744467D02*
G01*
X139891771Y-104339144D01*
X139954071Y-104274648D01*
X140208725Y-104045654D01*
X140391223Y-103971834D01*
X140612371Y-104032174D01*
X140792247Y-104115710D01*
X141101312Y-104300732D01*
X141296253Y-104486739D01*
X141314110Y-104520595D01*
X141335026Y-104880219D01*
X141191719Y-105307522D01*
X140998987Y-105606854D01*
X140761752Y-105899827D01*
X140526957Y-105625606D01*
X140331272Y-105451496D01*
X140204862Y-105490305D01*
X140193025Y-105507442D01*
X140094557Y-105874901D01*
X140186973Y-106270103D01*
X140337110Y-106482110D01*
X140563768Y-106645160D01*
X140829815Y-106652178D01*
X140996627Y-106610944D01*
X141329499Y-106452271D01*
X141698683Y-106184365D01*
X142039338Y-105867215D01*
X142286623Y-105560810D01*
X142376000Y-105334809D01*
X142413625Y-105096600D01*
X142509856Y-104721268D01*
X142585792Y-104471583D01*
X142776975Y-104027401D01*
X142989849Y-103831413D01*
X143235813Y-103878025D01*
X143435816Y-104054250D01*
X143583953Y-104252577D01*
X143629978Y-104457334D01*
X143570208Y-104739427D01*
X143400962Y-105169765D01*
X143374698Y-105231071D01*
X143207958Y-105662719D01*
X143162924Y-105880527D01*
X143226654Y-105886031D01*
X143386207Y-105680764D01*
X143628642Y-105266263D01*
X143665866Y-105196533D01*
X143940825Y-104726064D01*
X144161887Y-104468131D01*
X144344500Y-104393500D01*
X144510423Y-104439057D01*
X144598147Y-104617992D01*
X144638069Y-104943836D01*
X144679444Y-105284748D01*
X144756174Y-105423452D01*
X144892069Y-105413224D01*
X145035074Y-105371363D01*
X144987047Y-105451350D01*
X144906797Y-105534303D01*
X144653213Y-105667892D01*
X144417686Y-105595705D01*
X144240053Y-105365032D01*
X144160151Y-105023163D01*
X144196115Y-104690667D01*
X144224830Y-104510554D01*
X144173233Y-104530524D01*
X144063002Y-104718040D01*
X143915818Y-105040560D01*
X143844106Y-105219000D01*
X143502445Y-106048961D01*
X143211863Y-106638188D01*
X142968235Y-106993874D01*
X142767438Y-107123213D01*
X142752245Y-107124000D01*
X142493132Y-107009660D01*
X142310454Y-106713498D01*
X142248999Y-106346588D01*
X142249000Y-106060478D01*
X141899750Y-106386221D01*
X141399090Y-106776847D01*
X140927913Y-106966231D01*
X140614616Y-106997000D01*
X140028714Y-106912853D01*
X139621220Y-106666158D01*
X139436223Y-106362728D01*
X139286277Y-106097295D01*
X139106985Y-105981203D01*
X139100275Y-105981000D01*
X138876784Y-105898158D01*
X138600611Y-105695861D01*
X138570085Y-105667413D01*
X138242771Y-105353827D01*
X137735060Y-106270663D01*
X137429001Y-106782162D01*
X137185183Y-107088031D01*
X136976743Y-107220499D01*
X136936148Y-107229134D01*
X136628892Y-107163629D01*
X136331219Y-106938262D01*
X136118575Y-106632816D01*
X136066408Y-106327070D01*
X136069491Y-106312681D01*
X136107134Y-106127238D01*
X136057681Y-106171742D01*
X135984458Y-106290162D01*
X135817822Y-106520061D01*
X135548340Y-106849001D01*
X135343075Y-107083912D01*
X135033305Y-107402750D01*
X134782956Y-107567297D01*
X134499151Y-107626543D01*
X134303973Y-107632000D01*
X133919797Y-107600699D01*
X133672099Y-107472330D01*
X133494647Y-107263144D01*
X133314177Y-106932856D01*
X133232423Y-106631483D01*
X133232000Y-106614988D01*
X133218854Y-106458304D01*
X133146489Y-106439731D01*
X132965508Y-106571906D01*
X132783080Y-106729843D01*
X132328505Y-107036987D01*
X131915503Y-107106977D01*
X131509623Y-106945016D01*
X131482258Y-106926298D01*
X131259320Y-106654981D01*
X131200000Y-106283092D01*
X131251858Y-105891378D01*
X131385461Y-105440059D01*
X131567848Y-105008336D01*
X131766059Y-104675409D01*
X131931467Y-104525422D01*
X132179938Y-104513343D01*
X132293659Y-104697990D01*
X132258451Y-105052529D01*
X132241481Y-105112057D01*
X132078145Y-105754534D01*
X132027628Y-106224097D01*
X132081473Y-106476821D01*
X132267183Y-106589641D01*
X132524669Y-106514854D01*
X132811990Y-106291977D01*
X133087203Y-105960522D01*
X133308366Y-105560005D01*
X133417921Y-105217730D01*
X133544700Y-104813263D01*
X134377816Y-104813263D01*
X134377823Y-104813515D01*
X134436007Y-104818965D01*
X134585919Y-104639296D01*
X134801313Y-104314330D01*
X135055945Y-103883891D01*
X135323570Y-103387800D01*
X135344988Y-103346013D01*
X135574948Y-102852050D01*
X135692404Y-102505398D01*
X135698015Y-102325526D01*
X135592438Y-102331906D01*
X135376332Y-102544010D01*
X135320176Y-102612493D01*
X135159950Y-102869787D01*
X134959064Y-103268809D01*
X134748962Y-103736113D01*
X134561090Y-104198254D01*
X134426893Y-104581786D01*
X134377816Y-104813263D01*
X133544700Y-104813263D01*
X133570324Y-104731516D01*
X133823717Y-104182462D01*
X134148542Y-103611546D01*
X134515242Y-103059746D01*
X134894261Y-102568040D01*
X135256039Y-102177405D01*
X135571021Y-101928818D01*
X135809648Y-101863259D01*
X135832660Y-101869983D01*
X136016999Y-102055277D01*
X136022017Y-102403627D01*
X135846677Y-102918770D01*
X135489943Y-103604441D01*
X135235666Y-104024445D01*
X134891114Y-104582872D01*
X134661426Y-104994205D01*
X134520975Y-105322956D01*
X134444132Y-105633637D01*
X134405268Y-105990762D01*
X134395918Y-106138268D01*
X134393298Y-106688088D01*
X134473005Y-107005565D01*
X134650291Y-107103341D01*
X134940410Y-106994056D01*
X135206794Y-106810309D01*
X135803243Y-106210684D01*
X136214302Y-105455004D01*
X136416375Y-104732974D01*
X136503117Y-104304260D01*
X136571314Y-104085791D01*
X136648497Y-104038024D01*
X136762199Y-104121419D01*
X136809622Y-104168178D01*
X136946222Y-104374384D01*
X137034238Y-104700838D01*
X137087336Y-105205637D01*
X137098230Y-105395174D01*
X137130126Y-105871313D01*
X137169648Y-106241476D01*
X137209291Y-106438965D01*
X137217174Y-106452508D01*
X137319538Y-106404085D01*
X137488647Y-106189394D01*
X137687025Y-105873800D01*
X137877197Y-105522670D01*
X138021689Y-105201368D01*
X138083026Y-104975260D01*
X138081624Y-104944692D01*
X138099389Y-104733381D01*
X138222794Y-104697800D01*
X138400849Y-104813724D01*
X138582563Y-105056927D01*
X138658981Y-105219000D01*
X138861354Y-105596942D01*
X139063238Y-105722689D01*
X139250982Y-105596810D01*
X139410935Y-105219875D01*
X139413000Y-105212356D01*
X140530394Y-105212356D01*
X140673405Y-105282134D01*
X140837397Y-105174650D01*
X140956477Y-104951321D01*
X140979000Y-104794227D01*
X140979000Y-104527555D01*
X140709587Y-104796967D01*
X140545530Y-105030785D01*
X140530394Y-105212356D01*
X139413000Y-105212356D01*
X139419897Y-105187250D01*
X139609037Y-104744467D01*
G37*
D10*
X139609037Y-104744467D02*
X139891771Y-104339144D01*
X139954071Y-104274648D01*
X140208725Y-104045654D01*
X140391223Y-103971834D01*
X140612371Y-104032174D01*
X140792247Y-104115710D01*
X141101312Y-104300732D01*
X141296253Y-104486739D01*
X141314110Y-104520595D01*
X141335026Y-104880219D01*
X141191719Y-105307522D01*
X140998987Y-105606854D01*
X140761752Y-105899827D01*
X140526957Y-105625606D01*
X140331272Y-105451496D01*
X140204862Y-105490305D01*
X140193025Y-105507442D01*
X140094557Y-105874901D01*
X140186973Y-106270103D01*
X140337110Y-106482110D01*
X140563768Y-106645160D01*
X140829815Y-106652178D01*
X140996627Y-106610944D01*
X141329499Y-106452271D01*
X141698683Y-106184365D01*
X142039338Y-105867215D01*
X142286623Y-105560810D01*
X142376000Y-105334809D01*
X142413625Y-105096600D01*
X142509856Y-104721268D01*
X142585792Y-104471583D01*
X142776975Y-104027401D01*
X142989849Y-103831413D01*
X143235813Y-103878025D01*
X143435816Y-104054250D01*
X143583953Y-104252577D01*
X143629978Y-104457334D01*
X143570208Y-104739427D01*
X143400962Y-105169765D01*
X143374698Y-105231071D01*
X143207958Y-105662719D01*
X143162924Y-105880527D01*
X143226654Y-105886031D01*
X143386207Y-105680764D01*
X143628642Y-105266263D01*
X143665866Y-105196533D01*
X143940825Y-104726064D01*
X144161887Y-104468131D01*
X144344500Y-104393500D01*
X144510423Y-104439057D01*
X144598147Y-104617992D01*
X144638069Y-104943836D01*
X144679444Y-105284748D01*
X144756174Y-105423452D01*
X144892069Y-105413224D01*
X145035074Y-105371363D01*
X144987047Y-105451350D01*
X144906797Y-105534303D01*
X144653213Y-105667892D01*
X144417686Y-105595705D01*
X144240053Y-105365032D01*
X144160151Y-105023163D01*
X144196115Y-104690667D01*
X144224830Y-104510554D01*
X144173233Y-104530524D01*
X144063002Y-104718040D01*
X143915818Y-105040560D01*
X143844106Y-105219000D01*
X143502445Y-106048961D01*
X143211863Y-106638188D01*
X142968235Y-106993874D01*
X142767438Y-107123213D01*
X142752245Y-107124000D01*
X142493132Y-107009660D01*
X142310454Y-106713498D01*
X142248999Y-106346588D01*
X142249000Y-106060478D01*
X141899750Y-106386221D01*
X141399090Y-106776847D01*
X140927913Y-106966231D01*
X140614616Y-106997000D01*
X140028714Y-106912853D01*
X139621220Y-106666158D01*
X139436223Y-106362728D01*
X139286277Y-106097295D01*
X139106985Y-105981203D01*
X139100275Y-105981000D01*
X138876784Y-105898158D01*
X138600611Y-105695861D01*
X138570085Y-105667413D01*
X138242771Y-105353827D01*
X137735060Y-106270663D01*
X137429001Y-106782162D01*
X137185183Y-107088031D01*
X136976743Y-107220499D01*
X136936148Y-107229134D01*
X136628892Y-107163629D01*
X136331219Y-106938262D01*
X136118575Y-106632816D01*
X136066408Y-106327070D01*
X136069491Y-106312681D01*
X136107134Y-106127238D01*
X136057681Y-106171742D01*
X135984458Y-106290162D01*
X135817822Y-106520061D01*
X135548340Y-106849001D01*
X135343075Y-107083912D01*
X135033305Y-107402750D01*
X134782956Y-107567297D01*
X134499151Y-107626543D01*
X134303973Y-107632000D01*
X133919797Y-107600699D01*
X133672099Y-107472330D01*
X133494647Y-107263144D01*
X133314177Y-106932856D01*
X133232423Y-106631483D01*
X133232000Y-106614988D01*
X133218854Y-106458304D01*
X133146489Y-106439731D01*
X132965508Y-106571906D01*
X132783080Y-106729843D01*
X132328505Y-107036987D01*
X131915503Y-107106977D01*
X131509623Y-106945016D01*
X131482258Y-106926298D01*
X131259320Y-106654981D01*
X131200000Y-106283092D01*
X131251858Y-105891378D01*
X131385461Y-105440059D01*
X131567848Y-105008336D01*
X131766059Y-104675409D01*
X131931467Y-104525422D01*
X132179938Y-104513343D01*
X132293659Y-104697990D01*
X132258451Y-105052529D01*
X132241481Y-105112057D01*
X132078145Y-105754534D01*
X132027628Y-106224097D01*
X132081473Y-106476821D01*
X132267183Y-106589641D01*
X132524669Y-106514854D01*
X132811990Y-106291977D01*
X133087203Y-105960522D01*
X133308366Y-105560005D01*
X133417921Y-105217730D01*
X133544700Y-104813263D01*
X134377816Y-104813263D01*
X134377823Y-104813515D01*
X134436007Y-104818965D01*
X134585919Y-104639296D01*
X134801313Y-104314330D01*
X135055945Y-103883891D01*
X135323570Y-103387800D01*
X135344988Y-103346013D01*
X135574948Y-102852050D01*
X135692404Y-102505398D01*
X135698015Y-102325526D01*
X135592438Y-102331906D01*
X135376332Y-102544010D01*
X135320176Y-102612493D01*
X135159950Y-102869787D01*
X134959064Y-103268809D01*
X134748962Y-103736113D01*
X134561090Y-104198254D01*
X134426893Y-104581786D01*
X134377816Y-104813263D01*
X133544700Y-104813263D01*
X133570324Y-104731516D01*
X133823717Y-104182462D01*
X134148542Y-103611546D01*
X134515242Y-103059746D01*
X134894261Y-102568040D01*
X135256039Y-102177405D01*
X135571021Y-101928818D01*
X135809648Y-101863259D01*
X135832660Y-101869983D01*
X136016999Y-102055277D01*
X136022017Y-102403627D01*
X135846677Y-102918770D01*
X135489943Y-103604441D01*
X135235666Y-104024445D01*
X134891114Y-104582872D01*
X134661426Y-104994205D01*
X134520975Y-105322956D01*
X134444132Y-105633637D01*
X134405268Y-105990762D01*
X134395918Y-106138268D01*
X134393298Y-106688088D01*
X134473005Y-107005565D01*
X134650291Y-107103341D01*
X134940410Y-106994056D01*
X135206794Y-106810309D01*
X135803243Y-106210684D01*
X136214302Y-105455004D01*
X136416375Y-104732974D01*
X136503117Y-104304260D01*
X136571314Y-104085791D01*
X136648497Y-104038024D01*
X136762199Y-104121419D01*
X136809622Y-104168178D01*
X136946222Y-104374384D01*
X137034238Y-104700838D01*
X137087336Y-105205637D01*
X137098230Y-105395174D01*
X137130126Y-105871313D01*
X137169648Y-106241476D01*
X137209291Y-106438965D01*
X137217174Y-106452508D01*
X137319538Y-106404085D01*
X137488647Y-106189394D01*
X137687025Y-105873800D01*
X137877197Y-105522670D01*
X138021689Y-105201368D01*
X138083026Y-104975260D01*
X138081624Y-104944692D01*
X138099389Y-104733381D01*
X138222794Y-104697800D01*
X138400849Y-104813724D01*
X138582563Y-105056927D01*
X138658981Y-105219000D01*
X138861354Y-105596942D01*
X139063238Y-105722689D01*
X139250982Y-105596810D01*
X139410935Y-105219875D01*
X139413000Y-105212356D01*
X140530394Y-105212356D01*
X140673405Y-105282134D01*
X140837397Y-105174650D01*
X140956477Y-104951321D01*
X140979000Y-104794227D01*
X140979000Y-104527555D01*
X140709587Y-104796967D01*
X140545530Y-105030785D01*
X140530394Y-105212356D01*
X139413000Y-105212356D01*
X139419897Y-105187250D01*
X139609037Y-104744467D01*
G36*
X144260163Y-110383608D02*
G01*
X144640932Y-109839929D01*
X145023284Y-109387318D01*
X145376785Y-109067830D01*
X145671003Y-108923521D01*
X145759821Y-108923149D01*
X145984623Y-109069526D01*
X146023163Y-109386031D01*
X145876025Y-109870729D01*
X145543792Y-110521685D01*
X145036344Y-111323258D01*
X144756400Y-111788522D01*
X144522243Y-112269149D01*
X144408880Y-112581730D01*
X144333454Y-113044090D01*
X144338213Y-113499468D01*
X144415647Y-113865195D01*
X144542235Y-114049971D01*
X144732827Y-114038403D01*
X145030087Y-113896597D01*
X145359526Y-113672354D01*
X145646654Y-113413477D01*
X145765188Y-113265170D01*
X145925888Y-113065084D01*
X146026557Y-113018224D01*
X146003257Y-113157069D01*
X145847817Y-113418347D01*
X145604467Y-113741701D01*
X145317433Y-114066778D01*
X145114708Y-114262588D01*
X144653197Y-114545805D01*
X144181793Y-114621597D01*
X143757996Y-114489245D01*
X143528217Y-114282372D01*
X143340233Y-113933345D01*
X143265000Y-113583076D01*
X143265000Y-113218406D01*
X142737945Y-113600203D01*
X142243514Y-113878926D01*
X141810517Y-113975362D01*
X141475352Y-113894792D01*
X141274414Y-113642497D01*
X141233000Y-113381838D01*
X141218044Y-113189827D01*
X141126585Y-113156792D01*
X140888737Y-113264539D01*
X140853095Y-113282933D01*
X140427278Y-113412147D01*
X140058275Y-113362295D01*
X139810089Y-113148703D01*
X139759007Y-113020954D01*
X139779421Y-112741774D01*
X139910858Y-112332259D01*
X140116608Y-111868697D01*
X140359965Y-111427373D01*
X140604221Y-111084574D01*
X140759344Y-110942024D01*
X141000226Y-110848473D01*
X141116156Y-110953068D01*
X141108953Y-111264200D01*
X140980436Y-111790257D01*
X140958823Y-111862089D01*
X140838614Y-112296267D01*
X140769434Y-112629131D01*
X140765029Y-112793379D01*
X140767829Y-112797162D01*
X140976217Y-112845078D01*
X141271073Y-112728278D01*
X141585550Y-112484558D01*
X141821135Y-112201640D01*
X142101786Y-111822609D01*
X142281956Y-111674726D01*
X142354323Y-111752838D01*
X142311564Y-112051794D01*
X142185500Y-112458000D01*
X142031626Y-112973440D01*
X142008839Y-113295887D01*
X142118681Y-113450829D01*
X142246996Y-113474000D01*
X142595850Y-113359541D01*
X142945485Y-113055225D01*
X143243853Y-112619636D01*
X143431669Y-112140500D01*
X143625099Y-111575949D01*
X143637730Y-111549494D01*
X144431791Y-111549494D01*
X144437626Y-111691103D01*
X144535918Y-111642169D01*
X144714636Y-111412201D01*
X144961745Y-111010704D01*
X145265212Y-110447187D01*
X145430481Y-110115533D01*
X145607979Y-109723700D01*
X145716956Y-109428779D01*
X145734102Y-109296768D01*
X145601193Y-109318667D01*
X145396828Y-109524925D01*
X145154973Y-109868815D01*
X144909595Y-110303608D01*
X144745627Y-110656621D01*
X144530447Y-111207835D01*
X144431791Y-111549494D01*
X143637730Y-111549494D01*
X143911407Y-110976300D01*
X144260163Y-110383608D01*
G37*
X144260163Y-110383608D02*
X144640932Y-109839929D01*
X145023284Y-109387318D01*
X145376785Y-109067830D01*
X145671003Y-108923521D01*
X145759821Y-108923149D01*
X145984623Y-109069526D01*
X146023163Y-109386031D01*
X145876025Y-109870729D01*
X145543792Y-110521685D01*
X145036344Y-111323258D01*
X144756400Y-111788522D01*
X144522243Y-112269149D01*
X144408880Y-112581730D01*
X144333454Y-113044090D01*
X144338213Y-113499468D01*
X144415647Y-113865195D01*
X144542235Y-114049971D01*
X144732827Y-114038403D01*
X145030087Y-113896597D01*
X145359526Y-113672354D01*
X145646654Y-113413477D01*
X145765188Y-113265170D01*
X145925888Y-113065084D01*
X146026557Y-113018224D01*
X146003257Y-113157069D01*
X145847817Y-113418347D01*
X145604467Y-113741701D01*
X145317433Y-114066778D01*
X145114708Y-114262588D01*
X144653197Y-114545805D01*
X144181793Y-114621597D01*
X143757996Y-114489245D01*
X143528217Y-114282372D01*
X143340233Y-113933345D01*
X143265000Y-113583076D01*
X143265000Y-113218406D01*
X142737945Y-113600203D01*
X142243514Y-113878926D01*
X141810517Y-113975362D01*
X141475352Y-113894792D01*
X141274414Y-113642497D01*
X141233000Y-113381838D01*
X141218044Y-113189827D01*
X141126585Y-113156792D01*
X140888737Y-113264539D01*
X140853095Y-113282933D01*
X140427278Y-113412147D01*
X140058275Y-113362295D01*
X139810089Y-113148703D01*
X139759007Y-113020954D01*
X139779421Y-112741774D01*
X139910858Y-112332259D01*
X140116608Y-111868697D01*
X140359965Y-111427373D01*
X140604221Y-111084574D01*
X140759344Y-110942024D01*
X141000226Y-110848473D01*
X141116156Y-110953068D01*
X141108953Y-111264200D01*
X140980436Y-111790257D01*
X140958823Y-111862089D01*
X140838614Y-112296267D01*
X140769434Y-112629131D01*
X140765029Y-112793379D01*
X140767829Y-112797162D01*
X140976217Y-112845078D01*
X141271073Y-112728278D01*
X141585550Y-112484558D01*
X141821135Y-112201640D01*
X142101786Y-111822609D01*
X142281956Y-111674726D01*
X142354323Y-111752838D01*
X142311564Y-112051794D01*
X142185500Y-112458000D01*
X142031626Y-112973440D01*
X142008839Y-113295887D01*
X142118681Y-113450829D01*
X142246996Y-113474000D01*
X142595850Y-113359541D01*
X142945485Y-113055225D01*
X143243853Y-112619636D01*
X143431669Y-112140500D01*
X143625099Y-111575949D01*
X143637730Y-111549494D01*
X144431791Y-111549494D01*
X144437626Y-111691103D01*
X144535918Y-111642169D01*
X144714636Y-111412201D01*
X144961745Y-111010704D01*
X145265212Y-110447187D01*
X145430481Y-110115533D01*
X145607979Y-109723700D01*
X145716956Y-109428779D01*
X145734102Y-109296768D01*
X145601193Y-109318667D01*
X145396828Y-109524925D01*
X145154973Y-109868815D01*
X144909595Y-110303608D01*
X144745627Y-110656621D01*
X144530447Y-111207835D01*
X144431791Y-111549494D01*
X143637730Y-111549494D01*
X143911407Y-110976300D01*
X144260163Y-110383608D01*
G36*
X131099972Y-102139856D02*
G01*
X131464414Y-102209046D01*
X131652271Y-102310598D01*
X131653034Y-102311809D01*
X131673937Y-102536781D01*
X131594671Y-102879685D01*
X131449930Y-103243212D01*
X131274406Y-103530053D01*
X131189554Y-103611822D01*
X130937548Y-103720365D01*
X130600887Y-103710149D01*
X130399447Y-103669816D01*
X129863108Y-103600955D01*
X129332602Y-103621953D01*
X128899356Y-103724415D01*
X128721187Y-103823918D01*
X128610731Y-104003500D01*
X128687767Y-104225419D01*
X128966955Y-104510688D01*
X129453804Y-104874026D01*
X130046142Y-105364966D01*
X130386812Y-105851171D01*
X130477944Y-106338060D01*
X130321665Y-106831052D01*
X130261606Y-106929794D01*
X129915997Y-107318751D01*
X129456122Y-107563360D01*
X128819685Y-107696109D01*
X128784477Y-107700131D01*
X128307346Y-107727304D01*
X127987836Y-107671508D01*
X127802750Y-107570474D01*
X127589792Y-107342000D01*
X127516999Y-107141817D01*
X127591969Y-106900502D01*
X127779726Y-106576762D01*
X128024539Y-106245086D01*
X128270679Y-105979964D01*
X128462417Y-105855886D01*
X128480486Y-105854000D01*
X128637745Y-105909757D01*
X128599351Y-106091046D01*
X128465460Y-106291023D01*
X128274425Y-106636882D01*
X128292575Y-106866369D01*
X128498106Y-106968745D01*
X128869209Y-106933273D01*
X129384081Y-106749214D01*
X129390250Y-106746420D01*
X129743979Y-106544670D01*
X129903877Y-106332668D01*
X129861610Y-106090400D01*
X129608845Y-105797853D01*
X129137248Y-105435013D01*
X128732456Y-105166709D01*
X128245369Y-104799702D01*
X127903332Y-104428857D01*
X127818823Y-104287261D01*
X127694530Y-103978874D01*
X127698498Y-103746474D01*
X127825254Y-103458879D01*
X128184656Y-102993282D01*
X128719715Y-102581530D01*
X129352090Y-102277180D01*
X129698895Y-102177954D01*
X130142037Y-102119160D01*
X130634122Y-102108178D01*
X131099972Y-102139856D01*
G37*
X131099972Y-102139856D02*
X131464414Y-102209046D01*
X131652271Y-102310598D01*
X131653034Y-102311809D01*
X131673937Y-102536781D01*
X131594671Y-102879685D01*
X131449930Y-103243212D01*
X131274406Y-103530053D01*
X131189554Y-103611822D01*
X130937548Y-103720365D01*
X130600887Y-103710149D01*
X130399447Y-103669816D01*
X129863108Y-103600955D01*
X129332602Y-103621953D01*
X128899356Y-103724415D01*
X128721187Y-103823918D01*
X128610731Y-104003500D01*
X128687767Y-104225419D01*
X128966955Y-104510688D01*
X129453804Y-104874026D01*
X130046142Y-105364966D01*
X130386812Y-105851171D01*
X130477944Y-106338060D01*
X130321665Y-106831052D01*
X130261606Y-106929794D01*
X129915997Y-107318751D01*
X129456122Y-107563360D01*
X128819685Y-107696109D01*
X128784477Y-107700131D01*
X128307346Y-107727304D01*
X127987836Y-107671508D01*
X127802750Y-107570474D01*
X127589792Y-107342000D01*
X127516999Y-107141817D01*
X127591969Y-106900502D01*
X127779726Y-106576762D01*
X128024539Y-106245086D01*
X128270679Y-105979964D01*
X128462417Y-105855886D01*
X128480486Y-105854000D01*
X128637745Y-105909757D01*
X128599351Y-106091046D01*
X128465460Y-106291023D01*
X128274425Y-106636882D01*
X128292575Y-106866369D01*
X128498106Y-106968745D01*
X128869209Y-106933273D01*
X129384081Y-106749214D01*
X129390250Y-106746420D01*
X129743979Y-106544670D01*
X129903877Y-106332668D01*
X129861610Y-106090400D01*
X129608845Y-105797853D01*
X129137248Y-105435013D01*
X128732456Y-105166709D01*
X128245369Y-104799702D01*
X127903332Y-104428857D01*
X127818823Y-104287261D01*
X127694530Y-103978874D01*
X127698498Y-103746474D01*
X127825254Y-103458879D01*
X128184656Y-102993282D01*
X128719715Y-102581530D01*
X129352090Y-102277180D01*
X129698895Y-102177954D01*
X130142037Y-102119160D01*
X130634122Y-102108178D01*
X131099972Y-102139856D01*
G36*
X156748361Y-109639562D02*
G01*
X156849531Y-109782650D01*
X156976521Y-110190738D01*
X156866451Y-110527597D01*
X156549640Y-110798878D01*
X156171650Y-111091051D01*
X155905066Y-111408659D01*
X155767329Y-111706674D01*
X155775877Y-111940068D01*
X155948151Y-112063811D01*
X156056264Y-112072801D01*
X156257351Y-111948011D01*
X156495651Y-111578012D01*
X156624703Y-111310801D01*
X156815632Y-110923943D01*
X156981405Y-110650859D01*
X157081986Y-110553000D01*
X157124896Y-110663487D01*
X157120312Y-110941700D01*
X157077406Y-111307768D01*
X157005350Y-111681818D01*
X156919402Y-111968903D01*
X156913621Y-112186993D01*
X156972341Y-112262149D01*
X157101128Y-112424675D01*
X157039658Y-112560086D01*
X156931633Y-112585000D01*
X156790349Y-112700819D01*
X156680903Y-113003653D01*
X156669477Y-113061250D01*
X156530931Y-113725517D01*
X156390033Y-114165035D01*
X156233960Y-114408835D01*
X156049886Y-114485952D01*
X156040147Y-114485960D01*
X155720875Y-114406405D01*
X155542818Y-114306313D01*
X155424140Y-114198209D01*
X155385932Y-114068442D01*
X155433739Y-113851677D01*
X155573105Y-113482582D01*
X155623305Y-113357852D01*
X155935474Y-112585000D01*
X155600987Y-112583055D01*
X155213773Y-112522904D01*
X154955169Y-112305736D01*
X154841012Y-112117099D01*
X154726933Y-111822536D01*
X154730458Y-111539232D01*
X154870370Y-111218103D01*
X155165450Y-110810065D01*
X155484835Y-110434563D01*
X155946089Y-109942655D01*
X156294645Y-109653725D01*
X156554178Y-109556464D01*
X156748361Y-109639562D01*
G37*
X156748361Y-109639562D02*
X156849531Y-109782650D01*
X156976521Y-110190738D01*
X156866451Y-110527597D01*
X156549640Y-110798878D01*
X156171650Y-111091051D01*
X155905066Y-111408659D01*
X155767329Y-111706674D01*
X155775877Y-111940068D01*
X155948151Y-112063811D01*
X156056264Y-112072801D01*
X156257351Y-111948011D01*
X156495651Y-111578012D01*
X156624703Y-111310801D01*
X156815632Y-110923943D01*
X156981405Y-110650859D01*
X157081986Y-110553000D01*
X157124896Y-110663487D01*
X157120312Y-110941700D01*
X157077406Y-111307768D01*
X157005350Y-111681818D01*
X156919402Y-111968903D01*
X156913621Y-112186993D01*
X156972341Y-112262149D01*
X157101128Y-112424675D01*
X157039658Y-112560086D01*
X156931633Y-112585000D01*
X156790349Y-112700819D01*
X156680903Y-113003653D01*
X156669477Y-113061250D01*
X156530931Y-113725517D01*
X156390033Y-114165035D01*
X156233960Y-114408835D01*
X156049886Y-114485952D01*
X156040147Y-114485960D01*
X155720875Y-114406405D01*
X155542818Y-114306313D01*
X155424140Y-114198209D01*
X155385932Y-114068442D01*
X155433739Y-113851677D01*
X155573105Y-113482582D01*
X155623305Y-113357852D01*
X155935474Y-112585000D01*
X155600987Y-112583055D01*
X155213773Y-112522904D01*
X154955169Y-112305736D01*
X154841012Y-112117099D01*
X154726933Y-111822536D01*
X154730458Y-111539232D01*
X154870370Y-111218103D01*
X155165450Y-110810065D01*
X155484835Y-110434563D01*
X155946089Y-109942655D01*
X156294645Y-109653725D01*
X156554178Y-109556464D01*
X156748361Y-109639562D01*
G36*
X135505506Y-113501904D02*
G01*
X135674359Y-113223959D01*
X135807535Y-112857240D01*
X135769609Y-112658809D01*
X135645897Y-112389265D01*
X135732238Y-112117241D01*
X135958912Y-111951364D01*
X136132550Y-111818395D01*
X136761620Y-111818395D01*
X137505060Y-111562634D01*
X138020109Y-111372042D01*
X138535065Y-111160528D01*
X138794111Y-111042770D01*
X139156892Y-110826474D01*
X139269624Y-110653183D01*
X139133145Y-110527513D01*
X138748297Y-110454080D01*
X138685988Y-110449036D01*
X137980368Y-110450830D01*
X137467730Y-110586603D01*
X137114619Y-110875263D01*
X136887580Y-111335715D01*
X136844049Y-111489969D01*
X136761620Y-111818395D01*
X136132550Y-111818395D01*
X136184276Y-111778785D01*
X136400601Y-111482838D01*
X136559514Y-111152390D01*
X136612643Y-110876310D01*
X136589161Y-110793508D01*
X136417814Y-110698350D01*
X136272504Y-110680000D01*
X136081984Y-110583621D01*
X136025380Y-110343105D01*
X136104706Y-110031384D01*
X136248250Y-109802422D01*
X136377351Y-109679874D01*
X136561230Y-109594212D01*
X136851025Y-109534432D01*
X137297877Y-109489532D01*
X137872315Y-109452989D01*
X138502001Y-109422533D01*
X138929279Y-109418038D01*
X139204816Y-109443845D01*
X139379282Y-109504295D01*
X139491565Y-109591708D01*
X139695011Y-109950773D01*
X139681475Y-110364687D01*
X139469285Y-110792666D01*
X139076768Y-111193923D01*
X138649245Y-111466225D01*
X138121500Y-111737365D01*
X138530355Y-111905957D01*
X138876809Y-112136141D01*
X139134100Y-112451426D01*
X139250503Y-112725388D01*
X139246242Y-112954957D01*
X139118048Y-113270640D01*
X139113337Y-113280534D01*
X138745018Y-113761445D01*
X138146776Y-114150593D01*
X137327317Y-114443234D01*
X136752926Y-114567081D01*
X136245683Y-114673666D01*
X135819359Y-114795922D01*
X135549984Y-114911181D01*
X135516683Y-114935691D01*
X135283584Y-115104106D01*
X135134845Y-115077741D01*
X135075469Y-115001186D01*
X134911024Y-114940421D01*
X134583868Y-114938638D01*
X134432974Y-114954949D01*
X134095893Y-114984884D01*
X133893318Y-114971480D01*
X133867000Y-114950378D01*
X133916825Y-114796558D01*
X134043628Y-114497180D01*
X134131801Y-114304890D01*
X134312411Y-113961791D01*
X134489570Y-113788758D01*
X134751431Y-113718948D01*
X134925551Y-113703024D01*
X135052542Y-113683451D01*
X136026000Y-113683451D01*
X136141179Y-113728443D01*
X136451998Y-113722328D01*
X136906381Y-113670146D01*
X137452251Y-113576934D01*
X137736890Y-113517910D01*
X138249799Y-113391730D01*
X138549222Y-113269998D01*
X138673102Y-113121118D01*
X138659384Y-112913489D01*
X138655641Y-112902500D01*
X138820000Y-112902500D01*
X138883500Y-112966000D01*
X138947000Y-112902500D01*
X138883500Y-112839000D01*
X138820000Y-112902500D01*
X138655641Y-112902500D01*
X138615912Y-112785887D01*
X138505239Y-112668909D01*
X138252191Y-112605961D01*
X137804916Y-112585215D01*
X137735180Y-112585000D01*
X137089366Y-112613008D01*
X136646498Y-112709698D01*
X136360429Y-112894066D01*
X136185012Y-113185107D01*
X136168585Y-113229882D01*
X136072457Y-113517352D01*
X136026632Y-113677441D01*
X136026000Y-113683451D01*
X135052542Y-113683451D01*
X135287787Y-113647193D01*
X135505506Y-113501904D01*
G37*
X135505506Y-113501904D02*
X135674359Y-113223959D01*
X135807535Y-112857240D01*
X135769609Y-112658809D01*
X135645897Y-112389265D01*
X135732238Y-112117241D01*
X135958912Y-111951364D01*
X136132550Y-111818395D01*
X136761620Y-111818395D01*
X137505060Y-111562634D01*
X138020109Y-111372042D01*
X138535065Y-111160528D01*
X138794111Y-111042770D01*
X139156892Y-110826474D01*
X139269624Y-110653183D01*
X139133145Y-110527513D01*
X138748297Y-110454080D01*
X138685988Y-110449036D01*
X137980368Y-110450830D01*
X137467730Y-110586603D01*
X137114619Y-110875263D01*
X136887580Y-111335715D01*
X136844049Y-111489969D01*
X136761620Y-111818395D01*
X136132550Y-111818395D01*
X136184276Y-111778785D01*
X136400601Y-111482838D01*
X136559514Y-111152390D01*
X136612643Y-110876310D01*
X136589161Y-110793508D01*
X136417814Y-110698350D01*
X136272504Y-110680000D01*
X136081984Y-110583621D01*
X136025380Y-110343105D01*
X136104706Y-110031384D01*
X136248250Y-109802422D01*
X136377351Y-109679874D01*
X136561230Y-109594212D01*
X136851025Y-109534432D01*
X137297877Y-109489532D01*
X137872315Y-109452989D01*
X138502001Y-109422533D01*
X138929279Y-109418038D01*
X139204816Y-109443845D01*
X139379282Y-109504295D01*
X139491565Y-109591708D01*
X139695011Y-109950773D01*
X139681475Y-110364687D01*
X139469285Y-110792666D01*
X139076768Y-111193923D01*
X138649245Y-111466225D01*
X138121500Y-111737365D01*
X138530355Y-111905957D01*
X138876809Y-112136141D01*
X139134100Y-112451426D01*
X139250503Y-112725388D01*
X139246242Y-112954957D01*
X139118048Y-113270640D01*
X139113337Y-113280534D01*
X138745018Y-113761445D01*
X138146776Y-114150593D01*
X137327317Y-114443234D01*
X136752926Y-114567081D01*
X136245683Y-114673666D01*
X135819359Y-114795922D01*
X135549984Y-114911181D01*
X135516683Y-114935691D01*
X135283584Y-115104106D01*
X135134845Y-115077741D01*
X135075469Y-115001186D01*
X134911024Y-114940421D01*
X134583868Y-114938638D01*
X134432974Y-114954949D01*
X134095893Y-114984884D01*
X133893318Y-114971480D01*
X133867000Y-114950378D01*
X133916825Y-114796558D01*
X134043628Y-114497180D01*
X134131801Y-114304890D01*
X134312411Y-113961791D01*
X134489570Y-113788758D01*
X134751431Y-113718948D01*
X134925551Y-113703024D01*
X135052542Y-113683451D01*
X136026000Y-113683451D01*
X136141179Y-113728443D01*
X136451998Y-113722328D01*
X136906381Y-113670146D01*
X137452251Y-113576934D01*
X137736890Y-113517910D01*
X138249799Y-113391730D01*
X138549222Y-113269998D01*
X138673102Y-113121118D01*
X138659384Y-112913489D01*
X138655641Y-112902500D01*
X138820000Y-112902500D01*
X138883500Y-112966000D01*
X138947000Y-112902500D01*
X138883500Y-112839000D01*
X138820000Y-112902500D01*
X138655641Y-112902500D01*
X138615912Y-112785887D01*
X138505239Y-112668909D01*
X138252191Y-112605961D01*
X137804916Y-112585215D01*
X137735180Y-112585000D01*
X137089366Y-112613008D01*
X136646498Y-112709698D01*
X136360429Y-112894066D01*
X136185012Y-113185107D01*
X136168585Y-113229882D01*
X136072457Y-113517352D01*
X136026632Y-113677441D01*
X136026000Y-113683451D01*
X135052542Y-113683451D01*
X135287787Y-113647193D01*
X135505506Y-113501904D01*
G36*
X159539625Y-109637048D02*
G01*
X159643531Y-109782650D01*
X159767441Y-110185484D01*
X159656626Y-110527882D01*
X159342556Y-110816574D01*
X159002344Y-111104701D01*
X158730375Y-111433026D01*
X158571021Y-111736545D01*
X158568656Y-111950253D01*
X158568661Y-111950260D01*
X158755899Y-112091749D01*
X158982157Y-111995063D01*
X159233747Y-111670501D01*
X159418703Y-111310801D01*
X159612014Y-110923664D01*
X159783702Y-110650538D01*
X159891778Y-110553000D01*
X159961238Y-110664003D01*
X159949655Y-110963366D01*
X159862446Y-111400615D01*
X159763416Y-111748721D01*
X159713699Y-112077198D01*
X159835823Y-112327302D01*
X159857479Y-112351971D01*
X159994589Y-112524379D01*
X159940778Y-112580352D01*
X159810915Y-112585000D01*
X159622945Y-112647886D01*
X159512509Y-112876258D01*
X159474845Y-113061250D01*
X159346875Y-113722043D01*
X159212440Y-114159389D01*
X159058144Y-114403742D01*
X158870592Y-114485561D01*
X158848280Y-114485960D01*
X158523238Y-114412681D01*
X158364233Y-114326359D01*
X158242542Y-114188462D01*
X158229915Y-113987445D01*
X158310311Y-113663649D01*
X158446073Y-113262517D01*
X158589118Y-112920236D01*
X158614296Y-112870750D01*
X158699774Y-112666477D01*
X158611536Y-112592747D01*
X158414218Y-112583055D01*
X158020855Y-112527259D01*
X157762332Y-112323702D01*
X157635012Y-112117099D01*
X157520406Y-111819895D01*
X157525128Y-111534029D01*
X157667996Y-111210620D01*
X157967829Y-110800785D01*
X158282750Y-110434538D01*
X158744422Y-109946031D01*
X159091394Y-109658136D01*
X159348263Y-109559069D01*
X159539625Y-109637048D01*
G37*
X159539625Y-109637048D02*
X159643531Y-109782650D01*
X159767441Y-110185484D01*
X159656626Y-110527882D01*
X159342556Y-110816574D01*
X159002344Y-111104701D01*
X158730375Y-111433026D01*
X158571021Y-111736545D01*
X158568656Y-111950253D01*
X158568661Y-111950260D01*
X158755899Y-112091749D01*
X158982157Y-111995063D01*
X159233747Y-111670501D01*
X159418703Y-111310801D01*
X159612014Y-110923664D01*
X159783702Y-110650538D01*
X159891778Y-110553000D01*
X159961238Y-110664003D01*
X159949655Y-110963366D01*
X159862446Y-111400615D01*
X159763416Y-111748721D01*
X159713699Y-112077198D01*
X159835823Y-112327302D01*
X159857479Y-112351971D01*
X159994589Y-112524379D01*
X159940778Y-112580352D01*
X159810915Y-112585000D01*
X159622945Y-112647886D01*
X159512509Y-112876258D01*
X159474845Y-113061250D01*
X159346875Y-113722043D01*
X159212440Y-114159389D01*
X159058144Y-114403742D01*
X158870592Y-114485561D01*
X158848280Y-114485960D01*
X158523238Y-114412681D01*
X158364233Y-114326359D01*
X158242542Y-114188462D01*
X158229915Y-113987445D01*
X158310311Y-113663649D01*
X158446073Y-113262517D01*
X158589118Y-112920236D01*
X158614296Y-112870750D01*
X158699774Y-112666477D01*
X158611536Y-112592747D01*
X158414218Y-112583055D01*
X158020855Y-112527259D01*
X157762332Y-112323702D01*
X157635012Y-112117099D01*
X157520406Y-111819895D01*
X157525128Y-111534029D01*
X157667996Y-111210620D01*
X157967829Y-110800785D01*
X158282750Y-110434538D01*
X158744422Y-109946031D01*
X159091394Y-109658136D01*
X159348263Y-109559069D01*
X159539625Y-109637048D01*
G36*
X132469614Y-103519014D02*
G01*
X132533548Y-103684285D01*
X132405592Y-103868264D01*
X132172248Y-104041432D01*
X132004729Y-104062074D01*
X131962000Y-103973273D01*
X132030270Y-103800713D01*
X132143950Y-103624023D01*
X132320968Y-103463122D01*
X132469614Y-103519014D01*
G37*
X132469614Y-103519014D02*
X132533548Y-103684285D01*
X132405592Y-103868264D01*
X132172248Y-104041432D01*
X132004729Y-104062074D01*
X131962000Y-103973273D01*
X132030270Y-103800713D01*
X132143950Y-103624023D01*
X132320968Y-103463122D01*
X132469614Y-103519014D01*
G36*
X146246953Y-112436107D02*
G01*
X146364700Y-112085555D01*
X146587112Y-111556978D01*
X147349182Y-111556978D01*
X147357869Y-111693232D01*
X147465084Y-111628310D01*
X147661018Y-111368291D01*
X147935862Y-110919256D01*
X148279806Y-110287284D01*
X148288023Y-110271471D01*
X148465939Y-109888274D01*
X148578480Y-109568057D01*
X148599000Y-109448858D01*
X148546965Y-109336983D01*
X148409464Y-109416258D01*
X148214401Y-109650535D01*
X147989680Y-110003669D01*
X147763205Y-110439513D01*
X147666627Y-110656621D01*
X147448831Y-111213467D01*
X147349182Y-111556978D01*
X146587112Y-111556978D01*
X146664060Y-111374107D01*
X147014888Y-110678047D01*
X147379560Y-110064000D01*
X147720456Y-109598591D01*
X147842870Y-109467875D01*
X148209183Y-109116925D01*
X147517720Y-108370063D01*
X147121534Y-107892041D01*
X146747839Y-107357087D01*
X146477810Y-106881539D01*
X146159793Y-106204648D01*
X146636885Y-106204648D01*
X146697321Y-106473646D01*
X146911417Y-106884930D01*
X147023426Y-107080962D01*
X147628520Y-107901307D01*
X148410339Y-108601449D01*
X149318126Y-109154778D01*
X150301121Y-109534687D01*
X151308567Y-109714565D01*
X152028000Y-109704514D01*
X152407332Y-109658779D01*
X152686386Y-109613995D01*
X152745369Y-109599948D01*
X152798713Y-109481312D01*
X152761408Y-109172032D01*
X152630657Y-108651409D01*
X152605081Y-108561678D01*
X152354220Y-107691006D01*
X152761195Y-107691006D01*
X152798929Y-108045901D01*
X152932468Y-108563763D01*
X152980738Y-108731117D01*
X153103755Y-109124818D01*
X153207769Y-109324273D01*
X153338242Y-109380920D01*
X153527286Y-109349510D01*
X153830749Y-109232451D01*
X154229426Y-109026369D01*
X154463028Y-108886008D01*
X155321777Y-108199933D01*
X156022981Y-107358457D01*
X156544537Y-106404789D01*
X156864344Y-105382142D01*
X156960301Y-104333728D01*
X156943580Y-104036284D01*
X156897709Y-103627740D01*
X156848141Y-103333140D01*
X156814703Y-103232370D01*
X156672600Y-103235537D01*
X156347390Y-103297440D01*
X155899837Y-103405799D01*
X155724070Y-103452828D01*
X154695000Y-103734848D01*
X154695000Y-104462422D01*
X154573489Y-105320021D01*
X154222768Y-106093333D01*
X153663553Y-106743378D01*
X153356833Y-106980272D01*
X153026747Y-107220576D01*
X152832667Y-107436693D01*
X152761195Y-107691006D01*
X152354220Y-107691006D01*
X152318923Y-107568500D01*
X151500597Y-107496906D01*
X150580841Y-107306876D01*
X149808650Y-106910317D01*
X149182947Y-106306668D01*
X149157633Y-106273860D01*
X148916504Y-105941246D01*
X148745288Y-105675422D01*
X148699078Y-105582736D01*
X148607711Y-105519379D01*
X148375064Y-105531058D01*
X147964010Y-105622461D01*
X147603913Y-105721045D01*
X147067544Y-105881379D01*
X146752747Y-106024903D01*
X146636885Y-106204648D01*
X146159793Y-106204648D01*
X146129362Y-106139877D01*
X145236931Y-106383362D01*
X144764002Y-106513190D01*
X144366848Y-106623644D01*
X144128199Y-106691706D01*
X144122250Y-106693482D01*
X143934300Y-106677603D01*
X143900000Y-106587398D01*
X144014267Y-106453052D01*
X144312936Y-106313710D01*
X144503250Y-106255510D01*
X144975828Y-106130758D01*
X145433173Y-106009937D01*
X145558441Y-105976820D01*
X146010383Y-105857300D01*
X145956087Y-104721652D01*
X145948755Y-104357743D01*
X146314734Y-104357743D01*
X146329770Y-104826119D01*
X146367237Y-105254160D01*
X146418713Y-105574900D01*
X146475776Y-105721376D01*
X146486562Y-105723978D01*
X146607138Y-105689520D01*
X146913666Y-105600340D01*
X147348384Y-105473260D01*
X147519500Y-105423127D01*
X147654951Y-105383421D01*
X148857780Y-105383421D01*
X149141140Y-105888229D01*
X149464518Y-106309936D01*
X149924461Y-106729678D01*
X150418365Y-107059965D01*
X150631000Y-107158638D01*
X150858994Y-107200619D01*
X151241486Y-107231266D01*
X151536084Y-107240973D01*
X152250668Y-107251000D01*
X151871597Y-105937128D01*
X151499050Y-104645872D01*
X151845782Y-104645872D01*
X151898742Y-104927498D01*
X151991419Y-105225887D01*
X152125647Y-105674146D01*
X152273190Y-106177921D01*
X152280518Y-106203250D01*
X152415543Y-106642985D01*
X152530486Y-106968458D01*
X152603864Y-107119849D01*
X152611184Y-107124000D01*
X152758020Y-107071110D01*
X153018556Y-106944838D01*
X153604628Y-106506827D01*
X154082531Y-105891959D01*
X154406498Y-105169593D01*
X154512095Y-104681438D01*
X154544499Y-104287645D01*
X154500438Y-104043661D01*
X154343297Y-103934215D01*
X154036462Y-103944038D01*
X153543317Y-104057858D01*
X153227309Y-104145622D01*
X152711579Y-104292975D01*
X152281479Y-104417441D01*
X152000835Y-104500477D01*
X151937351Y-104520377D01*
X151845782Y-104645872D01*
X151499050Y-104645872D01*
X151492525Y-104623257D01*
X150175152Y-105003339D01*
X148857780Y-105383421D01*
X147654951Y-105383421D01*
X148535500Y-105125298D01*
X148494077Y-104666422D01*
X148500178Y-104569863D01*
X148732316Y-104569863D01*
X148753151Y-104813413D01*
X148860462Y-104936984D01*
X149091619Y-104952376D01*
X149483994Y-104871388D01*
X150074957Y-104705819D01*
X150233769Y-104659669D01*
X150714088Y-104516013D01*
X151092182Y-104395381D01*
X151308492Y-104317083D01*
X151336073Y-104302260D01*
X151328567Y-104164353D01*
X151263155Y-103847585D01*
X151157185Y-103415690D01*
X151028004Y-102932401D01*
X150892962Y-102461454D01*
X150769407Y-102066581D01*
X150674687Y-101811517D01*
X150642867Y-101755584D01*
X150486327Y-101758267D01*
X150214416Y-101906928D01*
X149881563Y-102158646D01*
X149542200Y-102470501D01*
X149250759Y-102799571D01*
X149161672Y-102923559D01*
X148886637Y-103511089D01*
X148760585Y-104194536D01*
X148732316Y-104569863D01*
X148500178Y-104569863D01*
X148541099Y-103922314D01*
X148787774Y-103164584D01*
X149200750Y-102480723D01*
X149423179Y-102229136D01*
X149776780Y-101915172D01*
X150116105Y-101678412D01*
X150249251Y-101617513D01*
X151012000Y-101617513D01*
X151044586Y-101790042D01*
X151130445Y-102128284D01*
X151251723Y-102570668D01*
X151390568Y-103055623D01*
X151529129Y-103521577D01*
X151649553Y-103906961D01*
X151733987Y-104150202D01*
X151761646Y-104203000D01*
X151899604Y-104172075D01*
X152228243Y-104088648D01*
X152693106Y-103966737D01*
X153065186Y-103867412D01*
X153650460Y-103694662D01*
X154069875Y-103538487D01*
X154289447Y-103412444D01*
X154314000Y-103369285D01*
X154219787Y-103107320D01*
X153974609Y-102760093D01*
X153634655Y-102389319D01*
X153256114Y-102056716D01*
X152917000Y-101834878D01*
X152575928Y-101704880D01*
X152153767Y-101603680D01*
X151718688Y-101539058D01*
X151338863Y-101518792D01*
X151082463Y-101550661D01*
X151012000Y-101617513D01*
X150249251Y-101617513D01*
X150313382Y-101588181D01*
X150537104Y-101480346D01*
X150588677Y-101354891D01*
X150527454Y-101161494D01*
X150423744Y-100802767D01*
X150308218Y-100386310D01*
X150181496Y-99953628D01*
X150067458Y-99620249D01*
X150022635Y-99524779D01*
X150445108Y-99524779D01*
X150509165Y-99866513D01*
X150632684Y-100342916D01*
X150907458Y-101345544D01*
X151461458Y-101301482D01*
X152196544Y-101355398D01*
X152929859Y-101605556D01*
X153597201Y-102014078D01*
X154134370Y-102543087D01*
X154440670Y-103059203D01*
X154552843Y-103318555D01*
X154613532Y-103437174D01*
X154615157Y-103437978D01*
X154735343Y-103403164D01*
X155041378Y-103313024D01*
X155475626Y-103184554D01*
X155647500Y-103133601D01*
X156163109Y-102975385D01*
X156465109Y-102840613D01*
X156582255Y-102676724D01*
X156543299Y-102431158D01*
X156376994Y-102051353D01*
X156313050Y-101917000D01*
X155897153Y-101262302D01*
X155301322Y-100615307D01*
X154593394Y-100039627D01*
X153841205Y-99598874D01*
X153840776Y-99598673D01*
X153349254Y-99387753D01*
X152913181Y-99258553D01*
X152427062Y-99187624D01*
X151837500Y-99153400D01*
X151309073Y-99146587D01*
X150868453Y-99164480D01*
X150583798Y-99203325D01*
X150526205Y-99225614D01*
X150452389Y-99327944D01*
X150445108Y-99524779D01*
X150022635Y-99524779D01*
X149993951Y-99463685D01*
X149822057Y-99444789D01*
X149505008Y-99552564D01*
X149098433Y-99758113D01*
X148657962Y-100032540D01*
X148239225Y-100346947D01*
X148155413Y-100418727D01*
X147372006Y-101263912D01*
X146793151Y-102226461D01*
X146435261Y-103271253D01*
X146314734Y-104357743D01*
X145948755Y-104357743D01*
X145942347Y-104039743D01*
X145984617Y-103492406D01*
X146095146Y-102964014D01*
X146169894Y-102703332D01*
X146577559Y-101736230D01*
X147172071Y-100839434D01*
X147908842Y-100062784D01*
X148743284Y-99456121D01*
X149329250Y-99171730D01*
X149651025Y-99029622D01*
X149844142Y-98911959D01*
X149869000Y-98876973D01*
X149835722Y-98724101D01*
X149746995Y-98389629D01*
X149619477Y-97935505D01*
X149566285Y-97751227D01*
X149421945Y-97221028D01*
X149360200Y-96894759D01*
X149376523Y-96737759D01*
X149430273Y-96710000D01*
X149553736Y-96823830D01*
X149698112Y-97123725D01*
X149802954Y-97440250D01*
X149972952Y-98034044D01*
X150096078Y-98423839D01*
X150192378Y-98650658D01*
X150281897Y-98755530D01*
X150384682Y-98779479D01*
X150454168Y-98773017D01*
X150694953Y-98755937D01*
X151105375Y-98741213D01*
X151601074Y-98731788D01*
X151652993Y-98731241D01*
X152806488Y-98842552D01*
X153899748Y-99184694D01*
X154898977Y-99735877D01*
X155770380Y-100474312D01*
X156480161Y-101378208D01*
X156858079Y-102087144D01*
X157020136Y-102423622D01*
X157148797Y-102638029D01*
X157193915Y-102679000D01*
X157342813Y-102647593D01*
X157673328Y-102564102D01*
X158122401Y-102444618D01*
X158268447Y-102404808D01*
X158740918Y-102287503D01*
X159115680Y-102217180D01*
X159329391Y-102204966D01*
X159352641Y-102214308D01*
X159394011Y-102303896D01*
X159306128Y-102393922D01*
X159055423Y-102500699D01*
X158608325Y-102640538D01*
X158288815Y-102731251D01*
X157298500Y-103007300D01*
X157342856Y-103965604D01*
X157286145Y-105134954D01*
X157019295Y-106253843D01*
X156561354Y-107284232D01*
X155931368Y-108188083D01*
X155148384Y-108927359D01*
X154712097Y-109219500D01*
X154355700Y-109463078D01*
X154121556Y-109689077D01*
X154062520Y-109812362D01*
X154014159Y-110126211D01*
X153982912Y-110225112D01*
X153979901Y-110352714D01*
X154132906Y-110415321D01*
X154459162Y-110434595D01*
X154751858Y-110450949D01*
X154832883Y-110494514D01*
X154691890Y-110575452D01*
X154318530Y-110703929D01*
X154123500Y-110764307D01*
X153893819Y-110865921D01*
X153778273Y-111032634D01*
X153759424Y-111324652D01*
X153819835Y-111802181D01*
X153820925Y-111809000D01*
X153804694Y-112060443D01*
X153720542Y-112165569D01*
X153589811Y-112101702D01*
X153523936Y-111925569D01*
X153482740Y-111772474D01*
X153415205Y-111800538D01*
X153290368Y-112033186D01*
X153239848Y-112140500D01*
X153098139Y-112555965D01*
X153012152Y-113031575D01*
X152983607Y-113500451D01*
X153014219Y-113895712D01*
X153105709Y-114150481D01*
X153186749Y-114207402D01*
X153421241Y-114141271D01*
X153724225Y-113906476D01*
X154042819Y-113557477D01*
X154324140Y-113148733D01*
X154448293Y-112908216D01*
X154596000Y-112621231D01*
X154673501Y-112552378D01*
X154673872Y-112673796D01*
X154590189Y-112957626D01*
X154511001Y-113160529D01*
X154195393Y-113750109D01*
X153794100Y-114258589D01*
X153354937Y-114639611D01*
X152925716Y-114846815D01*
X152746876Y-114871000D01*
X152519949Y-114795766D01*
X152275557Y-114637320D01*
X152025627Y-114285562D01*
X151912237Y-113863198D01*
X151837500Y-113322756D01*
X151483855Y-113601552D01*
X151025964Y-113848028D01*
X150508398Y-113952193D01*
X149998267Y-113920622D01*
X149562678Y-113759889D01*
X149268740Y-113476568D01*
X149222407Y-113380009D01*
X149158706Y-113105918D01*
X149177086Y-112955342D01*
X149205325Y-112844476D01*
X149191234Y-112839000D01*
X149097189Y-112936766D01*
X148914038Y-113189497D01*
X148743209Y-113447181D01*
X148244053Y-114085447D01*
X147725967Y-114476290D01*
X147193136Y-114616612D01*
X147163325Y-114617000D01*
X146725832Y-114522139D01*
X146418280Y-114228229D01*
X146228932Y-113721282D01*
X146182672Y-113448063D01*
X146175114Y-113287094D01*
X147236700Y-113287094D01*
X147311369Y-113759750D01*
X147431107Y-114008376D01*
X147570572Y-114087816D01*
X147799852Y-114007480D01*
X148054167Y-113859483D01*
X148510558Y-113462472D01*
X148908430Y-112897245D01*
X149189683Y-112249585D01*
X149222507Y-112134451D01*
X149259812Y-112047888D01*
X150308470Y-112047888D01*
X150318324Y-112211806D01*
X150434390Y-112277130D01*
X150609255Y-112133856D01*
X150650555Y-112084387D01*
X150793948Y-111839144D01*
X150805407Y-111669961D01*
X150670880Y-111652930D01*
X150473175Y-111797379D01*
X150308470Y-112047888D01*
X149259812Y-112047888D01*
X149409906Y-111699615D01*
X149695710Y-111298936D01*
X149745996Y-111247670D01*
X150135044Y-110874939D01*
X150605272Y-111126719D01*
X150988405Y-111440365D01*
X151133478Y-111825587D01*
X151035380Y-112252719D01*
X150846904Y-112529416D01*
X150540972Y-112885084D01*
X150306067Y-112610734D01*
X150110325Y-112436544D01*
X149983893Y-112475265D01*
X149972025Y-112492442D01*
X149874221Y-112862560D01*
X149999328Y-113251118D01*
X150171445Y-113459856D01*
X150393121Y-113640165D01*
X150586034Y-113671471D01*
X150873341Y-113570336D01*
X150901695Y-113558063D01*
X151445895Y-113241438D01*
X151837384Y-112806967D01*
X152119297Y-112199915D01*
X152210974Y-111896765D01*
X152253502Y-111733941D01*
X153016909Y-111733941D01*
X153024784Y-111882107D01*
X153047989Y-111884034D01*
X153145693Y-111725776D01*
X153236203Y-111434235D01*
X153236814Y-111431462D01*
X153286868Y-111097756D01*
X153257361Y-110994109D01*
X153174645Y-111119716D01*
X153074365Y-111436430D01*
X153016909Y-111733941D01*
X152253502Y-111733941D01*
X152328093Y-111448363D01*
X152376053Y-111178986D01*
X152354315Y-111023107D01*
X152262343Y-110915194D01*
X152202533Y-110868330D01*
X152042355Y-110732535D01*
X152099912Y-110689125D01*
X152241178Y-110684039D01*
X152519941Y-110604012D01*
X152779069Y-110422645D01*
X152913941Y-110216895D01*
X152916992Y-110186990D01*
X153425000Y-110186990D01*
X153475104Y-110357827D01*
X153552000Y-110362500D01*
X153657605Y-110183887D01*
X153679000Y-110030009D01*
X153628895Y-109859172D01*
X153552000Y-109854500D01*
X153446394Y-110033112D01*
X153425000Y-110186990D01*
X152916992Y-110186990D01*
X152917000Y-110186921D01*
X152799087Y-110146770D01*
X152481646Y-110114587D01*
X152019120Y-110094623D01*
X151678750Y-110090236D01*
X150989917Y-110073843D01*
X150449802Y-110014601D01*
X149954111Y-109892097D01*
X149398555Y-109685918D01*
X149210205Y-109607071D01*
X149046746Y-109605186D01*
X148881006Y-109775148D01*
X148716079Y-110066215D01*
X148491130Y-110471068D01*
X148191285Y-110963342D01*
X147938537Y-111350954D01*
X147563165Y-112017098D01*
X147324073Y-112682243D01*
X147236700Y-113287094D01*
X146175114Y-113287094D01*
X146158325Y-112929525D01*
X146246953Y-112436107D01*
G37*
X146246953Y-112436107D02*
X146364700Y-112085555D01*
X146587112Y-111556978D01*
X147349182Y-111556978D01*
X147357869Y-111693232D01*
X147465084Y-111628310D01*
X147661018Y-111368291D01*
X147935862Y-110919256D01*
X148279806Y-110287284D01*
X148288023Y-110271471D01*
X148465939Y-109888274D01*
X148578480Y-109568057D01*
X148599000Y-109448858D01*
X148546965Y-109336983D01*
X148409464Y-109416258D01*
X148214401Y-109650535D01*
X147989680Y-110003669D01*
X147763205Y-110439513D01*
X147666627Y-110656621D01*
X147448831Y-111213467D01*
X147349182Y-111556978D01*
X146587112Y-111556978D01*
X146664060Y-111374107D01*
X147014888Y-110678047D01*
X147379560Y-110064000D01*
X147720456Y-109598591D01*
X147842870Y-109467875D01*
X148209183Y-109116925D01*
X147517720Y-108370063D01*
X147121534Y-107892041D01*
X146747839Y-107357087D01*
X146477810Y-106881539D01*
X146159793Y-106204648D01*
X146636885Y-106204648D01*
X146697321Y-106473646D01*
X146911417Y-106884930D01*
X147023426Y-107080962D01*
X147628520Y-107901307D01*
X148410339Y-108601449D01*
X149318126Y-109154778D01*
X150301121Y-109534687D01*
X151308567Y-109714565D01*
X152028000Y-109704514D01*
X152407332Y-109658779D01*
X152686386Y-109613995D01*
X152745369Y-109599948D01*
X152798713Y-109481312D01*
X152761408Y-109172032D01*
X152630657Y-108651409D01*
X152605081Y-108561678D01*
X152354220Y-107691006D01*
X152761195Y-107691006D01*
X152798929Y-108045901D01*
X152932468Y-108563763D01*
X152980738Y-108731117D01*
X153103755Y-109124818D01*
X153207769Y-109324273D01*
X153338242Y-109380920D01*
X153527286Y-109349510D01*
X153830749Y-109232451D01*
X154229426Y-109026369D01*
X154463028Y-108886008D01*
X155321777Y-108199933D01*
X156022981Y-107358457D01*
X156544537Y-106404789D01*
X156864344Y-105382142D01*
X156960301Y-104333728D01*
X156943580Y-104036284D01*
X156897709Y-103627740D01*
X156848141Y-103333140D01*
X156814703Y-103232370D01*
X156672600Y-103235537D01*
X156347390Y-103297440D01*
X155899837Y-103405799D01*
X155724070Y-103452828D01*
X154695000Y-103734848D01*
X154695000Y-104462422D01*
X154573489Y-105320021D01*
X154222768Y-106093333D01*
X153663553Y-106743378D01*
X153356833Y-106980272D01*
X153026747Y-107220576D01*
X152832667Y-107436693D01*
X152761195Y-107691006D01*
X152354220Y-107691006D01*
X152318923Y-107568500D01*
X151500597Y-107496906D01*
X150580841Y-107306876D01*
X149808650Y-106910317D01*
X149182947Y-106306668D01*
X149157633Y-106273860D01*
X148916504Y-105941246D01*
X148745288Y-105675422D01*
X148699078Y-105582736D01*
X148607711Y-105519379D01*
X148375064Y-105531058D01*
X147964010Y-105622461D01*
X147603913Y-105721045D01*
X147067544Y-105881379D01*
X146752747Y-106024903D01*
X146636885Y-106204648D01*
X146159793Y-106204648D01*
X146129362Y-106139877D01*
X145236931Y-106383362D01*
X144764002Y-106513190D01*
X144366848Y-106623644D01*
X144128199Y-106691706D01*
X144122250Y-106693482D01*
X143934300Y-106677603D01*
X143900000Y-106587398D01*
X144014267Y-106453052D01*
X144312936Y-106313710D01*
X144503250Y-106255510D01*
X144975828Y-106130758D01*
X145433173Y-106009937D01*
X145558441Y-105976820D01*
X146010383Y-105857300D01*
X145956087Y-104721652D01*
X145948755Y-104357743D01*
X146314734Y-104357743D01*
X146329770Y-104826119D01*
X146367237Y-105254160D01*
X146418713Y-105574900D01*
X146475776Y-105721376D01*
X146486562Y-105723978D01*
X146607138Y-105689520D01*
X146913666Y-105600340D01*
X147348384Y-105473260D01*
X147519500Y-105423127D01*
X147654951Y-105383421D01*
X148857780Y-105383421D01*
X149141140Y-105888229D01*
X149464518Y-106309936D01*
X149924461Y-106729678D01*
X150418365Y-107059965D01*
X150631000Y-107158638D01*
X150858994Y-107200619D01*
X151241486Y-107231266D01*
X151536084Y-107240973D01*
X152250668Y-107251000D01*
X151871597Y-105937128D01*
X151499050Y-104645872D01*
X151845782Y-104645872D01*
X151898742Y-104927498D01*
X151991419Y-105225887D01*
X152125647Y-105674146D01*
X152273190Y-106177921D01*
X152280518Y-106203250D01*
X152415543Y-106642985D01*
X152530486Y-106968458D01*
X152603864Y-107119849D01*
X152611184Y-107124000D01*
X152758020Y-107071110D01*
X153018556Y-106944838D01*
X153604628Y-106506827D01*
X154082531Y-105891959D01*
X154406498Y-105169593D01*
X154512095Y-104681438D01*
X154544499Y-104287645D01*
X154500438Y-104043661D01*
X154343297Y-103934215D01*
X154036462Y-103944038D01*
X153543317Y-104057858D01*
X153227309Y-104145622D01*
X152711579Y-104292975D01*
X152281479Y-104417441D01*
X152000835Y-104500477D01*
X151937351Y-104520377D01*
X151845782Y-104645872D01*
X151499050Y-104645872D01*
X151492525Y-104623257D01*
X150175152Y-105003339D01*
X148857780Y-105383421D01*
X147654951Y-105383421D01*
X148535500Y-105125298D01*
X148494077Y-104666422D01*
X148500178Y-104569863D01*
X148732316Y-104569863D01*
X148753151Y-104813413D01*
X148860462Y-104936984D01*
X149091619Y-104952376D01*
X149483994Y-104871388D01*
X150074957Y-104705819D01*
X150233769Y-104659669D01*
X150714088Y-104516013D01*
X151092182Y-104395381D01*
X151308492Y-104317083D01*
X151336073Y-104302260D01*
X151328567Y-104164353D01*
X151263155Y-103847585D01*
X151157185Y-103415690D01*
X151028004Y-102932401D01*
X150892962Y-102461454D01*
X150769407Y-102066581D01*
X150674687Y-101811517D01*
X150642867Y-101755584D01*
X150486327Y-101758267D01*
X150214416Y-101906928D01*
X149881563Y-102158646D01*
X149542200Y-102470501D01*
X149250759Y-102799571D01*
X149161672Y-102923559D01*
X148886637Y-103511089D01*
X148760585Y-104194536D01*
X148732316Y-104569863D01*
X148500178Y-104569863D01*
X148541099Y-103922314D01*
X148787774Y-103164584D01*
X149200750Y-102480723D01*
X149423179Y-102229136D01*
X149776780Y-101915172D01*
X150116105Y-101678412D01*
X150249251Y-101617513D01*
X151012000Y-101617513D01*
X151044586Y-101790042D01*
X151130445Y-102128284D01*
X151251723Y-102570668D01*
X151390568Y-103055623D01*
X151529129Y-103521577D01*
X151649553Y-103906961D01*
X151733987Y-104150202D01*
X151761646Y-104203000D01*
X151899604Y-104172075D01*
X152228243Y-104088648D01*
X152693106Y-103966737D01*
X153065186Y-103867412D01*
X153650460Y-103694662D01*
X154069875Y-103538487D01*
X154289447Y-103412444D01*
X154314000Y-103369285D01*
X154219787Y-103107320D01*
X153974609Y-102760093D01*
X153634655Y-102389319D01*
X153256114Y-102056716D01*
X152917000Y-101834878D01*
X152575928Y-101704880D01*
X152153767Y-101603680D01*
X151718688Y-101539058D01*
X151338863Y-101518792D01*
X151082463Y-101550661D01*
X151012000Y-101617513D01*
X150249251Y-101617513D01*
X150313382Y-101588181D01*
X150537104Y-101480346D01*
X150588677Y-101354891D01*
X150527454Y-101161494D01*
X150423744Y-100802767D01*
X150308218Y-100386310D01*
X150181496Y-99953628D01*
X150067458Y-99620249D01*
X150022635Y-99524779D01*
X150445108Y-99524779D01*
X150509165Y-99866513D01*
X150632684Y-100342916D01*
X150907458Y-101345544D01*
X151461458Y-101301482D01*
X152196544Y-101355398D01*
X152929859Y-101605556D01*
X153597201Y-102014078D01*
X154134370Y-102543087D01*
X154440670Y-103059203D01*
X154552843Y-103318555D01*
X154613532Y-103437174D01*
X154615157Y-103437978D01*
X154735343Y-103403164D01*
X155041378Y-103313024D01*
X155475626Y-103184554D01*
X155647500Y-103133601D01*
X156163109Y-102975385D01*
X156465109Y-102840613D01*
X156582255Y-102676724D01*
X156543299Y-102431158D01*
X156376994Y-102051353D01*
X156313050Y-101917000D01*
X155897153Y-101262302D01*
X155301322Y-100615307D01*
X154593394Y-100039627D01*
X153841205Y-99598874D01*
X153840776Y-99598673D01*
X153349254Y-99387753D01*
X152913181Y-99258553D01*
X152427062Y-99187624D01*
X151837500Y-99153400D01*
X151309073Y-99146587D01*
X150868453Y-99164480D01*
X150583798Y-99203325D01*
X150526205Y-99225614D01*
X150452389Y-99327944D01*
X150445108Y-99524779D01*
X150022635Y-99524779D01*
X149993951Y-99463685D01*
X149822057Y-99444789D01*
X149505008Y-99552564D01*
X149098433Y-99758113D01*
X148657962Y-100032540D01*
X148239225Y-100346947D01*
X148155413Y-100418727D01*
X147372006Y-101263912D01*
X146793151Y-102226461D01*
X146435261Y-103271253D01*
X146314734Y-104357743D01*
X145948755Y-104357743D01*
X145942347Y-104039743D01*
X145984617Y-103492406D01*
X146095146Y-102964014D01*
X146169894Y-102703332D01*
X146577559Y-101736230D01*
X147172071Y-100839434D01*
X147908842Y-100062784D01*
X148743284Y-99456121D01*
X149329250Y-99171730D01*
X149651025Y-99029622D01*
X149844142Y-98911959D01*
X149869000Y-98876973D01*
X149835722Y-98724101D01*
X149746995Y-98389629D01*
X149619477Y-97935505D01*
X149566285Y-97751227D01*
X149421945Y-97221028D01*
X149360200Y-96894759D01*
X149376523Y-96737759D01*
X149430273Y-96710000D01*
X149553736Y-96823830D01*
X149698112Y-97123725D01*
X149802954Y-97440250D01*
X149972952Y-98034044D01*
X150096078Y-98423839D01*
X150192378Y-98650658D01*
X150281897Y-98755530D01*
X150384682Y-98779479D01*
X150454168Y-98773017D01*
X150694953Y-98755937D01*
X151105375Y-98741213D01*
X151601074Y-98731788D01*
X151652993Y-98731241D01*
X152806488Y-98842552D01*
X153899748Y-99184694D01*
X154898977Y-99735877D01*
X155770380Y-100474312D01*
X156480161Y-101378208D01*
X156858079Y-102087144D01*
X157020136Y-102423622D01*
X157148797Y-102638029D01*
X157193915Y-102679000D01*
X157342813Y-102647593D01*
X157673328Y-102564102D01*
X158122401Y-102444618D01*
X158268447Y-102404808D01*
X158740918Y-102287503D01*
X159115680Y-102217180D01*
X159329391Y-102204966D01*
X159352641Y-102214308D01*
X159394011Y-102303896D01*
X159306128Y-102393922D01*
X159055423Y-102500699D01*
X158608325Y-102640538D01*
X158288815Y-102731251D01*
X157298500Y-103007300D01*
X157342856Y-103965604D01*
X157286145Y-105134954D01*
X157019295Y-106253843D01*
X156561354Y-107284232D01*
X155931368Y-108188083D01*
X155148384Y-108927359D01*
X154712097Y-109219500D01*
X154355700Y-109463078D01*
X154121556Y-109689077D01*
X154062520Y-109812362D01*
X154014159Y-110126211D01*
X153982912Y-110225112D01*
X153979901Y-110352714D01*
X154132906Y-110415321D01*
X154459162Y-110434595D01*
X154751858Y-110450949D01*
X154832883Y-110494514D01*
X154691890Y-110575452D01*
X154318530Y-110703929D01*
X154123500Y-110764307D01*
X153893819Y-110865921D01*
X153778273Y-111032634D01*
X153759424Y-111324652D01*
X153819835Y-111802181D01*
X153820925Y-111809000D01*
X153804694Y-112060443D01*
X153720542Y-112165569D01*
X153589811Y-112101702D01*
X153523936Y-111925569D01*
X153482740Y-111772474D01*
X153415205Y-111800538D01*
X153290368Y-112033186D01*
X153239848Y-112140500D01*
X153098139Y-112555965D01*
X153012152Y-113031575D01*
X152983607Y-113500451D01*
X153014219Y-113895712D01*
X153105709Y-114150481D01*
X153186749Y-114207402D01*
X153421241Y-114141271D01*
X153724225Y-113906476D01*
X154042819Y-113557477D01*
X154324140Y-113148733D01*
X154448293Y-112908216D01*
X154596000Y-112621231D01*
X154673501Y-112552378D01*
X154673872Y-112673796D01*
X154590189Y-112957626D01*
X154511001Y-113160529D01*
X154195393Y-113750109D01*
X153794100Y-114258589D01*
X153354937Y-114639611D01*
X152925716Y-114846815D01*
X152746876Y-114871000D01*
X152519949Y-114795766D01*
X152275557Y-114637320D01*
X152025627Y-114285562D01*
X151912237Y-113863198D01*
X151837500Y-113322756D01*
X151483855Y-113601552D01*
X151025964Y-113848028D01*
X150508398Y-113952193D01*
X149998267Y-113920622D01*
X149562678Y-113759889D01*
X149268740Y-113476568D01*
X149222407Y-113380009D01*
X149158706Y-113105918D01*
X149177086Y-112955342D01*
X149205325Y-112844476D01*
X149191234Y-112839000D01*
X149097189Y-112936766D01*
X148914038Y-113189497D01*
X148743209Y-113447181D01*
X148244053Y-114085447D01*
X147725967Y-114476290D01*
X147193136Y-114616612D01*
X147163325Y-114617000D01*
X146725832Y-114522139D01*
X146418280Y-114228229D01*
X146228932Y-113721282D01*
X146182672Y-113448063D01*
X146175114Y-113287094D01*
X147236700Y-113287094D01*
X147311369Y-113759750D01*
X147431107Y-114008376D01*
X147570572Y-114087816D01*
X147799852Y-114007480D01*
X148054167Y-113859483D01*
X148510558Y-113462472D01*
X148908430Y-112897245D01*
X149189683Y-112249585D01*
X149222507Y-112134451D01*
X149259812Y-112047888D01*
X150308470Y-112047888D01*
X150318324Y-112211806D01*
X150434390Y-112277130D01*
X150609255Y-112133856D01*
X150650555Y-112084387D01*
X150793948Y-111839144D01*
X150805407Y-111669961D01*
X150670880Y-111652930D01*
X150473175Y-111797379D01*
X150308470Y-112047888D01*
X149259812Y-112047888D01*
X149409906Y-111699615D01*
X149695710Y-111298936D01*
X149745996Y-111247670D01*
X150135044Y-110874939D01*
X150605272Y-111126719D01*
X150988405Y-111440365D01*
X151133478Y-111825587D01*
X151035380Y-112252719D01*
X150846904Y-112529416D01*
X150540972Y-112885084D01*
X150306067Y-112610734D01*
X150110325Y-112436544D01*
X149983893Y-112475265D01*
X149972025Y-112492442D01*
X149874221Y-112862560D01*
X149999328Y-113251118D01*
X150171445Y-113459856D01*
X150393121Y-113640165D01*
X150586034Y-113671471D01*
X150873341Y-113570336D01*
X150901695Y-113558063D01*
X151445895Y-113241438D01*
X151837384Y-112806967D01*
X152119297Y-112199915D01*
X152210974Y-111896765D01*
X152253502Y-111733941D01*
X153016909Y-111733941D01*
X153024784Y-111882107D01*
X153047989Y-111884034D01*
X153145693Y-111725776D01*
X153236203Y-111434235D01*
X153236814Y-111431462D01*
X153286868Y-111097756D01*
X153257361Y-110994109D01*
X153174645Y-111119716D01*
X153074365Y-111436430D01*
X153016909Y-111733941D01*
X152253502Y-111733941D01*
X152328093Y-111448363D01*
X152376053Y-111178986D01*
X152354315Y-111023107D01*
X152262343Y-110915194D01*
X152202533Y-110868330D01*
X152042355Y-110732535D01*
X152099912Y-110689125D01*
X152241178Y-110684039D01*
X152519941Y-110604012D01*
X152779069Y-110422645D01*
X152913941Y-110216895D01*
X152916992Y-110186990D01*
X153425000Y-110186990D01*
X153475104Y-110357827D01*
X153552000Y-110362500D01*
X153657605Y-110183887D01*
X153679000Y-110030009D01*
X153628895Y-109859172D01*
X153552000Y-109854500D01*
X153446394Y-110033112D01*
X153425000Y-110186990D01*
X152916992Y-110186990D01*
X152917000Y-110186921D01*
X152799087Y-110146770D01*
X152481646Y-110114587D01*
X152019120Y-110094623D01*
X151678750Y-110090236D01*
X150989917Y-110073843D01*
X150449802Y-110014601D01*
X149954111Y-109892097D01*
X149398555Y-109685918D01*
X149210205Y-109607071D01*
X149046746Y-109605186D01*
X148881006Y-109775148D01*
X148716079Y-110066215D01*
X148491130Y-110471068D01*
X148191285Y-110963342D01*
X147938537Y-111350954D01*
X147563165Y-112017098D01*
X147324073Y-112682243D01*
X147236700Y-113287094D01*
X146175114Y-113287094D01*
X146158325Y-112929525D01*
X146246953Y-112436107D01*
D11*
X51147500Y-70008000D03*
X51147500Y-72458000D03*
X42647500Y-68258000D03*
X45647500Y-74208000D03*
X45647500Y-68258000D03*
X49647500Y-68258000D03*
X49647500Y-74208000D03*
X42647500Y-74208000D03*
D12*
X185397500Y-46863000D03*
D13*
X80622500Y-40643000D03*
X80622500Y-44193000D03*
X99672500Y-35563000D03*
X99672500Y-39113000D03*
X118722500Y-32388000D03*
X118722500Y-35938000D03*
X137772500Y-36198000D03*
X137772500Y-39748000D03*
X156822500Y-45088000D03*
X156822500Y-48638000D03*
X175872500Y-54613000D03*
X175872500Y-58163000D03*
X80622500Y-59693000D03*
X80622500Y-63243000D03*
X99672500Y-54613000D03*
X99672500Y-58163000D03*
X118722500Y-51308000D03*
X118722500Y-54858000D03*
X137772500Y-55248000D03*
X137772500Y-58798000D03*
X156822500Y-64138000D03*
X156822500Y-67688000D03*
X175872500Y-73663000D03*
X175872500Y-77213000D03*
X80622500Y-78613000D03*
X80622500Y-82163000D03*
X99672500Y-73663000D03*
X99672500Y-77213000D03*
X118722500Y-70488000D03*
X118722500Y-74038000D03*
X137772500Y-74298000D03*
X137772500Y-77848000D03*
X156822500Y-83188000D03*
X156822500Y-86738000D03*
X175872500Y-92713000D03*
X175872500Y-96263000D03*
D14*
X54854695Y-105030500D03*
X51780305Y-106805500D03*
X71364695Y-95505500D03*
X68290305Y-97280500D03*
D13*
X86337500Y-100333000D03*
X86337500Y-103883000D03*
X105387500Y-100333000D03*
X105387500Y-103883000D03*
D15*
X52064519Y-123710064D03*
X50765481Y-124460064D03*
X48265481Y-120129936D03*
X49564519Y-119379936D03*
D16*
X130770000Y-64020000D03*
X130770000Y-65520000D03*
X125770000Y-65520000D03*
X125770000Y-64020000D03*
D15*
X68552019Y-114185064D03*
X67252981Y-114935064D03*
X64752981Y-110604936D03*
X66052019Y-109854936D03*
D16*
X130747500Y-44970000D03*
X130747500Y-46470000D03*
X125747500Y-46470000D03*
X125747500Y-44970000D03*
X98385000Y-101485000D03*
X98385000Y-102985000D03*
X93385000Y-102985000D03*
X93385000Y-101485000D03*
X149820000Y-49415000D03*
X149820000Y-50915000D03*
X144820000Y-50915000D03*
X144820000Y-49415000D03*
X92670000Y-92595000D03*
X92670000Y-94095000D03*
X87670000Y-94095000D03*
X87670000Y-92595000D03*
X149820000Y-68465000D03*
X149820000Y-69965000D03*
X144820000Y-69965000D03*
X144820000Y-68465000D03*
X92670000Y-73545000D03*
X92670000Y-75045000D03*
X87670000Y-75045000D03*
X87670000Y-73545000D03*
X149797500Y-87515000D03*
X149797500Y-89015000D03*
X144797500Y-89015000D03*
X144797500Y-87515000D03*
X92670000Y-54495000D03*
X92670000Y-55995000D03*
X87670000Y-55995000D03*
X87670000Y-54495000D03*
X168870000Y-96405000D03*
X168870000Y-97905000D03*
X163870000Y-97905000D03*
X163870000Y-96405000D03*
X111720000Y-49415000D03*
X111720000Y-50915000D03*
X106720000Y-50915000D03*
X106720000Y-49415000D03*
X168847500Y-77355000D03*
X168847500Y-78855000D03*
X163847500Y-78855000D03*
X163847500Y-77355000D03*
X111720000Y-68465000D03*
X111720000Y-69965000D03*
X106720000Y-69965000D03*
X106720000Y-68465000D03*
X168847500Y-58305000D03*
X168847500Y-59805000D03*
X163847500Y-59805000D03*
X163847500Y-58305000D03*
X111720000Y-87515000D03*
X111720000Y-89015000D03*
X106720000Y-89015000D03*
X106720000Y-87515000D03*
X187920000Y-67830000D03*
X187920000Y-69330000D03*
X182920000Y-69330000D03*
X182920000Y-67830000D03*
D17*
X120742500Y-107275000D03*
X119242500Y-107275000D03*
X119242500Y-102275000D03*
X120742500Y-102275000D03*
D16*
X187897500Y-86880000D03*
X187897500Y-88380000D03*
X182897500Y-88380000D03*
X182897500Y-86880000D03*
X130747500Y-83070000D03*
X130747500Y-84570000D03*
X125747500Y-84570000D03*
X125747500Y-83070000D03*
X187920000Y-105930000D03*
X187920000Y-107430000D03*
X182920000Y-107430000D03*
X182920000Y-105930000D03*
D18*
X97147500Y-47458000D03*
X84447500Y-44918000D03*
X116197500Y-42378000D03*
X103497500Y-39838000D03*
X135247500Y-37933000D03*
X122547500Y-35393000D03*
X154297500Y-42378000D03*
X141597500Y-39838000D03*
X173347500Y-51268000D03*
X160647500Y-48728000D03*
X192397500Y-60793000D03*
X179697500Y-58253000D03*
X97147500Y-66508000D03*
X84447500Y-63968000D03*
X116197500Y-61428000D03*
X103497500Y-58888000D03*
X135247500Y-56983000D03*
X122547500Y-54443000D03*
X154297500Y-61428000D03*
X141597500Y-58888000D03*
X173347500Y-70318000D03*
X160647500Y-67778000D03*
X192397500Y-79843000D03*
X179697500Y-77303000D03*
X97147500Y-85558000D03*
X84447500Y-83018000D03*
X116197500Y-80478000D03*
X103497500Y-77938000D03*
X135247500Y-76033000D03*
X122547500Y-73493000D03*
X154297500Y-80478000D03*
X141597500Y-77938000D03*
X173347500Y-89368000D03*
X160647500Y-86828000D03*
X192397500Y-98893000D03*
X179697500Y-96353000D03*
D19*
X60321846Y-124025178D03*
X56171550Y-111756655D03*
X76831846Y-114500178D03*
X72681550Y-102231655D03*
D18*
X88862500Y-109768000D03*
X101562500Y-112308000D03*
D20*
X112332500Y-97648000D03*
X109792500Y-110348000D03*
D21*
X44631500Y-56368000D03*
X44631500Y-49358000D03*
D22*
X42141500Y-55118000D03*
X42141500Y-50618000D03*
D23*
X52682500Y-36195000D03*
X69228900Y-34925000D03*
X52682500Y-38735000D03*
X69228900Y-37465000D03*
X52682500Y-41275000D03*
X69228900Y-40005000D03*
X69228900Y-42545000D03*
X52682500Y-43815000D03*
X52682500Y-46355000D03*
X69228900Y-45085000D03*
X52682500Y-48895000D03*
X69228900Y-47625000D03*
X69228900Y-50165000D03*
X52682500Y-51435000D03*
X69228900Y-52705000D03*
X52682500Y-53975000D03*
X69228900Y-55245000D03*
X52682500Y-56515000D03*
X69228900Y-57785000D03*
X52682500Y-59055000D03*
X52682500Y-61595000D03*
X69228900Y-60325000D03*
X69228900Y-62865000D03*
X52682500Y-64135000D03*
X54008900Y-62865000D03*
X67922500Y-64135000D03*
X54008900Y-60325000D03*
X67922500Y-61595000D03*
X54008900Y-57785000D03*
X67922500Y-59055000D03*
X67922500Y-56515000D03*
X54008900Y-55245000D03*
X67922500Y-53975000D03*
X54008900Y-52705000D03*
X54008900Y-50165000D03*
X67922500Y-51435000D03*
X54008900Y-47625000D03*
X67922500Y-48895000D03*
X67922500Y-46355000D03*
X54008900Y-45085000D03*
X67922500Y-43815000D03*
X54008900Y-42545000D03*
X54008900Y-40005000D03*
X67922500Y-41275000D03*
X67922500Y-38735000D03*
X54008900Y-37465000D03*
X54008900Y-34925000D03*
X67922500Y-36195000D03*
D24*
X53967500Y-74843000D03*
D25*
X56507500Y-74843000D03*
X59047500Y-74843000D03*
X61587500Y-74843000D03*
X64127500Y-74843000D03*
D26*
X63365500Y-81447000D03*
D27*
X62095500Y-81447000D03*
X60825500Y-81447000D03*
X59555500Y-81447000D03*
X58285500Y-81447000D03*
D28*
X41990774Y-35964726D03*
X41507500Y-34798000D03*
X43157500Y-33148000D03*
X41990774Y-33631274D03*
X44324226Y-35964726D03*
X44807500Y-34798000D03*
D29*
X43157500Y-34798000D03*
D28*
X43157500Y-36448000D03*
X44324226Y-33631274D03*
D29*
X76812500Y-85598000D03*
D28*
X77979226Y-84431274D03*
X75162500Y-85598000D03*
X76812500Y-87248000D03*
X76812500Y-83948000D03*
X75645774Y-84431274D03*
X77979226Y-86764726D03*
X75645774Y-86764726D03*
X78462500Y-85598000D03*
D30*
X107412500Y-102148000D03*
D31*
X107412500Y-107148000D03*
X107412500Y-104648000D03*
X121912500Y-102148000D03*
X121912500Y-107148000D03*
D28*
X76812500Y-33148000D03*
X77979226Y-35964726D03*
X75645774Y-33631274D03*
X77979226Y-33631274D03*
X75162500Y-34798000D03*
X78462500Y-34798000D03*
X75645774Y-35964726D03*
D29*
X76812500Y-34798000D03*
D28*
X76812500Y-36448000D03*
D12*
X90147500Y-34798000D03*
X43792500Y-125603000D03*
X185397500Y-114173000D03*
D28*
X41507500Y-103378000D03*
X44324226Y-104544726D03*
X41990774Y-102211274D03*
X43157500Y-105028000D03*
D29*
X43157500Y-103378000D03*
D28*
X44324226Y-102211274D03*
X41990774Y-104544726D03*
X43157500Y-101728000D03*
X44807500Y-103378000D03*
D32*
X156845000Y-45085000D03*
X175895000Y-54610000D03*
X118745000Y-32385000D03*
X99695000Y-35433000D03*
X137795000Y-36195000D03*
X80645000Y-40640000D03*
X80645000Y-44196000D03*
X99695000Y-38989000D03*
X118745000Y-35941000D03*
X137795000Y-39751000D03*
X156845000Y-48641000D03*
X175895000Y-58166000D03*
X175895000Y-73660000D03*
X80645000Y-59690000D03*
X117113700Y-54343300D03*
X137795000Y-55245000D03*
X118745000Y-51308000D03*
X156845000Y-64135000D03*
X99695000Y-54610000D03*
X80645000Y-63246000D03*
X114300000Y-57225700D03*
X99695000Y-58166000D03*
X118745000Y-54864000D03*
X137795000Y-58801000D03*
X156845000Y-67691000D03*
X188700000Y-74600000D03*
X175895000Y-77216000D03*
X156845000Y-83185000D03*
X175895000Y-92710000D03*
X118745000Y-70485000D03*
X137795000Y-74295000D03*
X99695000Y-73660000D03*
X80645000Y-78613000D03*
X80645000Y-82169000D03*
X99695000Y-77216000D03*
X118745000Y-74041000D03*
X137795000Y-77851000D03*
X156845000Y-86741000D03*
X175895000Y-96266000D03*
X63500000Y-117475000D03*
X51816000Y-106807000D03*
X71374000Y-95504000D03*
X86360000Y-100330000D03*
X54864000Y-105029000D03*
X105410000Y-100330000D03*
X68326000Y-97282000D03*
X86360000Y-103886000D03*
X105410000Y-103886000D03*
X170815000Y-59055000D03*
X170815000Y-78105000D03*
X151765000Y-50165000D03*
X94615000Y-74295000D03*
X132715000Y-64770000D03*
X153670000Y-56515000D03*
X113665000Y-50165000D03*
X94615000Y-93345000D03*
X189865000Y-87630000D03*
X120015000Y-109220000D03*
X94615000Y-55245000D03*
X52174505Y-125354614D03*
X151765000Y-88265000D03*
X113665000Y-69215000D03*
X151765000Y-69215000D03*
X113665000Y-88265000D03*
X189865000Y-106680000D03*
X189865000Y-68580000D03*
X170838000Y-97155000D03*
X100330000Y-102235000D03*
X132715000Y-83820000D03*
X132715000Y-45720000D03*
X68950577Y-116461073D03*
X47371000Y-116967000D03*
X180975000Y-87630000D03*
X142875000Y-69215000D03*
X161925000Y-78105000D03*
X120015000Y-100330000D03*
X180975000Y-106680000D03*
X104775000Y-88265000D03*
X161948000Y-97155000D03*
X104775000Y-69215000D03*
X85725000Y-74295000D03*
X91440000Y-102235000D03*
X85725000Y-93345000D03*
X64389000Y-108585000D03*
X123825000Y-83820000D03*
X123825000Y-45720000D03*
X104775000Y-50165000D03*
X180975000Y-68580000D03*
X161925000Y-59055000D03*
X85725000Y-55245000D03*
X47879000Y-117983000D03*
X142875000Y-50165000D03*
X142875000Y-88265000D03*
X123825000Y-64770000D03*
X51435000Y-119380000D03*
X90200000Y-81100000D03*
X82500000Y-43900000D03*
X80137000Y-57277000D03*
X77668500Y-106198300D03*
X101904800Y-64719200D03*
X102235000Y-92043200D03*
X116197500Y-43942000D03*
X98933000Y-75168000D03*
X115464300Y-57258400D03*
X132715000Y-80899000D03*
X120904000Y-42926000D03*
X121247500Y-61990100D03*
X119300000Y-91400000D03*
X103505000Y-107950000D03*
X151700000Y-47400000D03*
X137039000Y-57252300D03*
X123494800Y-111455200D03*
X161600000Y-75600000D03*
X155829000Y-49657000D03*
X158898655Y-85799937D03*
X181172900Y-94555700D03*
X181250000Y-75478800D03*
X175006000Y-60706000D03*
X56492500Y-79288380D03*
X53952500Y-79288380D03*
X59029757Y-79263500D03*
X191135000Y-106680000D03*
X52974005Y-126619000D03*
X63588886Y-107569006D03*
X69723000Y-117729000D03*
X90170000Y-102235000D03*
X101600000Y-102235000D03*
X84455000Y-93345000D03*
X95898064Y-93312679D03*
X84455000Y-74295000D03*
X84455000Y-55245000D03*
X95885000Y-74295000D03*
X95914244Y-55192127D03*
X103505000Y-50165000D03*
X114873933Y-50148447D03*
X103505000Y-69215000D03*
X120015000Y-99060000D03*
X114935000Y-88265000D03*
X120013811Y-110488364D03*
X122555000Y-83820000D03*
X122555000Y-64770000D03*
X133985000Y-83820000D03*
X133985000Y-64770000D03*
X122605612Y-45804987D03*
X133989221Y-45730592D03*
X141605000Y-50165000D03*
X141605000Y-69215000D03*
X153035000Y-50165000D03*
X141576920Y-88215772D03*
X153035000Y-69215000D03*
X160678000Y-97155000D03*
X153035000Y-88265000D03*
X172108000Y-97155000D03*
X160655000Y-78105000D03*
X160655000Y-59055000D03*
X172085000Y-78105000D03*
X179705000Y-68580000D03*
X172085000Y-59055000D03*
X179705000Y-87630000D03*
X191135000Y-68580000D03*
X103505000Y-88265000D03*
X114935000Y-69215000D03*
X191135000Y-87630000D03*
X179705000Y-106680000D03*
X78300000Y-58700000D03*
X76758800Y-59893200D03*
D33*
X49647500Y-74208000D02*
X51633531Y-74208000D01*
X52647491Y-73787991D02*
G75*
G02*
X51633531Y-74208000I-1013991J1013991D01*
G01*
X53613185Y-73387994D02*
G75*
G03*
X52647500Y-73788000I15J-1365706D01*
G01*
X53613185Y-73388000D02*
X57592500Y-73388000D01*
X107412500Y-104648000D02*
X109387500Y-104648000D01*
X112685706Y-103281851D02*
G75*
G02*
X109387500Y-104648000I-3298206J3298251D01*
G01*
X112685697Y-103281842D02*
X113180018Y-102787521D01*
D34*
X80625500Y-40640000D02*
X80622500Y-40643000D01*
X156825500Y-45085000D02*
X156822500Y-45088000D01*
X99695000Y-35433000D02*
X99695000Y-35540500D01*
X97655522Y-35433000D02*
X99695000Y-35433000D01*
X99672500Y-35563000D02*
X99672500Y-35027500D01*
X118725500Y-32385000D02*
X118722500Y-32388000D01*
X80645000Y-40640000D02*
X85084713Y-40640000D01*
X175895000Y-54610000D02*
X175875500Y-54610000D01*
X156800000Y-43500000D02*
X156800000Y-45040000D01*
X102300000Y-32400000D02*
X118710500Y-32400000D01*
X137772500Y-36198000D02*
X149498000Y-36198000D01*
X156845000Y-45085000D02*
X156825500Y-45085000D01*
X99695000Y-35540500D02*
X99672500Y-35563000D01*
X133959500Y-32385000D02*
X118745000Y-32385000D01*
X156845000Y-45085000D02*
X170004134Y-45085000D01*
X175875500Y-54610000D02*
X175872500Y-54613000D01*
X137775500Y-36195000D02*
X137772500Y-36198000D01*
X80645000Y-40640000D02*
X80625500Y-40640000D01*
X137795000Y-36195000D02*
X137775500Y-36195000D01*
X175872500Y-51280757D02*
X175872500Y-54613000D01*
X90296996Y-38480996D02*
G75*
G02*
X85084713Y-40640000I-5212296J5212296D01*
G01*
X175872517Y-51280757D02*
G75*
G03*
X173989999Y-46736001I-6427317J-43D01*
G01*
X156800000Y-43500000D02*
G75*
G03*
X149498000Y-36198000I-7302000J0D01*
G01*
X118722500Y-32388000D02*
G75*
G02*
X118710500Y-32400000I-12000J0D01*
G01*
X102300000Y-32400000D02*
G75*
G03*
X99672500Y-35027500I0J-2627500D01*
G01*
X173989990Y-46736010D02*
G75*
G03*
X170004134Y-45085000I-3985890J-3985890D01*
G01*
X133959500Y-32385000D02*
G75*
G02*
X137772500Y-36198000I0J-3813000D01*
G01*
X156845000Y-45085000D02*
G75*
G02*
X156800000Y-45040000I0J45000D01*
G01*
X97655522Y-35433010D02*
G75*
G03*
X90297000Y-38481000I-22J-10406490D01*
G01*
X80622500Y-44193000D02*
X80625500Y-44196000D01*
X84447500Y-44918000D02*
X82388062Y-44918000D01*
X80625500Y-44196000D02*
X80645000Y-44196000D01*
X80645011Y-44195989D02*
G75*
G03*
X82388062Y-44918000I1743089J1743089D01*
G01*
X99695000Y-39090500D02*
X99695000Y-38989000D01*
X103497500Y-39838000D02*
X101744667Y-39838000D01*
X99672500Y-39113000D02*
X99695000Y-39090500D01*
X99695010Y-38988990D02*
G75*
G03*
X101744667Y-39838000I2049690J2049690D01*
G01*
X118722500Y-35938000D02*
X121231754Y-35938000D01*
X118725500Y-35941000D02*
X118745000Y-35941000D01*
X118722500Y-35938000D02*
X118725500Y-35941000D01*
X122547514Y-35393014D02*
G75*
G02*
X121231754Y-35938000I-1315714J1315714D01*
G01*
X141597500Y-39838000D02*
X138005036Y-39838000D01*
X137772500Y-39748000D02*
X137775500Y-39751000D01*
X137775500Y-39751000D02*
X137795000Y-39751000D01*
X137794989Y-39751011D02*
G75*
G03*
X138005036Y-39838000I210011J210011D01*
G01*
X156825500Y-48641000D02*
X156845000Y-48641000D01*
X156932000Y-48728000D02*
X156845000Y-48641000D01*
X156822500Y-48638000D02*
X156825500Y-48641000D01*
X160647500Y-48728000D02*
X156932000Y-48728000D01*
X175875500Y-58166000D02*
X175895000Y-58166000D01*
X175872500Y-58163000D02*
X175875500Y-58166000D01*
X175895000Y-58166000D02*
X179487464Y-58166000D01*
X179697511Y-58252989D02*
G75*
G03*
X179487464Y-58166000I-210011J-210011D01*
G01*
X152146000Y-56388000D02*
X154689738Y-58931738D01*
X157151605Y-64262000D02*
X169643684Y-64262000D01*
X99675500Y-54610000D02*
X99695000Y-54610000D01*
X175875500Y-73660000D02*
X175872500Y-73663000D01*
X137795000Y-55245000D02*
X149386554Y-55245000D01*
X80622500Y-59693000D02*
X80625500Y-59690000D01*
X137775500Y-55245000D02*
X137795000Y-55245000D01*
X67922500Y-61595000D02*
X76045924Y-61595000D01*
X118745000Y-51308000D02*
X118722500Y-51308000D01*
X175895000Y-73660000D02*
X175875500Y-73660000D01*
X156825500Y-64135000D02*
X156822500Y-64138000D01*
X175895000Y-70513316D02*
X175895000Y-73660000D01*
X156845000Y-64135000D02*
X156825500Y-64135000D01*
X99672500Y-54613000D02*
X99675500Y-54610000D01*
X53975000Y-60325000D02*
X64822549Y-60325000D01*
X116847000Y-54610000D02*
X117113700Y-54343300D01*
X137772500Y-55248000D02*
X137775500Y-55245000D01*
X80625500Y-59690000D02*
X80645000Y-59690000D01*
X99695000Y-54610000D02*
X116847000Y-54610000D01*
X175895000Y-70513316D02*
G75*
G03*
X169643684Y-64262000I-6251300J16D01*
G01*
X157151605Y-64261997D02*
G75*
G02*
X156845001Y-64134999I-5J433597D01*
G01*
X152146014Y-56387986D02*
G75*
G03*
X149386554Y-55245000I-2759414J-2759414D01*
G01*
X156845006Y-64135000D02*
G75*
G03*
X154689737Y-58931739I-7358506J0D01*
G01*
X80644993Y-59689993D02*
G75*
G02*
X76045924Y-61595000I-4599093J4599093D01*
G01*
X67888586Y-61595014D02*
G75*
G03*
X64822549Y-60325000I-3066086J-3066086D01*
G01*
X80625500Y-63246000D02*
X80645000Y-63246000D01*
X84447500Y-63968000D02*
X82372804Y-63968000D01*
X80622500Y-63243000D02*
X80625500Y-63246000D01*
X80622499Y-63243001D02*
G75*
G03*
X82372804Y-63968000I1750301J1750301D01*
G01*
X101438062Y-58888000D02*
X103497500Y-58888000D01*
X114300000Y-57172600D02*
X114180879Y-57053479D01*
X99675500Y-58166000D02*
X99695000Y-58166000D01*
X114300000Y-57225700D02*
X114127779Y-57053479D01*
X99672500Y-58163000D02*
X99675500Y-58166000D01*
X105362500Y-57023000D02*
X113810639Y-57023000D01*
X114300000Y-57225700D02*
X114300000Y-57172600D01*
X105362500Y-57023000D02*
G75*
G03*
X103497500Y-58888000I0J-1865000D01*
G01*
X114299989Y-57225711D02*
G75*
G03*
X113810639Y-57023000I-489389J-489389D01*
G01*
X99695011Y-58165989D02*
G75*
G03*
X101438062Y-58888000I1743089J1743089D01*
G01*
X118722500Y-54858000D02*
X121545602Y-54858000D01*
X118728500Y-54864000D02*
X118745000Y-54864000D01*
X118722500Y-54858000D02*
X118728500Y-54864000D01*
X122547500Y-54443000D02*
G75*
G02*
X121545602Y-54858000I-1001900J1001900D01*
G01*
X137772500Y-58798000D02*
X137775500Y-58801000D01*
X137795000Y-58801000D02*
X141387464Y-58801000D01*
X137775500Y-58801000D02*
X137795000Y-58801000D01*
X141597511Y-58887989D02*
G75*
G03*
X141387464Y-58801000I-210011J-210011D01*
G01*
X156825500Y-67691000D02*
X156845000Y-67691000D01*
X160647500Y-67778000D02*
X157055036Y-67778000D01*
X156822500Y-67688000D02*
X156825500Y-67691000D01*
X156844989Y-67691011D02*
G75*
G03*
X157055036Y-67778000I210011J210011D01*
G01*
X175872500Y-77213000D02*
X175875500Y-77216000D01*
X175875500Y-77216000D02*
X175895000Y-77216000D01*
X181600000Y-74500000D02*
X188600000Y-74500000D01*
X175895000Y-77216000D02*
X179487464Y-77216000D01*
X179697500Y-77303000D02*
X179697500Y-76402500D01*
X188700000Y-74600000D02*
G75*
G03*
X188600000Y-74500000I-100000J0D01*
G01*
X181600000Y-74500000D02*
G75*
G03*
X179697500Y-76402500I0J-1902500D01*
G01*
X179697511Y-77302989D02*
G75*
G03*
X179487464Y-77216000I-210011J-210011D01*
G01*
X99675500Y-73660000D02*
X99672500Y-73663000D01*
X161934343Y-94488000D02*
X170595554Y-94488000D01*
X99695000Y-73660000D02*
X99675500Y-73660000D01*
X118725500Y-70485000D02*
X118722500Y-70488000D01*
X155752800Y-84257700D02*
X155752800Y-84505800D01*
X137774000Y-74295000D02*
X137772500Y-74296500D01*
X175895000Y-92710000D02*
X175875500Y-92710000D01*
X175875500Y-92710000D02*
X175872500Y-92713000D01*
X147828000Y-78232000D02*
X147828000Y-78603975D01*
X146939000Y-76327000D02*
X147109579Y-76497579D01*
X80622500Y-78613000D02*
X80622500Y-74258600D01*
X133962500Y-70488000D02*
X118722500Y-70488000D01*
X118745000Y-70485000D02*
X118725500Y-70485000D01*
X155752800Y-84505800D02*
X155752800Y-88306457D01*
X137795000Y-74295000D02*
X142033319Y-74295000D01*
X137795000Y-74295000D02*
X137774000Y-74295000D01*
X80645000Y-78613000D02*
X94107000Y-78613000D01*
X99057000Y-73663000D02*
X99672500Y-73663000D01*
X137772500Y-74296500D02*
X137772500Y-74298000D01*
X156845000Y-83185000D02*
X156825500Y-83185000D01*
X151485600Y-84429600D02*
X155676600Y-84429600D01*
X148463000Y-80137000D02*
X148992789Y-80666789D01*
X156825500Y-83185000D02*
X156822500Y-83188000D01*
X174880782Y-92713000D02*
X175872500Y-92713000D01*
X80645000Y-78613000D02*
X80622500Y-78613000D01*
X149531605Y-81967605D02*
X150008789Y-82444789D01*
X99672500Y-73663000D02*
X111057372Y-73663000D01*
X174880782Y-92712993D02*
G75*
G03*
X173355000Y-93345000I18J-2157807D01*
G01*
X161934343Y-94488000D02*
G75*
G02*
X155752800Y-88306457I-3J6181540D01*
G01*
X149531607Y-81967603D02*
G75*
G02*
X149352000Y-81534000I433593J433603D01*
G01*
X155752800Y-84505800D02*
G75*
G03*
X155676600Y-84429600I-76200J0D01*
G01*
X133962500Y-70488000D02*
G75*
G02*
X137772500Y-74298000I0J-3810000D01*
G01*
X146938995Y-76327005D02*
G75*
G03*
X142033319Y-74295000I-4905695J-4905695D01*
G01*
X173355014Y-93345014D02*
G75*
G02*
X170595554Y-94488000I-2759414J2759414D01*
G01*
X118722508Y-70488008D02*
G75*
G02*
X111057372Y-73663000I-7665108J7665108D01*
G01*
X151485600Y-84429600D02*
G75*
G02*
X150368000Y-83312000I0J1117600D01*
G01*
X97917000Y-74803000D02*
G75*
G02*
X94107000Y-78613000I-3810000J0D01*
G01*
X99057000Y-73663000D02*
G75*
G03*
X97917000Y-74803000I0J-1140000D01*
G01*
X148462992Y-80137008D02*
G75*
G02*
X147828000Y-78603975I1533008J1533008D01*
G01*
X150368006Y-83312000D02*
G75*
G03*
X150008789Y-82444789I-1226406J0D01*
G01*
X69228900Y-62865000D02*
G75*
G02*
X80622500Y-74258600I0J-11393600D01*
G01*
X155752800Y-84257700D02*
G75*
G02*
X156822500Y-83188000I1069700J0D01*
G01*
X149352006Y-81534000D02*
G75*
G03*
X148992789Y-80666789I-1226406J0D01*
G01*
X147828012Y-78232000D02*
G75*
G03*
X147109579Y-76497579I-2452812J0D01*
G01*
X84447500Y-83018000D02*
X82694667Y-83018000D01*
X80622500Y-82163000D02*
X80628500Y-82169000D01*
X80628500Y-82169000D02*
X80645000Y-82169000D01*
X80645010Y-82168990D02*
G75*
G03*
X82694667Y-83018000I2049690J2049690D01*
G01*
X99675500Y-77216000D02*
X99695000Y-77216000D01*
X99695000Y-77216000D02*
X101754438Y-77216000D01*
X99672500Y-77213000D02*
X99675500Y-77216000D01*
X103497489Y-77938011D02*
G75*
G03*
X101754438Y-77216000I-1743089J-1743089D01*
G01*
X118722500Y-74038000D02*
X118725500Y-74041000D01*
X118722500Y-74038000D02*
X121231754Y-74038000D01*
X118725500Y-74041000D02*
X118745000Y-74041000D01*
X122547514Y-73493014D02*
G75*
G02*
X121231754Y-74038000I-1315714J1315714D01*
G01*
X137772500Y-77848000D02*
X137775500Y-77851000D01*
X137775500Y-77851000D02*
X137795000Y-77851000D01*
X137772500Y-77848000D02*
X141380221Y-77848000D01*
X141597494Y-77938006D02*
G75*
G03*
X141380221Y-77848000I-217294J-217294D01*
G01*
X160647500Y-86828000D02*
X157039779Y-86828000D01*
X156825500Y-86741000D02*
X156845000Y-86741000D01*
X156822500Y-86738000D02*
X156825500Y-86741000D01*
X156822506Y-86737994D02*
G75*
G03*
X157039779Y-86828000I217294J217294D01*
G01*
X175895000Y-96266000D02*
X179487464Y-96266000D01*
X175875500Y-96266000D02*
X175895000Y-96266000D01*
X175872500Y-96263000D02*
X175875500Y-96266000D01*
X179697511Y-96352989D02*
G75*
G03*
X179487464Y-96266000I-210011J-210011D01*
G01*
X51781800Y-106807000D02*
X51780300Y-106805500D01*
X58920171Y-112895171D02*
X63500000Y-117475000D01*
X52832000Y-106807000D02*
X51816000Y-106807000D01*
X56171550Y-111756655D02*
X56171550Y-110146550D01*
X51816000Y-106807000D02*
X51781800Y-106807000D01*
X56171550Y-110146550D02*
X52832000Y-106807000D01*
X58920148Y-112895194D02*
G75*
G03*
X56171550Y-111756655I-2748648J-2748606D01*
G01*
X86360000Y-100330000D02*
X104584200Y-100330000D01*
X86340500Y-100330000D02*
X86360000Y-100330000D01*
X71366200Y-95504000D02*
X71364700Y-95505500D01*
X55833868Y-102687533D02*
X59994800Y-98526600D01*
X71374000Y-95504000D02*
X71366200Y-95504000D01*
X54864000Y-105029000D02*
X54856200Y-105029000D01*
X67288380Y-95505500D02*
X71364695Y-95505500D01*
X105390500Y-100330000D02*
X105387500Y-100333000D01*
X47879000Y-74610630D02*
X47879000Y-88165719D01*
X105410000Y-100330000D02*
X105390500Y-100330000D01*
X104584200Y-100330000D02*
X104587200Y-100333000D01*
X53975000Y-62865000D02*
X64822549Y-62865000D01*
X49446579Y-71965420D02*
X48641000Y-72771000D01*
X105387500Y-100333000D02*
X104587200Y-100333000D01*
X54856200Y-105029000D02*
X54854700Y-105030500D01*
X54008900Y-62865000D02*
X54008900Y-68419100D01*
X86337500Y-100333000D02*
X86340500Y-100330000D01*
X47879013Y-74610630D02*
G75*
G02*
X48641000Y-72771000I2601587J30D01*
G01*
X55833875Y-102687540D02*
G75*
G03*
X54864000Y-105029000I2341425J-2341460D01*
G01*
X67888586Y-64135014D02*
G75*
G03*
X64822549Y-62865000I-3066086J-3066086D01*
G01*
X49446588Y-71965429D02*
G75*
G02*
X51181000Y-71247000I1734412J-1734371D01*
G01*
X51181000Y-71247000D02*
G75*
G03*
X54008900Y-68419100I0J2827900D01*
G01*
X54863997Y-105029003D02*
G75*
G02*
X47879000Y-88165719I16863293J16863283D01*
G01*
X67288380Y-95505492D02*
G75*
G03*
X59994800Y-98526600I20J-10314708D01*
G01*
X68291800Y-97282000D02*
X68290300Y-97280500D01*
X68326000Y-97282000D02*
X71690500Y-100646500D01*
X68326000Y-97282000D02*
X68291800Y-97282000D01*
X71766200Y-100646500D02*
X71766300Y-100646400D01*
X71690500Y-100646500D02*
X71766200Y-100646500D01*
X72681600Y-102231700D02*
X71766300Y-100646400D01*
X86337500Y-103883000D02*
X86340500Y-103886000D01*
X101562500Y-112308000D02*
X101562500Y-109631269D01*
X100203000Y-104698800D02*
X88322272Y-104698800D01*
X86340500Y-103886000D02*
X86360000Y-103886000D01*
X102590600Y-107149217D02*
X102590600Y-107086400D01*
X102006409Y-108559609D02*
G75*
G03*
X101562500Y-109631269I1071691J-1071691D01*
G01*
X86360008Y-103885992D02*
G75*
G03*
X88322272Y-104698800I1962292J1962292D01*
G01*
X102590606Y-107149217D02*
G75*
G02*
X102006399Y-108559599I-1994606J17D01*
G01*
X100203000Y-104698800D02*
G75*
G02*
X102590600Y-107086400I0J-2387600D01*
G01*
X105390500Y-103886000D02*
X105387500Y-103883000D01*
X113078727Y-111709200D02*
X118414800Y-111709200D01*
X105410000Y-107215500D02*
X105410000Y-103886000D01*
X121970800Y-108153200D02*
X121970800Y-107206300D01*
X109792500Y-110348000D02*
X108542500Y-110348000D01*
X105410000Y-103886000D02*
X105390500Y-103886000D01*
X105410000Y-107215500D02*
G75*
G03*
X108542500Y-110348000I3132500J0D01*
G01*
X121970800Y-108153200D02*
G75*
G02*
X118414800Y-111709200I-3556000J0D01*
G01*
X121912500Y-107148000D02*
G75*
G02*
X121970800Y-107206300I0J-58300D01*
G01*
X113078727Y-111709188D02*
G75*
G02*
X109792500Y-110348000I-27J4647388D01*
G01*
D33*
X116443939Y-47386060D02*
X113665000Y-50165000D01*
X92670000Y-92595000D02*
X92670000Y-91785000D01*
X114535000Y-84700000D02*
X116854416Y-84700000D01*
X130747500Y-44970000D02*
X130747500Y-44423644D01*
X73533000Y-110363000D02*
X73533000Y-110474574D01*
X79500000Y-85289949D02*
X79500000Y-99405888D01*
X168870000Y-58305000D02*
X168847500Y-58305000D01*
X68756500Y-114389500D02*
X68552000Y-114185000D01*
X130747500Y-82260000D02*
X130747500Y-83070000D01*
X149797500Y-87515000D02*
X149797500Y-87007172D01*
X68552019Y-114185064D02*
X68704501Y-114337545D01*
X120742000Y-107148000D02*
X120742000Y-107820000D01*
X99695000Y-45339000D02*
X100438949Y-46082949D01*
X74785174Y-108014827D02*
X76746446Y-106053554D01*
X115500000Y-66800000D02*
X115571573Y-66800000D01*
X111720000Y-48754576D02*
X111720000Y-49415000D01*
X52197000Y-123843000D02*
X52064500Y-123710100D01*
X168892000Y-96405000D02*
X168870000Y-96405000D01*
X159700000Y-95200000D02*
X168256975Y-95200000D01*
X152654000Y-87376000D02*
X153276000Y-87376000D01*
X68950577Y-116420338D02*
X68950577Y-116461073D01*
X81771628Y-42291000D02*
X92336478Y-42291000D01*
X187920000Y-86880000D02*
X187897500Y-86880000D01*
X92670000Y-54495000D02*
X92804340Y-54495000D01*
X133604000Y-63881000D02*
X137544739Y-63881000D01*
X52197415Y-125331704D02*
X52174505Y-125354614D01*
X68756500Y-114389500D02*
X68756400Y-114389500D01*
X74189789Y-109452211D02*
X73712605Y-109929395D01*
X149820000Y-87515000D02*
X149797500Y-87515000D01*
X60347500Y-76488000D02*
X70698051Y-76488000D01*
X125233668Y-81229200D02*
X129716700Y-81229200D01*
X52197415Y-123821496D02*
X52197415Y-125331704D01*
X69215000Y-115570000D02*
X69215000Y-115845790D01*
X130770000Y-83070000D02*
X130747500Y-83070000D01*
X130189656Y-43865800D02*
X124942600Y-43865800D01*
X68756400Y-114389500D02*
X68552000Y-114185100D01*
X120742500Y-107819500D02*
X120742500Y-107275000D01*
X125378108Y-62738000D02*
X129488000Y-62738000D01*
X113665000Y-69215000D02*
X113665000Y-68635000D01*
X168870000Y-77355000D02*
X168847500Y-77355000D01*
X133731000Y-82804000D02*
X135388337Y-82804000D01*
X132975382Y-45459618D02*
X132715000Y-45720000D01*
X91690000Y-90805000D02*
X85015051Y-90805000D01*
X149424020Y-48459020D02*
X149225000Y-48260000D01*
X120742000Y-107820000D02*
X120742500Y-107819500D01*
X142746859Y-85852000D02*
X148642328Y-85852000D01*
X153670000Y-56515000D02*
X167057500Y-56515000D01*
X69115028Y-116255887D02*
X68950577Y-116420338D01*
X145209866Y-67056000D02*
X148411000Y-67056000D01*
X148305185Y-47879000D02*
X143348446Y-47879000D01*
X104217000Y-67183000D02*
X110437995Y-67183000D01*
X54008900Y-42545000D02*
X64856449Y-42545000D01*
X154200000Y-88300000D02*
X154200000Y-89700000D01*
X67922500Y-43815000D02*
X78092367Y-43815000D01*
X168870000Y-96405000D02*
X168870000Y-95813025D01*
X104775000Y-47879000D02*
X110844424Y-47879000D01*
X59047500Y-74843000D02*
X59047500Y-75188000D01*
X135989924Y-44831000D02*
X134493000Y-44831000D01*
X95615000Y-70600000D02*
X100800006Y-70600000D01*
X73252684Y-111151316D02*
X71397625Y-113006376D01*
X132714988Y-45720012D02*
G75*
G03*
X130904340Y-44970000I-1810688J-1810688D01*
G01*
X154200000Y-88300000D02*
G75*
G03*
X153276000Y-87376000I-924000J0D01*
G01*
X77099998Y-105200000D02*
G75*
G02*
X77587904Y-104022096I1665802J0D01*
G01*
X168870000Y-95813025D02*
G75*
G03*
X168256975Y-95200000I-613000J25D01*
G01*
X121199995Y-82899995D02*
G75*
G02*
X116854416Y-84700000I-4345595J4345595D01*
G01*
X94614988Y-93345012D02*
G75*
G03*
X92804340Y-92595000I-1810688J-1810688D01*
G01*
X142746859Y-85852016D02*
G75*
G02*
X139000001Y-84299999I41J5298916D01*
G01*
X151764988Y-88265012D02*
G75*
G03*
X149954340Y-87515000I-1810688J-1810688D01*
G01*
X149424028Y-48459012D02*
G75*
G02*
X149820000Y-49415000I-956028J-955988D01*
G01*
X151764988Y-50165012D02*
G75*
G03*
X149954340Y-49415000I-1810688J-1810688D01*
G01*
X170814988Y-97155012D02*
G75*
G03*
X169004340Y-96405000I-1810688J-1810688D01*
G01*
X120400008Y-64800008D02*
G75*
G02*
X115571573Y-66800000I-4828408J4828408D01*
G01*
X145209866Y-67056013D02*
G75*
G02*
X141224001Y-65404999I34J5636913D01*
G01*
X148642328Y-85852000D02*
G75*
G02*
X149797500Y-87007172I-28J-1155200D01*
G01*
X130770000Y-64020000D02*
G75*
G03*
X129488000Y-62738000I-1282000J0D01*
G01*
X94614988Y-74295012D02*
G75*
G03*
X92804340Y-73545000I-1810688J-1810688D01*
G01*
X69115019Y-116255882D02*
G75*
G03*
X69214999Y-115845790I-815619J416082D01*
G01*
X79500000Y-85289949D02*
G75*
G03*
X85015051Y-90805000I5515050J-1D01*
G01*
X113664988Y-69215012D02*
G75*
G03*
X111854340Y-68465000I-1810688J-1810688D01*
G01*
X52197448Y-123821490D02*
G75*
G03*
X52064519Y-123710065I-134548J-25510D01*
G01*
X138999989Y-84300011D02*
G75*
G03*
X135388337Y-82804000I-3611689J-3611689D01*
G01*
X130189656Y-43865800D02*
G75*
G02*
X130747500Y-44423644I44J-557800D01*
G01*
X168847500Y-58305000D02*
G75*
G03*
X167057500Y-56515000I-1790000J0D01*
G01*
X95615000Y-70600000D02*
G75*
G03*
X92670000Y-73545000I0J-2945000D01*
G01*
X116443944Y-47386065D02*
G75*
G02*
X124942600Y-43865800I8498656J-8498635D01*
G01*
X159700000Y-95200000D02*
G75*
G02*
X154200000Y-89700000I0J5500000D01*
G01*
X73532997Y-110363000D02*
G75*
G02*
X73712605Y-109929395I613203J0D01*
G01*
X141223989Y-65405011D02*
G75*
G03*
X137544739Y-63881000I-3679289J-3679289D01*
G01*
X125378108Y-62738004D02*
G75*
G03*
X120400000Y-64800000I-8J-7040096D01*
G01*
X79500000Y-85289949D02*
G75*
G03*
X70698051Y-76488000I-8801950J-1D01*
G01*
X74189785Y-109452207D02*
G75*
G03*
X74549000Y-108585000I-867185J867207D01*
G01*
X111720000Y-68465000D02*
G75*
G03*
X110437995Y-67183000I-1282000J0D01*
G01*
X149820000Y-68465000D02*
G75*
G03*
X148411000Y-67056000I-1409000J0D01*
G01*
X68552019Y-114185086D02*
G75*
G03*
X71397624Y-113006375I-19J4024286D01*
G01*
X132975389Y-45459625D02*
G75*
G02*
X134493000Y-44831000I1517611J-1517575D01*
G01*
X120015012Y-109220012D02*
G75*
G03*
X120742500Y-107463660I-1756312J1756312D01*
G01*
X57592500Y-73388000D02*
G75*
G02*
X59047500Y-74843000I0J-1455000D01*
G01*
X114535000Y-84700000D02*
G75*
G03*
X111720000Y-87515000I0J-2815000D01*
G01*
X76746445Y-106053553D02*
G75*
G03*
X77100000Y-105200000I-853545J853553D01*
G01*
X189864988Y-106680012D02*
G75*
G03*
X188054340Y-105930000I-1810688J-1810688D01*
G01*
X148305185Y-47879007D02*
G75*
G02*
X149225000Y-48260000I15J-1300793D01*
G01*
X189864988Y-68580012D02*
G75*
G03*
X188054340Y-67830000I-1810688J-1810688D01*
G01*
X170814988Y-78105012D02*
G75*
G03*
X169004340Y-77355000I-1810688J-1810688D01*
G01*
X99695007Y-45338993D02*
G75*
G03*
X92336478Y-42291000I-7358507J-7358507D01*
G01*
X60347500Y-76488000D02*
G75*
G02*
X59047500Y-75188000I0J1300000D01*
G01*
X77587909Y-104022101D02*
G75*
G03*
X79500000Y-99405888I-4616209J4616201D01*
G01*
X132714988Y-64770012D02*
G75*
G03*
X130904340Y-64020000I-1810688J-1810688D01*
G01*
X132714988Y-83820012D02*
G75*
G03*
X130904340Y-83070000I-1810688J-1810688D01*
G01*
X125233668Y-81229187D02*
G75*
G03*
X121200000Y-82900000I32J-5704513D01*
G01*
X133604000Y-63881000D02*
G75*
G03*
X132715000Y-64770000I0J-889000D01*
G01*
X130747500Y-82260000D02*
G75*
G03*
X129716700Y-81229200I-1030800J0D01*
G01*
X67922486Y-43815014D02*
G75*
G03*
X64856449Y-42545000I-3066086J-3066086D01*
G01*
X140588986Y-46736014D02*
G75*
G03*
X143348446Y-47879000I2759414J2759414D01*
G01*
X104217000Y-67183000D02*
G75*
G03*
X102100000Y-69300000I0J-2117000D01*
G01*
X100329988Y-102235012D02*
G75*
G03*
X98519340Y-101485000I-1810688J-1810688D01*
G01*
X94614988Y-55245012D02*
G75*
G03*
X92804340Y-54495000I-1810688J-1810688D01*
G01*
X115500000Y-66800000D02*
G75*
G03*
X113665000Y-68635000I0J-1835000D01*
G01*
X189864988Y-87630012D02*
G75*
G03*
X188054340Y-86880000I-1810688J-1810688D01*
G01*
X91690000Y-90805000D02*
G75*
G02*
X92670000Y-91785000I0J-980000D01*
G01*
X113664988Y-50165012D02*
G75*
G03*
X111854340Y-49415000I-1810688J-1810688D01*
G01*
X152654000Y-87376000D02*
G75*
G03*
X151765000Y-88265000I0J-889000D01*
G01*
X133731000Y-82804000D02*
G75*
G03*
X132715000Y-83820000I0J-1016000D01*
G01*
X104775000Y-47879000D02*
G75*
G02*
X100438950Y-46082948I0J6132100D01*
G01*
X73252706Y-111151338D02*
G75*
G03*
X73533000Y-110474574I-676806J676738D01*
G01*
X81771628Y-42291012D02*
G75*
G03*
X79847500Y-43088000I-28J-2721088D01*
G01*
X113664988Y-88265012D02*
G75*
G03*
X111854340Y-87515000I-1810688J-1810688D01*
G01*
X151764988Y-69215012D02*
G75*
G03*
X149954340Y-68465000I-1810688J-1810688D01*
G01*
X74548987Y-108585000D02*
G75*
G02*
X74785174Y-108014827I806313J0D01*
G01*
X79847510Y-43088010D02*
G75*
G02*
X78092367Y-43815000I-1755110J1755110D01*
G01*
X135989924Y-44830991D02*
G75*
G02*
X140589000Y-46736000I-24J-6504109D01*
G01*
X102100000Y-69300000D02*
G75*
G02*
X100800006Y-70600000I-1300000J0D01*
G01*
X170814988Y-59055012D02*
G75*
G03*
X169004340Y-58305000I-1810688J-1810688D01*
G01*
X111720000Y-48754576D02*
G75*
G03*
X110844424Y-47879000I-875600J-24D01*
G01*
X69214987Y-115570000D02*
G75*
G03*
X68704501Y-114337545I-1742987J0D01*
G01*
D34*
X47371000Y-116967000D02*
X47668580Y-116967000D01*
X49564519Y-119091361D02*
X49564519Y-119379936D01*
X49564534Y-119091361D02*
G75*
G03*
X48894999Y-117475001I-2285934J-39D01*
G01*
X48895006Y-117474994D02*
G75*
G03*
X47668580Y-116967000I-1226406J-1226406D01*
G01*
D33*
X106720000Y-50915000D02*
X106122500Y-50915000D01*
X182920000Y-70915500D02*
X182920000Y-69330000D01*
X119242500Y-102275000D02*
X119242500Y-102194979D01*
X43157500Y-34798000D02*
X44807500Y-34798000D01*
X130047503Y-90288000D02*
X131147500Y-90288000D01*
X125747500Y-85460644D02*
X125747500Y-84570000D01*
X87670000Y-55995000D02*
X87535660Y-55995000D01*
X105525000Y-50915000D02*
X104775000Y-50165000D01*
X180947500Y-90188000D02*
X180198582Y-90188000D01*
X59958312Y-108585000D02*
X64389000Y-108585000D01*
X163870000Y-78855000D02*
X163847500Y-78855000D01*
X181538278Y-90188000D02*
X180947500Y-90188000D01*
X179714000Y-73288000D02*
X178171522Y-73288000D01*
X123825000Y-64770000D02*
X121002829Y-67592171D01*
X51147500Y-70008000D02*
X51334800Y-69820700D01*
X51435000Y-105283000D02*
X51986580Y-105283000D01*
X87670000Y-75045000D02*
X87670000Y-75855000D01*
X47879000Y-117983000D02*
X47835420Y-117983000D01*
X125780800Y-94554700D02*
X125780800Y-107137200D01*
X107326616Y-90322400D02*
X120885744Y-90322400D01*
X172282000Y-80518000D02*
X172818000Y-80518000D01*
X88522356Y-95631000D02*
X90297000Y-95631000D01*
X131147500Y-90288000D02*
X130574856Y-90288000D01*
X163870000Y-79461500D02*
X163870000Y-78855000D01*
X179600000Y-108400000D02*
X177942646Y-108400000D01*
X119242500Y-102275000D02*
X119242000Y-102274500D01*
X120885744Y-90322400D02*
X121548501Y-90322400D01*
X64752900Y-110605000D02*
X64753000Y-110604900D01*
X178202836Y-73288000D02*
X179714000Y-73288000D01*
X64389000Y-108585000D02*
X64389000Y-109726209D01*
X82259640Y-116281200D02*
X116636800Y-116281200D01*
X179714000Y-73288000D02*
X180547500Y-73288000D01*
X41507500Y-34798000D02*
X43157500Y-34798000D01*
X46101000Y-116248580D02*
X46101000Y-113824363D01*
X99822000Y-71374000D02*
X112959344Y-71374000D01*
X125770000Y-65520000D02*
X125770000Y-66330000D01*
X166478500Y-63246000D02*
X169672000Y-63246000D01*
X180975000Y-107025000D02*
X180975000Y-106680000D01*
X54008900Y-37465000D02*
X49596207Y-37465000D01*
X141605000Y-70231000D02*
X141701185Y-70231000D01*
X177292000Y-70866000D02*
X177292000Y-72377164D01*
X117100382Y-69208618D02*
X116776500Y-69532500D01*
X104775000Y-69215000D02*
X104775000Y-69273000D01*
X119242000Y-102274500D02*
X119242000Y-102148000D01*
X178447500Y-92352509D02*
X178447500Y-91955880D01*
X106720000Y-89015000D02*
X106720000Y-89715784D01*
X176021522Y-75438000D02*
X175723478Y-75438000D01*
X140852000Y-90288000D02*
X131147500Y-90288000D01*
X127639000Y-68199000D02*
X137247160Y-68199000D01*
X106122500Y-50915000D02*
X105525000Y-50915000D01*
X180947500Y-90188000D02*
X180215380Y-90188000D01*
X117032370Y-69276631D02*
X116776500Y-69532500D01*
X139700000Y-69215000D02*
X140087381Y-69602381D01*
X174300000Y-95799970D02*
X174300000Y-104757354D01*
X106720000Y-50915000D02*
X106720000Y-51499711D01*
X51147500Y-72458000D02*
X59202500Y-72458000D01*
X107544289Y-52324000D02*
X113284000Y-52324000D01*
X164951210Y-80518000D02*
X172282000Y-80518000D01*
X42141500Y-55118000D02*
X42141500Y-57882000D01*
X116776500Y-69532500D02*
X116332000Y-69977000D01*
X142875000Y-69236790D02*
X142875000Y-69215000D01*
X114943168Y-102057200D02*
X119024700Y-102057200D01*
X125747500Y-46470000D02*
X125747500Y-47280000D01*
X175899970Y-94200000D02*
X176600009Y-94200000D01*
X47879000Y-117983000D02*
X47879000Y-119196889D01*
X116332000Y-50800000D02*
X116567948Y-50564052D01*
X88115000Y-76300000D02*
X94896000Y-76300000D01*
X120904000Y-48768000D02*
X120991160Y-48768000D01*
X182897500Y-88380000D02*
X182897500Y-88828778D01*
X104775000Y-88265000D02*
X102437943Y-90602057D01*
X51247020Y-66987520D02*
X51247020Y-69908480D01*
X174498000Y-76663478D02*
X174498000Y-78302000D01*
X125747500Y-84570000D02*
X125747500Y-85380000D01*
X164338000Y-80264000D02*
X164106527Y-80032527D01*
X64753000Y-110605000D02*
X64752900Y-110605000D01*
X69138800Y-118821200D02*
X76127539Y-118821200D01*
X144743800Y-50991200D02*
X144820000Y-50915000D01*
X163847500Y-59805000D02*
X163847500Y-60615000D01*
X129521500Y-51054000D02*
X141701185Y-51054000D01*
X182897500Y-88380000D02*
X182897500Y-88602500D01*
X123825000Y-46832185D02*
X123825000Y-45720000D01*
X142621000Y-50673000D02*
X142695395Y-50598605D01*
X178400000Y-86100000D02*
X178400000Y-88389418D01*
X63804800Y-111553117D02*
X63804800Y-113487200D01*
X87670000Y-94095000D02*
X87670000Y-94778644D01*
X115885630Y-51246369D02*
X116332000Y-50800000D01*
X54008900Y-37465000D02*
X64856449Y-37465000D01*
X166478500Y-63246000D02*
G75*
G02*
X163847500Y-60615000I0J2631000D01*
G01*
X48265481Y-120129936D02*
G75*
G02*
X47879000Y-119196889I933019J933036D01*
G01*
X123825012Y-83819988D02*
G75*
G03*
X125635660Y-84570000I1810688J1810688D01*
G01*
X51247000Y-66987520D02*
G75*
G03*
X46447500Y-62188000I-4799500J20D01*
G01*
X161925012Y-97154988D02*
G75*
G03*
X163735660Y-97905000I1810688J1810688D01*
G01*
X49266973Y-106181025D02*
G75*
G03*
X46101000Y-113824363I7643337J-7643335D01*
G01*
X163869985Y-79461500D02*
G75*
G03*
X164106528Y-80032526I807515J0D01*
G01*
X123444012Y-47752012D02*
G75*
G02*
X120991160Y-48768000I-2452812J2452812D01*
G01*
X161925012Y-59054988D02*
G75*
G03*
X163735660Y-59805000I1810688J1810688D01*
G01*
X67922486Y-38735014D02*
G75*
G03*
X64856449Y-37465000I-3066086J-3066086D01*
G01*
X182920000Y-70915500D02*
G75*
G02*
X180547500Y-73288000I-2372500J0D01*
G01*
X64752987Y-110604930D02*
G75*
G02*
X64389000Y-109726209I878713J878730D01*
G01*
X139700012Y-69214988D02*
G75*
G03*
X137247160Y-68199000I-2452812J-2452812D01*
G01*
X125780800Y-94554700D02*
G75*
G03*
X121548501Y-90322400I-4232300J0D01*
G01*
X114943168Y-102057187D02*
G75*
G03*
X113180019Y-102787522I32J-2493513D01*
G01*
X123824993Y-46832185D02*
G75*
G02*
X123444000Y-47752000I-1300793J-15D01*
G01*
X174498000Y-76663478D02*
G75*
G02*
X175723478Y-75438000I1225500J-22D01*
G01*
X46101009Y-116248580D02*
G75*
G03*
X46609000Y-117475000I1734391J-20D01*
G01*
X180975000Y-107025000D02*
G75*
G02*
X179600000Y-108400000I-1375000J0D01*
G01*
X85725012Y-74294988D02*
G75*
G03*
X87535660Y-75045000I1810688J1810688D01*
G01*
X120015006Y-100330006D02*
G75*
G03*
X119242500Y-102194979I1864994J-1864994D01*
G01*
X178400000Y-86100000D02*
G75*
G03*
X172818000Y-80518000I-5582000J0D01*
G01*
X177292000Y-70866000D02*
G75*
G03*
X169672000Y-63246000I-7620000J0D01*
G01*
X177942646Y-108400000D02*
G75*
G02*
X174300000Y-104757354I-46J3642600D01*
G01*
X140852000Y-90288000D02*
G75*
G03*
X142875000Y-88265000I0J2023000D01*
G01*
X107326616Y-90322400D02*
G75*
G02*
X106720000Y-89715784I-16J606600D01*
G01*
X63804836Y-111553117D02*
G75*
G02*
X64752981Y-110604936I948164J17D01*
G01*
X88115000Y-76300000D02*
G75*
G02*
X87670000Y-75855000I0J445000D01*
G01*
X176021522Y-75438000D02*
G75*
G03*
X177292000Y-74167522I-22J1270500D01*
G01*
X118618000Y-68579987D02*
G75*
G03*
X121002829Y-67592171I0J3372687D01*
G01*
X104775012Y-50164988D02*
G75*
G03*
X106585660Y-50915000I1810688J1810688D01*
G01*
X182900000Y-69350000D02*
G75*
G02*
X182920000Y-69330000I20000J0D01*
G01*
X119242500Y-102275000D02*
G75*
G03*
X119024700Y-102057200I-217800J0D01*
G01*
X130047503Y-90288000D02*
G75*
G03*
X125780800Y-94554700I-3J-4266700D01*
G01*
X180975012Y-87629988D02*
G75*
G03*
X182785660Y-88380000I1810688J1810688D01*
G01*
X127639000Y-68199000D02*
G75*
G02*
X125770000Y-66330000I0J1869000D01*
G01*
X115885638Y-51246377D02*
G75*
G02*
X113284000Y-52324000I-2601638J2601677D01*
G01*
X69138800Y-118821200D02*
G75*
G02*
X63804800Y-113487200I0J5334000D01*
G01*
X82259640Y-116281217D02*
G75*
G03*
X79806800Y-117297200I-40J-3468783D01*
G01*
X79806789Y-117297189D02*
G75*
G02*
X76127539Y-118821200I-3679289J3679289D01*
G01*
X141605000Y-70231010D02*
G75*
G02*
X140087381Y-69602381I0J2146210D01*
G01*
X178447500Y-91955880D02*
G75*
G02*
X180215380Y-90188000I1767900J-20D01*
G01*
X61587500Y-74843000D02*
G75*
G03*
X59202500Y-72458000I-2385000J0D01*
G01*
X125747500Y-85460644D02*
G75*
G02*
X120885744Y-90322400I-4861800J44D01*
G01*
X85725012Y-55244988D02*
G75*
G03*
X87535660Y-55995000I1810688J1810688D01*
G01*
X104775012Y-88264988D02*
G75*
G03*
X106585660Y-89015000I1810688J1810688D01*
G01*
X102674000Y-71374000D02*
G75*
G03*
X104775000Y-69273000I0J2101000D01*
G01*
X53213006Y-105790994D02*
G75*
G03*
X51986580Y-105283000I-1226406J-1226406D01*
G01*
X142874995Y-69236790D02*
G75*
G02*
X142620999Y-69849999I-867195J-10D01*
G01*
X178447500Y-92352509D02*
G75*
G02*
X176600009Y-94200000I-1847500J9D01*
G01*
X91440012Y-102234988D02*
G75*
G03*
X93250660Y-102985000I1810688J1810688D01*
G01*
X129521500Y-51054000D02*
G75*
G02*
X125747500Y-47280000I0J3774000D01*
G01*
X177292000Y-74167522D02*
G75*
G02*
X178171522Y-73288000I879500J22D01*
G01*
X90297000Y-95630996D02*
G75*
G03*
X102437943Y-90602057I0J17169896D01*
G01*
X142621005Y-69850005D02*
G75*
G02*
X141701185Y-70231000I-919805J919805D01*
G01*
X46608994Y-117475006D02*
G75*
G03*
X47835420Y-117983000I1226406J1226406D01*
G01*
X142875012Y-50164988D02*
G75*
G03*
X144685660Y-50915000I1810688J1810688D01*
G01*
X178202836Y-73288000D02*
G75*
G02*
X177292000Y-72377164I-36J910800D01*
G01*
X85725012Y-93344988D02*
G75*
G03*
X87535660Y-94095000I1810688J1810688D01*
G01*
X174300000Y-95799970D02*
G75*
G02*
X175899970Y-94200000I1600000J-30D01*
G01*
X88522356Y-95631000D02*
G75*
G02*
X87670000Y-94778644I44J852400D01*
G01*
X180975012Y-68579988D02*
G75*
G03*
X182785660Y-69330000I1810688J1810688D01*
G01*
X96901000Y-74295000D02*
G75*
G02*
X94896000Y-76300000I-2005000J0D01*
G01*
X180975012Y-106679988D02*
G75*
G03*
X182785660Y-107430000I1810688J1810688D01*
G01*
X125780800Y-107137200D02*
G75*
G02*
X116636800Y-116281200I-9144000J0D01*
G01*
X142875003Y-50165000D02*
G75*
G02*
X142695395Y-50598605I-613203J0D01*
G01*
X117100389Y-69208625D02*
G75*
G02*
X118618000Y-68580000I1517611J-1517575D01*
G01*
X181538278Y-90188000D02*
G75*
G03*
X182897500Y-88828778I22J1359200D01*
G01*
X172282000Y-80518000D02*
G75*
G03*
X174498000Y-78302000I0J2216000D01*
G01*
X164337997Y-80264003D02*
G75*
G03*
X164951210Y-80518000I613203J613203D01*
G01*
X120904000Y-48768000D02*
G75*
G03*
X116567949Y-50564053I0J-6132100D01*
G01*
X99822000Y-71374000D02*
G75*
G03*
X96901000Y-74295000I0J-2921000D01*
G01*
X46447500Y-62188000D02*
G75*
G02*
X42141500Y-57882000I0J4306000D01*
G01*
X51435000Y-105282985D02*
G75*
G03*
X49266974Y-106181026I0J-3066015D01*
G01*
X43157498Y-34798002D02*
G75*
G03*
X49596207Y-37465000I6438702J6438702D01*
G01*
X142621005Y-50673005D02*
G75*
G02*
X141701185Y-51054000I-919805J919805D01*
G01*
X112959344Y-71374018D02*
G75*
G03*
X116332000Y-69977000I-44J4769718D01*
G01*
X125747500Y-85460644D02*
G75*
G03*
X130574856Y-90288000I4827400J44D01*
G01*
X104775012Y-69214988D02*
G75*
G03*
X106585660Y-69965000I1810688J1810688D01*
G01*
X161925012Y-78104988D02*
G75*
G03*
X163735660Y-78855000I1810688J1810688D01*
G01*
X123825012Y-45719988D02*
G75*
G03*
X125635660Y-46470000I1810688J1810688D01*
G01*
X123825012Y-64769988D02*
G75*
G03*
X125635660Y-65520000I1810688J1810688D01*
G01*
X142875012Y-69214988D02*
G75*
G03*
X144685660Y-69965000I1810688J1810688D01*
G01*
X59958312Y-108584994D02*
G75*
G02*
X53213001Y-105790999I-12J9539294D01*
G01*
X107544289Y-52324000D02*
G75*
G02*
X106720000Y-51499711I11J824300D01*
G01*
X142875012Y-88264988D02*
G75*
G03*
X144685660Y-89015000I1810688J1810688D01*
G01*
X178400000Y-88389418D02*
G75*
G03*
X180198582Y-90188000I1798600J18D01*
G01*
D34*
X93939500Y-81100000D02*
X90200000Y-81100000D01*
X55647790Y-124735790D02*
X52243224Y-121331224D01*
X57739068Y-125095000D02*
X56515000Y-125095000D01*
X96210371Y-64245572D02*
X93706400Y-61741600D01*
X97147500Y-85558000D02*
X97147500Y-84308000D01*
X83474000Y-42926000D02*
X92078739Y-42926000D01*
X53975000Y-55245000D02*
X64822549Y-55245000D01*
X95758000Y-44450000D02*
X96003047Y-44695047D01*
X67922500Y-56515000D02*
X78297370Y-56515000D01*
X85655892Y-59563000D02*
X88446795Y-59563000D01*
X51435016Y-119380000D02*
G75*
G03*
X52243224Y-121331224I2759484J0D01*
G01*
X93706402Y-61741598D02*
G75*
G03*
X88446795Y-59563000I-5259602J-5259602D01*
G01*
X57739068Y-125094977D02*
G75*
G03*
X60321846Y-124025178I32J3652577D01*
G01*
X80137009Y-57276991D02*
G75*
G03*
X78297370Y-56515000I-1839609J-1839609D01*
G01*
X85655892Y-59563003D02*
G75*
G02*
X80137000Y-57277000I8J7804903D01*
G01*
X97147501Y-47458000D02*
G75*
G03*
X96003047Y-44695047I-3907401J0D01*
G01*
X83474000Y-42926000D02*
G75*
G03*
X82500000Y-43900000I0J-974000D01*
G01*
X93939500Y-81100000D02*
G75*
G02*
X97147500Y-84308000I0J-3208000D01*
G01*
X67888586Y-56515014D02*
G75*
G03*
X64822549Y-55245000I-3066086J-3066086D01*
G01*
X96210380Y-64245563D02*
G75*
G02*
X97147500Y-66508000I-2262480J-2262437D01*
G01*
X95757989Y-44450011D02*
G75*
G03*
X92078739Y-42926000I-3679289J-3679289D01*
G01*
X55647794Y-124735786D02*
G75*
G03*
X56515000Y-125095000I867206J867186D01*
G01*
X112137500Y-75168000D02*
X98933000Y-75168000D01*
X102235000Y-92043200D02*
X101822584Y-92455616D01*
X92300000Y-96400000D02*
X90494830Y-96400000D01*
X81280000Y-56896000D02*
X80640171Y-56256171D01*
X90127516Y-58166000D02*
X84346051Y-58166000D01*
X116197500Y-42378000D02*
X116197500Y-43942000D01*
X113726136Y-66432521D02*
X108047594Y-66432521D01*
X78664672Y-103793328D02*
X82920687Y-99537313D01*
X78867000Y-112324054D02*
X78867000Y-109091734D01*
X69228900Y-55245000D02*
X78198988Y-55245000D01*
X116197500Y-61428000D02*
X116197500Y-59028501D01*
X76831800Y-114500200D02*
X78322000Y-113639800D01*
X116197500Y-80478000D02*
X116197500Y-79228000D01*
X116197500Y-63961157D02*
X116197500Y-61428000D01*
X99618800Y-62941200D02*
X98178375Y-61500775D01*
X82920663Y-99537289D02*
G75*
G02*
X90494830Y-96400000I7574137J-7574211D01*
G01*
X81279985Y-56896015D02*
G75*
G03*
X84346051Y-58166000I3066015J3066015D01*
G01*
X90434121Y-58292977D02*
G75*
G02*
X98178375Y-61500775I-21J-10952023D01*
G01*
X78664681Y-103793337D02*
G75*
G03*
X77668500Y-106198300I2404919J-2404963D01*
G01*
X78866980Y-112324054D02*
G75*
G02*
X78321999Y-113639799I-1860680J-46D01*
G01*
X115464300Y-57258400D02*
G75*
G02*
X116197500Y-59028501I-1770100J-1770100D01*
G01*
X92300000Y-96399990D02*
G75*
G03*
X101822584Y-92455616I0J13466990D01*
G01*
X99618802Y-62941198D02*
G75*
G03*
X108047594Y-66432521I8428798J8428798D01*
G01*
X78198988Y-55245022D02*
G75*
G02*
X80640171Y-56256171I12J-3452378D01*
G01*
X116197421Y-63961157D02*
G75*
G02*
X113726136Y-66432521I-2471321J-43D01*
G01*
X112137500Y-75168000D02*
G75*
G02*
X116197500Y-79228000I0J-4060000D01*
G01*
X77668510Y-106198290D02*
G75*
G02*
X78867000Y-109091734I-2893410J-2893410D01*
G01*
X90127516Y-58165988D02*
G75*
G02*
X90434120Y-58293001I-16J-433612D01*
G01*
X88862500Y-109768000D02*
X88862500Y-111018000D01*
X81485526Y-55323526D02*
X82688037Y-56526037D01*
X92398500Y-114554000D02*
X101092000Y-114554000D01*
X118364000Y-59106600D02*
X118364000Y-59182000D01*
X116174800Y-91343200D02*
X114396801Y-91343200D01*
X103505000Y-106347866D02*
X103505000Y-107950000D01*
X121247500Y-61990100D02*
X131557900Y-61990100D01*
X135247500Y-76033000D02*
X135247500Y-78366500D01*
X105930763Y-101587237D02*
X105156000Y-102362000D01*
X135247500Y-37933000D02*
X135247500Y-40466157D01*
X85186900Y-57561100D02*
X94152307Y-57561100D01*
X119300000Y-91400000D02*
X116205000Y-91313000D01*
X96711131Y-56501200D02*
X115758600Y-56501200D01*
X67922500Y-53975000D02*
X78229896Y-53975000D01*
X53975000Y-52705000D02*
X64822549Y-52705000D01*
X135128000Y-58420000D02*
X135128000Y-57102500D01*
X103378000Y-112268000D02*
X103378000Y-108256605D01*
X121172100Y-61990100D02*
X121247500Y-61990100D01*
X120915521Y-42937521D02*
X132776136Y-42937521D01*
X135247500Y-56983000D02*
G75*
G03*
X135128000Y-57102500I0J-119500D01*
G01*
X103378000Y-112268000D02*
G75*
G02*
X101092000Y-114554000I-2286000J0D01*
G01*
X103504987Y-106347866D02*
G75*
G02*
X105156001Y-102362001I5636913J-34D01*
G01*
X85186900Y-57561107D02*
G75*
G02*
X82688037Y-56526037I0J3533907D01*
G01*
X95757998Y-56895998D02*
G75*
G02*
X94152307Y-57561100I-1605698J1605698D01*
G01*
X67888586Y-53975014D02*
G75*
G03*
X64822549Y-52705000I-3066086J-3066086D01*
G01*
X96711131Y-56501214D02*
G75*
G03*
X95758001Y-56896001I-31J-1347886D01*
G01*
X116174800Y-91343200D02*
G75*
G03*
X116205000Y-91313000I0J30200D01*
G01*
X121172100Y-61990100D02*
G75*
G02*
X118364000Y-59182000I0J2808100D01*
G01*
X132776136Y-42937600D02*
G75*
G03*
X135247500Y-40466157I-36J2471400D01*
G01*
X135128000Y-58420000D02*
G75*
G02*
X131557900Y-61990100I-3570100J0D01*
G01*
X107188000Y-98552000D02*
G75*
G02*
X114396801Y-91343200I7208800J0D01*
G01*
X132715000Y-80899000D02*
G75*
G03*
X135247500Y-78366500I0J2532500D01*
G01*
X120903979Y-42926000D02*
G75*
G03*
X120915521Y-42937521I11521J0D01*
G01*
X118364000Y-59106600D02*
G75*
G03*
X115758600Y-56501200I-2605400J0D01*
G01*
X92398500Y-114554000D02*
G75*
G02*
X88862500Y-111018000I0J3536000D01*
G01*
X81485537Y-55323515D02*
G75*
G03*
X78229896Y-53975000I-3255637J-3255685D01*
G01*
X103504998Y-107949998D02*
G75*
G03*
X103378000Y-108256605I306602J-306602D01*
G01*
X105930769Y-101587243D02*
G75*
G03*
X107188000Y-98552000I-3035269J3035243D01*
G01*
X81802800Y-54116801D02*
X83735341Y-56049340D01*
X112332500Y-97648000D02*
X112507011Y-97473489D01*
X154297500Y-61428000D02*
X154297500Y-80478000D01*
X121912500Y-102148000D02*
X121912500Y-100728900D01*
X86848407Y-57110800D02*
X93864217Y-57110800D01*
X112507011Y-97473489D02*
X118657089Y-97473489D01*
X151808657Y-47400000D02*
X151700000Y-47400000D01*
X154297500Y-42378000D02*
X154297500Y-44911157D01*
X86632251Y-57108570D02*
X86848407Y-57110800D01*
X69228900Y-52705000D02*
X78394411Y-52705000D01*
X118110000Y-53848000D02*
X119254312Y-53848000D01*
X118668800Y-97485200D02*
X118657089Y-97473489D01*
X153691863Y-59965863D02*
X151520026Y-57794026D01*
X123494800Y-100025200D02*
X123494800Y-111455200D01*
X86201584Y-57070892D02*
X86632251Y-57108570D01*
X135128000Y-53848000D02*
X135983077Y-54703077D01*
X118657089Y-97473489D02*
X120943089Y-97473489D01*
X96523038Y-56009480D02*
X116710520Y-56009480D01*
X149352000Y-56896000D02*
X137899184Y-56896000D01*
X117856000Y-54864000D02*
X117856000Y-54102000D01*
X122320275Y-52578000D02*
X132061949Y-52578000D01*
X83735349Y-56049332D02*
G75*
G03*
X86201584Y-57070892I2466251J2466232D01*
G01*
X118110000Y-53848000D02*
G75*
G03*
X117856000Y-54102000I0J-254000D01*
G01*
X135127986Y-53848014D02*
G75*
G03*
X132061949Y-52578000I-3066086J-3066086D01*
G01*
X94995995Y-56641995D02*
G75*
G02*
X93864217Y-57110800I-1131795J1131795D01*
G01*
X153691868Y-59965858D02*
G75*
G02*
X154297500Y-61428000I-1462168J-1462142D01*
G01*
X137039013Y-57252300D02*
G75*
G03*
X135983077Y-54703077I-3605113J0D01*
G01*
X151808657Y-47400000D02*
G75*
G03*
X154297500Y-44911157I43J2488800D01*
G01*
X137039005Y-57252305D02*
G75*
G02*
X137899184Y-56896000I860195J-860195D01*
G01*
X117855980Y-54864000D02*
G75*
G02*
X116710520Y-56009480I-1145480J0D01*
G01*
X121203293Y-53040703D02*
G75*
G02*
X119254312Y-53848000I-1948993J1949003D01*
G01*
X122320275Y-52577995D02*
G75*
G03*
X121203296Y-53040706I25J-1579605D01*
G01*
X123494811Y-100025200D02*
G75*
G03*
X120943089Y-97473489I-2551711J0D01*
G01*
X149352000Y-56895985D02*
G75*
G02*
X151520026Y-57794026I0J-3066015D01*
G01*
X112332489Y-97648000D02*
G75*
G02*
X112507011Y-97473489I174511J0D01*
G01*
X96523038Y-56009496D02*
G75*
G03*
X94996000Y-56642000I-38J-2159504D01*
G01*
X118668800Y-97485200D02*
G75*
G02*
X121912500Y-100728900I0J-3243700D01*
G01*
X78394411Y-52704996D02*
G75*
G02*
X81802799Y-54116802I-11J-4820204D01*
G01*
X84627337Y-53340000D02*
X119107968Y-53340000D01*
X173347500Y-89368000D02*
X173347500Y-88307980D01*
X67922500Y-51435000D02*
X80028322Y-51435000D01*
X155829000Y-49450627D02*
X155829000Y-49657000D01*
X155829000Y-47857478D02*
X155829000Y-49276000D01*
X53975000Y-50165000D02*
X64822549Y-50165000D01*
X122174000Y-52070000D02*
X133537625Y-52070000D01*
X162200000Y-83000000D02*
X168039520Y-83000000D01*
X155856144Y-49423483D02*
X155829000Y-49450627D01*
X169300000Y-75600000D02*
X161600000Y-75600000D01*
X161698592Y-83000000D02*
X162200000Y-83000000D01*
X170298279Y-46893479D02*
X156792999Y-46893479D01*
X173347500Y-51268000D02*
X173347500Y-49942700D01*
X136989949Y-53500000D02*
X151986000Y-53500000D01*
X173347500Y-70318000D02*
X173347500Y-71552500D01*
X159100000Y-78100000D02*
X159100000Y-79900000D01*
X84627337Y-53339978D02*
G75*
G02*
X81948233Y-52230233I-37J3788678D01*
G01*
X136989949Y-53499979D02*
G75*
G02*
X135300000Y-52800000I-49J2389879D01*
G01*
X155828979Y-47857478D02*
G75*
G02*
X156792999Y-46893479I964021J-22D01*
G01*
X135299993Y-52800007D02*
G75*
G03*
X133537625Y-52070000I-1762393J-1762393D01*
G01*
X155829000Y-49657000D02*
G75*
G02*
X151986000Y-53500000I-3843000J0D01*
G01*
X170298279Y-46893500D02*
G75*
G02*
X173347500Y-49942700I21J-3049200D01*
G01*
X121037550Y-52540756D02*
G75*
G02*
X119107968Y-53340000I-1929550J1929556D01*
G01*
X173347500Y-88307980D02*
G75*
G03*
X168039520Y-83000000I-5308000J-20D01*
G01*
X122174000Y-52069999D02*
G75*
G03*
X121037534Y-52540740I0J-1607201D01*
G01*
X161698592Y-82999955D02*
G75*
G03*
X158898655Y-85799937I8J-2799945D01*
G01*
X162200000Y-83000000D02*
G75*
G02*
X159100000Y-79900000I0J3100000D01*
G01*
X67888586Y-51435014D02*
G75*
G03*
X64822549Y-50165000I-3066086J-3066086D01*
G01*
X159100000Y-78100000D02*
G75*
G02*
X161600000Y-75600000I2500000J0D01*
G01*
X155856150Y-49423481D02*
G75*
G02*
X155829000Y-49276000I422850J154081D01*
G01*
X169300000Y-75600000D02*
G75*
G03*
X173347500Y-71552500I0J4047500D01*
G01*
X81948219Y-52230247D02*
G75*
G03*
X80028322Y-51435000I-1919919J-1919953D01*
G01*
X119092707Y-52882920D02*
X118882920Y-52882920D01*
X170267160Y-46228000D02*
X156674420Y-46228000D01*
X118882920Y-52882920D02*
X119192708Y-52882920D01*
X181210121Y-94518479D02*
X188022979Y-94518479D01*
X133620489Y-51620489D02*
X121945636Y-51620489D01*
X151200000Y-53000000D02*
X136865685Y-53000000D01*
X86128972Y-52882920D02*
X118882920Y-52882920D01*
X80219400Y-50210348D02*
X80647150Y-50295433D01*
X81852065Y-50794525D02*
X82214694Y-51036826D01*
X120637779Y-52162221D02*
X120500000Y-52300000D01*
X192375379Y-71116079D02*
X192375379Y-69208421D01*
X192397500Y-79843000D02*
X192397500Y-90143958D01*
X80647150Y-50295433D02*
X81064501Y-50422035D01*
X82214694Y-51036826D02*
X82551828Y-51313504D01*
X181250000Y-75478800D02*
X181260321Y-75468479D01*
X181172900Y-94555700D02*
X181210121Y-94518479D01*
X154940000Y-47962420D02*
X154940000Y-49260000D01*
X81467433Y-50588934D02*
X81852065Y-50794525D01*
X79567305Y-50165000D02*
X79785370Y-50167600D01*
X85585989Y-52880676D02*
X85917831Y-52880676D01*
X85917831Y-52880676D02*
X86128972Y-52882920D01*
X188964479Y-65797521D02*
X180670680Y-65797521D01*
X79785370Y-50167600D02*
X80219400Y-50210348D01*
X176657000Y-64135000D02*
X176263236Y-63741236D01*
X81064501Y-50422035D02*
X81467433Y-50588934D01*
X135900000Y-52600000D02*
X135839728Y-52539728D01*
X192397500Y-63326157D02*
X192397500Y-60793000D01*
X82551828Y-51313504D02*
X82707861Y-51465861D01*
X181260321Y-75468479D02*
X188022979Y-75468479D01*
X175006000Y-60706000D02*
X175006000Y-50966840D01*
X69228900Y-50165000D02*
X79567305Y-50165000D01*
X82707861Y-51465861D02*
X82858748Y-51613573D01*
X188964479Y-65797521D02*
X189926136Y-65797521D01*
X82858748Y-51613573D02*
X83182237Y-51885009D01*
X188022979Y-94518500D02*
G75*
G03*
X192397500Y-90143958I21J4374500D01*
G01*
X119092707Y-52882922D02*
G75*
G03*
X120499999Y-52299999I-7J1990222D01*
G01*
X192397521Y-79843000D02*
G75*
G03*
X188022979Y-75468479I-4374521J0D01*
G01*
X120637757Y-52162199D02*
G75*
G02*
X121945636Y-51620489I1307843J-1307901D01*
G01*
X188964479Y-65797521D02*
G75*
G02*
X192375379Y-69208421I21J-3410879D01*
G01*
X192397421Y-63326157D02*
G75*
G02*
X189926136Y-65797521I-2471321J-43D01*
G01*
X188022979Y-75468479D02*
G75*
G03*
X192375379Y-71116079I21J4352379D01*
G01*
X192397521Y-98893000D02*
G75*
G03*
X188022979Y-94518479I-4374521J0D01*
G01*
X151200000Y-53000000D02*
G75*
G03*
X154940000Y-49260000I0J3740000D01*
G01*
X154940009Y-47962420D02*
G75*
G02*
X155448000Y-46736000I1734391J20D01*
G01*
X135900004Y-52599996D02*
G75*
G03*
X136865685Y-53000000I965696J965696D01*
G01*
X170267160Y-46228000D02*
G75*
G02*
X175006000Y-50966840I40J-4738800D01*
G01*
X85585989Y-52880696D02*
G75*
G02*
X83182237Y-51885009I11J3399396D01*
G01*
X175006009Y-60706000D02*
G75*
G03*
X176263237Y-63741235I4292491J0D01*
G01*
X176657006Y-64134994D02*
G75*
G03*
X180670680Y-65797521I4013694J4013694D01*
G01*
X133620489Y-51620507D02*
G75*
G02*
X135839728Y-52539728I11J-3138493D01*
G01*
X155447994Y-46735994D02*
G75*
G02*
X156674420Y-46228000I1226406J-1226406D01*
G01*
X54008900Y-40005000D02*
X64856449Y-40005000D01*
X67922486Y-41275014D02*
G75*
G03*
X64856449Y-40005000I-3066086J-3066086D01*
G01*
X62295052Y-79988000D02*
X57192120Y-79988000D01*
X63365500Y-81447000D02*
X63365500Y-81058448D01*
X76812500Y-34798000D02*
X78462500Y-34798000D01*
X62295052Y-79988000D02*
G75*
G02*
X63365500Y-81058448I48J-1070400D01*
G01*
X56492500Y-79288380D02*
G75*
G03*
X57192120Y-79988000I699600J-20D01*
G01*
X55152120Y-80488000D02*
X61136500Y-80488000D01*
X41507500Y-103378000D02*
X43157500Y-103378000D01*
X43157500Y-103378000D02*
X44807500Y-103378000D01*
X62095500Y-81447000D02*
G75*
G03*
X61136500Y-80488000I-959000J0D01*
G01*
X55152120Y-80488000D02*
G75*
G02*
X53952500Y-79288380I-20J1199600D01*
G01*
D33*
X61729394Y-85598000D02*
X76812500Y-85598000D01*
X58285500Y-81447000D02*
X58285500Y-82154106D01*
X70502880Y-79288380D02*
X59054637Y-79288380D01*
X59054637Y-79288380D02*
X59029757Y-79263500D01*
X70502880Y-79288400D02*
G75*
G02*
X76812500Y-85598000I20J-6309600D01*
G01*
X61729394Y-85598000D02*
G75*
G02*
X58285500Y-82154106I6J3443900D01*
G01*
D34*
X190662853Y-107149746D02*
X191164244Y-106648355D01*
X187920000Y-107430000D02*
X189836030Y-107430000D01*
X190662844Y-107149735D02*
G75*
G02*
X189865000Y-107441999I-800944J951335D01*
G01*
X50765481Y-124460064D02*
X50765481Y-124748639D01*
X63590577Y-107570697D02*
X63588886Y-107569006D01*
X52972217Y-126617212D02*
X52974005Y-126619000D01*
X64587428Y-107570697D02*
X63590577Y-107570697D01*
X66052019Y-109854936D02*
X66052019Y-109512042D01*
X51962973Y-126617212D02*
X52972217Y-126617212D01*
X65405012Y-107949988D02*
G75*
G02*
X66052019Y-109512042I-1562012J-1562012D01*
G01*
X51435011Y-126364989D02*
G75*
G02*
X50765481Y-124748639I1616389J1616389D01*
G01*
X51962971Y-126617233D02*
G75*
G02*
X51435000Y-126365000I97529J882833D01*
G01*
X64587429Y-107570685D02*
G75*
G02*
X65404999Y-107950001I-113329J-1315015D01*
G01*
X69723000Y-117729000D02*
X71700847Y-117729000D01*
X67252981Y-115258981D02*
X67252981Y-114935064D01*
X82423000Y-110239739D02*
X82423000Y-105537000D01*
X85173420Y-102235000D02*
X90170000Y-102235000D01*
X83321026Y-103368975D02*
X83947000Y-102743000D01*
X90572790Y-101832210D02*
X90170000Y-102235000D01*
X93385000Y-101485000D02*
X91468970Y-101485000D01*
X80899001Y-113919001D02*
G75*
G02*
X71700847Y-117729000I-9198151J9198151D01*
G01*
X85173420Y-102235009D02*
G75*
G03*
X83947000Y-102743000I-20J-1734391D01*
G01*
X90572794Y-101832214D02*
G75*
G02*
X91440000Y-101473000I867206J-867186D01*
G01*
X83321036Y-103368985D02*
G75*
G03*
X82423000Y-105537000I2167964J-2168015D01*
G01*
X67253000Y-115258981D02*
G75*
G03*
X69723000Y-117729000I2470000J-19D01*
G01*
X82423015Y-110239739D02*
G75*
G02*
X80898999Y-113918999I-5203315J39D01*
G01*
X98385000Y-102985000D02*
X100301030Y-102985000D01*
X87670000Y-92595000D02*
X85753970Y-92595000D01*
X84857790Y-92942210D02*
X84455000Y-93345000D01*
X101127853Y-102704746D02*
X101629244Y-102203355D01*
X101127844Y-102704735D02*
G75*
G02*
X100330000Y-102996999I-800944J951335D01*
G01*
X84857794Y-92942214D02*
G75*
G02*
X85725000Y-92583000I867206J-867186D01*
G01*
X84857790Y-73892210D02*
X84455000Y-74295000D01*
X87670000Y-73545000D02*
X85753970Y-73545000D01*
X95412853Y-93814746D02*
X95914244Y-93313355D01*
X92670000Y-94095000D02*
X94586030Y-94095000D01*
X84857794Y-73892214D02*
G75*
G02*
X85725000Y-73533000I867206J-867186D01*
G01*
X95412844Y-93814735D02*
G75*
G02*
X94615000Y-94106999I-800944J951335D01*
G01*
X95412853Y-74764746D02*
X95914244Y-74263355D01*
X87670000Y-54495000D02*
X85753970Y-54495000D01*
X84857790Y-54842210D02*
X84455000Y-55245000D01*
X92670000Y-75045000D02*
X94586030Y-75045000D01*
X84857794Y-54842214D02*
G75*
G02*
X85725000Y-54483000I867206J-867186D01*
G01*
X85725009Y-54482991D02*
G75*
G03*
X85753970Y-54495000I28991J28991D01*
G01*
X95412844Y-74764735D02*
G75*
G02*
X94615000Y-75056999I-800944J951335D01*
G01*
X92670000Y-55995000D02*
X94586030Y-55995000D01*
X95914244Y-55213355D02*
X95914244Y-55192127D01*
X103907790Y-49762210D02*
X103505000Y-50165000D01*
X106720000Y-49415000D02*
X104803970Y-49415000D01*
X95412853Y-55714746D02*
X95914244Y-55213355D01*
X95412844Y-55714735D02*
G75*
G02*
X94615000Y-56006999I-800944J951335D01*
G01*
X103907794Y-49762214D02*
G75*
G02*
X104775000Y-49403000I867206J-867186D01*
G01*
X94614991Y-56007009D02*
G75*
G03*
X94586030Y-55995000I-28991J-28991D01*
G01*
X114462853Y-50634746D02*
X114964244Y-50133355D01*
X111720000Y-50915000D02*
X113636030Y-50915000D01*
X103907790Y-68812210D02*
X103505000Y-69215000D01*
X106720000Y-68465000D02*
X104803970Y-68465000D01*
X103907794Y-68812214D02*
G75*
G02*
X104775000Y-68453000I867206J-867186D01*
G01*
X114462844Y-50634735D02*
G75*
G02*
X113665000Y-50926999I-800944J951335D01*
G01*
X111720000Y-89015000D02*
X113636030Y-89015000D01*
X120015000Y-99060000D02*
X120424302Y-99469302D01*
X120742500Y-102275000D02*
X120742500Y-100237500D01*
X114462853Y-88734746D02*
X114964244Y-88233355D01*
X114462844Y-88734735D02*
G75*
G02*
X113665000Y-89026999I-800944J951335D01*
G01*
X120742498Y-100237500D02*
G75*
G03*
X120424301Y-99469303I-1086398J0D01*
G01*
X119437799Y-109910489D02*
X120013811Y-110486501D01*
X120013811Y-110486501D02*
X120013811Y-110488364D01*
X122957790Y-83417210D02*
X122555000Y-83820000D01*
X119242500Y-107275000D02*
X119242500Y-109357500D01*
X119242000Y-107148000D02*
X119242000Y-107933900D01*
X119242000Y-107933900D02*
X119242500Y-107933400D01*
X125770000Y-83070000D02*
X123853970Y-83070000D01*
X119437797Y-109910491D02*
G75*
G02*
X119242501Y-109357500I696303J556891D01*
G01*
X122957794Y-83417214D02*
G75*
G02*
X123825000Y-83058000I867206J-867186D01*
G01*
X130770000Y-84570000D02*
X132686030Y-84570000D01*
X133512853Y-84289746D02*
X134014244Y-83788355D01*
X122957790Y-64367210D02*
X122555000Y-64770000D01*
X125770000Y-64020000D02*
X123853970Y-64020000D01*
X130770000Y-84570000D02*
X130747500Y-84570000D01*
X133512844Y-84289735D02*
G75*
G02*
X132715000Y-84581999I-800944J951335D01*
G01*
X122957794Y-64367214D02*
G75*
G02*
X123825000Y-64008000I867206J-867186D01*
G01*
X123027147Y-45250254D02*
X122605612Y-45671789D01*
X125770000Y-44970000D02*
X123853970Y-44970000D01*
X130770000Y-65520000D02*
X132686030Y-65520000D01*
X122605612Y-45671789D02*
X122605612Y-45804987D01*
X133512853Y-65239746D02*
X134014244Y-64738355D01*
X133512844Y-65239735D02*
G75*
G02*
X132715000Y-65531999I-800944J951335D01*
G01*
X123027156Y-45250265D02*
G75*
G02*
X123825000Y-44958001I800944J-951335D01*
G01*
X130770000Y-46470000D02*
X130747500Y-46470000D01*
X144820000Y-49415000D02*
X142903970Y-49415000D01*
X140886579Y-48430579D02*
X139192000Y-46736000D01*
X130770000Y-46470000D02*
X132686030Y-46470000D01*
X133997183Y-45722630D02*
X133989221Y-45730592D01*
X133512853Y-46189746D02*
X134014244Y-45688355D01*
X142007790Y-49762210D02*
X141605000Y-50165000D01*
X136933818Y-45722630D02*
X133997183Y-45722630D01*
X140886571Y-48430587D02*
G75*
G02*
X141605000Y-50165000I-1734371J-1734413D01*
G01*
X142007794Y-49762214D02*
G75*
G02*
X142875000Y-49403000I867206J-867186D01*
G01*
X133512844Y-46189735D02*
G75*
G02*
X132715000Y-46481999I-800944J951335D01*
G01*
X136933816Y-45722657D02*
G75*
G02*
X139192000Y-46736000I-207116J-3484343D01*
G01*
X152562853Y-50634746D02*
X153064244Y-50133355D01*
X142007790Y-68812210D02*
X141605000Y-69215000D01*
X144820000Y-68465000D02*
X142903970Y-68465000D01*
X149820000Y-50915000D02*
X151736030Y-50915000D01*
X152562844Y-50634735D02*
G75*
G02*
X151765000Y-50926999I-800944J951335D01*
G01*
X142007794Y-68812214D02*
G75*
G02*
X142875000Y-68453000I867206J-867186D01*
G01*
X149820000Y-69965000D02*
X151736030Y-69965000D01*
X141834846Y-87957845D02*
X141576920Y-88215772D01*
X144820000Y-87515000D02*
X142903970Y-87515000D01*
X152562853Y-69684746D02*
X153064244Y-69183355D01*
X152562844Y-69684735D02*
G75*
G02*
X151765000Y-69976999I-800944J951335D01*
G01*
X141834855Y-87957854D02*
G75*
G02*
X142903970Y-87515000I1069145J-1069146D01*
G01*
X161057790Y-96752210D02*
X160655000Y-97155000D01*
X149820000Y-89015000D02*
X149797500Y-89015000D01*
X149820000Y-89015000D02*
X151736030Y-89015000D01*
X152562853Y-88734746D02*
X153064244Y-88233355D01*
X163870000Y-96405000D02*
X161953970Y-96405000D01*
X161057794Y-96752214D02*
G75*
G02*
X161925000Y-96393000I867206J-867186D01*
G01*
X152562844Y-88734735D02*
G75*
G02*
X151765000Y-89026999I-800944J951335D01*
G01*
X161057790Y-77702210D02*
X160655000Y-78105000D01*
X163870000Y-77355000D02*
X161953970Y-77355000D01*
X168870000Y-97905000D02*
X170786030Y-97905000D01*
X171612853Y-97624746D02*
X172114244Y-97123355D01*
X171612844Y-97624735D02*
G75*
G02*
X170815000Y-97916999I-800944J951335D01*
G01*
X161057794Y-77702214D02*
G75*
G02*
X161925000Y-77343000I867206J-867186D01*
G01*
X168870000Y-78855000D02*
X170786030Y-78855000D01*
X168870000Y-78855000D02*
X168847500Y-78855000D01*
X171612853Y-78574746D02*
X172114244Y-78073355D01*
X163870000Y-58305000D02*
X161953970Y-58305000D01*
X161057790Y-58652210D02*
X160655000Y-59055000D01*
X161057794Y-58652214D02*
G75*
G02*
X161925000Y-58293000I867206J-867186D01*
G01*
X171612844Y-78574735D02*
G75*
G02*
X170815000Y-78866999I-800944J951335D01*
G01*
X171612853Y-59524746D02*
X172114244Y-59023355D01*
X168870000Y-59805000D02*
X168847500Y-59805000D01*
X179705000Y-68580000D02*
X180107790Y-68177210D01*
X182920000Y-67830000D02*
X181003970Y-67830000D01*
X168870000Y-59805000D02*
X170786030Y-59805000D01*
X180107794Y-68177214D02*
G75*
G02*
X180975000Y-67818000I867206J-867186D01*
G01*
X171612844Y-59524735D02*
G75*
G02*
X170815000Y-59816999I-800944J951335D01*
G01*
X182920000Y-86880000D02*
X181003970Y-86880000D01*
X190662853Y-69049746D02*
X191164244Y-68548355D01*
X180107790Y-87227210D02*
X179705000Y-87630000D01*
X187920000Y-69330000D02*
X189836030Y-69330000D01*
X190662844Y-69049735D02*
G75*
G02*
X189865000Y-69341999I-800944J951335D01*
G01*
X180107794Y-87227214D02*
G75*
G02*
X180975000Y-86868000I867206J-867186D01*
G01*
X106720000Y-87515000D02*
X104803970Y-87515000D01*
X111720000Y-69965000D02*
X113636030Y-69965000D01*
X114462853Y-69684746D02*
X114964244Y-69183355D01*
X103907790Y-87862210D02*
X103505000Y-88265000D01*
X103907794Y-87862214D02*
G75*
G02*
X104775000Y-87503000I867206J-867186D01*
G01*
X114462844Y-69684735D02*
G75*
G02*
X113665000Y-69976999I-800944J951335D01*
G01*
X190662853Y-88099746D02*
X191164244Y-87598355D01*
X187920000Y-88380000D02*
X187897500Y-88380000D01*
X187920000Y-88380000D02*
X189836030Y-88380000D01*
X180107790Y-106277210D02*
X179705000Y-106680000D01*
X182920000Y-105930000D02*
X181003970Y-105930000D01*
X180107794Y-106277214D02*
G75*
G02*
X180975000Y-105918000I867206J-867186D01*
G01*
X190662844Y-88099735D02*
G75*
G02*
X189865000Y-88391999I-800944J951335D01*
G01*
X53975000Y-47625000D02*
X64822549Y-47625000D01*
X67888586Y-48895014D02*
G75*
G03*
X64822549Y-47625000I-3066086J-3066086D01*
G01*
X53975000Y-45085000D02*
X64822549Y-45085000D01*
X67888586Y-46355014D02*
G75*
G03*
X64822549Y-45085000I-3066086J-3066086D01*
G01*
X54008900Y-34925000D02*
X64856449Y-34925000D01*
X67922486Y-36195014D02*
G75*
G03*
X64856449Y-34925000I-3066086J-3066086D01*
G01*
X69228900Y-57785000D02*
X76090995Y-57785000D01*
X76090995Y-57785003D02*
G75*
G02*
X78299999Y-58700001I5J-3123997D01*
G01*
X67922500Y-59055000D02*
X74735207Y-59055000D01*
X53975000Y-57785000D02*
X64822549Y-57785000D01*
X76758798Y-59893202D02*
G75*
G03*
X74735207Y-59055000I-2023598J-2023598D01*
G01*
X67888586Y-59055014D02*
G75*
G03*
X64822549Y-57785000I-3066086J-3066086D01*
G01*
M02*
