M48
; DRILL file {KiCad (6.0.5-0)} date 
; FORMAT={-:-/ absolute / metric / decimal}
; #@! TF.CreationDate,2022-10-31T01:20:13+09:00
; #@! TF.GenerationSoftware,Kicad,Pcbnew,(6.0.5-0)
; #@! TF.FileFunction,MixedPlating,1,2
FMAT,2
METRIC
; #@! TA.AperFunction,Plated,PTH,ViaDrill
T1C0.400
; #@! TA.AperFunction,Plated,PTH,ComponentDrill
T2C0.400
; #@! TA.AperFunction,Plated,PTH,ComponentDrill
T3C0.500
; #@! TA.AperFunction,Plated,PTH,ComponentDrill
T4C0.650
; #@! TA.AperFunction,Plated,PTH,ComponentDrill
T5C0.813
; #@! TA.AperFunction,Plated,PTH,ComponentDrill
T6C0.850
; #@! TA.AperFunction,Plated,PTH,ComponentDrill
T7C0.990
; #@! TA.AperFunction,Plated,PTH,ComponentDrill
T8C1.300
; #@! TA.AperFunction,Plated,PTH,ComponentDrill
T9C2.200
; #@! TA.AperFunction,NonPlated,NPTH,ComponentDrill
T10C1.200
; #@! TA.AperFunction,NonPlated,NPTH,ComponentDrill
T11C1.900
; #@! TA.AperFunction,NonPlated,NPTH,ComponentDrill
T12C2.000
; #@! TA.AperFunction,NonPlated,NPTH,ComponentDrill
T13C3.000
; #@! TA.AperFunction,NonPlated,NPTH,ComponentDrill
T14C4.100
; #@! TA.AperFunction,NonPlated,NPTH,ComponentDrill
T15C4.800
%
G90
G05
T1
X47.371Y-116.967
X47.879Y-117.983
X51.435Y-119.38
X51.816Y-106.807
X52.175Y-125.355
X52.974Y-126.619
X53.953Y-79.288
X54.864Y-105.029
X56.492Y-79.288
X59.03Y-79.263
X63.5Y-117.475
X63.589Y-107.569
X64.389Y-108.585
X68.326Y-97.282
X68.951Y-116.461
X69.723Y-117.729
X71.374Y-95.504
X76.759Y-59.893
X77.668Y-106.198
X78.3Y-58.7
X80.137Y-57.277
X80.645Y-40.64
X80.645Y-44.196
X80.645Y-59.69
X80.645Y-63.246
X80.645Y-78.613
X80.645Y-82.169
X82.5Y-43.9
X84.455Y-55.245
X84.455Y-74.295
X84.455Y-93.345
X85.725Y-55.245
X85.725Y-74.295
X85.725Y-93.345
X86.36Y-100.33
X86.36Y-103.886
X90.17Y-102.235
X90.2Y-81.1
X91.44Y-102.235
X94.615Y-55.245
X94.615Y-74.295
X94.615Y-93.345
X95.885Y-74.295
X95.898Y-93.313
X95.914Y-55.192
X98.933Y-75.168
X99.695Y-35.433
X99.695Y-38.989
X99.695Y-54.61
X99.695Y-58.166
X99.695Y-73.66
X99.695Y-77.216
X100.33Y-102.235
X101.6Y-102.235
X101.905Y-64.719
X102.235Y-92.043
X103.505Y-50.165
X103.505Y-69.215
X103.505Y-88.265
X103.505Y-107.95
X104.775Y-50.165
X104.775Y-69.215
X104.775Y-88.265
X105.41Y-100.33
X105.41Y-103.886
X113.665Y-50.165
X113.665Y-69.215
X113.665Y-88.265
X114.3Y-57.226
X114.874Y-50.148
X114.935Y-69.215
X114.935Y-88.265
X115.464Y-57.258
X116.197Y-43.942
X117.114Y-54.343
X118.745Y-32.385
X118.745Y-35.941
X118.745Y-51.308
X118.745Y-54.864
X118.745Y-70.485
X118.745Y-74.041
X119.3Y-91.4
X120.014Y-110.488
X120.015Y-99.06
X120.015Y-100.33
X120.015Y-109.22
X120.904Y-42.926
X121.247Y-61.99
X122.555Y-64.77
X122.555Y-83.82
X122.606Y-45.805
X123.495Y-111.455
X123.825Y-45.72
X123.825Y-64.77
X123.825Y-83.82
X132.715Y-45.72
X132.715Y-64.77
X132.715Y-80.899
X132.715Y-83.82
X133.985Y-64.77
X133.985Y-83.82
X133.989Y-45.731
X137.039Y-57.252
X137.795Y-36.195
X137.795Y-39.751
X137.795Y-55.245
X137.795Y-58.801
X137.795Y-74.295
X137.795Y-77.851
X141.577Y-88.216
X141.605Y-50.165
X141.605Y-69.215
X142.875Y-50.165
X142.875Y-69.215
X142.875Y-88.265
X151.7Y-47.4
X151.765Y-50.165
X151.765Y-69.215
X151.765Y-88.265
X153.035Y-50.165
X153.035Y-69.215
X153.035Y-88.265
X153.67Y-56.515
X155.829Y-49.657
X156.845Y-45.085
X156.845Y-48.641
X156.845Y-64.135
X156.845Y-67.691
X156.845Y-83.185
X156.845Y-86.741
X158.899Y-85.8
X160.655Y-59.055
X160.655Y-78.105
X160.678Y-97.155
X161.6Y-75.6
X161.925Y-59.055
X161.925Y-78.105
X161.948Y-97.155
X170.815Y-59.055
X170.815Y-78.105
X170.838Y-97.155
X172.085Y-59.055
X172.085Y-78.105
X172.108Y-97.155
X175.006Y-60.706
X175.895Y-54.61
X175.895Y-58.166
X175.895Y-73.66
X175.895Y-77.216
X175.895Y-92.71
X175.895Y-96.266
X179.705Y-68.58
X179.705Y-87.63
X179.705Y-106.68
X180.975Y-68.58
X180.975Y-87.63
X180.975Y-106.68
X181.173Y-94.556
X181.25Y-75.479
X188.7Y-74.6
X189.865Y-68.58
X189.865Y-87.63
X189.865Y-106.68
X191.135Y-68.58
X191.135Y-87.63
X191.135Y-106.68
T2
X41.508Y-34.798
X41.508Y-103.378
X41.991Y-33.631
X41.991Y-35.965
X41.991Y-102.211
X41.991Y-104.545
X43.157Y-33.148
X43.157Y-36.448
X43.157Y-101.728
X43.157Y-105.028
X44.324Y-33.631
X44.324Y-35.965
X44.324Y-102.211
X44.324Y-104.545
X44.807Y-34.798
X44.807Y-103.378
X75.162Y-34.798
X75.162Y-85.598
X75.646Y-33.631
X75.646Y-35.965
X75.646Y-84.431
X75.646Y-86.765
X76.812Y-33.148
X76.812Y-36.448
X76.812Y-83.948
X76.812Y-87.248
X77.979Y-33.631
X77.979Y-35.965
X77.979Y-84.431
X77.979Y-86.765
X78.462Y-34.798
X78.462Y-85.598
T4
X58.285Y-81.447
X59.555Y-81.447
X60.825Y-81.447
X62.095Y-81.447
X63.365Y-81.447
T5
X52.682Y-36.195
X52.682Y-38.735
X52.682Y-41.275
X52.682Y-43.815
X52.682Y-46.355
X52.682Y-48.895
X52.682Y-51.435
X52.682Y-53.975
X52.682Y-56.515
X52.682Y-59.055
X52.682Y-61.595
X52.682Y-64.135
X54.009Y-34.925
X54.009Y-37.465
X54.009Y-40.005
X54.009Y-42.545
X54.009Y-45.085
X54.009Y-47.625
X54.009Y-50.165
X54.009Y-52.705
X54.009Y-55.245
X54.009Y-57.785
X54.009Y-60.325
X54.009Y-62.865
X67.922Y-36.195
X67.922Y-38.735
X67.922Y-41.275
X67.922Y-43.815
X67.922Y-46.355
X67.922Y-48.895
X67.922Y-51.435
X67.922Y-53.975
X67.922Y-56.515
X67.922Y-59.055
X67.922Y-61.595
X67.922Y-64.135
X69.229Y-34.925
X69.229Y-37.465
X69.229Y-40.005
X69.229Y-42.545
X69.229Y-45.085
X69.229Y-47.625
X69.229Y-50.165
X69.229Y-52.705
X69.229Y-55.245
X69.229Y-57.785
X69.229Y-60.325
X69.229Y-62.865
T6
X53.967Y-74.843
X56.508Y-74.843
X59.047Y-74.843
X61.587Y-74.843
X64.127Y-74.843
T7
X42.142Y-50.618
X42.142Y-55.118
T8
X44.631Y-49.358
X44.631Y-56.368
T9
X43.157Y-34.798
X43.157Y-103.378
X76.812Y-34.798
X76.812Y-85.598
T10
X40.847Y-70.358
X40.847Y-72.108
X47.847Y-70.358
X47.847Y-72.108
T11
X52.047Y-114.854
X57.127Y-123.652
X68.557Y-105.329
X73.638Y-114.127
X85.067Y-50.038
X85.067Y-69.088
X85.067Y-88.138
X90.782Y-107.188
X95.227Y-50.038
X95.227Y-69.088
X95.227Y-88.138
X100.942Y-107.188
X104.117Y-44.958
X104.117Y-64.008
X104.117Y-83.058
X114.277Y-44.958
X114.277Y-64.008
X114.277Y-83.058
X114.912Y-99.568
X114.912Y-109.728
X123.167Y-40.513
X123.167Y-59.563
X123.167Y-78.613
X133.327Y-40.513
X133.327Y-59.563
X133.327Y-78.613
X142.218Y-44.958
X142.218Y-64.008
X142.218Y-83.058
X152.377Y-44.958
X152.377Y-64.008
X152.377Y-83.058
X161.267Y-53.848
X161.267Y-72.898
X161.267Y-91.948
X171.427Y-53.848
X171.427Y-72.898
X171.427Y-91.948
X180.317Y-63.373
X180.317Y-82.423
X180.317Y-101.473
X190.477Y-63.373
X190.477Y-82.423
X190.477Y-101.473
T13
X54.882Y-114.683
X57.717Y-114.513
X58.692Y-121.283
X60.257Y-118.913
X71.392Y-105.158
X74.227Y-104.988
X75.202Y-111.758
X76.767Y-109.388
X86.337Y-47.498
X86.337Y-66.548
X86.337Y-85.598
X87.608Y-44.958
X87.608Y-64.008
X87.608Y-83.058
X92.052Y-109.728
X92.688Y-44.958
X92.688Y-64.008
X92.688Y-83.058
X93.322Y-112.268
X93.957Y-47.498
X93.957Y-66.548
X93.957Y-85.598
X98.402Y-112.268
X99.672Y-109.728
X105.387Y-42.418
X105.387Y-61.468
X105.387Y-80.518
X106.657Y-39.878
X106.657Y-58.928
X106.657Y-77.978
X109.832Y-102.108
X109.832Y-107.188
X111.737Y-39.878
X111.737Y-58.928
X111.737Y-77.978
X112.372Y-100.838
X112.372Y-108.458
X113.007Y-42.418
X113.007Y-61.468
X113.007Y-80.518
X124.438Y-37.973
X124.438Y-57.023
X124.438Y-76.073
X125.707Y-35.433
X125.707Y-54.483
X125.707Y-73.533
X130.787Y-35.433
X130.787Y-54.483
X130.787Y-73.533
X132.058Y-37.973
X132.058Y-57.023
X132.058Y-76.073
X143.487Y-42.418
X143.487Y-61.468
X143.487Y-80.518
X144.757Y-39.878
X144.757Y-58.928
X144.757Y-77.978
X149.838Y-39.878
X149.838Y-58.928
X149.838Y-77.978
X151.107Y-42.418
X151.107Y-61.468
X151.107Y-80.518
X162.537Y-51.308
X162.537Y-70.358
X162.537Y-89.408
X163.808Y-48.768
X163.808Y-67.818
X163.808Y-86.868
X168.887Y-48.768
X168.887Y-67.818
X168.887Y-86.868
X170.157Y-51.308
X170.157Y-70.358
X170.157Y-89.408
X181.588Y-60.833
X181.588Y-79.883
X181.588Y-98.933
X182.857Y-58.293
X182.857Y-77.343
X182.857Y-96.393
X187.938Y-58.293
X187.938Y-77.343
X187.938Y-96.393
X189.207Y-60.833
X189.207Y-79.883
X189.207Y-98.933
T14
X54.587Y-119.253
X71.097Y-109.728
X90.147Y-50.038
X90.147Y-69.088
X90.147Y-88.138
X95.862Y-107.188
X109.197Y-44.958
X109.197Y-64.008
X109.197Y-83.058
X114.912Y-104.648
X128.248Y-40.513
X128.248Y-59.563
X128.248Y-78.613
X147.297Y-44.958
X147.297Y-64.008
X147.297Y-83.058
X166.347Y-53.848
X166.347Y-72.898
X166.347Y-91.948
X185.397Y-63.373
X185.397Y-82.423
X185.397Y-101.473
T15
X43.792Y-125.603
X90.147Y-34.798
X185.397Y-46.863
X185.397Y-114.173
T3
G00X42.148Y-68.258
M15
G01X43.148Y-68.258
M16
G05
G00X42.148Y-74.208
M15
G01X43.148Y-74.208
M16
G05
G00X45.148Y-68.258
M15
G01X46.148Y-68.258
M16
G05
G00X45.148Y-74.208
M15
G01X46.148Y-74.208
M16
G05
G00X49.148Y-68.258
M15
G01X50.148Y-68.258
M16
G05
G00X49.148Y-74.208
M15
G01X50.148Y-74.208
M16
G05
G00X50.648Y-70.008
M15
G01X51.648Y-70.008
M16
G05
G00X50.648Y-72.458
M15
G01X51.648Y-72.458
M16
G05
G00X107.412Y-101.898
M15
G01X107.412Y-102.398
M16
G05
G00X107.412Y-104.398
M15
G01X107.412Y-104.898
M16
G05
G00X107.412Y-106.898
M15
G01X107.412Y-107.398
M16
G05
G00X121.912Y-101.898
M15
G01X121.912Y-102.398
M16
G05
G00X121.912Y-106.898
M15
G01X121.912Y-107.398
M16
G05
T12
G00X114.662Y-99.048
M15
G01X115.162Y-99.048
M16
G05
G00X114.662Y-110.248
M15
G01X115.162Y-110.248
M16
G05
T0
M30
