%TF.GenerationSoftware,KiCad,Pcbnew,(6.0.5-0)*%
%TF.CreationDate,2022-10-31T01:20:07+09:00*%
%TF.ProjectId,silverbullet44,73696c76-6572-4627-956c-6c657434342e,rev?*%
%TF.SameCoordinates,Original*%
%TF.FileFunction,Legend,Top*%
%TF.FilePolarity,Positive*%
%FSLAX46Y46*%
G04 Gerber Fmt 4.6, Leading zero omitted, Abs format (unit mm)*
G04 Created by KiCad (PCBNEW (6.0.5-0)) date 2022-10-31 01:20:07*
%MOMM*%
%LPD*%
G01*
G04 APERTURE LIST*
%ADD10C,0.300000*%
%ADD11C,0.150000*%
%ADD12C,0.100000*%
%ADD13C,0.125000*%
%ADD14C,0.120000*%
%ADD15C,1.200000*%
%ADD16O,2.500000X1.250000*%
%ADD17C,1.900000*%
%ADD18C,4.100000*%
%ADD19C,1.524000*%
G04 APERTURE END LIST*
D10*
X58946904Y-60126095D02*
X59065952Y-59768952D01*
X59065952Y-59173714D01*
X58946904Y-58935619D01*
X58827857Y-58816571D01*
X58589761Y-58697523D01*
X58351666Y-58697523D01*
X58113571Y-58816571D01*
X57994523Y-58935619D01*
X57875476Y-59173714D01*
X57756428Y-59649904D01*
X57637380Y-59888000D01*
X57518333Y-60007047D01*
X57280238Y-60126095D01*
X57042142Y-60126095D01*
X56804047Y-60007047D01*
X56685000Y-59888000D01*
X56565952Y-59649904D01*
X56565952Y-59054666D01*
X56685000Y-58697523D01*
X59065952Y-57626095D02*
X57399285Y-57626095D01*
X56565952Y-57626095D02*
X56685000Y-57745142D01*
X56804047Y-57626095D01*
X56685000Y-57507047D01*
X56565952Y-57626095D01*
X56804047Y-57626095D01*
X59065952Y-56078476D02*
X58946904Y-56316571D01*
X58708809Y-56435619D01*
X56565952Y-56435619D01*
X57399285Y-55364190D02*
X59065952Y-54768952D01*
X57399285Y-54173714D01*
X58946904Y-52268952D02*
X59065952Y-52507047D01*
X59065952Y-52983238D01*
X58946904Y-53221333D01*
X58708809Y-53340380D01*
X57756428Y-53340380D01*
X57518333Y-53221333D01*
X57399285Y-52983238D01*
X57399285Y-52507047D01*
X57518333Y-52268952D01*
X57756428Y-52149904D01*
X57994523Y-52149904D01*
X58232619Y-53340380D01*
X59065952Y-51078476D02*
X57399285Y-51078476D01*
X57875476Y-51078476D02*
X57637380Y-50959428D01*
X57518333Y-50840380D01*
X57399285Y-50602285D01*
X57399285Y-50364190D01*
X57756428Y-48697523D02*
X57875476Y-48340380D01*
X57994523Y-48221333D01*
X58232619Y-48102285D01*
X58589761Y-48102285D01*
X58827857Y-48221333D01*
X58946904Y-48340380D01*
X59065952Y-48578476D01*
X59065952Y-49530857D01*
X56565952Y-49530857D01*
X56565952Y-48697523D01*
X56685000Y-48459428D01*
X56804047Y-48340380D01*
X57042142Y-48221333D01*
X57280238Y-48221333D01*
X57518333Y-48340380D01*
X57637380Y-48459428D01*
X57756428Y-48697523D01*
X57756428Y-49530857D01*
X57399285Y-45959428D02*
X59065952Y-45959428D01*
X57399285Y-47030857D02*
X58708809Y-47030857D01*
X58946904Y-46911809D01*
X59065952Y-46673714D01*
X59065952Y-46316571D01*
X58946904Y-46078476D01*
X58827857Y-45959428D01*
X59065952Y-44411809D02*
X58946904Y-44649904D01*
X58708809Y-44768952D01*
X56565952Y-44768952D01*
X59065952Y-43102285D02*
X58946904Y-43340380D01*
X58708809Y-43459428D01*
X56565952Y-43459428D01*
X58946904Y-41197523D02*
X59065952Y-41435619D01*
X59065952Y-41911809D01*
X58946904Y-42149904D01*
X58708809Y-42268952D01*
X57756428Y-42268952D01*
X57518333Y-42149904D01*
X57399285Y-41911809D01*
X57399285Y-41435619D01*
X57518333Y-41197523D01*
X57756428Y-41078476D01*
X57994523Y-41078476D01*
X58232619Y-42268952D01*
X57399285Y-40364190D02*
X57399285Y-39411809D01*
X56565952Y-40007047D02*
X58708809Y-40007047D01*
X58946904Y-39888000D01*
X59065952Y-39649904D01*
X59065952Y-39411809D01*
X63090952Y-63518952D02*
X60590952Y-63518952D01*
X63090952Y-62090380D01*
X60590952Y-62090380D01*
X63090952Y-60542761D02*
X62971904Y-60780857D01*
X62852857Y-60899904D01*
X62614761Y-61018952D01*
X61900476Y-61018952D01*
X61662380Y-60899904D01*
X61543333Y-60780857D01*
X61424285Y-60542761D01*
X61424285Y-60185619D01*
X61543333Y-59947523D01*
X61662380Y-59828476D01*
X61900476Y-59709428D01*
X62614761Y-59709428D01*
X62852857Y-59828476D01*
X62971904Y-59947523D01*
X63090952Y-60185619D01*
X63090952Y-60542761D01*
X62971904Y-57566571D02*
X63090952Y-57804666D01*
X63090952Y-58280857D01*
X62971904Y-58518952D01*
X62852857Y-58638000D01*
X62614761Y-58757047D01*
X61900476Y-58757047D01*
X61662380Y-58638000D01*
X61543333Y-58518952D01*
X61424285Y-58280857D01*
X61424285Y-57804666D01*
X61543333Y-57566571D01*
X63090952Y-56495142D02*
X60590952Y-56495142D01*
X62138571Y-56257047D02*
X63090952Y-55542761D01*
X61424285Y-55542761D02*
X62376666Y-56495142D01*
X61424285Y-54828476D02*
X61424285Y-53876095D01*
X60590952Y-54471333D02*
X62733809Y-54471333D01*
X62971904Y-54352285D01*
X63090952Y-54114190D01*
X63090952Y-53876095D01*
X61424285Y-51971333D02*
X63090952Y-51971333D01*
X61424285Y-53042761D02*
X62733809Y-53042761D01*
X62971904Y-52923714D01*
X63090952Y-52685619D01*
X63090952Y-52328476D01*
X62971904Y-52090380D01*
X62852857Y-51971333D01*
X63090952Y-50780857D02*
X61424285Y-50780857D01*
X61900476Y-50780857D02*
X61662380Y-50661809D01*
X61543333Y-50542761D01*
X61424285Y-50304666D01*
X61424285Y-50066571D01*
X61424285Y-49233238D02*
X63090952Y-49233238D01*
X61662380Y-49233238D02*
X61543333Y-49114190D01*
X61424285Y-48876095D01*
X61424285Y-48518952D01*
X61543333Y-48280857D01*
X61781428Y-48161809D01*
X63090952Y-48161809D01*
X62971904Y-46018952D02*
X63090952Y-46257047D01*
X63090952Y-46733238D01*
X62971904Y-46971333D01*
X62733809Y-47090380D01*
X61781428Y-47090380D01*
X61543333Y-46971333D01*
X61424285Y-46733238D01*
X61424285Y-46257047D01*
X61543333Y-46018952D01*
X61781428Y-45899904D01*
X62019523Y-45899904D01*
X62257619Y-47090380D01*
X61424285Y-43161809D02*
X63090952Y-42566571D01*
X61424285Y-41971333D01*
X60590952Y-40542761D02*
X60590952Y-40304666D01*
X60710000Y-40066571D01*
X60829047Y-39947523D01*
X61067142Y-39828476D01*
X61543333Y-39709428D01*
X62138571Y-39709428D01*
X62614761Y-39828476D01*
X62852857Y-39947523D01*
X62971904Y-40066571D01*
X63090952Y-40304666D01*
X63090952Y-40542761D01*
X62971904Y-40780857D01*
X62852857Y-40899904D01*
X62614761Y-41018952D01*
X62138571Y-41138000D01*
X61543333Y-41138000D01*
X61067142Y-41018952D01*
X60829047Y-40899904D01*
X60710000Y-40780857D01*
X60590952Y-40542761D01*
X62852857Y-38638000D02*
X62971904Y-38518952D01*
X63090952Y-38638000D01*
X62971904Y-38757047D01*
X62852857Y-38638000D01*
X63090952Y-38638000D01*
X60829047Y-37566571D02*
X60710000Y-37447523D01*
X60590952Y-37209428D01*
X60590952Y-36614190D01*
X60710000Y-36376095D01*
X60829047Y-36257047D01*
X61067142Y-36138000D01*
X61305238Y-36138000D01*
X61662380Y-36257047D01*
X63090952Y-37685619D01*
X63090952Y-36138000D01*
D11*
X65999880Y-64302285D02*
X64999880Y-64302285D01*
X64999880Y-63921333D01*
X65047500Y-63826095D01*
X65095119Y-63778476D01*
X65190357Y-63730857D01*
X65333214Y-63730857D01*
X65428452Y-63778476D01*
X65476071Y-63826095D01*
X65523690Y-63921333D01*
X65523690Y-64302285D01*
X65904642Y-62730857D02*
X65952261Y-62778476D01*
X65999880Y-62921333D01*
X65999880Y-63016571D01*
X65952261Y-63159428D01*
X65857023Y-63254666D01*
X65761785Y-63302285D01*
X65571309Y-63349904D01*
X65428452Y-63349904D01*
X65237976Y-63302285D01*
X65142738Y-63254666D01*
X65047500Y-63159428D01*
X64999880Y-63016571D01*
X64999880Y-62921333D01*
X65047500Y-62778476D01*
X65095119Y-62730857D01*
X65476071Y-61968952D02*
X65523690Y-61826095D01*
X65571309Y-61778476D01*
X65666547Y-61730857D01*
X65809404Y-61730857D01*
X65904642Y-61778476D01*
X65952261Y-61826095D01*
X65999880Y-61921333D01*
X65999880Y-62302285D01*
X64999880Y-62302285D01*
X64999880Y-61968952D01*
X65047500Y-61873714D01*
X65095119Y-61826095D01*
X65190357Y-61778476D01*
X65285595Y-61778476D01*
X65380833Y-61826095D01*
X65428452Y-61873714D01*
X65476071Y-61968952D01*
X65476071Y-62302285D01*
X65999880Y-60540380D02*
X64999880Y-60540380D01*
X64999880Y-60302285D01*
X65047500Y-60159428D01*
X65142738Y-60064190D01*
X65237976Y-60016571D01*
X65428452Y-59968952D01*
X65571309Y-59968952D01*
X65761785Y-60016571D01*
X65857023Y-60064190D01*
X65952261Y-60159428D01*
X65999880Y-60302285D01*
X65999880Y-60540380D01*
X65952261Y-59159428D02*
X65999880Y-59254666D01*
X65999880Y-59445142D01*
X65952261Y-59540380D01*
X65857023Y-59588000D01*
X65476071Y-59588000D01*
X65380833Y-59540380D01*
X65333214Y-59445142D01*
X65333214Y-59254666D01*
X65380833Y-59159428D01*
X65476071Y-59111809D01*
X65571309Y-59111809D01*
X65666547Y-59588000D01*
X65952261Y-58730857D02*
X65999880Y-58635619D01*
X65999880Y-58445142D01*
X65952261Y-58349904D01*
X65857023Y-58302285D01*
X65809404Y-58302285D01*
X65714166Y-58349904D01*
X65666547Y-58445142D01*
X65666547Y-58588000D01*
X65618928Y-58683238D01*
X65523690Y-58730857D01*
X65476071Y-58730857D01*
X65380833Y-58683238D01*
X65333214Y-58588000D01*
X65333214Y-58445142D01*
X65380833Y-58349904D01*
X65999880Y-57873714D02*
X65333214Y-57873714D01*
X64999880Y-57873714D02*
X65047500Y-57921333D01*
X65095119Y-57873714D01*
X65047500Y-57826095D01*
X64999880Y-57873714D01*
X65095119Y-57873714D01*
X65333214Y-56968952D02*
X66142738Y-56968952D01*
X66237976Y-57016571D01*
X66285595Y-57064190D01*
X66333214Y-57159428D01*
X66333214Y-57302285D01*
X66285595Y-57397523D01*
X65952261Y-56968952D02*
X65999880Y-57064190D01*
X65999880Y-57254666D01*
X65952261Y-57349904D01*
X65904642Y-57397523D01*
X65809404Y-57445142D01*
X65523690Y-57445142D01*
X65428452Y-57397523D01*
X65380833Y-57349904D01*
X65333214Y-57254666D01*
X65333214Y-57064190D01*
X65380833Y-56968952D01*
X65333214Y-56492761D02*
X65999880Y-56492761D01*
X65428452Y-56492761D02*
X65380833Y-56445142D01*
X65333214Y-56349904D01*
X65333214Y-56207047D01*
X65380833Y-56111809D01*
X65476071Y-56064190D01*
X65999880Y-56064190D01*
X65952261Y-55207047D02*
X65999880Y-55302285D01*
X65999880Y-55492761D01*
X65952261Y-55588000D01*
X65857023Y-55635619D01*
X65476071Y-55635619D01*
X65380833Y-55588000D01*
X65333214Y-55492761D01*
X65333214Y-55302285D01*
X65380833Y-55207047D01*
X65476071Y-55159428D01*
X65571309Y-55159428D01*
X65666547Y-55635619D01*
X65999880Y-54302285D02*
X64999880Y-54302285D01*
X65952261Y-54302285D02*
X65999880Y-54397523D01*
X65999880Y-54588000D01*
X65952261Y-54683238D01*
X65904642Y-54730857D01*
X65809404Y-54778476D01*
X65523690Y-54778476D01*
X65428452Y-54730857D01*
X65380833Y-54683238D01*
X65333214Y-54588000D01*
X65333214Y-54397523D01*
X65380833Y-54302285D01*
X65999880Y-53064190D02*
X64999880Y-53064190D01*
X65380833Y-53064190D02*
X65333214Y-52968952D01*
X65333214Y-52778476D01*
X65380833Y-52683238D01*
X65428452Y-52635619D01*
X65523690Y-52588000D01*
X65809404Y-52588000D01*
X65904642Y-52635619D01*
X65952261Y-52683238D01*
X65999880Y-52778476D01*
X65999880Y-52968952D01*
X65952261Y-53064190D01*
X65333214Y-52254666D02*
X65999880Y-52016571D01*
X65333214Y-51778476D02*
X65999880Y-52016571D01*
X66237976Y-52111809D01*
X66285595Y-52159428D01*
X66333214Y-52254666D01*
X64626071Y-50280857D02*
X64626071Y-48638000D01*
X64840357Y-50138000D02*
X64840357Y-49495142D01*
X64840357Y-49352285D02*
X64840357Y-48709428D01*
X65483214Y-49995142D02*
X65483214Y-48852285D01*
X65697500Y-49995142D02*
X65697500Y-48852285D01*
X65983214Y-49209428D02*
X65983214Y-48780857D01*
X65268928Y-49995142D02*
X65697500Y-49995142D01*
X64697500Y-49780857D02*
X65126071Y-49780857D01*
X64411785Y-49495142D02*
X64626071Y-49495142D01*
X65697500Y-49066571D02*
X65983214Y-49209428D01*
X64697500Y-49066571D02*
X65126071Y-49066571D01*
X65268928Y-49995142D02*
X65268928Y-48852285D01*
X65697500Y-48852285D01*
X64768928Y-49066571D02*
X65126071Y-48709428D01*
X64768928Y-49066571D02*
X65126071Y-49352285D01*
X64768928Y-49780857D02*
X65054642Y-50066571D01*
X64840357Y-49780857D02*
X65054642Y-49495142D01*
X65697500Y-49709428D02*
X65983214Y-49923714D01*
X66126071Y-50209428D01*
X64626071Y-50280857D02*
X65554642Y-50280857D01*
X66054642Y-50423714D01*
X65268928Y-49423714D02*
X65697500Y-49423714D01*
X66126071Y-49423714D02*
X66126071Y-48709428D01*
X66054642Y-48638000D01*
X64840357Y-48066571D02*
X64840357Y-46709428D01*
X65197500Y-48066571D02*
X65197500Y-46709428D01*
X64483214Y-48066571D02*
X65126071Y-48066571D01*
X64483214Y-47352285D02*
X65126071Y-47352285D01*
X65483214Y-46995142D02*
X66126071Y-46995142D01*
X64483214Y-48066571D02*
X64483214Y-46709428D01*
X65126071Y-46709428D01*
X65197500Y-47209428D02*
X65340357Y-46995142D01*
X65626071Y-46423714D01*
X65197500Y-47495142D02*
X65340357Y-47709428D01*
X65626071Y-48280857D01*
X65411785Y-47709428D02*
X65840357Y-47780857D01*
X66126071Y-48066571D01*
X64911785Y-44995142D02*
X64911785Y-44209428D01*
X64911785Y-45923714D02*
X64911785Y-45495142D01*
X65126071Y-44923714D02*
X65126071Y-44352285D01*
X65268928Y-45995142D02*
X65268928Y-45423714D01*
X65411785Y-44923714D02*
X65411785Y-44280857D01*
X65697500Y-44995142D02*
X65697500Y-44209428D01*
X64911785Y-45709428D02*
X65983214Y-45709428D01*
X65411785Y-45495142D02*
X65768928Y-45566571D01*
X64411785Y-44638000D02*
X65983214Y-44638000D01*
X64626071Y-44923714D02*
X64626071Y-44352285D01*
X65126071Y-44352285D01*
X64411785Y-45709428D02*
X64697500Y-45423714D01*
X64411785Y-45709428D02*
X64911785Y-46066571D01*
X65411785Y-45923714D02*
X65768928Y-45923714D01*
X64554642Y-45352285D02*
X64554642Y-45066571D01*
X65197500Y-45280857D01*
X65197500Y-45066571D01*
X66126071Y-45280857D01*
X65768928Y-45209428D02*
X66126071Y-44852285D01*
X66126071Y-44209428D01*
X66054642Y-45995142D02*
X65983214Y-45423714D01*
X65054642Y-43852285D02*
X65054642Y-42995142D01*
X66126071Y-43852285D02*
X66126071Y-41995142D01*
X65626071Y-43566571D02*
X66126071Y-43566571D01*
X65126071Y-43352285D02*
X65340357Y-43352285D01*
X65626071Y-43138000D02*
X66126071Y-43138000D01*
X65626071Y-42709428D02*
X66126071Y-42709428D01*
X65626071Y-43566571D02*
X65626071Y-42280857D01*
X66126071Y-42280857D01*
X64697500Y-43423714D02*
X64911785Y-43352285D01*
X65126071Y-42709428D02*
X65340357Y-42495142D01*
X65554642Y-42066571D01*
X64483214Y-42709428D02*
X64483214Y-42280857D01*
X64911785Y-42280857D01*
X64840357Y-41995142D01*
X64911785Y-41995142D01*
X65054642Y-42852285D02*
X65054642Y-42138000D01*
X65340357Y-42423714D01*
X65554642Y-42852285D01*
X64554642Y-43638000D02*
X64554642Y-43066571D01*
X65483214Y-43066571D01*
X65483214Y-43280857D01*
X64483214Y-42709428D02*
X64911785Y-42780857D01*
X64554642Y-43638000D02*
X65054642Y-43638000D01*
X65411785Y-43709428D01*
X64483214Y-43352285D02*
X64554642Y-43423714D01*
X64626071Y-41495142D02*
X64626071Y-40709428D01*
X64768928Y-41638000D02*
X64768928Y-40566571D01*
X65268928Y-40852285D02*
X65268928Y-40709428D01*
X65340357Y-40209428D02*
X65340357Y-39923714D01*
X65483214Y-41638000D02*
X65483214Y-39780857D01*
X64983214Y-41495142D02*
X65268928Y-41495142D01*
X64411785Y-41138000D02*
X65340357Y-41138000D01*
X65697500Y-41066571D02*
X66054642Y-41066571D01*
X64983214Y-41495142D02*
X64983214Y-40709428D01*
X65268928Y-40709428D01*
X64483214Y-40423714D02*
X65126071Y-40423714D01*
X64411785Y-39852285D02*
X65340357Y-39852285D01*
X65411785Y-40709428D02*
X65697500Y-40638000D01*
X65911785Y-40352285D01*
X66126071Y-39852285D01*
X64411785Y-41423714D02*
X64697500Y-41566571D01*
X65626071Y-39995142D02*
X65840357Y-40423714D01*
X65483214Y-40709428D02*
X65768928Y-41138000D01*
X65840357Y-41638000D01*
X65983214Y-40566571D02*
X66126071Y-41352285D01*
X64840357Y-38566571D02*
X64840357Y-37566571D01*
X65197500Y-38280857D02*
X65197500Y-37566571D01*
X65626071Y-38280857D02*
X65626071Y-37566571D01*
X64768928Y-39066571D02*
X66126071Y-39066571D01*
X64768928Y-38280857D02*
X66126071Y-38280857D01*
X64483214Y-38923714D02*
X64911785Y-39138000D01*
X65197500Y-39423714D01*
X64483214Y-38423714D02*
X64983214Y-38638000D01*
X65197500Y-38852285D01*
X64554642Y-37138000D02*
X64554642Y-36352285D01*
X65126071Y-36066571D02*
X65126071Y-35280857D01*
X65340357Y-37066571D02*
X65340357Y-36352285D01*
X64840357Y-37066571D02*
X64840357Y-36352285D01*
X65340357Y-36352285D01*
X65126071Y-35495142D02*
X66126071Y-35495142D01*
X64483214Y-35423714D02*
X64697500Y-36066571D01*
X64840357Y-37066571D02*
X65626071Y-37066571D01*
X66054642Y-37138000D01*
X64697500Y-36066571D02*
X65126071Y-36066571D01*
X65697500Y-36138000D01*
X66126071Y-36352285D01*
D12*
X60971309Y-86249904D02*
X60590357Y-86249904D01*
X60590357Y-85449904D01*
X61123690Y-85449904D02*
X61390357Y-86249904D01*
X61657023Y-85449904D01*
X62342738Y-86249904D02*
X61885595Y-86249904D01*
X62114166Y-86249904D02*
X62114166Y-85449904D01*
X62037976Y-85564190D01*
X61961785Y-85640380D01*
X61885595Y-85678476D01*
X63571309Y-86249904D02*
X63190357Y-86249904D01*
X63190357Y-85449904D01*
X63723690Y-85449904D02*
X63990357Y-86249904D01*
X64257023Y-85449904D01*
X64485595Y-85526095D02*
X64523690Y-85488000D01*
X64599880Y-85449904D01*
X64790357Y-85449904D01*
X64866547Y-85488000D01*
X64904642Y-85526095D01*
X64942738Y-85602285D01*
X64942738Y-85678476D01*
X64904642Y-85792761D01*
X64447500Y-86249904D01*
X64942738Y-86249904D01*
X53652261Y-86249904D02*
X53271309Y-86249904D01*
X53271309Y-85449904D01*
X53804642Y-85449904D02*
X54071309Y-86249904D01*
X54337976Y-85449904D01*
X55837976Y-85488000D02*
X55761785Y-85449904D01*
X55647500Y-85449904D01*
X55533214Y-85488000D01*
X55457023Y-85564190D01*
X55418928Y-85640380D01*
X55380833Y-85792761D01*
X55380833Y-85907047D01*
X55418928Y-86059428D01*
X55457023Y-86135619D01*
X55533214Y-86211809D01*
X55647500Y-86249904D01*
X55723690Y-86249904D01*
X55837976Y-86211809D01*
X55876071Y-86173714D01*
X55876071Y-85907047D01*
X55723690Y-85907047D01*
X56218928Y-86249904D02*
X56218928Y-85449904D01*
X56676071Y-86249904D01*
X56676071Y-85449904D01*
X57057023Y-86249904D02*
X57057023Y-85449904D01*
X57247500Y-85449904D01*
X57361785Y-85488000D01*
X57437976Y-85564190D01*
X57476071Y-85640380D01*
X57514166Y-85792761D01*
X57514166Y-85907047D01*
X57476071Y-86059428D01*
X57437976Y-86135619D01*
X57361785Y-86211809D01*
X57247500Y-86249904D01*
X57057023Y-86249904D01*
X58680833Y-85449904D02*
X59214166Y-86249904D01*
X59214166Y-85449904D02*
X58680833Y-86249904D01*
X52995119Y-72649904D02*
X52995119Y-71849904D01*
X52995119Y-72230857D02*
X53452261Y-72230857D01*
X53452261Y-72649904D02*
X53452261Y-71849904D01*
X53718928Y-71849904D02*
X53985595Y-72649904D01*
X54252261Y-71849904D01*
X54937976Y-72649904D02*
X54480833Y-72649904D01*
X54709404Y-72649904D02*
X54709404Y-71849904D01*
X54633214Y-71964190D01*
X54557023Y-72040380D01*
X54480833Y-72078476D01*
X60937976Y-71888000D02*
X60861785Y-71849904D01*
X60747500Y-71849904D01*
X60633214Y-71888000D01*
X60557023Y-71964190D01*
X60518928Y-72040380D01*
X60480833Y-72192761D01*
X60480833Y-72307047D01*
X60518928Y-72459428D01*
X60557023Y-72535619D01*
X60633214Y-72611809D01*
X60747500Y-72649904D01*
X60823690Y-72649904D01*
X60937976Y-72611809D01*
X60976071Y-72573714D01*
X60976071Y-72307047D01*
X60823690Y-72307047D01*
X61318928Y-72649904D02*
X61318928Y-71849904D01*
X61776071Y-72649904D01*
X61776071Y-71849904D01*
X62157023Y-72649904D02*
X62157023Y-71849904D01*
X62347500Y-71849904D01*
X62461785Y-71888000D01*
X62537976Y-71964190D01*
X62576071Y-72040380D01*
X62614166Y-72192761D01*
X62614166Y-72307047D01*
X62576071Y-72459428D01*
X62537976Y-72535619D01*
X62461785Y-72611809D01*
X62347500Y-72649904D01*
X62157023Y-72649904D01*
X58376071Y-72749904D02*
X58376071Y-71949904D01*
X58376071Y-72330857D02*
X58833214Y-72330857D01*
X58833214Y-72749904D02*
X58833214Y-71949904D01*
X59099880Y-71949904D02*
X59366547Y-72749904D01*
X59633214Y-71949904D01*
X63095119Y-72749904D02*
X63095119Y-71949904D01*
X63095119Y-72330857D02*
X63552261Y-72330857D01*
X63552261Y-72749904D02*
X63552261Y-71949904D01*
X63818928Y-71949904D02*
X64085595Y-72749904D01*
X64352261Y-71949904D01*
X64542738Y-71949904D02*
X65037976Y-71949904D01*
X64771309Y-72254666D01*
X64885595Y-72254666D01*
X64961785Y-72292761D01*
X64999880Y-72330857D01*
X65037976Y-72407047D01*
X65037976Y-72597523D01*
X64999880Y-72673714D01*
X64961785Y-72711809D01*
X64885595Y-72749904D01*
X64657023Y-72749904D01*
X64580833Y-72711809D01*
X64542738Y-72673714D01*
X55495119Y-72749904D02*
X55495119Y-71949904D01*
X55495119Y-72330857D02*
X55952261Y-72330857D01*
X55952261Y-72749904D02*
X55952261Y-71949904D01*
X56218928Y-71949904D02*
X56485595Y-72749904D01*
X56752261Y-71949904D01*
X56980833Y-72026095D02*
X57018928Y-71988000D01*
X57095119Y-71949904D01*
X57285595Y-71949904D01*
X57361785Y-71988000D01*
X57399880Y-72026095D01*
X57437976Y-72102285D01*
X57437976Y-72178476D01*
X57399880Y-72292761D01*
X56942738Y-72749904D01*
X57437976Y-72749904D01*
D11*
X43145295Y-70724780D02*
X43716723Y-70724780D01*
X43431009Y-71724780D02*
X43431009Y-70724780D01*
X44621485Y-71724780D02*
X44288152Y-71248590D01*
X44050057Y-71724780D02*
X44050057Y-70724780D01*
X44431009Y-70724780D01*
X44526247Y-70772400D01*
X44573866Y-70820019D01*
X44621485Y-70915257D01*
X44621485Y-71058114D01*
X44573866Y-71153352D01*
X44526247Y-71200971D01*
X44431009Y-71248590D01*
X44050057Y-71248590D01*
X45621485Y-71724780D02*
X45288152Y-71248590D01*
X45050057Y-71724780D02*
X45050057Y-70724780D01*
X45431009Y-70724780D01*
X45526247Y-70772400D01*
X45573866Y-70820019D01*
X45621485Y-70915257D01*
X45621485Y-71058114D01*
X45573866Y-71153352D01*
X45526247Y-71200971D01*
X45431009Y-71248590D01*
X45050057Y-71248590D01*
X46002438Y-71677161D02*
X46145295Y-71724780D01*
X46383390Y-71724780D01*
X46478628Y-71677161D01*
X46526247Y-71629542D01*
X46573866Y-71534304D01*
X46573866Y-71439066D01*
X46526247Y-71343828D01*
X46478628Y-71296209D01*
X46383390Y-71248590D01*
X46192914Y-71200971D01*
X46097676Y-71153352D01*
X46050057Y-71105733D01*
X46002438Y-71010495D01*
X46002438Y-70915257D01*
X46050057Y-70820019D01*
X46097676Y-70772400D01*
X46192914Y-70724780D01*
X46431009Y-70724780D01*
X46573866Y-70772400D01*
X47821981Y-123795106D02*
X47409588Y-124033201D01*
X46909588Y-123167176D01*
X48564289Y-123366535D02*
X48069417Y-123652249D01*
X48316853Y-123509392D02*
X47816853Y-122643367D01*
X47805803Y-122814704D01*
X47770943Y-122944801D01*
X47712274Y-123033660D01*
X127627142Y-67762380D02*
X127150952Y-67762380D01*
X127150952Y-66762380D01*
X128484285Y-67762380D02*
X127912857Y-67762380D01*
X128198571Y-67762380D02*
X128198571Y-66762380D01*
X128103333Y-66905238D01*
X128008095Y-67000476D01*
X127912857Y-67048095D01*
X128865238Y-66857619D02*
X128912857Y-66810000D01*
X129008095Y-66762380D01*
X129246190Y-66762380D01*
X129341428Y-66810000D01*
X129389047Y-66857619D01*
X129436666Y-66952857D01*
X129436666Y-67048095D01*
X129389047Y-67190952D01*
X128817619Y-67762380D01*
X129436666Y-67762380D01*
X64309481Y-114270106D02*
X63897088Y-114508201D01*
X63397088Y-113642176D01*
X64104536Y-113343702D02*
X64121966Y-113278653D01*
X64180635Y-113189795D01*
X64386832Y-113070747D01*
X64493120Y-113064368D01*
X64558169Y-113081798D01*
X64647027Y-113140467D01*
X64694646Y-113222945D01*
X64724835Y-113370473D01*
X64515678Y-114151059D01*
X65051789Y-113841535D01*
X127604642Y-48972380D02*
X127128452Y-48972380D01*
X127128452Y-47972380D01*
X128461785Y-48972380D02*
X127890357Y-48972380D01*
X128176071Y-48972380D02*
X128176071Y-47972380D01*
X128080833Y-48115238D01*
X127985595Y-48210476D01*
X127890357Y-48258095D01*
X128795119Y-47972380D02*
X129414166Y-47972380D01*
X129080833Y-48353333D01*
X129223690Y-48353333D01*
X129318928Y-48400952D01*
X129366547Y-48448571D01*
X129414166Y-48543809D01*
X129414166Y-48781904D01*
X129366547Y-48877142D01*
X129318928Y-48924761D01*
X129223690Y-48972380D01*
X128937976Y-48972380D01*
X128842738Y-48924761D01*
X128795119Y-48877142D01*
X95718333Y-100147380D02*
X95242142Y-100147380D01*
X95242142Y-99147380D01*
X95956428Y-99147380D02*
X96575476Y-99147380D01*
X96242142Y-99528333D01*
X96385000Y-99528333D01*
X96480238Y-99575952D01*
X96527857Y-99623571D01*
X96575476Y-99718809D01*
X96575476Y-99956904D01*
X96527857Y-100052142D01*
X96480238Y-100099761D01*
X96385000Y-100147380D01*
X96099285Y-100147380D01*
X96004047Y-100099761D01*
X95956428Y-100052142D01*
X146677142Y-53417380D02*
X146200952Y-53417380D01*
X146200952Y-52417380D01*
X147534285Y-53417380D02*
X146962857Y-53417380D01*
X147248571Y-53417380D02*
X147248571Y-52417380D01*
X147153333Y-52560238D01*
X147058095Y-52655476D01*
X146962857Y-52703095D01*
X148391428Y-52750714D02*
X148391428Y-53417380D01*
X148153333Y-52369761D02*
X147915238Y-53084047D01*
X148534285Y-53084047D01*
X90003333Y-96597380D02*
X89527142Y-96597380D01*
X89527142Y-95597380D01*
X90765238Y-95930714D02*
X90765238Y-96597380D01*
X90527142Y-95549761D02*
X90289047Y-96264047D01*
X90908095Y-96264047D01*
X146677142Y-72467380D02*
X146200952Y-72467380D01*
X146200952Y-71467380D01*
X147534285Y-72467380D02*
X146962857Y-72467380D01*
X147248571Y-72467380D02*
X147248571Y-71467380D01*
X147153333Y-71610238D01*
X147058095Y-71705476D01*
X146962857Y-71753095D01*
X148439047Y-71467380D02*
X147962857Y-71467380D01*
X147915238Y-71943571D01*
X147962857Y-71895952D01*
X148058095Y-71848333D01*
X148296190Y-71848333D01*
X148391428Y-71895952D01*
X148439047Y-71943571D01*
X148486666Y-72038809D01*
X148486666Y-72276904D01*
X148439047Y-72372142D01*
X148391428Y-72419761D01*
X148296190Y-72467380D01*
X148058095Y-72467380D01*
X147962857Y-72419761D01*
X147915238Y-72372142D01*
X90003333Y-77547380D02*
X89527142Y-77547380D01*
X89527142Y-76547380D01*
X90812857Y-76547380D02*
X90336666Y-76547380D01*
X90289047Y-77023571D01*
X90336666Y-76975952D01*
X90431904Y-76928333D01*
X90670000Y-76928333D01*
X90765238Y-76975952D01*
X90812857Y-77023571D01*
X90860476Y-77118809D01*
X90860476Y-77356904D01*
X90812857Y-77452142D01*
X90765238Y-77499761D01*
X90670000Y-77547380D01*
X90431904Y-77547380D01*
X90336666Y-77499761D01*
X90289047Y-77452142D01*
X146654642Y-91517380D02*
X146178452Y-91517380D01*
X146178452Y-90517380D01*
X147511785Y-91517380D02*
X146940357Y-91517380D01*
X147226071Y-91517380D02*
X147226071Y-90517380D01*
X147130833Y-90660238D01*
X147035595Y-90755476D01*
X146940357Y-90803095D01*
X148368928Y-90517380D02*
X148178452Y-90517380D01*
X148083214Y-90565000D01*
X148035595Y-90612619D01*
X147940357Y-90755476D01*
X147892738Y-90945952D01*
X147892738Y-91326904D01*
X147940357Y-91422142D01*
X147987976Y-91469761D01*
X148083214Y-91517380D01*
X148273690Y-91517380D01*
X148368928Y-91469761D01*
X148416547Y-91422142D01*
X148464166Y-91326904D01*
X148464166Y-91088809D01*
X148416547Y-90993571D01*
X148368928Y-90945952D01*
X148273690Y-90898333D01*
X148083214Y-90898333D01*
X147987976Y-90945952D01*
X147940357Y-90993571D01*
X147892738Y-91088809D01*
X90003333Y-58497380D02*
X89527142Y-58497380D01*
X89527142Y-57497380D01*
X90765238Y-57497380D02*
X90574761Y-57497380D01*
X90479523Y-57545000D01*
X90431904Y-57592619D01*
X90336666Y-57735476D01*
X90289047Y-57925952D01*
X90289047Y-58306904D01*
X90336666Y-58402142D01*
X90384285Y-58449761D01*
X90479523Y-58497380D01*
X90670000Y-58497380D01*
X90765238Y-58449761D01*
X90812857Y-58402142D01*
X90860476Y-58306904D01*
X90860476Y-58068809D01*
X90812857Y-57973571D01*
X90765238Y-57925952D01*
X90670000Y-57878333D01*
X90479523Y-57878333D01*
X90384285Y-57925952D01*
X90336666Y-57973571D01*
X90289047Y-58068809D01*
X165727142Y-100407380D02*
X165250952Y-100407380D01*
X165250952Y-99407380D01*
X166584285Y-100407380D02*
X166012857Y-100407380D01*
X166298571Y-100407380D02*
X166298571Y-99407380D01*
X166203333Y-99550238D01*
X166108095Y-99645476D01*
X166012857Y-99693095D01*
X166917619Y-99407380D02*
X167584285Y-99407380D01*
X167155714Y-100407380D01*
X109053333Y-53157380D02*
X108577142Y-53157380D01*
X108577142Y-52157380D01*
X109291428Y-52157380D02*
X109958095Y-52157380D01*
X109529523Y-53157380D01*
X165704642Y-81357380D02*
X165228452Y-81357380D01*
X165228452Y-80357380D01*
X166561785Y-81357380D02*
X165990357Y-81357380D01*
X166276071Y-81357380D02*
X166276071Y-80357380D01*
X166180833Y-80500238D01*
X166085595Y-80595476D01*
X165990357Y-80643095D01*
X167133214Y-80785952D02*
X167037976Y-80738333D01*
X166990357Y-80690714D01*
X166942738Y-80595476D01*
X166942738Y-80547857D01*
X166990357Y-80452619D01*
X167037976Y-80405000D01*
X167133214Y-80357380D01*
X167323690Y-80357380D01*
X167418928Y-80405000D01*
X167466547Y-80452619D01*
X167514166Y-80547857D01*
X167514166Y-80595476D01*
X167466547Y-80690714D01*
X167418928Y-80738333D01*
X167323690Y-80785952D01*
X167133214Y-80785952D01*
X167037976Y-80833571D01*
X166990357Y-80881190D01*
X166942738Y-80976428D01*
X166942738Y-81166904D01*
X166990357Y-81262142D01*
X167037976Y-81309761D01*
X167133214Y-81357380D01*
X167323690Y-81357380D01*
X167418928Y-81309761D01*
X167466547Y-81262142D01*
X167514166Y-81166904D01*
X167514166Y-80976428D01*
X167466547Y-80881190D01*
X167418928Y-80833571D01*
X167323690Y-80785952D01*
X109053333Y-72207380D02*
X108577142Y-72207380D01*
X108577142Y-71207380D01*
X109529523Y-71635952D02*
X109434285Y-71588333D01*
X109386666Y-71540714D01*
X109339047Y-71445476D01*
X109339047Y-71397857D01*
X109386666Y-71302619D01*
X109434285Y-71255000D01*
X109529523Y-71207380D01*
X109720000Y-71207380D01*
X109815238Y-71255000D01*
X109862857Y-71302619D01*
X109910476Y-71397857D01*
X109910476Y-71445476D01*
X109862857Y-71540714D01*
X109815238Y-71588333D01*
X109720000Y-71635952D01*
X109529523Y-71635952D01*
X109434285Y-71683571D01*
X109386666Y-71731190D01*
X109339047Y-71826428D01*
X109339047Y-72016904D01*
X109386666Y-72112142D01*
X109434285Y-72159761D01*
X109529523Y-72207380D01*
X109720000Y-72207380D01*
X109815238Y-72159761D01*
X109862857Y-72112142D01*
X109910476Y-72016904D01*
X109910476Y-71826428D01*
X109862857Y-71731190D01*
X109815238Y-71683571D01*
X109720000Y-71635952D01*
X165704642Y-62307380D02*
X165228452Y-62307380D01*
X165228452Y-61307380D01*
X166561785Y-62307380D02*
X165990357Y-62307380D01*
X166276071Y-62307380D02*
X166276071Y-61307380D01*
X166180833Y-61450238D01*
X166085595Y-61545476D01*
X165990357Y-61593095D01*
X167037976Y-62307380D02*
X167228452Y-62307380D01*
X167323690Y-62259761D01*
X167371309Y-62212142D01*
X167466547Y-62069285D01*
X167514166Y-61878809D01*
X167514166Y-61497857D01*
X167466547Y-61402619D01*
X167418928Y-61355000D01*
X167323690Y-61307380D01*
X167133214Y-61307380D01*
X167037976Y-61355000D01*
X166990357Y-61402619D01*
X166942738Y-61497857D01*
X166942738Y-61735952D01*
X166990357Y-61831190D01*
X167037976Y-61878809D01*
X167133214Y-61926428D01*
X167323690Y-61926428D01*
X167418928Y-61878809D01*
X167466547Y-61831190D01*
X167514166Y-61735952D01*
X109053333Y-91257380D02*
X108577142Y-91257380D01*
X108577142Y-90257380D01*
X109434285Y-91257380D02*
X109624761Y-91257380D01*
X109720000Y-91209761D01*
X109767619Y-91162142D01*
X109862857Y-91019285D01*
X109910476Y-90828809D01*
X109910476Y-90447857D01*
X109862857Y-90352619D01*
X109815238Y-90305000D01*
X109720000Y-90257380D01*
X109529523Y-90257380D01*
X109434285Y-90305000D01*
X109386666Y-90352619D01*
X109339047Y-90447857D01*
X109339047Y-90685952D01*
X109386666Y-90781190D01*
X109434285Y-90828809D01*
X109529523Y-90876428D01*
X109720000Y-90876428D01*
X109815238Y-90828809D01*
X109862857Y-90781190D01*
X109910476Y-90685952D01*
X184777142Y-71832380D02*
X184300952Y-71832380D01*
X184300952Y-70832380D01*
X185062857Y-70927619D02*
X185110476Y-70880000D01*
X185205714Y-70832380D01*
X185443809Y-70832380D01*
X185539047Y-70880000D01*
X185586666Y-70927619D01*
X185634285Y-71022857D01*
X185634285Y-71118095D01*
X185586666Y-71260952D01*
X185015238Y-71832380D01*
X185634285Y-71832380D01*
X186253333Y-70832380D02*
X186348571Y-70832380D01*
X186443809Y-70880000D01*
X186491428Y-70927619D01*
X186539047Y-71022857D01*
X186586666Y-71213333D01*
X186586666Y-71451428D01*
X186539047Y-71641904D01*
X186491428Y-71737142D01*
X186443809Y-71784761D01*
X186348571Y-71832380D01*
X186253333Y-71832380D01*
X186158095Y-71784761D01*
X186110476Y-71737142D01*
X186062857Y-71641904D01*
X186015238Y-71451428D01*
X186015238Y-71213333D01*
X186062857Y-71022857D01*
X186110476Y-70927619D01*
X186158095Y-70880000D01*
X186253333Y-70832380D01*
X122524642Y-105227380D02*
X122048452Y-105227380D01*
X122048452Y-104227380D01*
X123381785Y-105227380D02*
X122810357Y-105227380D01*
X123096071Y-105227380D02*
X123096071Y-104227380D01*
X123000833Y-104370238D01*
X122905595Y-104465476D01*
X122810357Y-104513095D01*
X124000833Y-104227380D02*
X124096071Y-104227380D01*
X124191309Y-104275000D01*
X124238928Y-104322619D01*
X124286547Y-104417857D01*
X124334166Y-104608333D01*
X124334166Y-104846428D01*
X124286547Y-105036904D01*
X124238928Y-105132142D01*
X124191309Y-105179761D01*
X124096071Y-105227380D01*
X124000833Y-105227380D01*
X123905595Y-105179761D01*
X123857976Y-105132142D01*
X123810357Y-105036904D01*
X123762738Y-104846428D01*
X123762738Y-104608333D01*
X123810357Y-104417857D01*
X123857976Y-104322619D01*
X123905595Y-104275000D01*
X124000833Y-104227380D01*
X184754642Y-90622380D02*
X184278452Y-90622380D01*
X184278452Y-89622380D01*
X185040357Y-89717619D02*
X185087976Y-89670000D01*
X185183214Y-89622380D01*
X185421309Y-89622380D01*
X185516547Y-89670000D01*
X185564166Y-89717619D01*
X185611785Y-89812857D01*
X185611785Y-89908095D01*
X185564166Y-90050952D01*
X184992738Y-90622380D01*
X185611785Y-90622380D01*
X186564166Y-90622380D02*
X185992738Y-90622380D01*
X186278452Y-90622380D02*
X186278452Y-89622380D01*
X186183214Y-89765238D01*
X186087976Y-89860476D01*
X185992738Y-89908095D01*
X127604642Y-86812380D02*
X127128452Y-86812380D01*
X127128452Y-85812380D01*
X128461785Y-86812380D02*
X127890357Y-86812380D01*
X128176071Y-86812380D02*
X128176071Y-85812380D01*
X128080833Y-85955238D01*
X127985595Y-86050476D01*
X127890357Y-86098095D01*
X129414166Y-86812380D02*
X128842738Y-86812380D01*
X129128452Y-86812380D02*
X129128452Y-85812380D01*
X129033214Y-85955238D01*
X128937976Y-86050476D01*
X128842738Y-86098095D01*
X184777142Y-109672380D02*
X184300952Y-109672380D01*
X184300952Y-108672380D01*
X185062857Y-108767619D02*
X185110476Y-108720000D01*
X185205714Y-108672380D01*
X185443809Y-108672380D01*
X185539047Y-108720000D01*
X185586666Y-108767619D01*
X185634285Y-108862857D01*
X185634285Y-108958095D01*
X185586666Y-109100952D01*
X185015238Y-109672380D01*
X185634285Y-109672380D01*
X186015238Y-108767619D02*
X186062857Y-108720000D01*
X186158095Y-108672380D01*
X186396190Y-108672380D01*
X186491428Y-108720000D01*
X186539047Y-108767619D01*
X186586666Y-108862857D01*
X186586666Y-108958095D01*
X186539047Y-109100952D01*
X185967619Y-109672380D01*
X186586666Y-109672380D01*
X41705119Y-53411380D02*
X41371785Y-52935190D01*
X41133690Y-53411380D02*
X41133690Y-52411380D01*
X41514642Y-52411380D01*
X41609880Y-52459000D01*
X41657500Y-52506619D01*
X41705119Y-52601857D01*
X41705119Y-52744714D01*
X41657500Y-52839952D01*
X41609880Y-52887571D01*
X41514642Y-52935190D01*
X41133690Y-52935190D01*
X42133690Y-52887571D02*
X42467023Y-52887571D01*
X42609880Y-53411380D02*
X42133690Y-53411380D01*
X42133690Y-52411380D01*
X42609880Y-52411380D01*
X42990833Y-53363761D02*
X43133690Y-53411380D01*
X43371785Y-53411380D01*
X43467023Y-53363761D01*
X43514642Y-53316142D01*
X43562261Y-53220904D01*
X43562261Y-53125666D01*
X43514642Y-53030428D01*
X43467023Y-52982809D01*
X43371785Y-52935190D01*
X43181309Y-52887571D01*
X43086071Y-52839952D01*
X43038452Y-52792333D01*
X42990833Y-52697095D01*
X42990833Y-52601857D01*
X43038452Y-52506619D01*
X43086071Y-52459000D01*
X43181309Y-52411380D01*
X43419404Y-52411380D01*
X43562261Y-52459000D01*
X43990833Y-52887571D02*
X44324166Y-52887571D01*
X44467023Y-53411380D02*
X43990833Y-53411380D01*
X43990833Y-52411380D01*
X44467023Y-52411380D01*
X44752738Y-52411380D02*
X45324166Y-52411380D01*
X45038452Y-53411380D02*
X45038452Y-52411380D01*
D13*
X50891547Y-63242285D02*
X50724880Y-62885142D01*
X50605833Y-63242285D02*
X50605833Y-62492285D01*
X50796309Y-62492285D01*
X50843928Y-62528000D01*
X50867738Y-62563714D01*
X50891547Y-62635142D01*
X50891547Y-62742285D01*
X50867738Y-62813714D01*
X50843928Y-62849428D01*
X50796309Y-62885142D01*
X50605833Y-62885142D01*
X51201071Y-62492285D02*
X51296309Y-62492285D01*
X51343928Y-62528000D01*
X51391547Y-62599428D01*
X51415357Y-62742285D01*
X51415357Y-62992285D01*
X51391547Y-63135142D01*
X51343928Y-63206571D01*
X51296309Y-63242285D01*
X51201071Y-63242285D01*
X51153452Y-63206571D01*
X51105833Y-63135142D01*
X51082023Y-62992285D01*
X51082023Y-62742285D01*
X51105833Y-62599428D01*
X51153452Y-62528000D01*
X51201071Y-62492285D01*
X51582023Y-62492285D02*
X51701071Y-63242285D01*
X51796309Y-62706571D01*
X51891547Y-63242285D01*
X52010595Y-62492285D01*
X52153452Y-62492285D02*
X52462976Y-62492285D01*
X52296309Y-62778000D01*
X52367738Y-62778000D01*
X52415357Y-62813714D01*
X52439166Y-62849428D01*
X52462976Y-62920857D01*
X52462976Y-63099428D01*
X52439166Y-63170857D01*
X52415357Y-63206571D01*
X52367738Y-63242285D01*
X52224880Y-63242285D01*
X52177261Y-63206571D01*
X52153452Y-63170857D01*
X51024880Y-53020857D02*
X51001071Y-53056571D01*
X50929642Y-53092285D01*
X50882023Y-53092285D01*
X50810595Y-53056571D01*
X50762976Y-52985142D01*
X50739166Y-52913714D01*
X50715357Y-52770857D01*
X50715357Y-52663714D01*
X50739166Y-52520857D01*
X50762976Y-52449428D01*
X50810595Y-52378000D01*
X50882023Y-52342285D01*
X50929642Y-52342285D01*
X51001071Y-52378000D01*
X51024880Y-52413714D01*
X51334404Y-52342285D02*
X51429642Y-52342285D01*
X51477261Y-52378000D01*
X51524880Y-52449428D01*
X51548690Y-52592285D01*
X51548690Y-52842285D01*
X51524880Y-52985142D01*
X51477261Y-53056571D01*
X51429642Y-53092285D01*
X51334404Y-53092285D01*
X51286785Y-53056571D01*
X51239166Y-52985142D01*
X51215357Y-52842285D01*
X51215357Y-52592285D01*
X51239166Y-52449428D01*
X51286785Y-52378000D01*
X51334404Y-52342285D01*
X52001071Y-53092285D02*
X51762976Y-53092285D01*
X51762976Y-52342285D01*
X52143928Y-52413714D02*
X52167738Y-52378000D01*
X52215357Y-52342285D01*
X52334404Y-52342285D01*
X52382023Y-52378000D01*
X52405833Y-52413714D01*
X52429642Y-52485142D01*
X52429642Y-52556571D01*
X52405833Y-52663714D01*
X52120119Y-53092285D01*
X52429642Y-53092285D01*
X51190333Y-42134285D02*
X51357000Y-42884285D01*
X51523666Y-42134285D01*
X51976047Y-42812857D02*
X51952238Y-42848571D01*
X51880809Y-42884285D01*
X51833190Y-42884285D01*
X51761761Y-42848571D01*
X51714142Y-42777142D01*
X51690333Y-42705714D01*
X51666523Y-42562857D01*
X51666523Y-42455714D01*
X51690333Y-42312857D01*
X51714142Y-42241428D01*
X51761761Y-42170000D01*
X51833190Y-42134285D01*
X51880809Y-42134285D01*
X51952238Y-42170000D01*
X51976047Y-42205714D01*
X52476047Y-42812857D02*
X52452238Y-42848571D01*
X52380809Y-42884285D01*
X52333190Y-42884285D01*
X52261761Y-42848571D01*
X52214142Y-42777142D01*
X52190333Y-42705714D01*
X52166523Y-42562857D01*
X52166523Y-42455714D01*
X52190333Y-42312857D01*
X52214142Y-42241428D01*
X52261761Y-42170000D01*
X52333190Y-42134285D01*
X52380809Y-42134285D01*
X52452238Y-42170000D01*
X52476047Y-42205714D01*
X50682023Y-57794928D02*
X50753452Y-57830642D01*
X50777261Y-57866357D01*
X50801071Y-57937785D01*
X50801071Y-58044928D01*
X50777261Y-58116357D01*
X50753452Y-58152071D01*
X50705833Y-58187785D01*
X50515357Y-58187785D01*
X50515357Y-57437785D01*
X50682023Y-57437785D01*
X50729642Y-57473500D01*
X50753452Y-57509214D01*
X50777261Y-57580642D01*
X50777261Y-57652071D01*
X50753452Y-57723500D01*
X50729642Y-57759214D01*
X50682023Y-57794928D01*
X50515357Y-57794928D01*
X50967738Y-57437785D02*
X51277261Y-57437785D01*
X51110595Y-57723500D01*
X51182023Y-57723500D01*
X51229642Y-57759214D01*
X51253452Y-57794928D01*
X51277261Y-57866357D01*
X51277261Y-58044928D01*
X51253452Y-58116357D01*
X51229642Y-58152071D01*
X51182023Y-58187785D01*
X51039166Y-58187785D01*
X50991547Y-58152071D01*
X50967738Y-58116357D01*
X51848690Y-57402071D02*
X51420119Y-58366357D01*
X52277261Y-58187785D02*
X51991547Y-58187785D01*
X52134404Y-58187785D02*
X52134404Y-57437785D01*
X52086785Y-57544928D01*
X52039166Y-57616357D01*
X51991547Y-57652071D01*
X52705833Y-57687785D02*
X52705833Y-58187785D01*
X52586785Y-57402071D02*
X52467738Y-57937785D01*
X52777261Y-57937785D01*
X50791547Y-45049428D02*
X50624880Y-45049428D01*
X50624880Y-45442285D02*
X50624880Y-44692285D01*
X50862976Y-44692285D01*
X51267738Y-44942285D02*
X51267738Y-45442285D01*
X51148690Y-44656571D02*
X51029642Y-45192285D01*
X51339166Y-45192285D01*
X51886785Y-44656571D02*
X51458214Y-45620857D01*
X52029642Y-45228000D02*
X52267738Y-45228000D01*
X51982023Y-45442285D02*
X52148690Y-44692285D01*
X52315357Y-45442285D01*
X52434404Y-44692285D02*
X52743928Y-44692285D01*
X52577261Y-44978000D01*
X52648690Y-44978000D01*
X52696309Y-45013714D01*
X52720119Y-45049428D01*
X52743928Y-45120857D01*
X52743928Y-45299428D01*
X52720119Y-45370857D01*
X52696309Y-45406571D01*
X52648690Y-45442285D01*
X52505833Y-45442285D01*
X52458214Y-45406571D01*
X52434404Y-45370857D01*
X50991547Y-60692285D02*
X50824880Y-60335142D01*
X50705833Y-60692285D02*
X50705833Y-59942285D01*
X50896309Y-59942285D01*
X50943928Y-59978000D01*
X50967738Y-60013714D01*
X50991547Y-60085142D01*
X50991547Y-60192285D01*
X50967738Y-60263714D01*
X50943928Y-60299428D01*
X50896309Y-60335142D01*
X50705833Y-60335142D01*
X51301071Y-59942285D02*
X51396309Y-59942285D01*
X51443928Y-59978000D01*
X51491547Y-60049428D01*
X51515357Y-60192285D01*
X51515357Y-60442285D01*
X51491547Y-60585142D01*
X51443928Y-60656571D01*
X51396309Y-60692285D01*
X51301071Y-60692285D01*
X51253452Y-60656571D01*
X51205833Y-60585142D01*
X51182023Y-60442285D01*
X51182023Y-60192285D01*
X51205833Y-60049428D01*
X51253452Y-59978000D01*
X51301071Y-59942285D01*
X51682023Y-59942285D02*
X51801071Y-60692285D01*
X51896309Y-60156571D01*
X51991547Y-60692285D01*
X52110595Y-59942285D01*
X52562976Y-60692285D02*
X52277261Y-60692285D01*
X52420119Y-60692285D02*
X52420119Y-59942285D01*
X52372500Y-60049428D01*
X52324880Y-60120857D01*
X52277261Y-60156571D01*
X51074880Y-55520857D02*
X51051071Y-55556571D01*
X50979642Y-55592285D01*
X50932023Y-55592285D01*
X50860595Y-55556571D01*
X50812976Y-55485142D01*
X50789166Y-55413714D01*
X50765357Y-55270857D01*
X50765357Y-55163714D01*
X50789166Y-55020857D01*
X50812976Y-54949428D01*
X50860595Y-54878000D01*
X50932023Y-54842285D01*
X50979642Y-54842285D01*
X51051071Y-54878000D01*
X51074880Y-54913714D01*
X51384404Y-54842285D02*
X51479642Y-54842285D01*
X51527261Y-54878000D01*
X51574880Y-54949428D01*
X51598690Y-55092285D01*
X51598690Y-55342285D01*
X51574880Y-55485142D01*
X51527261Y-55556571D01*
X51479642Y-55592285D01*
X51384404Y-55592285D01*
X51336785Y-55556571D01*
X51289166Y-55485142D01*
X51265357Y-55342285D01*
X51265357Y-55092285D01*
X51289166Y-54949428D01*
X51336785Y-54878000D01*
X51384404Y-54842285D01*
X52051071Y-55592285D02*
X51812976Y-55592285D01*
X51812976Y-54842285D01*
X52312976Y-54842285D02*
X52360595Y-54842285D01*
X52408214Y-54878000D01*
X52432023Y-54913714D01*
X52455833Y-54985142D01*
X52479642Y-55128000D01*
X52479642Y-55306571D01*
X52455833Y-55449428D01*
X52432023Y-55520857D01*
X52408214Y-55556571D01*
X52360595Y-55592285D01*
X52312976Y-55592285D01*
X52265357Y-55556571D01*
X52241547Y-55520857D01*
X52217738Y-55449428D01*
X52193928Y-55306571D01*
X52193928Y-55128000D01*
X52217738Y-54985142D01*
X52241547Y-54913714D01*
X52265357Y-54878000D01*
X52312976Y-54842285D01*
X51476047Y-37090000D02*
X51428428Y-37054285D01*
X51357000Y-37054285D01*
X51285571Y-37090000D01*
X51237952Y-37161428D01*
X51214142Y-37232857D01*
X51190333Y-37375714D01*
X51190333Y-37482857D01*
X51214142Y-37625714D01*
X51237952Y-37697142D01*
X51285571Y-37768571D01*
X51357000Y-37804285D01*
X51404619Y-37804285D01*
X51476047Y-37768571D01*
X51499857Y-37732857D01*
X51499857Y-37482857D01*
X51404619Y-37482857D01*
X51714142Y-37804285D02*
X51714142Y-37054285D01*
X51999857Y-37804285D01*
X51999857Y-37054285D01*
X52237952Y-37804285D02*
X52237952Y-37054285D01*
X52357000Y-37054285D01*
X52428428Y-37090000D01*
X52476047Y-37161428D01*
X52499857Y-37232857D01*
X52523666Y-37375714D01*
X52523666Y-37482857D01*
X52499857Y-37625714D01*
X52476047Y-37697142D01*
X52428428Y-37768571D01*
X52357000Y-37804285D01*
X52237952Y-37804285D01*
X51124880Y-50432857D02*
X51101071Y-50468571D01*
X51029642Y-50504285D01*
X50982023Y-50504285D01*
X50910595Y-50468571D01*
X50862976Y-50397142D01*
X50839166Y-50325714D01*
X50815357Y-50182857D01*
X50815357Y-50075714D01*
X50839166Y-49932857D01*
X50862976Y-49861428D01*
X50910595Y-49790000D01*
X50982023Y-49754285D01*
X51029642Y-49754285D01*
X51101071Y-49790000D01*
X51124880Y-49825714D01*
X51434404Y-49754285D02*
X51529642Y-49754285D01*
X51577261Y-49790000D01*
X51624880Y-49861428D01*
X51648690Y-50004285D01*
X51648690Y-50254285D01*
X51624880Y-50397142D01*
X51577261Y-50468571D01*
X51529642Y-50504285D01*
X51434404Y-50504285D01*
X51386785Y-50468571D01*
X51339166Y-50397142D01*
X51315357Y-50254285D01*
X51315357Y-50004285D01*
X51339166Y-49861428D01*
X51386785Y-49790000D01*
X51434404Y-49754285D01*
X52101071Y-50504285D02*
X51862976Y-50504285D01*
X51862976Y-49754285D01*
X52482023Y-50004285D02*
X52482023Y-50504285D01*
X52362976Y-49718571D02*
X52243928Y-50254285D01*
X52553452Y-50254285D01*
X51583190Y-40407785D02*
X51416523Y-40050642D01*
X51297476Y-40407785D02*
X51297476Y-39657785D01*
X51487952Y-39657785D01*
X51535571Y-39693500D01*
X51559380Y-39729214D01*
X51583190Y-39800642D01*
X51583190Y-39907785D01*
X51559380Y-39979214D01*
X51535571Y-40014928D01*
X51487952Y-40050642D01*
X51297476Y-40050642D01*
X51773666Y-40372071D02*
X51845095Y-40407785D01*
X51964142Y-40407785D01*
X52011761Y-40372071D01*
X52035571Y-40336357D01*
X52059380Y-40264928D01*
X52059380Y-40193500D01*
X52035571Y-40122071D01*
X52011761Y-40086357D01*
X51964142Y-40050642D01*
X51868904Y-40014928D01*
X51821285Y-39979214D01*
X51797476Y-39943500D01*
X51773666Y-39872071D01*
X51773666Y-39800642D01*
X51797476Y-39729214D01*
X51821285Y-39693500D01*
X51868904Y-39657785D01*
X51987952Y-39657785D01*
X52059380Y-39693500D01*
X52202238Y-39657785D02*
X52487952Y-39657785D01*
X52345095Y-40407785D02*
X52345095Y-39657785D01*
X51511761Y-35264285D02*
X51345095Y-34907142D01*
X51226047Y-35264285D02*
X51226047Y-34514285D01*
X51416523Y-34514285D01*
X51464142Y-34550000D01*
X51487952Y-34585714D01*
X51511761Y-34657142D01*
X51511761Y-34764285D01*
X51487952Y-34835714D01*
X51464142Y-34871428D01*
X51416523Y-34907142D01*
X51226047Y-34907142D01*
X51702238Y-35050000D02*
X51940333Y-35050000D01*
X51654619Y-35264285D02*
X51821285Y-34514285D01*
X51987952Y-35264285D01*
X52107000Y-34514285D02*
X52226047Y-35264285D01*
X52321285Y-34728571D01*
X52416523Y-35264285D01*
X52535571Y-34514285D01*
X50841547Y-47571428D02*
X50674880Y-47571428D01*
X50674880Y-47964285D02*
X50674880Y-47214285D01*
X50912976Y-47214285D01*
X51341547Y-47214285D02*
X51103452Y-47214285D01*
X51079642Y-47571428D01*
X51103452Y-47535714D01*
X51151071Y-47500000D01*
X51270119Y-47500000D01*
X51317738Y-47535714D01*
X51341547Y-47571428D01*
X51365357Y-47642857D01*
X51365357Y-47821428D01*
X51341547Y-47892857D01*
X51317738Y-47928571D01*
X51270119Y-47964285D01*
X51151071Y-47964285D01*
X51103452Y-47928571D01*
X51079642Y-47892857D01*
X51936785Y-47178571D02*
X51508214Y-48142857D01*
X52079642Y-47750000D02*
X52317738Y-47750000D01*
X52032023Y-47964285D02*
X52198690Y-47214285D01*
X52365357Y-47964285D01*
X52508214Y-47285714D02*
X52532023Y-47250000D01*
X52579642Y-47214285D01*
X52698690Y-47214285D01*
X52746309Y-47250000D01*
X52770119Y-47285714D01*
X52793928Y-47357142D01*
X52793928Y-47428571D01*
X52770119Y-47535714D01*
X52484404Y-47964285D01*
X52793928Y-47964285D01*
D11*
X57952261Y-71440380D02*
X57476071Y-71440380D01*
X57476071Y-70440380D01*
X58142738Y-70440380D02*
X58476071Y-71440380D01*
X58809404Y-70440380D01*
X59714166Y-71345142D02*
X59666547Y-71392761D01*
X59523690Y-71440380D01*
X59428452Y-71440380D01*
X59285595Y-71392761D01*
X59190357Y-71297523D01*
X59142738Y-71202285D01*
X59095119Y-71011809D01*
X59095119Y-70868952D01*
X59142738Y-70678476D01*
X59190357Y-70583238D01*
X59285595Y-70488000D01*
X59428452Y-70440380D01*
X59523690Y-70440380D01*
X59666547Y-70488000D01*
X59714166Y-70535619D01*
X60666547Y-71440380D02*
X60095119Y-71440380D01*
X60380833Y-71440380D02*
X60380833Y-70440380D01*
X60285595Y-70583238D01*
X60190357Y-70678476D01*
X60095119Y-70726095D01*
X42824166Y-34250380D02*
X42824166Y-34964666D01*
X42776547Y-35107523D01*
X42681309Y-35202761D01*
X42538452Y-35250380D01*
X42443214Y-35250380D01*
X43443214Y-34678952D02*
X43347976Y-34631333D01*
X43300357Y-34583714D01*
X43252738Y-34488476D01*
X43252738Y-34440857D01*
X43300357Y-34345619D01*
X43347976Y-34298000D01*
X43443214Y-34250380D01*
X43633690Y-34250380D01*
X43728928Y-34298000D01*
X43776547Y-34345619D01*
X43824166Y-34440857D01*
X43824166Y-34488476D01*
X43776547Y-34583714D01*
X43728928Y-34631333D01*
X43633690Y-34678952D01*
X43443214Y-34678952D01*
X43347976Y-34726571D01*
X43300357Y-34774190D01*
X43252738Y-34869428D01*
X43252738Y-35059904D01*
X43300357Y-35155142D01*
X43347976Y-35202761D01*
X43443214Y-35250380D01*
X43633690Y-35250380D01*
X43728928Y-35202761D01*
X43776547Y-35155142D01*
X43824166Y-35059904D01*
X43824166Y-34869428D01*
X43776547Y-34774190D01*
X43728928Y-34726571D01*
X43633690Y-34678952D01*
X76479166Y-85050380D02*
X76479166Y-85764666D01*
X76431547Y-85907523D01*
X76336309Y-86002761D01*
X76193452Y-86050380D01*
X76098214Y-86050380D01*
X76860119Y-85050380D02*
X77526785Y-85050380D01*
X77098214Y-86050380D01*
X76479166Y-34250380D02*
X76479166Y-34964666D01*
X76431547Y-35107523D01*
X76336309Y-35202761D01*
X76193452Y-35250380D01*
X76098214Y-35250380D01*
X77383928Y-34583714D02*
X77383928Y-35250380D01*
X77145833Y-34202761D02*
X76907738Y-34917047D01*
X77526785Y-34917047D01*
X42824166Y-102830380D02*
X42824166Y-103544666D01*
X42776547Y-103687523D01*
X42681309Y-103782761D01*
X42538452Y-103830380D01*
X42443214Y-103830380D01*
X43728928Y-102830380D02*
X43538452Y-102830380D01*
X43443214Y-102878000D01*
X43395595Y-102925619D01*
X43300357Y-103068476D01*
X43252738Y-103258952D01*
X43252738Y-103639904D01*
X43300357Y-103735142D01*
X43347976Y-103782761D01*
X43443214Y-103830380D01*
X43633690Y-103830380D01*
X43728928Y-103782761D01*
X43776547Y-103735142D01*
X43824166Y-103639904D01*
X43824166Y-103401809D01*
X43776547Y-103306571D01*
X43728928Y-103258952D01*
X43633690Y-103211333D01*
X43443214Y-103211333D01*
X43347976Y-103258952D01*
X43300357Y-103306571D01*
X43252738Y-103401809D01*
X51347500Y-67358000D02*
X51347500Y-73358000D01*
X51347500Y-73358000D02*
X39347500Y-73358000D01*
X39347500Y-73358000D02*
X39347500Y-67358000D01*
X39347500Y-67358000D02*
X51347500Y-67358000D01*
X81122500Y-41918000D02*
X80122500Y-41918000D01*
X81372500Y-45118000D02*
X81372500Y-39718000D01*
X80122500Y-42918000D02*
X80622500Y-42018000D01*
X79872500Y-39718000D02*
X79872500Y-45118000D01*
X81372500Y-39718000D02*
X79872500Y-39718000D01*
X80622500Y-42018000D02*
X81122500Y-42918000D01*
X81122500Y-42918000D02*
X80122500Y-42918000D01*
X81372500Y-45118000D02*
X79872500Y-45118000D01*
X100172500Y-37838000D02*
X99172500Y-37838000D01*
X98922500Y-34638000D02*
X98922500Y-40038000D01*
X100422500Y-34638000D02*
X98922500Y-34638000D01*
X100172500Y-36838000D02*
X99172500Y-36838000D01*
X99672500Y-36938000D02*
X100172500Y-37838000D01*
X100422500Y-40038000D02*
X100422500Y-34638000D01*
X100422500Y-40038000D02*
X98922500Y-40038000D01*
X99172500Y-37838000D02*
X99672500Y-36938000D01*
X119222500Y-33663000D02*
X118222500Y-33663000D01*
X119472500Y-36863000D02*
X117972500Y-36863000D01*
X118722500Y-33763000D02*
X119222500Y-34663000D01*
X119472500Y-36863000D02*
X119472500Y-31463000D01*
X119222500Y-34663000D02*
X118222500Y-34663000D01*
X118222500Y-34663000D02*
X118722500Y-33763000D01*
X119472500Y-31463000D02*
X117972500Y-31463000D01*
X117972500Y-31463000D02*
X117972500Y-36863000D01*
X138522500Y-35273000D02*
X137022500Y-35273000D01*
X137022500Y-35273000D02*
X137022500Y-40673000D01*
X138522500Y-40673000D02*
X137022500Y-40673000D01*
X137272500Y-38473000D02*
X137772500Y-37573000D01*
X138272500Y-38473000D02*
X137272500Y-38473000D01*
X138522500Y-40673000D02*
X138522500Y-35273000D01*
X137772500Y-37573000D02*
X138272500Y-38473000D01*
X138272500Y-37473000D02*
X137272500Y-37473000D01*
X157322500Y-46363000D02*
X156322500Y-46363000D01*
X156072500Y-44163000D02*
X156072500Y-49563000D01*
X156822500Y-46463000D02*
X157322500Y-47363000D01*
X157572500Y-49563000D02*
X156072500Y-49563000D01*
X156322500Y-47363000D02*
X156822500Y-46463000D01*
X157322500Y-47363000D02*
X156322500Y-47363000D01*
X157572500Y-49563000D02*
X157572500Y-44163000D01*
X157572500Y-44163000D02*
X156072500Y-44163000D01*
X175122500Y-53688000D02*
X175122500Y-59088000D01*
X176622500Y-59088000D02*
X175122500Y-59088000D01*
X175872500Y-55988000D02*
X176372500Y-56888000D01*
X176372500Y-55888000D02*
X175372500Y-55888000D01*
X175372500Y-56888000D02*
X175872500Y-55988000D01*
X176622500Y-53688000D02*
X175122500Y-53688000D01*
X176372500Y-56888000D02*
X175372500Y-56888000D01*
X176622500Y-59088000D02*
X176622500Y-53688000D01*
X81122500Y-60968000D02*
X80122500Y-60968000D01*
X79872500Y-58768000D02*
X79872500Y-64168000D01*
X81372500Y-64168000D02*
X79872500Y-64168000D01*
X80622500Y-61068000D02*
X81122500Y-61968000D01*
X80122500Y-61968000D02*
X80622500Y-61068000D01*
X81372500Y-64168000D02*
X81372500Y-58768000D01*
X81372500Y-58768000D02*
X79872500Y-58768000D01*
X81122500Y-61968000D02*
X80122500Y-61968000D01*
X100172500Y-56888000D02*
X99172500Y-56888000D01*
X99672500Y-55988000D02*
X100172500Y-56888000D01*
X100422500Y-59088000D02*
X98922500Y-59088000D01*
X100172500Y-55888000D02*
X99172500Y-55888000D01*
X100422500Y-59088000D02*
X100422500Y-53688000D01*
X99172500Y-56888000D02*
X99672500Y-55988000D01*
X98922500Y-53688000D02*
X98922500Y-59088000D01*
X100422500Y-53688000D02*
X98922500Y-53688000D01*
X118722500Y-52683000D02*
X119222500Y-53583000D01*
X117972500Y-50383000D02*
X117972500Y-55783000D01*
X118222500Y-53583000D02*
X118722500Y-52683000D01*
X119222500Y-53583000D02*
X118222500Y-53583000D01*
X119472500Y-55783000D02*
X119472500Y-50383000D01*
X119472500Y-55783000D02*
X117972500Y-55783000D01*
X119472500Y-50383000D02*
X117972500Y-50383000D01*
X119222500Y-52583000D02*
X118222500Y-52583000D01*
X138522500Y-59723000D02*
X138522500Y-54323000D01*
X138522500Y-54323000D02*
X137022500Y-54323000D01*
X137272500Y-57523000D02*
X137772500Y-56623000D01*
X137772500Y-56623000D02*
X138272500Y-57523000D01*
X138272500Y-56523000D02*
X137272500Y-56523000D01*
X138522500Y-59723000D02*
X137022500Y-59723000D01*
X137022500Y-54323000D02*
X137022500Y-59723000D01*
X138272500Y-57523000D02*
X137272500Y-57523000D01*
X156822500Y-65513000D02*
X157322500Y-66413000D01*
X157322500Y-65413000D02*
X156322500Y-65413000D01*
X157572500Y-68613000D02*
X157572500Y-63213000D01*
X156072500Y-63213000D02*
X156072500Y-68613000D01*
X157572500Y-63213000D02*
X156072500Y-63213000D01*
X157322500Y-66413000D02*
X156322500Y-66413000D01*
X157572500Y-68613000D02*
X156072500Y-68613000D01*
X156322500Y-66413000D02*
X156822500Y-65513000D01*
X176622500Y-78138000D02*
X175122500Y-78138000D01*
X175122500Y-72738000D02*
X175122500Y-78138000D01*
X175872500Y-75038000D02*
X176372500Y-75938000D01*
X176372500Y-74938000D02*
X175372500Y-74938000D01*
X175372500Y-75938000D02*
X175872500Y-75038000D01*
X176372500Y-75938000D02*
X175372500Y-75938000D01*
X176622500Y-72738000D02*
X175122500Y-72738000D01*
X176622500Y-78138000D02*
X176622500Y-72738000D01*
X81122500Y-79888000D02*
X80122500Y-79888000D01*
X81372500Y-83088000D02*
X79872500Y-83088000D01*
X80122500Y-80888000D02*
X80622500Y-79988000D01*
X79872500Y-77688000D02*
X79872500Y-83088000D01*
X80622500Y-79988000D02*
X81122500Y-80888000D01*
X81372500Y-83088000D02*
X81372500Y-77688000D01*
X81122500Y-80888000D02*
X80122500Y-80888000D01*
X81372500Y-77688000D02*
X79872500Y-77688000D01*
X100422500Y-72738000D02*
X98922500Y-72738000D01*
X100172500Y-74938000D02*
X99172500Y-74938000D01*
X100422500Y-78138000D02*
X98922500Y-78138000D01*
X98922500Y-72738000D02*
X98922500Y-78138000D01*
X99172500Y-75938000D02*
X99672500Y-75038000D01*
X100422500Y-78138000D02*
X100422500Y-72738000D01*
X99672500Y-75038000D02*
X100172500Y-75938000D01*
X100172500Y-75938000D02*
X99172500Y-75938000D01*
X117972500Y-69563000D02*
X117972500Y-74963000D01*
X119472500Y-74963000D02*
X119472500Y-69563000D01*
X119222500Y-71763000D02*
X118222500Y-71763000D01*
X119222500Y-72763000D02*
X118222500Y-72763000D01*
X118222500Y-72763000D02*
X118722500Y-71863000D01*
X119472500Y-69563000D02*
X117972500Y-69563000D01*
X119472500Y-74963000D02*
X117972500Y-74963000D01*
X118722500Y-71863000D02*
X119222500Y-72763000D01*
X137022500Y-73373000D02*
X137022500Y-78773000D01*
X138522500Y-78773000D02*
X138522500Y-73373000D01*
X138272500Y-75573000D02*
X137272500Y-75573000D01*
X138522500Y-73373000D02*
X137022500Y-73373000D01*
X137772500Y-75673000D02*
X138272500Y-76573000D01*
X138522500Y-78773000D02*
X137022500Y-78773000D01*
X138272500Y-76573000D02*
X137272500Y-76573000D01*
X137272500Y-76573000D02*
X137772500Y-75673000D01*
X156072500Y-82263000D02*
X156072500Y-87663000D01*
X156322500Y-85463000D02*
X156822500Y-84563000D01*
X157322500Y-84463000D02*
X156322500Y-84463000D01*
X157572500Y-87663000D02*
X156072500Y-87663000D01*
X156822500Y-84563000D02*
X157322500Y-85463000D01*
X157572500Y-82263000D02*
X156072500Y-82263000D01*
X157322500Y-85463000D02*
X156322500Y-85463000D01*
X157572500Y-87663000D02*
X157572500Y-82263000D01*
X176622500Y-97188000D02*
X175122500Y-97188000D01*
X176622500Y-91788000D02*
X175122500Y-91788000D01*
X176622500Y-97188000D02*
X176622500Y-91788000D01*
X176372500Y-94988000D02*
X175372500Y-94988000D01*
X175122500Y-91788000D02*
X175122500Y-97188000D01*
X175372500Y-94988000D02*
X175872500Y-94088000D01*
X175872500Y-94088000D02*
X176372500Y-94988000D01*
X176372500Y-93988000D02*
X175372500Y-93988000D01*
X53134487Y-106601013D02*
X52634487Y-105734987D01*
X54000513Y-106101013D02*
X53500513Y-105234987D01*
X56030769Y-105217519D02*
X55280769Y-103918481D01*
X51354231Y-107917519D02*
X50604231Y-106618481D01*
X52634487Y-105734987D02*
X53663910Y-105718000D01*
X51354231Y-107917519D02*
X56030769Y-105217519D01*
X55280769Y-103918481D02*
X50604231Y-106618481D01*
X53663910Y-105718000D02*
X53134487Y-106601013D01*
X69644487Y-97076013D02*
X69144487Y-96209987D01*
X70173910Y-96193000D02*
X69644487Y-97076013D01*
X72540769Y-95692519D02*
X71790769Y-94393481D01*
X70510513Y-96576013D02*
X70010513Y-95709987D01*
X69144487Y-96209987D02*
X70173910Y-96193000D01*
X67864231Y-98392519D02*
X72540769Y-95692519D01*
X71790769Y-94393481D02*
X67114231Y-97093481D01*
X67864231Y-98392519D02*
X67114231Y-97093481D01*
X85587500Y-99408000D02*
X85587500Y-104808000D01*
X86337500Y-101708000D02*
X86837500Y-102608000D01*
X85837500Y-102608000D02*
X86337500Y-101708000D01*
X87087500Y-99408000D02*
X85587500Y-99408000D01*
X86837500Y-102608000D02*
X85837500Y-102608000D01*
X86837500Y-101608000D02*
X85837500Y-101608000D01*
X87087500Y-104808000D02*
X87087500Y-99408000D01*
X87087500Y-104808000D02*
X85587500Y-104808000D01*
X105887500Y-101608000D02*
X104887500Y-101608000D01*
X105887500Y-102608000D02*
X104887500Y-102608000D01*
X106137500Y-99408000D02*
X104637500Y-99408000D01*
X104637500Y-99408000D02*
X104637500Y-104808000D01*
X105387500Y-101708000D02*
X105887500Y-102608000D01*
X106137500Y-104808000D02*
X104637500Y-104808000D01*
X104887500Y-102608000D02*
X105387500Y-101708000D01*
X106137500Y-104808000D02*
X106137500Y-99408000D01*
G36*
X47008236Y-120516325D02*
G01*
X46500236Y-119636443D01*
X47380118Y-119128443D01*
X47008236Y-120516325D01*
G37*
X47008236Y-120516325D02*
X46500236Y-119636443D01*
X47380118Y-119128443D01*
X47008236Y-120516325D01*
G36*
X125476000Y-66802000D02*
G01*
X124460000Y-66802000D01*
X124460000Y-65786000D01*
X125476000Y-66802000D01*
G37*
X125476000Y-66802000D02*
X124460000Y-66802000D01*
X124460000Y-65786000D01*
X125476000Y-66802000D01*
G36*
X63495736Y-110991325D02*
G01*
X62987736Y-110111443D01*
X63867618Y-109603443D01*
X63495736Y-110991325D01*
G37*
X63495736Y-110991325D02*
X62987736Y-110111443D01*
X63867618Y-109603443D01*
X63495736Y-110991325D01*
G36*
X125453500Y-47752000D02*
G01*
X124437500Y-47752000D01*
X124437500Y-46736000D01*
X125453500Y-47752000D01*
G37*
X125453500Y-47752000D02*
X124437500Y-47752000D01*
X124437500Y-46736000D01*
X125453500Y-47752000D01*
G36*
X93091000Y-104267000D02*
G01*
X92075000Y-104267000D01*
X92075000Y-103251000D01*
X93091000Y-104267000D01*
G37*
X93091000Y-104267000D02*
X92075000Y-104267000D01*
X92075000Y-103251000D01*
X93091000Y-104267000D01*
G36*
X144526000Y-52197000D02*
G01*
X143510000Y-52197000D01*
X143510000Y-51181000D01*
X144526000Y-52197000D01*
G37*
X144526000Y-52197000D02*
X143510000Y-52197000D01*
X143510000Y-51181000D01*
X144526000Y-52197000D01*
G36*
X87376000Y-95377000D02*
G01*
X86360000Y-95377000D01*
X86360000Y-94361000D01*
X87376000Y-95377000D01*
G37*
X87376000Y-95377000D02*
X86360000Y-95377000D01*
X86360000Y-94361000D01*
X87376000Y-95377000D01*
G36*
X144526000Y-71247000D02*
G01*
X143510000Y-71247000D01*
X143510000Y-70231000D01*
X144526000Y-71247000D01*
G37*
X144526000Y-71247000D02*
X143510000Y-71247000D01*
X143510000Y-70231000D01*
X144526000Y-71247000D01*
G36*
X87376000Y-76327000D02*
G01*
X86360000Y-76327000D01*
X86360000Y-75311000D01*
X87376000Y-76327000D01*
G37*
X87376000Y-76327000D02*
X86360000Y-76327000D01*
X86360000Y-75311000D01*
X87376000Y-76327000D01*
G36*
X144503500Y-90297000D02*
G01*
X143487500Y-90297000D01*
X143487500Y-89281000D01*
X144503500Y-90297000D01*
G37*
X144503500Y-90297000D02*
X143487500Y-90297000D01*
X143487500Y-89281000D01*
X144503500Y-90297000D01*
G36*
X87376000Y-57277000D02*
G01*
X86360000Y-57277000D01*
X86360000Y-56261000D01*
X87376000Y-57277000D01*
G37*
X87376000Y-57277000D02*
X86360000Y-57277000D01*
X86360000Y-56261000D01*
X87376000Y-57277000D01*
G36*
X163576000Y-99187000D02*
G01*
X162560000Y-99187000D01*
X162560000Y-98171000D01*
X163576000Y-99187000D01*
G37*
X163576000Y-99187000D02*
X162560000Y-99187000D01*
X162560000Y-98171000D01*
X163576000Y-99187000D01*
G36*
X106426000Y-52197000D02*
G01*
X105410000Y-52197000D01*
X105410000Y-51181000D01*
X106426000Y-52197000D01*
G37*
X106426000Y-52197000D02*
X105410000Y-52197000D01*
X105410000Y-51181000D01*
X106426000Y-52197000D01*
G36*
X163553500Y-80137000D02*
G01*
X162537500Y-80137000D01*
X162537500Y-79121000D01*
X163553500Y-80137000D01*
G37*
X163553500Y-80137000D02*
X162537500Y-80137000D01*
X162537500Y-79121000D01*
X163553500Y-80137000D01*
G36*
X106426000Y-71247000D02*
G01*
X105410000Y-71247000D01*
X105410000Y-70231000D01*
X106426000Y-71247000D01*
G37*
X106426000Y-71247000D02*
X105410000Y-71247000D01*
X105410000Y-70231000D01*
X106426000Y-71247000D01*
G36*
X163553500Y-61087000D02*
G01*
X162537500Y-61087000D01*
X162537500Y-60071000D01*
X163553500Y-61087000D01*
G37*
X163553500Y-61087000D02*
X162537500Y-61087000D01*
X162537500Y-60071000D01*
X163553500Y-61087000D01*
G36*
X106426000Y-90297000D02*
G01*
X105410000Y-90297000D01*
X105410000Y-89281000D01*
X106426000Y-90297000D01*
G37*
X106426000Y-90297000D02*
X105410000Y-90297000D01*
X105410000Y-89281000D01*
X106426000Y-90297000D01*
G36*
X182626000Y-70612000D02*
G01*
X181610000Y-70612000D01*
X181610000Y-69596000D01*
X182626000Y-70612000D01*
G37*
X182626000Y-70612000D02*
X181610000Y-70612000D01*
X181610000Y-69596000D01*
X182626000Y-70612000D01*
G36*
X117960500Y-101981000D02*
G01*
X117960500Y-100965000D01*
X118976500Y-100965000D01*
X117960500Y-101981000D01*
G37*
X117960500Y-101981000D02*
X117960500Y-100965000D01*
X118976500Y-100965000D01*
X117960500Y-101981000D01*
G36*
X182603500Y-89662000D02*
G01*
X181587500Y-89662000D01*
X181587500Y-88646000D01*
X182603500Y-89662000D01*
G37*
X182603500Y-89662000D02*
X181587500Y-89662000D01*
X181587500Y-88646000D01*
X182603500Y-89662000D01*
G36*
X125453500Y-85852000D02*
G01*
X124437500Y-85852000D01*
X124437500Y-84836000D01*
X125453500Y-85852000D01*
G37*
X125453500Y-85852000D02*
X124437500Y-85852000D01*
X124437500Y-84836000D01*
X125453500Y-85852000D01*
G36*
X182626000Y-108712000D02*
G01*
X181610000Y-108712000D01*
X181610000Y-107696000D01*
X182626000Y-108712000D01*
G37*
X182626000Y-108712000D02*
X181610000Y-108712000D01*
X181610000Y-107696000D01*
X182626000Y-108712000D01*
X96047500Y-48938000D02*
X92767500Y-48938000D01*
X96047500Y-46338000D02*
X95847500Y-46338000D01*
X85547500Y-46038000D02*
X85747500Y-46038000D01*
X90547500Y-47038000D02*
X85547500Y-47038000D01*
X85547500Y-43438000D02*
X93947500Y-43437999D01*
X85747500Y-43788000D02*
X85547500Y-43788000D01*
X85547500Y-43788000D02*
X85547500Y-43438000D01*
X96047500Y-48938000D02*
X96047500Y-48578000D01*
X95847500Y-48578000D02*
X96047500Y-48578000D01*
X95817500Y-46338000D02*
X95817500Y-48578000D01*
X96047500Y-45338000D02*
X96047500Y-46338000D01*
X85547500Y-47038000D02*
X85547500Y-46038000D01*
X85767500Y-46038000D02*
X85767500Y-43788000D01*
X96047501Y-45338000D02*
G75*
G03*
X93947500Y-43437999I-2000001J-100000D01*
G01*
X92763818Y-48916529D02*
G75*
G03*
X90547500Y-47038000I-2151318J-291471D01*
G01*
X115097500Y-41258000D02*
X114897500Y-41258000D01*
X115097500Y-40258000D02*
X115097500Y-41258000D01*
X104597500Y-41958000D02*
X104597500Y-40958000D01*
X109597500Y-41958000D02*
X104597500Y-41958000D01*
X104597500Y-40958000D02*
X104797500Y-40958000D01*
X104797500Y-38708000D02*
X104597500Y-38708000D01*
X114867500Y-41258000D02*
X114867500Y-43498000D01*
X104817500Y-40958000D02*
X104817500Y-38708000D01*
X114897500Y-43498000D02*
X115097500Y-43498000D01*
X115097500Y-43858000D02*
X111817500Y-43858000D01*
X104597500Y-38708000D02*
X104597500Y-38358000D01*
X115097500Y-43858000D02*
X115097500Y-43498000D01*
X104597500Y-38358000D02*
X112997500Y-38357999D01*
X115097501Y-40258000D02*
G75*
G03*
X112997500Y-38357999I-2000001J-100000D01*
G01*
X111813818Y-43836529D02*
G75*
G03*
X109597500Y-41958000I-2151318J-291471D01*
G01*
X128647500Y-37513000D02*
X123647500Y-37513000D01*
X133947500Y-39053000D02*
X134147500Y-39053000D01*
X134147500Y-39413000D02*
X130867500Y-39413000D01*
X134147500Y-39413000D02*
X134147500Y-39053000D01*
X123647500Y-37513000D02*
X123647500Y-36513000D01*
X134147500Y-35813000D02*
X134147500Y-36813000D01*
X123647500Y-33913000D02*
X132047500Y-33912999D01*
X123647500Y-34263000D02*
X123647500Y-33913000D01*
X134147500Y-36813000D02*
X133947500Y-36813000D01*
X123847500Y-34263000D02*
X123647500Y-34263000D01*
X133917500Y-36813000D02*
X133917500Y-39053000D01*
X123867500Y-36513000D02*
X123867500Y-34263000D01*
X123647500Y-36513000D02*
X123847500Y-36513000D01*
X130863818Y-39391529D02*
G75*
G03*
X128647500Y-37513000I-2151318J-291471D01*
G01*
X134147501Y-35813000D02*
G75*
G03*
X132047500Y-33912999I-2000001J-100000D01*
G01*
X147697500Y-41958000D02*
X142697500Y-41958000D01*
X153197500Y-41258000D02*
X152997500Y-41258000D01*
X142697500Y-40958000D02*
X142897500Y-40958000D01*
X153197500Y-43858000D02*
X153197500Y-43498000D01*
X142917500Y-40958000D02*
X142917500Y-38708000D01*
X152997500Y-43498000D02*
X153197500Y-43498000D01*
X152967500Y-41258000D02*
X152967500Y-43498000D01*
X142697500Y-41958000D02*
X142697500Y-40958000D01*
X142697500Y-38708000D02*
X142697500Y-38358000D01*
X142897500Y-38708000D02*
X142697500Y-38708000D01*
X153197500Y-43858000D02*
X149917500Y-43858000D01*
X142697500Y-38358000D02*
X151097500Y-38357999D01*
X153197500Y-40258000D02*
X153197500Y-41258000D01*
X153197501Y-40258000D02*
G75*
G03*
X151097500Y-38357999I-2000001J-100000D01*
G01*
X149913818Y-43836529D02*
G75*
G03*
X147697500Y-41958000I-2151318J-291471D01*
G01*
X161747500Y-49848000D02*
X161947500Y-49848000D01*
X172047500Y-52388000D02*
X172247500Y-52388000D01*
X172247500Y-50148000D02*
X172047500Y-50148000D01*
X172017500Y-50148000D02*
X172017500Y-52388000D01*
X161947500Y-47598000D02*
X161747500Y-47598000D01*
X172247500Y-49148000D02*
X172247500Y-50148000D01*
X161747500Y-47248000D02*
X170147500Y-47247999D01*
X172247500Y-52748000D02*
X168967500Y-52748000D01*
X172247500Y-52748000D02*
X172247500Y-52388000D01*
X161747500Y-50848000D02*
X161747500Y-49848000D01*
X161967500Y-49848000D02*
X161967500Y-47598000D01*
X166747500Y-50848000D02*
X161747500Y-50848000D01*
X161747500Y-47598000D02*
X161747500Y-47248000D01*
X168963818Y-52726529D02*
G75*
G03*
X166747500Y-50848000I-2151318J-291471D01*
G01*
X172247501Y-49148000D02*
G75*
G03*
X170147500Y-47247999I-2000001J-100000D01*
G01*
X191067500Y-59673000D02*
X191067500Y-61913000D01*
X180797500Y-57123000D02*
X180797500Y-56773000D01*
X180797500Y-56773000D02*
X189197500Y-56772999D01*
X191297500Y-58673000D02*
X191297500Y-59673000D01*
X185797500Y-60373000D02*
X180797500Y-60373000D01*
X180797500Y-60373000D02*
X180797500Y-59373000D01*
X191297500Y-62273000D02*
X191297500Y-61913000D01*
X180997500Y-57123000D02*
X180797500Y-57123000D01*
X180797500Y-59373000D02*
X180997500Y-59373000D01*
X191297500Y-59673000D02*
X191097500Y-59673000D01*
X181017500Y-59373000D02*
X181017500Y-57123000D01*
X191297500Y-62273000D02*
X188017500Y-62273000D01*
X191097500Y-61913000D02*
X191297500Y-61913000D01*
X191297501Y-58673000D02*
G75*
G03*
X189197500Y-56772999I-2000001J-100000D01*
G01*
X188013818Y-62251529D02*
G75*
G03*
X185797500Y-60373000I-2151318J-291471D01*
G01*
X85767500Y-65088000D02*
X85767500Y-62838000D01*
X85547500Y-66088000D02*
X85547500Y-65088000D01*
X95817500Y-65388000D02*
X95817500Y-67628000D01*
X96047500Y-67988000D02*
X96047500Y-67628000D01*
X85547500Y-65088000D02*
X85747500Y-65088000D01*
X96047500Y-67988000D02*
X92767500Y-67988000D01*
X95847500Y-67628000D02*
X96047500Y-67628000D01*
X85547500Y-62488000D02*
X93947500Y-62487999D01*
X96047500Y-64388000D02*
X96047500Y-65388000D01*
X85747500Y-62838000D02*
X85547500Y-62838000D01*
X90547500Y-66088000D02*
X85547500Y-66088000D01*
X85547500Y-62838000D02*
X85547500Y-62488000D01*
X96047500Y-65388000D02*
X95847500Y-65388000D01*
X96047501Y-64388000D02*
G75*
G03*
X93947500Y-62487999I-2000001J-100000D01*
G01*
X92763818Y-67966529D02*
G75*
G03*
X90547500Y-66088000I-2151318J-291471D01*
G01*
X115097500Y-62908000D02*
X115097500Y-62548000D01*
X104597500Y-61008000D02*
X104597500Y-60008000D01*
X115097500Y-60308000D02*
X114897500Y-60308000D01*
X114897500Y-62548000D02*
X115097500Y-62548000D01*
X104817500Y-60008000D02*
X104817500Y-57758000D01*
X104597500Y-57408000D02*
X112997500Y-57407999D01*
X104797500Y-57758000D02*
X104597500Y-57758000D01*
X109597500Y-61008000D02*
X104597500Y-61008000D01*
X115097500Y-62908000D02*
X111817500Y-62908000D01*
X114867500Y-60308000D02*
X114867500Y-62548000D01*
X104597500Y-57758000D02*
X104597500Y-57408000D01*
X104597500Y-60008000D02*
X104797500Y-60008000D01*
X115097500Y-59308000D02*
X115097500Y-60308000D01*
X115097501Y-59308000D02*
G75*
G03*
X112997500Y-57407999I-2000001J-100000D01*
G01*
X111813818Y-62886529D02*
G75*
G03*
X109597500Y-61008000I-2151318J-291471D01*
G01*
X123867500Y-55563000D02*
X123867500Y-53313000D01*
X134147500Y-55863000D02*
X133947500Y-55863000D01*
X134147500Y-58463000D02*
X130867500Y-58463000D01*
X123647500Y-53313000D02*
X123647500Y-52963000D01*
X123847500Y-53313000D02*
X123647500Y-53313000D01*
X133947500Y-58103000D02*
X134147500Y-58103000D01*
X123647500Y-52963000D02*
X132047500Y-52962999D01*
X123647500Y-56563000D02*
X123647500Y-55563000D01*
X134147500Y-54863000D02*
X134147500Y-55863000D01*
X128647500Y-56563000D02*
X123647500Y-56563000D01*
X134147500Y-58463000D02*
X134147500Y-58103000D01*
X123647500Y-55563000D02*
X123847500Y-55563000D01*
X133917500Y-55863000D02*
X133917500Y-58103000D01*
X134147501Y-54863000D02*
G75*
G03*
X132047500Y-52962999I-2000001J-100000D01*
G01*
X130863818Y-58441529D02*
G75*
G03*
X128647500Y-56563000I-2151318J-291471D01*
G01*
X153197500Y-62908000D02*
X153197500Y-62548000D01*
X142697500Y-57408000D02*
X151097500Y-57407999D01*
X142697500Y-60008000D02*
X142897500Y-60008000D01*
X153197500Y-62908000D02*
X149917500Y-62908000D01*
X142697500Y-61008000D02*
X142697500Y-60008000D01*
X142697500Y-57758000D02*
X142697500Y-57408000D01*
X147697500Y-61008000D02*
X142697500Y-61008000D01*
X152967500Y-60308000D02*
X152967500Y-62548000D01*
X153197500Y-59308000D02*
X153197500Y-60308000D01*
X142917500Y-60008000D02*
X142917500Y-57758000D01*
X152997500Y-62548000D02*
X153197500Y-62548000D01*
X153197500Y-60308000D02*
X152997500Y-60308000D01*
X142897500Y-57758000D02*
X142697500Y-57758000D01*
X153197501Y-59308000D02*
G75*
G03*
X151097500Y-57407999I-2000001J-100000D01*
G01*
X149913818Y-62886529D02*
G75*
G03*
X147697500Y-61008000I-2151318J-291471D01*
G01*
X166747500Y-69898000D02*
X161747500Y-69898000D01*
X161747500Y-66648000D02*
X161747500Y-66298000D01*
X172247500Y-69198000D02*
X172047500Y-69198000D01*
X161747500Y-66298000D02*
X170147500Y-66297999D01*
X161747500Y-68898000D02*
X161947500Y-68898000D01*
X172247500Y-68198000D02*
X172247500Y-69198000D01*
X172247500Y-71798000D02*
X168967500Y-71798000D01*
X172017500Y-69198000D02*
X172017500Y-71438000D01*
X161967500Y-68898000D02*
X161967500Y-66648000D01*
X172247500Y-71798000D02*
X172247500Y-71438000D01*
X161947500Y-66648000D02*
X161747500Y-66648000D01*
X172047500Y-71438000D02*
X172247500Y-71438000D01*
X161747500Y-69898000D02*
X161747500Y-68898000D01*
X172247501Y-68198000D02*
G75*
G03*
X170147500Y-66297999I-2000001J-100000D01*
G01*
X168963818Y-71776529D02*
G75*
G03*
X166747500Y-69898000I-2151318J-291471D01*
G01*
X185797500Y-79423000D02*
X180797500Y-79423000D01*
X191297500Y-77723000D02*
X191297500Y-78723000D01*
X191067500Y-78723000D02*
X191067500Y-80963000D01*
X180797500Y-79423000D02*
X180797500Y-78423000D01*
X180797500Y-76173000D02*
X180797500Y-75823000D01*
X180997500Y-76173000D02*
X180797500Y-76173000D01*
X191297500Y-78723000D02*
X191097500Y-78723000D01*
X191297500Y-81323000D02*
X188017500Y-81323000D01*
X180797500Y-78423000D02*
X180997500Y-78423000D01*
X191297500Y-81323000D02*
X191297500Y-80963000D01*
X191097500Y-80963000D02*
X191297500Y-80963000D01*
X181017500Y-78423000D02*
X181017500Y-76173000D01*
X180797500Y-75823000D02*
X189197500Y-75822999D01*
X191297501Y-77723000D02*
G75*
G03*
X189197500Y-75822999I-2000001J-100000D01*
G01*
X188013818Y-81301529D02*
G75*
G03*
X185797500Y-79423000I-2151318J-291471D01*
G01*
X95817500Y-84438000D02*
X95817500Y-86678000D01*
X85767500Y-84138000D02*
X85767500Y-81888000D01*
X96047500Y-83438000D02*
X96047500Y-84438000D01*
X85547500Y-84138000D02*
X85747500Y-84138000D01*
X96047500Y-87038000D02*
X96047500Y-86678000D01*
X96047500Y-87038000D02*
X92767500Y-87038000D01*
X85547500Y-81888000D02*
X85547500Y-81538000D01*
X95847500Y-86678000D02*
X96047500Y-86678000D01*
X85747500Y-81888000D02*
X85547500Y-81888000D01*
X96047500Y-84438000D02*
X95847500Y-84438000D01*
X85547500Y-85138000D02*
X85547500Y-84138000D01*
X85547500Y-81538000D02*
X93947500Y-81537999D01*
X90547500Y-85138000D02*
X85547500Y-85138000D01*
X96047501Y-83438000D02*
G75*
G03*
X93947500Y-81537999I-2000001J-100000D01*
G01*
X92763818Y-87016529D02*
G75*
G03*
X90547500Y-85138000I-2151318J-291471D01*
G01*
X104597500Y-76458000D02*
X112997500Y-76457999D01*
X104597500Y-76808000D02*
X104597500Y-76458000D01*
X104817500Y-79058000D02*
X104817500Y-76808000D01*
X114867500Y-79358000D02*
X114867500Y-81598000D01*
X104597500Y-79058000D02*
X104797500Y-79058000D01*
X109597500Y-80058000D02*
X104597500Y-80058000D01*
X114897500Y-81598000D02*
X115097500Y-81598000D01*
X104797500Y-76808000D02*
X104597500Y-76808000D01*
X115097500Y-81958000D02*
X115097500Y-81598000D01*
X115097500Y-78358000D02*
X115097500Y-79358000D01*
X104597500Y-80058000D02*
X104597500Y-79058000D01*
X115097500Y-81958000D02*
X111817500Y-81958000D01*
X115097500Y-79358000D02*
X114897500Y-79358000D01*
X111813818Y-81936529D02*
G75*
G03*
X109597500Y-80058000I-2151318J-291471D01*
G01*
X115097501Y-78358000D02*
G75*
G03*
X112997500Y-76457999I-2000001J-100000D01*
G01*
X123647500Y-74613000D02*
X123847500Y-74613000D01*
X123647500Y-72363000D02*
X123647500Y-72013000D01*
X123847500Y-72363000D02*
X123647500Y-72363000D01*
X134147500Y-74913000D02*
X133947500Y-74913000D01*
X128647500Y-75613000D02*
X123647500Y-75613000D01*
X123647500Y-75613000D02*
X123647500Y-74613000D01*
X123647500Y-72013000D02*
X132047500Y-72012999D01*
X133947500Y-77153000D02*
X134147500Y-77153000D01*
X123867500Y-74613000D02*
X123867500Y-72363000D01*
X134147500Y-77513000D02*
X134147500Y-77153000D01*
X134147500Y-73913000D02*
X134147500Y-74913000D01*
X133917500Y-74913000D02*
X133917500Y-77153000D01*
X134147500Y-77513000D02*
X130867500Y-77513000D01*
X134147501Y-73913000D02*
G75*
G03*
X132047500Y-72012999I-2000001J-100000D01*
G01*
X130863818Y-77491529D02*
G75*
G03*
X128647500Y-75613000I-2151318J-291471D01*
G01*
X142697500Y-80058000D02*
X142697500Y-79058000D01*
X142917500Y-79058000D02*
X142917500Y-76808000D01*
X147697500Y-80058000D02*
X142697500Y-80058000D01*
X142897500Y-76808000D02*
X142697500Y-76808000D01*
X153197500Y-78358000D02*
X153197500Y-79358000D01*
X142697500Y-76808000D02*
X142697500Y-76458000D01*
X153197500Y-79358000D02*
X152997500Y-79358000D01*
X152997500Y-81598000D02*
X153197500Y-81598000D01*
X142697500Y-76458000D02*
X151097500Y-76457999D01*
X153197500Y-81958000D02*
X153197500Y-81598000D01*
X153197500Y-81958000D02*
X149917500Y-81958000D01*
X152967500Y-79358000D02*
X152967500Y-81598000D01*
X142697500Y-79058000D02*
X142897500Y-79058000D01*
X149913818Y-81936529D02*
G75*
G03*
X147697500Y-80058000I-2151318J-291471D01*
G01*
X153197501Y-78358000D02*
G75*
G03*
X151097500Y-76457999I-2000001J-100000D01*
G01*
X161747500Y-85698000D02*
X161747500Y-85348000D01*
X161947500Y-85698000D02*
X161747500Y-85698000D01*
X166747500Y-88948000D02*
X161747500Y-88948000D01*
X172247500Y-87248000D02*
X172247500Y-88248000D01*
X172247500Y-90848000D02*
X168967500Y-90848000D01*
X172247500Y-90848000D02*
X172247500Y-90488000D01*
X161967500Y-87948000D02*
X161967500Y-85698000D01*
X172017500Y-88248000D02*
X172017500Y-90488000D01*
X172247500Y-88248000D02*
X172047500Y-88248000D01*
X161747500Y-85348000D02*
X170147500Y-85347999D01*
X172047500Y-90488000D02*
X172247500Y-90488000D01*
X161747500Y-88948000D02*
X161747500Y-87948000D01*
X161747500Y-87948000D02*
X161947500Y-87948000D01*
X168963818Y-90826529D02*
G75*
G03*
X166747500Y-88948000I-2151318J-291471D01*
G01*
X172247501Y-87248000D02*
G75*
G03*
X170147500Y-85347999I-2000001J-100000D01*
G01*
X180797500Y-98473000D02*
X180797500Y-97473000D01*
X191067500Y-97773000D02*
X191067500Y-100013000D01*
X180997500Y-95223000D02*
X180797500Y-95223000D01*
X191097500Y-100013000D02*
X191297500Y-100013000D01*
X191297500Y-100373000D02*
X191297500Y-100013000D01*
X191297500Y-96773000D02*
X191297500Y-97773000D01*
X191297500Y-97773000D02*
X191097500Y-97773000D01*
X180797500Y-97473000D02*
X180997500Y-97473000D01*
X181017500Y-97473000D02*
X181017500Y-95223000D01*
X180797500Y-94873000D02*
X189197500Y-94872999D01*
X180797500Y-95223000D02*
X180797500Y-94873000D01*
X185797500Y-98473000D02*
X180797500Y-98473000D01*
X191297500Y-100373000D02*
X188017500Y-100373000D01*
X188013818Y-100351529D02*
G75*
G03*
X185797500Y-98473000I-2151318J-291471D01*
G01*
X191297501Y-96773000D02*
G75*
G03*
X189197500Y-94872999I-2000001J-100000D01*
G01*
X58701897Y-123459345D02*
X58801897Y-123632550D01*
X58490128Y-123812550D02*
X58801897Y-123632550D01*
X55861602Y-113459809D02*
X57810159Y-112334809D01*
D10*
X60778396Y-122375946D02*
X61557819Y-121925948D01*
D11*
X55751602Y-113269283D02*
X55851602Y-113442488D01*
X58490128Y-123812550D02*
X56850128Y-120971987D01*
X61607819Y-122012550D02*
X60741794Y-122512550D01*
X58003268Y-111969283D02*
X62203269Y-119243896D01*
X57385576Y-118099410D02*
X54885576Y-113769283D01*
X60626794Y-122313364D02*
X58686897Y-123433364D01*
X57800159Y-112317488D02*
X57700159Y-112144283D01*
X57700159Y-112144283D02*
X58003268Y-111969283D01*
X54885576Y-113769283D02*
X55751602Y-113269283D01*
X60741794Y-122512550D02*
X60641794Y-122339345D01*
X56866881Y-120958062D02*
G75*
G03*
X57385576Y-118099410I-1328080J1717360D01*
G01*
X61607820Y-122012551D02*
G75*
G03*
X62203269Y-119243896I-1086603J1682052D01*
G01*
X72371602Y-103934809D02*
X74320159Y-102809809D01*
X78117819Y-112487550D02*
X77251794Y-112987550D01*
D10*
X77288396Y-112850946D02*
X78067819Y-112400948D01*
D11*
X74310159Y-102792488D02*
X74210159Y-102619283D01*
X74210159Y-102619283D02*
X74513268Y-102444283D01*
X73895576Y-108574410D02*
X71395576Y-104244283D01*
X75211897Y-113934345D02*
X75311897Y-114107550D01*
X72261602Y-103744283D02*
X72361602Y-103917488D01*
X75000128Y-114287550D02*
X75311897Y-114107550D01*
X77251794Y-112987550D02*
X77151794Y-112814345D01*
X71395576Y-104244283D02*
X72261602Y-103744283D01*
X77136794Y-112788364D02*
X75196897Y-113908364D01*
X75000128Y-114287550D02*
X73360128Y-111446987D01*
X74513268Y-102444283D02*
X78713269Y-109718896D01*
X78117820Y-112487551D02*
G75*
G03*
X78713269Y-109718896I-1086603J1682052D01*
G01*
X73376881Y-111433062D02*
G75*
G03*
X73895576Y-108574410I-1328080J1717360D01*
G01*
X100262500Y-113438000D02*
X100462500Y-113438000D01*
X89962500Y-108288000D02*
X93242500Y-108288000D01*
X90162500Y-108648000D02*
X89962500Y-108648000D01*
X89962500Y-111888000D02*
X89962500Y-110888000D01*
X100462500Y-111188000D02*
X100262500Y-111188000D01*
X100462500Y-113788000D02*
X92062500Y-113788001D01*
X89962500Y-108288000D02*
X89962500Y-108648000D01*
X95462500Y-110188000D02*
X100462500Y-110188000D01*
X89962500Y-110888000D02*
X90162500Y-110888000D01*
X100242500Y-111188000D02*
X100242500Y-113438000D01*
X100462500Y-110188000D02*
X100462500Y-111188000D01*
X90192500Y-110888000D02*
X90192500Y-108648000D01*
X100462500Y-113438000D02*
X100462500Y-113788000D01*
X93246182Y-108309471D02*
G75*
G03*
X95462500Y-110188000I2151318J291471D01*
G01*
X89962499Y-111888000D02*
G75*
G03*
X92062500Y-113788001I2000001J100000D01*
G01*
X108662500Y-109248000D02*
X108312500Y-109248000D01*
X110912500Y-109028000D02*
X108662500Y-109028000D01*
X110212500Y-98748000D02*
X111212500Y-98748000D01*
X108662500Y-109048000D02*
X108662500Y-109248000D01*
X111912500Y-109248000D02*
X110912500Y-109248000D01*
X110912500Y-109248000D02*
X110912500Y-109048000D01*
X108312500Y-109248000D02*
X108312499Y-100848000D01*
X113812500Y-98748000D02*
X113812500Y-102028000D01*
D10*
X111112500Y-98848001D02*
X110212501Y-98848000D01*
D11*
X111212500Y-98978000D02*
X113452500Y-98978000D01*
X111212500Y-98748000D02*
X111212500Y-98948000D01*
X111912500Y-104248000D02*
X111912500Y-109248000D01*
X113812500Y-98748000D02*
X113452500Y-98748000D01*
X113452500Y-98948000D02*
X113452500Y-98748000D01*
X113791029Y-102031682D02*
G75*
G03*
X111912500Y-104248000I291471J-2151318D01*
G01*
X110212500Y-98747999D02*
G75*
G03*
X108312499Y-100848000I100000J-2000001D01*
G01*
D14*
X43111500Y-50068000D02*
X43111500Y-49528000D01*
X39441500Y-56728000D02*
X39441500Y-49008000D01*
X43111500Y-54568000D02*
X43111500Y-51168000D01*
X45941500Y-49528000D02*
X46451500Y-49528000D01*
X39441500Y-56728000D02*
X43341500Y-56728000D01*
X43111500Y-56208000D02*
X43111500Y-55668000D01*
X43111500Y-56208000D02*
X43341500Y-56208000D01*
X46451500Y-56728000D02*
X46451500Y-56208000D01*
X45941500Y-56208000D02*
X46451500Y-56208000D01*
X39441500Y-49008000D02*
X43341500Y-49008000D01*
X43111500Y-49528000D02*
X43341500Y-49528000D01*
X45941500Y-49008000D02*
X46451500Y-49008000D01*
X45941500Y-56728000D02*
X46451500Y-56728000D01*
X46451500Y-49528000D02*
X46451500Y-49008000D01*
D11*
X70498900Y-64135000D02*
X67958900Y-64135000D01*
X55278900Y-64135000D02*
X52738900Y-64135000D01*
X55278900Y-33655000D02*
X55278900Y-64135000D01*
X67958900Y-33655000D02*
X70498900Y-33655000D01*
X52738900Y-64135000D02*
X52738900Y-33655000D01*
X52738900Y-33655000D02*
X55278900Y-33655000D01*
X67958900Y-64135000D02*
X67958900Y-33655000D01*
X70498900Y-33655000D02*
X70498900Y-64135000D01*
X65397500Y-73573000D02*
X52697500Y-73573000D01*
X65397500Y-85003000D02*
X65397500Y-73573000D01*
X52697500Y-85003000D02*
X65397500Y-85003000D01*
X52697500Y-73573000D02*
X52697500Y-85003000D01*
D14*
X107112500Y-100548000D02*
X107712500Y-100548000D01*
X108212500Y-110948000D02*
X108212500Y-98348000D01*
X114412500Y-104648000D02*
X115412500Y-104648000D01*
X121612500Y-110948000D02*
X108212500Y-110948000D01*
X114912500Y-104148000D02*
X114912500Y-105148000D01*
X107412500Y-100848000D02*
X107112500Y-100548000D01*
X121612500Y-98348000D02*
X108212500Y-98348000D01*
X121612500Y-98348000D02*
X121612500Y-110948000D01*
X107712500Y-100548000D02*
X107412500Y-100848000D01*
X117912500Y-104648000D02*
G75*
G03*
X117912500Y-104648000I-3000000J0D01*
G01*
D15*
X47847500Y-70358000D03*
X40847500Y-72108000D03*
X40847500Y-70358000D03*
X47847500Y-72108000D03*
D16*
X51147500Y-72458000D03*
X42647500Y-68258000D03*
X45647500Y-68258000D03*
X49647500Y-68258000D03*
D17*
X85067500Y-50038000D03*
D18*
X90147500Y-50038000D03*
D17*
X95227500Y-50038000D03*
X114277500Y-44958000D03*
X104117500Y-44958000D03*
D18*
X109197500Y-44958000D03*
D17*
X123167500Y-40513000D03*
D18*
X128247500Y-40513000D03*
D17*
X133327500Y-40513000D03*
X142217500Y-44958000D03*
X152377500Y-44958000D03*
D18*
X147297500Y-44958000D03*
X166347500Y-53848000D03*
D17*
X161267500Y-53848000D03*
X171427500Y-53848000D03*
X180317500Y-63373000D03*
D18*
X185397500Y-63373000D03*
D17*
X190477500Y-63373000D03*
D18*
X90147500Y-69088000D03*
D17*
X95227500Y-69088000D03*
X85067500Y-69088000D03*
X104117500Y-64008000D03*
D18*
X109197500Y-64008000D03*
D17*
X114277500Y-64008000D03*
X133327500Y-59563000D03*
X123167500Y-59563000D03*
D18*
X128247500Y-59563000D03*
D17*
X152377500Y-64008000D03*
D18*
X147297500Y-64008000D03*
D17*
X142217500Y-64008000D03*
X161267500Y-72898000D03*
X171427500Y-72898000D03*
D18*
X166347500Y-72898000D03*
D17*
X190477500Y-82423000D03*
X180317500Y-82423000D03*
D18*
X185397500Y-82423000D03*
X90147500Y-88138000D03*
D17*
X85067500Y-88138000D03*
X95227500Y-88138000D03*
X114277500Y-83058000D03*
D18*
X109197500Y-83058000D03*
D17*
X104117500Y-83058000D03*
X133327500Y-78613000D03*
X123167500Y-78613000D03*
D18*
X128247500Y-78613000D03*
X147297500Y-83058000D03*
D17*
X142217500Y-83058000D03*
X152377500Y-83058000D03*
D18*
X166347500Y-91948000D03*
D17*
X171427500Y-91948000D03*
X161267500Y-91948000D03*
X180317500Y-101473000D03*
X190477500Y-101473000D03*
D18*
X185397500Y-101473000D03*
D17*
X52047500Y-114853591D03*
D18*
X54587500Y-119253000D03*
D17*
X57127500Y-123652409D03*
X68557500Y-105328591D03*
D18*
X71097500Y-109728000D03*
D17*
X73637500Y-114127409D03*
X90782500Y-107188000D03*
D18*
X95862500Y-107188000D03*
D17*
X100942500Y-107188000D03*
D18*
X114912500Y-104648000D03*
D17*
X114912500Y-109728000D03*
X114912500Y-99568000D03*
D19*
X52682500Y-36195000D03*
X69228900Y-34925000D03*
X52682500Y-38735000D03*
X69228900Y-37465000D03*
X52682500Y-41275000D03*
X69228900Y-40005000D03*
X69228900Y-42545000D03*
X52682500Y-43815000D03*
X52682500Y-46355000D03*
X69228900Y-45085000D03*
X52682500Y-48895000D03*
X69228900Y-47625000D03*
X69228900Y-50165000D03*
X52682500Y-51435000D03*
X69228900Y-52705000D03*
X52682500Y-53975000D03*
X69228900Y-55245000D03*
X52682500Y-56515000D03*
X69228900Y-57785000D03*
X52682500Y-59055000D03*
X52682500Y-61595000D03*
X69228900Y-60325000D03*
X69228900Y-62865000D03*
X52682500Y-64135000D03*
X54008900Y-62865000D03*
X67922500Y-64135000D03*
X54008900Y-60325000D03*
X67922500Y-61595000D03*
X54008900Y-57785000D03*
X67922500Y-59055000D03*
X67922500Y-56515000D03*
X54008900Y-55245000D03*
X67922500Y-53975000D03*
X54008900Y-52705000D03*
X54008900Y-50165000D03*
X67922500Y-51435000D03*
X54008900Y-47625000D03*
X67922500Y-48895000D03*
X67922500Y-46355000D03*
X54008900Y-45085000D03*
X67922500Y-43815000D03*
X54008900Y-42545000D03*
X54008900Y-40005000D03*
X67922500Y-41275000D03*
X67922500Y-38735000D03*
X54008900Y-37465000D03*
X54008900Y-34925000D03*
X67922500Y-36195000D03*
M02*
