M48
; DRILL file {KiCad 5.1.5+dfsg1-2build2} date 2020年09月19日 22時37分19秒
; FORMAT={-:-/ absolute / inch / decimal}
; #@! TF.CreationDate,2020-09-19T22:37:19+09:00
; #@! TF.GenerationSoftware,Kicad,Pcbnew,5.1.5+dfsg1-2build2
FMAT,2
INCH
T1C0.0157
T2C0.0866
%
G90
G05
T1
X2.41Y-0.625
X2.4291Y-0.5791
X2.4291Y-0.6709
X2.475Y-0.56
X2.475Y-0.69
X2.5209Y-0.5791
X2.5209Y-0.6709
X2.54Y-0.625
X6.16Y-3.75
X6.1791Y-3.7041
X6.1791Y-3.7959
X6.225Y-3.685
X6.225Y-3.815
X6.2709Y-3.7041
X6.2709Y-3.7959
X6.29Y-3.75
X0.585Y-4.2
X0.6041Y-4.1541
X0.6041Y-4.2459
X0.65Y-4.135
X0.65Y-4.265
X0.6959Y-4.1541
X0.6959Y-4.2459
X0.715Y-4.2
X6.16Y-1.1
X6.1791Y-1.0541
X6.1791Y-1.1459
X6.225Y-1.035
X6.225Y-1.165
X6.2709Y-1.0541
X6.2709Y-1.1459
X6.29Y-1.1
T2
X2.475Y-0.625
X6.225Y-3.75
X0.65Y-4.2
X6.225Y-1.1
T0
M30
