G04 #@! TF.GenerationSoftware,KiCad,Pcbnew,5.0.2-bee76a0~70~ubuntu18.04.1*
G04 #@! TF.CreationDate,2019-06-12T22:26:29+09:00*
G04 #@! TF.ProjectId,bottom,626f7474-6f6d-42e6-9b69-6361645f7063,rev?*
G04 #@! TF.SameCoordinates,Original*
G04 #@! TF.FileFunction,Profile,NP*
%FSLAX46Y46*%
G04 Gerber Fmt 4.6, Leading zero omitted, Abs format (unit mm)*
G04 Created by KiCad (PCBNEW 5.0.2-bee76a0~70~ubuntu18.04.1) date 2019年06月12日 22時26分29秒*
%MOMM*%
%LPD*%
G01*
G04 APERTURE LIST*
%ADD10C,0.150000*%
G04 APERTURE END LIST*
D10*
X76817531Y-124789230D02*
G75*
G03X73007533Y-124789230I-1904999J-1904999D01*
G01*
X60307532Y-211784229D02*
X73642532Y-225119229D01*
X73642532Y-225119229D02*
X154287532Y-225119229D01*
X154287532Y-225119229D02*
X206357532Y-214959229D01*
X211437532Y-209879229D02*
X211437532Y-143839229D01*
X206357532Y-138759229D02*
X197467532Y-138759229D01*
X104122532Y-140664229D02*
X76817532Y-124789229D01*
X60307532Y-147014229D02*
X60307532Y-211784229D01*
X211437532Y-143839229D02*
G75*
G03X206357532Y-138759229I-5080000J0D01*
G01*
X73007532Y-124789229D02*
X60307532Y-147014229D01*
X206357532Y-214959229D02*
G75*
G03X211437532Y-209879229I0J5080000D01*
G01*
X172702532Y-149554229D02*
X197467532Y-138759229D01*
X106154532Y-140918229D02*
X170670532Y-149300229D01*
X170688000Y-96774000D02*
X170671000Y-149300000D01*
X106155000Y-140918000D02*
X106172000Y-105156000D01*
X106172000Y-105156000D02*
X170688000Y-96774000D01*
X105806666Y-105410000D02*
G75*
G03X105806666Y-105410000I-1666666J0D01*
G01*
X101640000Y-105410000D02*
X106640000Y-105410000D01*
X104140000Y-102910000D02*
X104140000Y-107910000D01*
X172703000Y-149554000D02*
X172720000Y-96520000D01*
X104123000Y-140664000D02*
X104140000Y-105410000D01*
X76834999Y-121284999D02*
G75*
G02X73025001Y-121284999I-1904999J1904999D01*
G01*
X136921666Y-20955000D02*
G75*
G03X136921666Y-20955000I-1666666J0D01*
G01*
X132755000Y-20955000D02*
X137755000Y-20955000D01*
X135255000Y-18455000D02*
X135255000Y-23455000D01*
X172720000Y-96520000D02*
X197485000Y-107315000D01*
X206375000Y-31115000D02*
G75*
G02X211455000Y-36195000I0J-5080000D01*
G01*
X73025000Y-121285000D02*
X60325000Y-99060000D01*
X211455000Y-102235000D02*
G75*
G02X206375000Y-107315000I-5080000J0D01*
G01*
X60325000Y-99060000D02*
X60325000Y-34290000D01*
X104140000Y-105410000D02*
X76835000Y-121285000D01*
X206375000Y-107315000D02*
X197485000Y-107315000D01*
X211455000Y-36195000D02*
X211455000Y-102235000D01*
X154305000Y-20955000D02*
X206375000Y-31115000D01*
X73660000Y-20955000D02*
X154305000Y-20955000D01*
X60325000Y-34290000D02*
X73660000Y-20955000D01*
M02*
