G04 #@! TF.GenerationSoftware,KiCad,Pcbnew,5.0.2-bee76a0~70~ubuntu18.04.1*
G04 #@! TF.CreationDate,2019-06-12T22:12:57+09:00*
G04 #@! TF.ProjectId,mid1,6d696431-2e6b-4696-9361-645f70636258,rev?*
G04 #@! TF.SameCoordinates,Original*
G04 #@! TF.FileFunction,Soldermask,Top*
G04 #@! TF.FilePolarity,Negative*
%FSLAX46Y46*%
G04 Gerber Fmt 4.6, Leading zero omitted, Abs format (unit mm)*
G04 Created by KiCad (PCBNEW 5.0.2-bee76a0~70~ubuntu18.04.1) date 2019年06月12日 22時12分57秒*
%MOMM*%
%LPD*%
G01*
G04 APERTURE LIST*
%ADD10C,0.150000*%
%ADD11C,0.100000*%
G04 APERTURE END LIST*
D10*
G36*
X61595000Y-20955000D02*
X211455000Y-20955000D01*
X211455000Y-224790000D01*
X61595000Y-224790000D01*
X61595000Y-20955000D01*
G37*
X61595000Y-20955000D02*
X211455000Y-20955000D01*
X211455000Y-224790000D01*
X61595000Y-224790000D01*
X61595000Y-20955000D01*
D11*
G36*
X107104615Y-219539064D02*
X107432376Y-219674827D01*
X107727357Y-219871927D01*
X107978210Y-220122780D01*
X108175310Y-220417761D01*
X108311073Y-220745522D01*
X108380284Y-221093469D01*
X108380284Y-221448237D01*
X108311073Y-221796184D01*
X108175310Y-222123945D01*
X107978210Y-222418926D01*
X107727357Y-222669779D01*
X107432376Y-222866879D01*
X107104615Y-223002642D01*
X106756668Y-223071853D01*
X106401900Y-223071853D01*
X106053953Y-223002642D01*
X105726192Y-222866879D01*
X105431211Y-222669779D01*
X105180358Y-222418926D01*
X104983258Y-222123945D01*
X104847495Y-221796184D01*
X104778284Y-221448237D01*
X104778284Y-221093469D01*
X104847495Y-220745522D01*
X104983258Y-220417761D01*
X105180358Y-220122780D01*
X105431211Y-219871927D01*
X105726192Y-219674827D01*
X106053953Y-219539064D01*
X106401900Y-219469853D01*
X106756668Y-219469853D01*
X107104615Y-219539064D01*
X107104615Y-219539064D01*
G37*
G36*
X202179600Y-208051006D02*
X202179602Y-208051007D01*
X202179603Y-208051007D01*
X202260340Y-208084450D01*
X202398172Y-208141541D01*
X202496860Y-208207482D01*
X202594877Y-208272975D01*
X202762162Y-208440260D01*
X202827655Y-208538277D01*
X202893596Y-208636965D01*
X202984131Y-208855537D01*
X203030284Y-209087563D01*
X203030284Y-209324143D01*
X202984131Y-209556169D01*
X202893596Y-209774741D01*
X202827655Y-209873429D01*
X202762162Y-209971446D01*
X202594877Y-210138731D01*
X202496860Y-210204224D01*
X202398172Y-210270165D01*
X202260340Y-210327256D01*
X202179603Y-210360699D01*
X202179602Y-210360699D01*
X202179600Y-210360700D01*
X201947574Y-210406853D01*
X201710994Y-210406853D01*
X201478968Y-210360700D01*
X201478966Y-210360699D01*
X201478965Y-210360699D01*
X201398228Y-210327256D01*
X201260396Y-210270165D01*
X201161708Y-210204224D01*
X201063691Y-210138731D01*
X200896406Y-209971446D01*
X200830913Y-209873429D01*
X200764972Y-209774741D01*
X200674437Y-209556169D01*
X200628284Y-209324143D01*
X200628284Y-209087563D01*
X200674437Y-208855537D01*
X200764972Y-208636965D01*
X200830913Y-208538277D01*
X200896406Y-208440260D01*
X201063691Y-208272975D01*
X201161708Y-208207482D01*
X201260396Y-208141541D01*
X201398228Y-208084450D01*
X201478965Y-208051007D01*
X201478966Y-208051007D01*
X201478968Y-208051006D01*
X201710994Y-208004853D01*
X201947574Y-208004853D01*
X202179600Y-208051006D01*
X202179600Y-208051006D01*
G37*
G36*
X202354615Y-140164064D02*
X202682376Y-140299827D01*
X202977357Y-140496927D01*
X203228210Y-140747780D01*
X203425310Y-141042761D01*
X203561073Y-141370522D01*
X203630284Y-141718469D01*
X203630284Y-142073237D01*
X203561073Y-142421184D01*
X203425310Y-142748945D01*
X203228210Y-143043926D01*
X202977357Y-143294779D01*
X202682376Y-143491879D01*
X202354615Y-143627642D01*
X202006668Y-143696853D01*
X201651900Y-143696853D01*
X201303953Y-143627642D01*
X200976192Y-143491879D01*
X200681211Y-143294779D01*
X200430358Y-143043926D01*
X200233258Y-142748945D01*
X200097495Y-142421184D01*
X200028284Y-142073237D01*
X200028284Y-141718469D01*
X200097495Y-141370522D01*
X200233258Y-141042761D01*
X200430358Y-140747780D01*
X200681211Y-140496927D01*
X200976192Y-140299827D01*
X201303953Y-140164064D01*
X201651900Y-140094853D01*
X202006668Y-140094853D01*
X202354615Y-140164064D01*
X202354615Y-140164064D01*
G37*
G36*
X80894600Y-129311006D02*
X80894602Y-129311007D01*
X80894603Y-129311007D01*
X80975340Y-129344450D01*
X81113172Y-129401541D01*
X81211860Y-129467482D01*
X81309877Y-129532975D01*
X81477162Y-129700260D01*
X81542655Y-129798277D01*
X81608596Y-129896965D01*
X81699131Y-130115537D01*
X81745284Y-130347563D01*
X81745284Y-130584143D01*
X81699131Y-130816169D01*
X81608596Y-131034741D01*
X81542655Y-131133429D01*
X81477162Y-131231446D01*
X81309877Y-131398731D01*
X81211860Y-131464224D01*
X81113172Y-131530165D01*
X80975340Y-131587256D01*
X80894603Y-131620699D01*
X80894602Y-131620699D01*
X80894600Y-131620700D01*
X80662574Y-131666853D01*
X80425994Y-131666853D01*
X80193968Y-131620700D01*
X80193966Y-131620699D01*
X80193965Y-131620699D01*
X80113228Y-131587256D01*
X79975396Y-131530165D01*
X79876708Y-131464224D01*
X79778691Y-131398731D01*
X79611406Y-131231446D01*
X79545913Y-131133429D01*
X79479972Y-131034741D01*
X79389437Y-130816169D01*
X79343284Y-130584143D01*
X79343284Y-130347563D01*
X79389437Y-130115537D01*
X79479972Y-129896965D01*
X79545913Y-129798277D01*
X79611406Y-129700260D01*
X79778691Y-129532975D01*
X79876708Y-129467482D01*
X79975396Y-129401541D01*
X80113228Y-129344450D01*
X80193965Y-129311007D01*
X80193966Y-129311007D01*
X80193968Y-129311006D01*
X80425994Y-129264853D01*
X80662574Y-129264853D01*
X80894600Y-129311006D01*
X80894600Y-129311006D01*
G37*
G36*
X80995316Y-114415153D02*
X80995318Y-114415154D01*
X80995319Y-114415154D01*
X81076056Y-114448597D01*
X81213888Y-114505688D01*
X81312576Y-114571629D01*
X81410593Y-114637122D01*
X81577878Y-114804407D01*
X81643371Y-114902424D01*
X81709312Y-115001112D01*
X81799847Y-115219684D01*
X81846000Y-115451710D01*
X81846000Y-115688290D01*
X81799847Y-115920316D01*
X81709312Y-116138888D01*
X81643371Y-116237576D01*
X81577878Y-116335593D01*
X81410593Y-116502878D01*
X81312576Y-116568371D01*
X81213888Y-116634312D01*
X81076056Y-116691403D01*
X80995319Y-116724846D01*
X80995318Y-116724846D01*
X80995316Y-116724847D01*
X80763290Y-116771000D01*
X80526710Y-116771000D01*
X80294684Y-116724847D01*
X80294682Y-116724846D01*
X80294681Y-116724846D01*
X80213944Y-116691403D01*
X80076112Y-116634312D01*
X79977424Y-116568371D01*
X79879407Y-116502878D01*
X79712122Y-116335593D01*
X79646629Y-116237576D01*
X79580688Y-116138888D01*
X79490153Y-115920316D01*
X79444000Y-115688290D01*
X79444000Y-115451710D01*
X79490153Y-115219684D01*
X79580688Y-115001112D01*
X79646629Y-114902424D01*
X79712122Y-114804407D01*
X79879407Y-114637122D01*
X79977424Y-114571629D01*
X80076112Y-114505688D01*
X80213944Y-114448597D01*
X80294681Y-114415154D01*
X80294682Y-114415154D01*
X80294684Y-114415153D01*
X80526710Y-114369000D01*
X80763290Y-114369000D01*
X80995316Y-114415153D01*
X80995316Y-114415153D01*
G37*
G36*
X202455331Y-102408211D02*
X202783092Y-102543974D01*
X203078073Y-102741074D01*
X203328926Y-102991927D01*
X203526026Y-103286908D01*
X203661789Y-103614669D01*
X203731000Y-103962616D01*
X203731000Y-104317384D01*
X203661789Y-104665331D01*
X203526026Y-104993092D01*
X203328926Y-105288073D01*
X203078073Y-105538926D01*
X202783092Y-105736026D01*
X202455331Y-105871789D01*
X202107384Y-105941000D01*
X201752616Y-105941000D01*
X201404669Y-105871789D01*
X201076908Y-105736026D01*
X200781927Y-105538926D01*
X200531074Y-105288073D01*
X200333974Y-104993092D01*
X200198211Y-104665331D01*
X200129000Y-104317384D01*
X200129000Y-103962616D01*
X200198211Y-103614669D01*
X200333974Y-103286908D01*
X200531074Y-102991927D01*
X200781927Y-102741074D01*
X201076908Y-102543974D01*
X201404669Y-102408211D01*
X201752616Y-102339000D01*
X202107384Y-102339000D01*
X202455331Y-102408211D01*
X202455331Y-102408211D01*
G37*
G36*
X202280316Y-35675153D02*
X202280318Y-35675154D01*
X202280319Y-35675154D01*
X202361056Y-35708597D01*
X202498888Y-35765688D01*
X202597576Y-35831629D01*
X202695593Y-35897122D01*
X202862878Y-36064407D01*
X202928371Y-36162424D01*
X202994312Y-36261112D01*
X203084847Y-36479684D01*
X203131000Y-36711710D01*
X203131000Y-36948290D01*
X203084847Y-37180316D01*
X202994312Y-37398888D01*
X202928371Y-37497576D01*
X202862878Y-37595593D01*
X202695593Y-37762878D01*
X202597576Y-37828371D01*
X202498888Y-37894312D01*
X202361056Y-37951403D01*
X202280319Y-37984846D01*
X202280318Y-37984846D01*
X202280316Y-37984847D01*
X202048290Y-38031000D01*
X201811710Y-38031000D01*
X201579684Y-37984847D01*
X201579682Y-37984846D01*
X201579681Y-37984846D01*
X201498944Y-37951403D01*
X201361112Y-37894312D01*
X201262424Y-37828371D01*
X201164407Y-37762878D01*
X200997122Y-37595593D01*
X200931629Y-37497576D01*
X200865688Y-37398888D01*
X200775153Y-37180316D01*
X200729000Y-36948290D01*
X200729000Y-36711710D01*
X200775153Y-36479684D01*
X200865688Y-36261112D01*
X200931629Y-36162424D01*
X200997122Y-36064407D01*
X201164407Y-35897122D01*
X201262424Y-35831629D01*
X201361112Y-35765688D01*
X201498944Y-35708597D01*
X201579681Y-35675154D01*
X201579682Y-35675154D01*
X201579684Y-35675153D01*
X201811710Y-35629000D01*
X202048290Y-35629000D01*
X202280316Y-35675153D01*
X202280316Y-35675153D01*
G37*
G36*
X107205331Y-23033211D02*
X107533092Y-23168974D01*
X107828073Y-23366074D01*
X108078926Y-23616927D01*
X108276026Y-23911908D01*
X108411789Y-24239669D01*
X108481000Y-24587616D01*
X108481000Y-24942384D01*
X108411789Y-25290331D01*
X108276026Y-25618092D01*
X108078926Y-25913073D01*
X107828073Y-26163926D01*
X107533092Y-26361026D01*
X107205331Y-26496789D01*
X106857384Y-26566000D01*
X106502616Y-26566000D01*
X106154669Y-26496789D01*
X105826908Y-26361026D01*
X105531927Y-26163926D01*
X105281074Y-25913073D01*
X105083974Y-25618092D01*
X104948211Y-25290331D01*
X104879000Y-24942384D01*
X104879000Y-24587616D01*
X104948211Y-24239669D01*
X105083974Y-23911908D01*
X105281074Y-23616927D01*
X105531927Y-23366074D01*
X105826908Y-23168974D01*
X106154669Y-23033211D01*
X106502616Y-22964000D01*
X106857384Y-22964000D01*
X107205331Y-23033211D01*
X107205331Y-23033211D01*
G37*
M02*
