%TF.GenerationSoftware,KiCad,Pcbnew,(6.0.5-0)*%
%TF.CreationDate,2022-06-26T01:51:53+09:00*%
%TF.ProjectId,MTCH6102_breakout_panel,4d544348-3631-4303-925f-627265616b6f,rev?*%
%TF.SameCoordinates,PX649cd60PY5a74bd0*%
%TF.FileFunction,Soldermask,Top*%
%TF.FilePolarity,Negative*%
%FSLAX46Y46*%
G04 Gerber Fmt 4.6, Leading zero omitted, Abs format (unit mm)*
G04 Created by KiCad (PCBNEW (6.0.5-0)) date 2022-06-26 01:51:53*
%MOMM*%
%LPD*%
G01*
G04 APERTURE LIST*
%ADD10C,1.100000*%
%ADD11C,4.800000*%
G04 APERTURE END LIST*
D10*
X36217274Y-4976726D03*
X37384000Y-5460000D03*
D11*
X37384000Y-3810000D03*
D10*
X37384000Y-2160000D03*
X38550726Y-4976726D03*
X35734000Y-3810000D03*
X39034000Y-3810000D03*
X38550726Y-2643274D03*
X36217274Y-2643274D03*
X84754000Y-3810000D03*
X81937274Y-4976726D03*
X83104000Y-5460000D03*
X84270726Y-4976726D03*
X84270726Y-2643274D03*
D11*
X83104000Y-3810000D03*
D10*
X81937274Y-2643274D03*
X81454000Y-3810000D03*
X83104000Y-2160000D03*
X4959226Y-71223274D03*
X2625774Y-71223274D03*
X2142500Y-72390000D03*
D11*
X3792500Y-72390000D03*
D10*
X3792500Y-70740000D03*
X2625774Y-73556726D03*
X5442500Y-72390000D03*
X3792500Y-74040000D03*
X4959226Y-73556726D03*
D11*
X83167500Y-54610000D03*
D10*
X82000774Y-53443274D03*
X84334226Y-55776726D03*
X83167500Y-56260000D03*
X84334226Y-53443274D03*
X82000774Y-55776726D03*
X81517500Y-54610000D03*
X84817500Y-54610000D03*
X83167500Y-52960000D03*
D11*
X49512500Y-72390000D03*
D10*
X48345774Y-71223274D03*
X51162500Y-72390000D03*
X48345774Y-73556726D03*
X50679226Y-71223274D03*
X49512500Y-70740000D03*
X50679226Y-73556726D03*
X47862500Y-72390000D03*
X49512500Y-74040000D03*
X49512500Y-2160000D03*
X51162500Y-3810000D03*
X50679226Y-4976726D03*
D11*
X49512500Y-3810000D03*
D10*
X48345774Y-2643274D03*
X50679226Y-2643274D03*
X49512500Y-5460000D03*
X48345774Y-4976726D03*
X47862500Y-3810000D03*
X36280774Y-55776726D03*
D11*
X37447500Y-54610000D03*
D10*
X37447500Y-56260000D03*
X35797500Y-54610000D03*
X36280774Y-53443274D03*
X38614226Y-53443274D03*
X39097500Y-54610000D03*
X37447500Y-52960000D03*
X38614226Y-55776726D03*
X2625774Y-4976726D03*
X2142500Y-3810000D03*
X3792500Y-5460000D03*
X3792500Y-2160000D03*
D11*
X3792500Y-3810000D03*
D10*
X4959226Y-4976726D03*
X4959226Y-2643274D03*
X5442500Y-3810000D03*
X2625774Y-2643274D03*
M02*
