%TF.GenerationSoftware,KiCad,Pcbnew,(6.0.5-0)*%
%TF.CreationDate,2023-02-12T11:18:59+09:00*%
%TF.ProjectId,MTCH6102_breakout_panel,4d544348-3631-4303-925f-627265616b6f,rev?*%
%TF.SameCoordinates,Original*%
%TF.FileFunction,Legend,Bot*%
%TF.FilePolarity,Positive*%
%FSLAX46Y46*%
G04 Gerber Fmt 4.6, Leading zero omitted, Abs format (unit mm)*
G04 Created by KiCad (PCBNEW (6.0.5-0)) date 2023-02-12 11:18:59*
%MOMM*%
%LPD*%
G01*
G04 APERTURE LIST*
G04 Aperture macros list*
%AMRoundRect*
0 Rectangle with rounded corners*
0 $1 Rounding radius*
0 $2 $3 $4 $5 $6 $7 $8 $9 X,Y pos of 4 corners*
0 Add a 4 corners polygon primitive as box body*
4,1,4,$2,$3,$4,$5,$6,$7,$8,$9,$2,$3,0*
0 Add four circle primitives for the rounded corners*
1,1,$1+$1,$2,$3*
1,1,$1+$1,$4,$5*
1,1,$1+$1,$6,$7*
1,1,$1+$1,$8,$9*
0 Add four rect primitives between the rounded corners*
20,1,$1+$1,$2,$3,$4,$5,0*
20,1,$1+$1,$4,$5,$6,$7,0*
20,1,$1+$1,$6,$7,$8,$9,0*
20,1,$1+$1,$8,$9,$2,$3,0*%
G04 Aperture macros list end*
%ADD10C,0.150000*%
%ADD11RoundRect,0.200000X0.875000X0.225000X-0.875000X0.225000X-0.875000X-0.225000X0.875000X-0.225000X0*%
%ADD12C,1.100000*%
%ADD13C,4.800000*%
G04 APERTURE END LIST*
D10*
X162492004Y-149994380D02*
X162492004Y-150803904D01*
X162444385Y-150899142D01*
X162396766Y-150946761D01*
X162301528Y-150994380D01*
X162111052Y-150994380D01*
X162015814Y-150946761D01*
X161968195Y-150899142D01*
X161920576Y-150803904D01*
X161920576Y-149994380D01*
X161492004Y-150089619D02*
X161444385Y-150042000D01*
X161349147Y-149994380D01*
X161111052Y-149994380D01*
X161015814Y-150042000D01*
X160968195Y-150089619D01*
X160920576Y-150184857D01*
X160920576Y-150280095D01*
X160968195Y-150422952D01*
X161539623Y-150994380D01*
X160920576Y-150994380D01*
X116761904Y-149994380D02*
X116761904Y-150803904D01*
X116714285Y-150899142D01*
X116666666Y-150946761D01*
X116571428Y-150994380D01*
X116380952Y-150994380D01*
X116285714Y-150946761D01*
X116238095Y-150899142D01*
X116190476Y-150803904D01*
X116190476Y-149994380D01*
X115761904Y-150089619D02*
X115714285Y-150042000D01*
X115619047Y-149994380D01*
X115380952Y-149994380D01*
X115285714Y-150042000D01*
X115238095Y-150089619D01*
X115190476Y-150184857D01*
X115190476Y-150280095D01*
X115238095Y-150422952D01*
X115809523Y-150994380D01*
X115190476Y-150994380D01*
X158855100Y-151467000D02*
X158855100Y-152117000D01*
X158855100Y-162117000D02*
X158855100Y-161467000D01*
X164605100Y-152042000D02*
X166205100Y-152042000D01*
X164605100Y-151467000D02*
X164605100Y-152042000D01*
X164605100Y-162117000D02*
X164605100Y-161467000D01*
X164605100Y-151467000D02*
X158855100Y-151467000D01*
X164605100Y-162117000D02*
X158855100Y-162117000D01*
X113125000Y-151467000D02*
X113125000Y-152117000D01*
X113125000Y-162117000D02*
X113125000Y-161467000D01*
X118875000Y-152042000D02*
X120475000Y-152042000D01*
X118875000Y-151467000D02*
X118875000Y-152042000D01*
X118875000Y-162117000D02*
X118875000Y-161467000D01*
X118875000Y-151467000D02*
X113125000Y-151467000D01*
X118875000Y-162117000D02*
X113125000Y-162117000D01*
%LPC*%
D11*
X165330100Y-152567000D03*
X165330100Y-153217000D03*
X165330100Y-153867000D03*
X165330100Y-154517000D03*
X165330100Y-155167000D03*
X165330100Y-155817000D03*
X165330100Y-156467000D03*
X165330100Y-157117000D03*
X165330100Y-157767000D03*
X165330100Y-158417000D03*
X165330100Y-159067000D03*
X165330100Y-159717000D03*
X165330100Y-160367000D03*
X165330100Y-161017000D03*
X158130100Y-161017000D03*
X158130100Y-160367000D03*
X158130100Y-159717000D03*
X158130100Y-159067000D03*
X158130100Y-158417000D03*
X158130100Y-157767000D03*
X158130100Y-157117000D03*
X158130100Y-156467000D03*
X158130100Y-155817000D03*
X158130100Y-155167000D03*
X158130100Y-154517000D03*
X158130100Y-153867000D03*
X158130100Y-153217000D03*
X158130100Y-152567000D03*
D12*
X153855874Y-99826726D03*
X153372600Y-98660000D03*
X155022600Y-100310000D03*
X155022600Y-97010000D03*
D13*
X155022600Y-98660000D03*
D12*
X156189326Y-99826726D03*
X156189326Y-97493274D03*
X156672600Y-98660000D03*
X153855874Y-97493274D03*
X187510874Y-150626726D03*
D13*
X188677600Y-149460000D03*
D12*
X188677600Y-151110000D03*
X187027600Y-149460000D03*
X187510874Y-148293274D03*
X189844326Y-148293274D03*
X190327600Y-149460000D03*
X188677600Y-147810000D03*
X189844326Y-150626726D03*
X153855874Y-168406726D03*
X155022600Y-168890000D03*
D13*
X155022600Y-167240000D03*
D12*
X155022600Y-165590000D03*
X156189326Y-168406726D03*
X153372600Y-167240000D03*
X156672600Y-167240000D03*
X156189326Y-166073274D03*
X153855874Y-166073274D03*
X189780826Y-99826726D03*
X188614100Y-100310000D03*
X190264100Y-98660000D03*
X187447374Y-99826726D03*
X188614100Y-97010000D03*
D13*
X188614100Y-98660000D03*
D12*
X186964100Y-98660000D03*
X187447374Y-97493274D03*
X189780826Y-97493274D03*
X144050726Y-99826726D03*
X142884000Y-100310000D03*
X144534000Y-98660000D03*
X141717274Y-99826726D03*
X142884000Y-97010000D03*
D13*
X142884000Y-98660000D03*
D12*
X141234000Y-98660000D03*
X141717274Y-97493274D03*
X144050726Y-97493274D03*
X108125774Y-168406726D03*
X109292500Y-168890000D03*
D13*
X109292500Y-167240000D03*
D12*
X109292500Y-165590000D03*
X110459226Y-168406726D03*
X107642500Y-167240000D03*
X110942500Y-167240000D03*
X110459226Y-166073274D03*
X108125774Y-166073274D03*
X141780774Y-150626726D03*
D13*
X142947500Y-149460000D03*
D12*
X142947500Y-151110000D03*
X141297500Y-149460000D03*
X141780774Y-148293274D03*
X144114226Y-148293274D03*
X144597500Y-149460000D03*
X142947500Y-147810000D03*
X144114226Y-150626726D03*
X108125774Y-99826726D03*
X107642500Y-98660000D03*
X109292500Y-100310000D03*
X109292500Y-97010000D03*
D13*
X109292500Y-98660000D03*
D12*
X110459226Y-99826726D03*
X110459226Y-97493274D03*
X110942500Y-98660000D03*
X108125774Y-97493274D03*
D11*
X119600000Y-152567000D03*
X119600000Y-153217000D03*
X119600000Y-153867000D03*
X119600000Y-154517000D03*
X119600000Y-155167000D03*
X119600000Y-155817000D03*
X119600000Y-156467000D03*
X119600000Y-157117000D03*
X119600000Y-157767000D03*
X119600000Y-158417000D03*
X119600000Y-159067000D03*
X119600000Y-159717000D03*
X119600000Y-160367000D03*
X119600000Y-161017000D03*
X112400000Y-161017000D03*
X112400000Y-160367000D03*
X112400000Y-159717000D03*
X112400000Y-159067000D03*
X112400000Y-158417000D03*
X112400000Y-157767000D03*
X112400000Y-157117000D03*
X112400000Y-156467000D03*
X112400000Y-155817000D03*
X112400000Y-155167000D03*
X112400000Y-154517000D03*
X112400000Y-153867000D03*
X112400000Y-153217000D03*
X112400000Y-152567000D03*
M02*
