%TF.GenerationSoftware,KiCad,Pcbnew,(6.0.5-0)*%
%TF.CreationDate,2023-02-12T11:18:59+09:00*%
%TF.ProjectId,MTCH6102_breakout_panel,4d544348-3631-4303-925f-627265616b6f,rev?*%
%TF.SameCoordinates,Original*%
%TF.FileFunction,Soldermask,Bot*%
%TF.FilePolarity,Negative*%
%FSLAX46Y46*%
G04 Gerber Fmt 4.6, Leading zero omitted, Abs format (unit mm)*
G04 Created by KiCad (PCBNEW (6.0.5-0)) date 2023-02-12 11:18:59*
%MOMM*%
%LPD*%
G01*
G04 APERTURE LIST*
G04 Aperture macros list*
%AMRoundRect*
0 Rectangle with rounded corners*
0 $1 Rounding radius*
0 $2 $3 $4 $5 $6 $7 $8 $9 X,Y pos of 4 corners*
0 Add a 4 corners polygon primitive as box body*
4,1,4,$2,$3,$4,$5,$6,$7,$8,$9,$2,$3,0*
0 Add four circle primitives for the rounded corners*
1,1,$1+$1,$2,$3*
1,1,$1+$1,$4,$5*
1,1,$1+$1,$6,$7*
1,1,$1+$1,$8,$9*
0 Add four rect primitives between the rounded corners*
20,1,$1+$1,$2,$3,$4,$5,0*
20,1,$1+$1,$4,$5,$6,$7,0*
20,1,$1+$1,$6,$7,$8,$9,0*
20,1,$1+$1,$8,$9,$2,$3,0*%
G04 Aperture macros list end*
%ADD10RoundRect,0.200000X0.875000X0.225000X-0.875000X0.225000X-0.875000X-0.225000X0.875000X-0.225000X0*%
%ADD11C,1.100000*%
%ADD12C,4.800000*%
G04 APERTURE END LIST*
D10*
X165330100Y-152567000D03*
X165330100Y-153217000D03*
X165330100Y-153867000D03*
X165330100Y-154517000D03*
X165330100Y-155167000D03*
X165330100Y-155817000D03*
X165330100Y-156467000D03*
X165330100Y-157117000D03*
X165330100Y-157767000D03*
X165330100Y-158417000D03*
X165330100Y-159067000D03*
X165330100Y-159717000D03*
X165330100Y-160367000D03*
X165330100Y-161017000D03*
X158130100Y-161017000D03*
X158130100Y-160367000D03*
X158130100Y-159717000D03*
X158130100Y-159067000D03*
X158130100Y-158417000D03*
X158130100Y-157767000D03*
X158130100Y-157117000D03*
X158130100Y-156467000D03*
X158130100Y-155817000D03*
X158130100Y-155167000D03*
X158130100Y-154517000D03*
X158130100Y-153867000D03*
X158130100Y-153217000D03*
X158130100Y-152567000D03*
D11*
X153855874Y-99826726D03*
X153372600Y-98660000D03*
X155022600Y-100310000D03*
X155022600Y-97010000D03*
D12*
X155022600Y-98660000D03*
D11*
X156189326Y-99826726D03*
X156189326Y-97493274D03*
X156672600Y-98660000D03*
X153855874Y-97493274D03*
X187510874Y-150626726D03*
D12*
X188677600Y-149460000D03*
D11*
X188677600Y-151110000D03*
X187027600Y-149460000D03*
X187510874Y-148293274D03*
X189844326Y-148293274D03*
X190327600Y-149460000D03*
X188677600Y-147810000D03*
X189844326Y-150626726D03*
X153855874Y-168406726D03*
X155022600Y-168890000D03*
D12*
X155022600Y-167240000D03*
D11*
X155022600Y-165590000D03*
X156189326Y-168406726D03*
X153372600Y-167240000D03*
X156672600Y-167240000D03*
X156189326Y-166073274D03*
X153855874Y-166073274D03*
X189780826Y-99826726D03*
X188614100Y-100310000D03*
X190264100Y-98660000D03*
X187447374Y-99826726D03*
X188614100Y-97010000D03*
D12*
X188614100Y-98660000D03*
D11*
X186964100Y-98660000D03*
X187447374Y-97493274D03*
X189780826Y-97493274D03*
X144050726Y-99826726D03*
X142884000Y-100310000D03*
X144534000Y-98660000D03*
X141717274Y-99826726D03*
X142884000Y-97010000D03*
D12*
X142884000Y-98660000D03*
D11*
X141234000Y-98660000D03*
X141717274Y-97493274D03*
X144050726Y-97493274D03*
X108125774Y-168406726D03*
X109292500Y-168890000D03*
D12*
X109292500Y-167240000D03*
D11*
X109292500Y-165590000D03*
X110459226Y-168406726D03*
X107642500Y-167240000D03*
X110942500Y-167240000D03*
X110459226Y-166073274D03*
X108125774Y-166073274D03*
X141780774Y-150626726D03*
D12*
X142947500Y-149460000D03*
D11*
X142947500Y-151110000D03*
X141297500Y-149460000D03*
X141780774Y-148293274D03*
X144114226Y-148293274D03*
X144597500Y-149460000D03*
X142947500Y-147810000D03*
X144114226Y-150626726D03*
X108125774Y-99826726D03*
X107642500Y-98660000D03*
X109292500Y-100310000D03*
X109292500Y-97010000D03*
D12*
X109292500Y-98660000D03*
D11*
X110459226Y-99826726D03*
X110459226Y-97493274D03*
X110942500Y-98660000D03*
X108125774Y-97493274D03*
D10*
X119600000Y-152567000D03*
X119600000Y-153217000D03*
X119600000Y-153867000D03*
X119600000Y-154517000D03*
X119600000Y-155167000D03*
X119600000Y-155817000D03*
X119600000Y-156467000D03*
X119600000Y-157117000D03*
X119600000Y-157767000D03*
X119600000Y-158417000D03*
X119600000Y-159067000D03*
X119600000Y-159717000D03*
X119600000Y-160367000D03*
X119600000Y-161017000D03*
X112400000Y-161017000D03*
X112400000Y-160367000D03*
X112400000Y-159717000D03*
X112400000Y-159067000D03*
X112400000Y-158417000D03*
X112400000Y-157767000D03*
X112400000Y-157117000D03*
X112400000Y-156467000D03*
X112400000Y-155817000D03*
X112400000Y-155167000D03*
X112400000Y-154517000D03*
X112400000Y-153867000D03*
X112400000Y-153217000D03*
X112400000Y-152567000D03*
M02*
