M48
; DRILL file {KiCad (6.0.5-0)} date 
; FORMAT={-:-/ absolute / metric / decimal}
; #@! TF.CreationDate,2023-02-12T11:19:05+09:00
; #@! TF.GenerationSoftware,Kicad,Pcbnew,(6.0.5-0)
; #@! TF.FileFunction,MixedPlating,1,2
FMAT,2
METRIC
; #@! TA.AperFunction,Plated,PTH,ViaDrill
T1C0.400
; #@! TA.AperFunction,Plated,PTH,ComponentDrill
T2C0.400
; #@! TA.AperFunction,Plated,PTH,ComponentDrill
T3C2.200
%
G90
G05
T1
X108.7Y-160.792
X110.4Y-101.692
X110.4Y-106.792
X110.4Y-111.692
X110.4Y-116.692
X110.4Y-121.692
X110.4Y-126.692
X110.4Y-131.692
X110.4Y-136.692
X110.4Y-141.692
X110.4Y-147.75
X110.7Y-157.992
X112.9Y-104.192
X112.9Y-109.192
X112.9Y-114.192
X112.9Y-119.192
X112.9Y-124.192
X112.9Y-129.192
X112.9Y-134.192
X112.9Y-139.192
X112.9Y-144.192
X114.4Y-104.192
X114.4Y-109.192
X114.4Y-114.192
X114.4Y-119.192
X114.4Y-124.192
X114.4Y-129.192
X114.4Y-134.192
X114.4Y-139.192
X114.4Y-144.192
X116.2Y-100.692
X116.2Y-147.792
X117.9Y-104.192
X117.9Y-109.192
X117.9Y-114.192
X117.9Y-119.192
X117.9Y-124.192
X117.9Y-129.192
X117.9Y-134.192
X117.9Y-139.192
X117.9Y-144.192
X119.4Y-104.192
X119.4Y-109.192
X119.4Y-114.192
X119.4Y-119.192
X119.4Y-124.192
X119.4Y-129.192
X119.4Y-134.192
X119.4Y-139.192
X119.4Y-144.192
X121.2Y-100.692
X121.2Y-147.792
X122.9Y-104.192
X122.9Y-109.192
X122.9Y-114.192
X122.9Y-119.192
X122.9Y-124.192
X122.9Y-129.192
X122.9Y-134.192
X122.9Y-139.192
X122.9Y-144.192
X124.4Y-104.192
X124.4Y-109.192
X124.4Y-114.192
X124.4Y-119.192
X124.4Y-124.192
X124.4Y-129.192
X124.4Y-134.192
X124.4Y-139.192
X124.4Y-144.192
X126.2Y-100.692
X126.2Y-147.792
X127.9Y-104.192
X127.9Y-109.192
X127.9Y-114.192
X127.9Y-119.192
X127.9Y-124.192
X127.9Y-129.192
X127.9Y-134.192
X127.9Y-139.192
X127.9Y-144.192
X129.4Y-104.192
X129.4Y-109.192
X129.4Y-114.192
X129.4Y-119.192
X129.4Y-124.192
X129.4Y-129.192
X129.4Y-134.192
X129.4Y-139.192
X129.4Y-144.192
X131.2Y-100.692
X131.2Y-147.792
X132.9Y-104.192
X132.9Y-109.192
X132.9Y-114.192
X132.9Y-119.192
X132.9Y-124.192
X132.9Y-129.192
X132.9Y-134.192
X132.9Y-139.192
X132.9Y-144.192
X134.4Y-104.192
X134.4Y-109.192
X134.4Y-114.192
X134.4Y-119.192
X134.4Y-124.192
X134.4Y-129.192
X134.4Y-134.192
X134.4Y-139.192
X134.4Y-144.192
X136.2Y-100.692
X136.2Y-147.792
X137.9Y-104.192
X137.9Y-109.192
X137.9Y-114.192
X137.9Y-119.192
X137.9Y-124.192
X137.9Y-129.192
X137.9Y-134.192
X137.9Y-139.192
X137.9Y-144.192
X139.4Y-104.192
X139.4Y-109.192
X139.4Y-114.192
X139.4Y-119.192
X139.4Y-124.192
X139.4Y-129.192
X139.4Y-134.192
X139.4Y-139.192
X139.4Y-144.192
X142.0Y-101.692
X142.0Y-106.692
X142.0Y-111.692
X142.0Y-116.692
X142.0Y-121.692
X142.0Y-131.692
X142.0Y-136.692
X142.0Y-141.692
X142.159Y-127.055
X154.43Y-160.792
X156.13Y-101.692
X156.13Y-106.792
X156.13Y-111.692
X156.13Y-116.692
X156.13Y-121.692
X156.13Y-126.692
X156.13Y-131.692
X156.13Y-136.692
X156.13Y-141.692
X156.13Y-147.75
X156.43Y-157.992
X158.63Y-104.192
X158.63Y-109.192
X158.63Y-114.192
X158.63Y-119.192
X158.63Y-124.192
X158.63Y-129.192
X158.63Y-134.192
X158.63Y-139.192
X158.63Y-144.192
X160.13Y-104.192
X160.13Y-109.192
X160.13Y-114.192
X160.13Y-119.192
X160.13Y-124.192
X160.13Y-129.192
X160.13Y-134.192
X160.13Y-139.192
X160.13Y-144.192
X161.93Y-100.692
X161.93Y-147.792
X163.63Y-104.192
X163.63Y-109.192
X163.63Y-114.192
X163.63Y-119.192
X163.63Y-124.192
X163.63Y-129.192
X163.63Y-134.192
X163.63Y-139.192
X163.63Y-144.192
X165.13Y-104.192
X165.13Y-109.192
X165.13Y-114.192
X165.13Y-119.192
X165.13Y-124.192
X165.13Y-129.192
X165.13Y-134.192
X165.13Y-139.192
X165.13Y-144.192
X166.93Y-100.692
X166.93Y-147.792
X168.63Y-104.192
X168.63Y-109.192
X168.63Y-114.192
X168.63Y-119.192
X168.63Y-124.192
X168.63Y-129.192
X168.63Y-134.192
X168.63Y-139.192
X168.63Y-144.192
X170.13Y-104.192
X170.13Y-109.192
X170.13Y-114.192
X170.13Y-119.192
X170.13Y-124.192
X170.13Y-129.192
X170.13Y-134.192
X170.13Y-139.192
X170.13Y-144.192
X171.93Y-100.692
X171.93Y-147.792
X173.63Y-104.192
X173.63Y-109.192
X173.63Y-114.192
X173.63Y-119.192
X173.63Y-124.192
X173.63Y-129.192
X173.63Y-134.192
X173.63Y-139.192
X173.63Y-144.192
X175.13Y-104.192
X175.13Y-109.192
X175.13Y-114.192
X175.13Y-119.192
X175.13Y-124.192
X175.13Y-129.192
X175.13Y-134.192
X175.13Y-139.192
X175.13Y-144.192
X176.93Y-100.692
X176.93Y-147.792
X178.63Y-104.192
X178.63Y-109.192
X178.63Y-114.192
X178.63Y-119.192
X178.63Y-124.192
X178.63Y-129.192
X178.63Y-134.192
X178.63Y-139.192
X178.63Y-144.192
X180.13Y-104.192
X180.13Y-109.192
X180.13Y-114.192
X180.13Y-119.192
X180.13Y-124.192
X180.13Y-129.192
X180.13Y-134.192
X180.13Y-139.192
X180.13Y-144.192
X181.93Y-100.692
X181.93Y-147.792
X183.63Y-104.192
X183.63Y-109.192
X183.63Y-114.192
X183.63Y-119.192
X183.63Y-124.192
X183.63Y-129.192
X183.63Y-134.192
X183.63Y-139.192
X183.63Y-144.192
X185.13Y-104.192
X185.13Y-109.192
X185.13Y-114.192
X185.13Y-119.192
X185.13Y-124.192
X185.13Y-129.192
X185.13Y-134.192
X185.13Y-139.192
X185.13Y-144.192
X187.73Y-101.692
X187.73Y-106.692
X187.73Y-111.692
X187.73Y-116.692
X187.73Y-121.692
X187.73Y-131.692
X187.73Y-136.692
X187.73Y-141.692
X187.89Y-127.055
T2
X107.642Y-98.66
X107.642Y-167.24
X108.126Y-97.493
X108.126Y-99.827
X108.126Y-166.073
X108.126Y-168.407
X109.292Y-97.01
X109.292Y-100.31
X109.292Y-165.59
X109.292Y-168.89
X110.459Y-97.493
X110.459Y-99.827
X110.459Y-166.073
X110.459Y-168.407
X110.942Y-98.66
X110.942Y-167.24
X141.234Y-98.66
X141.297Y-149.46
X141.717Y-97.493
X141.717Y-99.827
X141.781Y-148.293
X141.781Y-150.627
X142.884Y-97.01
X142.884Y-100.31
X142.947Y-147.81
X142.947Y-151.11
X144.051Y-97.493
X144.051Y-99.827
X144.114Y-148.293
X144.114Y-150.627
X144.534Y-98.66
X144.597Y-149.46
X153.373Y-98.66
X153.373Y-167.24
X153.856Y-97.493
X153.856Y-99.827
X153.856Y-166.073
X153.856Y-168.407
X155.023Y-97.01
X155.023Y-100.31
X155.023Y-165.59
X155.023Y-168.89
X156.189Y-97.493
X156.189Y-99.827
X156.189Y-166.073
X156.189Y-168.407
X156.673Y-98.66
X156.673Y-167.24
X186.964Y-98.66
X187.028Y-149.46
X187.447Y-97.493
X187.447Y-99.827
X187.511Y-148.293
X187.511Y-150.627
X188.614Y-97.01
X188.614Y-100.31
X188.678Y-147.81
X188.678Y-151.11
X189.781Y-97.493
X189.781Y-99.827
X189.844Y-148.293
X189.844Y-150.627
X190.264Y-98.66
X190.328Y-149.46
T3
X109.292Y-98.66
X109.292Y-167.24
X142.884Y-98.66
X142.947Y-149.46
X155.023Y-98.66
X155.023Y-167.24
X188.614Y-98.66
X188.678Y-149.46
T0
M30
