%TF.GenerationSoftware,KiCad,Pcbnew,(6.0.5-0)*%
%TF.CreationDate,2023-02-12T11:18:59+09:00*%
%TF.ProjectId,MTCH6102_breakout_panel,4d544348-3631-4303-925f-627265616b6f,rev?*%
%TF.SameCoordinates,Original*%
%TF.FileFunction,Legend,Top*%
%TF.FilePolarity,Positive*%
%FSLAX46Y46*%
G04 Gerber Fmt 4.6, Leading zero omitted, Abs format (unit mm)*
G04 Created by KiCad (PCBNEW (6.0.5-0)) date 2023-02-12 11:18:59*
%MOMM*%
%LPD*%
G01*
G04 APERTURE LIST*
%ADD10C,0.150000*%
%ADD11C,0.200000*%
%ADD12C,1.100000*%
%ADD13C,4.800000*%
G04 APERTURE END LIST*
D10*
X192495000Y-94850000D02*
X200750000Y-94850000D01*
X200750000Y-94850000D02*
X195035000Y-101200000D01*
X195035000Y-88500000D02*
X200750000Y-94850000D01*
X195035000Y-101200000D02*
X195035000Y-88500000D01*
X99150000Y-94850000D02*
X192495000Y-94850000D01*
D11*
X202258809Y-93480952D02*
X203092142Y-95980952D01*
X203925476Y-93480952D01*
X204758809Y-95028571D02*
X206663571Y-95028571D01*
X209282619Y-95742857D02*
X209163571Y-95861904D01*
X208806428Y-95980952D01*
X208568333Y-95980952D01*
X208211190Y-95861904D01*
X207973095Y-95623809D01*
X207854047Y-95385714D01*
X207735000Y-94909523D01*
X207735000Y-94552380D01*
X207854047Y-94076190D01*
X207973095Y-93838095D01*
X208211190Y-93600000D01*
X208568333Y-93480952D01*
X208806428Y-93480952D01*
X209163571Y-93600000D01*
X209282619Y-93719047D01*
X211425476Y-94314285D02*
X211425476Y-95980952D01*
X210354047Y-94314285D02*
X210354047Y-95623809D01*
X210473095Y-95861904D01*
X210711190Y-95980952D01*
X211068333Y-95980952D01*
X211306428Y-95861904D01*
X211425476Y-95742857D01*
X212258809Y-94314285D02*
X213211190Y-94314285D01*
X212615952Y-93480952D02*
X212615952Y-95623809D01*
X212735000Y-95861904D01*
X212973095Y-95980952D01*
X213211190Y-95980952D01*
%LPC*%
D12*
X153855874Y-99826726D03*
X153372600Y-98660000D03*
X155022600Y-100310000D03*
X155022600Y-97010000D03*
D13*
X155022600Y-98660000D03*
D12*
X156189326Y-99826726D03*
X156189326Y-97493274D03*
X156672600Y-98660000D03*
X153855874Y-97493274D03*
X187510874Y-150626726D03*
D13*
X188677600Y-149460000D03*
D12*
X188677600Y-151110000D03*
X187027600Y-149460000D03*
X187510874Y-148293274D03*
X189844326Y-148293274D03*
X190327600Y-149460000D03*
X188677600Y-147810000D03*
X189844326Y-150626726D03*
X153855874Y-168406726D03*
X155022600Y-168890000D03*
D13*
X155022600Y-167240000D03*
D12*
X155022600Y-165590000D03*
X156189326Y-168406726D03*
X153372600Y-167240000D03*
X156672600Y-167240000D03*
X156189326Y-166073274D03*
X153855874Y-166073274D03*
X189780826Y-99826726D03*
X188614100Y-100310000D03*
X190264100Y-98660000D03*
X187447374Y-99826726D03*
X188614100Y-97010000D03*
D13*
X188614100Y-98660000D03*
D12*
X186964100Y-98660000D03*
X187447374Y-97493274D03*
X189780826Y-97493274D03*
X144050726Y-99826726D03*
X142884000Y-100310000D03*
X144534000Y-98660000D03*
X141717274Y-99826726D03*
X142884000Y-97010000D03*
D13*
X142884000Y-98660000D03*
D12*
X141234000Y-98660000D03*
X141717274Y-97493274D03*
X144050726Y-97493274D03*
X108125774Y-168406726D03*
X109292500Y-168890000D03*
D13*
X109292500Y-167240000D03*
D12*
X109292500Y-165590000D03*
X110459226Y-168406726D03*
X107642500Y-167240000D03*
X110942500Y-167240000D03*
X110459226Y-166073274D03*
X108125774Y-166073274D03*
X141780774Y-150626726D03*
D13*
X142947500Y-149460000D03*
D12*
X142947500Y-151110000D03*
X141297500Y-149460000D03*
X141780774Y-148293274D03*
X144114226Y-148293274D03*
X144597500Y-149460000D03*
X142947500Y-147810000D03*
X144114226Y-150626726D03*
X108125774Y-99826726D03*
X107642500Y-98660000D03*
X109292500Y-100310000D03*
X109292500Y-97010000D03*
D13*
X109292500Y-98660000D03*
D12*
X110459226Y-99826726D03*
X110459226Y-97493274D03*
X110942500Y-98660000D03*
X108125774Y-97493274D03*
M02*
