%TF.GenerationSoftware,KiCad,Pcbnew,(6.0.5-0)*%
%TF.CreationDate,2022-06-26T01:51:53+09:00*%
%TF.ProjectId,MTCH6102_breakout_panel,4d544348-3631-4303-925f-627265616b6f,rev?*%
%TF.SameCoordinates,PX649cd60PY5a74bd0*%
%TF.FileFunction,Legend,Top*%
%TF.FilePolarity,Positive*%
%FSLAX46Y46*%
G04 Gerber Fmt 4.6, Leading zero omitted, Abs format (unit mm)*
G04 Created by KiCad (PCBNEW (6.0.5-0)) date 2022-06-26 01:51:53*
%MOMM*%
%LPD*%
G01*
G04 APERTURE LIST*
%ADD10C,0.150000*%
%ADD11C,0.200000*%
%ADD12C,1.100000*%
%ADD13C,4.800000*%
G04 APERTURE END LIST*
D10*
X8150000Y-19592000D02*
X10500000Y-21892000D01*
X5800000Y-31892000D02*
X8150000Y-29592000D01*
X61220000Y-21892000D02*
X58870000Y-24192000D01*
X30800000Y-31892000D02*
X33150000Y-29592000D01*
X63870000Y-49192000D02*
X61520000Y-46892000D01*
X8150000Y-34192000D02*
X5800000Y-31892000D01*
X28150000Y-29592000D02*
X30500000Y-31892000D01*
X51520000Y-51892000D02*
X53870000Y-49592000D01*
X15500000Y-41892000D02*
X13150000Y-44192000D01*
X58870000Y-34592000D02*
X61220000Y-36892000D01*
X28150000Y-24592000D02*
X30500000Y-26892000D01*
X68870000Y-44192000D02*
X66520000Y-41892000D01*
X8150000Y-49192000D02*
X5800000Y-46892000D01*
X86995000Y0D02*
X95250000Y0D01*
X8150000Y-39592000D02*
X10500000Y-41892000D01*
G36*
X73670000Y-29342000D02*
G01*
X71370000Y-31642000D01*
X69070000Y-29342000D01*
X71370000Y-27092000D01*
X73670000Y-29342000D01*
G37*
X73670000Y-29342000D02*
X71370000Y-31642000D01*
X69070000Y-29342000D01*
X71370000Y-27092000D01*
X73670000Y-29342000D01*
X63870000Y-44192000D02*
X61520000Y-41892000D01*
G36*
X12950000Y-34342000D02*
G01*
X10650000Y-36642000D01*
X8350000Y-34342000D01*
X10650000Y-32092000D01*
X12950000Y-34342000D01*
G37*
X12950000Y-34342000D02*
X10650000Y-36642000D01*
X8350000Y-34342000D01*
X10650000Y-32092000D01*
X12950000Y-34342000D01*
X66520000Y-21892000D02*
X68870000Y-19592000D01*
X20500000Y-36892000D02*
X18150000Y-39192000D01*
X28150000Y-9092000D02*
X25950000Y-6892000D01*
G36*
X35650000Y-36642000D02*
G01*
X33350000Y-34342000D01*
X35650000Y-32042000D01*
X35650000Y-36642000D01*
G37*
X35650000Y-36642000D02*
X33350000Y-34342000D01*
X35650000Y-32042000D01*
X35650000Y-36642000D01*
G36*
X81370000Y-41642000D02*
G01*
X79070000Y-39342000D01*
X81370000Y-37042000D01*
X81370000Y-41642000D01*
G37*
X81370000Y-41642000D02*
X79070000Y-39342000D01*
X81370000Y-37042000D01*
X81370000Y-41642000D01*
X81220000Y-36892000D02*
X78870000Y-39192000D01*
G36*
X32950000Y-49342000D02*
G01*
X30650000Y-51642000D01*
X28350000Y-49342000D01*
X30650000Y-47092000D01*
X32950000Y-49342000D01*
G37*
X32950000Y-49342000D02*
X30650000Y-51642000D01*
X28350000Y-49342000D01*
X30650000Y-47092000D01*
X32950000Y-49342000D01*
X61220000Y-36892000D02*
X58870000Y-39192000D01*
G36*
X78670000Y-39342000D02*
G01*
X76370000Y-41642000D01*
X74070000Y-39342000D01*
X76370000Y-37092000D01*
X78670000Y-39342000D01*
G37*
X78670000Y-39342000D02*
X76370000Y-41642000D01*
X74070000Y-39342000D01*
X76370000Y-37092000D01*
X78670000Y-39342000D01*
X71120000Y-6892000D02*
X68870000Y-9092000D01*
X15500000Y-21892000D02*
X13150000Y-24192000D01*
X56520000Y-16892000D02*
X58870000Y-14592000D01*
X15950000Y-6892000D02*
X20400000Y-6892000D01*
X56520000Y-51892000D02*
X58870000Y-49592000D01*
X13150000Y-44592000D02*
X15500000Y-46892000D01*
X71220000Y-41892000D02*
X68870000Y-44192000D01*
X56520000Y-36892000D02*
X58870000Y-34592000D01*
G36*
X63670000Y-19342000D02*
G01*
X61370000Y-21642000D01*
X59070000Y-19342000D01*
X61370000Y-17092000D01*
X63670000Y-19342000D01*
G37*
X63670000Y-19342000D02*
X61370000Y-21642000D01*
X59070000Y-19342000D01*
X61370000Y-17092000D01*
X63670000Y-19342000D01*
X68870000Y-14592000D02*
X71220000Y-16892000D01*
X13150000Y-44192000D02*
X10800000Y-41892000D01*
X78870000Y-29192000D02*
X76520000Y-26892000D01*
X61670000Y-6892000D02*
X66120000Y-6892000D01*
X53870000Y-44192000D02*
X51520000Y-41892000D01*
X56520000Y-41892000D02*
X58870000Y-39592000D01*
G36*
X7950000Y-49342000D02*
G01*
X5700000Y-51542000D01*
X5700000Y-47142000D01*
X7950000Y-49342000D01*
G37*
X7950000Y-49342000D02*
X5700000Y-51542000D01*
X5700000Y-47142000D01*
X7950000Y-49342000D01*
G36*
X63670000Y-34342000D02*
G01*
X61370000Y-36642000D01*
X59070000Y-34342000D01*
X61370000Y-32092000D01*
X63670000Y-34342000D01*
G37*
X63670000Y-34342000D02*
X61370000Y-36642000D01*
X59070000Y-34342000D01*
X61370000Y-32092000D01*
X63670000Y-34342000D01*
G36*
X12950000Y-39342000D02*
G01*
X10650000Y-41642000D01*
X8350000Y-39342000D01*
X10650000Y-37092000D01*
X12950000Y-39342000D01*
G37*
X12950000Y-39342000D02*
X10650000Y-41642000D01*
X8350000Y-39342000D01*
X10650000Y-37092000D01*
X12950000Y-39342000D01*
X73870000Y-39192000D02*
X71520000Y-36892000D01*
X78870000Y-49192000D02*
X76520000Y-46892000D01*
X66220000Y-21892000D02*
X63870000Y-24192000D01*
X33150000Y-49192000D02*
X30800000Y-46892000D01*
X76520000Y-51892000D02*
X81220000Y-51892000D01*
X18150000Y-49192000D02*
X15800000Y-46892000D01*
X68870000Y-34192000D02*
X66520000Y-31892000D01*
X63870000Y-19192000D02*
X61520000Y-16892000D01*
X73870000Y-39592000D02*
X76220000Y-41892000D01*
X25800000Y-11892000D02*
X28150000Y-9592000D01*
X78870000Y-24592000D02*
X81220000Y-26892000D01*
X15800000Y-11892000D02*
X18150000Y-9592000D01*
X66220000Y-16892000D02*
X63870000Y-19192000D01*
G36*
X73670000Y-19342000D02*
G01*
X71370000Y-21642000D01*
X69070000Y-19342000D01*
X71370000Y-17092000D01*
X73670000Y-19342000D01*
G37*
X73670000Y-19342000D02*
X71370000Y-21642000D01*
X69070000Y-19342000D01*
X71370000Y-17092000D01*
X73670000Y-19342000D01*
X63870000Y-39192000D02*
X61520000Y-36892000D01*
X76520000Y-36892000D02*
X78870000Y-34592000D01*
X58870000Y-19192000D02*
X56520000Y-16892000D01*
X66520000Y-51892000D02*
X71220000Y-51892000D01*
X66120000Y-6892000D02*
X63870000Y-9092000D01*
X58870000Y-29592000D02*
X61220000Y-31892000D01*
X71220000Y-21892000D02*
X68870000Y-24192000D01*
G36*
X73670000Y-39342000D02*
G01*
X71370000Y-41642000D01*
X69070000Y-39342000D01*
X71370000Y-37092000D01*
X73670000Y-39342000D01*
G37*
X73670000Y-39342000D02*
X71370000Y-41642000D01*
X69070000Y-39342000D01*
X71370000Y-37092000D01*
X73670000Y-39342000D01*
X78870000Y-24192000D02*
X76520000Y-21892000D01*
X33150000Y-39192000D02*
X30800000Y-36892000D01*
X71520000Y-26892000D02*
X73870000Y-24592000D01*
G36*
X53695000Y-14342000D02*
G01*
X51445000Y-16542000D01*
X51445000Y-12142000D01*
X53695000Y-14342000D01*
G37*
X53695000Y-14342000D02*
X51445000Y-16542000D01*
X51445000Y-12142000D01*
X53695000Y-14342000D01*
X25500000Y-21892000D02*
X23150000Y-24192000D01*
X61520000Y-51892000D02*
X63870000Y-49592000D01*
X10500000Y-21892000D02*
X8150000Y-24192000D01*
X68870000Y-39192000D02*
X66520000Y-36892000D01*
X20800000Y-21892000D02*
X23150000Y-19592000D01*
G36*
X32950000Y-24342000D02*
G01*
X30650000Y-26642000D01*
X28350000Y-24342000D01*
X30650000Y-22092000D01*
X32950000Y-24342000D01*
G37*
X32950000Y-24342000D02*
X30650000Y-26642000D01*
X28350000Y-24342000D01*
X30650000Y-22092000D01*
X32950000Y-24342000D01*
G36*
X63670000Y-9342000D02*
G01*
X61370000Y-11642000D01*
X59070000Y-9342000D01*
X61370000Y-7092000D01*
X63670000Y-9342000D01*
G37*
X63670000Y-9342000D02*
X61370000Y-11642000D01*
X59070000Y-9342000D01*
X61370000Y-7092000D01*
X63670000Y-9342000D01*
X10800000Y-46892000D02*
X13150000Y-44592000D01*
G36*
X17950000Y-34342000D02*
G01*
X15650000Y-36642000D01*
X13350000Y-34342000D01*
X15650000Y-32092000D01*
X17950000Y-34342000D01*
G37*
X17950000Y-34342000D02*
X15650000Y-36642000D01*
X13350000Y-34342000D01*
X15650000Y-32092000D01*
X17950000Y-34342000D01*
X30500000Y-26892000D02*
X28150000Y-29192000D01*
X73870000Y-44192000D02*
X71520000Y-41892000D01*
X95250000Y0D02*
X89535000Y-6350000D01*
X81120000Y-6892000D02*
X78870000Y-9092000D01*
X51670000Y-6892000D02*
X56120000Y-6892000D01*
X73870000Y-24192000D02*
X71520000Y-21892000D01*
X78870000Y-9592000D02*
X81220000Y-11892000D01*
G36*
X63670000Y-39342000D02*
G01*
X61370000Y-41642000D01*
X59070000Y-39342000D01*
X61370000Y-37092000D01*
X63670000Y-39342000D01*
G37*
X63670000Y-39342000D02*
X61370000Y-41642000D01*
X59070000Y-39342000D01*
X61370000Y-37092000D01*
X63670000Y-39342000D01*
X81220000Y-11892000D02*
X78870000Y-14192000D01*
X63870000Y-9092000D02*
X61670000Y-6892000D01*
X56220000Y-31892000D02*
X53870000Y-34192000D01*
X15800000Y-26892000D02*
X18150000Y-24592000D01*
G36*
X53695000Y-19342000D02*
G01*
X51445000Y-21542000D01*
X51445000Y-17142000D01*
X53695000Y-19342000D01*
G37*
X53695000Y-19342000D02*
X51445000Y-21542000D01*
X51445000Y-17142000D01*
X53695000Y-19342000D01*
X13150000Y-9092000D02*
X10950000Y-6892000D01*
X13150000Y-14592000D02*
X15500000Y-16892000D01*
X66520000Y-41892000D02*
X68870000Y-39592000D01*
X23150000Y-39592000D02*
X25500000Y-41892000D01*
X71520000Y-41892000D02*
X73870000Y-39592000D01*
X51520000Y-26892000D02*
X53870000Y-24592000D01*
X15500000Y-46892000D02*
X13150000Y-49192000D01*
X53870000Y-49592000D02*
X56220000Y-51892000D01*
X20500000Y-41892000D02*
X18150000Y-44192000D01*
G36*
X22950000Y-24342000D02*
G01*
X20650000Y-26642000D01*
X18350000Y-24342000D01*
X20650000Y-22092000D01*
X22950000Y-24342000D01*
G37*
X22950000Y-24342000D02*
X20650000Y-26642000D01*
X18350000Y-24342000D01*
X20650000Y-22092000D01*
X22950000Y-24342000D01*
X71520000Y-31892000D02*
X73870000Y-29592000D01*
X68870000Y-19192000D02*
X66520000Y-16892000D01*
X25800000Y-46892000D02*
X28150000Y-44592000D01*
G36*
X78670000Y-9342000D02*
G01*
X76370000Y-11642000D01*
X74070000Y-9342000D01*
X76370000Y-7092000D01*
X78670000Y-9342000D01*
G37*
X78670000Y-9342000D02*
X76370000Y-11642000D01*
X74070000Y-9342000D01*
X76370000Y-7092000D01*
X78670000Y-9342000D01*
G36*
X17950000Y-14342000D02*
G01*
X15650000Y-16642000D01*
X13350000Y-14342000D01*
X15650000Y-12092000D01*
X17950000Y-14342000D01*
G37*
X17950000Y-14342000D02*
X15650000Y-16642000D01*
X13350000Y-14342000D01*
X15650000Y-12092000D01*
X17950000Y-14342000D01*
X28150000Y-34592000D02*
X30500000Y-36892000D01*
X13150000Y-34592000D02*
X15500000Y-36892000D01*
X8150000Y-19192000D02*
X5800000Y-16892000D01*
G36*
X27950000Y-34342000D02*
G01*
X25650000Y-36642000D01*
X23350000Y-34342000D01*
X25650000Y-32092000D01*
X27950000Y-34342000D01*
G37*
X27950000Y-34342000D02*
X25650000Y-36642000D01*
X23350000Y-34342000D01*
X25650000Y-32092000D01*
X27950000Y-34342000D01*
G36*
X22950000Y-49342000D02*
G01*
X20650000Y-51642000D01*
X18350000Y-49342000D01*
X20650000Y-47092000D01*
X22950000Y-49342000D01*
G37*
X22950000Y-49342000D02*
X20650000Y-51642000D01*
X18350000Y-49342000D01*
X20650000Y-47092000D01*
X22950000Y-49342000D01*
X28150000Y-14592000D02*
X30500000Y-16892000D01*
G36*
X81370000Y-11642000D02*
G01*
X79070000Y-9342000D01*
X81370000Y-7042000D01*
X81370000Y-11642000D01*
G37*
X81370000Y-11642000D02*
X79070000Y-9342000D01*
X81370000Y-7042000D01*
X81370000Y-11642000D01*
X56520000Y-26892000D02*
X58870000Y-24592000D01*
X71520000Y-16892000D02*
X73870000Y-14592000D01*
X63870000Y-39592000D02*
X66220000Y-41892000D01*
X10500000Y-11892000D02*
X8150000Y-14192000D01*
X51520000Y-31892000D02*
X53870000Y-29592000D01*
X66520000Y-46892000D02*
X68870000Y-44592000D01*
X25950000Y-6892000D02*
X30400000Y-6892000D01*
G36*
X68670000Y-24342000D02*
G01*
X66370000Y-26642000D01*
X64070000Y-24342000D01*
X66370000Y-22092000D01*
X68670000Y-24342000D01*
G37*
X68670000Y-24342000D02*
X66370000Y-26642000D01*
X64070000Y-24342000D01*
X66370000Y-22092000D01*
X68670000Y-24342000D01*
G36*
X22950000Y-29342000D02*
G01*
X20650000Y-31642000D01*
X18350000Y-29342000D01*
X20650000Y-27092000D01*
X22950000Y-29342000D01*
G37*
X22950000Y-29342000D02*
X20650000Y-31642000D01*
X18350000Y-29342000D01*
X20650000Y-27092000D01*
X22950000Y-29342000D01*
X33150000Y-29192000D02*
X30800000Y-26892000D01*
X78870000Y-39192000D02*
X76520000Y-36892000D01*
X61520000Y-31892000D02*
X63870000Y-29592000D01*
X76520000Y-31892000D02*
X78870000Y-29592000D01*
X18150000Y-44192000D02*
X15800000Y-41892000D01*
X81720000Y-52342000D02*
X51120000Y-52342000D01*
X51120000Y-52342000D02*
X51120000Y-6542000D01*
X51120000Y-6542000D02*
X81720000Y-6542000D01*
X81720000Y-6542000D02*
X81720000Y-52342000D01*
X35500000Y-31892000D02*
X33150000Y-34192000D01*
X20500000Y-21892000D02*
X18150000Y-24192000D01*
G36*
X22950000Y-14342000D02*
G01*
X20650000Y-16642000D01*
X18350000Y-14342000D01*
X20650000Y-12092000D01*
X22950000Y-14342000D01*
G37*
X22950000Y-14342000D02*
X20650000Y-16642000D01*
X18350000Y-14342000D01*
X20650000Y-12092000D01*
X22950000Y-14342000D01*
X73870000Y-44592000D02*
X76220000Y-46892000D01*
G36*
X7975000Y-29342000D02*
G01*
X5725000Y-31542000D01*
X5725000Y-27142000D01*
X7975000Y-29342000D01*
G37*
X7975000Y-29342000D02*
X5725000Y-31542000D01*
X5725000Y-27142000D01*
X7975000Y-29342000D01*
X51520000Y-51892000D02*
X56220000Y-51892000D01*
X63870000Y-24192000D02*
X61520000Y-21892000D01*
X10800000Y-41892000D02*
X13150000Y-39592000D01*
X56220000Y-21892000D02*
X53870000Y-24192000D01*
X18150000Y-14592000D02*
X20500000Y-16892000D01*
G36*
X7975000Y-9317000D02*
G01*
X5725000Y-11542000D01*
X5725000Y-7067000D01*
X7975000Y-9317000D01*
G37*
X7975000Y-9317000D02*
X5725000Y-11542000D01*
X5725000Y-7067000D01*
X7975000Y-9317000D01*
X56670000Y-6892000D02*
X61120000Y-6892000D01*
X13150000Y-9592000D02*
X15500000Y-11892000D01*
X81220000Y-46892000D02*
X78870000Y-49192000D01*
G36*
X53695000Y-44342000D02*
G01*
X51445000Y-46542000D01*
X51445000Y-42142000D01*
X53695000Y-44342000D01*
G37*
X53695000Y-44342000D02*
X51445000Y-46542000D01*
X51445000Y-42142000D01*
X53695000Y-44342000D01*
X56520000Y-11892000D02*
X58870000Y-9592000D01*
X25800000Y-21892000D02*
X28150000Y-19592000D01*
X76220000Y-16892000D02*
X73870000Y-19192000D01*
X8150000Y-29192000D02*
X5800000Y-26892000D01*
X25500000Y-26892000D02*
X23150000Y-29192000D01*
X61220000Y-46892000D02*
X58870000Y-49192000D01*
X18150000Y-39192000D02*
X15800000Y-36892000D01*
X56220000Y-26892000D02*
X53870000Y-29192000D01*
X18150000Y-49592000D02*
X20500000Y-51892000D01*
G36*
X58670000Y-29342000D02*
G01*
X56370000Y-31642000D01*
X54070000Y-29342000D01*
X56370000Y-27092000D01*
X58670000Y-29342000D01*
G37*
X58670000Y-29342000D02*
X56370000Y-31642000D01*
X54070000Y-29342000D01*
X56370000Y-27092000D01*
X58670000Y-29342000D01*
G36*
X27950000Y-39342000D02*
G01*
X25650000Y-41642000D01*
X23350000Y-39342000D01*
X25650000Y-37092000D01*
X27950000Y-39342000D01*
G37*
X27950000Y-39342000D02*
X25650000Y-41642000D01*
X23350000Y-39342000D01*
X25650000Y-37092000D01*
X27950000Y-39342000D01*
X63870000Y-9592000D02*
X66220000Y-11892000D01*
X73870000Y-9092000D02*
X71670000Y-6892000D01*
X13150000Y-29592000D02*
X15500000Y-31892000D01*
X58870000Y-9592000D02*
X61220000Y-11892000D01*
X15800000Y-21892000D02*
X18150000Y-19592000D01*
X35500000Y-26892000D02*
X33150000Y-29192000D01*
X28150000Y-34192000D02*
X25800000Y-31892000D01*
X35500000Y-21892000D02*
X33150000Y-24192000D01*
X33150000Y-49592000D02*
X35500000Y-51892000D01*
X5800000Y-51892000D02*
X8150000Y-49592000D01*
G36*
X78670000Y-34342000D02*
G01*
X76370000Y-36642000D01*
X74070000Y-34342000D01*
X76370000Y-32092000D01*
X78670000Y-34342000D01*
G37*
X78670000Y-34342000D02*
X76370000Y-36642000D01*
X74070000Y-34342000D01*
X76370000Y-32092000D01*
X78670000Y-34342000D01*
X81220000Y-26892000D02*
X78870000Y-29192000D01*
G36*
X22950000Y-44342000D02*
G01*
X20650000Y-46642000D01*
X18350000Y-44342000D01*
X20650000Y-42092000D01*
X22950000Y-44342000D01*
G37*
X22950000Y-44342000D02*
X20650000Y-46642000D01*
X18350000Y-44342000D01*
X20650000Y-42092000D01*
X22950000Y-44342000D01*
X25800000Y-31892000D02*
X28150000Y-29592000D01*
X71220000Y-36892000D02*
X68870000Y-39192000D01*
X66670000Y-6892000D02*
X71120000Y-6892000D01*
X61520000Y-41892000D02*
X63870000Y-39592000D01*
G36*
X32950000Y-14342000D02*
G01*
X30650000Y-16642000D01*
X28350000Y-14342000D01*
X30650000Y-12092000D01*
X32950000Y-14342000D01*
G37*
X32950000Y-14342000D02*
X30650000Y-16642000D01*
X28350000Y-14342000D01*
X30650000Y-12092000D01*
X32950000Y-14342000D01*
X76520000Y-16892000D02*
X78870000Y-14592000D01*
X53870000Y-24192000D02*
X51520000Y-21892000D01*
X25500000Y-46892000D02*
X23150000Y-49192000D01*
G36*
X32950000Y-29342000D02*
G01*
X30650000Y-31642000D01*
X28350000Y-29342000D01*
X30650000Y-27092000D01*
X32950000Y-29342000D01*
G37*
X32950000Y-29342000D02*
X30650000Y-31642000D01*
X28350000Y-29342000D01*
X30650000Y-27092000D01*
X32950000Y-29342000D01*
X25800000Y-51892000D02*
X30500000Y-51892000D01*
X78870000Y-34592000D02*
X81220000Y-36892000D01*
X56220000Y-11892000D02*
X53870000Y-14192000D01*
X25400000Y-6892000D02*
X23150000Y-9092000D01*
G36*
X68670000Y-9342000D02*
G01*
X66370000Y-11642000D01*
X64070000Y-9342000D01*
X66370000Y-7092000D01*
X68670000Y-9342000D01*
G37*
X68670000Y-9342000D02*
X66370000Y-11642000D01*
X64070000Y-9342000D01*
X66370000Y-7092000D01*
X68670000Y-9342000D01*
X30500000Y-11892000D02*
X28150000Y-14192000D01*
X76670000Y-6892000D02*
X81120000Y-6892000D01*
X56220000Y-36892000D02*
X53870000Y-39192000D01*
X78870000Y-14592000D02*
X81220000Y-16892000D01*
G36*
X7975000Y-44342000D02*
G01*
X5725000Y-46542000D01*
X5725000Y-42142000D01*
X7975000Y-44342000D01*
G37*
X7975000Y-44342000D02*
X5725000Y-46542000D01*
X5725000Y-42142000D01*
X7975000Y-44342000D01*
X51520000Y-46892000D02*
X53870000Y-44592000D01*
G36*
X17950000Y-44342000D02*
G01*
X15650000Y-46642000D01*
X13350000Y-44342000D01*
X15650000Y-42092000D01*
X17950000Y-44342000D01*
G37*
X17950000Y-44342000D02*
X15650000Y-46642000D01*
X13350000Y-44342000D01*
X15650000Y-42092000D01*
X17950000Y-44342000D01*
X23150000Y-49592000D02*
X25500000Y-51892000D01*
X56520000Y-51892000D02*
X61220000Y-51892000D01*
G36*
X32950000Y-44342000D02*
G01*
X30650000Y-46642000D01*
X28350000Y-44342000D01*
X30650000Y-42092000D01*
X32950000Y-44342000D01*
G37*
X32950000Y-44342000D02*
X30650000Y-46642000D01*
X28350000Y-44342000D01*
X30650000Y-42092000D01*
X32950000Y-44342000D01*
X20950000Y-6892000D02*
X25400000Y-6892000D01*
X23150000Y-9092000D02*
X20950000Y-6892000D01*
X58870000Y-34192000D02*
X56520000Y-31892000D01*
X68870000Y-24592000D02*
X71220000Y-26892000D01*
X15800000Y-51892000D02*
X20500000Y-51892000D01*
G36*
X58670000Y-34342000D02*
G01*
X56370000Y-36642000D01*
X54070000Y-34342000D01*
X56370000Y-32092000D01*
X58670000Y-34342000D01*
G37*
X58670000Y-34342000D02*
X56370000Y-36642000D01*
X54070000Y-34342000D01*
X56370000Y-32092000D01*
X58670000Y-34342000D01*
X78870000Y-44192000D02*
X76520000Y-41892000D01*
X8150000Y-34592000D02*
X10500000Y-36892000D01*
G36*
X17950000Y-39342000D02*
G01*
X15650000Y-41642000D01*
X13350000Y-39342000D01*
X15650000Y-37092000D01*
X17950000Y-39342000D01*
G37*
X17950000Y-39342000D02*
X15650000Y-41642000D01*
X13350000Y-39342000D01*
X15650000Y-37092000D01*
X17950000Y-39342000D01*
X71520000Y-51892000D02*
X73870000Y-49592000D01*
X28150000Y-19592000D02*
X30500000Y-21892000D01*
X76520000Y-41892000D02*
X78870000Y-39592000D01*
G36*
X53670000Y-49342000D02*
G01*
X51420000Y-51542000D01*
X51420000Y-47142000D01*
X53670000Y-49342000D01*
G37*
X53670000Y-49342000D02*
X51420000Y-51542000D01*
X51420000Y-47142000D01*
X53670000Y-49342000D01*
X66220000Y-26892000D02*
X63870000Y-29192000D01*
X23150000Y-29192000D02*
X20800000Y-26892000D01*
X8150000Y-24192000D02*
X5800000Y-21892000D01*
X13150000Y-49592000D02*
X15500000Y-51892000D01*
X30800000Y-21892000D02*
X33150000Y-19592000D01*
G36*
X35650000Y-11642000D02*
G01*
X33350000Y-9342000D01*
X35650000Y-7042000D01*
X35650000Y-11642000D01*
G37*
X35650000Y-11642000D02*
X33350000Y-9342000D01*
X35650000Y-7042000D01*
X35650000Y-11642000D01*
X71220000Y-26892000D02*
X68870000Y-29192000D01*
X35500000Y-46892000D02*
X33150000Y-49192000D01*
X5800000Y-46892000D02*
X8150000Y-44592000D01*
X15500000Y-16892000D02*
X13150000Y-19192000D01*
X33150000Y-19592000D02*
X35500000Y-21892000D01*
X53870000Y-19592000D02*
X56220000Y-21892000D01*
X71220000Y-11892000D02*
X68870000Y-14192000D01*
X15800000Y-51892000D02*
X18150000Y-49592000D01*
G36*
X12950000Y-14342000D02*
G01*
X10650000Y-16642000D01*
X8350000Y-14342000D01*
X10650000Y-12092000D01*
X12950000Y-14342000D01*
G37*
X12950000Y-14342000D02*
X10650000Y-16642000D01*
X8350000Y-14342000D01*
X10650000Y-12092000D01*
X12950000Y-14342000D01*
X73870000Y-34192000D02*
X71520000Y-31892000D01*
X10800000Y-36892000D02*
X13150000Y-34592000D01*
X13150000Y-34192000D02*
X10800000Y-31892000D01*
G36*
X63670000Y-44342000D02*
G01*
X61370000Y-46642000D01*
X59070000Y-44342000D01*
X61370000Y-42092000D01*
X63670000Y-44342000D01*
G37*
X63670000Y-44342000D02*
X61370000Y-46642000D01*
X59070000Y-44342000D01*
X61370000Y-42092000D01*
X63670000Y-44342000D01*
X35400000Y-6892000D02*
X33150000Y-9092000D01*
X13150000Y-24192000D02*
X10800000Y-21892000D01*
X8150000Y-49592000D02*
X10500000Y-51892000D01*
X15800000Y-41892000D02*
X18150000Y-39592000D01*
X73870000Y-19592000D02*
X76220000Y-21892000D01*
X89535000Y6350000D02*
X95250000Y0D01*
X10400000Y-6892000D02*
X8150000Y-9092000D01*
G36*
X78670000Y-29342000D02*
G01*
X76370000Y-31642000D01*
X74070000Y-29342000D01*
X76370000Y-27092000D01*
X78670000Y-29342000D01*
G37*
X78670000Y-29342000D02*
X76370000Y-31642000D01*
X74070000Y-29342000D01*
X76370000Y-27092000D01*
X78670000Y-29342000D01*
X18150000Y-29592000D02*
X20500000Y-31892000D01*
X23150000Y-19192000D02*
X20800000Y-16892000D01*
X20500000Y-26892000D02*
X18150000Y-29192000D01*
X28150000Y-19192000D02*
X25800000Y-16892000D01*
X63870000Y-34592000D02*
X66220000Y-36892000D01*
X25800000Y-36892000D02*
X28150000Y-34592000D01*
X18150000Y-44592000D02*
X20500000Y-46892000D01*
X71520000Y-11892000D02*
X73870000Y-9592000D01*
G36*
X27950000Y-14342000D02*
G01*
X25650000Y-16642000D01*
X23350000Y-14342000D01*
X25650000Y-12092000D01*
X27950000Y-14342000D01*
G37*
X27950000Y-14342000D02*
X25650000Y-16642000D01*
X23350000Y-14342000D01*
X25650000Y-12092000D01*
X27950000Y-14342000D01*
G36*
X53695000Y-34342000D02*
G01*
X51445000Y-36542000D01*
X51445000Y-32142000D01*
X53695000Y-34342000D01*
G37*
X53695000Y-34342000D02*
X51445000Y-36542000D01*
X51445000Y-32142000D01*
X53695000Y-34342000D01*
G36*
X58670000Y-14342000D02*
G01*
X56370000Y-16642000D01*
X54070000Y-14342000D01*
X56370000Y-12092000D01*
X58670000Y-14342000D01*
G37*
X58670000Y-14342000D02*
X56370000Y-16642000D01*
X54070000Y-14342000D01*
X56370000Y-12092000D01*
X58670000Y-14342000D01*
X76520000Y-11892000D02*
X78870000Y-9592000D01*
X78870000Y-39592000D02*
X81220000Y-41892000D01*
G36*
X58670000Y-39342000D02*
G01*
X56370000Y-41642000D01*
X54070000Y-39342000D01*
X56370000Y-37092000D01*
X58670000Y-39342000D01*
G37*
X58670000Y-39342000D02*
X56370000Y-41642000D01*
X54070000Y-39342000D01*
X56370000Y-37092000D01*
X58670000Y-39342000D01*
X20800000Y-46892000D02*
X23150000Y-44592000D01*
X18150000Y-9592000D02*
X20500000Y-11892000D01*
G36*
X68670000Y-14342000D02*
G01*
X66370000Y-16642000D01*
X64070000Y-14342000D01*
X66370000Y-12092000D01*
X68670000Y-14342000D01*
G37*
X68670000Y-14342000D02*
X66370000Y-16642000D01*
X64070000Y-14342000D01*
X66370000Y-12092000D01*
X68670000Y-14342000D01*
X23150000Y-29592000D02*
X25500000Y-31892000D01*
X33150000Y-24592000D02*
X35500000Y-26892000D01*
X20500000Y-11892000D02*
X18150000Y-14192000D01*
X5800000Y-51892000D02*
X10500000Y-51892000D01*
X58870000Y-44192000D02*
X56520000Y-41892000D01*
X76220000Y-36892000D02*
X73870000Y-39192000D01*
X61520000Y-16892000D02*
X63870000Y-14592000D01*
G36*
X58670000Y-9342000D02*
G01*
X56370000Y-11642000D01*
X54070000Y-9342000D01*
X56370000Y-7092000D01*
X58670000Y-9342000D01*
G37*
X58670000Y-9342000D02*
X56370000Y-11642000D01*
X54070000Y-9342000D01*
X56370000Y-7092000D01*
X58670000Y-9342000D01*
X18150000Y-29192000D02*
X15800000Y-26892000D01*
X13150000Y-19592000D02*
X15500000Y-21892000D01*
X5800000Y-11892000D02*
X8150000Y-9592000D01*
X51520000Y-11892000D02*
X53870000Y-9592000D01*
X61220000Y-16892000D02*
X58870000Y-19192000D01*
X76220000Y-21892000D02*
X73870000Y-24192000D01*
X73870000Y-24592000D02*
X76220000Y-26892000D01*
X28150000Y-49592000D02*
X30500000Y-51892000D01*
X78870000Y-9092000D02*
X76670000Y-6892000D01*
G36*
X27950000Y-24342000D02*
G01*
X25650000Y-26642000D01*
X23350000Y-24342000D01*
X25650000Y-22092000D01*
X27950000Y-24342000D01*
G37*
X27950000Y-24342000D02*
X25650000Y-26642000D01*
X23350000Y-24342000D01*
X25650000Y-22092000D01*
X27950000Y-24342000D01*
G36*
X12950000Y-29342000D02*
G01*
X10650000Y-31642000D01*
X8350000Y-29342000D01*
X10650000Y-27092000D01*
X12950000Y-29342000D01*
G37*
X12950000Y-29342000D02*
X10650000Y-31642000D01*
X8350000Y-29342000D01*
X10650000Y-27092000D01*
X12950000Y-29342000D01*
X33150000Y-14592000D02*
X35500000Y-16892000D01*
X81220000Y-41892000D02*
X78870000Y-44192000D01*
X23150000Y-39192000D02*
X20800000Y-36892000D01*
X66220000Y-41892000D02*
X63870000Y-44192000D01*
X28150000Y-24192000D02*
X25800000Y-21892000D01*
X68870000Y-44592000D02*
X71220000Y-46892000D01*
X15800000Y-16892000D02*
X18150000Y-14592000D01*
X18150000Y-24192000D02*
X15800000Y-21892000D01*
G36*
X78670000Y-49342000D02*
G01*
X76370000Y-51642000D01*
X74070000Y-49342000D01*
X76370000Y-47092000D01*
X78670000Y-49342000D01*
G37*
X78670000Y-49342000D02*
X76370000Y-51642000D01*
X74070000Y-49342000D01*
X76370000Y-47092000D01*
X78670000Y-49342000D01*
X76220000Y-26892000D02*
X73870000Y-29192000D01*
X18150000Y-14192000D02*
X15800000Y-11892000D01*
X56520000Y-31892000D02*
X58870000Y-29592000D01*
X23150000Y-14592000D02*
X25500000Y-16892000D01*
G36*
X81370000Y-51642000D02*
G01*
X79070000Y-49342000D01*
X81370000Y-47042000D01*
X81370000Y-51642000D01*
G37*
X81370000Y-51642000D02*
X79070000Y-49342000D01*
X81370000Y-47042000D01*
X81370000Y-51642000D01*
X15500000Y-11892000D02*
X13150000Y-14192000D01*
X81220000Y-21892000D02*
X78870000Y-24192000D01*
X71520000Y-36892000D02*
X73870000Y-34592000D01*
X18150000Y-9092000D02*
X15950000Y-6892000D01*
X5800000Y-26892000D02*
X8150000Y-24592000D01*
X51520000Y-36892000D02*
X53870000Y-34592000D01*
X23150000Y-49192000D02*
X20800000Y-46892000D01*
X13150000Y-29192000D02*
X10800000Y-26892000D01*
X78870000Y-19192000D02*
X76520000Y-16892000D01*
X73870000Y-29592000D02*
X76220000Y-31892000D01*
X66520000Y-31892000D02*
X68870000Y-29592000D01*
G36*
X12950000Y-19342000D02*
G01*
X10650000Y-21642000D01*
X8350000Y-19342000D01*
X10650000Y-17092000D01*
X12950000Y-19342000D01*
G37*
X12950000Y-19342000D02*
X10650000Y-21642000D01*
X8350000Y-19342000D01*
X10650000Y-17092000D01*
X12950000Y-19342000D01*
X8150000Y-9092000D02*
X5950000Y-6892000D01*
X23150000Y-44192000D02*
X20800000Y-41892000D01*
G36*
X81370000Y-36642000D02*
G01*
X79070000Y-34342000D01*
X81370000Y-32042000D01*
X81370000Y-36642000D01*
G37*
X81370000Y-36642000D02*
X79070000Y-34342000D01*
X81370000Y-32042000D01*
X81370000Y-36642000D01*
X33150000Y-34192000D02*
X30800000Y-31892000D01*
X63870000Y-14192000D02*
X61520000Y-11892000D01*
X63870000Y-19592000D02*
X66220000Y-21892000D01*
X25800000Y-51892000D02*
X28150000Y-49592000D01*
X33150000Y-24192000D02*
X30800000Y-21892000D01*
X66220000Y-11892000D02*
X63870000Y-14192000D01*
X20800000Y-11892000D02*
X23150000Y-9592000D01*
X71220000Y-46892000D02*
X68870000Y-49192000D01*
X66220000Y-46892000D02*
X63870000Y-49192000D01*
G36*
X81370000Y-21642000D02*
G01*
X79070000Y-19342000D01*
X81370000Y-17042000D01*
X81370000Y-21642000D01*
G37*
X81370000Y-21642000D02*
X79070000Y-19342000D01*
X81370000Y-17042000D01*
X81370000Y-21642000D01*
X23150000Y-19592000D02*
X25500000Y-21892000D01*
G36*
X32950000Y-34342000D02*
G01*
X30650000Y-36642000D01*
X28350000Y-34342000D01*
X30650000Y-32092000D01*
X32950000Y-34342000D01*
G37*
X32950000Y-34342000D02*
X30650000Y-36642000D01*
X28350000Y-34342000D01*
X30650000Y-32092000D01*
X32950000Y-34342000D01*
X33150000Y-44592000D02*
X35500000Y-46892000D01*
G36*
X12950000Y-9342000D02*
G01*
X10650000Y-11642000D01*
X8350000Y-9342000D01*
X10650000Y-7092000D01*
X12950000Y-9342000D01*
G37*
X12950000Y-9342000D02*
X10650000Y-11642000D01*
X8350000Y-9342000D01*
X10650000Y-7092000D01*
X12950000Y-9342000D01*
X20400000Y-6892000D02*
X18150000Y-9092000D01*
X10500000Y-31892000D02*
X8150000Y-34192000D01*
X63870000Y-14592000D02*
X66220000Y-16892000D01*
X30800000Y-36892000D02*
X33150000Y-34592000D01*
X51520000Y-21892000D02*
X53870000Y-19592000D01*
X8150000Y-44592000D02*
X10500000Y-46892000D01*
X76120000Y-6892000D02*
X73870000Y-9092000D01*
X8150000Y-39192000D02*
X5800000Y-36892000D01*
X61520000Y-21892000D02*
X63870000Y-19592000D01*
X15800000Y-31892000D02*
X18150000Y-29592000D01*
X53870000Y-9092000D02*
X51670000Y-6892000D01*
X30500000Y-31892000D02*
X28150000Y-34192000D01*
G36*
X32950000Y-39342000D02*
G01*
X30650000Y-41642000D01*
X28350000Y-39342000D01*
X30650000Y-37092000D01*
X32950000Y-39342000D01*
G37*
X32950000Y-39342000D02*
X30650000Y-41642000D01*
X28350000Y-39342000D01*
X30650000Y-37092000D01*
X32950000Y-39342000D01*
X33150000Y-19192000D02*
X30800000Y-16892000D01*
X73870000Y-19192000D02*
X71520000Y-16892000D01*
X71670000Y-6892000D02*
X76120000Y-6892000D01*
X51520000Y-41892000D02*
X53870000Y-39592000D01*
G36*
X35650000Y-16642000D02*
G01*
X33350000Y-14342000D01*
X35650000Y-12042000D01*
X35650000Y-16642000D01*
G37*
X35650000Y-16642000D02*
X33350000Y-14342000D01*
X35650000Y-12042000D01*
X35650000Y-16642000D01*
X58870000Y-49192000D02*
X56520000Y-46892000D01*
X81220000Y-16892000D02*
X78870000Y-19192000D01*
X5800000Y-21892000D02*
X8150000Y-19592000D01*
X78870000Y-19592000D02*
X81220000Y-21892000D01*
X61520000Y-26892000D02*
X63870000Y-24592000D01*
X10800000Y-31892000D02*
X13150000Y-29592000D01*
X66220000Y-36892000D02*
X63870000Y-39192000D01*
G36*
X7975000Y-39342000D02*
G01*
X5725000Y-41542000D01*
X5725000Y-37142000D01*
X7975000Y-39342000D01*
G37*
X7975000Y-39342000D02*
X5725000Y-41542000D01*
X5725000Y-37142000D01*
X7975000Y-39342000D01*
X13150000Y-49192000D02*
X10800000Y-46892000D01*
X18150000Y-34592000D02*
X20500000Y-36892000D01*
X81220000Y-31892000D02*
X78870000Y-34192000D01*
X15500000Y-36892000D02*
X13150000Y-39192000D01*
G36*
X68670000Y-34342000D02*
G01*
X66370000Y-36642000D01*
X64070000Y-34342000D01*
X66370000Y-32092000D01*
X68670000Y-34342000D01*
G37*
X68670000Y-34342000D02*
X66370000Y-36642000D01*
X64070000Y-34342000D01*
X66370000Y-32092000D01*
X68670000Y-34342000D01*
G36*
X58670000Y-24342000D02*
G01*
X56370000Y-26642000D01*
X54070000Y-24342000D01*
X56370000Y-22092000D01*
X58670000Y-24342000D01*
G37*
X58670000Y-24342000D02*
X56370000Y-26642000D01*
X54070000Y-24342000D01*
X56370000Y-22092000D01*
X58670000Y-24342000D01*
X23150000Y-44592000D02*
X25500000Y-46892000D01*
X76520000Y-26892000D02*
X78870000Y-24592000D01*
X56520000Y-21892000D02*
X58870000Y-19592000D01*
X58870000Y-29192000D02*
X56520000Y-26892000D01*
G36*
X73670000Y-9342000D02*
G01*
X71370000Y-11642000D01*
X69070000Y-9342000D01*
X71370000Y-7092000D01*
X73670000Y-9342000D01*
G37*
X73670000Y-9342000D02*
X71370000Y-11642000D01*
X69070000Y-9342000D01*
X71370000Y-7092000D01*
X73670000Y-9342000D01*
X58870000Y-14192000D02*
X56520000Y-11892000D01*
X66220000Y-31892000D02*
X63870000Y-34192000D01*
G36*
X32950000Y-9342000D02*
G01*
X30650000Y-11642000D01*
X28350000Y-9342000D01*
X30650000Y-7092000D01*
X32950000Y-9342000D01*
G37*
X32950000Y-9342000D02*
X30650000Y-11642000D01*
X28350000Y-9342000D01*
X30650000Y-7092000D01*
X32950000Y-9342000D01*
X76520000Y-51892000D02*
X78870000Y-49592000D01*
G36*
X81370000Y-26642000D02*
G01*
X79070000Y-24342000D01*
X81370000Y-22042000D01*
X81370000Y-26642000D01*
G37*
X81370000Y-26642000D02*
X79070000Y-24342000D01*
X81370000Y-22042000D01*
X81370000Y-26642000D01*
G36*
X68670000Y-44342000D02*
G01*
X66370000Y-46642000D01*
X64070000Y-44342000D01*
X66370000Y-42092000D01*
X68670000Y-44342000D01*
G37*
X68670000Y-44342000D02*
X66370000Y-46642000D01*
X64070000Y-44342000D01*
X66370000Y-42092000D01*
X68670000Y-44342000D01*
X53870000Y-9592000D02*
X56220000Y-11892000D01*
G36*
X53695000Y-29342000D02*
G01*
X51445000Y-31542000D01*
X51445000Y-27142000D01*
X53695000Y-29342000D01*
G37*
X53695000Y-29342000D02*
X51445000Y-31542000D01*
X51445000Y-27142000D01*
X53695000Y-29342000D01*
G36*
X17950000Y-19342000D02*
G01*
X15650000Y-21642000D01*
X13350000Y-19342000D01*
X15650000Y-17092000D01*
X17950000Y-19342000D01*
G37*
X17950000Y-19342000D02*
X15650000Y-21642000D01*
X13350000Y-19342000D01*
X15650000Y-17092000D01*
X17950000Y-19342000D01*
G36*
X73670000Y-24342000D02*
G01*
X71370000Y-26642000D01*
X69070000Y-24342000D01*
X71370000Y-22092000D01*
X73670000Y-24342000D01*
G37*
X73670000Y-24342000D02*
X71370000Y-26642000D01*
X69070000Y-24342000D01*
X71370000Y-22092000D01*
X73670000Y-24342000D01*
X66520000Y-51892000D02*
X68870000Y-49592000D01*
X25500000Y-41892000D02*
X23150000Y-44192000D01*
X68870000Y-49192000D02*
X66520000Y-46892000D01*
X10500000Y-36892000D02*
X8150000Y-39192000D01*
X53870000Y-34592000D02*
X56220000Y-36892000D01*
X53870000Y-39192000D02*
X51520000Y-36892000D01*
X13150000Y-24592000D02*
X15500000Y-26892000D01*
X10500000Y-26892000D02*
X8150000Y-29192000D01*
G36*
X68670000Y-19342000D02*
G01*
X66370000Y-21642000D01*
X64070000Y-19342000D01*
X66370000Y-17092000D01*
X68670000Y-19342000D01*
G37*
X68670000Y-19342000D02*
X66370000Y-21642000D01*
X64070000Y-19342000D01*
X66370000Y-17092000D01*
X68670000Y-19342000D01*
X33150000Y-9592000D02*
X35500000Y-11892000D01*
X5800000Y-41892000D02*
X8150000Y-39592000D01*
X33150000Y-34592000D02*
X35500000Y-36892000D01*
X8150000Y-44192000D02*
X5800000Y-41892000D01*
X68870000Y-34592000D02*
X71220000Y-36892000D01*
X30800000Y-11892000D02*
X33150000Y-9592000D01*
X63870000Y-29592000D02*
X66220000Y-31892000D01*
X68870000Y-14192000D02*
X66520000Y-11892000D01*
X73870000Y-29192000D02*
X71520000Y-26892000D01*
G36*
X63670000Y-29342000D02*
G01*
X61370000Y-31642000D01*
X59070000Y-29342000D01*
X61370000Y-27092000D01*
X63670000Y-29342000D01*
G37*
X63670000Y-29342000D02*
X61370000Y-31642000D01*
X59070000Y-29342000D01*
X61370000Y-27092000D01*
X63670000Y-29342000D01*
X78870000Y-49592000D02*
X81220000Y-51892000D01*
X20800000Y-41892000D02*
X23150000Y-39592000D01*
X71520000Y-21892000D02*
X73870000Y-19592000D01*
X8150000Y-9592000D02*
X10500000Y-11892000D01*
X28150000Y-44192000D02*
X25800000Y-41892000D01*
X15800000Y-36892000D02*
X18150000Y-34592000D01*
X28150000Y-44592000D02*
X30500000Y-46892000D01*
X58870000Y-44592000D02*
X61220000Y-46892000D01*
X76220000Y-31892000D02*
X73870000Y-34192000D01*
X25800000Y-26892000D02*
X28150000Y-24592000D01*
G36*
X35650000Y-51642000D02*
G01*
X33350000Y-49342000D01*
X35650000Y-47042000D01*
X35650000Y-51642000D01*
G37*
X35650000Y-51642000D02*
X33350000Y-49342000D01*
X35650000Y-47042000D01*
X35650000Y-51642000D01*
X68870000Y-29192000D02*
X66520000Y-26892000D01*
X66520000Y-11892000D02*
X68870000Y-9592000D01*
X25800000Y-41892000D02*
X28150000Y-39592000D01*
X23150000Y-34192000D02*
X20800000Y-31892000D01*
X5800000Y-36892000D02*
X8150000Y-34592000D01*
X13150000Y-14192000D02*
X10800000Y-11892000D01*
X73870000Y-14192000D02*
X71520000Y-11892000D01*
X30950000Y-6892000D02*
X35400000Y-6892000D01*
X73870000Y-49192000D02*
X71520000Y-46892000D01*
G36*
X27950000Y-44342000D02*
G01*
X25650000Y-46642000D01*
X23350000Y-44342000D01*
X25650000Y-42092000D01*
X27950000Y-44342000D01*
G37*
X27950000Y-44342000D02*
X25650000Y-46642000D01*
X23350000Y-44342000D01*
X25650000Y-42092000D01*
X27950000Y-44342000D01*
X30800000Y-51892000D02*
X35500000Y-51892000D01*
G36*
X81370000Y-46642000D02*
G01*
X79070000Y-44342000D01*
X81370000Y-42042000D01*
X81370000Y-46642000D01*
G37*
X81370000Y-46642000D02*
X79070000Y-44342000D01*
X81370000Y-42042000D01*
X81370000Y-46642000D01*
X66520000Y-36892000D02*
X68870000Y-34592000D01*
X78870000Y-14192000D02*
X76520000Y-11892000D01*
G36*
X63670000Y-24342000D02*
G01*
X61370000Y-26642000D01*
X59070000Y-24342000D01*
X61370000Y-22092000D01*
X63670000Y-24342000D01*
G37*
X63670000Y-24342000D02*
X61370000Y-26642000D01*
X59070000Y-24342000D01*
X61370000Y-22092000D01*
X63670000Y-24342000D01*
X53870000Y-29592000D02*
X56220000Y-31892000D01*
X13150000Y-19192000D02*
X10800000Y-16892000D01*
X78870000Y-34192000D02*
X76520000Y-31892000D01*
G36*
X22950000Y-39342000D02*
G01*
X20650000Y-41642000D01*
X18350000Y-39342000D01*
X20650000Y-37092000D01*
X22950000Y-39342000D01*
G37*
X22950000Y-39342000D02*
X20650000Y-41642000D01*
X18350000Y-39342000D01*
X20650000Y-37092000D01*
X22950000Y-39342000D01*
X61220000Y-31892000D02*
X58870000Y-34192000D01*
X23150000Y-14192000D02*
X20800000Y-11892000D01*
X10800000Y-21892000D02*
X13150000Y-19592000D01*
G36*
X7975000Y-14342000D02*
G01*
X5725000Y-16542000D01*
X5725000Y-12142000D01*
X7975000Y-14342000D01*
G37*
X7975000Y-14342000D02*
X5725000Y-16542000D01*
X5725000Y-12142000D01*
X7975000Y-14342000D01*
X30800000Y-41892000D02*
X33150000Y-39592000D01*
X71220000Y-16892000D02*
X68870000Y-19192000D01*
X33150000Y-39592000D02*
X35500000Y-41892000D01*
X53870000Y-19192000D02*
X51520000Y-16892000D01*
G36*
X27950000Y-49342000D02*
G01*
X25650000Y-51642000D01*
X23350000Y-49342000D01*
X25650000Y-47092000D01*
X27950000Y-49342000D01*
G37*
X27950000Y-49342000D02*
X25650000Y-51642000D01*
X23350000Y-49342000D01*
X25650000Y-47092000D01*
X27950000Y-49342000D01*
X56220000Y-46892000D02*
X53870000Y-49192000D01*
X33150000Y-44192000D02*
X30800000Y-41892000D01*
X23150000Y-9592000D02*
X25500000Y-11892000D01*
X30500000Y-46892000D02*
X28150000Y-49192000D01*
X10500000Y-41892000D02*
X8150000Y-44192000D01*
X20800000Y-31892000D02*
X23150000Y-29592000D01*
X13150000Y-39592000D02*
X15500000Y-41892000D01*
X68870000Y-39592000D02*
X71220000Y-41892000D01*
G36*
X27950000Y-9342000D02*
G01*
X25650000Y-11642000D01*
X23350000Y-9342000D01*
X25650000Y-7092000D01*
X27950000Y-9342000D01*
G37*
X27950000Y-9342000D02*
X25650000Y-11642000D01*
X23350000Y-9342000D01*
X25650000Y-7092000D01*
X27950000Y-9342000D01*
X71520000Y-51892000D02*
X76220000Y-51892000D01*
X68870000Y-9092000D02*
X66670000Y-6892000D01*
X35500000Y-36892000D02*
X33150000Y-39192000D01*
X15500000Y-26892000D02*
X13150000Y-29192000D01*
X63870000Y-34192000D02*
X61520000Y-31892000D01*
X28150000Y-9592000D02*
X30500000Y-11892000D01*
X58870000Y-9092000D02*
X56670000Y-6892000D01*
X10800000Y-51892000D02*
X15500000Y-51892000D01*
X25800000Y-16892000D02*
X28150000Y-14592000D01*
X76220000Y-46892000D02*
X73870000Y-49192000D01*
X53870000Y-34192000D02*
X51520000Y-31892000D01*
X30800000Y-26892000D02*
X33150000Y-24592000D01*
X35500000Y-11892000D02*
X33150000Y-14192000D01*
X33150000Y-9092000D02*
X30950000Y-6892000D01*
X61120000Y-6892000D02*
X58870000Y-9092000D01*
X89535000Y-6350000D02*
X89535000Y6350000D01*
G36*
X17950000Y-29342000D02*
G01*
X15650000Y-31642000D01*
X13350000Y-29342000D01*
X15650000Y-27092000D01*
X17950000Y-29342000D01*
G37*
X17950000Y-29342000D02*
X15650000Y-31642000D01*
X13350000Y-29342000D01*
X15650000Y-27092000D01*
X17950000Y-29342000D01*
X28150000Y-39592000D02*
X30500000Y-41892000D01*
G36*
X7975000Y-24342000D02*
G01*
X5725000Y-26542000D01*
X5725000Y-22142000D01*
X7975000Y-24342000D01*
G37*
X7975000Y-24342000D02*
X5725000Y-26542000D01*
X5725000Y-22142000D01*
X7975000Y-24342000D01*
X61220000Y-11892000D02*
X58870000Y-14192000D01*
X25500000Y-36892000D02*
X23150000Y-39192000D01*
X53870000Y-39592000D02*
X56220000Y-41892000D01*
X18150000Y-34192000D02*
X15800000Y-31892000D01*
G36*
X22950000Y-34342000D02*
G01*
X20650000Y-36642000D01*
X18350000Y-34342000D01*
X20650000Y-32092000D01*
X22950000Y-34342000D01*
G37*
X22950000Y-34342000D02*
X20650000Y-36642000D01*
X18350000Y-34342000D01*
X20650000Y-32092000D01*
X22950000Y-34342000D01*
X58870000Y-14592000D02*
X61220000Y-16892000D01*
G36*
X12950000Y-24342000D02*
G01*
X10650000Y-26642000D01*
X8350000Y-24342000D01*
X10650000Y-22092000D01*
X12950000Y-24342000D01*
G37*
X12950000Y-24342000D02*
X10650000Y-26642000D01*
X8350000Y-24342000D01*
X10650000Y-22092000D01*
X12950000Y-24342000D01*
X53870000Y-49192000D02*
X51520000Y-46892000D01*
X51520000Y-16892000D02*
X53870000Y-14592000D01*
X5800000Y-16892000D02*
X8150000Y-14592000D01*
G36*
X73670000Y-49342000D02*
G01*
X71370000Y-51642000D01*
X69070000Y-49342000D01*
X71370000Y-47092000D01*
X73670000Y-49342000D01*
G37*
X73670000Y-49342000D02*
X71370000Y-51642000D01*
X69070000Y-49342000D01*
X71370000Y-47092000D01*
X73670000Y-49342000D01*
X56220000Y-41892000D02*
X53870000Y-44192000D01*
G36*
X63670000Y-49342000D02*
G01*
X61370000Y-51642000D01*
X59070000Y-49342000D01*
X61370000Y-47092000D01*
X63670000Y-49342000D01*
G37*
X63670000Y-49342000D02*
X61370000Y-51642000D01*
X59070000Y-49342000D01*
X61370000Y-47092000D01*
X63670000Y-49342000D01*
X68870000Y-49592000D02*
X71220000Y-51892000D01*
X73870000Y-49592000D02*
X76220000Y-51892000D01*
G36*
X78670000Y-19342000D02*
G01*
X76370000Y-21642000D01*
X74070000Y-19342000D01*
X76370000Y-17092000D01*
X78670000Y-19342000D01*
G37*
X78670000Y-19342000D02*
X76370000Y-21642000D01*
X74070000Y-19342000D01*
X76370000Y-17092000D01*
X78670000Y-19342000D01*
X10800000Y-26892000D02*
X13150000Y-24592000D01*
X33150000Y-29592000D02*
X35500000Y-31892000D01*
X10500000Y-46892000D02*
X8150000Y-49192000D01*
X28150000Y-14192000D02*
X25800000Y-11892000D01*
G36*
X68670000Y-39342000D02*
G01*
X66370000Y-41642000D01*
X64070000Y-39342000D01*
X66370000Y-37092000D01*
X68670000Y-39342000D01*
G37*
X68670000Y-39342000D02*
X66370000Y-41642000D01*
X64070000Y-39342000D01*
X66370000Y-37092000D01*
X68670000Y-39342000D01*
X56220000Y-16892000D02*
X53870000Y-19192000D01*
G36*
X7975000Y-19342000D02*
G01*
X5725000Y-21542000D01*
X5725000Y-17142000D01*
X7975000Y-19342000D01*
G37*
X7975000Y-19342000D02*
X5725000Y-21542000D01*
X5725000Y-17142000D01*
X7975000Y-19342000D01*
X68870000Y-9592000D02*
X71220000Y-11892000D01*
X63870000Y-49592000D02*
X66220000Y-51892000D01*
X68870000Y-29592000D02*
X71220000Y-31892000D01*
X36000000Y-52342000D02*
X5400000Y-52342000D01*
X5400000Y-52342000D02*
X5400000Y-6542000D01*
X5400000Y-6542000D02*
X36000000Y-6542000D01*
X36000000Y-6542000D02*
X36000000Y-52342000D01*
X8150000Y-24592000D02*
X10500000Y-26892000D01*
X66520000Y-26892000D02*
X68870000Y-24592000D01*
X63870000Y-29192000D02*
X61520000Y-26892000D01*
G36*
X58670000Y-49342000D02*
G01*
X56370000Y-51642000D01*
X54070000Y-49342000D01*
X56370000Y-47092000D01*
X58670000Y-49342000D01*
G37*
X58670000Y-49342000D02*
X56370000Y-51642000D01*
X54070000Y-49342000D01*
X56370000Y-47092000D01*
X58670000Y-49342000D01*
G36*
X73670000Y-44342000D02*
G01*
X71370000Y-46642000D01*
X69070000Y-44342000D01*
X71370000Y-42092000D01*
X73670000Y-44342000D01*
G37*
X73670000Y-44342000D02*
X71370000Y-46642000D01*
X69070000Y-44342000D01*
X71370000Y-42092000D01*
X73670000Y-44342000D01*
G36*
X35650000Y-31642000D02*
G01*
X33350000Y-29342000D01*
X35650000Y-27042000D01*
X35650000Y-31642000D01*
G37*
X35650000Y-31642000D02*
X33350000Y-29342000D01*
X35650000Y-27042000D01*
X35650000Y-31642000D01*
X25500000Y-16892000D02*
X23150000Y-19192000D01*
X23150000Y-34592000D02*
X25500000Y-36892000D01*
X56520000Y-46892000D02*
X58870000Y-44592000D01*
X68870000Y-24192000D02*
X66520000Y-21892000D01*
X73870000Y-14592000D02*
X76220000Y-16892000D01*
X66520000Y-16892000D02*
X68870000Y-14592000D01*
X20800000Y-26892000D02*
X23150000Y-24592000D01*
X61220000Y-26892000D02*
X58870000Y-29192000D01*
X20800000Y-16892000D02*
X23150000Y-14592000D01*
G36*
X68670000Y-29342000D02*
G01*
X66370000Y-31642000D01*
X64070000Y-29342000D01*
X66370000Y-27092000D01*
X68670000Y-29342000D01*
G37*
X68670000Y-29342000D02*
X66370000Y-31642000D01*
X64070000Y-29342000D01*
X66370000Y-27092000D01*
X68670000Y-29342000D01*
G36*
X17950000Y-9342000D02*
G01*
X15650000Y-11642000D01*
X13350000Y-9342000D01*
X15650000Y-7092000D01*
X17950000Y-9342000D01*
G37*
X17950000Y-9342000D02*
X15650000Y-11642000D01*
X13350000Y-9342000D01*
X15650000Y-7092000D01*
X17950000Y-9342000D01*
X76220000Y-41892000D02*
X73870000Y-44192000D01*
X78870000Y-29592000D02*
X81220000Y-31892000D01*
X61520000Y-36892000D02*
X63870000Y-34592000D01*
X20500000Y-46892000D02*
X18150000Y-49192000D01*
G36*
X53695000Y-39342000D02*
G01*
X51445000Y-41542000D01*
X51445000Y-37142000D01*
X53695000Y-39342000D01*
G37*
X53695000Y-39342000D02*
X51445000Y-41542000D01*
X51445000Y-37142000D01*
X53695000Y-39342000D01*
X18150000Y-19192000D02*
X15800000Y-16892000D01*
X63870000Y-24592000D02*
X66220000Y-26892000D01*
X20800000Y-51892000D02*
X25500000Y-51892000D01*
G36*
X22950000Y-9342000D02*
G01*
X20650000Y-11642000D01*
X18350000Y-9342000D01*
X20650000Y-7092000D01*
X22950000Y-9342000D01*
G37*
X22950000Y-9342000D02*
X20650000Y-11642000D01*
X18350000Y-9342000D01*
X20650000Y-7092000D01*
X22950000Y-9342000D01*
X58870000Y-39192000D02*
X56520000Y-36892000D01*
X76520000Y-46892000D02*
X78870000Y-44592000D01*
G36*
X78670000Y-24342000D02*
G01*
X76370000Y-26642000D01*
X74070000Y-24342000D01*
X76370000Y-22092000D01*
X78670000Y-24342000D01*
G37*
X78670000Y-24342000D02*
X76370000Y-26642000D01*
X74070000Y-24342000D01*
X76370000Y-22092000D01*
X78670000Y-24342000D01*
X53870000Y-14592000D02*
X56220000Y-16892000D01*
G36*
X68670000Y-49342000D02*
G01*
X66370000Y-51642000D01*
X64070000Y-49342000D01*
X66370000Y-47092000D01*
X68670000Y-49342000D01*
G37*
X68670000Y-49342000D02*
X66370000Y-51642000D01*
X64070000Y-49342000D01*
X66370000Y-47092000D01*
X68670000Y-49342000D01*
X30800000Y-46892000D02*
X33150000Y-44592000D01*
X58870000Y-39592000D02*
X61220000Y-41892000D01*
X28150000Y-29192000D02*
X25800000Y-26892000D01*
X61220000Y-41892000D02*
X58870000Y-44192000D01*
G36*
X17950000Y-49342000D02*
G01*
X15650000Y-51642000D01*
X13350000Y-49342000D01*
X15650000Y-47092000D01*
X17950000Y-49342000D01*
G37*
X17950000Y-49342000D02*
X15650000Y-51642000D01*
X13350000Y-49342000D01*
X15650000Y-47092000D01*
X17950000Y-49342000D01*
X61520000Y-11892000D02*
X63870000Y-9592000D01*
G36*
X81370000Y-31642000D02*
G01*
X79070000Y-29342000D01*
X81370000Y-27042000D01*
X81370000Y-31642000D01*
G37*
X81370000Y-31642000D02*
X79070000Y-29342000D01*
X81370000Y-27042000D01*
X81370000Y-31642000D01*
X10950000Y-6892000D02*
X15400000Y-6892000D01*
X20800000Y-51892000D02*
X23150000Y-49592000D01*
X18150000Y-24592000D02*
X20500000Y-26892000D01*
G36*
X7975000Y-34342000D02*
G01*
X5725000Y-36542000D01*
X5725000Y-32142000D01*
X7975000Y-34342000D01*
G37*
X7975000Y-34342000D02*
X5725000Y-36542000D01*
X5725000Y-32142000D01*
X7975000Y-34342000D01*
G36*
X81370000Y-16642000D02*
G01*
X79070000Y-14342000D01*
X81370000Y-12042000D01*
X81370000Y-16642000D01*
G37*
X81370000Y-16642000D02*
X79070000Y-14342000D01*
X81370000Y-12042000D01*
X81370000Y-16642000D01*
X35500000Y-41892000D02*
X33150000Y-44192000D01*
G36*
X27950000Y-19342000D02*
G01*
X25650000Y-21642000D01*
X23350000Y-19342000D01*
X25650000Y-17092000D01*
X27950000Y-19342000D01*
G37*
X27950000Y-19342000D02*
X25650000Y-21642000D01*
X23350000Y-19342000D01*
X25650000Y-17092000D01*
X27950000Y-19342000D01*
X76220000Y-11892000D02*
X73870000Y-14192000D01*
X23150000Y-24192000D02*
X20800000Y-21892000D01*
X73870000Y-34592000D02*
X76220000Y-36892000D01*
X5950000Y-6892000D02*
X10400000Y-6892000D01*
X28150000Y-39192000D02*
X25800000Y-36892000D01*
G36*
X73670000Y-14342000D02*
G01*
X71370000Y-16642000D01*
X69070000Y-14342000D01*
X71370000Y-12092000D01*
X73670000Y-14342000D01*
G37*
X73670000Y-14342000D02*
X71370000Y-16642000D01*
X69070000Y-14342000D01*
X71370000Y-12092000D01*
X73670000Y-14342000D01*
G36*
X78670000Y-44342000D02*
G01*
X76370000Y-46642000D01*
X74070000Y-44342000D01*
X76370000Y-42092000D01*
X78670000Y-44342000D01*
G37*
X78670000Y-44342000D02*
X76370000Y-46642000D01*
X74070000Y-44342000D01*
X76370000Y-42092000D01*
X78670000Y-44342000D01*
X8150000Y-14592000D02*
X10500000Y-16892000D01*
X63870000Y-44592000D02*
X66220000Y-46892000D01*
X61520000Y-51892000D02*
X66220000Y-51892000D01*
X33150000Y-14192000D02*
X30800000Y-11892000D01*
G36*
X35650000Y-41642000D02*
G01*
X33350000Y-39342000D01*
X35650000Y-37042000D01*
X35650000Y-41642000D01*
G37*
X35650000Y-41642000D02*
X33350000Y-39342000D01*
X35650000Y-37042000D01*
X35650000Y-41642000D01*
X30500000Y-16892000D02*
X28150000Y-19192000D01*
X76520000Y-21892000D02*
X78870000Y-19592000D01*
X15800000Y-46892000D02*
X18150000Y-44592000D01*
X13150000Y-39192000D02*
X10800000Y-36892000D01*
G36*
X27950000Y-29342000D02*
G01*
X25650000Y-31642000D01*
X23350000Y-29342000D01*
X25650000Y-27092000D01*
X27950000Y-29342000D01*
G37*
X27950000Y-29342000D02*
X25650000Y-31642000D01*
X23350000Y-29342000D01*
X25650000Y-27092000D01*
X27950000Y-29342000D01*
X30400000Y-6892000D02*
X28150000Y-9092000D01*
X20500000Y-31892000D02*
X18150000Y-34192000D01*
X58870000Y-19592000D02*
X61220000Y-21892000D01*
X28150000Y-49192000D02*
X25800000Y-46892000D01*
X10800000Y-51892000D02*
X13150000Y-49592000D01*
X61520000Y-46892000D02*
X63870000Y-44592000D01*
X25500000Y-31892000D02*
X23150000Y-34192000D01*
X18150000Y-39592000D02*
X20500000Y-41892000D01*
G36*
X58670000Y-44342000D02*
G01*
X56370000Y-46642000D01*
X54070000Y-44342000D01*
X56370000Y-42092000D01*
X58670000Y-44342000D01*
G37*
X58670000Y-44342000D02*
X56370000Y-46642000D01*
X54070000Y-44342000D01*
X56370000Y-42092000D01*
X58670000Y-44342000D01*
X20800000Y-36892000D02*
X23150000Y-34592000D01*
X58870000Y-24592000D02*
X61220000Y-26892000D01*
X10500000Y-16892000D02*
X8150000Y-19192000D01*
G36*
X22950000Y-19342000D02*
G01*
X20650000Y-21642000D01*
X18350000Y-19342000D01*
X20650000Y-17092000D01*
X22950000Y-19342000D01*
G37*
X22950000Y-19342000D02*
X20650000Y-21642000D01*
X18350000Y-19342000D01*
X20650000Y-17092000D01*
X22950000Y-19342000D01*
G36*
X17950000Y-24342000D02*
G01*
X15650000Y-26642000D01*
X13350000Y-24342000D01*
X15650000Y-22092000D01*
X17950000Y-24342000D01*
G37*
X17950000Y-24342000D02*
X15650000Y-26642000D01*
X13350000Y-24342000D01*
X15650000Y-22092000D01*
X17950000Y-24342000D01*
G36*
X12950000Y-44342000D02*
G01*
X10650000Y-46642000D01*
X8350000Y-44342000D01*
X10650000Y-42092000D01*
X12950000Y-44342000D01*
G37*
X12950000Y-44342000D02*
X10650000Y-46642000D01*
X8350000Y-44342000D01*
X10650000Y-42092000D01*
X12950000Y-44342000D01*
X8150000Y-29592000D02*
X10500000Y-31892000D01*
X56120000Y-6892000D02*
X53870000Y-9092000D01*
X30800000Y-16892000D02*
X33150000Y-14592000D01*
G36*
X63670000Y-14342000D02*
G01*
X61370000Y-16642000D01*
X59070000Y-14342000D01*
X61370000Y-12092000D01*
X63670000Y-14342000D01*
G37*
X63670000Y-14342000D02*
X61370000Y-16642000D01*
X59070000Y-14342000D01*
X61370000Y-12092000D01*
X63670000Y-14342000D01*
G36*
X32950000Y-19342000D02*
G01*
X30650000Y-21642000D01*
X28350000Y-19342000D01*
X30650000Y-17092000D01*
X32950000Y-19342000D01*
G37*
X32950000Y-19342000D02*
X30650000Y-21642000D01*
X28350000Y-19342000D01*
X30650000Y-17092000D01*
X32950000Y-19342000D01*
G36*
X12950000Y-49342000D02*
G01*
X10650000Y-51642000D01*
X8350000Y-49342000D01*
X10650000Y-47092000D01*
X12950000Y-49342000D01*
G37*
X12950000Y-49342000D02*
X10650000Y-51642000D01*
X8350000Y-49342000D01*
X10650000Y-47092000D01*
X12950000Y-49342000D01*
X30500000Y-41892000D02*
X28150000Y-44192000D01*
X25500000Y-11892000D02*
X23150000Y-14192000D01*
X15400000Y-6892000D02*
X13150000Y-9092000D01*
X73870000Y-9592000D02*
X76220000Y-11892000D01*
G36*
X73670000Y-34342000D02*
G01*
X71370000Y-36642000D01*
X69070000Y-34342000D01*
X71370000Y-32092000D01*
X73670000Y-34342000D01*
G37*
X73670000Y-34342000D02*
X71370000Y-36642000D01*
X69070000Y-34342000D01*
X71370000Y-32092000D01*
X73670000Y-34342000D01*
G36*
X53695000Y-9317000D02*
G01*
X51445000Y-11542000D01*
X51445000Y-7067000D01*
X53695000Y-9317000D01*
G37*
X53695000Y-9317000D02*
X51445000Y-11542000D01*
X51445000Y-7067000D01*
X53695000Y-9317000D01*
X20500000Y-16892000D02*
X18150000Y-19192000D01*
X-6350000Y0D02*
X86995000Y0D01*
G36*
X53695000Y-24342000D02*
G01*
X51445000Y-26542000D01*
X51445000Y-22142000D01*
X53695000Y-24342000D01*
G37*
X53695000Y-24342000D02*
X51445000Y-26542000D01*
X51445000Y-22142000D01*
X53695000Y-24342000D01*
X30800000Y-51892000D02*
X33150000Y-49592000D01*
X53870000Y-29192000D02*
X51520000Y-26892000D01*
X30500000Y-36892000D02*
X28150000Y-39192000D01*
G36*
X35650000Y-21642000D02*
G01*
X33350000Y-19342000D01*
X35650000Y-17042000D01*
X35650000Y-21642000D01*
G37*
X35650000Y-21642000D02*
X33350000Y-19342000D01*
X35650000Y-17042000D01*
X35650000Y-21642000D01*
X8150000Y-14192000D02*
X5800000Y-11892000D01*
G36*
X35650000Y-26642000D02*
G01*
X33350000Y-24342000D01*
X35650000Y-22042000D01*
X35650000Y-26642000D01*
G37*
X35650000Y-26642000D02*
X33350000Y-24342000D01*
X35650000Y-22042000D01*
X35650000Y-26642000D01*
G36*
X78670000Y-14342000D02*
G01*
X76370000Y-16642000D01*
X74070000Y-14342000D01*
X76370000Y-12092000D01*
X78670000Y-14342000D01*
G37*
X78670000Y-14342000D02*
X76370000Y-16642000D01*
X74070000Y-14342000D01*
X76370000Y-12092000D01*
X78670000Y-14342000D01*
X35500000Y-16892000D02*
X33150000Y-19192000D01*
X71520000Y-46892000D02*
X73870000Y-44592000D01*
X23150000Y-24592000D02*
X25500000Y-26892000D01*
X53870000Y-14192000D02*
X51520000Y-11892000D01*
X53870000Y-24592000D02*
X56220000Y-26892000D01*
X30500000Y-21892000D02*
X28150000Y-24192000D01*
X58870000Y-24192000D02*
X56520000Y-21892000D01*
X68870000Y-19592000D02*
X71220000Y-21892000D01*
X15500000Y-31892000D02*
X13150000Y-34192000D01*
X78870000Y-44592000D02*
X81220000Y-46892000D01*
X58870000Y-49592000D02*
X61220000Y-51892000D01*
G36*
X58670000Y-19342000D02*
G01*
X56370000Y-21642000D01*
X54070000Y-19342000D01*
X56370000Y-17092000D01*
X58670000Y-19342000D01*
G37*
X58670000Y-19342000D02*
X56370000Y-21642000D01*
X54070000Y-19342000D01*
X56370000Y-17092000D01*
X58670000Y-19342000D01*
X18150000Y-19592000D02*
X20500000Y-21892000D01*
X10800000Y-16892000D02*
X13150000Y-14592000D01*
X71220000Y-31892000D02*
X68870000Y-34192000D01*
X10800000Y-11892000D02*
X13150000Y-9592000D01*
G36*
X35650000Y-46642000D02*
G01*
X33350000Y-44342000D01*
X35650000Y-42042000D01*
X35650000Y-46642000D01*
G37*
X35650000Y-46642000D02*
X33350000Y-44342000D01*
X35650000Y-42042000D01*
X35650000Y-46642000D01*
X53870000Y-44592000D02*
X56220000Y-46892000D01*
D11*
X96758809Y1369048D02*
X97592142Y-1130952D01*
X98425476Y1369048D01*
X99258809Y-178571D02*
X101163571Y-178571D01*
X103782619Y-892857D02*
X103663571Y-1011904D01*
X103306428Y-1130952D01*
X103068333Y-1130952D01*
X102711190Y-1011904D01*
X102473095Y-773809D01*
X102354047Y-535714D01*
X102235000Y-59523D01*
X102235000Y297620D01*
X102354047Y773810D01*
X102473095Y1011905D01*
X102711190Y1250000D01*
X103068333Y1369048D01*
X103306428Y1369048D01*
X103663571Y1250000D01*
X103782619Y1130953D01*
X105925476Y535715D02*
X105925476Y-1130952D01*
X104854047Y535715D02*
X104854047Y-773809D01*
X104973095Y-1011904D01*
X105211190Y-1130952D01*
X105568333Y-1130952D01*
X105806428Y-1011904D01*
X105925476Y-892857D01*
X106758809Y535715D02*
X107711190Y535715D01*
X107115952Y1369048D02*
X107115952Y-773809D01*
X107235000Y-1011904D01*
X107473095Y-1130952D01*
X107711190Y-1130952D01*
%LPC*%
D12*
X36217274Y-4976726D03*
X37384000Y-5460000D03*
D13*
X37384000Y-3810000D03*
D12*
X37384000Y-2160000D03*
X38550726Y-4976726D03*
X35734000Y-3810000D03*
X39034000Y-3810000D03*
X38550726Y-2643274D03*
X36217274Y-2643274D03*
X84754000Y-3810000D03*
X81937274Y-4976726D03*
X83104000Y-5460000D03*
X84270726Y-4976726D03*
X84270726Y-2643274D03*
D13*
X83104000Y-3810000D03*
D12*
X81937274Y-2643274D03*
X81454000Y-3810000D03*
X83104000Y-2160000D03*
X4959226Y-71223274D03*
X2625774Y-71223274D03*
X2142500Y-72390000D03*
D13*
X3792500Y-72390000D03*
D12*
X3792500Y-70740000D03*
X2625774Y-73556726D03*
X5442500Y-72390000D03*
X3792500Y-74040000D03*
X4959226Y-73556726D03*
D13*
X83167500Y-54610000D03*
D12*
X82000774Y-53443274D03*
X84334226Y-55776726D03*
X83167500Y-56260000D03*
X84334226Y-53443274D03*
X82000774Y-55776726D03*
X81517500Y-54610000D03*
X84817500Y-54610000D03*
X83167500Y-52960000D03*
D13*
X49512500Y-72390000D03*
D12*
X48345774Y-71223274D03*
X51162500Y-72390000D03*
X48345774Y-73556726D03*
X50679226Y-71223274D03*
X49512500Y-70740000D03*
X50679226Y-73556726D03*
X47862500Y-72390000D03*
X49512500Y-74040000D03*
X49512500Y-2160000D03*
X51162500Y-3810000D03*
X50679226Y-4976726D03*
D13*
X49512500Y-3810000D03*
D12*
X48345774Y-2643274D03*
X50679226Y-2643274D03*
X49512500Y-5460000D03*
X48345774Y-4976726D03*
X47862500Y-3810000D03*
X36280774Y-55776726D03*
D13*
X37447500Y-54610000D03*
D12*
X37447500Y-56260000D03*
X35797500Y-54610000D03*
X36280774Y-53443274D03*
X38614226Y-53443274D03*
X39097500Y-54610000D03*
X37447500Y-52960000D03*
X38614226Y-55776726D03*
X2625774Y-4976726D03*
X2142500Y-3810000D03*
X3792500Y-5460000D03*
X3792500Y-2160000D03*
D13*
X3792500Y-3810000D03*
D12*
X4959226Y-4976726D03*
X4959226Y-2643274D03*
X5442500Y-3810000D03*
X2625774Y-2643274D03*
M02*
