%TF.GenerationSoftware,KiCad,Pcbnew,(6.0.5-0)*%
%TF.CreationDate,2022-06-26T01:51:53+09:00*%
%TF.ProjectId,MTCH6102_breakout_panel,4d544348-3631-4303-925f-627265616b6f,rev?*%
%TF.SameCoordinates,PX649cd60PY5a74bd0*%
%TF.FileFunction,Profile,NP*%
%FSLAX46Y46*%
G04 Gerber Fmt 4.6, Leading zero omitted, Abs format (unit mm)*
G04 Created by KiCad (PCBNEW (6.0.5-0)) date 2022-06-26 01:51:53*
%MOMM*%
%LPD*%
G01*
G04 APERTURE LIST*
%TA.AperFunction,Profile*%
%ADD10C,0.150000*%
%TD*%
G04 APERTURE END LIST*
D10*
X5062500Y0D02*
X7620000Y0D01*
X86977500Y-5080000D02*
G75*
G03*
X81897500Y0I-5080000J0D01*
G01*
X11430000Y3175000D02*
X11430000Y0D01*
X41257500Y-5080000D02*
G75*
G03*
X36177500Y0I-5080000J0D01*
G01*
X45702500Y-76200000D02*
X45702500Y-5080000D01*
X32385000Y3175000D02*
X53340000Y3175000D01*
X28575000Y0D02*
X11430000Y0D01*
X-17500Y-76200000D02*
G75*
G03*
X3658423Y-78471845I2540000J0D01*
G01*
X74295000Y0D02*
X57150000Y0D01*
X5062500Y0D02*
G75*
G03*
X-17500Y-5080000I0J-5080000D01*
G01*
X86995000Y6985000D02*
X0Y6985000D01*
X0Y3175000D02*
X7620000Y3175000D01*
X-17500Y-76200000D02*
X-17500Y-5080000D01*
X32385000Y0D02*
X32385000Y3175000D01*
X41257500Y-56515000D02*
X3658423Y-78471845D01*
X57150000Y3175000D02*
X57150000Y0D01*
X53340000Y0D02*
X53340000Y3175000D01*
X78105000Y0D02*
X78105000Y3175000D01*
X7620000Y0D02*
X7620000Y3175000D01*
X81897500Y0D02*
X78105000Y0D01*
X57150000Y3175000D02*
X74295000Y3175000D01*
X50782500Y0D02*
G75*
G03*
X45702500Y-5080000I0J-5080000D01*
G01*
X11430000Y3175000D02*
X28575000Y3175000D01*
X0Y6985000D02*
X0Y3175000D01*
X86995000Y3175000D02*
X86995000Y6985000D01*
X78105000Y3175000D02*
X86995000Y3175000D01*
X86977500Y-56515000D02*
X49378423Y-78471845D01*
X45702500Y-76200000D02*
G75*
G03*
X49378423Y-78471845I2540000J0D01*
G01*
X36177500Y0D02*
X32385000Y0D01*
X50782500Y0D02*
X53340000Y0D01*
X86977500Y-56515000D02*
X86977500Y-5080000D01*
X41257500Y-56515000D02*
X41257500Y-5080000D01*
X28575000Y3175000D02*
X28575000Y0D01*
X74295000Y3175000D02*
X74295000Y0D01*
M02*
