M48
;DRILL file {KiCad 5.0.2-bee76a0~70~ubuntu18.04.1} date 2019年06月13日 02時50分20秒
;FORMAT={-:-/ absolute / inch / decimal}
FMAT,2
INCH,TZ
T1C0.0157
T2C0.0320
T3C0.0394
T4C0.0512
T5C0.0866
T6C0.0394
T7C0.0472
T8C0.0709
T9C0.0748
T10C0.1181
T11C0.1339
T12C0.1614
%
G90
G05
T1
X2.535Y-2.445
X2.56Y-3.935
X2.69Y-3.86
X2.7629Y-3.9759
X2.825Y-2.025
X2.8774Y-4.34
X2.95Y-3.85
X3.Y-2.575
X3.075Y-1.75
X3.0798Y-3.945
X3.1197Y-3.9296
X3.125Y-1.875
X3.15Y-1.725
X3.16Y-3.585
X3.1924Y-4.2306
X3.25Y-1.825
X3.2746Y-4.2299
X3.29Y-3.51
X3.375Y-3.85
X3.395Y-1.965
X3.395Y-2.105
X3.435Y-2.575
X3.495Y-3.565
X3.5151Y-3.484
X3.5891Y-4.0185
X3.6655Y-3.6006
X3.7Y-1.425
X3.7Y-2.2
X3.7Y-3.275
X3.8052Y-3.6613
X3.8123Y-3.8768
X3.825Y-1.325
X3.825Y-1.475
X3.825Y-2.075
X3.825Y-2.225
X3.825Y-2.825
X3.825Y-2.975
X3.8691Y-3.7904
X3.9Y-1.875
X3.925Y-2.9
X3.95Y-2.075
X4.0198Y-2.8279
X4.0302Y-3.6125
X4.0343Y-1.4014
X4.0498Y-2.0156
X4.0499Y-2.7553
X4.0513Y-1.3006
X4.075Y-3.575
X4.075Y-3.725
X4.0769Y-2.7213
X4.0809Y-1.9715
X4.105Y-3.375
X4.1561Y-2.5796
X4.1591Y-3.2863
X4.1957Y-1.6311
X4.2334Y-3.4906
X4.2747Y-3.5177
X4.295Y-3.705
X4.2981Y-1.9707
X4.3168Y-2.1306
X4.3498Y-2.0767
X4.364Y-1.3507
X4.3645Y-1.2957
X4.3676Y-2.8331
X4.3707Y-1.7664
X4.372Y-2.7845
X4.425Y-2.075
X4.425Y-2.5796
X4.4482Y-3.8703
X4.4867Y-1.7819
X4.5Y-1.45
X4.5514Y-2.932
X4.5747Y-3.5059
X4.575Y-1.2
X4.575Y-1.35
X4.575Y-1.95
X4.575Y-2.1
X4.575Y-2.65
X4.575Y-2.8
X4.6046Y-2.2016
X4.605Y-3.185
X4.625Y-1.65
X4.6493Y-3.4769
X4.65Y-2.05
X4.7Y-1.925
X4.7Y-3.3
X4.7226Y-3.8028
X4.7704Y-2.5796
X4.7991Y-2.6289
X4.7994Y-1.8666
X4.8Y-3.425
X4.8Y-3.575
X4.8029Y-1.1519
X4.8431Y-1.8155
X4.9547Y-3.35
X5.Y-3.3488
X5.035Y-3.275
X5.0562Y-2.0014
X5.1001Y-1.9344
X5.1003Y-1.1522
X5.1096Y-2.6635
X5.1344Y-1.178
X5.1747Y-3.7218
X5.2Y-2.4656
X5.215Y-1.655
X5.2158Y-2.5968
X5.245Y-3.165
X5.255Y-2.805
X5.305Y-3.355
X5.3095Y-1.8294
X5.325Y-1.025
X5.325Y-1.15
X5.325Y-1.775
X5.325Y-1.925
X5.325Y-2.525
X5.325Y-2.675
X5.355Y-2.215
X5.355Y-3.345
X5.3554Y-2.8007
X5.375Y-1.55
X5.45Y-1.05
X5.4544Y-3.6479
X5.525Y-1.575
X5.5383Y-1.7327
X5.5404Y-1.8099
X5.5493Y-2.4656
X5.55Y-3.5
X5.5533Y-0.998
X5.585Y-3.075
X5.8056Y-1.8178
X5.8453Y-0.9996
X5.8497Y-2.4656
X5.8503Y-1.7744
X5.865Y-2.295
X5.9082Y-1.4819
X5.9225Y-1.0497
X5.925Y-1.65
X5.935Y-2.465
X5.935Y-3.085
X6.0345Y-2.3835
X6.075Y-1.025
X6.075Y-1.175
X6.075Y-1.775
X6.075Y-1.925
X6.075Y-2.525
X6.075Y-2.675
X6.0778Y-1.65
X6.125Y-2.4
X6.15Y-2.025
X6.15Y-2.775
X6.2391Y-1.8615
X6.2624Y-1.1156
X6.2788Y-1.8593
X6.3Y-2.6238
X6.3012Y-1.1521
X6.325Y-2.8
X6.3425Y-2.5635
X6.4211Y-3.1355
X6.4277Y-0.9479
X6.489Y-2.3883
X6.595Y-2.6498
X6.6Y-1.725
X6.6101Y-1.891
X6.6139Y-2.7022
X6.6153Y-1.151
X6.65Y-2.475
X6.6623Y-1.1479
X6.674Y-1.9512
X6.7036Y-1.64
X6.825Y-1.575
X6.825Y-1.725
X6.825Y-2.325
X6.825Y-2.475
X6.825Y-3.075
X6.825Y-3.225
X6.85Y-1.975
X6.875Y-2.775
X6.95Y-2.2888
X7.0311Y-1.4784
X7.0528Y-1.5225
X7.053Y-3.0268
X7.0735Y-2.1868
X7.1456Y-2.7469
X7.1568Y-2.8884
X7.3013Y-2.778
X7.3014Y-2.3594
X7.3099Y-2.0899
X7.3461Y-3.0241
X7.3461Y-1.5255
X7.3497Y-2.3062
X7.3738Y-2.835
X7.3759Y-2.9551
X7.4042Y-1.5594
X7.425Y-3.075
X7.4266Y-2.0185
X7.55Y-3.025
X7.575Y-1.925
X7.575Y-2.075
X7.575Y-2.675
X7.575Y-2.825
X7.575Y-3.425
X7.575Y-3.575
X7.654Y-3.0153
X7.6744Y-3.5165
X7.675Y-1.825
X7.725Y-2.725
X7.75Y-2.
X7.7854Y-2.6478
X7.7929Y-1.9026
X7.8039Y-3.3988
X7.8271Y-3.3205
X7.9253Y-3.135
X8.095Y-2.475
X8.0992Y-1.9019
X8.1001Y-3.3656
X8.1073Y-2.6387
X8.2118Y-2.4082
T2
X2.9Y-2.35
X2.9Y-2.2
X3.23Y-2.7
X2.4641Y-1.4091
X2.4651Y-1.3374
X2.5348Y-1.4798
X2.5364Y-1.4075
X2.6055Y-1.5505
X2.6071Y-1.4782
X2.6762Y-1.6212
X2.6778Y-1.5489
X2.7469Y-1.6919
X2.7485Y-1.6196
X2.8177Y-1.7626
X2.8192Y-1.6904
X2.8884Y-0.9141
X2.8884Y-0.9848
X2.8884Y-1.8333
X2.8899Y-1.7611
X2.9591Y-1.0555
X2.9591Y-1.9041
X2.9601Y-0.9838
X2.9607Y-1.8318
X3.0298Y-1.1262
X3.0298Y-1.9748
X3.0308Y-1.0545
X3.0314Y-1.9025
X3.1005Y-1.1969
X3.1005Y-2.0455
X3.1015Y-1.1252
X3.1021Y-1.9732
X3.1712Y-1.2677
X3.1712Y-2.1162
X3.1722Y-1.1959
X3.1728Y-2.0439
X3.2419Y-1.3384
X3.2419Y-2.1869
X3.2429Y-1.2666
X3.2435Y-2.1146
X3.3126Y-1.4091
X3.3126Y-2.2576
X3.3136Y-1.3374
X3.3142Y-2.1853
X3.3833Y-1.4798
X3.3844Y-1.4081
X3.4541Y-1.5505
X3.4551Y-1.4788
X3.5248Y-1.6212
X3.5258Y-1.5495
X3.5955Y-1.6919
X3.5965Y-1.6202
X3.6662Y-1.7626
X3.6672Y-1.6909
X3.7369Y-1.8333
X3.7379Y-1.7616
X3.307Y-2.625
X3.23Y-2.55
X3.155Y-2.625
T3
X2.4715Y-2.35
X2.7785Y-2.35
X2.4715Y-2.2
X2.7785Y-2.2
X3.1664Y-1.5664
X3.3836Y-1.7836
T4
X2.45Y-1.772
X2.45Y-2.028
T5
X2.525Y-3.625
X3.675Y-2.975
X3.2Y-0.95
T6
X3.0054Y-3.9293
X3.211Y-4.2853
X4.9445Y-3.4096
X5.3555Y-3.4096
X3.5904Y-3.5893
X3.796Y-3.9453
X4.2195Y-3.5596
X4.6305Y-3.5596
T7
X2.4341Y-2.6234
X2.4341Y-2.6923
X2.7096Y-2.6234
X2.7096Y-2.6923
T8
X2.8567Y-4.0025
X3.0733Y-4.3775
X4.9335Y-3.575
X5.3665Y-3.575
X3.4417Y-3.6625
X3.6583Y-4.0375
X4.2085Y-3.725
X4.6415Y-3.725
T9
X6.25Y-2.1
X6.65Y-2.1
X4.Y-1.5
X4.4Y-1.5
X4.Y-2.25
X4.4Y-2.25
X4.75Y-2.1
X5.15Y-2.1
X6.25Y-1.35
X6.65Y-1.35
X7.75Y-3.6
X8.15Y-3.6
X7.Y-1.725
X7.4Y-1.725
X7.Y-2.475
X7.4Y-2.475
X4.75Y-2.85
X5.15Y-2.85
X5.5Y-1.95
X5.9Y-1.95
X4.Y-3.
X4.4Y-3.
X5.5Y-2.7
X5.9Y-2.7
X5.5Y-1.2
X5.9Y-1.2
X7.Y-3.225
X7.4Y-3.225
X6.25Y-2.85
X6.65Y-2.85
X7.75Y-2.85
X8.15Y-2.85
X4.75Y-1.35
X5.15Y-1.35
X7.75Y-2.1
X8.15Y-2.1
T10
X7.8Y-3.7
X7.85Y-3.8
X8.05Y-3.8
X8.1Y-3.7
X7.05Y-1.825
X7.1Y-1.925
X7.3Y-1.925
X7.35Y-1.825
X3.3254Y-3.7524
X3.3488Y-3.9661
X3.5223Y-4.0933
X4.2281Y-3.8707
X4.425Y-3.9573
X4.6219Y-3.8707
X7.05Y-2.575
X7.1Y-2.675
X7.3Y-2.675
X7.35Y-2.575
X4.8Y-2.95
X4.85Y-3.05
X5.05Y-3.05
X5.1Y-2.95
X5.55Y-2.05
X5.6Y-2.15
X5.8Y-2.15
X5.85Y-2.05
X4.05Y-3.1
X4.1Y-3.2
X4.3Y-3.2
X4.35Y-3.1
X5.55Y-2.8
X5.6Y-2.9
X5.8Y-2.9
X5.85Y-2.8
X5.55Y-1.3
X5.6Y-1.4
X5.8Y-1.4
X5.85Y-1.3
X7.05Y-3.325
X7.1Y-3.425
X7.3Y-3.425
X7.35Y-3.325
X6.3Y-2.95
X6.35Y-3.05
X6.55Y-3.05
X6.6Y-2.95
X7.8Y-2.95
X7.85Y-3.05
X8.05Y-3.05
X8.1Y-2.95
X4.8Y-1.45
X4.85Y-1.55
X5.05Y-1.55
X5.1Y-1.45
X7.8Y-2.2
X7.85Y-2.3
X8.05Y-2.3
X8.1Y-2.2
X6.3Y-2.2
X6.35Y-2.3
X6.55Y-2.3
X6.6Y-2.2
X4.05Y-1.6
X4.1Y-1.7
X4.3Y-1.7
X4.35Y-1.6
X2.7404Y-4.0924
X2.7638Y-4.3061
X2.9373Y-4.4333
X4.05Y-2.35
X4.1Y-2.45
X4.3Y-2.45
X4.35Y-2.35
X4.9531Y-3.7207
X5.15Y-3.8073
X5.3469Y-3.7207
X4.8Y-2.2
X4.85Y-2.3
X5.05Y-2.3
X5.1Y-2.2
X6.3Y-1.45
X6.35Y-1.55
X6.55Y-1.55
X6.6Y-1.45
T11
X4.2Y-0.975
X2.965Y-4.19
X3.175Y-4.55
X5.15Y-3.575
X7.95Y-4.1
X3.55Y-3.85
X7.95Y-1.45
X4.425Y-3.725
T12
X4.95Y-2.1
X6.45Y-1.35
X7.95Y-3.6
X7.2Y-1.725
X7.2Y-2.475
X4.95Y-2.85
X5.7Y-1.95
X4.2Y-3.
X5.7Y-2.7
X5.7Y-1.2
X7.2Y-3.225
X6.45Y-2.85
X7.95Y-2.85
X4.95Y-1.35
X7.95Y-2.1
X6.45Y-2.1
X4.2Y-1.5
X4.2Y-2.25
T3
X2.4951Y-2.5407G85X2.5148Y-2.5407
G05
X2.4951Y-2.775G85X2.5148Y-2.775
G05
X2.6132Y-2.5407G85X2.6329Y-2.5407
G05
X2.6132Y-2.775G85X2.6329Y-2.775
G05
X2.7707Y-2.5407G85X2.7904Y-2.5407
G05
X2.7707Y-2.775G85X2.7904Y-2.775
G05
X2.8297Y-2.6096G85X2.8494Y-2.6096
G05
X2.8297Y-2.7061G85X2.8494Y-2.7061
G05
T0
M30
