G04 #@! TF.GenerationSoftware,KiCad,Pcbnew,5.0.2-bee76a0~70~ubuntu18.04.1*
G04 #@! TF.CreationDate,2019-06-13T02:51:26+09:00*
G04 #@! TF.ProjectId,fireflower44,66697265-666c-46f7-9765-7234342e6b69,rev?*
G04 #@! TF.SameCoordinates,Original*
G04 #@! TF.FileFunction,Paste,Top*
G04 #@! TF.FilePolarity,Positive*
%FSLAX46Y46*%
G04 Gerber Fmt 4.6, Leading zero omitted, Abs format (unit mm)*
G04 Created by KiCad (PCBNEW 5.0.2-bee76a0~70~ubuntu18.04.1) date 2019年06月13日 02時51分26秒*
%MOMM*%
%LPD*%
G01*
G04 APERTURE LIST*
%ADD10R,1.600000X2.200000*%
%ADD11R,1.600000X1.000000*%
%ADD12R,0.635000X1.143000*%
%ADD13R,1.500000X1.200000*%
%ADD14C,1.200000*%
%ADD15C,0.100000*%
%ADD16R,2.300000X2.000000*%
%ADD17C,1.600000*%
%ADD18C,1.000000*%
%ADD19C,1.300000*%
%ADD20R,0.950000X1.300000*%
%ADD21C,0.950000*%
G04 APERTURE END LIST*
D10*
G04 #@! TO.C,SW22*
X138710000Y-94505000D03*
X128010000Y-96705000D03*
G04 #@! TD*
D11*
G04 #@! TO.C,L16*
X128410000Y-84850000D03*
X128410000Y-86600000D03*
X133210000Y-84850000D03*
X133210000Y-86600000D03*
G04 #@! TD*
D12*
G04 #@! TO.C,JP2*
X93979980Y-63500000D03*
X92979220Y-63500000D03*
G04 #@! TD*
D13*
G04 #@! TO.C,R1*
X68025000Y-55880000D03*
X65325000Y-55880000D03*
G04 #@! TD*
G04 #@! TO.C,R2*
X68025000Y-59690000D03*
X65325000Y-59690000D03*
G04 #@! TD*
D14*
G04 #@! TO.C,R3*
X84139594Y-43499594D03*
D15*
G36*
X85094188Y-43605660D02*
X84245660Y-44454188D01*
X83185000Y-43393528D01*
X84033528Y-42545000D01*
X85094188Y-43605660D01*
X85094188Y-43605660D01*
G37*
D14*
X82230406Y-41590406D03*
D15*
G36*
X83185000Y-41696472D02*
X82336472Y-42545000D01*
X81275812Y-41484340D01*
X82124340Y-40635812D01*
X83185000Y-41696472D01*
X83185000Y-41696472D01*
G37*
G04 #@! TD*
D16*
G04 #@! TO.C,SW1*
X99680000Y-40680000D03*
X112380000Y-43220000D03*
G04 #@! TD*
G04 #@! TO.C,SW2*
X118730000Y-36870000D03*
X131430000Y-39410000D03*
G04 #@! TD*
G04 #@! TO.C,SW3*
X137780000Y-33060000D03*
X150480000Y-35600000D03*
G04 #@! TD*
G04 #@! TO.C,SW4*
X156830000Y-36870000D03*
X169530000Y-39410000D03*
G04 #@! TD*
G04 #@! TO.C,SW5*
X175880000Y-46395000D03*
X188580000Y-48935000D03*
G04 #@! TD*
G04 #@! TO.C,SW6*
X194930000Y-55920000D03*
X207630000Y-58460000D03*
G04 #@! TD*
G04 #@! TO.C,SW7*
X99680000Y-59730000D03*
X112380000Y-62270000D03*
G04 #@! TD*
G04 #@! TO.C,SW8*
X118730000Y-55920000D03*
X131430000Y-58460000D03*
G04 #@! TD*
G04 #@! TO.C,SW9*
X137780000Y-52110000D03*
X150480000Y-54650000D03*
G04 #@! TD*
G04 #@! TO.C,SW10*
X156830000Y-55920000D03*
X169530000Y-58460000D03*
G04 #@! TD*
G04 #@! TO.C,SW11*
X175880000Y-65445000D03*
X188580000Y-67985000D03*
G04 #@! TD*
G04 #@! TO.C,SW12*
X194930000Y-74970000D03*
X207630000Y-77510000D03*
G04 #@! TD*
G04 #@! TO.C,SW13*
X99680000Y-78780000D03*
X112380000Y-81320000D03*
G04 #@! TD*
G04 #@! TO.C,SW14*
X118730000Y-74970000D03*
X131430000Y-77510000D03*
G04 #@! TD*
G04 #@! TO.C,SW15*
X137780000Y-71160000D03*
X150480000Y-73700000D03*
G04 #@! TD*
G04 #@! TO.C,SW16*
X156830000Y-74970000D03*
X169530000Y-77510000D03*
G04 #@! TD*
G04 #@! TO.C,SW17*
X175880000Y-84495000D03*
X188580000Y-87035000D03*
G04 #@! TD*
G04 #@! TO.C,SW18*
X194930000Y-94020000D03*
X207630000Y-96560000D03*
G04 #@! TD*
D10*
G04 #@! TO.C,SW21*
X120295000Y-98315000D03*
X109595000Y-100515000D03*
G04 #@! TD*
D17*
G04 #@! TO.C,SW19*
X68801450Y-106951129D03*
D15*
G36*
X70154078Y-107093949D02*
X68248822Y-108193949D01*
X67448822Y-106808309D01*
X69354078Y-105708309D01*
X70154078Y-107093949D01*
X70154078Y-107093949D01*
G37*
D17*
X76006706Y-115030998D03*
D15*
G36*
X77359334Y-115173818D02*
X75454078Y-116273818D01*
X74654078Y-114888178D01*
X76559334Y-113788178D01*
X77359334Y-115173818D01*
X77359334Y-115173818D01*
G37*
G04 #@! TD*
D17*
G04 #@! TO.C,SW20*
X83660450Y-98315129D03*
D15*
G36*
X85013078Y-98457949D02*
X83107822Y-99557949D01*
X82307822Y-98172309D01*
X84213078Y-97072309D01*
X85013078Y-98457949D01*
X85013078Y-98457949D01*
G37*
D17*
X90865706Y-106394998D03*
D15*
G36*
X92218334Y-106537818D02*
X90313078Y-107637818D01*
X89513078Y-106252178D01*
X91418334Y-105152178D01*
X92218334Y-106537818D01*
X92218334Y-106537818D01*
G37*
G04 #@! TD*
D11*
G04 #@! TO.C,L1*
X142380000Y-24525000D03*
X142380000Y-26275000D03*
X147180000Y-24525000D03*
X147180000Y-26275000D03*
G04 #@! TD*
G04 #@! TO.C,L2*
X123330000Y-28335000D03*
X123330000Y-30085000D03*
X128130000Y-28335000D03*
X128130000Y-30085000D03*
G04 #@! TD*
G04 #@! TO.C,L3*
X104280000Y-32145000D03*
X104280000Y-33895000D03*
X109080000Y-32145000D03*
X109080000Y-33895000D03*
G04 #@! TD*
G04 #@! TO.C,L4*
X104280000Y-51195000D03*
X104280000Y-52945000D03*
X109080000Y-51195000D03*
X109080000Y-52945000D03*
G04 #@! TD*
G04 #@! TO.C,L5*
X123330000Y-47385000D03*
X123330000Y-49135000D03*
X128130000Y-47385000D03*
X128130000Y-49135000D03*
G04 #@! TD*
G04 #@! TO.C,L6*
X142380000Y-43321000D03*
X142380000Y-45071000D03*
X147180000Y-43321000D03*
X147180000Y-45071000D03*
G04 #@! TD*
G04 #@! TO.C,L7*
X161430000Y-28335000D03*
X161430000Y-30085000D03*
X166230000Y-28335000D03*
X166230000Y-30085000D03*
G04 #@! TD*
G04 #@! TO.C,L8*
X180480000Y-37860000D03*
X180480000Y-39610000D03*
X185280000Y-37860000D03*
X185280000Y-39610000D03*
G04 #@! TD*
G04 #@! TO.C,L9*
X161430000Y-47385000D03*
X161430000Y-49135000D03*
X166230000Y-47385000D03*
X166230000Y-49135000D03*
G04 #@! TD*
G04 #@! TO.C,L10*
X142380000Y-62625000D03*
X142380000Y-64375000D03*
X147180000Y-62625000D03*
X147180000Y-64375000D03*
G04 #@! TD*
G04 #@! TO.C,L11*
X123330000Y-66435000D03*
X123330000Y-68185000D03*
X128130000Y-66435000D03*
X128130000Y-68185000D03*
G04 #@! TD*
G04 #@! TO.C,L12*
X104280000Y-70245000D03*
X104280000Y-71995000D03*
X109080000Y-70245000D03*
X109080000Y-71995000D03*
G04 #@! TD*
D18*
G04 #@! TO.C,L13*
X78678772Y-101751039D03*
D15*
G36*
X77845759Y-101308219D02*
X78711785Y-100808219D01*
X79511785Y-102193859D01*
X78645759Y-102693859D01*
X77845759Y-101308219D01*
X77845759Y-101308219D01*
G37*
D18*
X77163228Y-102626039D03*
D15*
G36*
X76330215Y-102183219D02*
X77196241Y-101683219D01*
X77996241Y-103068859D01*
X77130215Y-103568859D01*
X76330215Y-102183219D01*
X76330215Y-102183219D01*
G37*
D18*
X81078772Y-105907961D03*
D15*
G36*
X80245759Y-105465141D02*
X81111785Y-104965141D01*
X81911785Y-106350781D01*
X81045759Y-106850781D01*
X80245759Y-105465141D01*
X80245759Y-105465141D01*
G37*
D18*
X79563228Y-106782961D03*
D15*
G36*
X78730215Y-106340141D02*
X79596241Y-105840141D01*
X80396241Y-107225781D01*
X79530215Y-107725781D01*
X78730215Y-106340141D01*
X78730215Y-106340141D01*
G37*
G04 #@! TD*
D18*
G04 #@! TO.C,L14*
X94172772Y-92734039D03*
D15*
G36*
X93339759Y-92291219D02*
X94205785Y-91791219D01*
X95005785Y-93176859D01*
X94139759Y-93676859D01*
X93339759Y-92291219D01*
X93339759Y-92291219D01*
G37*
D18*
X92657228Y-93609039D03*
D15*
G36*
X91824215Y-93166219D02*
X92690241Y-92666219D01*
X93490241Y-94051859D01*
X92624215Y-94551859D01*
X91824215Y-93166219D01*
X91824215Y-93166219D01*
G37*
D18*
X96572772Y-96890961D03*
D15*
G36*
X95739759Y-96448141D02*
X96605785Y-95948141D01*
X97405785Y-97333781D01*
X96539759Y-97833781D01*
X95739759Y-96448141D01*
X95739759Y-96448141D01*
G37*
D18*
X95057228Y-97765961D03*
D15*
G36*
X94224215Y-97323141D02*
X95090241Y-96823141D01*
X95890241Y-98208781D01*
X95024215Y-98708781D01*
X94224215Y-97323141D01*
X94224215Y-97323141D01*
G37*
G04 #@! TD*
D11*
G04 #@! TO.C,L15*
X109995000Y-88660000D03*
X109995000Y-90410000D03*
X114795000Y-88660000D03*
X114795000Y-90410000D03*
G04 #@! TD*
G04 #@! TO.C,L17*
X161430000Y-66435000D03*
X161430000Y-68185000D03*
X166230000Y-66435000D03*
X166230000Y-68185000D03*
G04 #@! TD*
G04 #@! TO.C,L18*
X180480000Y-56910000D03*
X180480000Y-58660000D03*
X185280000Y-56910000D03*
X185280000Y-58660000D03*
G04 #@! TD*
G04 #@! TO.C,L19*
X199530000Y-47385000D03*
X199530000Y-49135000D03*
X204330000Y-47385000D03*
X204330000Y-49135000D03*
G04 #@! TD*
G04 #@! TO.C,L20*
X199530000Y-66435000D03*
X199530000Y-68185000D03*
X204330000Y-66435000D03*
X204330000Y-68185000D03*
G04 #@! TD*
G04 #@! TO.C,L21*
X180480000Y-75960000D03*
X180480000Y-77710000D03*
X185280000Y-75960000D03*
X185280000Y-77710000D03*
G04 #@! TD*
G04 #@! TO.C,L22*
X199530000Y-85485000D03*
X199530000Y-87235000D03*
X204330000Y-85485000D03*
X204330000Y-87235000D03*
G04 #@! TD*
D12*
G04 #@! TO.C,JP1*
X92979220Y-68580000D03*
X93979980Y-68580000D03*
G04 #@! TD*
G04 #@! TO.C,JP3*
X92979220Y-66040000D03*
X93979980Y-66040000D03*
G04 #@! TD*
D19*
G04 #@! TO.C,LS1*
X71219086Y-33119086D03*
D15*
G36*
X72880787Y-32376624D02*
X70476624Y-34780787D01*
X69557385Y-33861548D01*
X71961548Y-31457385D01*
X72880787Y-32376624D01*
X72880787Y-32376624D01*
G37*
D19*
X77370914Y-39270914D03*
D15*
G36*
X79032615Y-38528452D02*
X76628452Y-40932615D01*
X75709213Y-40013376D01*
X78113376Y-37609213D01*
X79032615Y-38528452D01*
X79032615Y-38528452D01*
G37*
G04 #@! TD*
D20*
G04 #@! TO.C,D1*
X97155000Y-33785000D03*
X97155000Y-37335000D03*
G04 #@! TD*
G04 #@! TO.C,D2*
X116205000Y-30610000D03*
X116205000Y-34160000D03*
G04 #@! TD*
G04 #@! TO.C,D3*
X135255000Y-29715000D03*
X135255000Y-26165000D03*
G04 #@! TD*
G04 #@! TO.C,D4*
X154305000Y-29715000D03*
X154305000Y-26165000D03*
G04 #@! TD*
G04 #@! TO.C,D5*
X173355000Y-40135000D03*
X173355000Y-43685000D03*
G04 #@! TD*
G04 #@! TO.C,D6*
X192405000Y-52575000D03*
X192405000Y-49025000D03*
G04 #@! TD*
G04 #@! TO.C,D7*
X97155000Y-56385000D03*
X97155000Y-52835000D03*
G04 #@! TD*
G04 #@! TO.C,D8*
X116205000Y-49660000D03*
X116205000Y-53210000D03*
G04 #@! TD*
G04 #@! TO.C,D9*
X135255000Y-48765000D03*
X135255000Y-45215000D03*
G04 #@! TD*
G04 #@! TO.C,D10*
X154305000Y-48765000D03*
X154305000Y-45215000D03*
G04 #@! TD*
G04 #@! TO.C,D11*
X173355000Y-62735000D03*
X173355000Y-59185000D03*
G04 #@! TD*
G04 #@! TO.C,D12*
X192405000Y-71625000D03*
X192405000Y-68075000D03*
G04 #@! TD*
G04 #@! TO.C,D13*
X97155000Y-75435000D03*
X97155000Y-71885000D03*
G04 #@! TD*
G04 #@! TO.C,D14*
X116205000Y-70990000D03*
X116205000Y-67440000D03*
G04 #@! TD*
G04 #@! TO.C,D15*
X135255000Y-64265000D03*
X135255000Y-67815000D03*
G04 #@! TD*
G04 #@! TO.C,D16*
X154305000Y-64265000D03*
X154305000Y-67815000D03*
G04 #@! TD*
G04 #@! TO.C,D17*
X173355000Y-78235000D03*
X173355000Y-81785000D03*
G04 #@! TD*
G04 #@! TO.C,D18*
X192405000Y-87125000D03*
X192405000Y-90675000D03*
G04 #@! TD*
D21*
G04 #@! TO.C,D19*
X68212195Y-98172500D03*
D15*
G36*
X68537612Y-97436138D02*
X69012612Y-98258862D01*
X67886778Y-98908862D01*
X67411778Y-98086138D01*
X68537612Y-97436138D01*
X68537612Y-97436138D01*
G37*
D21*
X65137805Y-99947500D03*
D15*
G36*
X65463222Y-99211138D02*
X65938222Y-100033862D01*
X64812388Y-100683862D01*
X64337388Y-99861138D01*
X65463222Y-99211138D01*
X65463222Y-99211138D01*
G37*
G04 #@! TD*
D21*
G04 #@! TO.C,D20*
X83452195Y-89282500D03*
D15*
G36*
X83777612Y-88546138D02*
X84252612Y-89368862D01*
X83126778Y-90018862D01*
X82651778Y-89196138D01*
X83777612Y-88546138D01*
X83777612Y-88546138D01*
G37*
D21*
X80377805Y-91057500D03*
D15*
G36*
X80703222Y-90321138D02*
X81178222Y-91143862D01*
X80052388Y-91793862D01*
X79577388Y-90971138D01*
X80703222Y-90321138D01*
X80703222Y-90321138D01*
G37*
G04 #@! TD*
D20*
G04 #@! TO.C,D21*
X103505000Y-94485000D03*
X103505000Y-90935000D03*
G04 #@! TD*
G04 #@! TO.C,D22*
X121920000Y-87125000D03*
X121920000Y-90675000D03*
G04 #@! TD*
D21*
G04 #@! TO.C,D23*
X80009985Y-43814985D03*
D15*
G36*
X79214490Y-43691241D02*
X79886241Y-43019490D01*
X80805480Y-43938729D01*
X80133729Y-44610480D01*
X79214490Y-43691241D01*
X79214490Y-43691241D01*
G37*
D21*
X82520215Y-46325215D03*
D15*
G36*
X81724720Y-46201471D02*
X82396471Y-45529720D01*
X83315710Y-46448959D01*
X82643959Y-47120710D01*
X81724720Y-46201471D01*
X81724720Y-46201471D01*
G37*
G04 #@! TD*
M02*
