G04 #@! TF.GenerationSoftware,KiCad,Pcbnew,5.0.2-bee76a0~70~ubuntu18.04.1*
G04 #@! TF.CreationDate,2019-06-13T02:51:26+09:00*
G04 #@! TF.ProjectId,fireflower44,66697265-666c-46f7-9765-7234342e6b69,rev?*
G04 #@! TF.SameCoordinates,Original*
G04 #@! TF.FileFunction,Profile,NP*
%FSLAX46Y46*%
G04 Gerber Fmt 4.6, Leading zero omitted, Abs format (unit mm)*
G04 Created by KiCad (PCBNEW 5.0.2-bee76a0~70~ubuntu18.04.1) date 2019年06月13日 02時51分26秒*
%MOMM*%
%LPD*%
G01*
G04 APERTURE LIST*
%ADD10C,0.150000*%
G04 #@! TA.AperFunction,NonConductor*
%ADD11C,0.150000*%
G04 #@! TD*
G04 APERTURE END LIST*
D10*
X76834999Y-121284999D02*
G75*
G02X73025001Y-121284999I-1904999J1904999D01*
G01*
X136921666Y-20955000D02*
G75*
G03X136921666Y-20955000I-1666666J0D01*
G01*
X132755000Y-20955000D02*
X137755000Y-20955000D01*
X135255000Y-18455000D02*
X135255000Y-23455000D01*
X172720000Y-96520000D02*
X197485000Y-107315000D01*
X104140000Y-105410000D02*
X172720000Y-96520000D01*
X206375000Y-31115000D02*
G75*
G02X211455000Y-36195000I0J-5080000D01*
G01*
X73025000Y-121285000D02*
X60325000Y-99060000D01*
X211455000Y-102235000D02*
G75*
G02X206375000Y-107315000I-5080000J0D01*
G01*
X60325000Y-99060000D02*
X60325000Y-34290000D01*
X104140000Y-105410000D02*
X76835000Y-121285000D01*
X206375000Y-107315000D02*
X197485000Y-107315000D01*
X211455000Y-36195000D02*
X211455000Y-102235000D01*
X154305000Y-20955000D02*
X206375000Y-31115000D01*
X73660000Y-20955000D02*
X154305000Y-20955000D01*
X60325000Y-34290000D02*
X73660000Y-20955000D01*
D11*
G04 #@! TO.C,L16*
X129060000Y-83475000D02*
X129060000Y-87975000D01*
X132560000Y-83475000D02*
X132560000Y-87975000D01*
X129060000Y-83475000D02*
X132560000Y-83475000D01*
X132560000Y-87975000D02*
X129060000Y-87975000D01*
G04 #@! TO.C,L1*
X143030000Y-23150000D02*
X143030000Y-27650000D01*
X146530000Y-23150000D02*
X146530000Y-27650000D01*
X143030000Y-23150000D02*
X146530000Y-23150000D01*
X146530000Y-27650000D02*
X143030000Y-27650000D01*
G04 #@! TO.C,L2*
X123980000Y-26960000D02*
X123980000Y-31460000D01*
X127480000Y-26960000D02*
X127480000Y-31460000D01*
X123980000Y-26960000D02*
X127480000Y-26960000D01*
X127480000Y-31460000D02*
X123980000Y-31460000D01*
G04 #@! TO.C,L3*
X104930000Y-30770000D02*
X104930000Y-35270000D01*
X108430000Y-30770000D02*
X108430000Y-35270000D01*
X104930000Y-30770000D02*
X108430000Y-30770000D01*
X108430000Y-35270000D02*
X104930000Y-35270000D01*
G04 #@! TO.C,L4*
X104930000Y-49820000D02*
X104930000Y-54320000D01*
X108430000Y-49820000D02*
X108430000Y-54320000D01*
X104930000Y-49820000D02*
X108430000Y-49820000D01*
X108430000Y-54320000D02*
X104930000Y-54320000D01*
G04 #@! TO.C,L5*
X123980000Y-46010000D02*
X123980000Y-50510000D01*
X127480000Y-46010000D02*
X127480000Y-50510000D01*
X123980000Y-46010000D02*
X127480000Y-46010000D01*
X127480000Y-50510000D02*
X123980000Y-50510000D01*
G04 #@! TO.C,L6*
X143030000Y-41946000D02*
X143030000Y-46446000D01*
X146530000Y-41946000D02*
X146530000Y-46446000D01*
X143030000Y-41946000D02*
X146530000Y-41946000D01*
X146530000Y-46446000D02*
X143030000Y-46446000D01*
G04 #@! TO.C,L7*
X162080000Y-26960000D02*
X162080000Y-31460000D01*
X165580000Y-26960000D02*
X165580000Y-31460000D01*
X162080000Y-26960000D02*
X165580000Y-26960000D01*
X165580000Y-31460000D02*
X162080000Y-31460000D01*
G04 #@! TO.C,L8*
X181130000Y-36485000D02*
X181130000Y-40985000D01*
X184630000Y-36485000D02*
X184630000Y-40985000D01*
X181130000Y-36485000D02*
X184630000Y-36485000D01*
X184630000Y-40985000D02*
X181130000Y-40985000D01*
G04 #@! TO.C,L9*
X162080000Y-46010000D02*
X162080000Y-50510000D01*
X165580000Y-46010000D02*
X165580000Y-50510000D01*
X162080000Y-46010000D02*
X165580000Y-46010000D01*
X165580000Y-50510000D02*
X162080000Y-50510000D01*
G04 #@! TO.C,L10*
X143030000Y-61250000D02*
X143030000Y-65750000D01*
X146530000Y-61250000D02*
X146530000Y-65750000D01*
X143030000Y-61250000D02*
X146530000Y-61250000D01*
X146530000Y-65750000D02*
X143030000Y-65750000D01*
G04 #@! TO.C,L11*
X123980000Y-65060000D02*
X123980000Y-69560000D01*
X127480000Y-65060000D02*
X127480000Y-69560000D01*
X123980000Y-65060000D02*
X127480000Y-65060000D01*
X127480000Y-69560000D02*
X123980000Y-69560000D01*
G04 #@! TO.C,L12*
X104930000Y-68870000D02*
X104930000Y-73370000D01*
X108430000Y-68870000D02*
X108430000Y-73370000D01*
X104930000Y-68870000D02*
X108430000Y-68870000D01*
X108430000Y-73370000D02*
X104930000Y-73370000D01*
G04 #@! TO.C,L13*
X80194557Y-101626456D02*
X76297443Y-103876456D01*
X81944557Y-104657544D02*
X78047443Y-106907544D01*
X80194557Y-101626456D02*
X81944557Y-104657544D01*
X78047443Y-106907544D02*
X76297443Y-103876456D01*
G04 #@! TO.C,L14*
X95688557Y-92609456D02*
X91791443Y-94859456D01*
X97438557Y-95640544D02*
X93541443Y-97890544D01*
X95688557Y-92609456D02*
X97438557Y-95640544D01*
X93541443Y-97890544D02*
X91791443Y-94859456D01*
G04 #@! TO.C,L15*
X110645000Y-87285000D02*
X110645000Y-91785000D01*
X114145000Y-87285000D02*
X114145000Y-91785000D01*
X110645000Y-87285000D02*
X114145000Y-87285000D01*
X114145000Y-91785000D02*
X110645000Y-91785000D01*
G04 #@! TO.C,L17*
X162080000Y-65060000D02*
X162080000Y-69560000D01*
X165580000Y-65060000D02*
X165580000Y-69560000D01*
X162080000Y-65060000D02*
X165580000Y-65060000D01*
X165580000Y-69560000D02*
X162080000Y-69560000D01*
G04 #@! TO.C,L18*
X181130000Y-55535000D02*
X181130000Y-60035000D01*
X184630000Y-55535000D02*
X184630000Y-60035000D01*
X181130000Y-55535000D02*
X184630000Y-55535000D01*
X184630000Y-60035000D02*
X181130000Y-60035000D01*
G04 #@! TO.C,L19*
X200180000Y-46010000D02*
X200180000Y-50510000D01*
X203680000Y-46010000D02*
X203680000Y-50510000D01*
X200180000Y-46010000D02*
X203680000Y-46010000D01*
X203680000Y-50510000D02*
X200180000Y-50510000D01*
G04 #@! TO.C,L20*
X200180000Y-65060000D02*
X200180000Y-69560000D01*
X203680000Y-65060000D02*
X203680000Y-69560000D01*
X200180000Y-65060000D02*
X203680000Y-65060000D01*
X203680000Y-69560000D02*
X200180000Y-69560000D01*
G04 #@! TO.C,L21*
X181130000Y-74585000D02*
X181130000Y-79085000D01*
X184630000Y-74585000D02*
X184630000Y-79085000D01*
X181130000Y-74585000D02*
X184630000Y-74585000D01*
X184630000Y-79085000D02*
X181130000Y-79085000D01*
G04 #@! TO.C,L22*
X200180000Y-84110000D02*
X200180000Y-88610000D01*
X203680000Y-84110000D02*
X203680000Y-88610000D01*
X200180000Y-84110000D02*
X203680000Y-84110000D01*
X203680000Y-88610000D02*
X200180000Y-88610000D01*
G04 #@! TD*
M02*
