G04 #@! TF.GenerationSoftware,KiCad,Pcbnew,5.1.5+dfsg1-2build2*
G04 #@! TF.CreationDate,2020-12-19T04:10:29+09:00*
G04 #@! TF.ProjectId,shield,73686965-6c64-42e6-9b69-6361645f7063,rev?*
G04 #@! TF.SameCoordinates,Original*
G04 #@! TF.FileFunction,Soldermask,Bot*
G04 #@! TF.FilePolarity,Negative*
%FSLAX46Y46*%
G04 Gerber Fmt 4.6, Leading zero omitted, Abs format (unit mm)*
G04 Created by KiCad (PCBNEW 5.1.5+dfsg1-2build2) date 2020-12-19 04:10:29*
%MOMM*%
%LPD*%
G04 APERTURE LIST*
%ADD10C,0.100000*%
G04 APERTURE END LIST*
D10*
G36*
X153945880Y-110154776D02*
G01*
X154326593Y-110230504D01*
X154736249Y-110400189D01*
X155104929Y-110646534D01*
X155418466Y-110960071D01*
X155664811Y-111328751D01*
X155834496Y-111738407D01*
X155921000Y-112173296D01*
X155921000Y-112616704D01*
X155834496Y-113051593D01*
X155664811Y-113461249D01*
X155418466Y-113829929D01*
X155104929Y-114143466D01*
X154736249Y-114389811D01*
X154326593Y-114559496D01*
X153945880Y-114635224D01*
X153891705Y-114646000D01*
X153448295Y-114646000D01*
X153394120Y-114635224D01*
X153013407Y-114559496D01*
X152603751Y-114389811D01*
X152235071Y-114143466D01*
X151921534Y-113829929D01*
X151675189Y-113461249D01*
X151505504Y-113051593D01*
X151419000Y-112616704D01*
X151419000Y-112173296D01*
X151505504Y-111738407D01*
X151675189Y-111328751D01*
X151921534Y-110960071D01*
X152235071Y-110646534D01*
X152603751Y-110400189D01*
X153013407Y-110230504D01*
X153394120Y-110154776D01*
X153448295Y-110144000D01*
X153891705Y-110144000D01*
X153945880Y-110154776D01*
G37*
G36*
X110130880Y-110154776D02*
G01*
X110511593Y-110230504D01*
X110921249Y-110400189D01*
X111289929Y-110646534D01*
X111603466Y-110960071D01*
X111849811Y-111328751D01*
X112019496Y-111738407D01*
X112106000Y-112173296D01*
X112106000Y-112616704D01*
X112019496Y-113051593D01*
X111849811Y-113461249D01*
X111603466Y-113829929D01*
X111289929Y-114143466D01*
X110921249Y-114389811D01*
X110511593Y-114559496D01*
X110130880Y-114635224D01*
X110076705Y-114646000D01*
X109633295Y-114646000D01*
X109579120Y-114635224D01*
X109198407Y-114559496D01*
X108788751Y-114389811D01*
X108420071Y-114143466D01*
X108106534Y-113829929D01*
X107860189Y-113461249D01*
X107690504Y-113051593D01*
X107604000Y-112616704D01*
X107604000Y-112173296D01*
X107690504Y-111738407D01*
X107860189Y-111328751D01*
X108106534Y-110960071D01*
X108420071Y-110646534D01*
X108788751Y-110400189D01*
X109198407Y-110230504D01*
X109579120Y-110154776D01*
X109633295Y-110144000D01*
X110076705Y-110144000D01*
X110130880Y-110154776D01*
G37*
G36*
X116561000Y-98366000D02*
G01*
X114659000Y-98366000D01*
X114659000Y-97444000D01*
X116561000Y-97444000D01*
X116561000Y-98366000D01*
G37*
G36*
X121561000Y-98366000D02*
G01*
X119659000Y-98366000D01*
X119659000Y-97444000D01*
X121561000Y-97444000D01*
X121561000Y-98366000D01*
G37*
G36*
X160376000Y-98366000D02*
G01*
X158474000Y-98366000D01*
X158474000Y-97444000D01*
X160376000Y-97444000D01*
X160376000Y-98366000D01*
G37*
G36*
X165376000Y-98366000D02*
G01*
X163474000Y-98366000D01*
X163474000Y-97444000D01*
X165376000Y-97444000D01*
X165376000Y-98366000D01*
G37*
G36*
X187600880Y-92374776D02*
G01*
X187981593Y-92450504D01*
X188391249Y-92620189D01*
X188759929Y-92866534D01*
X189073466Y-93180071D01*
X189319811Y-93548751D01*
X189489496Y-93958407D01*
X189576000Y-94393296D01*
X189576000Y-94836704D01*
X189489496Y-95271593D01*
X189319811Y-95681249D01*
X189073466Y-96049929D01*
X188759929Y-96363466D01*
X188391249Y-96609811D01*
X187981593Y-96779496D01*
X187600880Y-96855224D01*
X187546705Y-96866000D01*
X187103295Y-96866000D01*
X187049120Y-96855224D01*
X186668407Y-96779496D01*
X186258751Y-96609811D01*
X185890071Y-96363466D01*
X185576534Y-96049929D01*
X185330189Y-95681249D01*
X185160504Y-95271593D01*
X185074000Y-94836704D01*
X185074000Y-94393296D01*
X185160504Y-93958407D01*
X185330189Y-93548751D01*
X185576534Y-93180071D01*
X185890071Y-92866534D01*
X186258751Y-92620189D01*
X186668407Y-92450504D01*
X187049120Y-92374776D01*
X187103295Y-92364000D01*
X187546705Y-92364000D01*
X187600880Y-92374776D01*
G37*
G36*
X121561000Y-96866000D02*
G01*
X119659000Y-96866000D01*
X119659000Y-95944000D01*
X121561000Y-95944000D01*
X121561000Y-96866000D01*
G37*
G36*
X116561000Y-96866000D02*
G01*
X114659000Y-96866000D01*
X114659000Y-95944000D01*
X116561000Y-95944000D01*
X116561000Y-96866000D01*
G37*
G36*
X143785880Y-92374776D02*
G01*
X144166593Y-92450504D01*
X144576249Y-92620189D01*
X144944929Y-92866534D01*
X145258466Y-93180071D01*
X145504811Y-93548751D01*
X145674496Y-93958407D01*
X145761000Y-94393296D01*
X145761000Y-94836704D01*
X145674496Y-95271593D01*
X145504811Y-95681249D01*
X145258466Y-96049929D01*
X144944929Y-96363466D01*
X144576249Y-96609811D01*
X144166593Y-96779496D01*
X143785880Y-96855224D01*
X143731705Y-96866000D01*
X143288295Y-96866000D01*
X143234120Y-96855224D01*
X142853407Y-96779496D01*
X142443751Y-96609811D01*
X142075071Y-96363466D01*
X141761534Y-96049929D01*
X141515189Y-95681249D01*
X141345504Y-95271593D01*
X141259000Y-94836704D01*
X141259000Y-94393296D01*
X141345504Y-93958407D01*
X141515189Y-93548751D01*
X141761534Y-93180071D01*
X142075071Y-92866534D01*
X142443751Y-92620189D01*
X142853407Y-92450504D01*
X143234120Y-92374776D01*
X143288295Y-92364000D01*
X143731705Y-92364000D01*
X143785880Y-92374776D01*
G37*
G36*
X160376000Y-96866000D02*
G01*
X158474000Y-96866000D01*
X158474000Y-95944000D01*
X160376000Y-95944000D01*
X160376000Y-96866000D01*
G37*
G36*
X165376000Y-96866000D02*
G01*
X163474000Y-96866000D01*
X163474000Y-95944000D01*
X165376000Y-95944000D01*
X165376000Y-96866000D01*
G37*
G36*
X183791000Y-89730000D02*
G01*
X181889000Y-89730000D01*
X181889000Y-88808000D01*
X183791000Y-88808000D01*
X183791000Y-89730000D01*
G37*
G36*
X178791000Y-89730000D02*
G01*
X176889000Y-89730000D01*
X176889000Y-88808000D01*
X178791000Y-88808000D01*
X178791000Y-89730000D01*
G37*
G36*
X139976000Y-89730000D02*
G01*
X138074000Y-89730000D01*
X138074000Y-88808000D01*
X139976000Y-88808000D01*
X139976000Y-89730000D01*
G37*
G36*
X134976000Y-89730000D02*
G01*
X133074000Y-89730000D01*
X133074000Y-88808000D01*
X134976000Y-88808000D01*
X134976000Y-89730000D01*
G37*
G36*
X134976000Y-88230000D02*
G01*
X133074000Y-88230000D01*
X133074000Y-87308000D01*
X134976000Y-87308000D01*
X134976000Y-88230000D01*
G37*
G36*
X178791000Y-88230000D02*
G01*
X176889000Y-88230000D01*
X176889000Y-87308000D01*
X178791000Y-87308000D01*
X178791000Y-88230000D01*
G37*
G36*
X183791000Y-88230000D02*
G01*
X181889000Y-88230000D01*
X181889000Y-87308000D01*
X183791000Y-87308000D01*
X183791000Y-88230000D01*
G37*
G36*
X139976000Y-88230000D02*
G01*
X138074000Y-88230000D01*
X138074000Y-87308000D01*
X139976000Y-87308000D01*
X139976000Y-88230000D01*
G37*
G36*
X165376000Y-50868000D02*
G01*
X163474000Y-50868000D01*
X163474000Y-49946000D01*
X165376000Y-49946000D01*
X165376000Y-50868000D01*
G37*
G36*
X160376000Y-50868000D02*
G01*
X158474000Y-50868000D01*
X158474000Y-49946000D01*
X160376000Y-49946000D01*
X160376000Y-50868000D01*
G37*
G36*
X116561000Y-50868000D02*
G01*
X114659000Y-50868000D01*
X114659000Y-49946000D01*
X116561000Y-49946000D01*
X116561000Y-50868000D01*
G37*
G36*
X121561000Y-50868000D02*
G01*
X119659000Y-50868000D01*
X119659000Y-49946000D01*
X121561000Y-49946000D01*
X121561000Y-50868000D01*
G37*
G36*
X134976000Y-50868000D02*
G01*
X133074000Y-50868000D01*
X133074000Y-49946000D01*
X134976000Y-49946000D01*
X134976000Y-50868000D01*
G37*
G36*
X139976000Y-50868000D02*
G01*
X138074000Y-50868000D01*
X138074000Y-49946000D01*
X139976000Y-49946000D01*
X139976000Y-50868000D01*
G37*
G36*
X178791000Y-50868000D02*
G01*
X176889000Y-50868000D01*
X176889000Y-49946000D01*
X178791000Y-49946000D01*
X178791000Y-50868000D01*
G37*
G36*
X183791000Y-50868000D02*
G01*
X181889000Y-50868000D01*
X181889000Y-49946000D01*
X183791000Y-49946000D01*
X183791000Y-50868000D01*
G37*
G36*
X121561000Y-49368000D02*
G01*
X119659000Y-49368000D01*
X119659000Y-48446000D01*
X121561000Y-48446000D01*
X121561000Y-49368000D01*
G37*
G36*
X183791000Y-49368000D02*
G01*
X181889000Y-49368000D01*
X181889000Y-48446000D01*
X183791000Y-48446000D01*
X183791000Y-49368000D01*
G37*
G36*
X165376000Y-49368000D02*
G01*
X163474000Y-49368000D01*
X163474000Y-48446000D01*
X165376000Y-48446000D01*
X165376000Y-49368000D01*
G37*
G36*
X160376000Y-49368000D02*
G01*
X158474000Y-49368000D01*
X158474000Y-48446000D01*
X160376000Y-48446000D01*
X160376000Y-49368000D01*
G37*
G36*
X178791000Y-49368000D02*
G01*
X176889000Y-49368000D01*
X176889000Y-48446000D01*
X178791000Y-48446000D01*
X178791000Y-49368000D01*
G37*
G36*
X139976000Y-49368000D02*
G01*
X138074000Y-49368000D01*
X138074000Y-48446000D01*
X139976000Y-48446000D01*
X139976000Y-49368000D01*
G37*
G36*
X134976000Y-49368000D02*
G01*
X133074000Y-49368000D01*
X133074000Y-48446000D01*
X134976000Y-48446000D01*
X134976000Y-49368000D01*
G37*
G36*
X116561000Y-49368000D02*
G01*
X114659000Y-49368000D01*
X114659000Y-48446000D01*
X116561000Y-48446000D01*
X116561000Y-49368000D01*
G37*
G36*
X153945880Y-41574776D02*
G01*
X154326593Y-41650504D01*
X154736249Y-41820189D01*
X155104929Y-42066534D01*
X155418466Y-42380071D01*
X155664811Y-42748751D01*
X155834496Y-43158407D01*
X155921000Y-43593296D01*
X155921000Y-44036704D01*
X155834496Y-44471593D01*
X155664811Y-44881249D01*
X155418466Y-45249929D01*
X155104929Y-45563466D01*
X154736249Y-45809811D01*
X154326593Y-45979496D01*
X153945880Y-46055224D01*
X153891705Y-46066000D01*
X153448295Y-46066000D01*
X153394120Y-46055224D01*
X153013407Y-45979496D01*
X152603751Y-45809811D01*
X152235071Y-45563466D01*
X151921534Y-45249929D01*
X151675189Y-44881249D01*
X151505504Y-44471593D01*
X151419000Y-44036704D01*
X151419000Y-43593296D01*
X151505504Y-43158407D01*
X151675189Y-42748751D01*
X151921534Y-42380071D01*
X152235071Y-42066534D01*
X152603751Y-41820189D01*
X153013407Y-41650504D01*
X153394120Y-41574776D01*
X153448295Y-41564000D01*
X153891705Y-41564000D01*
X153945880Y-41574776D01*
G37*
G36*
X110130880Y-41574776D02*
G01*
X110511593Y-41650504D01*
X110921249Y-41820189D01*
X111289929Y-42066534D01*
X111603466Y-42380071D01*
X111849811Y-42748751D01*
X112019496Y-43158407D01*
X112106000Y-43593296D01*
X112106000Y-44036704D01*
X112019496Y-44471593D01*
X111849811Y-44881249D01*
X111603466Y-45249929D01*
X111289929Y-45563466D01*
X110921249Y-45809811D01*
X110511593Y-45979496D01*
X110130880Y-46055224D01*
X110076705Y-46066000D01*
X109633295Y-46066000D01*
X109579120Y-46055224D01*
X109198407Y-45979496D01*
X108788751Y-45809811D01*
X108420071Y-45563466D01*
X108106534Y-45249929D01*
X107860189Y-44881249D01*
X107690504Y-44471593D01*
X107604000Y-44036704D01*
X107604000Y-43593296D01*
X107690504Y-43158407D01*
X107860189Y-42748751D01*
X108106534Y-42380071D01*
X108420071Y-42066534D01*
X108788751Y-41820189D01*
X109198407Y-41650504D01*
X109579120Y-41574776D01*
X109633295Y-41564000D01*
X110076705Y-41564000D01*
X110130880Y-41574776D01*
G37*
M02*
