G04 #@! TF.GenerationSoftware,KiCad,Pcbnew,5.1.5+dfsg1-2build2*
G04 #@! TF.CreationDate,2020-12-19T04:10:29+09:00*
G04 #@! TF.ProjectId,shield,73686965-6c64-42e6-9b69-6361645f7063,rev?*
G04 #@! TF.SameCoordinates,Original*
G04 #@! TF.FileFunction,Profile,NP*
%FSLAX46Y46*%
G04 Gerber Fmt 4.6, Leading zero omitted, Abs format (unit mm)*
G04 Created by KiCad (PCBNEW 5.1.5+dfsg1-2build2) date 2020-12-19 04:10:29*
%MOMM*%
%LPD*%
G04 APERTURE LIST*
%ADD10C,0.150000*%
%ADD11C,0.120000*%
G04 APERTURE END LIST*
D10*
X186055000Y-34925000D02*
X186055000Y-40005000D01*
X111125000Y-34925000D02*
X186055000Y-34925000D01*
X111125000Y-40005000D02*
X111125000Y-34925000D01*
X113665000Y-37465000D02*
X113665000Y-40005000D01*
X139700000Y-37465000D02*
X113665000Y-37465000D01*
X139700000Y-40005000D02*
X139700000Y-37465000D01*
X142240000Y-37465000D02*
X142240000Y-40005000D01*
X154940000Y-37465000D02*
X142240000Y-37465000D01*
X154940000Y-40005000D02*
X154940000Y-37465000D01*
X157480000Y-37465000D02*
X157480000Y-40005000D01*
X183515000Y-37465000D02*
X157480000Y-37465000D01*
X183515000Y-40005000D02*
X183515000Y-37465000D01*
X157480000Y-40005000D02*
X183515000Y-40005000D01*
X191135000Y-96520000D02*
X191135000Y-45085000D01*
X186055000Y-40005000D02*
G75*
G02X191135000Y-45085000I0J-5080000D01*
G01*
X114173000Y-61595000D02*
X114173000Y-79375000D01*
X114173000Y-79375000D02*
X141097000Y-79375000D01*
X149860000Y-45085000D02*
G75*
G02X154940000Y-40005000I5080000J0D01*
G01*
X149860000Y-116205000D02*
X149860000Y-45085000D01*
X191135000Y-96520000D02*
X153535923Y-118476845D01*
X184912000Y-61595000D02*
X157988000Y-61595000D01*
X184912000Y-79375000D02*
X184912000Y-61595000D01*
X157988000Y-79375000D02*
X184912000Y-79375000D01*
X157988000Y-61595000D02*
X157988000Y-79375000D01*
X153535923Y-118476845D02*
G75*
G02X149860000Y-116205000I-1135923J2271845D01*
G01*
X141097000Y-79375000D02*
X141097000Y-61595000D01*
X113665000Y-40005000D02*
X139700000Y-40005000D01*
X106045000Y-116205000D02*
X106045000Y-45085000D01*
X106045000Y-45085000D02*
G75*
G02X111125000Y-40005000I5080000J0D01*
G01*
X147320000Y-96520000D02*
X147320000Y-45085000D01*
X109720923Y-118476845D02*
G75*
G02X106045000Y-116205000I-1135923J2271845D01*
G01*
X141097000Y-61595000D02*
X114173000Y-61595000D01*
X147320000Y-96520000D02*
X109720923Y-118476845D01*
X142240000Y-40005000D02*
G75*
G02X147320000Y-45085000I0J-5080000D01*
G01*
D11*
X163625000Y-98655000D02*
X160225000Y-98655000D01*
X163625000Y-95655000D02*
X163625000Y-98655000D01*
X160225000Y-95655000D02*
X163625000Y-95655000D01*
X160225000Y-98655000D02*
X160225000Y-95655000D01*
X182040000Y-51157000D02*
X178640000Y-51157000D01*
X182040000Y-48157000D02*
X182040000Y-51157000D01*
X178640000Y-48157000D02*
X182040000Y-48157000D01*
X178640000Y-51157000D02*
X178640000Y-48157000D01*
X163625000Y-51157000D02*
X160225000Y-51157000D01*
X163625000Y-48157000D02*
X163625000Y-51157000D01*
X160225000Y-48157000D02*
X163625000Y-48157000D01*
X160225000Y-51157000D02*
X160225000Y-48157000D01*
X182040000Y-90019000D02*
X178640000Y-90019000D01*
X182040000Y-87019000D02*
X182040000Y-90019000D01*
X178640000Y-87019000D02*
X182040000Y-87019000D01*
X178640000Y-90019000D02*
X178640000Y-87019000D01*
X116410000Y-51157000D02*
X116410000Y-48157000D01*
X116410000Y-48157000D02*
X119810000Y-48157000D01*
X119810000Y-48157000D02*
X119810000Y-51157000D01*
X119810000Y-51157000D02*
X116410000Y-51157000D01*
X116410000Y-98655000D02*
X116410000Y-95655000D01*
X116410000Y-95655000D02*
X119810000Y-95655000D01*
X119810000Y-95655000D02*
X119810000Y-98655000D01*
X119810000Y-98655000D02*
X116410000Y-98655000D01*
X134825000Y-90019000D02*
X134825000Y-87019000D01*
X134825000Y-87019000D02*
X138225000Y-87019000D01*
X138225000Y-87019000D02*
X138225000Y-90019000D01*
X138225000Y-90019000D02*
X134825000Y-90019000D01*
X134825000Y-51157000D02*
X134825000Y-48157000D01*
X134825000Y-48157000D02*
X138225000Y-48157000D01*
X138225000Y-48157000D02*
X138225000Y-51157000D01*
X138225000Y-51157000D02*
X134825000Y-51157000D01*
M02*
