M48
; DRILL file {KiCad 5.1.5+dfsg1-2build2} date 2020年12月19日 04時10分42秒
; FORMAT={-:-/ absolute / inch / decimal}
; #@! TF.CreationDate,2020-12-19T04:10:42+09:00
; #@! TF.GenerationSoftware,Kicad,Pcbnew,5.1.5+dfsg1-2build2
FMAT,2
INCH
T1C0.0157
T2C0.0866
%
G90
G05
T1
X4.55Y-1.925
X4.55Y-3.8
X5.275Y-1.925
X5.275Y-3.45
X5.325Y-3.7
X5.5Y-2.1
X6.275Y-1.925
X6.275Y-3.8
X7.0Y-1.925
X7.0Y-3.45
X7.05Y-3.7
X7.225Y-2.1
X4.26Y-4.425
X4.2791Y-4.3791
X4.2791Y-4.4709
X4.325Y-4.36
X4.325Y-4.49
X4.3709Y-4.3791
X4.3709Y-4.4709
X4.39Y-4.425
X5.585Y-3.725
X5.6041Y-3.6791
X5.6041Y-3.7709
X5.65Y-3.66
X5.65Y-3.79
X5.6959Y-3.6791
X5.6959Y-3.7709
X5.715Y-3.725
X4.26Y-1.725
X4.2791Y-1.6791
X4.2791Y-1.7709
X4.325Y-1.66
X4.325Y-1.79
X4.3709Y-1.6791
X4.3709Y-1.7709
X4.39Y-1.725
X7.31Y-3.725
X7.3291Y-3.6791
X7.3291Y-3.7709
X7.375Y-3.66
X7.375Y-3.79
X7.4209Y-3.6791
X7.4209Y-3.7709
X7.44Y-3.725
X5.985Y-1.725
X6.0041Y-1.6791
X6.0041Y-1.7709
X6.05Y-1.66
X6.05Y-1.79
X6.0959Y-1.6791
X6.0959Y-1.7709
X6.115Y-1.725
X5.985Y-4.425
X6.0041Y-4.3791
X6.0041Y-4.4709
X6.05Y-4.36
X6.05Y-4.49
X6.0959Y-4.3791
X6.0959Y-4.4709
X6.115Y-4.425
T2
X5.65Y-3.725
X4.325Y-1.725
X7.375Y-3.725
X6.05Y-1.725
X6.05Y-4.425
X4.325Y-4.425
T0
M30
