G04 #@! TF.GenerationSoftware,KiCad,Pcbnew,5.1.5+dfsg1-2build2*
G04 #@! TF.CreationDate,2020-12-19T04:10:29+09:00*
G04 #@! TF.ProjectId,shield,73686965-6c64-42e6-9b69-6361645f7063,rev?*
G04 #@! TF.SameCoordinates,Original*
G04 #@! TF.FileFunction,Copper,L2,Bot*
G04 #@! TF.FilePolarity,Positive*
%FSLAX46Y46*%
G04 Gerber Fmt 4.6, Leading zero omitted, Abs format (unit mm)*
G04 Created by KiCad (PCBNEW 5.1.5+dfsg1-2build2) date 2020-12-19 04:10:29*
%MOMM*%
%LPD*%
G04 APERTURE LIST*
%ADD10R,1.800000X0.820000*%
%ADD11C,0.700000*%
%ADD12C,4.400000*%
%ADD13C,0.800000*%
%ADD14C,0.400000*%
%ADD15C,0.250000*%
%ADD16C,0.254000*%
G04 APERTURE END LIST*
D10*
X164425000Y-97905000D03*
X164425000Y-96405000D03*
X159425000Y-96405000D03*
X159425000Y-97905000D03*
D11*
X154836726Y-111228274D03*
X153670000Y-110745000D03*
X152503274Y-111228274D03*
X152020000Y-112395000D03*
X152503274Y-113561726D03*
X153670000Y-114045000D03*
X154836726Y-113561726D03*
X155320000Y-112395000D03*
D12*
X153670000Y-112395000D03*
X109855000Y-112395000D03*
D11*
X111505000Y-112395000D03*
X111021726Y-113561726D03*
X109855000Y-114045000D03*
X108688274Y-113561726D03*
X108205000Y-112395000D03*
X108688274Y-111228274D03*
X109855000Y-110745000D03*
X111021726Y-111228274D03*
D12*
X143510000Y-94615000D03*
D11*
X145160000Y-94615000D03*
X144676726Y-95781726D03*
X143510000Y-96265000D03*
X142343274Y-95781726D03*
X141860000Y-94615000D03*
X142343274Y-93448274D03*
X143510000Y-92965000D03*
X144676726Y-93448274D03*
D10*
X182840000Y-50407000D03*
X182840000Y-48907000D03*
X177840000Y-48907000D03*
X177840000Y-50407000D03*
D11*
X188491726Y-93448274D03*
X187325000Y-92965000D03*
X186158274Y-93448274D03*
X185675000Y-94615000D03*
X186158274Y-95781726D03*
X187325000Y-96265000D03*
X188491726Y-95781726D03*
X188975000Y-94615000D03*
D12*
X187325000Y-94615000D03*
D10*
X164425000Y-50407000D03*
X164425000Y-48907000D03*
X159425000Y-48907000D03*
X159425000Y-50407000D03*
X182840000Y-89269000D03*
X182840000Y-87769000D03*
X177840000Y-87769000D03*
X177840000Y-89269000D03*
X115610000Y-50407000D03*
X115610000Y-48907000D03*
X120610000Y-48907000D03*
X120610000Y-50407000D03*
X115610000Y-97905000D03*
X115610000Y-96405000D03*
X120610000Y-96405000D03*
X120610000Y-97905000D03*
X134025000Y-89269000D03*
X134025000Y-87769000D03*
X139025000Y-87769000D03*
X139025000Y-89269000D03*
D11*
X111021726Y-42648274D03*
X109855000Y-42165000D03*
X108688274Y-42648274D03*
X108205000Y-43815000D03*
X108688274Y-44981726D03*
X109855000Y-45465000D03*
X111021726Y-44981726D03*
X111505000Y-43815000D03*
D12*
X109855000Y-43815000D03*
X153670000Y-43815000D03*
D11*
X155320000Y-43815000D03*
X154836726Y-44981726D03*
X153670000Y-45465000D03*
X152503274Y-44981726D03*
X152020000Y-43815000D03*
X152503274Y-42648274D03*
X153670000Y-42165000D03*
X154836726Y-42648274D03*
D10*
X134025000Y-50407000D03*
X134025000Y-48907000D03*
X139025000Y-48907000D03*
X139025000Y-50407000D03*
D13*
X133985000Y-87630000D03*
X139700000Y-53340000D03*
X133985000Y-48895000D03*
X135255000Y-93980000D03*
X115570000Y-48895000D03*
X115570000Y-96520000D03*
X183515000Y-53340000D03*
X179070000Y-93980000D03*
X159385000Y-48895000D03*
X159385000Y-96520000D03*
X177800000Y-48895000D03*
X177800000Y-87630000D03*
D14*
X120610000Y-51217000D02*
X120209990Y-51617010D01*
X143510000Y-94615000D02*
X139025000Y-90130000D01*
X140325001Y-48176999D02*
X140325000Y-49597000D01*
X120610000Y-50407000D02*
X120610000Y-51217000D01*
X120209990Y-51617010D02*
X114927534Y-51617010D01*
X142022019Y-52104019D02*
X140325000Y-50407000D01*
X158447541Y-47246981D02*
X183209983Y-47246981D01*
X187325000Y-94615000D02*
X182840000Y-90130000D01*
X139394983Y-47246981D02*
X140325001Y-48176999D01*
X184035000Y-97905000D02*
X187325000Y-94615000D01*
X157480000Y-50354476D02*
X157480000Y-48214522D01*
X157480000Y-48214522D02*
X158447541Y-47246981D01*
X139025000Y-89269000D02*
X140325000Y-89269000D01*
X113665000Y-50354476D02*
X113665000Y-48214522D01*
X140220000Y-97905000D02*
X143510000Y-94615000D01*
X139025000Y-90130000D02*
X139025000Y-89269000D01*
X164425000Y-50407000D02*
X164425000Y-51217000D01*
X164425000Y-51217000D02*
X164024990Y-51617010D01*
X164024990Y-51617010D02*
X158742534Y-51617010D01*
X158742534Y-51617010D02*
X157480000Y-50354476D01*
X182840000Y-89269000D02*
X184140000Y-89269000D01*
X140325000Y-89269000D02*
X142022019Y-87571981D01*
X113665000Y-48214522D02*
X114632541Y-47246981D01*
X140325000Y-49597000D02*
X139515000Y-50407000D01*
X142022019Y-87571981D02*
X142022019Y-52104019D01*
X184140000Y-89269000D02*
X185837019Y-87571981D01*
X185837019Y-52104019D02*
X184140000Y-50407000D01*
X184140000Y-50407000D02*
X182840000Y-50407000D01*
X185837019Y-87571981D02*
X185837019Y-52104019D01*
X184140001Y-48176999D02*
X184140000Y-49597000D01*
X114632541Y-47246981D02*
X139394983Y-47246981D01*
X183330000Y-50407000D02*
X182840000Y-50407000D01*
X183209983Y-47246981D02*
X184140001Y-48176999D01*
X184140000Y-49597000D02*
X183330000Y-50407000D01*
X182840000Y-90130000D02*
X182840000Y-89269000D01*
X164425000Y-97905000D02*
X184035000Y-97905000D01*
X114927534Y-51617010D02*
X113665000Y-50354476D01*
X139515000Y-50407000D02*
X139025000Y-50407000D01*
X120610000Y-97905000D02*
X140220000Y-97905000D01*
X140325000Y-50407000D02*
X139025000Y-50407000D01*
D15*
X109855000Y-112395000D02*
X109855000Y-102510000D01*
X114460000Y-97905000D02*
X115610000Y-97905000D01*
X153670000Y-102510000D02*
X158275000Y-97905000D01*
X158275000Y-97905000D02*
X159425000Y-97905000D01*
X109855000Y-102510000D02*
X114460000Y-97905000D01*
X153670000Y-112395000D02*
X153670000Y-102510000D01*
X120610000Y-96405000D02*
X127549000Y-96405000D01*
X164425000Y-96405000D02*
X171364000Y-96405000D01*
X171364000Y-96405000D02*
X177840000Y-89929000D01*
X177840000Y-89929000D02*
X177840000Y-89269000D01*
X127549000Y-96405000D02*
X134025000Y-89929000D01*
X134025000Y-89929000D02*
X134025000Y-89269000D01*
X177840000Y-50407000D02*
X177840000Y-51067000D01*
X139025000Y-87109000D02*
X139025000Y-87769000D01*
X141497010Y-84636990D02*
X139025000Y-87109000D01*
X141497009Y-58539009D02*
X141497010Y-84636990D01*
X182840000Y-87109000D02*
X182840000Y-87769000D01*
X134025000Y-51067000D02*
X141497009Y-58539009D01*
X185312010Y-84636990D02*
X182840000Y-87109000D01*
X177840000Y-51067000D02*
X185312009Y-58539009D01*
X185312009Y-58539009D02*
X185312010Y-84636990D01*
X134025000Y-50407000D02*
X134025000Y-51067000D01*
X114460000Y-50407000D02*
X115610000Y-50407000D01*
X114384999Y-50331999D02*
X114460000Y-50407000D01*
X138549990Y-47771990D02*
X114850008Y-47771990D01*
X114850008Y-47771990D02*
X114384999Y-48236999D01*
X158199999Y-50331999D02*
X158275000Y-50407000D01*
X158275000Y-50407000D02*
X159425000Y-50407000D01*
X158665008Y-47771990D02*
X158199999Y-48236999D01*
X139025000Y-48907000D02*
X139025000Y-48247000D01*
X158199999Y-48236999D02*
X158199999Y-50331999D01*
X139025000Y-48247000D02*
X138549990Y-47771990D01*
X182840000Y-48907000D02*
X182840000Y-48247000D01*
X182840000Y-48247000D02*
X182364990Y-47771990D01*
X182364990Y-47771990D02*
X158665008Y-47771990D01*
X114384999Y-48236999D02*
X114384999Y-50331999D01*
D16*
G36*
X112965273Y-40144184D02*
G01*
X113005872Y-40278020D01*
X113071800Y-40401363D01*
X113160525Y-40509475D01*
X113268637Y-40598200D01*
X113391980Y-40664128D01*
X113525816Y-40704727D01*
X113630123Y-40715000D01*
X113665000Y-40718435D01*
X113699877Y-40715000D01*
X139665123Y-40715000D01*
X139700000Y-40718435D01*
X139734877Y-40715000D01*
X139839184Y-40704727D01*
X139973020Y-40664128D01*
X140096363Y-40598200D01*
X140204475Y-40509475D01*
X140293200Y-40401363D01*
X140359128Y-40278020D01*
X140399727Y-40144184D01*
X140400927Y-40132000D01*
X141539074Y-40132000D01*
X141540274Y-40144184D01*
X141580873Y-40278020D01*
X141646801Y-40401363D01*
X141735526Y-40509475D01*
X141843638Y-40598200D01*
X141966981Y-40664128D01*
X142100817Y-40704727D01*
X142240000Y-40718435D01*
X142243266Y-40718113D01*
X143013358Y-40786842D01*
X143762277Y-40991723D01*
X144463072Y-41325986D01*
X145093605Y-41779069D01*
X145633934Y-42336645D01*
X146066989Y-42981099D01*
X146379073Y-43692044D01*
X146561640Y-44452493D01*
X146610001Y-45111044D01*
X146610000Y-96112423D01*
X109412854Y-117834551D01*
X109068992Y-117966307D01*
X108717664Y-118026772D01*
X108361289Y-118017844D01*
X108013433Y-117939867D01*
X107687348Y-117795808D01*
X107395451Y-117591154D01*
X107148870Y-117333708D01*
X106956986Y-117033264D01*
X106827114Y-116701275D01*
X106760547Y-116330011D01*
X106755000Y-116190847D01*
X106755000Y-112115777D01*
X107020000Y-112115777D01*
X107020000Y-112674223D01*
X107128948Y-113221939D01*
X107342656Y-113737876D01*
X107652912Y-114202207D01*
X108047793Y-114597088D01*
X108512124Y-114907344D01*
X109028061Y-115121052D01*
X109575777Y-115230000D01*
X110134223Y-115230000D01*
X110681939Y-115121052D01*
X111197876Y-114907344D01*
X111662207Y-114597088D01*
X112057088Y-114202207D01*
X112367344Y-113737876D01*
X112581052Y-113221939D01*
X112690000Y-112674223D01*
X112690000Y-112115777D01*
X112581052Y-111568061D01*
X112367344Y-111052124D01*
X112057088Y-110587793D01*
X111662207Y-110192912D01*
X111197876Y-109882656D01*
X110681939Y-109668948D01*
X110615000Y-109655633D01*
X110615000Y-102824801D01*
X114519130Y-98920673D01*
X114585518Y-98940812D01*
X114710000Y-98953072D01*
X115781272Y-98953072D01*
X115829333Y-99042989D01*
X115916183Y-99148817D01*
X116022011Y-99235667D01*
X116142748Y-99300202D01*
X116273756Y-99339943D01*
X116410000Y-99353362D01*
X116444134Y-99350000D01*
X119775866Y-99350000D01*
X119810000Y-99353362D01*
X119946244Y-99339943D01*
X120077252Y-99300202D01*
X120197989Y-99235667D01*
X120303817Y-99148817D01*
X120390667Y-99042989D01*
X120438728Y-98953072D01*
X121510000Y-98953072D01*
X121634482Y-98940812D01*
X121754180Y-98904502D01*
X121864494Y-98845537D01*
X121961185Y-98766185D01*
X121982674Y-98740000D01*
X140178982Y-98740000D01*
X140220000Y-98744040D01*
X140261018Y-98740000D01*
X140261019Y-98740000D01*
X140383689Y-98727918D01*
X140541087Y-98680172D01*
X140686146Y-98602636D01*
X140813291Y-98498291D01*
X140839446Y-98466421D01*
X142175185Y-97130683D01*
X142683061Y-97341052D01*
X143230777Y-97450000D01*
X143789223Y-97450000D01*
X144336939Y-97341052D01*
X144852876Y-97127344D01*
X145317207Y-96817088D01*
X145712088Y-96422207D01*
X146022344Y-95957876D01*
X146236052Y-95441939D01*
X146345000Y-94894223D01*
X146345000Y-94335777D01*
X146236052Y-93788061D01*
X146022344Y-93272124D01*
X145712088Y-92807793D01*
X145317207Y-92412912D01*
X144852876Y-92102656D01*
X144336939Y-91888948D01*
X143789223Y-91780000D01*
X143230777Y-91780000D01*
X142683061Y-91888948D01*
X142175185Y-92099317D01*
X140282740Y-90206873D01*
X140376185Y-90130185D01*
X140400458Y-90100608D01*
X140488689Y-90091918D01*
X140646087Y-90044172D01*
X140791146Y-89966636D01*
X140918291Y-89862291D01*
X140944446Y-89830421D01*
X142583447Y-88191421D01*
X142615310Y-88165272D01*
X142719655Y-88038127D01*
X142797191Y-87893068D01*
X142844937Y-87735670D01*
X142857019Y-87613000D01*
X142857019Y-87612990D01*
X142861058Y-87571982D01*
X142857019Y-87530974D01*
X142857019Y-52145026D01*
X142861058Y-52104018D01*
X142857019Y-52063010D01*
X142857019Y-52063000D01*
X142844937Y-51940330D01*
X142797191Y-51782932D01*
X142719655Y-51637873D01*
X142615310Y-51510728D01*
X142583445Y-51484578D01*
X141071185Y-49972318D01*
X141100172Y-49918087D01*
X141147918Y-49760689D01*
X141164040Y-49597000D01*
X141159999Y-49555973D01*
X141160001Y-48218018D01*
X141164041Y-48176998D01*
X141147919Y-48013310D01*
X141100173Y-47855912D01*
X141022637Y-47710853D01*
X140944439Y-47615569D01*
X140944438Y-47615568D01*
X140918292Y-47583709D01*
X140886433Y-47557563D01*
X140014429Y-46685560D01*
X139988274Y-46653690D01*
X139861129Y-46549345D01*
X139716070Y-46471809D01*
X139558672Y-46424063D01*
X139436002Y-46411981D01*
X139436001Y-46411981D01*
X139394983Y-46407941D01*
X139353965Y-46411981D01*
X114673559Y-46411981D01*
X114632541Y-46407941D01*
X114591523Y-46411981D01*
X114591522Y-46411981D01*
X114468852Y-46424063D01*
X114412926Y-46441028D01*
X114311454Y-46471809D01*
X114166395Y-46549345D01*
X114097384Y-46605981D01*
X114039250Y-46653690D01*
X114013104Y-46685549D01*
X113103574Y-47595081D01*
X113071710Y-47621231D01*
X112996294Y-47713126D01*
X112967364Y-47748377D01*
X112889828Y-47893436D01*
X112842082Y-48050834D01*
X112825960Y-48214522D01*
X112830001Y-48255550D01*
X112830000Y-50313457D01*
X112825960Y-50354476D01*
X112836550Y-50462000D01*
X112842082Y-50518164D01*
X112889828Y-50675562D01*
X112967364Y-50820621D01*
X113071709Y-50947767D01*
X113103578Y-50973921D01*
X114308097Y-52178442D01*
X114334243Y-52210301D01*
X114461388Y-52314646D01*
X114606447Y-52392182D01*
X114763845Y-52439928D01*
X114886515Y-52452010D01*
X114886516Y-52452010D01*
X114927534Y-52456050D01*
X114968552Y-52452010D01*
X120168972Y-52452010D01*
X120209990Y-52456050D01*
X120251008Y-52452010D01*
X120251009Y-52452010D01*
X120373679Y-52439928D01*
X120531077Y-52392182D01*
X120676136Y-52314646D01*
X120803281Y-52210301D01*
X120829435Y-52178432D01*
X121171426Y-51836442D01*
X121203291Y-51810291D01*
X121307636Y-51683146D01*
X121385172Y-51538087D01*
X121410354Y-51455072D01*
X121510000Y-51455072D01*
X121634482Y-51442812D01*
X121754180Y-51406502D01*
X121864494Y-51347537D01*
X121961185Y-51268185D01*
X122040537Y-51171494D01*
X122099502Y-51061180D01*
X122135812Y-50941482D01*
X122148072Y-50817000D01*
X122148072Y-49997000D01*
X122135812Y-49872518D01*
X122099502Y-49752820D01*
X122048284Y-49657000D01*
X122099502Y-49561180D01*
X122135812Y-49441482D01*
X122148072Y-49317000D01*
X122148072Y-48531990D01*
X132487793Y-48531990D01*
X132490000Y-48621250D01*
X132648750Y-48780000D01*
X133898000Y-48780000D01*
X133898000Y-48760000D01*
X134130001Y-48760000D01*
X134130001Y-49054000D01*
X133898000Y-49054000D01*
X133898000Y-49034000D01*
X132648750Y-49034000D01*
X132490000Y-49192750D01*
X132486928Y-49317000D01*
X132499188Y-49441482D01*
X132535498Y-49561180D01*
X132586716Y-49657000D01*
X132535498Y-49752820D01*
X132499188Y-49872518D01*
X132486928Y-49997000D01*
X132486928Y-50817000D01*
X132499188Y-50941482D01*
X132535498Y-51061180D01*
X132594463Y-51171494D01*
X132673815Y-51268185D01*
X132770506Y-51347537D01*
X132880820Y-51406502D01*
X133000518Y-51442812D01*
X133125000Y-51455072D01*
X133370674Y-51455072D01*
X133390026Y-51491276D01*
X133432138Y-51542589D01*
X133485000Y-51607001D01*
X133513998Y-51630799D01*
X140737009Y-58853812D01*
X140737009Y-60885000D01*
X114207877Y-60885000D01*
X114173000Y-60881565D01*
X114138123Y-60885000D01*
X114033816Y-60895273D01*
X113899980Y-60935872D01*
X113776637Y-61001800D01*
X113668525Y-61090525D01*
X113579800Y-61198637D01*
X113513872Y-61321980D01*
X113473273Y-61455816D01*
X113459565Y-61595000D01*
X113463000Y-61629877D01*
X113463001Y-79340113D01*
X113459565Y-79375000D01*
X113473273Y-79514184D01*
X113513872Y-79648020D01*
X113579800Y-79771363D01*
X113668525Y-79879475D01*
X113776637Y-79968200D01*
X113899980Y-80034128D01*
X114033816Y-80074727D01*
X114138123Y-80085000D01*
X114173000Y-80088435D01*
X114207877Y-80085000D01*
X140737011Y-80085000D01*
X140737011Y-84322187D01*
X138617315Y-86441884D01*
X138612989Y-86438333D01*
X138492252Y-86373798D01*
X138361244Y-86334057D01*
X138259135Y-86324000D01*
X138259134Y-86324000D01*
X138225000Y-86320638D01*
X138190865Y-86324000D01*
X134859135Y-86324000D01*
X134825000Y-86320638D01*
X134790866Y-86324000D01*
X134790865Y-86324000D01*
X134688756Y-86334057D01*
X134557748Y-86373798D01*
X134437011Y-86438333D01*
X134331183Y-86525183D01*
X134244333Y-86631011D01*
X134179798Y-86751748D01*
X134140057Y-86882756D01*
X134126638Y-87019000D01*
X134130001Y-87053145D01*
X134130001Y-87916000D01*
X133898000Y-87916000D01*
X133898000Y-87896000D01*
X132648750Y-87896000D01*
X132490000Y-88054750D01*
X132486928Y-88179000D01*
X132499188Y-88303482D01*
X132535498Y-88423180D01*
X132586716Y-88519000D01*
X132535498Y-88614820D01*
X132499188Y-88734518D01*
X132486928Y-88859000D01*
X132486928Y-89679000D01*
X132499188Y-89803482D01*
X132535498Y-89923180D01*
X132594463Y-90033494D01*
X132673815Y-90130185D01*
X132715117Y-90164081D01*
X127234199Y-95645000D01*
X122042939Y-95645000D01*
X122040537Y-95640506D01*
X121961185Y-95543815D01*
X121864494Y-95464463D01*
X121754180Y-95405498D01*
X121634482Y-95369188D01*
X121510000Y-95356928D01*
X120438728Y-95356928D01*
X120390667Y-95267011D01*
X120303817Y-95161183D01*
X120197989Y-95074333D01*
X120077252Y-95009798D01*
X119946244Y-94970057D01*
X119844135Y-94960000D01*
X119844134Y-94960000D01*
X119810000Y-94956638D01*
X119775865Y-94960000D01*
X116444135Y-94960000D01*
X116410000Y-94956638D01*
X116375866Y-94960000D01*
X116375865Y-94960000D01*
X116273756Y-94970057D01*
X116142748Y-95009798D01*
X116022011Y-95074333D01*
X115916183Y-95161183D01*
X115829333Y-95267011D01*
X115764798Y-95387748D01*
X115725057Y-95518756D01*
X115711638Y-95655000D01*
X115715001Y-95689145D01*
X115715001Y-96552000D01*
X115483000Y-96552000D01*
X115483000Y-96532000D01*
X114233750Y-96532000D01*
X114075000Y-96690750D01*
X114071928Y-96815000D01*
X114084188Y-96939482D01*
X114120498Y-97059180D01*
X114171716Y-97155000D01*
X114140035Y-97214270D01*
X114035724Y-97270026D01*
X114035722Y-97270027D01*
X114035723Y-97270027D01*
X113948996Y-97341201D01*
X113948992Y-97341205D01*
X113919999Y-97364999D01*
X113896205Y-97393992D01*
X109343998Y-101946201D01*
X109315000Y-101969999D01*
X109291202Y-101998997D01*
X109291201Y-101998998D01*
X109220026Y-102085724D01*
X109149454Y-102217754D01*
X109105998Y-102361015D01*
X109091324Y-102510000D01*
X109095001Y-102547332D01*
X109095000Y-109655633D01*
X109028061Y-109668948D01*
X108512124Y-109882656D01*
X108047793Y-110192912D01*
X107652912Y-110587793D01*
X107342656Y-111052124D01*
X107128948Y-111568061D01*
X107020000Y-112115777D01*
X106755000Y-112115777D01*
X106755000Y-95995000D01*
X114071928Y-95995000D01*
X114075000Y-96119250D01*
X114233750Y-96278000D01*
X115483000Y-96278000D01*
X115483000Y-95518750D01*
X115324250Y-95360000D01*
X114710000Y-95356928D01*
X114585518Y-95369188D01*
X114465820Y-95405498D01*
X114355506Y-95464463D01*
X114258815Y-95543815D01*
X114179463Y-95640506D01*
X114120498Y-95750820D01*
X114084188Y-95870518D01*
X114071928Y-95995000D01*
X106755000Y-95995000D01*
X106755000Y-87359000D01*
X132486928Y-87359000D01*
X132490000Y-87483250D01*
X132648750Y-87642000D01*
X133898000Y-87642000D01*
X133898000Y-86882750D01*
X133739250Y-86724000D01*
X133125000Y-86720928D01*
X133000518Y-86733188D01*
X132880820Y-86769498D01*
X132770506Y-86828463D01*
X132673815Y-86907815D01*
X132594463Y-87004506D01*
X132535498Y-87114820D01*
X132499188Y-87234518D01*
X132486928Y-87359000D01*
X106755000Y-87359000D01*
X106755000Y-45804775D01*
X108044830Y-45804775D01*
X108284976Y-46192018D01*
X108778877Y-46452641D01*
X109314133Y-46611901D01*
X109870174Y-46663678D01*
X110425632Y-46605981D01*
X110959161Y-46441028D01*
X111425024Y-46192018D01*
X111665170Y-45804775D01*
X109855000Y-43994605D01*
X108044830Y-45804775D01*
X106755000Y-45804775D01*
X106755000Y-45116618D01*
X106826842Y-44311642D01*
X107030970Y-43565474D01*
X107006322Y-43830174D01*
X107064019Y-44385632D01*
X107228972Y-44919161D01*
X107477982Y-45385024D01*
X107865225Y-45625170D01*
X109675395Y-43815000D01*
X110034605Y-43815000D01*
X111844775Y-45625170D01*
X112232018Y-45385024D01*
X112492641Y-44891123D01*
X112651901Y-44355867D01*
X112703678Y-43799826D01*
X112645981Y-43244368D01*
X112481028Y-42710839D01*
X112232018Y-42244976D01*
X111844775Y-42004830D01*
X110034605Y-43815000D01*
X109675395Y-43815000D01*
X109661253Y-43800858D01*
X109840858Y-43621253D01*
X109855000Y-43635395D01*
X111665170Y-41825225D01*
X111425024Y-41437982D01*
X110931123Y-41177359D01*
X110395867Y-41018099D01*
X109839826Y-40966322D01*
X109637773Y-40987310D01*
X109732044Y-40945927D01*
X110492493Y-40763360D01*
X111116139Y-40717562D01*
X111125000Y-40718435D01*
X111264183Y-40704727D01*
X111398019Y-40664128D01*
X111521362Y-40598200D01*
X111629474Y-40509475D01*
X111718200Y-40401363D01*
X111784128Y-40278020D01*
X111824727Y-40144184D01*
X111825927Y-40132000D01*
X112964073Y-40132000D01*
X112965273Y-40144184D01*
G37*
X112965273Y-40144184D02*
X113005872Y-40278020D01*
X113071800Y-40401363D01*
X113160525Y-40509475D01*
X113268637Y-40598200D01*
X113391980Y-40664128D01*
X113525816Y-40704727D01*
X113630123Y-40715000D01*
X113665000Y-40718435D01*
X113699877Y-40715000D01*
X139665123Y-40715000D01*
X139700000Y-40718435D01*
X139734877Y-40715000D01*
X139839184Y-40704727D01*
X139973020Y-40664128D01*
X140096363Y-40598200D01*
X140204475Y-40509475D01*
X140293200Y-40401363D01*
X140359128Y-40278020D01*
X140399727Y-40144184D01*
X140400927Y-40132000D01*
X141539074Y-40132000D01*
X141540274Y-40144184D01*
X141580873Y-40278020D01*
X141646801Y-40401363D01*
X141735526Y-40509475D01*
X141843638Y-40598200D01*
X141966981Y-40664128D01*
X142100817Y-40704727D01*
X142240000Y-40718435D01*
X142243266Y-40718113D01*
X143013358Y-40786842D01*
X143762277Y-40991723D01*
X144463072Y-41325986D01*
X145093605Y-41779069D01*
X145633934Y-42336645D01*
X146066989Y-42981099D01*
X146379073Y-43692044D01*
X146561640Y-44452493D01*
X146610001Y-45111044D01*
X146610000Y-96112423D01*
X109412854Y-117834551D01*
X109068992Y-117966307D01*
X108717664Y-118026772D01*
X108361289Y-118017844D01*
X108013433Y-117939867D01*
X107687348Y-117795808D01*
X107395451Y-117591154D01*
X107148870Y-117333708D01*
X106956986Y-117033264D01*
X106827114Y-116701275D01*
X106760547Y-116330011D01*
X106755000Y-116190847D01*
X106755000Y-112115777D01*
X107020000Y-112115777D01*
X107020000Y-112674223D01*
X107128948Y-113221939D01*
X107342656Y-113737876D01*
X107652912Y-114202207D01*
X108047793Y-114597088D01*
X108512124Y-114907344D01*
X109028061Y-115121052D01*
X109575777Y-115230000D01*
X110134223Y-115230000D01*
X110681939Y-115121052D01*
X111197876Y-114907344D01*
X111662207Y-114597088D01*
X112057088Y-114202207D01*
X112367344Y-113737876D01*
X112581052Y-113221939D01*
X112690000Y-112674223D01*
X112690000Y-112115777D01*
X112581052Y-111568061D01*
X112367344Y-111052124D01*
X112057088Y-110587793D01*
X111662207Y-110192912D01*
X111197876Y-109882656D01*
X110681939Y-109668948D01*
X110615000Y-109655633D01*
X110615000Y-102824801D01*
X114519130Y-98920673D01*
X114585518Y-98940812D01*
X114710000Y-98953072D01*
X115781272Y-98953072D01*
X115829333Y-99042989D01*
X115916183Y-99148817D01*
X116022011Y-99235667D01*
X116142748Y-99300202D01*
X116273756Y-99339943D01*
X116410000Y-99353362D01*
X116444134Y-99350000D01*
X119775866Y-99350000D01*
X119810000Y-99353362D01*
X119946244Y-99339943D01*
X120077252Y-99300202D01*
X120197989Y-99235667D01*
X120303817Y-99148817D01*
X120390667Y-99042989D01*
X120438728Y-98953072D01*
X121510000Y-98953072D01*
X121634482Y-98940812D01*
X121754180Y-98904502D01*
X121864494Y-98845537D01*
X121961185Y-98766185D01*
X121982674Y-98740000D01*
X140178982Y-98740000D01*
X140220000Y-98744040D01*
X140261018Y-98740000D01*
X140261019Y-98740000D01*
X140383689Y-98727918D01*
X140541087Y-98680172D01*
X140686146Y-98602636D01*
X140813291Y-98498291D01*
X140839446Y-98466421D01*
X142175185Y-97130683D01*
X142683061Y-97341052D01*
X143230777Y-97450000D01*
X143789223Y-97450000D01*
X144336939Y-97341052D01*
X144852876Y-97127344D01*
X145317207Y-96817088D01*
X145712088Y-96422207D01*
X146022344Y-95957876D01*
X146236052Y-95441939D01*
X146345000Y-94894223D01*
X146345000Y-94335777D01*
X146236052Y-93788061D01*
X146022344Y-93272124D01*
X145712088Y-92807793D01*
X145317207Y-92412912D01*
X144852876Y-92102656D01*
X144336939Y-91888948D01*
X143789223Y-91780000D01*
X143230777Y-91780000D01*
X142683061Y-91888948D01*
X142175185Y-92099317D01*
X140282740Y-90206873D01*
X140376185Y-90130185D01*
X140400458Y-90100608D01*
X140488689Y-90091918D01*
X140646087Y-90044172D01*
X140791146Y-89966636D01*
X140918291Y-89862291D01*
X140944446Y-89830421D01*
X142583447Y-88191421D01*
X142615310Y-88165272D01*
X142719655Y-88038127D01*
X142797191Y-87893068D01*
X142844937Y-87735670D01*
X142857019Y-87613000D01*
X142857019Y-87612990D01*
X142861058Y-87571982D01*
X142857019Y-87530974D01*
X142857019Y-52145026D01*
X142861058Y-52104018D01*
X142857019Y-52063010D01*
X142857019Y-52063000D01*
X142844937Y-51940330D01*
X142797191Y-51782932D01*
X142719655Y-51637873D01*
X142615310Y-51510728D01*
X142583445Y-51484578D01*
X141071185Y-49972318D01*
X141100172Y-49918087D01*
X141147918Y-49760689D01*
X141164040Y-49597000D01*
X141159999Y-49555973D01*
X141160001Y-48218018D01*
X141164041Y-48176998D01*
X141147919Y-48013310D01*
X141100173Y-47855912D01*
X141022637Y-47710853D01*
X140944439Y-47615569D01*
X140944438Y-47615568D01*
X140918292Y-47583709D01*
X140886433Y-47557563D01*
X140014429Y-46685560D01*
X139988274Y-46653690D01*
X139861129Y-46549345D01*
X139716070Y-46471809D01*
X139558672Y-46424063D01*
X139436002Y-46411981D01*
X139436001Y-46411981D01*
X139394983Y-46407941D01*
X139353965Y-46411981D01*
X114673559Y-46411981D01*
X114632541Y-46407941D01*
X114591523Y-46411981D01*
X114591522Y-46411981D01*
X114468852Y-46424063D01*
X114412926Y-46441028D01*
X114311454Y-46471809D01*
X114166395Y-46549345D01*
X114097384Y-46605981D01*
X114039250Y-46653690D01*
X114013104Y-46685549D01*
X113103574Y-47595081D01*
X113071710Y-47621231D01*
X112996294Y-47713126D01*
X112967364Y-47748377D01*
X112889828Y-47893436D01*
X112842082Y-48050834D01*
X112825960Y-48214522D01*
X112830001Y-48255550D01*
X112830000Y-50313457D01*
X112825960Y-50354476D01*
X112836550Y-50462000D01*
X112842082Y-50518164D01*
X112889828Y-50675562D01*
X112967364Y-50820621D01*
X113071709Y-50947767D01*
X113103578Y-50973921D01*
X114308097Y-52178442D01*
X114334243Y-52210301D01*
X114461388Y-52314646D01*
X114606447Y-52392182D01*
X114763845Y-52439928D01*
X114886515Y-52452010D01*
X114886516Y-52452010D01*
X114927534Y-52456050D01*
X114968552Y-52452010D01*
X120168972Y-52452010D01*
X120209990Y-52456050D01*
X120251008Y-52452010D01*
X120251009Y-52452010D01*
X120373679Y-52439928D01*
X120531077Y-52392182D01*
X120676136Y-52314646D01*
X120803281Y-52210301D01*
X120829435Y-52178432D01*
X121171426Y-51836442D01*
X121203291Y-51810291D01*
X121307636Y-51683146D01*
X121385172Y-51538087D01*
X121410354Y-51455072D01*
X121510000Y-51455072D01*
X121634482Y-51442812D01*
X121754180Y-51406502D01*
X121864494Y-51347537D01*
X121961185Y-51268185D01*
X122040537Y-51171494D01*
X122099502Y-51061180D01*
X122135812Y-50941482D01*
X122148072Y-50817000D01*
X122148072Y-49997000D01*
X122135812Y-49872518D01*
X122099502Y-49752820D01*
X122048284Y-49657000D01*
X122099502Y-49561180D01*
X122135812Y-49441482D01*
X122148072Y-49317000D01*
X122148072Y-48531990D01*
X132487793Y-48531990D01*
X132490000Y-48621250D01*
X132648750Y-48780000D01*
X133898000Y-48780000D01*
X133898000Y-48760000D01*
X134130001Y-48760000D01*
X134130001Y-49054000D01*
X133898000Y-49054000D01*
X133898000Y-49034000D01*
X132648750Y-49034000D01*
X132490000Y-49192750D01*
X132486928Y-49317000D01*
X132499188Y-49441482D01*
X132535498Y-49561180D01*
X132586716Y-49657000D01*
X132535498Y-49752820D01*
X132499188Y-49872518D01*
X132486928Y-49997000D01*
X132486928Y-50817000D01*
X132499188Y-50941482D01*
X132535498Y-51061180D01*
X132594463Y-51171494D01*
X132673815Y-51268185D01*
X132770506Y-51347537D01*
X132880820Y-51406502D01*
X133000518Y-51442812D01*
X133125000Y-51455072D01*
X133370674Y-51455072D01*
X133390026Y-51491276D01*
X133432138Y-51542589D01*
X133485000Y-51607001D01*
X133513998Y-51630799D01*
X140737009Y-58853812D01*
X140737009Y-60885000D01*
X114207877Y-60885000D01*
X114173000Y-60881565D01*
X114138123Y-60885000D01*
X114033816Y-60895273D01*
X113899980Y-60935872D01*
X113776637Y-61001800D01*
X113668525Y-61090525D01*
X113579800Y-61198637D01*
X113513872Y-61321980D01*
X113473273Y-61455816D01*
X113459565Y-61595000D01*
X113463000Y-61629877D01*
X113463001Y-79340113D01*
X113459565Y-79375000D01*
X113473273Y-79514184D01*
X113513872Y-79648020D01*
X113579800Y-79771363D01*
X113668525Y-79879475D01*
X113776637Y-79968200D01*
X113899980Y-80034128D01*
X114033816Y-80074727D01*
X114138123Y-80085000D01*
X114173000Y-80088435D01*
X114207877Y-80085000D01*
X140737011Y-80085000D01*
X140737011Y-84322187D01*
X138617315Y-86441884D01*
X138612989Y-86438333D01*
X138492252Y-86373798D01*
X138361244Y-86334057D01*
X138259135Y-86324000D01*
X138259134Y-86324000D01*
X138225000Y-86320638D01*
X138190865Y-86324000D01*
X134859135Y-86324000D01*
X134825000Y-86320638D01*
X134790866Y-86324000D01*
X134790865Y-86324000D01*
X134688756Y-86334057D01*
X134557748Y-86373798D01*
X134437011Y-86438333D01*
X134331183Y-86525183D01*
X134244333Y-86631011D01*
X134179798Y-86751748D01*
X134140057Y-86882756D01*
X134126638Y-87019000D01*
X134130001Y-87053145D01*
X134130001Y-87916000D01*
X133898000Y-87916000D01*
X133898000Y-87896000D01*
X132648750Y-87896000D01*
X132490000Y-88054750D01*
X132486928Y-88179000D01*
X132499188Y-88303482D01*
X132535498Y-88423180D01*
X132586716Y-88519000D01*
X132535498Y-88614820D01*
X132499188Y-88734518D01*
X132486928Y-88859000D01*
X132486928Y-89679000D01*
X132499188Y-89803482D01*
X132535498Y-89923180D01*
X132594463Y-90033494D01*
X132673815Y-90130185D01*
X132715117Y-90164081D01*
X127234199Y-95645000D01*
X122042939Y-95645000D01*
X122040537Y-95640506D01*
X121961185Y-95543815D01*
X121864494Y-95464463D01*
X121754180Y-95405498D01*
X121634482Y-95369188D01*
X121510000Y-95356928D01*
X120438728Y-95356928D01*
X120390667Y-95267011D01*
X120303817Y-95161183D01*
X120197989Y-95074333D01*
X120077252Y-95009798D01*
X119946244Y-94970057D01*
X119844135Y-94960000D01*
X119844134Y-94960000D01*
X119810000Y-94956638D01*
X119775865Y-94960000D01*
X116444135Y-94960000D01*
X116410000Y-94956638D01*
X116375866Y-94960000D01*
X116375865Y-94960000D01*
X116273756Y-94970057D01*
X116142748Y-95009798D01*
X116022011Y-95074333D01*
X115916183Y-95161183D01*
X115829333Y-95267011D01*
X115764798Y-95387748D01*
X115725057Y-95518756D01*
X115711638Y-95655000D01*
X115715001Y-95689145D01*
X115715001Y-96552000D01*
X115483000Y-96552000D01*
X115483000Y-96532000D01*
X114233750Y-96532000D01*
X114075000Y-96690750D01*
X114071928Y-96815000D01*
X114084188Y-96939482D01*
X114120498Y-97059180D01*
X114171716Y-97155000D01*
X114140035Y-97214270D01*
X114035724Y-97270026D01*
X114035722Y-97270027D01*
X114035723Y-97270027D01*
X113948996Y-97341201D01*
X113948992Y-97341205D01*
X113919999Y-97364999D01*
X113896205Y-97393992D01*
X109343998Y-101946201D01*
X109315000Y-101969999D01*
X109291202Y-101998997D01*
X109291201Y-101998998D01*
X109220026Y-102085724D01*
X109149454Y-102217754D01*
X109105998Y-102361015D01*
X109091324Y-102510000D01*
X109095001Y-102547332D01*
X109095000Y-109655633D01*
X109028061Y-109668948D01*
X108512124Y-109882656D01*
X108047793Y-110192912D01*
X107652912Y-110587793D01*
X107342656Y-111052124D01*
X107128948Y-111568061D01*
X107020000Y-112115777D01*
X106755000Y-112115777D01*
X106755000Y-95995000D01*
X114071928Y-95995000D01*
X114075000Y-96119250D01*
X114233750Y-96278000D01*
X115483000Y-96278000D01*
X115483000Y-95518750D01*
X115324250Y-95360000D01*
X114710000Y-95356928D01*
X114585518Y-95369188D01*
X114465820Y-95405498D01*
X114355506Y-95464463D01*
X114258815Y-95543815D01*
X114179463Y-95640506D01*
X114120498Y-95750820D01*
X114084188Y-95870518D01*
X114071928Y-95995000D01*
X106755000Y-95995000D01*
X106755000Y-87359000D01*
X132486928Y-87359000D01*
X132490000Y-87483250D01*
X132648750Y-87642000D01*
X133898000Y-87642000D01*
X133898000Y-86882750D01*
X133739250Y-86724000D01*
X133125000Y-86720928D01*
X133000518Y-86733188D01*
X132880820Y-86769498D01*
X132770506Y-86828463D01*
X132673815Y-86907815D01*
X132594463Y-87004506D01*
X132535498Y-87114820D01*
X132499188Y-87234518D01*
X132486928Y-87359000D01*
X106755000Y-87359000D01*
X106755000Y-45804775D01*
X108044830Y-45804775D01*
X108284976Y-46192018D01*
X108778877Y-46452641D01*
X109314133Y-46611901D01*
X109870174Y-46663678D01*
X110425632Y-46605981D01*
X110959161Y-46441028D01*
X111425024Y-46192018D01*
X111665170Y-45804775D01*
X109855000Y-43994605D01*
X108044830Y-45804775D01*
X106755000Y-45804775D01*
X106755000Y-45116618D01*
X106826842Y-44311642D01*
X107030970Y-43565474D01*
X107006322Y-43830174D01*
X107064019Y-44385632D01*
X107228972Y-44919161D01*
X107477982Y-45385024D01*
X107865225Y-45625170D01*
X109675395Y-43815000D01*
X110034605Y-43815000D01*
X111844775Y-45625170D01*
X112232018Y-45385024D01*
X112492641Y-44891123D01*
X112651901Y-44355867D01*
X112703678Y-43799826D01*
X112645981Y-43244368D01*
X112481028Y-42710839D01*
X112232018Y-42244976D01*
X111844775Y-42004830D01*
X110034605Y-43815000D01*
X109675395Y-43815000D01*
X109661253Y-43800858D01*
X109840858Y-43621253D01*
X109855000Y-43635395D01*
X111665170Y-41825225D01*
X111425024Y-41437982D01*
X110931123Y-41177359D01*
X110395867Y-41018099D01*
X109839826Y-40966322D01*
X109637773Y-40987310D01*
X109732044Y-40945927D01*
X110492493Y-40763360D01*
X111116139Y-40717562D01*
X111125000Y-40718435D01*
X111264183Y-40704727D01*
X111398019Y-40664128D01*
X111521362Y-40598200D01*
X111629474Y-40509475D01*
X111718200Y-40401363D01*
X111784128Y-40278020D01*
X111824727Y-40144184D01*
X111825927Y-40132000D01*
X112964073Y-40132000D01*
X112965273Y-40144184D01*
G36*
X134437011Y-90599667D02*
G01*
X134557748Y-90664202D01*
X134688756Y-90703943D01*
X134825000Y-90717362D01*
X134859134Y-90714000D01*
X138190866Y-90714000D01*
X138225000Y-90717362D01*
X138361244Y-90703943D01*
X138404950Y-90690685D01*
X138431709Y-90723291D01*
X138463579Y-90749446D01*
X140994317Y-93280185D01*
X140783948Y-93788061D01*
X140675000Y-94335777D01*
X140675000Y-94894223D01*
X140783948Y-95441939D01*
X140994317Y-95949815D01*
X139874133Y-97070000D01*
X127917102Y-97070000D01*
X127973276Y-97039974D01*
X128089001Y-96945001D01*
X128112804Y-96915997D01*
X134432685Y-90596117D01*
X134437011Y-90599667D01*
G37*
X134437011Y-90599667D02*
X134557748Y-90664202D01*
X134688756Y-90703943D01*
X134825000Y-90717362D01*
X134859134Y-90714000D01*
X138190866Y-90714000D01*
X138225000Y-90717362D01*
X138361244Y-90703943D01*
X138404950Y-90690685D01*
X138431709Y-90723291D01*
X138463579Y-90749446D01*
X140994317Y-93280185D01*
X140783948Y-93788061D01*
X140675000Y-94335777D01*
X140675000Y-94894223D01*
X140783948Y-95441939D01*
X140994317Y-95949815D01*
X139874133Y-97070000D01*
X127917102Y-97070000D01*
X127973276Y-97039974D01*
X128089001Y-96945001D01*
X128112804Y-96915997D01*
X134432685Y-90596117D01*
X134437011Y-90599667D01*
G36*
X141187020Y-52449888D02*
G01*
X141187020Y-57154217D01*
X135884801Y-51852000D01*
X138190866Y-51852000D01*
X138225000Y-51855362D01*
X138361244Y-51841943D01*
X138492252Y-51802202D01*
X138612989Y-51737667D01*
X138718817Y-51650817D01*
X138805667Y-51544989D01*
X138853728Y-51455072D01*
X139925000Y-51455072D01*
X140049482Y-51442812D01*
X140149580Y-51412448D01*
X141187020Y-52449888D01*
G37*
X141187020Y-52449888D02*
X141187020Y-57154217D01*
X135884801Y-51852000D01*
X138190866Y-51852000D01*
X138225000Y-51855362D01*
X138361244Y-51841943D01*
X138492252Y-51802202D01*
X138612989Y-51737667D01*
X138718817Y-51650817D01*
X138805667Y-51544989D01*
X138853728Y-51455072D01*
X139925000Y-51455072D01*
X140049482Y-51442812D01*
X140149580Y-51412448D01*
X141187020Y-52449888D01*
G36*
X115715001Y-49054000D02*
G01*
X115483000Y-49054000D01*
X115483000Y-49034000D01*
X115463000Y-49034000D01*
X115463000Y-48780000D01*
X115483000Y-48780000D01*
X115483000Y-48760000D01*
X115715001Y-48760000D01*
X115715001Y-49054000D01*
G37*
X115715001Y-49054000D02*
X115483000Y-49054000D01*
X115483000Y-49034000D01*
X115463000Y-49034000D01*
X115463000Y-48780000D01*
X115483000Y-48780000D01*
X115483000Y-48760000D01*
X115715001Y-48760000D01*
X115715001Y-49054000D01*
G36*
X156780273Y-40144184D02*
G01*
X156820872Y-40278020D01*
X156886800Y-40401363D01*
X156975525Y-40509475D01*
X157083637Y-40598200D01*
X157206980Y-40664128D01*
X157340816Y-40704727D01*
X157445123Y-40715000D01*
X157480000Y-40718435D01*
X157514877Y-40715000D01*
X183480123Y-40715000D01*
X183515000Y-40718435D01*
X183549877Y-40715000D01*
X183654184Y-40704727D01*
X183788020Y-40664128D01*
X183911363Y-40598200D01*
X184019475Y-40509475D01*
X184108200Y-40401363D01*
X184174128Y-40278020D01*
X184214727Y-40144184D01*
X184215927Y-40132000D01*
X185354074Y-40132000D01*
X185355274Y-40144184D01*
X185395873Y-40278020D01*
X185461801Y-40401363D01*
X185550526Y-40509475D01*
X185658638Y-40598200D01*
X185781981Y-40664128D01*
X185915817Y-40704727D01*
X186055000Y-40718435D01*
X186058266Y-40718113D01*
X186828358Y-40786842D01*
X187577277Y-40991723D01*
X188278072Y-41325986D01*
X188908605Y-41779069D01*
X189448934Y-42336645D01*
X189881989Y-42981099D01*
X190194073Y-43692044D01*
X190376640Y-44452493D01*
X190425001Y-45111044D01*
X190425000Y-96112423D01*
X153227854Y-117834551D01*
X152883992Y-117966307D01*
X152532664Y-118026772D01*
X152176289Y-118017844D01*
X151828433Y-117939867D01*
X151502348Y-117795808D01*
X151210451Y-117591154D01*
X150963870Y-117333708D01*
X150771986Y-117033264D01*
X150642114Y-116701275D01*
X150575547Y-116330011D01*
X150570000Y-116190847D01*
X150570000Y-112115777D01*
X150835000Y-112115777D01*
X150835000Y-112674223D01*
X150943948Y-113221939D01*
X151157656Y-113737876D01*
X151467912Y-114202207D01*
X151862793Y-114597088D01*
X152327124Y-114907344D01*
X152843061Y-115121052D01*
X153390777Y-115230000D01*
X153949223Y-115230000D01*
X154496939Y-115121052D01*
X155012876Y-114907344D01*
X155477207Y-114597088D01*
X155872088Y-114202207D01*
X156182344Y-113737876D01*
X156396052Y-113221939D01*
X156505000Y-112674223D01*
X156505000Y-112115777D01*
X156396052Y-111568061D01*
X156182344Y-111052124D01*
X155872088Y-110587793D01*
X155477207Y-110192912D01*
X155012876Y-109882656D01*
X154496939Y-109668948D01*
X154430000Y-109655633D01*
X154430000Y-102824801D01*
X158334130Y-98920673D01*
X158400518Y-98940812D01*
X158525000Y-98953072D01*
X159596272Y-98953072D01*
X159644333Y-99042989D01*
X159731183Y-99148817D01*
X159837011Y-99235667D01*
X159957748Y-99300202D01*
X160088756Y-99339943D01*
X160225000Y-99353362D01*
X160259134Y-99350000D01*
X163590866Y-99350000D01*
X163625000Y-99353362D01*
X163761244Y-99339943D01*
X163892252Y-99300202D01*
X164012989Y-99235667D01*
X164118817Y-99148817D01*
X164205667Y-99042989D01*
X164253728Y-98953072D01*
X165325000Y-98953072D01*
X165449482Y-98940812D01*
X165569180Y-98904502D01*
X165679494Y-98845537D01*
X165776185Y-98766185D01*
X165797674Y-98740000D01*
X183993982Y-98740000D01*
X184035000Y-98744040D01*
X184076018Y-98740000D01*
X184076019Y-98740000D01*
X184198689Y-98727918D01*
X184356087Y-98680172D01*
X184501146Y-98602636D01*
X184628291Y-98498291D01*
X184654446Y-98466421D01*
X185990185Y-97130683D01*
X186498061Y-97341052D01*
X187045777Y-97450000D01*
X187604223Y-97450000D01*
X188151939Y-97341052D01*
X188667876Y-97127344D01*
X189132207Y-96817088D01*
X189527088Y-96422207D01*
X189837344Y-95957876D01*
X190051052Y-95441939D01*
X190160000Y-94894223D01*
X190160000Y-94335777D01*
X190051052Y-93788061D01*
X189837344Y-93272124D01*
X189527088Y-92807793D01*
X189132207Y-92412912D01*
X188667876Y-92102656D01*
X188151939Y-91888948D01*
X187604223Y-91780000D01*
X187045777Y-91780000D01*
X186498061Y-91888948D01*
X185990185Y-92099317D01*
X184097740Y-90206873D01*
X184191185Y-90130185D01*
X184215458Y-90100608D01*
X184303689Y-90091918D01*
X184461087Y-90044172D01*
X184606146Y-89966636D01*
X184733291Y-89862291D01*
X184759446Y-89830421D01*
X186398447Y-88191421D01*
X186430310Y-88165272D01*
X186534655Y-88038127D01*
X186612191Y-87893068D01*
X186659937Y-87735670D01*
X186672019Y-87613000D01*
X186672019Y-87612990D01*
X186676058Y-87571982D01*
X186672019Y-87530974D01*
X186672019Y-52145026D01*
X186676058Y-52104018D01*
X186672019Y-52063010D01*
X186672019Y-52063000D01*
X186659937Y-51940330D01*
X186612191Y-51782932D01*
X186534655Y-51637873D01*
X186430310Y-51510728D01*
X186398445Y-51484578D01*
X184886185Y-49972318D01*
X184915172Y-49918087D01*
X184962918Y-49760689D01*
X184979040Y-49597000D01*
X184974999Y-49555973D01*
X184975001Y-48218018D01*
X184979041Y-48176998D01*
X184962919Y-48013310D01*
X184915173Y-47855912D01*
X184837637Y-47710853D01*
X184759439Y-47615569D01*
X184759438Y-47615568D01*
X184733292Y-47583709D01*
X184701433Y-47557563D01*
X183829429Y-46685560D01*
X183803274Y-46653690D01*
X183676129Y-46549345D01*
X183531070Y-46471809D01*
X183373672Y-46424063D01*
X183251002Y-46411981D01*
X183251001Y-46411981D01*
X183209983Y-46407941D01*
X183168965Y-46411981D01*
X158488559Y-46411981D01*
X158447541Y-46407941D01*
X158406523Y-46411981D01*
X158406522Y-46411981D01*
X158283852Y-46424063D01*
X158227926Y-46441028D01*
X158126454Y-46471809D01*
X157981395Y-46549345D01*
X157912384Y-46605981D01*
X157854250Y-46653690D01*
X157828104Y-46685549D01*
X156918574Y-47595081D01*
X156886710Y-47621231D01*
X156811294Y-47713126D01*
X156782364Y-47748377D01*
X156704828Y-47893436D01*
X156657082Y-48050834D01*
X156640960Y-48214522D01*
X156645001Y-48255550D01*
X156645000Y-50313457D01*
X156640960Y-50354476D01*
X156651550Y-50462000D01*
X156657082Y-50518164D01*
X156704828Y-50675562D01*
X156782364Y-50820621D01*
X156886709Y-50947767D01*
X156918578Y-50973921D01*
X158123097Y-52178442D01*
X158149243Y-52210301D01*
X158276388Y-52314646D01*
X158421447Y-52392182D01*
X158578845Y-52439928D01*
X158701515Y-52452010D01*
X158701516Y-52452010D01*
X158742534Y-52456050D01*
X158783552Y-52452010D01*
X163983972Y-52452010D01*
X164024990Y-52456050D01*
X164066008Y-52452010D01*
X164066009Y-52452010D01*
X164188679Y-52439928D01*
X164346077Y-52392182D01*
X164491136Y-52314646D01*
X164618281Y-52210301D01*
X164644435Y-52178432D01*
X164986426Y-51836442D01*
X165018291Y-51810291D01*
X165122636Y-51683146D01*
X165200172Y-51538087D01*
X165225354Y-51455072D01*
X165325000Y-51455072D01*
X165449482Y-51442812D01*
X165569180Y-51406502D01*
X165679494Y-51347537D01*
X165776185Y-51268185D01*
X165855537Y-51171494D01*
X165914502Y-51061180D01*
X165950812Y-50941482D01*
X165963072Y-50817000D01*
X165963072Y-49997000D01*
X165950812Y-49872518D01*
X165914502Y-49752820D01*
X165863284Y-49657000D01*
X165914502Y-49561180D01*
X165950812Y-49441482D01*
X165963072Y-49317000D01*
X165963072Y-48531990D01*
X176302793Y-48531990D01*
X176305000Y-48621250D01*
X176463750Y-48780000D01*
X177713000Y-48780000D01*
X177713000Y-48760000D01*
X177945001Y-48760000D01*
X177945001Y-49054000D01*
X177713000Y-49054000D01*
X177713000Y-49034000D01*
X176463750Y-49034000D01*
X176305000Y-49192750D01*
X176301928Y-49317000D01*
X176314188Y-49441482D01*
X176350498Y-49561180D01*
X176401716Y-49657000D01*
X176350498Y-49752820D01*
X176314188Y-49872518D01*
X176301928Y-49997000D01*
X176301928Y-50817000D01*
X176314188Y-50941482D01*
X176350498Y-51061180D01*
X176409463Y-51171494D01*
X176488815Y-51268185D01*
X176585506Y-51347537D01*
X176695820Y-51406502D01*
X176815518Y-51442812D01*
X176940000Y-51455072D01*
X177185674Y-51455072D01*
X177205026Y-51491276D01*
X177247138Y-51542589D01*
X177300000Y-51607001D01*
X177328998Y-51630799D01*
X184552009Y-58853812D01*
X184552009Y-60885000D01*
X158022877Y-60885000D01*
X157988000Y-60881565D01*
X157953123Y-60885000D01*
X157848816Y-60895273D01*
X157714980Y-60935872D01*
X157591637Y-61001800D01*
X157483525Y-61090525D01*
X157394800Y-61198637D01*
X157328872Y-61321980D01*
X157288273Y-61455816D01*
X157274565Y-61595000D01*
X157278000Y-61629877D01*
X157278001Y-79340113D01*
X157274565Y-79375000D01*
X157288273Y-79514184D01*
X157328872Y-79648020D01*
X157394800Y-79771363D01*
X157483525Y-79879475D01*
X157591637Y-79968200D01*
X157714980Y-80034128D01*
X157848816Y-80074727D01*
X157953123Y-80085000D01*
X157988000Y-80088435D01*
X158022877Y-80085000D01*
X184552011Y-80085000D01*
X184552011Y-84322187D01*
X182432315Y-86441884D01*
X182427989Y-86438333D01*
X182307252Y-86373798D01*
X182176244Y-86334057D01*
X182074135Y-86324000D01*
X182074134Y-86324000D01*
X182040000Y-86320638D01*
X182005865Y-86324000D01*
X178674135Y-86324000D01*
X178640000Y-86320638D01*
X178605866Y-86324000D01*
X178605865Y-86324000D01*
X178503756Y-86334057D01*
X178372748Y-86373798D01*
X178252011Y-86438333D01*
X178146183Y-86525183D01*
X178059333Y-86631011D01*
X177994798Y-86751748D01*
X177955057Y-86882756D01*
X177941638Y-87019000D01*
X177945001Y-87053145D01*
X177945001Y-87916000D01*
X177713000Y-87916000D01*
X177713000Y-87896000D01*
X176463750Y-87896000D01*
X176305000Y-88054750D01*
X176301928Y-88179000D01*
X176314188Y-88303482D01*
X176350498Y-88423180D01*
X176401716Y-88519000D01*
X176350498Y-88614820D01*
X176314188Y-88734518D01*
X176301928Y-88859000D01*
X176301928Y-89679000D01*
X176314188Y-89803482D01*
X176350498Y-89923180D01*
X176409463Y-90033494D01*
X176488815Y-90130185D01*
X176530117Y-90164081D01*
X171049199Y-95645000D01*
X165857939Y-95645000D01*
X165855537Y-95640506D01*
X165776185Y-95543815D01*
X165679494Y-95464463D01*
X165569180Y-95405498D01*
X165449482Y-95369188D01*
X165325000Y-95356928D01*
X164253728Y-95356928D01*
X164205667Y-95267011D01*
X164118817Y-95161183D01*
X164012989Y-95074333D01*
X163892252Y-95009798D01*
X163761244Y-94970057D01*
X163659135Y-94960000D01*
X163659134Y-94960000D01*
X163625000Y-94956638D01*
X163590865Y-94960000D01*
X160259135Y-94960000D01*
X160225000Y-94956638D01*
X160190866Y-94960000D01*
X160190865Y-94960000D01*
X160088756Y-94970057D01*
X159957748Y-95009798D01*
X159837011Y-95074333D01*
X159731183Y-95161183D01*
X159644333Y-95267011D01*
X159579798Y-95387748D01*
X159540057Y-95518756D01*
X159526638Y-95655000D01*
X159530001Y-95689145D01*
X159530001Y-96552000D01*
X159298000Y-96552000D01*
X159298000Y-96532000D01*
X158048750Y-96532000D01*
X157890000Y-96690750D01*
X157886928Y-96815000D01*
X157899188Y-96939482D01*
X157935498Y-97059180D01*
X157986716Y-97155000D01*
X157955035Y-97214270D01*
X157850724Y-97270026D01*
X157850722Y-97270027D01*
X157850723Y-97270027D01*
X157763996Y-97341201D01*
X157763992Y-97341205D01*
X157734999Y-97364999D01*
X157711205Y-97393992D01*
X153158998Y-101946201D01*
X153130000Y-101969999D01*
X153106202Y-101998997D01*
X153106201Y-101998998D01*
X153035026Y-102085724D01*
X152964454Y-102217754D01*
X152920998Y-102361015D01*
X152906324Y-102510000D01*
X152910001Y-102547332D01*
X152910000Y-109655633D01*
X152843061Y-109668948D01*
X152327124Y-109882656D01*
X151862793Y-110192912D01*
X151467912Y-110587793D01*
X151157656Y-111052124D01*
X150943948Y-111568061D01*
X150835000Y-112115777D01*
X150570000Y-112115777D01*
X150570000Y-95995000D01*
X157886928Y-95995000D01*
X157890000Y-96119250D01*
X158048750Y-96278000D01*
X159298000Y-96278000D01*
X159298000Y-95518750D01*
X159139250Y-95360000D01*
X158525000Y-95356928D01*
X158400518Y-95369188D01*
X158280820Y-95405498D01*
X158170506Y-95464463D01*
X158073815Y-95543815D01*
X157994463Y-95640506D01*
X157935498Y-95750820D01*
X157899188Y-95870518D01*
X157886928Y-95995000D01*
X150570000Y-95995000D01*
X150570000Y-87359000D01*
X176301928Y-87359000D01*
X176305000Y-87483250D01*
X176463750Y-87642000D01*
X177713000Y-87642000D01*
X177713000Y-86882750D01*
X177554250Y-86724000D01*
X176940000Y-86720928D01*
X176815518Y-86733188D01*
X176695820Y-86769498D01*
X176585506Y-86828463D01*
X176488815Y-86907815D01*
X176409463Y-87004506D01*
X176350498Y-87114820D01*
X176314188Y-87234518D01*
X176301928Y-87359000D01*
X150570000Y-87359000D01*
X150570000Y-45804775D01*
X151859830Y-45804775D01*
X152099976Y-46192018D01*
X152593877Y-46452641D01*
X153129133Y-46611901D01*
X153685174Y-46663678D01*
X154240632Y-46605981D01*
X154774161Y-46441028D01*
X155240024Y-46192018D01*
X155480170Y-45804775D01*
X153670000Y-43994605D01*
X151859830Y-45804775D01*
X150570000Y-45804775D01*
X150570000Y-45116618D01*
X150641842Y-44311642D01*
X150845970Y-43565474D01*
X150821322Y-43830174D01*
X150879019Y-44385632D01*
X151043972Y-44919161D01*
X151292982Y-45385024D01*
X151680225Y-45625170D01*
X153490395Y-43815000D01*
X153849605Y-43815000D01*
X155659775Y-45625170D01*
X156047018Y-45385024D01*
X156307641Y-44891123D01*
X156466901Y-44355867D01*
X156518678Y-43799826D01*
X156460981Y-43244368D01*
X156296028Y-42710839D01*
X156047018Y-42244976D01*
X155659775Y-42004830D01*
X153849605Y-43815000D01*
X153490395Y-43815000D01*
X153476253Y-43800858D01*
X153655858Y-43621253D01*
X153670000Y-43635395D01*
X155480170Y-41825225D01*
X155240024Y-41437982D01*
X154746123Y-41177359D01*
X154210867Y-41018099D01*
X153654826Y-40966322D01*
X153452773Y-40987310D01*
X153547044Y-40945927D01*
X154307493Y-40763360D01*
X154931139Y-40717562D01*
X154940000Y-40718435D01*
X155079183Y-40704727D01*
X155213019Y-40664128D01*
X155336362Y-40598200D01*
X155444474Y-40509475D01*
X155533200Y-40401363D01*
X155599128Y-40278020D01*
X155639727Y-40144184D01*
X155640927Y-40132000D01*
X156779073Y-40132000D01*
X156780273Y-40144184D01*
G37*
X156780273Y-40144184D02*
X156820872Y-40278020D01*
X156886800Y-40401363D01*
X156975525Y-40509475D01*
X157083637Y-40598200D01*
X157206980Y-40664128D01*
X157340816Y-40704727D01*
X157445123Y-40715000D01*
X157480000Y-40718435D01*
X157514877Y-40715000D01*
X183480123Y-40715000D01*
X183515000Y-40718435D01*
X183549877Y-40715000D01*
X183654184Y-40704727D01*
X183788020Y-40664128D01*
X183911363Y-40598200D01*
X184019475Y-40509475D01*
X184108200Y-40401363D01*
X184174128Y-40278020D01*
X184214727Y-40144184D01*
X184215927Y-40132000D01*
X185354074Y-40132000D01*
X185355274Y-40144184D01*
X185395873Y-40278020D01*
X185461801Y-40401363D01*
X185550526Y-40509475D01*
X185658638Y-40598200D01*
X185781981Y-40664128D01*
X185915817Y-40704727D01*
X186055000Y-40718435D01*
X186058266Y-40718113D01*
X186828358Y-40786842D01*
X187577277Y-40991723D01*
X188278072Y-41325986D01*
X188908605Y-41779069D01*
X189448934Y-42336645D01*
X189881989Y-42981099D01*
X190194073Y-43692044D01*
X190376640Y-44452493D01*
X190425001Y-45111044D01*
X190425000Y-96112423D01*
X153227854Y-117834551D01*
X152883992Y-117966307D01*
X152532664Y-118026772D01*
X152176289Y-118017844D01*
X151828433Y-117939867D01*
X151502348Y-117795808D01*
X151210451Y-117591154D01*
X150963870Y-117333708D01*
X150771986Y-117033264D01*
X150642114Y-116701275D01*
X150575547Y-116330011D01*
X150570000Y-116190847D01*
X150570000Y-112115777D01*
X150835000Y-112115777D01*
X150835000Y-112674223D01*
X150943948Y-113221939D01*
X151157656Y-113737876D01*
X151467912Y-114202207D01*
X151862793Y-114597088D01*
X152327124Y-114907344D01*
X152843061Y-115121052D01*
X153390777Y-115230000D01*
X153949223Y-115230000D01*
X154496939Y-115121052D01*
X155012876Y-114907344D01*
X155477207Y-114597088D01*
X155872088Y-114202207D01*
X156182344Y-113737876D01*
X156396052Y-113221939D01*
X156505000Y-112674223D01*
X156505000Y-112115777D01*
X156396052Y-111568061D01*
X156182344Y-111052124D01*
X155872088Y-110587793D01*
X155477207Y-110192912D01*
X155012876Y-109882656D01*
X154496939Y-109668948D01*
X154430000Y-109655633D01*
X154430000Y-102824801D01*
X158334130Y-98920673D01*
X158400518Y-98940812D01*
X158525000Y-98953072D01*
X159596272Y-98953072D01*
X159644333Y-99042989D01*
X159731183Y-99148817D01*
X159837011Y-99235667D01*
X159957748Y-99300202D01*
X160088756Y-99339943D01*
X160225000Y-99353362D01*
X160259134Y-99350000D01*
X163590866Y-99350000D01*
X163625000Y-99353362D01*
X163761244Y-99339943D01*
X163892252Y-99300202D01*
X164012989Y-99235667D01*
X164118817Y-99148817D01*
X164205667Y-99042989D01*
X164253728Y-98953072D01*
X165325000Y-98953072D01*
X165449482Y-98940812D01*
X165569180Y-98904502D01*
X165679494Y-98845537D01*
X165776185Y-98766185D01*
X165797674Y-98740000D01*
X183993982Y-98740000D01*
X184035000Y-98744040D01*
X184076018Y-98740000D01*
X184076019Y-98740000D01*
X184198689Y-98727918D01*
X184356087Y-98680172D01*
X184501146Y-98602636D01*
X184628291Y-98498291D01*
X184654446Y-98466421D01*
X185990185Y-97130683D01*
X186498061Y-97341052D01*
X187045777Y-97450000D01*
X187604223Y-97450000D01*
X188151939Y-97341052D01*
X188667876Y-97127344D01*
X189132207Y-96817088D01*
X189527088Y-96422207D01*
X189837344Y-95957876D01*
X190051052Y-95441939D01*
X190160000Y-94894223D01*
X190160000Y-94335777D01*
X190051052Y-93788061D01*
X189837344Y-93272124D01*
X189527088Y-92807793D01*
X189132207Y-92412912D01*
X188667876Y-92102656D01*
X188151939Y-91888948D01*
X187604223Y-91780000D01*
X187045777Y-91780000D01*
X186498061Y-91888948D01*
X185990185Y-92099317D01*
X184097740Y-90206873D01*
X184191185Y-90130185D01*
X184215458Y-90100608D01*
X184303689Y-90091918D01*
X184461087Y-90044172D01*
X184606146Y-89966636D01*
X184733291Y-89862291D01*
X184759446Y-89830421D01*
X186398447Y-88191421D01*
X186430310Y-88165272D01*
X186534655Y-88038127D01*
X186612191Y-87893068D01*
X186659937Y-87735670D01*
X186672019Y-87613000D01*
X186672019Y-87612990D01*
X186676058Y-87571982D01*
X186672019Y-87530974D01*
X186672019Y-52145026D01*
X186676058Y-52104018D01*
X186672019Y-52063010D01*
X186672019Y-52063000D01*
X186659937Y-51940330D01*
X186612191Y-51782932D01*
X186534655Y-51637873D01*
X186430310Y-51510728D01*
X186398445Y-51484578D01*
X184886185Y-49972318D01*
X184915172Y-49918087D01*
X184962918Y-49760689D01*
X184979040Y-49597000D01*
X184974999Y-49555973D01*
X184975001Y-48218018D01*
X184979041Y-48176998D01*
X184962919Y-48013310D01*
X184915173Y-47855912D01*
X184837637Y-47710853D01*
X184759439Y-47615569D01*
X184759438Y-47615568D01*
X184733292Y-47583709D01*
X184701433Y-47557563D01*
X183829429Y-46685560D01*
X183803274Y-46653690D01*
X183676129Y-46549345D01*
X183531070Y-46471809D01*
X183373672Y-46424063D01*
X183251002Y-46411981D01*
X183251001Y-46411981D01*
X183209983Y-46407941D01*
X183168965Y-46411981D01*
X158488559Y-46411981D01*
X158447541Y-46407941D01*
X158406523Y-46411981D01*
X158406522Y-46411981D01*
X158283852Y-46424063D01*
X158227926Y-46441028D01*
X158126454Y-46471809D01*
X157981395Y-46549345D01*
X157912384Y-46605981D01*
X157854250Y-46653690D01*
X157828104Y-46685549D01*
X156918574Y-47595081D01*
X156886710Y-47621231D01*
X156811294Y-47713126D01*
X156782364Y-47748377D01*
X156704828Y-47893436D01*
X156657082Y-48050834D01*
X156640960Y-48214522D01*
X156645001Y-48255550D01*
X156645000Y-50313457D01*
X156640960Y-50354476D01*
X156651550Y-50462000D01*
X156657082Y-50518164D01*
X156704828Y-50675562D01*
X156782364Y-50820621D01*
X156886709Y-50947767D01*
X156918578Y-50973921D01*
X158123097Y-52178442D01*
X158149243Y-52210301D01*
X158276388Y-52314646D01*
X158421447Y-52392182D01*
X158578845Y-52439928D01*
X158701515Y-52452010D01*
X158701516Y-52452010D01*
X158742534Y-52456050D01*
X158783552Y-52452010D01*
X163983972Y-52452010D01*
X164024990Y-52456050D01*
X164066008Y-52452010D01*
X164066009Y-52452010D01*
X164188679Y-52439928D01*
X164346077Y-52392182D01*
X164491136Y-52314646D01*
X164618281Y-52210301D01*
X164644435Y-52178432D01*
X164986426Y-51836442D01*
X165018291Y-51810291D01*
X165122636Y-51683146D01*
X165200172Y-51538087D01*
X165225354Y-51455072D01*
X165325000Y-51455072D01*
X165449482Y-51442812D01*
X165569180Y-51406502D01*
X165679494Y-51347537D01*
X165776185Y-51268185D01*
X165855537Y-51171494D01*
X165914502Y-51061180D01*
X165950812Y-50941482D01*
X165963072Y-50817000D01*
X165963072Y-49997000D01*
X165950812Y-49872518D01*
X165914502Y-49752820D01*
X165863284Y-49657000D01*
X165914502Y-49561180D01*
X165950812Y-49441482D01*
X165963072Y-49317000D01*
X165963072Y-48531990D01*
X176302793Y-48531990D01*
X176305000Y-48621250D01*
X176463750Y-48780000D01*
X177713000Y-48780000D01*
X177713000Y-48760000D01*
X177945001Y-48760000D01*
X177945001Y-49054000D01*
X177713000Y-49054000D01*
X177713000Y-49034000D01*
X176463750Y-49034000D01*
X176305000Y-49192750D01*
X176301928Y-49317000D01*
X176314188Y-49441482D01*
X176350498Y-49561180D01*
X176401716Y-49657000D01*
X176350498Y-49752820D01*
X176314188Y-49872518D01*
X176301928Y-49997000D01*
X176301928Y-50817000D01*
X176314188Y-50941482D01*
X176350498Y-51061180D01*
X176409463Y-51171494D01*
X176488815Y-51268185D01*
X176585506Y-51347537D01*
X176695820Y-51406502D01*
X176815518Y-51442812D01*
X176940000Y-51455072D01*
X177185674Y-51455072D01*
X177205026Y-51491276D01*
X177247138Y-51542589D01*
X177300000Y-51607001D01*
X177328998Y-51630799D01*
X184552009Y-58853812D01*
X184552009Y-60885000D01*
X158022877Y-60885000D01*
X157988000Y-60881565D01*
X157953123Y-60885000D01*
X157848816Y-60895273D01*
X157714980Y-60935872D01*
X157591637Y-61001800D01*
X157483525Y-61090525D01*
X157394800Y-61198637D01*
X157328872Y-61321980D01*
X157288273Y-61455816D01*
X157274565Y-61595000D01*
X157278000Y-61629877D01*
X157278001Y-79340113D01*
X157274565Y-79375000D01*
X157288273Y-79514184D01*
X157328872Y-79648020D01*
X157394800Y-79771363D01*
X157483525Y-79879475D01*
X157591637Y-79968200D01*
X157714980Y-80034128D01*
X157848816Y-80074727D01*
X157953123Y-80085000D01*
X157988000Y-80088435D01*
X158022877Y-80085000D01*
X184552011Y-80085000D01*
X184552011Y-84322187D01*
X182432315Y-86441884D01*
X182427989Y-86438333D01*
X182307252Y-86373798D01*
X182176244Y-86334057D01*
X182074135Y-86324000D01*
X182074134Y-86324000D01*
X182040000Y-86320638D01*
X182005865Y-86324000D01*
X178674135Y-86324000D01*
X178640000Y-86320638D01*
X178605866Y-86324000D01*
X178605865Y-86324000D01*
X178503756Y-86334057D01*
X178372748Y-86373798D01*
X178252011Y-86438333D01*
X178146183Y-86525183D01*
X178059333Y-86631011D01*
X177994798Y-86751748D01*
X177955057Y-86882756D01*
X177941638Y-87019000D01*
X177945001Y-87053145D01*
X177945001Y-87916000D01*
X177713000Y-87916000D01*
X177713000Y-87896000D01*
X176463750Y-87896000D01*
X176305000Y-88054750D01*
X176301928Y-88179000D01*
X176314188Y-88303482D01*
X176350498Y-88423180D01*
X176401716Y-88519000D01*
X176350498Y-88614820D01*
X176314188Y-88734518D01*
X176301928Y-88859000D01*
X176301928Y-89679000D01*
X176314188Y-89803482D01*
X176350498Y-89923180D01*
X176409463Y-90033494D01*
X176488815Y-90130185D01*
X176530117Y-90164081D01*
X171049199Y-95645000D01*
X165857939Y-95645000D01*
X165855537Y-95640506D01*
X165776185Y-95543815D01*
X165679494Y-95464463D01*
X165569180Y-95405498D01*
X165449482Y-95369188D01*
X165325000Y-95356928D01*
X164253728Y-95356928D01*
X164205667Y-95267011D01*
X164118817Y-95161183D01*
X164012989Y-95074333D01*
X163892252Y-95009798D01*
X163761244Y-94970057D01*
X163659135Y-94960000D01*
X163659134Y-94960000D01*
X163625000Y-94956638D01*
X163590865Y-94960000D01*
X160259135Y-94960000D01*
X160225000Y-94956638D01*
X160190866Y-94960000D01*
X160190865Y-94960000D01*
X160088756Y-94970057D01*
X159957748Y-95009798D01*
X159837011Y-95074333D01*
X159731183Y-95161183D01*
X159644333Y-95267011D01*
X159579798Y-95387748D01*
X159540057Y-95518756D01*
X159526638Y-95655000D01*
X159530001Y-95689145D01*
X159530001Y-96552000D01*
X159298000Y-96552000D01*
X159298000Y-96532000D01*
X158048750Y-96532000D01*
X157890000Y-96690750D01*
X157886928Y-96815000D01*
X157899188Y-96939482D01*
X157935498Y-97059180D01*
X157986716Y-97155000D01*
X157955035Y-97214270D01*
X157850724Y-97270026D01*
X157850722Y-97270027D01*
X157850723Y-97270027D01*
X157763996Y-97341201D01*
X157763992Y-97341205D01*
X157734999Y-97364999D01*
X157711205Y-97393992D01*
X153158998Y-101946201D01*
X153130000Y-101969999D01*
X153106202Y-101998997D01*
X153106201Y-101998998D01*
X153035026Y-102085724D01*
X152964454Y-102217754D01*
X152920998Y-102361015D01*
X152906324Y-102510000D01*
X152910001Y-102547332D01*
X152910000Y-109655633D01*
X152843061Y-109668948D01*
X152327124Y-109882656D01*
X151862793Y-110192912D01*
X151467912Y-110587793D01*
X151157656Y-111052124D01*
X150943948Y-111568061D01*
X150835000Y-112115777D01*
X150570000Y-112115777D01*
X150570000Y-95995000D01*
X157886928Y-95995000D01*
X157890000Y-96119250D01*
X158048750Y-96278000D01*
X159298000Y-96278000D01*
X159298000Y-95518750D01*
X159139250Y-95360000D01*
X158525000Y-95356928D01*
X158400518Y-95369188D01*
X158280820Y-95405498D01*
X158170506Y-95464463D01*
X158073815Y-95543815D01*
X157994463Y-95640506D01*
X157935498Y-95750820D01*
X157899188Y-95870518D01*
X157886928Y-95995000D01*
X150570000Y-95995000D01*
X150570000Y-87359000D01*
X176301928Y-87359000D01*
X176305000Y-87483250D01*
X176463750Y-87642000D01*
X177713000Y-87642000D01*
X177713000Y-86882750D01*
X177554250Y-86724000D01*
X176940000Y-86720928D01*
X176815518Y-86733188D01*
X176695820Y-86769498D01*
X176585506Y-86828463D01*
X176488815Y-86907815D01*
X176409463Y-87004506D01*
X176350498Y-87114820D01*
X176314188Y-87234518D01*
X176301928Y-87359000D01*
X150570000Y-87359000D01*
X150570000Y-45804775D01*
X151859830Y-45804775D01*
X152099976Y-46192018D01*
X152593877Y-46452641D01*
X153129133Y-46611901D01*
X153685174Y-46663678D01*
X154240632Y-46605981D01*
X154774161Y-46441028D01*
X155240024Y-46192018D01*
X155480170Y-45804775D01*
X153670000Y-43994605D01*
X151859830Y-45804775D01*
X150570000Y-45804775D01*
X150570000Y-45116618D01*
X150641842Y-44311642D01*
X150845970Y-43565474D01*
X150821322Y-43830174D01*
X150879019Y-44385632D01*
X151043972Y-44919161D01*
X151292982Y-45385024D01*
X151680225Y-45625170D01*
X153490395Y-43815000D01*
X153849605Y-43815000D01*
X155659775Y-45625170D01*
X156047018Y-45385024D01*
X156307641Y-44891123D01*
X156466901Y-44355867D01*
X156518678Y-43799826D01*
X156460981Y-43244368D01*
X156296028Y-42710839D01*
X156047018Y-42244976D01*
X155659775Y-42004830D01*
X153849605Y-43815000D01*
X153490395Y-43815000D01*
X153476253Y-43800858D01*
X153655858Y-43621253D01*
X153670000Y-43635395D01*
X155480170Y-41825225D01*
X155240024Y-41437982D01*
X154746123Y-41177359D01*
X154210867Y-41018099D01*
X153654826Y-40966322D01*
X153452773Y-40987310D01*
X153547044Y-40945927D01*
X154307493Y-40763360D01*
X154931139Y-40717562D01*
X154940000Y-40718435D01*
X155079183Y-40704727D01*
X155213019Y-40664128D01*
X155336362Y-40598200D01*
X155444474Y-40509475D01*
X155533200Y-40401363D01*
X155599128Y-40278020D01*
X155639727Y-40144184D01*
X155640927Y-40132000D01*
X156779073Y-40132000D01*
X156780273Y-40144184D01*
G36*
X178252011Y-90599667D02*
G01*
X178372748Y-90664202D01*
X178503756Y-90703943D01*
X178640000Y-90717362D01*
X178674134Y-90714000D01*
X182005866Y-90714000D01*
X182040000Y-90717362D01*
X182176244Y-90703943D01*
X182219950Y-90690685D01*
X182246709Y-90723291D01*
X182278579Y-90749446D01*
X184809317Y-93280185D01*
X184598948Y-93788061D01*
X184490000Y-94335777D01*
X184490000Y-94894223D01*
X184598948Y-95441939D01*
X184809317Y-95949815D01*
X183689133Y-97070000D01*
X171732102Y-97070000D01*
X171788276Y-97039974D01*
X171904001Y-96945001D01*
X171927804Y-96915997D01*
X178247685Y-90596117D01*
X178252011Y-90599667D01*
G37*
X178252011Y-90599667D02*
X178372748Y-90664202D01*
X178503756Y-90703943D01*
X178640000Y-90717362D01*
X178674134Y-90714000D01*
X182005866Y-90714000D01*
X182040000Y-90717362D01*
X182176244Y-90703943D01*
X182219950Y-90690685D01*
X182246709Y-90723291D01*
X182278579Y-90749446D01*
X184809317Y-93280185D01*
X184598948Y-93788061D01*
X184490000Y-94335777D01*
X184490000Y-94894223D01*
X184598948Y-95441939D01*
X184809317Y-95949815D01*
X183689133Y-97070000D01*
X171732102Y-97070000D01*
X171788276Y-97039974D01*
X171904001Y-96945001D01*
X171927804Y-96915997D01*
X178247685Y-90596117D01*
X178252011Y-90599667D01*
G36*
X185002020Y-52449888D02*
G01*
X185002020Y-57154217D01*
X179699801Y-51852000D01*
X182005866Y-51852000D01*
X182040000Y-51855362D01*
X182176244Y-51841943D01*
X182307252Y-51802202D01*
X182427989Y-51737667D01*
X182533817Y-51650817D01*
X182620667Y-51544989D01*
X182668728Y-51455072D01*
X183740000Y-51455072D01*
X183864482Y-51442812D01*
X183964580Y-51412448D01*
X185002020Y-52449888D01*
G37*
X185002020Y-52449888D02*
X185002020Y-57154217D01*
X179699801Y-51852000D01*
X182005866Y-51852000D01*
X182040000Y-51855362D01*
X182176244Y-51841943D01*
X182307252Y-51802202D01*
X182427989Y-51737667D01*
X182533817Y-51650817D01*
X182620667Y-51544989D01*
X182668728Y-51455072D01*
X183740000Y-51455072D01*
X183864482Y-51442812D01*
X183964580Y-51412448D01*
X185002020Y-52449888D01*
G36*
X159530001Y-49054000D02*
G01*
X159298000Y-49054000D01*
X159298000Y-49034000D01*
X159278000Y-49034000D01*
X159278000Y-48780000D01*
X159298000Y-48780000D01*
X159298000Y-48760000D01*
X159530001Y-48760000D01*
X159530001Y-49054000D01*
G37*
X159530001Y-49054000D02*
X159298000Y-49054000D01*
X159298000Y-49034000D01*
X159278000Y-49034000D01*
X159278000Y-48780000D01*
X159298000Y-48780000D01*
X159298000Y-48760000D01*
X159530001Y-48760000D01*
X159530001Y-49054000D01*
M02*
