G04 #@! TF.GenerationSoftware,KiCad,Pcbnew,5.1.5+dfsg1-2build2*
G04 #@! TF.CreationDate,2020-12-13T19:06:00+09:00*
G04 #@! TF.ProjectId,shield,73686965-6c64-42e6-9b69-6361645f7063,rev?*
G04 #@! TF.SameCoordinates,Original*
G04 #@! TF.FileFunction,Copper,L2,Bot*
G04 #@! TF.FilePolarity,Positive*
%FSLAX46Y46*%
G04 Gerber Fmt 4.6, Leading zero omitted, Abs format (unit mm)*
G04 Created by KiCad (PCBNEW 5.1.5+dfsg1-2build2) date 2020-12-13 19:06:00*
%MOMM*%
%LPD*%
G04 APERTURE LIST*
%ADD10R,1.800000X0.820000*%
%ADD11C,0.700000*%
%ADD12C,4.400000*%
%ADD13C,0.800000*%
%ADD14C,0.400000*%
%ADD15C,0.250000*%
%ADD16C,0.254000*%
G04 APERTURE END LIST*
D10*
X167600000Y-70600000D03*
X167600000Y-69100000D03*
X162600000Y-69100000D03*
X162600000Y-70600000D03*
D11*
X158011726Y-83923274D03*
X156845000Y-83440000D03*
X155678274Y-83923274D03*
X155195000Y-85090000D03*
X155678274Y-86256726D03*
X156845000Y-86740000D03*
X158011726Y-86256726D03*
X158495000Y-85090000D03*
D12*
X156845000Y-85090000D03*
X113030000Y-85090000D03*
D11*
X114680000Y-85090000D03*
X114196726Y-86256726D03*
X113030000Y-86740000D03*
X111863274Y-86256726D03*
X111380000Y-85090000D03*
X111863274Y-83923274D03*
X113030000Y-83440000D03*
X114196726Y-83923274D03*
D12*
X146685000Y-67310000D03*
D11*
X148335000Y-67310000D03*
X147851726Y-68476726D03*
X146685000Y-68960000D03*
X145518274Y-68476726D03*
X145035000Y-67310000D03*
X145518274Y-66143274D03*
X146685000Y-65660000D03*
X147851726Y-66143274D03*
D10*
X186015000Y-23102000D03*
X186015000Y-21602000D03*
X181015000Y-21602000D03*
X181015000Y-23102000D03*
D11*
X191666726Y-66143274D03*
X190500000Y-65660000D03*
X189333274Y-66143274D03*
X188850000Y-67310000D03*
X189333274Y-68476726D03*
X190500000Y-68960000D03*
X191666726Y-68476726D03*
X192150000Y-67310000D03*
D12*
X190500000Y-67310000D03*
D10*
X167600000Y-23102000D03*
X167600000Y-21602000D03*
X162600000Y-21602000D03*
X162600000Y-23102000D03*
X186015000Y-61964000D03*
X186015000Y-60464000D03*
X181015000Y-60464000D03*
X181015000Y-61964000D03*
X118785000Y-23102000D03*
X118785000Y-21602000D03*
X123785000Y-21602000D03*
X123785000Y-23102000D03*
X118785000Y-70600000D03*
X118785000Y-69100000D03*
X123785000Y-69100000D03*
X123785000Y-70600000D03*
X137200000Y-61964000D03*
X137200000Y-60464000D03*
X142200000Y-60464000D03*
X142200000Y-61964000D03*
D11*
X114196726Y-15343274D03*
X113030000Y-14860000D03*
X111863274Y-15343274D03*
X111380000Y-16510000D03*
X111863274Y-17676726D03*
X113030000Y-18160000D03*
X114196726Y-17676726D03*
X114680000Y-16510000D03*
D12*
X113030000Y-16510000D03*
X156845000Y-16510000D03*
D11*
X158495000Y-16510000D03*
X158011726Y-17676726D03*
X156845000Y-18160000D03*
X155678274Y-17676726D03*
X155195000Y-16510000D03*
X155678274Y-15343274D03*
X156845000Y-14860000D03*
X158011726Y-15343274D03*
D10*
X137200000Y-23102000D03*
X137200000Y-21602000D03*
X142200000Y-21602000D03*
X142200000Y-23102000D03*
D13*
X137160000Y-60325000D03*
X142875000Y-26035000D03*
X137160000Y-21590000D03*
X138430000Y-66675000D03*
X118745000Y-21590000D03*
X118745000Y-69215000D03*
X186690000Y-26035000D03*
X182245000Y-66675000D03*
X162560000Y-21590000D03*
X162560000Y-69215000D03*
X180975000Y-21590000D03*
X180975000Y-60325000D03*
D14*
X123785000Y-23912000D02*
X123384990Y-24312010D01*
X146685000Y-67310000D02*
X142200000Y-62825000D01*
X143500001Y-20871999D02*
X143500000Y-22292000D01*
X123785000Y-23102000D02*
X123785000Y-23912000D01*
X123384990Y-24312010D02*
X118102534Y-24312010D01*
X145197019Y-24799019D02*
X143500000Y-23102000D01*
X161622541Y-19941981D02*
X186384983Y-19941981D01*
X190500000Y-67310000D02*
X186015000Y-62825000D01*
X142569983Y-19941981D02*
X143500001Y-20871999D01*
X187210000Y-70600000D02*
X190500000Y-67310000D01*
X160655000Y-23049476D02*
X160655000Y-20909522D01*
X160655000Y-20909522D02*
X161622541Y-19941981D01*
X142200000Y-61964000D02*
X143500000Y-61964000D01*
X116840000Y-23049476D02*
X116840000Y-20909522D01*
X143395000Y-70600000D02*
X146685000Y-67310000D01*
X142200000Y-62825000D02*
X142200000Y-61964000D01*
X167600000Y-23102000D02*
X167600000Y-23912000D01*
X167600000Y-23912000D02*
X167199990Y-24312010D01*
X167199990Y-24312010D02*
X161917534Y-24312010D01*
X161917534Y-24312010D02*
X160655000Y-23049476D01*
X186015000Y-61964000D02*
X187315000Y-61964000D01*
X143500000Y-61964000D02*
X145197019Y-60266981D01*
X116840000Y-20909522D02*
X117807541Y-19941981D01*
X143500000Y-22292000D02*
X142690000Y-23102000D01*
X145197019Y-60266981D02*
X145197019Y-24799019D01*
X187315000Y-61964000D02*
X189012019Y-60266981D01*
X189012019Y-24799019D02*
X187315000Y-23102000D01*
X187315000Y-23102000D02*
X186015000Y-23102000D01*
X189012019Y-60266981D02*
X189012019Y-24799019D01*
X187315001Y-20871999D02*
X187315000Y-22292000D01*
X117807541Y-19941981D02*
X142569983Y-19941981D01*
X186505000Y-23102000D02*
X186015000Y-23102000D01*
X186384983Y-19941981D02*
X187315001Y-20871999D01*
X187315000Y-22292000D02*
X186505000Y-23102000D01*
X186015000Y-62825000D02*
X186015000Y-61964000D01*
X167600000Y-70600000D02*
X187210000Y-70600000D01*
X118102534Y-24312010D02*
X116840000Y-23049476D01*
X142690000Y-23102000D02*
X142200000Y-23102000D01*
X123785000Y-70600000D02*
X143395000Y-70600000D01*
X143500000Y-23102000D02*
X142200000Y-23102000D01*
D15*
X113030000Y-85090000D02*
X113030000Y-75205000D01*
X117635000Y-70600000D02*
X118785000Y-70600000D01*
X156845000Y-75205000D02*
X161450000Y-70600000D01*
X161450000Y-70600000D02*
X162600000Y-70600000D01*
X113030000Y-75205000D02*
X117635000Y-70600000D01*
X156845000Y-85090000D02*
X156845000Y-75205000D01*
X123785000Y-69100000D02*
X130724000Y-69100000D01*
X167600000Y-69100000D02*
X174539000Y-69100000D01*
X174539000Y-69100000D02*
X181015000Y-62624000D01*
X181015000Y-62624000D02*
X181015000Y-61964000D01*
X130724000Y-69100000D02*
X137200000Y-62624000D01*
X137200000Y-62624000D02*
X137200000Y-61964000D01*
X181015000Y-23102000D02*
X181015000Y-23762000D01*
X142200000Y-59804000D02*
X142200000Y-60464000D01*
X144672010Y-57331990D02*
X142200000Y-59804000D01*
X144672009Y-31234009D02*
X144672010Y-57331990D01*
X186015000Y-59804000D02*
X186015000Y-60464000D01*
X137200000Y-23762000D02*
X144672009Y-31234009D01*
X188487010Y-57331990D02*
X186015000Y-59804000D01*
X181015000Y-23762000D02*
X188487009Y-31234009D01*
X188487009Y-31234009D02*
X188487010Y-57331990D01*
X137200000Y-23102000D02*
X137200000Y-23762000D01*
X117635000Y-23102000D02*
X118785000Y-23102000D01*
X117559999Y-23026999D02*
X117635000Y-23102000D01*
X141724990Y-20466990D02*
X118025008Y-20466990D01*
X118025008Y-20466990D02*
X117559999Y-20931999D01*
X161374999Y-23026999D02*
X161450000Y-23102000D01*
X161450000Y-23102000D02*
X162600000Y-23102000D01*
X161840008Y-20466990D02*
X161374999Y-20931999D01*
X142200000Y-21602000D02*
X142200000Y-20942000D01*
X161374999Y-20931999D02*
X161374999Y-23026999D01*
X142200000Y-20942000D02*
X141724990Y-20466990D01*
X186015000Y-21602000D02*
X186015000Y-20942000D01*
X186015000Y-20942000D02*
X185539990Y-20466990D01*
X185539990Y-20466990D02*
X161840008Y-20466990D01*
X117559999Y-20931999D02*
X117559999Y-23026999D01*
D16*
G36*
X146188358Y-13481842D02*
G01*
X146937277Y-13686723D01*
X147638072Y-14020986D01*
X148268605Y-14474069D01*
X148808934Y-15031645D01*
X149241989Y-15676099D01*
X149554073Y-16387044D01*
X149736640Y-17147493D01*
X149782438Y-17771139D01*
X149781565Y-17780000D01*
X149795273Y-17919184D01*
X149835872Y-18053020D01*
X149901800Y-18176363D01*
X149990525Y-18284475D01*
X150098637Y-18373200D01*
X150221980Y-18439128D01*
X150355816Y-18479727D01*
X150460123Y-18490000D01*
X153069877Y-18490000D01*
X153174184Y-18479727D01*
X153308020Y-18439128D01*
X153431363Y-18373200D01*
X153539475Y-18284475D01*
X153628200Y-18176363D01*
X153694128Y-18053020D01*
X153734727Y-17919184D01*
X153748435Y-17780000D01*
X153748113Y-17776734D01*
X153816842Y-17006642D01*
X154020970Y-16260474D01*
X153996322Y-16525174D01*
X154054019Y-17080632D01*
X154218972Y-17614161D01*
X154467982Y-18080024D01*
X154855225Y-18320170D01*
X156665395Y-16510000D01*
X157024605Y-16510000D01*
X158834775Y-18320170D01*
X159222018Y-18080024D01*
X159482641Y-17586123D01*
X159641901Y-17050867D01*
X159693678Y-16494826D01*
X159635981Y-15939368D01*
X159471028Y-15405839D01*
X159222018Y-14939976D01*
X158834775Y-14699830D01*
X157024605Y-16510000D01*
X156665395Y-16510000D01*
X156651253Y-16495858D01*
X156830858Y-16316253D01*
X156845000Y-16330395D01*
X158655170Y-14520225D01*
X158415024Y-14132982D01*
X157921123Y-13872359D01*
X157385867Y-13713099D01*
X156829826Y-13661322D01*
X156627773Y-13682310D01*
X156722044Y-13640927D01*
X157482493Y-13458360D01*
X158141031Y-13410000D01*
X189198382Y-13410000D01*
X190003358Y-13481842D01*
X190752277Y-13686723D01*
X191453072Y-14020986D01*
X192083605Y-14474069D01*
X192623934Y-15031645D01*
X193056989Y-15676099D01*
X193369073Y-16387044D01*
X193551640Y-17147493D01*
X193600001Y-17806044D01*
X193600000Y-68807423D01*
X156402854Y-90529551D01*
X156058992Y-90661307D01*
X155707664Y-90721772D01*
X155351289Y-90712844D01*
X155003433Y-90634867D01*
X154677348Y-90490808D01*
X154385451Y-90286154D01*
X154138870Y-90028708D01*
X153946986Y-89728264D01*
X153817114Y-89396275D01*
X153750547Y-89025011D01*
X153745000Y-88885847D01*
X153745000Y-84810777D01*
X154010000Y-84810777D01*
X154010000Y-85369223D01*
X154118948Y-85916939D01*
X154332656Y-86432876D01*
X154642912Y-86897207D01*
X155037793Y-87292088D01*
X155502124Y-87602344D01*
X156018061Y-87816052D01*
X156565777Y-87925000D01*
X157124223Y-87925000D01*
X157671939Y-87816052D01*
X158187876Y-87602344D01*
X158652207Y-87292088D01*
X159047088Y-86897207D01*
X159357344Y-86432876D01*
X159571052Y-85916939D01*
X159680000Y-85369223D01*
X159680000Y-84810777D01*
X159571052Y-84263061D01*
X159357344Y-83747124D01*
X159047088Y-83282793D01*
X158652207Y-82887912D01*
X158187876Y-82577656D01*
X157671939Y-82363948D01*
X157605000Y-82350633D01*
X157605000Y-75519801D01*
X161509130Y-71615673D01*
X161575518Y-71635812D01*
X161700000Y-71648072D01*
X162771272Y-71648072D01*
X162819333Y-71737989D01*
X162906183Y-71843817D01*
X163012011Y-71930667D01*
X163132748Y-71995202D01*
X163263756Y-72034943D01*
X163400000Y-72048362D01*
X163434134Y-72045000D01*
X166765866Y-72045000D01*
X166800000Y-72048362D01*
X166936244Y-72034943D01*
X167067252Y-71995202D01*
X167187989Y-71930667D01*
X167293817Y-71843817D01*
X167380667Y-71737989D01*
X167428728Y-71648072D01*
X168500000Y-71648072D01*
X168624482Y-71635812D01*
X168744180Y-71599502D01*
X168854494Y-71540537D01*
X168951185Y-71461185D01*
X168972674Y-71435000D01*
X187168982Y-71435000D01*
X187210000Y-71439040D01*
X187251018Y-71435000D01*
X187251019Y-71435000D01*
X187373689Y-71422918D01*
X187531087Y-71375172D01*
X187676146Y-71297636D01*
X187803291Y-71193291D01*
X187829446Y-71161421D01*
X189165185Y-69825683D01*
X189673061Y-70036052D01*
X190220777Y-70145000D01*
X190779223Y-70145000D01*
X191326939Y-70036052D01*
X191842876Y-69822344D01*
X192307207Y-69512088D01*
X192702088Y-69117207D01*
X193012344Y-68652876D01*
X193226052Y-68136939D01*
X193335000Y-67589223D01*
X193335000Y-67030777D01*
X193226052Y-66483061D01*
X193012344Y-65967124D01*
X192702088Y-65502793D01*
X192307207Y-65107912D01*
X191842876Y-64797656D01*
X191326939Y-64583948D01*
X190779223Y-64475000D01*
X190220777Y-64475000D01*
X189673061Y-64583948D01*
X189165185Y-64794317D01*
X187272740Y-62901873D01*
X187366185Y-62825185D01*
X187390458Y-62795608D01*
X187478689Y-62786918D01*
X187636087Y-62739172D01*
X187781146Y-62661636D01*
X187908291Y-62557291D01*
X187934446Y-62525421D01*
X189573447Y-60886421D01*
X189605310Y-60860272D01*
X189709655Y-60733127D01*
X189787191Y-60588068D01*
X189834937Y-60430670D01*
X189847019Y-60308000D01*
X189847019Y-60307990D01*
X189851058Y-60266982D01*
X189847019Y-60225974D01*
X189847019Y-24840026D01*
X189851058Y-24799018D01*
X189847019Y-24758010D01*
X189847019Y-24758000D01*
X189834937Y-24635330D01*
X189787191Y-24477932D01*
X189709655Y-24332873D01*
X189605310Y-24205728D01*
X189573445Y-24179578D01*
X188061185Y-22667318D01*
X188090172Y-22613087D01*
X188137918Y-22455689D01*
X188154040Y-22292000D01*
X188149999Y-22250973D01*
X188150001Y-20913018D01*
X188154041Y-20871998D01*
X188137919Y-20708310D01*
X188090173Y-20550912D01*
X188012637Y-20405853D01*
X187934439Y-20310569D01*
X187934438Y-20310568D01*
X187908292Y-20278709D01*
X187876433Y-20252563D01*
X187004429Y-19380560D01*
X186978274Y-19348690D01*
X186851129Y-19244345D01*
X186706070Y-19166809D01*
X186548672Y-19119063D01*
X186426002Y-19106981D01*
X186426001Y-19106981D01*
X186384983Y-19102941D01*
X186343965Y-19106981D01*
X161663559Y-19106981D01*
X161622541Y-19102941D01*
X161581523Y-19106981D01*
X161581522Y-19106981D01*
X161458852Y-19119063D01*
X161402926Y-19136028D01*
X161301454Y-19166809D01*
X161156395Y-19244345D01*
X161087384Y-19300981D01*
X161029250Y-19348690D01*
X161003104Y-19380549D01*
X160093574Y-20290081D01*
X160061710Y-20316231D01*
X159986294Y-20408126D01*
X159957364Y-20443377D01*
X159879828Y-20588436D01*
X159832082Y-20745834D01*
X159815960Y-20909522D01*
X159820001Y-20950550D01*
X159820000Y-23008457D01*
X159815960Y-23049476D01*
X159826550Y-23157000D01*
X159832082Y-23213164D01*
X159879828Y-23370562D01*
X159957364Y-23515621D01*
X160061709Y-23642767D01*
X160093578Y-23668921D01*
X161298097Y-24873442D01*
X161324243Y-24905301D01*
X161451388Y-25009646D01*
X161596447Y-25087182D01*
X161753845Y-25134928D01*
X161876515Y-25147010D01*
X161876516Y-25147010D01*
X161917534Y-25151050D01*
X161958552Y-25147010D01*
X167158972Y-25147010D01*
X167199990Y-25151050D01*
X167241008Y-25147010D01*
X167241009Y-25147010D01*
X167363679Y-25134928D01*
X167521077Y-25087182D01*
X167666136Y-25009646D01*
X167793281Y-24905301D01*
X167819435Y-24873432D01*
X168161426Y-24531442D01*
X168193291Y-24505291D01*
X168297636Y-24378146D01*
X168375172Y-24233087D01*
X168400354Y-24150072D01*
X168500000Y-24150072D01*
X168624482Y-24137812D01*
X168744180Y-24101502D01*
X168854494Y-24042537D01*
X168951185Y-23963185D01*
X169030537Y-23866494D01*
X169089502Y-23756180D01*
X169125812Y-23636482D01*
X169138072Y-23512000D01*
X169138072Y-22692000D01*
X169125812Y-22567518D01*
X169089502Y-22447820D01*
X169038284Y-22352000D01*
X169089502Y-22256180D01*
X169125812Y-22136482D01*
X169138072Y-22012000D01*
X169138072Y-21226990D01*
X179477793Y-21226990D01*
X179480000Y-21316250D01*
X179638750Y-21475000D01*
X180888000Y-21475000D01*
X180888000Y-21455000D01*
X181120001Y-21455000D01*
X181120001Y-21749000D01*
X180888000Y-21749000D01*
X180888000Y-21729000D01*
X179638750Y-21729000D01*
X179480000Y-21887750D01*
X179476928Y-22012000D01*
X179489188Y-22136482D01*
X179525498Y-22256180D01*
X179576716Y-22352000D01*
X179525498Y-22447820D01*
X179489188Y-22567518D01*
X179476928Y-22692000D01*
X179476928Y-23512000D01*
X179489188Y-23636482D01*
X179525498Y-23756180D01*
X179584463Y-23866494D01*
X179663815Y-23963185D01*
X179760506Y-24042537D01*
X179870820Y-24101502D01*
X179990518Y-24137812D01*
X180115000Y-24150072D01*
X180360674Y-24150072D01*
X180380026Y-24186276D01*
X180422138Y-24237589D01*
X180475000Y-24302001D01*
X180503998Y-24325799D01*
X187727009Y-31548812D01*
X187727009Y-33580000D01*
X161197877Y-33580000D01*
X161163000Y-33576565D01*
X161128123Y-33580000D01*
X161023816Y-33590273D01*
X160889980Y-33630872D01*
X160766637Y-33696800D01*
X160658525Y-33785525D01*
X160569800Y-33893637D01*
X160503872Y-34016980D01*
X160463273Y-34150816D01*
X160449565Y-34290000D01*
X160453000Y-34324877D01*
X160453001Y-52035113D01*
X160449565Y-52070000D01*
X160463273Y-52209184D01*
X160503872Y-52343020D01*
X160569800Y-52466363D01*
X160658525Y-52574475D01*
X160766637Y-52663200D01*
X160889980Y-52729128D01*
X161023816Y-52769727D01*
X161128123Y-52780000D01*
X161163000Y-52783435D01*
X161197877Y-52780000D01*
X187727011Y-52780000D01*
X187727011Y-57017187D01*
X185607315Y-59136884D01*
X185602989Y-59133333D01*
X185482252Y-59068798D01*
X185351244Y-59029057D01*
X185249135Y-59019000D01*
X185249134Y-59019000D01*
X185215000Y-59015638D01*
X185180865Y-59019000D01*
X181849135Y-59019000D01*
X181815000Y-59015638D01*
X181780866Y-59019000D01*
X181780865Y-59019000D01*
X181678756Y-59029057D01*
X181547748Y-59068798D01*
X181427011Y-59133333D01*
X181321183Y-59220183D01*
X181234333Y-59326011D01*
X181169798Y-59446748D01*
X181130057Y-59577756D01*
X181116638Y-59714000D01*
X181120001Y-59748145D01*
X181120001Y-60611000D01*
X180888000Y-60611000D01*
X180888000Y-60591000D01*
X179638750Y-60591000D01*
X179480000Y-60749750D01*
X179476928Y-60874000D01*
X179489188Y-60998482D01*
X179525498Y-61118180D01*
X179576716Y-61214000D01*
X179525498Y-61309820D01*
X179489188Y-61429518D01*
X179476928Y-61554000D01*
X179476928Y-62374000D01*
X179489188Y-62498482D01*
X179525498Y-62618180D01*
X179584463Y-62728494D01*
X179663815Y-62825185D01*
X179705117Y-62859081D01*
X174224199Y-68340000D01*
X169032939Y-68340000D01*
X169030537Y-68335506D01*
X168951185Y-68238815D01*
X168854494Y-68159463D01*
X168744180Y-68100498D01*
X168624482Y-68064188D01*
X168500000Y-68051928D01*
X167428728Y-68051928D01*
X167380667Y-67962011D01*
X167293817Y-67856183D01*
X167187989Y-67769333D01*
X167067252Y-67704798D01*
X166936244Y-67665057D01*
X166834135Y-67655000D01*
X166834134Y-67655000D01*
X166800000Y-67651638D01*
X166765865Y-67655000D01*
X163434135Y-67655000D01*
X163400000Y-67651638D01*
X163365866Y-67655000D01*
X163365865Y-67655000D01*
X163263756Y-67665057D01*
X163132748Y-67704798D01*
X163012011Y-67769333D01*
X162906183Y-67856183D01*
X162819333Y-67962011D01*
X162754798Y-68082748D01*
X162715057Y-68213756D01*
X162701638Y-68350000D01*
X162705001Y-68384145D01*
X162705001Y-69247000D01*
X162473000Y-69247000D01*
X162473000Y-69227000D01*
X161223750Y-69227000D01*
X161065000Y-69385750D01*
X161061928Y-69510000D01*
X161074188Y-69634482D01*
X161110498Y-69754180D01*
X161161716Y-69850000D01*
X161130035Y-69909270D01*
X161025724Y-69965026D01*
X161025722Y-69965027D01*
X161025723Y-69965027D01*
X160938996Y-70036201D01*
X160938992Y-70036205D01*
X160909999Y-70059999D01*
X160886205Y-70088992D01*
X156333998Y-74641201D01*
X156305000Y-74664999D01*
X156281202Y-74693997D01*
X156281201Y-74693998D01*
X156210026Y-74780724D01*
X156139454Y-74912754D01*
X156095998Y-75056015D01*
X156081324Y-75205000D01*
X156085001Y-75242332D01*
X156085000Y-82350633D01*
X156018061Y-82363948D01*
X155502124Y-82577656D01*
X155037793Y-82887912D01*
X154642912Y-83282793D01*
X154332656Y-83747124D01*
X154118948Y-84263061D01*
X154010000Y-84810777D01*
X153745000Y-84810777D01*
X153745000Y-69249876D01*
X153748435Y-69215000D01*
X153734727Y-69075816D01*
X153694128Y-68941980D01*
X153628200Y-68818637D01*
X153539475Y-68710525D01*
X153514466Y-68690000D01*
X161061928Y-68690000D01*
X161065000Y-68814250D01*
X161223750Y-68973000D01*
X162473000Y-68973000D01*
X162473000Y-68213750D01*
X162314250Y-68055000D01*
X161700000Y-68051928D01*
X161575518Y-68064188D01*
X161455820Y-68100498D01*
X161345506Y-68159463D01*
X161248815Y-68238815D01*
X161169463Y-68335506D01*
X161110498Y-68445820D01*
X161074188Y-68565518D01*
X161061928Y-68690000D01*
X153514466Y-68690000D01*
X153431363Y-68621800D01*
X153308020Y-68555872D01*
X153174184Y-68515273D01*
X153069877Y-68505000D01*
X153035000Y-68501565D01*
X153000123Y-68505000D01*
X150551438Y-68505000D01*
X150538133Y-68502871D01*
X150481651Y-68505000D01*
X150460123Y-68505000D01*
X150446775Y-68506315D01*
X150398375Y-68508139D01*
X150377343Y-68513153D01*
X150355816Y-68515273D01*
X150309454Y-68529337D01*
X150262329Y-68540571D01*
X150242674Y-68549595D01*
X150221980Y-68555872D01*
X150179245Y-68578715D01*
X150167076Y-68584301D01*
X150148523Y-68595136D01*
X150098637Y-68621800D01*
X150088212Y-68630355D01*
X112587854Y-90529551D01*
X112243992Y-90661307D01*
X111892664Y-90721772D01*
X111536289Y-90712844D01*
X111188433Y-90634867D01*
X110862348Y-90490808D01*
X110570451Y-90286154D01*
X110323870Y-90028708D01*
X110131986Y-89728264D01*
X110002114Y-89396275D01*
X109935547Y-89025011D01*
X109930000Y-88885847D01*
X109930000Y-84810777D01*
X110195000Y-84810777D01*
X110195000Y-85369223D01*
X110303948Y-85916939D01*
X110517656Y-86432876D01*
X110827912Y-86897207D01*
X111222793Y-87292088D01*
X111687124Y-87602344D01*
X112203061Y-87816052D01*
X112750777Y-87925000D01*
X113309223Y-87925000D01*
X113856939Y-87816052D01*
X114372876Y-87602344D01*
X114837207Y-87292088D01*
X115232088Y-86897207D01*
X115542344Y-86432876D01*
X115756052Y-85916939D01*
X115865000Y-85369223D01*
X115865000Y-84810777D01*
X115756052Y-84263061D01*
X115542344Y-83747124D01*
X115232088Y-83282793D01*
X114837207Y-82887912D01*
X114372876Y-82577656D01*
X113856939Y-82363948D01*
X113790000Y-82350633D01*
X113790000Y-75519801D01*
X117694130Y-71615673D01*
X117760518Y-71635812D01*
X117885000Y-71648072D01*
X118956272Y-71648072D01*
X119004333Y-71737989D01*
X119091183Y-71843817D01*
X119197011Y-71930667D01*
X119317748Y-71995202D01*
X119448756Y-72034943D01*
X119585000Y-72048362D01*
X119619134Y-72045000D01*
X122950866Y-72045000D01*
X122985000Y-72048362D01*
X123121244Y-72034943D01*
X123252252Y-71995202D01*
X123372989Y-71930667D01*
X123478817Y-71843817D01*
X123565667Y-71737989D01*
X123613728Y-71648072D01*
X124685000Y-71648072D01*
X124809482Y-71635812D01*
X124929180Y-71599502D01*
X125039494Y-71540537D01*
X125136185Y-71461185D01*
X125157674Y-71435000D01*
X143353982Y-71435000D01*
X143395000Y-71439040D01*
X143436018Y-71435000D01*
X143436019Y-71435000D01*
X143558689Y-71422918D01*
X143716087Y-71375172D01*
X143861146Y-71297636D01*
X143988291Y-71193291D01*
X144014446Y-71161421D01*
X145350185Y-69825683D01*
X145858061Y-70036052D01*
X146405777Y-70145000D01*
X146964223Y-70145000D01*
X147511939Y-70036052D01*
X148027876Y-69822344D01*
X148492207Y-69512088D01*
X148887088Y-69117207D01*
X149197344Y-68652876D01*
X149411052Y-68136939D01*
X149520000Y-67589223D01*
X149520000Y-67030777D01*
X149411052Y-66483061D01*
X149197344Y-65967124D01*
X148887088Y-65502793D01*
X148492207Y-65107912D01*
X148027876Y-64797656D01*
X147511939Y-64583948D01*
X146964223Y-64475000D01*
X146405777Y-64475000D01*
X145858061Y-64583948D01*
X145350185Y-64794317D01*
X143457740Y-62901873D01*
X143551185Y-62825185D01*
X143575458Y-62795608D01*
X143663689Y-62786918D01*
X143821087Y-62739172D01*
X143966146Y-62661636D01*
X144093291Y-62557291D01*
X144119446Y-62525421D01*
X145758447Y-60886421D01*
X145790310Y-60860272D01*
X145894655Y-60733127D01*
X145972191Y-60588068D01*
X146019937Y-60430670D01*
X146032019Y-60308000D01*
X146032019Y-60307990D01*
X146036058Y-60266982D01*
X146032019Y-60225974D01*
X146032019Y-24840026D01*
X146036058Y-24799018D01*
X146032019Y-24758010D01*
X146032019Y-24758000D01*
X146019937Y-24635330D01*
X145972191Y-24477932D01*
X145894655Y-24332873D01*
X145790310Y-24205728D01*
X145758445Y-24179578D01*
X144246185Y-22667318D01*
X144275172Y-22613087D01*
X144322918Y-22455689D01*
X144339040Y-22292000D01*
X144334999Y-22250973D01*
X144335000Y-20955000D01*
X149781565Y-20955000D01*
X149785001Y-20989887D01*
X149785000Y-66640123D01*
X149781565Y-66675000D01*
X149795273Y-66814184D01*
X149835872Y-66948020D01*
X149901800Y-67071363D01*
X149990525Y-67179475D01*
X150098637Y-67268200D01*
X150221980Y-67334128D01*
X150355816Y-67374727D01*
X150495000Y-67388435D01*
X150529877Y-67385000D01*
X153000123Y-67385000D01*
X153035000Y-67388435D01*
X153069877Y-67385000D01*
X153174184Y-67374727D01*
X153308020Y-67334128D01*
X153431363Y-67268200D01*
X153539475Y-67179475D01*
X153628200Y-67071363D01*
X153694128Y-66948020D01*
X153734727Y-66814184D01*
X153748435Y-66675000D01*
X153745000Y-66640123D01*
X153745000Y-60054000D01*
X179476928Y-60054000D01*
X179480000Y-60178250D01*
X179638750Y-60337000D01*
X180888000Y-60337000D01*
X180888000Y-59577750D01*
X180729250Y-59419000D01*
X180115000Y-59415928D01*
X179990518Y-59428188D01*
X179870820Y-59464498D01*
X179760506Y-59523463D01*
X179663815Y-59602815D01*
X179584463Y-59699506D01*
X179525498Y-59809820D01*
X179489188Y-59929518D01*
X179476928Y-60054000D01*
X153745000Y-60054000D01*
X153745000Y-20989877D01*
X153748435Y-20955000D01*
X153734727Y-20815816D01*
X153694128Y-20681980D01*
X153628200Y-20558637D01*
X153539475Y-20450525D01*
X153431363Y-20361800D01*
X153308020Y-20295872D01*
X153174184Y-20255273D01*
X153069877Y-20245000D01*
X153035000Y-20241565D01*
X153000123Y-20245000D01*
X150529877Y-20245000D01*
X150495000Y-20241565D01*
X150460123Y-20245000D01*
X150355816Y-20255273D01*
X150221980Y-20295872D01*
X150098637Y-20361800D01*
X149990525Y-20450525D01*
X149901800Y-20558637D01*
X149835872Y-20681980D01*
X149795273Y-20815816D01*
X149781565Y-20955000D01*
X144335000Y-20955000D01*
X144335001Y-20913018D01*
X144339041Y-20871998D01*
X144322919Y-20708310D01*
X144275173Y-20550912D01*
X144197637Y-20405853D01*
X144119439Y-20310569D01*
X144119438Y-20310568D01*
X144093292Y-20278709D01*
X144061433Y-20252563D01*
X143189429Y-19380560D01*
X143163274Y-19348690D01*
X143036129Y-19244345D01*
X142891070Y-19166809D01*
X142733672Y-19119063D01*
X142611002Y-19106981D01*
X142611001Y-19106981D01*
X142569983Y-19102941D01*
X142528965Y-19106981D01*
X117848559Y-19106981D01*
X117807541Y-19102941D01*
X117766523Y-19106981D01*
X117766522Y-19106981D01*
X117643852Y-19119063D01*
X117587926Y-19136028D01*
X117486454Y-19166809D01*
X117341395Y-19244345D01*
X117272384Y-19300981D01*
X117214250Y-19348690D01*
X117188104Y-19380549D01*
X116278574Y-20290081D01*
X116246710Y-20316231D01*
X116171294Y-20408126D01*
X116142364Y-20443377D01*
X116064828Y-20588436D01*
X116017082Y-20745834D01*
X116000960Y-20909522D01*
X116005001Y-20950550D01*
X116005000Y-23008457D01*
X116000960Y-23049476D01*
X116011550Y-23157000D01*
X116017082Y-23213164D01*
X116064828Y-23370562D01*
X116142364Y-23515621D01*
X116246709Y-23642767D01*
X116278578Y-23668921D01*
X117483097Y-24873442D01*
X117509243Y-24905301D01*
X117636388Y-25009646D01*
X117781447Y-25087182D01*
X117938845Y-25134928D01*
X118061515Y-25147010D01*
X118061516Y-25147010D01*
X118102534Y-25151050D01*
X118143552Y-25147010D01*
X123343972Y-25147010D01*
X123384990Y-25151050D01*
X123426008Y-25147010D01*
X123426009Y-25147010D01*
X123548679Y-25134928D01*
X123706077Y-25087182D01*
X123851136Y-25009646D01*
X123978281Y-24905301D01*
X124004435Y-24873432D01*
X124346426Y-24531442D01*
X124378291Y-24505291D01*
X124482636Y-24378146D01*
X124560172Y-24233087D01*
X124585354Y-24150072D01*
X124685000Y-24150072D01*
X124809482Y-24137812D01*
X124929180Y-24101502D01*
X125039494Y-24042537D01*
X125136185Y-23963185D01*
X125215537Y-23866494D01*
X125274502Y-23756180D01*
X125310812Y-23636482D01*
X125323072Y-23512000D01*
X125323072Y-22692000D01*
X125310812Y-22567518D01*
X125274502Y-22447820D01*
X125223284Y-22352000D01*
X125274502Y-22256180D01*
X125310812Y-22136482D01*
X125323072Y-22012000D01*
X125323072Y-21226990D01*
X135662793Y-21226990D01*
X135665000Y-21316250D01*
X135823750Y-21475000D01*
X137073000Y-21475000D01*
X137073000Y-21455000D01*
X137305001Y-21455000D01*
X137305001Y-21749000D01*
X137073000Y-21749000D01*
X137073000Y-21729000D01*
X135823750Y-21729000D01*
X135665000Y-21887750D01*
X135661928Y-22012000D01*
X135674188Y-22136482D01*
X135710498Y-22256180D01*
X135761716Y-22352000D01*
X135710498Y-22447820D01*
X135674188Y-22567518D01*
X135661928Y-22692000D01*
X135661928Y-23512000D01*
X135674188Y-23636482D01*
X135710498Y-23756180D01*
X135769463Y-23866494D01*
X135848815Y-23963185D01*
X135945506Y-24042537D01*
X136055820Y-24101502D01*
X136175518Y-24137812D01*
X136300000Y-24150072D01*
X136545674Y-24150072D01*
X136565026Y-24186276D01*
X136607138Y-24237589D01*
X136660000Y-24302001D01*
X136688998Y-24325799D01*
X143912009Y-31548812D01*
X143912009Y-33580000D01*
X117382877Y-33580000D01*
X117348000Y-33576565D01*
X117313123Y-33580000D01*
X117208816Y-33590273D01*
X117074980Y-33630872D01*
X116951637Y-33696800D01*
X116843525Y-33785525D01*
X116754800Y-33893637D01*
X116688872Y-34016980D01*
X116648273Y-34150816D01*
X116634565Y-34290000D01*
X116638000Y-34324877D01*
X116638001Y-52035113D01*
X116634565Y-52070000D01*
X116648273Y-52209184D01*
X116688872Y-52343020D01*
X116754800Y-52466363D01*
X116843525Y-52574475D01*
X116951637Y-52663200D01*
X117074980Y-52729128D01*
X117208816Y-52769727D01*
X117313123Y-52780000D01*
X117348000Y-52783435D01*
X117382877Y-52780000D01*
X143912011Y-52780000D01*
X143912011Y-57017187D01*
X141792315Y-59136884D01*
X141787989Y-59133333D01*
X141667252Y-59068798D01*
X141536244Y-59029057D01*
X141434135Y-59019000D01*
X141434134Y-59019000D01*
X141400000Y-59015638D01*
X141365865Y-59019000D01*
X138034135Y-59019000D01*
X138000000Y-59015638D01*
X137965866Y-59019000D01*
X137965865Y-59019000D01*
X137863756Y-59029057D01*
X137732748Y-59068798D01*
X137612011Y-59133333D01*
X137506183Y-59220183D01*
X137419333Y-59326011D01*
X137354798Y-59446748D01*
X137315057Y-59577756D01*
X137301638Y-59714000D01*
X137305001Y-59748145D01*
X137305001Y-60611000D01*
X137073000Y-60611000D01*
X137073000Y-60591000D01*
X135823750Y-60591000D01*
X135665000Y-60749750D01*
X135661928Y-60874000D01*
X135674188Y-60998482D01*
X135710498Y-61118180D01*
X135761716Y-61214000D01*
X135710498Y-61309820D01*
X135674188Y-61429518D01*
X135661928Y-61554000D01*
X135661928Y-62374000D01*
X135674188Y-62498482D01*
X135710498Y-62618180D01*
X135769463Y-62728494D01*
X135848815Y-62825185D01*
X135890117Y-62859081D01*
X130409199Y-68340000D01*
X125217939Y-68340000D01*
X125215537Y-68335506D01*
X125136185Y-68238815D01*
X125039494Y-68159463D01*
X124929180Y-68100498D01*
X124809482Y-68064188D01*
X124685000Y-68051928D01*
X123613728Y-68051928D01*
X123565667Y-67962011D01*
X123478817Y-67856183D01*
X123372989Y-67769333D01*
X123252252Y-67704798D01*
X123121244Y-67665057D01*
X123019135Y-67655000D01*
X123019134Y-67655000D01*
X122985000Y-67651638D01*
X122950865Y-67655000D01*
X119619135Y-67655000D01*
X119585000Y-67651638D01*
X119550866Y-67655000D01*
X119550865Y-67655000D01*
X119448756Y-67665057D01*
X119317748Y-67704798D01*
X119197011Y-67769333D01*
X119091183Y-67856183D01*
X119004333Y-67962011D01*
X118939798Y-68082748D01*
X118900057Y-68213756D01*
X118886638Y-68350000D01*
X118890001Y-68384145D01*
X118890001Y-69247000D01*
X118658000Y-69247000D01*
X118658000Y-69227000D01*
X117408750Y-69227000D01*
X117250000Y-69385750D01*
X117246928Y-69510000D01*
X117259188Y-69634482D01*
X117295498Y-69754180D01*
X117346716Y-69850000D01*
X117315035Y-69909270D01*
X117210724Y-69965026D01*
X117210722Y-69965027D01*
X117210723Y-69965027D01*
X117123996Y-70036201D01*
X117123992Y-70036205D01*
X117094999Y-70059999D01*
X117071205Y-70088992D01*
X112518998Y-74641201D01*
X112490000Y-74664999D01*
X112466202Y-74693997D01*
X112466201Y-74693998D01*
X112395026Y-74780724D01*
X112324454Y-74912754D01*
X112280998Y-75056015D01*
X112266324Y-75205000D01*
X112270001Y-75242332D01*
X112270000Y-82350633D01*
X112203061Y-82363948D01*
X111687124Y-82577656D01*
X111222793Y-82887912D01*
X110827912Y-83282793D01*
X110517656Y-83747124D01*
X110303948Y-84263061D01*
X110195000Y-84810777D01*
X109930000Y-84810777D01*
X109930000Y-68690000D01*
X117246928Y-68690000D01*
X117250000Y-68814250D01*
X117408750Y-68973000D01*
X118658000Y-68973000D01*
X118658000Y-68213750D01*
X118499250Y-68055000D01*
X117885000Y-68051928D01*
X117760518Y-68064188D01*
X117640820Y-68100498D01*
X117530506Y-68159463D01*
X117433815Y-68238815D01*
X117354463Y-68335506D01*
X117295498Y-68445820D01*
X117259188Y-68565518D01*
X117246928Y-68690000D01*
X109930000Y-68690000D01*
X109930000Y-60054000D01*
X135661928Y-60054000D01*
X135665000Y-60178250D01*
X135823750Y-60337000D01*
X137073000Y-60337000D01*
X137073000Y-59577750D01*
X136914250Y-59419000D01*
X136300000Y-59415928D01*
X136175518Y-59428188D01*
X136055820Y-59464498D01*
X135945506Y-59523463D01*
X135848815Y-59602815D01*
X135769463Y-59699506D01*
X135710498Y-59809820D01*
X135674188Y-59929518D01*
X135661928Y-60054000D01*
X109930000Y-60054000D01*
X109930000Y-18499775D01*
X111219830Y-18499775D01*
X111459976Y-18887018D01*
X111953877Y-19147641D01*
X112489133Y-19306901D01*
X113045174Y-19358678D01*
X113600632Y-19300981D01*
X114134161Y-19136028D01*
X114600024Y-18887018D01*
X114840170Y-18499775D01*
X155034830Y-18499775D01*
X155274976Y-18887018D01*
X155768877Y-19147641D01*
X156304133Y-19306901D01*
X156860174Y-19358678D01*
X157415632Y-19300981D01*
X157949161Y-19136028D01*
X158415024Y-18887018D01*
X158655170Y-18499775D01*
X156845000Y-16689605D01*
X155034830Y-18499775D01*
X114840170Y-18499775D01*
X113030000Y-16689605D01*
X111219830Y-18499775D01*
X109930000Y-18499775D01*
X109930000Y-17811618D01*
X110001842Y-17006642D01*
X110205970Y-16260474D01*
X110181322Y-16525174D01*
X110239019Y-17080632D01*
X110403972Y-17614161D01*
X110652982Y-18080024D01*
X111040225Y-18320170D01*
X112850395Y-16510000D01*
X113209605Y-16510000D01*
X115019775Y-18320170D01*
X115407018Y-18080024D01*
X115667641Y-17586123D01*
X115826901Y-17050867D01*
X115878678Y-16494826D01*
X115820981Y-15939368D01*
X115656028Y-15405839D01*
X115407018Y-14939976D01*
X115019775Y-14699830D01*
X113209605Y-16510000D01*
X112850395Y-16510000D01*
X112836253Y-16495858D01*
X113015858Y-16316253D01*
X113030000Y-16330395D01*
X114840170Y-14520225D01*
X114600024Y-14132982D01*
X114106123Y-13872359D01*
X113570867Y-13713099D01*
X113014826Y-13661322D01*
X112812773Y-13682310D01*
X112907044Y-13640927D01*
X113667493Y-13458360D01*
X114326031Y-13410000D01*
X145383382Y-13410000D01*
X146188358Y-13481842D01*
G37*
X146188358Y-13481842D02*
X146937277Y-13686723D01*
X147638072Y-14020986D01*
X148268605Y-14474069D01*
X148808934Y-15031645D01*
X149241989Y-15676099D01*
X149554073Y-16387044D01*
X149736640Y-17147493D01*
X149782438Y-17771139D01*
X149781565Y-17780000D01*
X149795273Y-17919184D01*
X149835872Y-18053020D01*
X149901800Y-18176363D01*
X149990525Y-18284475D01*
X150098637Y-18373200D01*
X150221980Y-18439128D01*
X150355816Y-18479727D01*
X150460123Y-18490000D01*
X153069877Y-18490000D01*
X153174184Y-18479727D01*
X153308020Y-18439128D01*
X153431363Y-18373200D01*
X153539475Y-18284475D01*
X153628200Y-18176363D01*
X153694128Y-18053020D01*
X153734727Y-17919184D01*
X153748435Y-17780000D01*
X153748113Y-17776734D01*
X153816842Y-17006642D01*
X154020970Y-16260474D01*
X153996322Y-16525174D01*
X154054019Y-17080632D01*
X154218972Y-17614161D01*
X154467982Y-18080024D01*
X154855225Y-18320170D01*
X156665395Y-16510000D01*
X157024605Y-16510000D01*
X158834775Y-18320170D01*
X159222018Y-18080024D01*
X159482641Y-17586123D01*
X159641901Y-17050867D01*
X159693678Y-16494826D01*
X159635981Y-15939368D01*
X159471028Y-15405839D01*
X159222018Y-14939976D01*
X158834775Y-14699830D01*
X157024605Y-16510000D01*
X156665395Y-16510000D01*
X156651253Y-16495858D01*
X156830858Y-16316253D01*
X156845000Y-16330395D01*
X158655170Y-14520225D01*
X158415024Y-14132982D01*
X157921123Y-13872359D01*
X157385867Y-13713099D01*
X156829826Y-13661322D01*
X156627773Y-13682310D01*
X156722044Y-13640927D01*
X157482493Y-13458360D01*
X158141031Y-13410000D01*
X189198382Y-13410000D01*
X190003358Y-13481842D01*
X190752277Y-13686723D01*
X191453072Y-14020986D01*
X192083605Y-14474069D01*
X192623934Y-15031645D01*
X193056989Y-15676099D01*
X193369073Y-16387044D01*
X193551640Y-17147493D01*
X193600001Y-17806044D01*
X193600000Y-68807423D01*
X156402854Y-90529551D01*
X156058992Y-90661307D01*
X155707664Y-90721772D01*
X155351289Y-90712844D01*
X155003433Y-90634867D01*
X154677348Y-90490808D01*
X154385451Y-90286154D01*
X154138870Y-90028708D01*
X153946986Y-89728264D01*
X153817114Y-89396275D01*
X153750547Y-89025011D01*
X153745000Y-88885847D01*
X153745000Y-84810777D01*
X154010000Y-84810777D01*
X154010000Y-85369223D01*
X154118948Y-85916939D01*
X154332656Y-86432876D01*
X154642912Y-86897207D01*
X155037793Y-87292088D01*
X155502124Y-87602344D01*
X156018061Y-87816052D01*
X156565777Y-87925000D01*
X157124223Y-87925000D01*
X157671939Y-87816052D01*
X158187876Y-87602344D01*
X158652207Y-87292088D01*
X159047088Y-86897207D01*
X159357344Y-86432876D01*
X159571052Y-85916939D01*
X159680000Y-85369223D01*
X159680000Y-84810777D01*
X159571052Y-84263061D01*
X159357344Y-83747124D01*
X159047088Y-83282793D01*
X158652207Y-82887912D01*
X158187876Y-82577656D01*
X157671939Y-82363948D01*
X157605000Y-82350633D01*
X157605000Y-75519801D01*
X161509130Y-71615673D01*
X161575518Y-71635812D01*
X161700000Y-71648072D01*
X162771272Y-71648072D01*
X162819333Y-71737989D01*
X162906183Y-71843817D01*
X163012011Y-71930667D01*
X163132748Y-71995202D01*
X163263756Y-72034943D01*
X163400000Y-72048362D01*
X163434134Y-72045000D01*
X166765866Y-72045000D01*
X166800000Y-72048362D01*
X166936244Y-72034943D01*
X167067252Y-71995202D01*
X167187989Y-71930667D01*
X167293817Y-71843817D01*
X167380667Y-71737989D01*
X167428728Y-71648072D01*
X168500000Y-71648072D01*
X168624482Y-71635812D01*
X168744180Y-71599502D01*
X168854494Y-71540537D01*
X168951185Y-71461185D01*
X168972674Y-71435000D01*
X187168982Y-71435000D01*
X187210000Y-71439040D01*
X187251018Y-71435000D01*
X187251019Y-71435000D01*
X187373689Y-71422918D01*
X187531087Y-71375172D01*
X187676146Y-71297636D01*
X187803291Y-71193291D01*
X187829446Y-71161421D01*
X189165185Y-69825683D01*
X189673061Y-70036052D01*
X190220777Y-70145000D01*
X190779223Y-70145000D01*
X191326939Y-70036052D01*
X191842876Y-69822344D01*
X192307207Y-69512088D01*
X192702088Y-69117207D01*
X193012344Y-68652876D01*
X193226052Y-68136939D01*
X193335000Y-67589223D01*
X193335000Y-67030777D01*
X193226052Y-66483061D01*
X193012344Y-65967124D01*
X192702088Y-65502793D01*
X192307207Y-65107912D01*
X191842876Y-64797656D01*
X191326939Y-64583948D01*
X190779223Y-64475000D01*
X190220777Y-64475000D01*
X189673061Y-64583948D01*
X189165185Y-64794317D01*
X187272740Y-62901873D01*
X187366185Y-62825185D01*
X187390458Y-62795608D01*
X187478689Y-62786918D01*
X187636087Y-62739172D01*
X187781146Y-62661636D01*
X187908291Y-62557291D01*
X187934446Y-62525421D01*
X189573447Y-60886421D01*
X189605310Y-60860272D01*
X189709655Y-60733127D01*
X189787191Y-60588068D01*
X189834937Y-60430670D01*
X189847019Y-60308000D01*
X189847019Y-60307990D01*
X189851058Y-60266982D01*
X189847019Y-60225974D01*
X189847019Y-24840026D01*
X189851058Y-24799018D01*
X189847019Y-24758010D01*
X189847019Y-24758000D01*
X189834937Y-24635330D01*
X189787191Y-24477932D01*
X189709655Y-24332873D01*
X189605310Y-24205728D01*
X189573445Y-24179578D01*
X188061185Y-22667318D01*
X188090172Y-22613087D01*
X188137918Y-22455689D01*
X188154040Y-22292000D01*
X188149999Y-22250973D01*
X188150001Y-20913018D01*
X188154041Y-20871998D01*
X188137919Y-20708310D01*
X188090173Y-20550912D01*
X188012637Y-20405853D01*
X187934439Y-20310569D01*
X187934438Y-20310568D01*
X187908292Y-20278709D01*
X187876433Y-20252563D01*
X187004429Y-19380560D01*
X186978274Y-19348690D01*
X186851129Y-19244345D01*
X186706070Y-19166809D01*
X186548672Y-19119063D01*
X186426002Y-19106981D01*
X186426001Y-19106981D01*
X186384983Y-19102941D01*
X186343965Y-19106981D01*
X161663559Y-19106981D01*
X161622541Y-19102941D01*
X161581523Y-19106981D01*
X161581522Y-19106981D01*
X161458852Y-19119063D01*
X161402926Y-19136028D01*
X161301454Y-19166809D01*
X161156395Y-19244345D01*
X161087384Y-19300981D01*
X161029250Y-19348690D01*
X161003104Y-19380549D01*
X160093574Y-20290081D01*
X160061710Y-20316231D01*
X159986294Y-20408126D01*
X159957364Y-20443377D01*
X159879828Y-20588436D01*
X159832082Y-20745834D01*
X159815960Y-20909522D01*
X159820001Y-20950550D01*
X159820000Y-23008457D01*
X159815960Y-23049476D01*
X159826550Y-23157000D01*
X159832082Y-23213164D01*
X159879828Y-23370562D01*
X159957364Y-23515621D01*
X160061709Y-23642767D01*
X160093578Y-23668921D01*
X161298097Y-24873442D01*
X161324243Y-24905301D01*
X161451388Y-25009646D01*
X161596447Y-25087182D01*
X161753845Y-25134928D01*
X161876515Y-25147010D01*
X161876516Y-25147010D01*
X161917534Y-25151050D01*
X161958552Y-25147010D01*
X167158972Y-25147010D01*
X167199990Y-25151050D01*
X167241008Y-25147010D01*
X167241009Y-25147010D01*
X167363679Y-25134928D01*
X167521077Y-25087182D01*
X167666136Y-25009646D01*
X167793281Y-24905301D01*
X167819435Y-24873432D01*
X168161426Y-24531442D01*
X168193291Y-24505291D01*
X168297636Y-24378146D01*
X168375172Y-24233087D01*
X168400354Y-24150072D01*
X168500000Y-24150072D01*
X168624482Y-24137812D01*
X168744180Y-24101502D01*
X168854494Y-24042537D01*
X168951185Y-23963185D01*
X169030537Y-23866494D01*
X169089502Y-23756180D01*
X169125812Y-23636482D01*
X169138072Y-23512000D01*
X169138072Y-22692000D01*
X169125812Y-22567518D01*
X169089502Y-22447820D01*
X169038284Y-22352000D01*
X169089502Y-22256180D01*
X169125812Y-22136482D01*
X169138072Y-22012000D01*
X169138072Y-21226990D01*
X179477793Y-21226990D01*
X179480000Y-21316250D01*
X179638750Y-21475000D01*
X180888000Y-21475000D01*
X180888000Y-21455000D01*
X181120001Y-21455000D01*
X181120001Y-21749000D01*
X180888000Y-21749000D01*
X180888000Y-21729000D01*
X179638750Y-21729000D01*
X179480000Y-21887750D01*
X179476928Y-22012000D01*
X179489188Y-22136482D01*
X179525498Y-22256180D01*
X179576716Y-22352000D01*
X179525498Y-22447820D01*
X179489188Y-22567518D01*
X179476928Y-22692000D01*
X179476928Y-23512000D01*
X179489188Y-23636482D01*
X179525498Y-23756180D01*
X179584463Y-23866494D01*
X179663815Y-23963185D01*
X179760506Y-24042537D01*
X179870820Y-24101502D01*
X179990518Y-24137812D01*
X180115000Y-24150072D01*
X180360674Y-24150072D01*
X180380026Y-24186276D01*
X180422138Y-24237589D01*
X180475000Y-24302001D01*
X180503998Y-24325799D01*
X187727009Y-31548812D01*
X187727009Y-33580000D01*
X161197877Y-33580000D01*
X161163000Y-33576565D01*
X161128123Y-33580000D01*
X161023816Y-33590273D01*
X160889980Y-33630872D01*
X160766637Y-33696800D01*
X160658525Y-33785525D01*
X160569800Y-33893637D01*
X160503872Y-34016980D01*
X160463273Y-34150816D01*
X160449565Y-34290000D01*
X160453000Y-34324877D01*
X160453001Y-52035113D01*
X160449565Y-52070000D01*
X160463273Y-52209184D01*
X160503872Y-52343020D01*
X160569800Y-52466363D01*
X160658525Y-52574475D01*
X160766637Y-52663200D01*
X160889980Y-52729128D01*
X161023816Y-52769727D01*
X161128123Y-52780000D01*
X161163000Y-52783435D01*
X161197877Y-52780000D01*
X187727011Y-52780000D01*
X187727011Y-57017187D01*
X185607315Y-59136884D01*
X185602989Y-59133333D01*
X185482252Y-59068798D01*
X185351244Y-59029057D01*
X185249135Y-59019000D01*
X185249134Y-59019000D01*
X185215000Y-59015638D01*
X185180865Y-59019000D01*
X181849135Y-59019000D01*
X181815000Y-59015638D01*
X181780866Y-59019000D01*
X181780865Y-59019000D01*
X181678756Y-59029057D01*
X181547748Y-59068798D01*
X181427011Y-59133333D01*
X181321183Y-59220183D01*
X181234333Y-59326011D01*
X181169798Y-59446748D01*
X181130057Y-59577756D01*
X181116638Y-59714000D01*
X181120001Y-59748145D01*
X181120001Y-60611000D01*
X180888000Y-60611000D01*
X180888000Y-60591000D01*
X179638750Y-60591000D01*
X179480000Y-60749750D01*
X179476928Y-60874000D01*
X179489188Y-60998482D01*
X179525498Y-61118180D01*
X179576716Y-61214000D01*
X179525498Y-61309820D01*
X179489188Y-61429518D01*
X179476928Y-61554000D01*
X179476928Y-62374000D01*
X179489188Y-62498482D01*
X179525498Y-62618180D01*
X179584463Y-62728494D01*
X179663815Y-62825185D01*
X179705117Y-62859081D01*
X174224199Y-68340000D01*
X169032939Y-68340000D01*
X169030537Y-68335506D01*
X168951185Y-68238815D01*
X168854494Y-68159463D01*
X168744180Y-68100498D01*
X168624482Y-68064188D01*
X168500000Y-68051928D01*
X167428728Y-68051928D01*
X167380667Y-67962011D01*
X167293817Y-67856183D01*
X167187989Y-67769333D01*
X167067252Y-67704798D01*
X166936244Y-67665057D01*
X166834135Y-67655000D01*
X166834134Y-67655000D01*
X166800000Y-67651638D01*
X166765865Y-67655000D01*
X163434135Y-67655000D01*
X163400000Y-67651638D01*
X163365866Y-67655000D01*
X163365865Y-67655000D01*
X163263756Y-67665057D01*
X163132748Y-67704798D01*
X163012011Y-67769333D01*
X162906183Y-67856183D01*
X162819333Y-67962011D01*
X162754798Y-68082748D01*
X162715057Y-68213756D01*
X162701638Y-68350000D01*
X162705001Y-68384145D01*
X162705001Y-69247000D01*
X162473000Y-69247000D01*
X162473000Y-69227000D01*
X161223750Y-69227000D01*
X161065000Y-69385750D01*
X161061928Y-69510000D01*
X161074188Y-69634482D01*
X161110498Y-69754180D01*
X161161716Y-69850000D01*
X161130035Y-69909270D01*
X161025724Y-69965026D01*
X161025722Y-69965027D01*
X161025723Y-69965027D01*
X160938996Y-70036201D01*
X160938992Y-70036205D01*
X160909999Y-70059999D01*
X160886205Y-70088992D01*
X156333998Y-74641201D01*
X156305000Y-74664999D01*
X156281202Y-74693997D01*
X156281201Y-74693998D01*
X156210026Y-74780724D01*
X156139454Y-74912754D01*
X156095998Y-75056015D01*
X156081324Y-75205000D01*
X156085001Y-75242332D01*
X156085000Y-82350633D01*
X156018061Y-82363948D01*
X155502124Y-82577656D01*
X155037793Y-82887912D01*
X154642912Y-83282793D01*
X154332656Y-83747124D01*
X154118948Y-84263061D01*
X154010000Y-84810777D01*
X153745000Y-84810777D01*
X153745000Y-69249876D01*
X153748435Y-69215000D01*
X153734727Y-69075816D01*
X153694128Y-68941980D01*
X153628200Y-68818637D01*
X153539475Y-68710525D01*
X153514466Y-68690000D01*
X161061928Y-68690000D01*
X161065000Y-68814250D01*
X161223750Y-68973000D01*
X162473000Y-68973000D01*
X162473000Y-68213750D01*
X162314250Y-68055000D01*
X161700000Y-68051928D01*
X161575518Y-68064188D01*
X161455820Y-68100498D01*
X161345506Y-68159463D01*
X161248815Y-68238815D01*
X161169463Y-68335506D01*
X161110498Y-68445820D01*
X161074188Y-68565518D01*
X161061928Y-68690000D01*
X153514466Y-68690000D01*
X153431363Y-68621800D01*
X153308020Y-68555872D01*
X153174184Y-68515273D01*
X153069877Y-68505000D01*
X153035000Y-68501565D01*
X153000123Y-68505000D01*
X150551438Y-68505000D01*
X150538133Y-68502871D01*
X150481651Y-68505000D01*
X150460123Y-68505000D01*
X150446775Y-68506315D01*
X150398375Y-68508139D01*
X150377343Y-68513153D01*
X150355816Y-68515273D01*
X150309454Y-68529337D01*
X150262329Y-68540571D01*
X150242674Y-68549595D01*
X150221980Y-68555872D01*
X150179245Y-68578715D01*
X150167076Y-68584301D01*
X150148523Y-68595136D01*
X150098637Y-68621800D01*
X150088212Y-68630355D01*
X112587854Y-90529551D01*
X112243992Y-90661307D01*
X111892664Y-90721772D01*
X111536289Y-90712844D01*
X111188433Y-90634867D01*
X110862348Y-90490808D01*
X110570451Y-90286154D01*
X110323870Y-90028708D01*
X110131986Y-89728264D01*
X110002114Y-89396275D01*
X109935547Y-89025011D01*
X109930000Y-88885847D01*
X109930000Y-84810777D01*
X110195000Y-84810777D01*
X110195000Y-85369223D01*
X110303948Y-85916939D01*
X110517656Y-86432876D01*
X110827912Y-86897207D01*
X111222793Y-87292088D01*
X111687124Y-87602344D01*
X112203061Y-87816052D01*
X112750777Y-87925000D01*
X113309223Y-87925000D01*
X113856939Y-87816052D01*
X114372876Y-87602344D01*
X114837207Y-87292088D01*
X115232088Y-86897207D01*
X115542344Y-86432876D01*
X115756052Y-85916939D01*
X115865000Y-85369223D01*
X115865000Y-84810777D01*
X115756052Y-84263061D01*
X115542344Y-83747124D01*
X115232088Y-83282793D01*
X114837207Y-82887912D01*
X114372876Y-82577656D01*
X113856939Y-82363948D01*
X113790000Y-82350633D01*
X113790000Y-75519801D01*
X117694130Y-71615673D01*
X117760518Y-71635812D01*
X117885000Y-71648072D01*
X118956272Y-71648072D01*
X119004333Y-71737989D01*
X119091183Y-71843817D01*
X119197011Y-71930667D01*
X119317748Y-71995202D01*
X119448756Y-72034943D01*
X119585000Y-72048362D01*
X119619134Y-72045000D01*
X122950866Y-72045000D01*
X122985000Y-72048362D01*
X123121244Y-72034943D01*
X123252252Y-71995202D01*
X123372989Y-71930667D01*
X123478817Y-71843817D01*
X123565667Y-71737989D01*
X123613728Y-71648072D01*
X124685000Y-71648072D01*
X124809482Y-71635812D01*
X124929180Y-71599502D01*
X125039494Y-71540537D01*
X125136185Y-71461185D01*
X125157674Y-71435000D01*
X143353982Y-71435000D01*
X143395000Y-71439040D01*
X143436018Y-71435000D01*
X143436019Y-71435000D01*
X143558689Y-71422918D01*
X143716087Y-71375172D01*
X143861146Y-71297636D01*
X143988291Y-71193291D01*
X144014446Y-71161421D01*
X145350185Y-69825683D01*
X145858061Y-70036052D01*
X146405777Y-70145000D01*
X146964223Y-70145000D01*
X147511939Y-70036052D01*
X148027876Y-69822344D01*
X148492207Y-69512088D01*
X148887088Y-69117207D01*
X149197344Y-68652876D01*
X149411052Y-68136939D01*
X149520000Y-67589223D01*
X149520000Y-67030777D01*
X149411052Y-66483061D01*
X149197344Y-65967124D01*
X148887088Y-65502793D01*
X148492207Y-65107912D01*
X148027876Y-64797656D01*
X147511939Y-64583948D01*
X146964223Y-64475000D01*
X146405777Y-64475000D01*
X145858061Y-64583948D01*
X145350185Y-64794317D01*
X143457740Y-62901873D01*
X143551185Y-62825185D01*
X143575458Y-62795608D01*
X143663689Y-62786918D01*
X143821087Y-62739172D01*
X143966146Y-62661636D01*
X144093291Y-62557291D01*
X144119446Y-62525421D01*
X145758447Y-60886421D01*
X145790310Y-60860272D01*
X145894655Y-60733127D01*
X145972191Y-60588068D01*
X146019937Y-60430670D01*
X146032019Y-60308000D01*
X146032019Y-60307990D01*
X146036058Y-60266982D01*
X146032019Y-60225974D01*
X146032019Y-24840026D01*
X146036058Y-24799018D01*
X146032019Y-24758010D01*
X146032019Y-24758000D01*
X146019937Y-24635330D01*
X145972191Y-24477932D01*
X145894655Y-24332873D01*
X145790310Y-24205728D01*
X145758445Y-24179578D01*
X144246185Y-22667318D01*
X144275172Y-22613087D01*
X144322918Y-22455689D01*
X144339040Y-22292000D01*
X144334999Y-22250973D01*
X144335000Y-20955000D01*
X149781565Y-20955000D01*
X149785001Y-20989887D01*
X149785000Y-66640123D01*
X149781565Y-66675000D01*
X149795273Y-66814184D01*
X149835872Y-66948020D01*
X149901800Y-67071363D01*
X149990525Y-67179475D01*
X150098637Y-67268200D01*
X150221980Y-67334128D01*
X150355816Y-67374727D01*
X150495000Y-67388435D01*
X150529877Y-67385000D01*
X153000123Y-67385000D01*
X153035000Y-67388435D01*
X153069877Y-67385000D01*
X153174184Y-67374727D01*
X153308020Y-67334128D01*
X153431363Y-67268200D01*
X153539475Y-67179475D01*
X153628200Y-67071363D01*
X153694128Y-66948020D01*
X153734727Y-66814184D01*
X153748435Y-66675000D01*
X153745000Y-66640123D01*
X153745000Y-60054000D01*
X179476928Y-60054000D01*
X179480000Y-60178250D01*
X179638750Y-60337000D01*
X180888000Y-60337000D01*
X180888000Y-59577750D01*
X180729250Y-59419000D01*
X180115000Y-59415928D01*
X179990518Y-59428188D01*
X179870820Y-59464498D01*
X179760506Y-59523463D01*
X179663815Y-59602815D01*
X179584463Y-59699506D01*
X179525498Y-59809820D01*
X179489188Y-59929518D01*
X179476928Y-60054000D01*
X153745000Y-60054000D01*
X153745000Y-20989877D01*
X153748435Y-20955000D01*
X153734727Y-20815816D01*
X153694128Y-20681980D01*
X153628200Y-20558637D01*
X153539475Y-20450525D01*
X153431363Y-20361800D01*
X153308020Y-20295872D01*
X153174184Y-20255273D01*
X153069877Y-20245000D01*
X153035000Y-20241565D01*
X153000123Y-20245000D01*
X150529877Y-20245000D01*
X150495000Y-20241565D01*
X150460123Y-20245000D01*
X150355816Y-20255273D01*
X150221980Y-20295872D01*
X150098637Y-20361800D01*
X149990525Y-20450525D01*
X149901800Y-20558637D01*
X149835872Y-20681980D01*
X149795273Y-20815816D01*
X149781565Y-20955000D01*
X144335000Y-20955000D01*
X144335001Y-20913018D01*
X144339041Y-20871998D01*
X144322919Y-20708310D01*
X144275173Y-20550912D01*
X144197637Y-20405853D01*
X144119439Y-20310569D01*
X144119438Y-20310568D01*
X144093292Y-20278709D01*
X144061433Y-20252563D01*
X143189429Y-19380560D01*
X143163274Y-19348690D01*
X143036129Y-19244345D01*
X142891070Y-19166809D01*
X142733672Y-19119063D01*
X142611002Y-19106981D01*
X142611001Y-19106981D01*
X142569983Y-19102941D01*
X142528965Y-19106981D01*
X117848559Y-19106981D01*
X117807541Y-19102941D01*
X117766523Y-19106981D01*
X117766522Y-19106981D01*
X117643852Y-19119063D01*
X117587926Y-19136028D01*
X117486454Y-19166809D01*
X117341395Y-19244345D01*
X117272384Y-19300981D01*
X117214250Y-19348690D01*
X117188104Y-19380549D01*
X116278574Y-20290081D01*
X116246710Y-20316231D01*
X116171294Y-20408126D01*
X116142364Y-20443377D01*
X116064828Y-20588436D01*
X116017082Y-20745834D01*
X116000960Y-20909522D01*
X116005001Y-20950550D01*
X116005000Y-23008457D01*
X116000960Y-23049476D01*
X116011550Y-23157000D01*
X116017082Y-23213164D01*
X116064828Y-23370562D01*
X116142364Y-23515621D01*
X116246709Y-23642767D01*
X116278578Y-23668921D01*
X117483097Y-24873442D01*
X117509243Y-24905301D01*
X117636388Y-25009646D01*
X117781447Y-25087182D01*
X117938845Y-25134928D01*
X118061515Y-25147010D01*
X118061516Y-25147010D01*
X118102534Y-25151050D01*
X118143552Y-25147010D01*
X123343972Y-25147010D01*
X123384990Y-25151050D01*
X123426008Y-25147010D01*
X123426009Y-25147010D01*
X123548679Y-25134928D01*
X123706077Y-25087182D01*
X123851136Y-25009646D01*
X123978281Y-24905301D01*
X124004435Y-24873432D01*
X124346426Y-24531442D01*
X124378291Y-24505291D01*
X124482636Y-24378146D01*
X124560172Y-24233087D01*
X124585354Y-24150072D01*
X124685000Y-24150072D01*
X124809482Y-24137812D01*
X124929180Y-24101502D01*
X125039494Y-24042537D01*
X125136185Y-23963185D01*
X125215537Y-23866494D01*
X125274502Y-23756180D01*
X125310812Y-23636482D01*
X125323072Y-23512000D01*
X125323072Y-22692000D01*
X125310812Y-22567518D01*
X125274502Y-22447820D01*
X125223284Y-22352000D01*
X125274502Y-22256180D01*
X125310812Y-22136482D01*
X125323072Y-22012000D01*
X125323072Y-21226990D01*
X135662793Y-21226990D01*
X135665000Y-21316250D01*
X135823750Y-21475000D01*
X137073000Y-21475000D01*
X137073000Y-21455000D01*
X137305001Y-21455000D01*
X137305001Y-21749000D01*
X137073000Y-21749000D01*
X137073000Y-21729000D01*
X135823750Y-21729000D01*
X135665000Y-21887750D01*
X135661928Y-22012000D01*
X135674188Y-22136482D01*
X135710498Y-22256180D01*
X135761716Y-22352000D01*
X135710498Y-22447820D01*
X135674188Y-22567518D01*
X135661928Y-22692000D01*
X135661928Y-23512000D01*
X135674188Y-23636482D01*
X135710498Y-23756180D01*
X135769463Y-23866494D01*
X135848815Y-23963185D01*
X135945506Y-24042537D01*
X136055820Y-24101502D01*
X136175518Y-24137812D01*
X136300000Y-24150072D01*
X136545674Y-24150072D01*
X136565026Y-24186276D01*
X136607138Y-24237589D01*
X136660000Y-24302001D01*
X136688998Y-24325799D01*
X143912009Y-31548812D01*
X143912009Y-33580000D01*
X117382877Y-33580000D01*
X117348000Y-33576565D01*
X117313123Y-33580000D01*
X117208816Y-33590273D01*
X117074980Y-33630872D01*
X116951637Y-33696800D01*
X116843525Y-33785525D01*
X116754800Y-33893637D01*
X116688872Y-34016980D01*
X116648273Y-34150816D01*
X116634565Y-34290000D01*
X116638000Y-34324877D01*
X116638001Y-52035113D01*
X116634565Y-52070000D01*
X116648273Y-52209184D01*
X116688872Y-52343020D01*
X116754800Y-52466363D01*
X116843525Y-52574475D01*
X116951637Y-52663200D01*
X117074980Y-52729128D01*
X117208816Y-52769727D01*
X117313123Y-52780000D01*
X117348000Y-52783435D01*
X117382877Y-52780000D01*
X143912011Y-52780000D01*
X143912011Y-57017187D01*
X141792315Y-59136884D01*
X141787989Y-59133333D01*
X141667252Y-59068798D01*
X141536244Y-59029057D01*
X141434135Y-59019000D01*
X141434134Y-59019000D01*
X141400000Y-59015638D01*
X141365865Y-59019000D01*
X138034135Y-59019000D01*
X138000000Y-59015638D01*
X137965866Y-59019000D01*
X137965865Y-59019000D01*
X137863756Y-59029057D01*
X137732748Y-59068798D01*
X137612011Y-59133333D01*
X137506183Y-59220183D01*
X137419333Y-59326011D01*
X137354798Y-59446748D01*
X137315057Y-59577756D01*
X137301638Y-59714000D01*
X137305001Y-59748145D01*
X137305001Y-60611000D01*
X137073000Y-60611000D01*
X137073000Y-60591000D01*
X135823750Y-60591000D01*
X135665000Y-60749750D01*
X135661928Y-60874000D01*
X135674188Y-60998482D01*
X135710498Y-61118180D01*
X135761716Y-61214000D01*
X135710498Y-61309820D01*
X135674188Y-61429518D01*
X135661928Y-61554000D01*
X135661928Y-62374000D01*
X135674188Y-62498482D01*
X135710498Y-62618180D01*
X135769463Y-62728494D01*
X135848815Y-62825185D01*
X135890117Y-62859081D01*
X130409199Y-68340000D01*
X125217939Y-68340000D01*
X125215537Y-68335506D01*
X125136185Y-68238815D01*
X125039494Y-68159463D01*
X124929180Y-68100498D01*
X124809482Y-68064188D01*
X124685000Y-68051928D01*
X123613728Y-68051928D01*
X123565667Y-67962011D01*
X123478817Y-67856183D01*
X123372989Y-67769333D01*
X123252252Y-67704798D01*
X123121244Y-67665057D01*
X123019135Y-67655000D01*
X123019134Y-67655000D01*
X122985000Y-67651638D01*
X122950865Y-67655000D01*
X119619135Y-67655000D01*
X119585000Y-67651638D01*
X119550866Y-67655000D01*
X119550865Y-67655000D01*
X119448756Y-67665057D01*
X119317748Y-67704798D01*
X119197011Y-67769333D01*
X119091183Y-67856183D01*
X119004333Y-67962011D01*
X118939798Y-68082748D01*
X118900057Y-68213756D01*
X118886638Y-68350000D01*
X118890001Y-68384145D01*
X118890001Y-69247000D01*
X118658000Y-69247000D01*
X118658000Y-69227000D01*
X117408750Y-69227000D01*
X117250000Y-69385750D01*
X117246928Y-69510000D01*
X117259188Y-69634482D01*
X117295498Y-69754180D01*
X117346716Y-69850000D01*
X117315035Y-69909270D01*
X117210724Y-69965026D01*
X117210722Y-69965027D01*
X117210723Y-69965027D01*
X117123996Y-70036201D01*
X117123992Y-70036205D01*
X117094999Y-70059999D01*
X117071205Y-70088992D01*
X112518998Y-74641201D01*
X112490000Y-74664999D01*
X112466202Y-74693997D01*
X112466201Y-74693998D01*
X112395026Y-74780724D01*
X112324454Y-74912754D01*
X112280998Y-75056015D01*
X112266324Y-75205000D01*
X112270001Y-75242332D01*
X112270000Y-82350633D01*
X112203061Y-82363948D01*
X111687124Y-82577656D01*
X111222793Y-82887912D01*
X110827912Y-83282793D01*
X110517656Y-83747124D01*
X110303948Y-84263061D01*
X110195000Y-84810777D01*
X109930000Y-84810777D01*
X109930000Y-68690000D01*
X117246928Y-68690000D01*
X117250000Y-68814250D01*
X117408750Y-68973000D01*
X118658000Y-68973000D01*
X118658000Y-68213750D01*
X118499250Y-68055000D01*
X117885000Y-68051928D01*
X117760518Y-68064188D01*
X117640820Y-68100498D01*
X117530506Y-68159463D01*
X117433815Y-68238815D01*
X117354463Y-68335506D01*
X117295498Y-68445820D01*
X117259188Y-68565518D01*
X117246928Y-68690000D01*
X109930000Y-68690000D01*
X109930000Y-60054000D01*
X135661928Y-60054000D01*
X135665000Y-60178250D01*
X135823750Y-60337000D01*
X137073000Y-60337000D01*
X137073000Y-59577750D01*
X136914250Y-59419000D01*
X136300000Y-59415928D01*
X136175518Y-59428188D01*
X136055820Y-59464498D01*
X135945506Y-59523463D01*
X135848815Y-59602815D01*
X135769463Y-59699506D01*
X135710498Y-59809820D01*
X135674188Y-59929518D01*
X135661928Y-60054000D01*
X109930000Y-60054000D01*
X109930000Y-18499775D01*
X111219830Y-18499775D01*
X111459976Y-18887018D01*
X111953877Y-19147641D01*
X112489133Y-19306901D01*
X113045174Y-19358678D01*
X113600632Y-19300981D01*
X114134161Y-19136028D01*
X114600024Y-18887018D01*
X114840170Y-18499775D01*
X155034830Y-18499775D01*
X155274976Y-18887018D01*
X155768877Y-19147641D01*
X156304133Y-19306901D01*
X156860174Y-19358678D01*
X157415632Y-19300981D01*
X157949161Y-19136028D01*
X158415024Y-18887018D01*
X158655170Y-18499775D01*
X156845000Y-16689605D01*
X155034830Y-18499775D01*
X114840170Y-18499775D01*
X113030000Y-16689605D01*
X111219830Y-18499775D01*
X109930000Y-18499775D01*
X109930000Y-17811618D01*
X110001842Y-17006642D01*
X110205970Y-16260474D01*
X110181322Y-16525174D01*
X110239019Y-17080632D01*
X110403972Y-17614161D01*
X110652982Y-18080024D01*
X111040225Y-18320170D01*
X112850395Y-16510000D01*
X113209605Y-16510000D01*
X115019775Y-18320170D01*
X115407018Y-18080024D01*
X115667641Y-17586123D01*
X115826901Y-17050867D01*
X115878678Y-16494826D01*
X115820981Y-15939368D01*
X115656028Y-15405839D01*
X115407018Y-14939976D01*
X115019775Y-14699830D01*
X113209605Y-16510000D01*
X112850395Y-16510000D01*
X112836253Y-16495858D01*
X113015858Y-16316253D01*
X113030000Y-16330395D01*
X114840170Y-14520225D01*
X114600024Y-14132982D01*
X114106123Y-13872359D01*
X113570867Y-13713099D01*
X113014826Y-13661322D01*
X112812773Y-13682310D01*
X112907044Y-13640927D01*
X113667493Y-13458360D01*
X114326031Y-13410000D01*
X145383382Y-13410000D01*
X146188358Y-13481842D01*
G36*
X137612011Y-63294667D02*
G01*
X137732748Y-63359202D01*
X137863756Y-63398943D01*
X138000000Y-63412362D01*
X138034134Y-63409000D01*
X141365866Y-63409000D01*
X141400000Y-63412362D01*
X141536244Y-63398943D01*
X141579950Y-63385685D01*
X141606709Y-63418291D01*
X141638579Y-63444446D01*
X144169317Y-65975185D01*
X143958948Y-66483061D01*
X143850000Y-67030777D01*
X143850000Y-67589223D01*
X143958948Y-68136939D01*
X144169317Y-68644815D01*
X143049133Y-69765000D01*
X131092102Y-69765000D01*
X131148276Y-69734974D01*
X131264001Y-69640001D01*
X131287804Y-69610997D01*
X137607685Y-63291117D01*
X137612011Y-63294667D01*
G37*
X137612011Y-63294667D02*
X137732748Y-63359202D01*
X137863756Y-63398943D01*
X138000000Y-63412362D01*
X138034134Y-63409000D01*
X141365866Y-63409000D01*
X141400000Y-63412362D01*
X141536244Y-63398943D01*
X141579950Y-63385685D01*
X141606709Y-63418291D01*
X141638579Y-63444446D01*
X144169317Y-65975185D01*
X143958948Y-66483061D01*
X143850000Y-67030777D01*
X143850000Y-67589223D01*
X143958948Y-68136939D01*
X144169317Y-68644815D01*
X143049133Y-69765000D01*
X131092102Y-69765000D01*
X131148276Y-69734974D01*
X131264001Y-69640001D01*
X131287804Y-69610997D01*
X137607685Y-63291117D01*
X137612011Y-63294667D01*
G36*
X144362020Y-25144888D02*
G01*
X144362020Y-29849217D01*
X139059801Y-24547000D01*
X141365866Y-24547000D01*
X141400000Y-24550362D01*
X141536244Y-24536943D01*
X141667252Y-24497202D01*
X141787989Y-24432667D01*
X141893817Y-24345817D01*
X141980667Y-24239989D01*
X142028728Y-24150072D01*
X143100000Y-24150072D01*
X143224482Y-24137812D01*
X143324580Y-24107448D01*
X144362020Y-25144888D01*
G37*
X144362020Y-25144888D02*
X144362020Y-29849217D01*
X139059801Y-24547000D01*
X141365866Y-24547000D01*
X141400000Y-24550362D01*
X141536244Y-24536943D01*
X141667252Y-24497202D01*
X141787989Y-24432667D01*
X141893817Y-24345817D01*
X141980667Y-24239989D01*
X142028728Y-24150072D01*
X143100000Y-24150072D01*
X143224482Y-24137812D01*
X143324580Y-24107448D01*
X144362020Y-25144888D01*
G36*
X118890001Y-21749000D02*
G01*
X118658000Y-21749000D01*
X118658000Y-21729000D01*
X118638000Y-21729000D01*
X118638000Y-21475000D01*
X118658000Y-21475000D01*
X118658000Y-21455000D01*
X118890001Y-21455000D01*
X118890001Y-21749000D01*
G37*
X118890001Y-21749000D02*
X118658000Y-21749000D01*
X118658000Y-21729000D01*
X118638000Y-21729000D01*
X118638000Y-21475000D01*
X118658000Y-21475000D01*
X118658000Y-21455000D01*
X118890001Y-21455000D01*
X118890001Y-21749000D01*
G36*
X181427011Y-63294667D02*
G01*
X181547748Y-63359202D01*
X181678756Y-63398943D01*
X181815000Y-63412362D01*
X181849134Y-63409000D01*
X185180866Y-63409000D01*
X185215000Y-63412362D01*
X185351244Y-63398943D01*
X185394950Y-63385685D01*
X185421709Y-63418291D01*
X185453579Y-63444446D01*
X187984317Y-65975185D01*
X187773948Y-66483061D01*
X187665000Y-67030777D01*
X187665000Y-67589223D01*
X187773948Y-68136939D01*
X187984317Y-68644815D01*
X186864133Y-69765000D01*
X174907102Y-69765000D01*
X174963276Y-69734974D01*
X175079001Y-69640001D01*
X175102804Y-69610997D01*
X181422685Y-63291117D01*
X181427011Y-63294667D01*
G37*
X181427011Y-63294667D02*
X181547748Y-63359202D01*
X181678756Y-63398943D01*
X181815000Y-63412362D01*
X181849134Y-63409000D01*
X185180866Y-63409000D01*
X185215000Y-63412362D01*
X185351244Y-63398943D01*
X185394950Y-63385685D01*
X185421709Y-63418291D01*
X185453579Y-63444446D01*
X187984317Y-65975185D01*
X187773948Y-66483061D01*
X187665000Y-67030777D01*
X187665000Y-67589223D01*
X187773948Y-68136939D01*
X187984317Y-68644815D01*
X186864133Y-69765000D01*
X174907102Y-69765000D01*
X174963276Y-69734974D01*
X175079001Y-69640001D01*
X175102804Y-69610997D01*
X181422685Y-63291117D01*
X181427011Y-63294667D01*
G36*
X188177020Y-25144888D02*
G01*
X188177020Y-29849217D01*
X182874801Y-24547000D01*
X185180866Y-24547000D01*
X185215000Y-24550362D01*
X185351244Y-24536943D01*
X185482252Y-24497202D01*
X185602989Y-24432667D01*
X185708817Y-24345817D01*
X185795667Y-24239989D01*
X185843728Y-24150072D01*
X186915000Y-24150072D01*
X187039482Y-24137812D01*
X187139580Y-24107448D01*
X188177020Y-25144888D01*
G37*
X188177020Y-25144888D02*
X188177020Y-29849217D01*
X182874801Y-24547000D01*
X185180866Y-24547000D01*
X185215000Y-24550362D01*
X185351244Y-24536943D01*
X185482252Y-24497202D01*
X185602989Y-24432667D01*
X185708817Y-24345817D01*
X185795667Y-24239989D01*
X185843728Y-24150072D01*
X186915000Y-24150072D01*
X187039482Y-24137812D01*
X187139580Y-24107448D01*
X188177020Y-25144888D01*
G36*
X162705001Y-21749000D02*
G01*
X162473000Y-21749000D01*
X162473000Y-21729000D01*
X162453000Y-21729000D01*
X162453000Y-21475000D01*
X162473000Y-21475000D01*
X162473000Y-21455000D01*
X162705001Y-21455000D01*
X162705001Y-21749000D01*
G37*
X162705001Y-21749000D02*
X162473000Y-21749000D01*
X162473000Y-21729000D01*
X162453000Y-21729000D01*
X162453000Y-21475000D01*
X162473000Y-21475000D01*
X162473000Y-21455000D01*
X162705001Y-21455000D01*
X162705001Y-21749000D01*
M02*
