M48
; DRILL file {KiCad 5.1.5+dfsg1-2build2} date 2020年12月13日 19時06分03秒
; FORMAT={-:-/ absolute / inch / decimal}
; #@! TF.CreationDate,2020-12-13T19:06:03+09:00
; #@! TF.GenerationSoftware,Kicad,Pcbnew,5.1.5+dfsg1-2build2
FMAT,2
INCH
T1C0.0157
T2C0.0866
%
G90
G05
T1
X4.675Y-0.85
X4.675Y-2.725
X5.4Y-0.85
X5.4Y-2.375
X5.45Y-2.625
X5.625Y-1.025
X6.4Y-0.85
X6.4Y-2.725
X7.125Y-0.85
X7.125Y-2.375
X7.175Y-2.625
X7.35Y-1.025
X4.385Y-0.65
X4.4041Y-0.6041
X4.4041Y-0.6959
X4.45Y-0.585
X4.45Y-0.715
X4.4959Y-0.6041
X4.4959Y-0.6959
X4.515Y-0.65
X5.71Y-2.65
X5.7291Y-2.6041
X5.7291Y-2.6959
X5.775Y-2.585
X5.775Y-2.715
X5.8209Y-2.6041
X5.8209Y-2.6959
X5.84Y-2.65
X4.385Y-3.35
X4.4041Y-3.3041
X4.4041Y-3.3959
X4.45Y-3.285
X4.45Y-3.415
X4.4959Y-3.3041
X4.4959Y-3.3959
X4.515Y-3.35
X6.11Y-3.35
X6.1291Y-3.3041
X6.1291Y-3.3959
X6.175Y-3.285
X6.175Y-3.415
X6.2209Y-3.3041
X6.2209Y-3.3959
X6.24Y-3.35
X7.435Y-2.65
X7.4541Y-2.6041
X7.4541Y-2.6959
X7.5Y-2.585
X7.5Y-2.715
X7.5459Y-2.6041
X7.5459Y-2.6959
X7.565Y-2.65
X6.11Y-0.65
X6.1291Y-0.6041
X6.1291Y-0.6959
X6.175Y-0.585
X6.175Y-0.715
X6.2209Y-0.6041
X6.2209Y-0.6959
X6.24Y-0.65
T2
X4.45Y-0.65
X5.775Y-2.65
X4.45Y-3.35
X6.175Y-3.35
X7.5Y-2.65
X6.175Y-0.65
T0
M30
