G04 #@! TF.GenerationSoftware,KiCad,Pcbnew,5.1.5+dfsg1-2build2*
G04 #@! TF.CreationDate,2020-12-13T19:06:00+09:00*
G04 #@! TF.ProjectId,shield,73686965-6c64-42e6-9b69-6361645f7063,rev?*
G04 #@! TF.SameCoordinates,Original*
G04 #@! TF.FileFunction,Soldermask,Top*
G04 #@! TF.FilePolarity,Negative*
%FSLAX46Y46*%
G04 Gerber Fmt 4.6, Leading zero omitted, Abs format (unit mm)*
G04 Created by KiCad (PCBNEW 5.1.5+dfsg1-2build2) date 2020-12-13 19:06:00*
%MOMM*%
%LPD*%
G04 APERTURE LIST*
%ADD10C,0.100000*%
G04 APERTURE END LIST*
D10*
G36*
X194310000Y-69215000D02*
G01*
X156210000Y-91440000D01*
X153035000Y-91440000D01*
X153035000Y-69215000D01*
X150495000Y-69215000D01*
X113030000Y-91440000D01*
X109220000Y-91440000D01*
X109220000Y-12700000D01*
X194310000Y-12700000D01*
X194310000Y-69215000D01*
G37*
X194310000Y-69215000D02*
X156210000Y-91440000D01*
X153035000Y-91440000D01*
X153035000Y-69215000D01*
X150495000Y-69215000D01*
X113030000Y-91440000D01*
X109220000Y-91440000D01*
X109220000Y-12700000D01*
X194310000Y-12700000D01*
X194310000Y-69215000D01*
G36*
X100330000Y-91440000D02*
G01*
X97155000Y-91440000D01*
X59055000Y-69215000D01*
X56515000Y-69215000D01*
X56515000Y-91440000D01*
X53340000Y-91440000D01*
X15240000Y-69215000D01*
X15240000Y-12700000D01*
X100330000Y-12700000D01*
X100330000Y-91440000D01*
G37*
X100330000Y-91440000D02*
X97155000Y-91440000D01*
X59055000Y-69215000D01*
X56515000Y-69215000D01*
X56515000Y-91440000D01*
X53340000Y-91440000D01*
X15240000Y-69215000D01*
X15240000Y-12700000D01*
X100330000Y-12700000D01*
X100330000Y-91440000D01*
G36*
X113305880Y-82849776D02*
G01*
X113686593Y-82925504D01*
X114096249Y-83095189D01*
X114464929Y-83341534D01*
X114778466Y-83655071D01*
X115024811Y-84023751D01*
X115194496Y-84433407D01*
X115281000Y-84868296D01*
X115281000Y-85311704D01*
X115194496Y-85746593D01*
X115024811Y-86156249D01*
X114778466Y-86524929D01*
X114464929Y-86838466D01*
X114096249Y-87084811D01*
X113686593Y-87254496D01*
X113305880Y-87330224D01*
X113251705Y-87341000D01*
X112808295Y-87341000D01*
X112754120Y-87330224D01*
X112373407Y-87254496D01*
X111963751Y-87084811D01*
X111595071Y-86838466D01*
X111281534Y-86524929D01*
X111035189Y-86156249D01*
X110865504Y-85746593D01*
X110779000Y-85311704D01*
X110779000Y-84868296D01*
X110865504Y-84433407D01*
X111035189Y-84023751D01*
X111281534Y-83655071D01*
X111595071Y-83341534D01*
X111963751Y-83095189D01*
X112373407Y-82925504D01*
X112754120Y-82849776D01*
X112808295Y-82839000D01*
X113251705Y-82839000D01*
X113305880Y-82849776D01*
G37*
G36*
X157120880Y-82849776D02*
G01*
X157501593Y-82925504D01*
X157911249Y-83095189D01*
X158279929Y-83341534D01*
X158593466Y-83655071D01*
X158839811Y-84023751D01*
X159009496Y-84433407D01*
X159096000Y-84868296D01*
X159096000Y-85311704D01*
X159009496Y-85746593D01*
X158839811Y-86156249D01*
X158593466Y-86524929D01*
X158279929Y-86838466D01*
X157911249Y-87084811D01*
X157501593Y-87254496D01*
X157120880Y-87330224D01*
X157066705Y-87341000D01*
X156623295Y-87341000D01*
X156569120Y-87330224D01*
X156188407Y-87254496D01*
X155778751Y-87084811D01*
X155410071Y-86838466D01*
X155096534Y-86524929D01*
X154850189Y-86156249D01*
X154680504Y-85746593D01*
X154594000Y-85311704D01*
X154594000Y-84868296D01*
X154680504Y-84433407D01*
X154850189Y-84023751D01*
X155096534Y-83655071D01*
X155410071Y-83341534D01*
X155778751Y-83095189D01*
X156188407Y-82925504D01*
X156569120Y-82849776D01*
X156623295Y-82839000D01*
X157066705Y-82839000D01*
X157120880Y-82849776D01*
G37*
G36*
X146960880Y-65069776D02*
G01*
X147341593Y-65145504D01*
X147751249Y-65315189D01*
X148119929Y-65561534D01*
X148433466Y-65875071D01*
X148679811Y-66243751D01*
X148849496Y-66653407D01*
X148936000Y-67088296D01*
X148936000Y-67531704D01*
X148849496Y-67966593D01*
X148679811Y-68376249D01*
X148433466Y-68744929D01*
X148119929Y-69058466D01*
X147751249Y-69304811D01*
X147341593Y-69474496D01*
X146960880Y-69550224D01*
X146906705Y-69561000D01*
X146463295Y-69561000D01*
X146409120Y-69550224D01*
X146028407Y-69474496D01*
X145618751Y-69304811D01*
X145250071Y-69058466D01*
X144936534Y-68744929D01*
X144690189Y-68376249D01*
X144520504Y-67966593D01*
X144434000Y-67531704D01*
X144434000Y-67088296D01*
X144520504Y-66653407D01*
X144690189Y-66243751D01*
X144936534Y-65875071D01*
X145250071Y-65561534D01*
X145618751Y-65315189D01*
X146028407Y-65145504D01*
X146409120Y-65069776D01*
X146463295Y-65059000D01*
X146906705Y-65059000D01*
X146960880Y-65069776D01*
G37*
G36*
X190775880Y-65069776D02*
G01*
X191156593Y-65145504D01*
X191566249Y-65315189D01*
X191934929Y-65561534D01*
X192248466Y-65875071D01*
X192494811Y-66243751D01*
X192664496Y-66653407D01*
X192751000Y-67088296D01*
X192751000Y-67531704D01*
X192664496Y-67966593D01*
X192494811Y-68376249D01*
X192248466Y-68744929D01*
X191934929Y-69058466D01*
X191566249Y-69304811D01*
X191156593Y-69474496D01*
X190775880Y-69550224D01*
X190721705Y-69561000D01*
X190278295Y-69561000D01*
X190224120Y-69550224D01*
X189843407Y-69474496D01*
X189433751Y-69304811D01*
X189065071Y-69058466D01*
X188751534Y-68744929D01*
X188505189Y-68376249D01*
X188335504Y-67966593D01*
X188249000Y-67531704D01*
X188249000Y-67088296D01*
X188335504Y-66653407D01*
X188505189Y-66243751D01*
X188751534Y-65875071D01*
X189065071Y-65561534D01*
X189433751Y-65315189D01*
X189843407Y-65145504D01*
X190224120Y-65069776D01*
X190278295Y-65059000D01*
X190721705Y-65059000D01*
X190775880Y-65069776D01*
G37*
G36*
X113305880Y-14269776D02*
G01*
X113686593Y-14345504D01*
X114096249Y-14515189D01*
X114464929Y-14761534D01*
X114778466Y-15075071D01*
X115024811Y-15443751D01*
X115194496Y-15853407D01*
X115281000Y-16288296D01*
X115281000Y-16731704D01*
X115194496Y-17166593D01*
X115024811Y-17576249D01*
X114778466Y-17944929D01*
X114464929Y-18258466D01*
X114096249Y-18504811D01*
X113686593Y-18674496D01*
X113305880Y-18750224D01*
X113251705Y-18761000D01*
X112808295Y-18761000D01*
X112754120Y-18750224D01*
X112373407Y-18674496D01*
X111963751Y-18504811D01*
X111595071Y-18258466D01*
X111281534Y-17944929D01*
X111035189Y-17576249D01*
X110865504Y-17166593D01*
X110779000Y-16731704D01*
X110779000Y-16288296D01*
X110865504Y-15853407D01*
X111035189Y-15443751D01*
X111281534Y-15075071D01*
X111595071Y-14761534D01*
X111963751Y-14515189D01*
X112373407Y-14345504D01*
X112754120Y-14269776D01*
X112808295Y-14259000D01*
X113251705Y-14259000D01*
X113305880Y-14269776D01*
G37*
G36*
X157120880Y-14269776D02*
G01*
X157501593Y-14345504D01*
X157911249Y-14515189D01*
X158279929Y-14761534D01*
X158593466Y-15075071D01*
X158839811Y-15443751D01*
X159009496Y-15853407D01*
X159096000Y-16288296D01*
X159096000Y-16731704D01*
X159009496Y-17166593D01*
X158839811Y-17576249D01*
X158593466Y-17944929D01*
X158279929Y-18258466D01*
X157911249Y-18504811D01*
X157501593Y-18674496D01*
X157120880Y-18750224D01*
X157066705Y-18761000D01*
X156623295Y-18761000D01*
X156569120Y-18750224D01*
X156188407Y-18674496D01*
X155778751Y-18504811D01*
X155410071Y-18258466D01*
X155096534Y-17944929D01*
X154850189Y-17576249D01*
X154680504Y-17166593D01*
X154594000Y-16731704D01*
X154594000Y-16288296D01*
X154680504Y-15853407D01*
X154850189Y-15443751D01*
X155096534Y-15075071D01*
X155410071Y-14761534D01*
X155778751Y-14515189D01*
X156188407Y-14345504D01*
X156569120Y-14269776D01*
X156623295Y-14259000D01*
X157066705Y-14259000D01*
X157120880Y-14269776D01*
G37*
M02*
