G04 #@! TF.GenerationSoftware,KiCad,Pcbnew,5.0.2-bee76a0~70~ubuntu18.04.1*
G04 #@! TF.CreationDate,2019-06-15T01:44:12+09:00*
G04 #@! TF.ProjectId,shield,73686965-6c64-42e6-9b69-6361645f7063,rev?*
G04 #@! TF.SameCoordinates,Original*
G04 #@! TF.FileFunction,Copper,L2,Bot*
G04 #@! TF.FilePolarity,Positive*
%FSLAX46Y46*%
G04 Gerber Fmt 4.6, Leading zero omitted, Abs format (unit mm)*
G04 Created by KiCad (PCBNEW 5.0.2-bee76a0~70~ubuntu18.04.1) date 2019年06月15日 01時44分12秒*
%MOMM*%
%LPD*%
G01*
G04 APERTURE LIST*
G04 #@! TA.AperFunction,SMDPad,CuDef*
%ADD10R,1.600000X1.000000*%
G04 #@! TD*
G04 #@! TA.AperFunction,ComponentPad*
%ADD11C,1.397000*%
G04 #@! TD*
G04 #@! TA.AperFunction,ComponentPad*
%ADD12C,3.470000*%
G04 #@! TD*
G04 #@! TA.AperFunction,ViaPad*
%ADD13C,0.800000*%
G04 #@! TD*
G04 #@! TA.AperFunction,Conductor*
%ADD14C,0.400000*%
G04 #@! TD*
G04 #@! TA.AperFunction,Conductor*
%ADD15C,0.250000*%
G04 #@! TD*
G04 #@! TA.AperFunction,Conductor*
%ADD16C,0.254000*%
G04 #@! TD*
G04 APERTURE END LIST*
D10*
G04 #@! TO.P,L1,2*
G04 #@! TO.N,GND*
X109360000Y-74535000D03*
G04 #@! TO.P,L1,1*
G04 #@! TO.N,Net-(L1-Pad1)*
X109360000Y-72785000D03*
G04 #@! TO.P,L1,4*
G04 #@! TO.N,VCC*
X114160000Y-72785000D03*
G04 #@! TO.P,L1,3*
G04 #@! TO.N,LED*
X114160000Y-74535000D03*
G04 #@! TD*
D11*
G04 #@! TO.P,GND,1*
G04 #@! TO.N,GND*
X133858000Y-67691000D03*
G04 #@! TD*
D10*
G04 #@! TO.P,L3,2*
G04 #@! TO.N,GND*
X116980000Y-40245000D03*
G04 #@! TO.P,L3,1*
G04 #@! TO.N,Net-(L3-Pad1)*
X116980000Y-38495000D03*
G04 #@! TO.P,L3,4*
G04 #@! TO.N,VCC*
X121780000Y-38495000D03*
G04 #@! TO.P,L3,3*
G04 #@! TO.N,Net-(L2-Pad1)*
X121780000Y-40245000D03*
G04 #@! TD*
D12*
G04 #@! TO.P,J5,1*
G04 #@! TO.N,GND*
X121285000Y-24130000D03*
G04 #@! TD*
G04 #@! TO.P,J4,1*
G04 #@! TO.N,VCC*
X104140000Y-92075000D03*
G04 #@! TD*
G04 #@! TO.P,J3,1*
G04 #@! TO.N,LED*
X133350000Y-75565000D03*
G04 #@! TD*
D11*
G04 #@! TO.P,VCC,1*
G04 #@! TO.N,VCC*
X129794000Y-67691000D03*
G04 #@! TD*
D10*
G04 #@! TO.P,L2,2*
G04 #@! TO.N,GND*
X123330000Y-56755000D03*
G04 #@! TO.P,L2,1*
G04 #@! TO.N,Net-(L2-Pad1)*
X123330000Y-55005000D03*
G04 #@! TO.P,L2,4*
G04 #@! TO.N,VCC*
X128130000Y-55005000D03*
G04 #@! TO.P,L2,3*
G04 #@! TO.N,Net-(L1-Pad1)*
X128130000Y-56755000D03*
G04 #@! TD*
D11*
G04 #@! TO.P,LED,1*
G04 #@! TO.N,LED*
X131826000Y-67691000D03*
G04 #@! TD*
G04 #@! TO.P,GND,1*
G04 #@! TO.N,GND*
X93853000Y-67691000D03*
G04 #@! TD*
G04 #@! TO.P,VCC,1*
G04 #@! TO.N,VCC*
X89789000Y-67691000D03*
G04 #@! TD*
G04 #@! TO.P,LED,1*
G04 #@! TO.N,LED*
X91821000Y-67691000D03*
G04 #@! TD*
D10*
G04 #@! TO.P,L1,3*
G04 #@! TO.N,LED*
X74155000Y-74535000D03*
G04 #@! TO.P,L1,4*
G04 #@! TO.N,VCC*
X74155000Y-72785000D03*
G04 #@! TO.P,L1,1*
G04 #@! TO.N,Net-(L1-Pad1)*
X69355000Y-72785000D03*
G04 #@! TO.P,L1,2*
G04 #@! TO.N,GND*
X69355000Y-74535000D03*
G04 #@! TD*
G04 #@! TO.P,L2,3*
G04 #@! TO.N,Net-(L1-Pad1)*
X88125000Y-56755000D03*
G04 #@! TO.P,L2,4*
G04 #@! TO.N,VCC*
X88125000Y-55005000D03*
G04 #@! TO.P,L2,1*
G04 #@! TO.N,Net-(L2-Pad1)*
X83325000Y-55005000D03*
G04 #@! TO.P,L2,2*
G04 #@! TO.N,GND*
X83325000Y-56755000D03*
G04 #@! TD*
G04 #@! TO.P,L3,3*
G04 #@! TO.N,Net-(L2-Pad1)*
X81775000Y-40245000D03*
G04 #@! TO.P,L3,4*
G04 #@! TO.N,VCC*
X81775000Y-38495000D03*
G04 #@! TO.P,L3,1*
G04 #@! TO.N,Net-(L3-Pad1)*
X76975000Y-38495000D03*
G04 #@! TO.P,L3,2*
G04 #@! TO.N,GND*
X76975000Y-40245000D03*
G04 #@! TD*
D12*
G04 #@! TO.P,J4,1*
G04 #@! TO.N,VCC*
X64135000Y-92075000D03*
G04 #@! TD*
G04 #@! TO.P,J5,1*
G04 #@! TO.N,GND*
X81280000Y-24130000D03*
G04 #@! TD*
G04 #@! TO.P,J3,1*
G04 #@! TO.N,LED*
X93345000Y-75565000D03*
G04 #@! TD*
D13*
G04 #@! TO.N,GND*
X97790000Y-34925000D03*
X99695000Y-34925000D03*
X97790000Y-76835000D03*
X99695000Y-76835000D03*
X90170000Y-72390000D03*
X85090000Y-52070000D03*
X130175000Y-72390000D03*
X125095000Y-52070000D03*
G04 #@! TD*
D14*
G04 #@! TO.N,VCC*
X88425000Y-55005000D02*
X88125000Y-55005000D01*
X89325001Y-57914999D02*
X89325000Y-55905000D01*
X74455000Y-72785000D02*
X89325001Y-57914999D01*
X89325000Y-55905000D02*
X88425000Y-55005000D01*
X74155000Y-72785000D02*
X74455000Y-72785000D01*
X89789000Y-58378998D02*
X89325001Y-57914999D01*
X89789000Y-67691000D02*
X89789000Y-58378998D01*
X82075000Y-38495000D02*
X81775000Y-38495000D01*
X83850010Y-40270010D02*
X82075000Y-38495000D01*
X88125000Y-53200000D02*
X83850010Y-48925010D01*
X83850010Y-48925010D02*
X83850010Y-40270010D01*
X88125000Y-55005000D02*
X88125000Y-53200000D01*
X90487499Y-66992501D02*
X89789000Y-67691000D01*
X90887501Y-66592499D02*
X90487499Y-66992501D01*
X94380281Y-66592499D02*
X90887501Y-66592499D01*
X95480001Y-67692219D02*
X94380281Y-66592499D01*
X95480001Y-76589801D02*
X95480001Y-67692219D01*
X94369801Y-77700001D02*
X95480001Y-76589801D01*
X80963659Y-77700001D02*
X94369801Y-77700001D01*
X66588660Y-92075000D02*
X80963659Y-77700001D01*
X64135000Y-92075000D02*
X66588660Y-92075000D01*
X114160000Y-72785000D02*
X114460000Y-72785000D01*
X129794000Y-58378998D02*
X129330001Y-57914999D01*
X129794000Y-67691000D02*
X129794000Y-58378998D01*
X114460000Y-72785000D02*
X129330001Y-57914999D01*
X120968659Y-77700001D02*
X134374801Y-77700001D01*
X106593660Y-92075000D02*
X120968659Y-77700001D01*
X104140000Y-92075000D02*
X106593660Y-92075000D01*
X130492499Y-66992501D02*
X129794000Y-67691000D01*
X130892501Y-66592499D02*
X130492499Y-66992501D01*
X134385281Y-66592499D02*
X130892501Y-66592499D01*
X135485001Y-67692219D02*
X134385281Y-66592499D01*
X135485001Y-76589801D02*
X135485001Y-67692219D01*
X134374801Y-77700001D02*
X135485001Y-76589801D01*
X122080000Y-38495000D02*
X121780000Y-38495000D01*
X123855010Y-40270010D02*
X122080000Y-38495000D01*
X128130000Y-53200000D02*
X123855010Y-48925010D01*
X123855010Y-48925010D02*
X123855010Y-40270010D01*
X128130000Y-55005000D02*
X128130000Y-53200000D01*
X128430000Y-55005000D02*
X128130000Y-55005000D01*
X129330001Y-57914999D02*
X129330000Y-55905000D01*
X129330000Y-55905000D02*
X128430000Y-55005000D01*
D15*
G04 #@! TO.N,LED*
X91821000Y-74041000D02*
X93345000Y-75565000D01*
X91821000Y-67691000D02*
X91821000Y-74041000D01*
X92315000Y-74535000D02*
X93345000Y-75565000D01*
X74155000Y-74535000D02*
X92315000Y-74535000D01*
X132320000Y-74535000D02*
X133350000Y-75565000D01*
X114160000Y-74535000D02*
X132320000Y-74535000D01*
X131826000Y-74041000D02*
X133350000Y-75565000D01*
X131826000Y-67691000D02*
X131826000Y-74041000D01*
G04 #@! TO.N,Net-(L1-Pad1)*
X88125000Y-56755000D02*
X88125000Y-57925000D01*
X69355000Y-72785000D02*
X69355000Y-70980000D01*
X69355000Y-70980000D02*
X69850000Y-70485000D01*
X69850000Y-70485000D02*
X75565000Y-70485000D01*
X88125000Y-57925000D02*
X75565000Y-70485000D01*
X128130000Y-56755000D02*
X128130000Y-57925000D01*
X109360000Y-72785000D02*
X109360000Y-70980000D01*
X109360000Y-70980000D02*
X109855000Y-70485000D01*
X109855000Y-70485000D02*
X115570000Y-70485000D01*
X128130000Y-57925000D02*
X115570000Y-70485000D01*
D14*
G04 #@! TO.N,GND*
X81280000Y-24130000D02*
X74930000Y-30480000D01*
X76675000Y-40245000D02*
X76975000Y-40245000D01*
X74930000Y-38500000D02*
X76675000Y-40245000D01*
X74930000Y-30480000D02*
X74930000Y-38500000D01*
X83025000Y-56755000D02*
X83325000Y-56755000D01*
X76975000Y-50705000D02*
X83025000Y-56755000D01*
X76975000Y-40245000D02*
X76975000Y-50705000D01*
X68155000Y-73635000D02*
X69055000Y-74535000D01*
X69055000Y-74535000D02*
X69355000Y-74535000D01*
X68154999Y-70725001D02*
X68155000Y-73635000D01*
X82125000Y-56755000D02*
X68154999Y-70725001D01*
X83325000Y-56755000D02*
X82125000Y-56755000D01*
X123330000Y-56755000D02*
X122130000Y-56755000D01*
X123030000Y-56755000D02*
X123330000Y-56755000D01*
X116980000Y-50705000D02*
X123030000Y-56755000D01*
X116980000Y-40245000D02*
X116980000Y-50705000D01*
X108160000Y-73635000D02*
X109060000Y-74535000D01*
X109060000Y-74535000D02*
X109360000Y-74535000D01*
X108159999Y-70725001D02*
X108160000Y-73635000D01*
X122130000Y-56755000D02*
X108159999Y-70725001D01*
X121285000Y-24130000D02*
X114935000Y-30480000D01*
X116680000Y-40245000D02*
X116980000Y-40245000D01*
X114935000Y-38500000D02*
X116680000Y-40245000D01*
X114935000Y-30480000D02*
X114935000Y-38500000D01*
D15*
G04 #@! TO.N,Net-(L2-Pad1)*
X82075000Y-40245000D02*
X81775000Y-40245000D01*
X83325000Y-41495000D02*
X82075000Y-40245000D01*
X83325000Y-55005000D02*
X83325000Y-41495000D01*
X122080000Y-40245000D02*
X121780000Y-40245000D01*
X123330000Y-41495000D02*
X122080000Y-40245000D01*
X123330000Y-55005000D02*
X123330000Y-41495000D01*
G04 #@! TD*
D16*
G04 #@! TO.N,GND*
G36*
X132853358Y-21736842D02*
X133602277Y-21941723D01*
X134303072Y-22275986D01*
X134933605Y-22729069D01*
X135473934Y-23286645D01*
X135906989Y-23931099D01*
X136219073Y-24642044D01*
X136401640Y-25402493D01*
X136450000Y-26061031D01*
X136450001Y-77062750D01*
X135830668Y-77425002D01*
X136017284Y-77238386D01*
X136087002Y-77191802D01*
X136271553Y-76915602D01*
X136320001Y-76672038D01*
X136320001Y-76672037D01*
X136336359Y-76589801D01*
X136320001Y-76507564D01*
X136320001Y-67774456D01*
X136336359Y-67692219D01*
X136271553Y-67366418D01*
X136133585Y-67159935D01*
X136087002Y-67090218D01*
X136017283Y-67043634D01*
X135033868Y-66060219D01*
X134987282Y-65990498D01*
X134711082Y-65805947D01*
X134467518Y-65757499D01*
X134467514Y-65757499D01*
X134385281Y-65741142D01*
X134303048Y-65757499D01*
X130974733Y-65757499D01*
X130892500Y-65741142D01*
X130810267Y-65757499D01*
X130810264Y-65757499D01*
X130629000Y-65793555D01*
X130629000Y-58461235D01*
X130645358Y-58378998D01*
X130580552Y-58053198D01*
X130580552Y-58053197D01*
X130396001Y-57776997D01*
X130326280Y-57730411D01*
X130165001Y-57569132D01*
X130164999Y-55987237D01*
X130181357Y-55904999D01*
X130116552Y-55579199D01*
X129978584Y-55372716D01*
X129978582Y-55372714D01*
X129932000Y-55302999D01*
X129862284Y-55256417D01*
X129577440Y-54971572D01*
X129577440Y-54505000D01*
X129528157Y-54257235D01*
X129387809Y-54047191D01*
X129177765Y-53906843D01*
X128965000Y-53864522D01*
X128965000Y-53282237D01*
X128981358Y-53200000D01*
X128916552Y-52874199D01*
X128778584Y-52667716D01*
X128732001Y-52597999D01*
X128662283Y-52551415D01*
X124690010Y-48579143D01*
X124690010Y-40352242D01*
X124706367Y-40270009D01*
X124690010Y-40187776D01*
X124690010Y-40187773D01*
X124641562Y-39944209D01*
X124457011Y-39668009D01*
X124387293Y-39621425D01*
X123227440Y-38461573D01*
X123227440Y-37995000D01*
X123178157Y-37747235D01*
X123037809Y-37537191D01*
X122827765Y-37396843D01*
X122580000Y-37347560D01*
X121840000Y-37347560D01*
X121840000Y-37189926D01*
X121853909Y-37120000D01*
X121798805Y-36842972D01*
X121641881Y-36608119D01*
X121407028Y-36451195D01*
X121199926Y-36410000D01*
X121199925Y-36410000D01*
X121130000Y-36396091D01*
X121060074Y-36410000D01*
X117699925Y-36410000D01*
X117630000Y-36396091D01*
X117560074Y-36410000D01*
X117352972Y-36451195D01*
X117118119Y-36608119D01*
X116961195Y-36842972D01*
X116906091Y-37120000D01*
X116920000Y-37189926D01*
X116920000Y-37347560D01*
X116180000Y-37347560D01*
X115932235Y-37396843D01*
X115722191Y-37537191D01*
X115581843Y-37747235D01*
X115532560Y-37995000D01*
X115532560Y-38995000D01*
X115581843Y-39242765D01*
X115662900Y-39364074D01*
X115641673Y-39385301D01*
X115545000Y-39618690D01*
X115545000Y-39959250D01*
X115703750Y-40118000D01*
X116853000Y-40118000D01*
X116853000Y-40098000D01*
X116920001Y-40098000D01*
X116920001Y-40392000D01*
X116853000Y-40392000D01*
X116853000Y-40372000D01*
X115703750Y-40372000D01*
X115545000Y-40530750D01*
X115545000Y-40871310D01*
X115641673Y-41104699D01*
X115820302Y-41283327D01*
X116053691Y-41380000D01*
X116694250Y-41380000D01*
X116852998Y-41221252D01*
X116852998Y-41380000D01*
X116920001Y-41380000D01*
X116920001Y-41550069D01*
X116906091Y-41620000D01*
X116961195Y-41897028D01*
X117118119Y-42131881D01*
X117352972Y-42288805D01*
X117560074Y-42330000D01*
X117560075Y-42330000D01*
X117630000Y-42343909D01*
X117699926Y-42330000D01*
X121060075Y-42330000D01*
X121130000Y-42343909D01*
X121407028Y-42288805D01*
X121641881Y-42131881D01*
X121798805Y-41897028D01*
X121840000Y-41689926D01*
X121853909Y-41620000D01*
X121840000Y-41550074D01*
X121840000Y-41392440D01*
X122152639Y-41392440D01*
X122570001Y-41809803D01*
X122570000Y-53857560D01*
X122530000Y-53857560D01*
X122282235Y-53906843D01*
X122072191Y-54047191D01*
X121931843Y-54257235D01*
X121882560Y-54505000D01*
X121882560Y-55505000D01*
X121931843Y-55752765D01*
X122012900Y-55874074D01*
X121991673Y-55895301D01*
X121895000Y-56128690D01*
X121895000Y-56469250D01*
X122053750Y-56628000D01*
X123203000Y-56628000D01*
X123203000Y-56608000D01*
X123270001Y-56608000D01*
X123270001Y-56902000D01*
X123203000Y-56902000D01*
X123203000Y-56882000D01*
X122053750Y-56882000D01*
X121895000Y-57040750D01*
X121895000Y-57381310D01*
X121991673Y-57614699D01*
X122170302Y-57793327D01*
X122403691Y-57890000D01*
X123044250Y-57890000D01*
X123202998Y-57731252D01*
X123202998Y-57890000D01*
X123270001Y-57890000D01*
X123270001Y-58060069D01*
X123256091Y-58130000D01*
X123311195Y-58407028D01*
X123468119Y-58641881D01*
X123702972Y-58798805D01*
X123910074Y-58840000D01*
X123910075Y-58840000D01*
X123980000Y-58853909D01*
X124049926Y-58840000D01*
X126140197Y-58840000D01*
X115255199Y-69725000D01*
X109929848Y-69725000D01*
X109855000Y-69710112D01*
X109780152Y-69725000D01*
X109780148Y-69725000D01*
X109606605Y-69759520D01*
X109558462Y-69769096D01*
X109371418Y-69894076D01*
X109307071Y-69937071D01*
X109264671Y-70000528D01*
X108875527Y-70389671D01*
X108812072Y-70432071D01*
X108769672Y-70495527D01*
X108769671Y-70495528D01*
X108644097Y-70683463D01*
X108585112Y-70980000D01*
X108600001Y-71054852D01*
X108600001Y-71637560D01*
X108560000Y-71637560D01*
X108312235Y-71686843D01*
X108102191Y-71827191D01*
X107961843Y-72037235D01*
X107912560Y-72285000D01*
X107912560Y-73285000D01*
X107961843Y-73532765D01*
X108042900Y-73654074D01*
X108021673Y-73675301D01*
X107925000Y-73908690D01*
X107925000Y-74249250D01*
X108083750Y-74408000D01*
X109233000Y-74408000D01*
X109233000Y-74388000D01*
X109300001Y-74388000D01*
X109300001Y-74682000D01*
X109233000Y-74682000D01*
X109233000Y-74662000D01*
X108083750Y-74662000D01*
X107925000Y-74820750D01*
X107925000Y-75161310D01*
X108021673Y-75394699D01*
X108200302Y-75573327D01*
X108433691Y-75670000D01*
X109074250Y-75670000D01*
X109232998Y-75511252D01*
X109232998Y-75670000D01*
X109300001Y-75670000D01*
X109300001Y-75840069D01*
X109286091Y-75910000D01*
X109341195Y-76187028D01*
X109498119Y-76421881D01*
X109732972Y-76578805D01*
X109940074Y-76620000D01*
X109940075Y-76620000D01*
X110010000Y-76633909D01*
X110079926Y-76620000D01*
X113440075Y-76620000D01*
X113510000Y-76633909D01*
X113787028Y-76578805D01*
X114021881Y-76421881D01*
X114178805Y-76187028D01*
X114220000Y-75979926D01*
X114233909Y-75910000D01*
X114220000Y-75840074D01*
X114220000Y-75682440D01*
X114960000Y-75682440D01*
X115207765Y-75633157D01*
X115417809Y-75492809D01*
X115549982Y-75295000D01*
X130980000Y-75295000D01*
X130980000Y-76036422D01*
X131323209Y-76865001D01*
X121050896Y-76865001D01*
X120968659Y-76848643D01*
X120886422Y-76865001D01*
X120642858Y-76913449D01*
X120366658Y-77098000D01*
X120320074Y-77167718D01*
X106326712Y-91161081D01*
X106149189Y-90732503D01*
X105482497Y-90065811D01*
X104611422Y-89705000D01*
X103668578Y-89705000D01*
X102797503Y-90065811D01*
X102130811Y-90732503D01*
X101770000Y-91603578D01*
X101770000Y-92546422D01*
X102130811Y-93417497D01*
X102797503Y-94084189D01*
X103668578Y-94445000D01*
X104611422Y-94445000D01*
X105482497Y-94084189D01*
X106149189Y-93417497D01*
X106359401Y-92910000D01*
X106511427Y-92910000D01*
X106593660Y-92926357D01*
X106675893Y-92910000D01*
X106675897Y-92910000D01*
X106919461Y-92861552D01*
X107195661Y-92677001D01*
X107242247Y-92607280D01*
X121314527Y-78535001D01*
X133932927Y-78535001D01*
X103217088Y-96500869D01*
X102831308Y-96605314D01*
X102417704Y-96606388D01*
X102017922Y-96500379D01*
X101659196Y-96294510D01*
X101365974Y-96002807D01*
X101158245Y-95645158D01*
X101065000Y-95300744D01*
X101065000Y-77397612D01*
X101022354Y-77183217D01*
X100859905Y-76940095D01*
X100680120Y-76819967D01*
X100841881Y-76711881D01*
X100998805Y-76477028D01*
X101026084Y-76339888D01*
X101040000Y-76269926D01*
X101040000Y-76269925D01*
X101053909Y-76200000D01*
X101040000Y-76130074D01*
X101040000Y-35758071D01*
X101079399Y-35560000D01*
X101022354Y-35273217D01*
X100859905Y-35030095D01*
X100702619Y-34925000D01*
X100859905Y-34819905D01*
X100972107Y-34651983D01*
X109810394Y-25813696D01*
X119780909Y-25813696D01*
X119969366Y-26156881D01*
X120845166Y-26506065D01*
X121787927Y-26493514D01*
X122600634Y-26156881D01*
X122789091Y-25813696D01*
X121285000Y-24309605D01*
X119780909Y-25813696D01*
X109810394Y-25813696D01*
X111933925Y-23690166D01*
X118908935Y-23690166D01*
X118921486Y-24632927D01*
X119258119Y-25445634D01*
X119601304Y-25634091D01*
X121105395Y-24130000D01*
X121464605Y-24130000D01*
X122968696Y-25634091D01*
X123311881Y-25445634D01*
X123661065Y-24569834D01*
X123648514Y-23627073D01*
X123311881Y-22814366D01*
X122968696Y-22625909D01*
X121464605Y-24130000D01*
X121105395Y-24130000D01*
X119601304Y-22625909D01*
X119258119Y-22814366D01*
X118908935Y-23690166D01*
X111933925Y-23690166D01*
X113177787Y-22446304D01*
X119780909Y-22446304D01*
X121285000Y-23950395D01*
X122789091Y-22446304D01*
X122600634Y-22103119D01*
X121724834Y-21753935D01*
X120782073Y-21766486D01*
X119969366Y-22103119D01*
X119780909Y-22446304D01*
X113177787Y-22446304D01*
X113959092Y-21665000D01*
X132048382Y-21665000D01*
X132853358Y-21736842D01*
X132853358Y-21736842D01*
G37*
X132853358Y-21736842D02*
X133602277Y-21941723D01*
X134303072Y-22275986D01*
X134933605Y-22729069D01*
X135473934Y-23286645D01*
X135906989Y-23931099D01*
X136219073Y-24642044D01*
X136401640Y-25402493D01*
X136450000Y-26061031D01*
X136450001Y-77062750D01*
X135830668Y-77425002D01*
X136017284Y-77238386D01*
X136087002Y-77191802D01*
X136271553Y-76915602D01*
X136320001Y-76672038D01*
X136320001Y-76672037D01*
X136336359Y-76589801D01*
X136320001Y-76507564D01*
X136320001Y-67774456D01*
X136336359Y-67692219D01*
X136271553Y-67366418D01*
X136133585Y-67159935D01*
X136087002Y-67090218D01*
X136017283Y-67043634D01*
X135033868Y-66060219D01*
X134987282Y-65990498D01*
X134711082Y-65805947D01*
X134467518Y-65757499D01*
X134467514Y-65757499D01*
X134385281Y-65741142D01*
X134303048Y-65757499D01*
X130974733Y-65757499D01*
X130892500Y-65741142D01*
X130810267Y-65757499D01*
X130810264Y-65757499D01*
X130629000Y-65793555D01*
X130629000Y-58461235D01*
X130645358Y-58378998D01*
X130580552Y-58053198D01*
X130580552Y-58053197D01*
X130396001Y-57776997D01*
X130326280Y-57730411D01*
X130165001Y-57569132D01*
X130164999Y-55987237D01*
X130181357Y-55904999D01*
X130116552Y-55579199D01*
X129978584Y-55372716D01*
X129978582Y-55372714D01*
X129932000Y-55302999D01*
X129862284Y-55256417D01*
X129577440Y-54971572D01*
X129577440Y-54505000D01*
X129528157Y-54257235D01*
X129387809Y-54047191D01*
X129177765Y-53906843D01*
X128965000Y-53864522D01*
X128965000Y-53282237D01*
X128981358Y-53200000D01*
X128916552Y-52874199D01*
X128778584Y-52667716D01*
X128732001Y-52597999D01*
X128662283Y-52551415D01*
X124690010Y-48579143D01*
X124690010Y-40352242D01*
X124706367Y-40270009D01*
X124690010Y-40187776D01*
X124690010Y-40187773D01*
X124641562Y-39944209D01*
X124457011Y-39668009D01*
X124387293Y-39621425D01*
X123227440Y-38461573D01*
X123227440Y-37995000D01*
X123178157Y-37747235D01*
X123037809Y-37537191D01*
X122827765Y-37396843D01*
X122580000Y-37347560D01*
X121840000Y-37347560D01*
X121840000Y-37189926D01*
X121853909Y-37120000D01*
X121798805Y-36842972D01*
X121641881Y-36608119D01*
X121407028Y-36451195D01*
X121199926Y-36410000D01*
X121199925Y-36410000D01*
X121130000Y-36396091D01*
X121060074Y-36410000D01*
X117699925Y-36410000D01*
X117630000Y-36396091D01*
X117560074Y-36410000D01*
X117352972Y-36451195D01*
X117118119Y-36608119D01*
X116961195Y-36842972D01*
X116906091Y-37120000D01*
X116920000Y-37189926D01*
X116920000Y-37347560D01*
X116180000Y-37347560D01*
X115932235Y-37396843D01*
X115722191Y-37537191D01*
X115581843Y-37747235D01*
X115532560Y-37995000D01*
X115532560Y-38995000D01*
X115581843Y-39242765D01*
X115662900Y-39364074D01*
X115641673Y-39385301D01*
X115545000Y-39618690D01*
X115545000Y-39959250D01*
X115703750Y-40118000D01*
X116853000Y-40118000D01*
X116853000Y-40098000D01*
X116920001Y-40098000D01*
X116920001Y-40392000D01*
X116853000Y-40392000D01*
X116853000Y-40372000D01*
X115703750Y-40372000D01*
X115545000Y-40530750D01*
X115545000Y-40871310D01*
X115641673Y-41104699D01*
X115820302Y-41283327D01*
X116053691Y-41380000D01*
X116694250Y-41380000D01*
X116852998Y-41221252D01*
X116852998Y-41380000D01*
X116920001Y-41380000D01*
X116920001Y-41550069D01*
X116906091Y-41620000D01*
X116961195Y-41897028D01*
X117118119Y-42131881D01*
X117352972Y-42288805D01*
X117560074Y-42330000D01*
X117560075Y-42330000D01*
X117630000Y-42343909D01*
X117699926Y-42330000D01*
X121060075Y-42330000D01*
X121130000Y-42343909D01*
X121407028Y-42288805D01*
X121641881Y-42131881D01*
X121798805Y-41897028D01*
X121840000Y-41689926D01*
X121853909Y-41620000D01*
X121840000Y-41550074D01*
X121840000Y-41392440D01*
X122152639Y-41392440D01*
X122570001Y-41809803D01*
X122570000Y-53857560D01*
X122530000Y-53857560D01*
X122282235Y-53906843D01*
X122072191Y-54047191D01*
X121931843Y-54257235D01*
X121882560Y-54505000D01*
X121882560Y-55505000D01*
X121931843Y-55752765D01*
X122012900Y-55874074D01*
X121991673Y-55895301D01*
X121895000Y-56128690D01*
X121895000Y-56469250D01*
X122053750Y-56628000D01*
X123203000Y-56628000D01*
X123203000Y-56608000D01*
X123270001Y-56608000D01*
X123270001Y-56902000D01*
X123203000Y-56902000D01*
X123203000Y-56882000D01*
X122053750Y-56882000D01*
X121895000Y-57040750D01*
X121895000Y-57381310D01*
X121991673Y-57614699D01*
X122170302Y-57793327D01*
X122403691Y-57890000D01*
X123044250Y-57890000D01*
X123202998Y-57731252D01*
X123202998Y-57890000D01*
X123270001Y-57890000D01*
X123270001Y-58060069D01*
X123256091Y-58130000D01*
X123311195Y-58407028D01*
X123468119Y-58641881D01*
X123702972Y-58798805D01*
X123910074Y-58840000D01*
X123910075Y-58840000D01*
X123980000Y-58853909D01*
X124049926Y-58840000D01*
X126140197Y-58840000D01*
X115255199Y-69725000D01*
X109929848Y-69725000D01*
X109855000Y-69710112D01*
X109780152Y-69725000D01*
X109780148Y-69725000D01*
X109606605Y-69759520D01*
X109558462Y-69769096D01*
X109371418Y-69894076D01*
X109307071Y-69937071D01*
X109264671Y-70000528D01*
X108875527Y-70389671D01*
X108812072Y-70432071D01*
X108769672Y-70495527D01*
X108769671Y-70495528D01*
X108644097Y-70683463D01*
X108585112Y-70980000D01*
X108600001Y-71054852D01*
X108600001Y-71637560D01*
X108560000Y-71637560D01*
X108312235Y-71686843D01*
X108102191Y-71827191D01*
X107961843Y-72037235D01*
X107912560Y-72285000D01*
X107912560Y-73285000D01*
X107961843Y-73532765D01*
X108042900Y-73654074D01*
X108021673Y-73675301D01*
X107925000Y-73908690D01*
X107925000Y-74249250D01*
X108083750Y-74408000D01*
X109233000Y-74408000D01*
X109233000Y-74388000D01*
X109300001Y-74388000D01*
X109300001Y-74682000D01*
X109233000Y-74682000D01*
X109233000Y-74662000D01*
X108083750Y-74662000D01*
X107925000Y-74820750D01*
X107925000Y-75161310D01*
X108021673Y-75394699D01*
X108200302Y-75573327D01*
X108433691Y-75670000D01*
X109074250Y-75670000D01*
X109232998Y-75511252D01*
X109232998Y-75670000D01*
X109300001Y-75670000D01*
X109300001Y-75840069D01*
X109286091Y-75910000D01*
X109341195Y-76187028D01*
X109498119Y-76421881D01*
X109732972Y-76578805D01*
X109940074Y-76620000D01*
X109940075Y-76620000D01*
X110010000Y-76633909D01*
X110079926Y-76620000D01*
X113440075Y-76620000D01*
X113510000Y-76633909D01*
X113787028Y-76578805D01*
X114021881Y-76421881D01*
X114178805Y-76187028D01*
X114220000Y-75979926D01*
X114233909Y-75910000D01*
X114220000Y-75840074D01*
X114220000Y-75682440D01*
X114960000Y-75682440D01*
X115207765Y-75633157D01*
X115417809Y-75492809D01*
X115549982Y-75295000D01*
X130980000Y-75295000D01*
X130980000Y-76036422D01*
X131323209Y-76865001D01*
X121050896Y-76865001D01*
X120968659Y-76848643D01*
X120886422Y-76865001D01*
X120642858Y-76913449D01*
X120366658Y-77098000D01*
X120320074Y-77167718D01*
X106326712Y-91161081D01*
X106149189Y-90732503D01*
X105482497Y-90065811D01*
X104611422Y-89705000D01*
X103668578Y-89705000D01*
X102797503Y-90065811D01*
X102130811Y-90732503D01*
X101770000Y-91603578D01*
X101770000Y-92546422D01*
X102130811Y-93417497D01*
X102797503Y-94084189D01*
X103668578Y-94445000D01*
X104611422Y-94445000D01*
X105482497Y-94084189D01*
X106149189Y-93417497D01*
X106359401Y-92910000D01*
X106511427Y-92910000D01*
X106593660Y-92926357D01*
X106675893Y-92910000D01*
X106675897Y-92910000D01*
X106919461Y-92861552D01*
X107195661Y-92677001D01*
X107242247Y-92607280D01*
X121314527Y-78535001D01*
X133932927Y-78535001D01*
X103217088Y-96500869D01*
X102831308Y-96605314D01*
X102417704Y-96606388D01*
X102017922Y-96500379D01*
X101659196Y-96294510D01*
X101365974Y-96002807D01*
X101158245Y-95645158D01*
X101065000Y-95300744D01*
X101065000Y-77397612D01*
X101022354Y-77183217D01*
X100859905Y-76940095D01*
X100680120Y-76819967D01*
X100841881Y-76711881D01*
X100998805Y-76477028D01*
X101026084Y-76339888D01*
X101040000Y-76269926D01*
X101040000Y-76269925D01*
X101053909Y-76200000D01*
X101040000Y-76130074D01*
X101040000Y-35758071D01*
X101079399Y-35560000D01*
X101022354Y-35273217D01*
X100859905Y-35030095D01*
X100702619Y-34925000D01*
X100859905Y-34819905D01*
X100972107Y-34651983D01*
X109810394Y-25813696D01*
X119780909Y-25813696D01*
X119969366Y-26156881D01*
X120845166Y-26506065D01*
X121787927Y-26493514D01*
X122600634Y-26156881D01*
X122789091Y-25813696D01*
X121285000Y-24309605D01*
X119780909Y-25813696D01*
X109810394Y-25813696D01*
X111933925Y-23690166D01*
X118908935Y-23690166D01*
X118921486Y-24632927D01*
X119258119Y-25445634D01*
X119601304Y-25634091D01*
X121105395Y-24130000D01*
X121464605Y-24130000D01*
X122968696Y-25634091D01*
X123311881Y-25445634D01*
X123661065Y-24569834D01*
X123648514Y-23627073D01*
X123311881Y-22814366D01*
X122968696Y-22625909D01*
X121464605Y-24130000D01*
X121105395Y-24130000D01*
X119601304Y-22625909D01*
X119258119Y-22814366D01*
X118908935Y-23690166D01*
X111933925Y-23690166D01*
X113177787Y-22446304D01*
X119780909Y-22446304D01*
X121285000Y-23950395D01*
X122789091Y-22446304D01*
X122600634Y-22103119D01*
X121724834Y-21753935D01*
X120782073Y-21766486D01*
X119969366Y-22103119D01*
X119780909Y-22446304D01*
X113177787Y-22446304D01*
X113959092Y-21665000D01*
X132048382Y-21665000D01*
X132853358Y-21736842D01*
G36*
X92848358Y-21736842D02*
X93597277Y-21941723D01*
X94298072Y-22275986D01*
X94928605Y-22729069D01*
X95468934Y-23286645D01*
X95901989Y-23931099D01*
X96214073Y-24642044D01*
X96396640Y-25402493D01*
X96432980Y-25897356D01*
X96420000Y-25962613D01*
X96420001Y-34217607D01*
X96405601Y-34290000D01*
X96462646Y-34576783D01*
X96625095Y-34819905D01*
X96782381Y-34925000D01*
X96625095Y-35030095D01*
X96462646Y-35273217D01*
X96405601Y-35560000D01*
X96445001Y-35758076D01*
X96445000Y-76130074D01*
X96431091Y-76200000D01*
X96486195Y-76477028D01*
X96643119Y-76711881D01*
X96827379Y-76835000D01*
X96778203Y-76867859D01*
X95825668Y-77425002D01*
X96012284Y-77238386D01*
X96082002Y-77191802D01*
X96266553Y-76915602D01*
X96315001Y-76672038D01*
X96315001Y-76672037D01*
X96331359Y-76589801D01*
X96315001Y-76507564D01*
X96315001Y-67774456D01*
X96331359Y-67692219D01*
X96266553Y-67366418D01*
X96128585Y-67159935D01*
X96082002Y-67090218D01*
X96012283Y-67043634D01*
X95028868Y-66060219D01*
X94982282Y-65990498D01*
X94706082Y-65805947D01*
X94462518Y-65757499D01*
X94462514Y-65757499D01*
X94380281Y-65741142D01*
X94298048Y-65757499D01*
X90969733Y-65757499D01*
X90887500Y-65741142D01*
X90805267Y-65757499D01*
X90805264Y-65757499D01*
X90624000Y-65793555D01*
X90624000Y-58461235D01*
X90640358Y-58378998D01*
X90575552Y-58053198D01*
X90575552Y-58053197D01*
X90391001Y-57776997D01*
X90321280Y-57730411D01*
X90160001Y-57569132D01*
X90159999Y-55987237D01*
X90176357Y-55904999D01*
X90111552Y-55579199D01*
X89973584Y-55372716D01*
X89973582Y-55372714D01*
X89927000Y-55302999D01*
X89857284Y-55256417D01*
X89572440Y-54971572D01*
X89572440Y-54505000D01*
X89523157Y-54257235D01*
X89382809Y-54047191D01*
X89172765Y-53906843D01*
X88960000Y-53864522D01*
X88960000Y-53282237D01*
X88976358Y-53200000D01*
X88911552Y-52874199D01*
X88773584Y-52667716D01*
X88727001Y-52597999D01*
X88657283Y-52551415D01*
X84685010Y-48579143D01*
X84685010Y-40352242D01*
X84701367Y-40270009D01*
X84685010Y-40187776D01*
X84685010Y-40187773D01*
X84636562Y-39944209D01*
X84452011Y-39668009D01*
X84382293Y-39621425D01*
X83222440Y-38461573D01*
X83222440Y-37995000D01*
X83173157Y-37747235D01*
X83032809Y-37537191D01*
X82822765Y-37396843D01*
X82575000Y-37347560D01*
X81835000Y-37347560D01*
X81835000Y-37189926D01*
X81848909Y-37120000D01*
X81793805Y-36842972D01*
X81636881Y-36608119D01*
X81402028Y-36451195D01*
X81194926Y-36410000D01*
X81194925Y-36410000D01*
X81125000Y-36396091D01*
X81055074Y-36410000D01*
X77694925Y-36410000D01*
X77625000Y-36396091D01*
X77555074Y-36410000D01*
X77347972Y-36451195D01*
X77113119Y-36608119D01*
X76956195Y-36842972D01*
X76901091Y-37120000D01*
X76915000Y-37189926D01*
X76915000Y-37347560D01*
X76175000Y-37347560D01*
X75927235Y-37396843D01*
X75717191Y-37537191D01*
X75576843Y-37747235D01*
X75527560Y-37995000D01*
X75527560Y-38995000D01*
X75576843Y-39242765D01*
X75657900Y-39364074D01*
X75636673Y-39385301D01*
X75540000Y-39618690D01*
X75540000Y-39959250D01*
X75698750Y-40118000D01*
X76848000Y-40118000D01*
X76848000Y-40098000D01*
X76915001Y-40098000D01*
X76915001Y-40392000D01*
X76848000Y-40392000D01*
X76848000Y-40372000D01*
X75698750Y-40372000D01*
X75540000Y-40530750D01*
X75540000Y-40871310D01*
X75636673Y-41104699D01*
X75815302Y-41283327D01*
X76048691Y-41380000D01*
X76689250Y-41380000D01*
X76847998Y-41221252D01*
X76847998Y-41380000D01*
X76915001Y-41380000D01*
X76915001Y-41550069D01*
X76901091Y-41620000D01*
X76956195Y-41897028D01*
X77113119Y-42131881D01*
X77347972Y-42288805D01*
X77555074Y-42330000D01*
X77555075Y-42330000D01*
X77625000Y-42343909D01*
X77694926Y-42330000D01*
X81055075Y-42330000D01*
X81125000Y-42343909D01*
X81402028Y-42288805D01*
X81636881Y-42131881D01*
X81793805Y-41897028D01*
X81835000Y-41689926D01*
X81848909Y-41620000D01*
X81835000Y-41550074D01*
X81835000Y-41392440D01*
X82147639Y-41392440D01*
X82565001Y-41809803D01*
X82565000Y-53857560D01*
X82525000Y-53857560D01*
X82277235Y-53906843D01*
X82067191Y-54047191D01*
X81926843Y-54257235D01*
X81877560Y-54505000D01*
X81877560Y-55505000D01*
X81926843Y-55752765D01*
X82007900Y-55874074D01*
X81986673Y-55895301D01*
X81890000Y-56128690D01*
X81890000Y-56469250D01*
X82048750Y-56628000D01*
X83198000Y-56628000D01*
X83198000Y-56608000D01*
X83265001Y-56608000D01*
X83265001Y-56902000D01*
X83198000Y-56902000D01*
X83198000Y-56882000D01*
X82048750Y-56882000D01*
X81890000Y-57040750D01*
X81890000Y-57381310D01*
X81986673Y-57614699D01*
X82165302Y-57793327D01*
X82398691Y-57890000D01*
X83039250Y-57890000D01*
X83197998Y-57731252D01*
X83197998Y-57890000D01*
X83265001Y-57890000D01*
X83265001Y-58060069D01*
X83251091Y-58130000D01*
X83306195Y-58407028D01*
X83463119Y-58641881D01*
X83697972Y-58798805D01*
X83905074Y-58840000D01*
X83905075Y-58840000D01*
X83975000Y-58853909D01*
X84044926Y-58840000D01*
X86135197Y-58840000D01*
X75250199Y-69725000D01*
X69924848Y-69725000D01*
X69850000Y-69710112D01*
X69775152Y-69725000D01*
X69775148Y-69725000D01*
X69601605Y-69759520D01*
X69553462Y-69769096D01*
X69366418Y-69894076D01*
X69302071Y-69937071D01*
X69259671Y-70000528D01*
X68870527Y-70389671D01*
X68807072Y-70432071D01*
X68764672Y-70495527D01*
X68764671Y-70495528D01*
X68639097Y-70683463D01*
X68580112Y-70980000D01*
X68595001Y-71054852D01*
X68595001Y-71637560D01*
X68555000Y-71637560D01*
X68307235Y-71686843D01*
X68097191Y-71827191D01*
X67956843Y-72037235D01*
X67907560Y-72285000D01*
X67907560Y-73285000D01*
X67956843Y-73532765D01*
X68037900Y-73654074D01*
X68016673Y-73675301D01*
X67920000Y-73908690D01*
X67920000Y-74249250D01*
X68078750Y-74408000D01*
X69228000Y-74408000D01*
X69228000Y-74388000D01*
X69295001Y-74388000D01*
X69295001Y-74682000D01*
X69228000Y-74682000D01*
X69228000Y-74662000D01*
X68078750Y-74662000D01*
X67920000Y-74820750D01*
X67920000Y-75161310D01*
X68016673Y-75394699D01*
X68195302Y-75573327D01*
X68428691Y-75670000D01*
X69069250Y-75670000D01*
X69227998Y-75511252D01*
X69227998Y-75670000D01*
X69295001Y-75670000D01*
X69295001Y-75840069D01*
X69281091Y-75910000D01*
X69336195Y-76187028D01*
X69493119Y-76421881D01*
X69727972Y-76578805D01*
X69935074Y-76620000D01*
X69935075Y-76620000D01*
X70005000Y-76633909D01*
X70074926Y-76620000D01*
X73435075Y-76620000D01*
X73505000Y-76633909D01*
X73782028Y-76578805D01*
X74016881Y-76421881D01*
X74173805Y-76187028D01*
X74215000Y-75979926D01*
X74228909Y-75910000D01*
X74215000Y-75840074D01*
X74215000Y-75682440D01*
X74955000Y-75682440D01*
X75202765Y-75633157D01*
X75412809Y-75492809D01*
X75544982Y-75295000D01*
X90975000Y-75295000D01*
X90975000Y-76036422D01*
X91318209Y-76865001D01*
X81045896Y-76865001D01*
X80963659Y-76848643D01*
X80881422Y-76865001D01*
X80637858Y-76913449D01*
X80361658Y-77098000D01*
X80315074Y-77167718D01*
X66321712Y-91161081D01*
X66144189Y-90732503D01*
X65477497Y-90065811D01*
X64606422Y-89705000D01*
X63663578Y-89705000D01*
X62792503Y-90065811D01*
X62125811Y-90732503D01*
X61765000Y-91603578D01*
X61765000Y-92546422D01*
X62125811Y-93417497D01*
X62792503Y-94084189D01*
X63663578Y-94445000D01*
X64606422Y-94445000D01*
X65477497Y-94084189D01*
X66144189Y-93417497D01*
X66354401Y-92910000D01*
X66506427Y-92910000D01*
X66588660Y-92926357D01*
X66670893Y-92910000D01*
X66670897Y-92910000D01*
X66914461Y-92861552D01*
X67190661Y-92677001D01*
X67237247Y-92607280D01*
X81309527Y-78535001D01*
X93927927Y-78535001D01*
X63212088Y-96500869D01*
X62826308Y-96605314D01*
X62412704Y-96606388D01*
X62012922Y-96500379D01*
X61654196Y-96294510D01*
X61360974Y-96002807D01*
X61153245Y-95645158D01*
X61035000Y-95208403D01*
X61035000Y-34584090D01*
X69805394Y-25813696D01*
X79775909Y-25813696D01*
X79964366Y-26156881D01*
X80840166Y-26506065D01*
X81782927Y-26493514D01*
X82595634Y-26156881D01*
X82784091Y-25813696D01*
X81280000Y-24309605D01*
X79775909Y-25813696D01*
X69805394Y-25813696D01*
X71928925Y-23690166D01*
X78903935Y-23690166D01*
X78916486Y-24632927D01*
X79253119Y-25445634D01*
X79596304Y-25634091D01*
X81100395Y-24130000D01*
X81459605Y-24130000D01*
X82963696Y-25634091D01*
X83306881Y-25445634D01*
X83656065Y-24569834D01*
X83643514Y-23627073D01*
X83306881Y-22814366D01*
X82963696Y-22625909D01*
X81459605Y-24130000D01*
X81100395Y-24130000D01*
X79596304Y-22625909D01*
X79253119Y-22814366D01*
X78903935Y-23690166D01*
X71928925Y-23690166D01*
X73172787Y-22446304D01*
X79775909Y-22446304D01*
X81280000Y-23950395D01*
X82784091Y-22446304D01*
X82595634Y-22103119D01*
X81719834Y-21753935D01*
X80777073Y-21766486D01*
X79964366Y-22103119D01*
X79775909Y-22446304D01*
X73172787Y-22446304D01*
X73954092Y-21665000D01*
X92043382Y-21665000D01*
X92848358Y-21736842D01*
X92848358Y-21736842D01*
G37*
X92848358Y-21736842D02*
X93597277Y-21941723D01*
X94298072Y-22275986D01*
X94928605Y-22729069D01*
X95468934Y-23286645D01*
X95901989Y-23931099D01*
X96214073Y-24642044D01*
X96396640Y-25402493D01*
X96432980Y-25897356D01*
X96420000Y-25962613D01*
X96420001Y-34217607D01*
X96405601Y-34290000D01*
X96462646Y-34576783D01*
X96625095Y-34819905D01*
X96782381Y-34925000D01*
X96625095Y-35030095D01*
X96462646Y-35273217D01*
X96405601Y-35560000D01*
X96445001Y-35758076D01*
X96445000Y-76130074D01*
X96431091Y-76200000D01*
X96486195Y-76477028D01*
X96643119Y-76711881D01*
X96827379Y-76835000D01*
X96778203Y-76867859D01*
X95825668Y-77425002D01*
X96012284Y-77238386D01*
X96082002Y-77191802D01*
X96266553Y-76915602D01*
X96315001Y-76672038D01*
X96315001Y-76672037D01*
X96331359Y-76589801D01*
X96315001Y-76507564D01*
X96315001Y-67774456D01*
X96331359Y-67692219D01*
X96266553Y-67366418D01*
X96128585Y-67159935D01*
X96082002Y-67090218D01*
X96012283Y-67043634D01*
X95028868Y-66060219D01*
X94982282Y-65990498D01*
X94706082Y-65805947D01*
X94462518Y-65757499D01*
X94462514Y-65757499D01*
X94380281Y-65741142D01*
X94298048Y-65757499D01*
X90969733Y-65757499D01*
X90887500Y-65741142D01*
X90805267Y-65757499D01*
X90805264Y-65757499D01*
X90624000Y-65793555D01*
X90624000Y-58461235D01*
X90640358Y-58378998D01*
X90575552Y-58053198D01*
X90575552Y-58053197D01*
X90391001Y-57776997D01*
X90321280Y-57730411D01*
X90160001Y-57569132D01*
X90159999Y-55987237D01*
X90176357Y-55904999D01*
X90111552Y-55579199D01*
X89973584Y-55372716D01*
X89973582Y-55372714D01*
X89927000Y-55302999D01*
X89857284Y-55256417D01*
X89572440Y-54971572D01*
X89572440Y-54505000D01*
X89523157Y-54257235D01*
X89382809Y-54047191D01*
X89172765Y-53906843D01*
X88960000Y-53864522D01*
X88960000Y-53282237D01*
X88976358Y-53200000D01*
X88911552Y-52874199D01*
X88773584Y-52667716D01*
X88727001Y-52597999D01*
X88657283Y-52551415D01*
X84685010Y-48579143D01*
X84685010Y-40352242D01*
X84701367Y-40270009D01*
X84685010Y-40187776D01*
X84685010Y-40187773D01*
X84636562Y-39944209D01*
X84452011Y-39668009D01*
X84382293Y-39621425D01*
X83222440Y-38461573D01*
X83222440Y-37995000D01*
X83173157Y-37747235D01*
X83032809Y-37537191D01*
X82822765Y-37396843D01*
X82575000Y-37347560D01*
X81835000Y-37347560D01*
X81835000Y-37189926D01*
X81848909Y-37120000D01*
X81793805Y-36842972D01*
X81636881Y-36608119D01*
X81402028Y-36451195D01*
X81194926Y-36410000D01*
X81194925Y-36410000D01*
X81125000Y-36396091D01*
X81055074Y-36410000D01*
X77694925Y-36410000D01*
X77625000Y-36396091D01*
X77555074Y-36410000D01*
X77347972Y-36451195D01*
X77113119Y-36608119D01*
X76956195Y-36842972D01*
X76901091Y-37120000D01*
X76915000Y-37189926D01*
X76915000Y-37347560D01*
X76175000Y-37347560D01*
X75927235Y-37396843D01*
X75717191Y-37537191D01*
X75576843Y-37747235D01*
X75527560Y-37995000D01*
X75527560Y-38995000D01*
X75576843Y-39242765D01*
X75657900Y-39364074D01*
X75636673Y-39385301D01*
X75540000Y-39618690D01*
X75540000Y-39959250D01*
X75698750Y-40118000D01*
X76848000Y-40118000D01*
X76848000Y-40098000D01*
X76915001Y-40098000D01*
X76915001Y-40392000D01*
X76848000Y-40392000D01*
X76848000Y-40372000D01*
X75698750Y-40372000D01*
X75540000Y-40530750D01*
X75540000Y-40871310D01*
X75636673Y-41104699D01*
X75815302Y-41283327D01*
X76048691Y-41380000D01*
X76689250Y-41380000D01*
X76847998Y-41221252D01*
X76847998Y-41380000D01*
X76915001Y-41380000D01*
X76915001Y-41550069D01*
X76901091Y-41620000D01*
X76956195Y-41897028D01*
X77113119Y-42131881D01*
X77347972Y-42288805D01*
X77555074Y-42330000D01*
X77555075Y-42330000D01*
X77625000Y-42343909D01*
X77694926Y-42330000D01*
X81055075Y-42330000D01*
X81125000Y-42343909D01*
X81402028Y-42288805D01*
X81636881Y-42131881D01*
X81793805Y-41897028D01*
X81835000Y-41689926D01*
X81848909Y-41620000D01*
X81835000Y-41550074D01*
X81835000Y-41392440D01*
X82147639Y-41392440D01*
X82565001Y-41809803D01*
X82565000Y-53857560D01*
X82525000Y-53857560D01*
X82277235Y-53906843D01*
X82067191Y-54047191D01*
X81926843Y-54257235D01*
X81877560Y-54505000D01*
X81877560Y-55505000D01*
X81926843Y-55752765D01*
X82007900Y-55874074D01*
X81986673Y-55895301D01*
X81890000Y-56128690D01*
X81890000Y-56469250D01*
X82048750Y-56628000D01*
X83198000Y-56628000D01*
X83198000Y-56608000D01*
X83265001Y-56608000D01*
X83265001Y-56902000D01*
X83198000Y-56902000D01*
X83198000Y-56882000D01*
X82048750Y-56882000D01*
X81890000Y-57040750D01*
X81890000Y-57381310D01*
X81986673Y-57614699D01*
X82165302Y-57793327D01*
X82398691Y-57890000D01*
X83039250Y-57890000D01*
X83197998Y-57731252D01*
X83197998Y-57890000D01*
X83265001Y-57890000D01*
X83265001Y-58060069D01*
X83251091Y-58130000D01*
X83306195Y-58407028D01*
X83463119Y-58641881D01*
X83697972Y-58798805D01*
X83905074Y-58840000D01*
X83905075Y-58840000D01*
X83975000Y-58853909D01*
X84044926Y-58840000D01*
X86135197Y-58840000D01*
X75250199Y-69725000D01*
X69924848Y-69725000D01*
X69850000Y-69710112D01*
X69775152Y-69725000D01*
X69775148Y-69725000D01*
X69601605Y-69759520D01*
X69553462Y-69769096D01*
X69366418Y-69894076D01*
X69302071Y-69937071D01*
X69259671Y-70000528D01*
X68870527Y-70389671D01*
X68807072Y-70432071D01*
X68764672Y-70495527D01*
X68764671Y-70495528D01*
X68639097Y-70683463D01*
X68580112Y-70980000D01*
X68595001Y-71054852D01*
X68595001Y-71637560D01*
X68555000Y-71637560D01*
X68307235Y-71686843D01*
X68097191Y-71827191D01*
X67956843Y-72037235D01*
X67907560Y-72285000D01*
X67907560Y-73285000D01*
X67956843Y-73532765D01*
X68037900Y-73654074D01*
X68016673Y-73675301D01*
X67920000Y-73908690D01*
X67920000Y-74249250D01*
X68078750Y-74408000D01*
X69228000Y-74408000D01*
X69228000Y-74388000D01*
X69295001Y-74388000D01*
X69295001Y-74682000D01*
X69228000Y-74682000D01*
X69228000Y-74662000D01*
X68078750Y-74662000D01*
X67920000Y-74820750D01*
X67920000Y-75161310D01*
X68016673Y-75394699D01*
X68195302Y-75573327D01*
X68428691Y-75670000D01*
X69069250Y-75670000D01*
X69227998Y-75511252D01*
X69227998Y-75670000D01*
X69295001Y-75670000D01*
X69295001Y-75840069D01*
X69281091Y-75910000D01*
X69336195Y-76187028D01*
X69493119Y-76421881D01*
X69727972Y-76578805D01*
X69935074Y-76620000D01*
X69935075Y-76620000D01*
X70005000Y-76633909D01*
X70074926Y-76620000D01*
X73435075Y-76620000D01*
X73505000Y-76633909D01*
X73782028Y-76578805D01*
X74016881Y-76421881D01*
X74173805Y-76187028D01*
X74215000Y-75979926D01*
X74228909Y-75910000D01*
X74215000Y-75840074D01*
X74215000Y-75682440D01*
X74955000Y-75682440D01*
X75202765Y-75633157D01*
X75412809Y-75492809D01*
X75544982Y-75295000D01*
X90975000Y-75295000D01*
X90975000Y-76036422D01*
X91318209Y-76865001D01*
X81045896Y-76865001D01*
X80963659Y-76848643D01*
X80881422Y-76865001D01*
X80637858Y-76913449D01*
X80361658Y-77098000D01*
X80315074Y-77167718D01*
X66321712Y-91161081D01*
X66144189Y-90732503D01*
X65477497Y-90065811D01*
X64606422Y-89705000D01*
X63663578Y-89705000D01*
X62792503Y-90065811D01*
X62125811Y-90732503D01*
X61765000Y-91603578D01*
X61765000Y-92546422D01*
X62125811Y-93417497D01*
X62792503Y-94084189D01*
X63663578Y-94445000D01*
X64606422Y-94445000D01*
X65477497Y-94084189D01*
X66144189Y-93417497D01*
X66354401Y-92910000D01*
X66506427Y-92910000D01*
X66588660Y-92926357D01*
X66670893Y-92910000D01*
X66670897Y-92910000D01*
X66914461Y-92861552D01*
X67190661Y-92677001D01*
X67237247Y-92607280D01*
X81309527Y-78535001D01*
X93927927Y-78535001D01*
X63212088Y-96500869D01*
X62826308Y-96605314D01*
X62412704Y-96606388D01*
X62012922Y-96500379D01*
X61654196Y-96294510D01*
X61360974Y-96002807D01*
X61153245Y-95645158D01*
X61035000Y-95208403D01*
X61035000Y-34584090D01*
X69805394Y-25813696D01*
X79775909Y-25813696D01*
X79964366Y-26156881D01*
X80840166Y-26506065D01*
X81782927Y-26493514D01*
X82595634Y-26156881D01*
X82784091Y-25813696D01*
X81280000Y-24309605D01*
X79775909Y-25813696D01*
X69805394Y-25813696D01*
X71928925Y-23690166D01*
X78903935Y-23690166D01*
X78916486Y-24632927D01*
X79253119Y-25445634D01*
X79596304Y-25634091D01*
X81100395Y-24130000D01*
X81459605Y-24130000D01*
X82963696Y-25634091D01*
X83306881Y-25445634D01*
X83656065Y-24569834D01*
X83643514Y-23627073D01*
X83306881Y-22814366D01*
X82963696Y-22625909D01*
X81459605Y-24130000D01*
X81100395Y-24130000D01*
X79596304Y-22625909D01*
X79253119Y-22814366D01*
X78903935Y-23690166D01*
X71928925Y-23690166D01*
X73172787Y-22446304D01*
X79775909Y-22446304D01*
X81280000Y-23950395D01*
X82784091Y-22446304D01*
X82595634Y-22103119D01*
X81719834Y-21753935D01*
X80777073Y-21766486D01*
X79964366Y-22103119D01*
X79775909Y-22446304D01*
X73172787Y-22446304D01*
X73954092Y-21665000D01*
X92043382Y-21665000D01*
X92848358Y-21736842D01*
G36*
X88954000Y-66640146D02*
X88658513Y-66935633D01*
X88455500Y-67425750D01*
X88455500Y-67956250D01*
X88658513Y-68446367D01*
X89033633Y-68821487D01*
X89523750Y-69024500D01*
X90054250Y-69024500D01*
X90544367Y-68821487D01*
X90805000Y-68560854D01*
X91061000Y-68816854D01*
X91061001Y-73775000D01*
X75544982Y-73775000D01*
X75468141Y-73660000D01*
X75553157Y-73532765D01*
X75602440Y-73285000D01*
X75602440Y-72818427D01*
X88954001Y-59466867D01*
X88954000Y-66640146D01*
X88954000Y-66640146D01*
G37*
X88954000Y-66640146D02*
X88658513Y-66935633D01*
X88455500Y-67425750D01*
X88455500Y-67956250D01*
X88658513Y-68446367D01*
X89033633Y-68821487D01*
X89523750Y-69024500D01*
X90054250Y-69024500D01*
X90544367Y-68821487D01*
X90805000Y-68560854D01*
X91061000Y-68816854D01*
X91061001Y-73775000D01*
X75544982Y-73775000D01*
X75468141Y-73660000D01*
X75553157Y-73532765D01*
X75602440Y-73285000D01*
X75602440Y-72818427D01*
X88954001Y-59466867D01*
X88954000Y-66640146D01*
G36*
X128959000Y-66640146D02*
X128663513Y-66935633D01*
X128460500Y-67425750D01*
X128460500Y-67956250D01*
X128663513Y-68446367D01*
X129038633Y-68821487D01*
X129528750Y-69024500D01*
X130059250Y-69024500D01*
X130549367Y-68821487D01*
X130810000Y-68560854D01*
X131066000Y-68816854D01*
X131066001Y-73775000D01*
X115549982Y-73775000D01*
X115473141Y-73660000D01*
X115558157Y-73532765D01*
X115607440Y-73285000D01*
X115607440Y-72818427D01*
X128959001Y-59466867D01*
X128959000Y-66640146D01*
X128959000Y-66640146D01*
G37*
X128959000Y-66640146D02*
X128663513Y-66935633D01*
X128460500Y-67425750D01*
X128460500Y-67956250D01*
X128663513Y-68446367D01*
X129038633Y-68821487D01*
X129528750Y-69024500D01*
X130059250Y-69024500D01*
X130549367Y-68821487D01*
X130810000Y-68560854D01*
X131066000Y-68816854D01*
X131066001Y-73775000D01*
X115549982Y-73775000D01*
X115473141Y-73660000D01*
X115558157Y-73532765D01*
X115607440Y-73285000D01*
X115607440Y-72818427D01*
X128959001Y-59466867D01*
X128959000Y-66640146D01*
G36*
X94046748Y-67676858D02*
X94032605Y-67691000D01*
X94046748Y-67705143D01*
X93867143Y-67884748D01*
X93853000Y-67870605D01*
X93098417Y-68625188D01*
X93160071Y-68860800D01*
X93660480Y-69036927D01*
X94190199Y-69008148D01*
X94545929Y-68860800D01*
X94607582Y-68625190D01*
X94645002Y-68662610D01*
X94645001Y-73538209D01*
X93816422Y-73195000D01*
X92873578Y-73195000D01*
X92581000Y-73316190D01*
X92581000Y-68816854D01*
X92951487Y-68446367D01*
X92975146Y-68389249D01*
X93673395Y-67691000D01*
X93659253Y-67676858D01*
X93838858Y-67497253D01*
X93853000Y-67511395D01*
X93867143Y-67497253D01*
X94046748Y-67676858D01*
X94046748Y-67676858D01*
G37*
X94046748Y-67676858D02*
X94032605Y-67691000D01*
X94046748Y-67705143D01*
X93867143Y-67884748D01*
X93853000Y-67870605D01*
X93098417Y-68625188D01*
X93160071Y-68860800D01*
X93660480Y-69036927D01*
X94190199Y-69008148D01*
X94545929Y-68860800D01*
X94607582Y-68625190D01*
X94645002Y-68662610D01*
X94645001Y-73538209D01*
X93816422Y-73195000D01*
X92873578Y-73195000D01*
X92581000Y-73316190D01*
X92581000Y-68816854D01*
X92951487Y-68446367D01*
X92975146Y-68389249D01*
X93673395Y-67691000D01*
X93659253Y-67676858D01*
X93838858Y-67497253D01*
X93853000Y-67511395D01*
X93867143Y-67497253D01*
X94046748Y-67676858D01*
G36*
X134051748Y-67676858D02*
X134037605Y-67691000D01*
X134051748Y-67705143D01*
X133872143Y-67884748D01*
X133858000Y-67870605D01*
X133103417Y-68625188D01*
X133165071Y-68860800D01*
X133665480Y-69036927D01*
X134195199Y-69008148D01*
X134550929Y-68860800D01*
X134612582Y-68625190D01*
X134650002Y-68662610D01*
X134650001Y-73538209D01*
X133821422Y-73195000D01*
X132878578Y-73195000D01*
X132586000Y-73316190D01*
X132586000Y-68816854D01*
X132956487Y-68446367D01*
X132980146Y-68389249D01*
X133678395Y-67691000D01*
X133664253Y-67676858D01*
X133843858Y-67497253D01*
X133858000Y-67511395D01*
X133872143Y-67497253D01*
X134051748Y-67676858D01*
X134051748Y-67676858D01*
G37*
X134051748Y-67676858D02*
X134037605Y-67691000D01*
X134051748Y-67705143D01*
X133872143Y-67884748D01*
X133858000Y-67870605D01*
X133103417Y-68625188D01*
X133165071Y-68860800D01*
X133665480Y-69036927D01*
X134195199Y-69008148D01*
X134550929Y-68860800D01*
X134612582Y-68625190D01*
X134650002Y-68662610D01*
X134650001Y-73538209D01*
X133821422Y-73195000D01*
X132878578Y-73195000D01*
X132586000Y-73316190D01*
X132586000Y-68816854D01*
X132956487Y-68446367D01*
X132980146Y-68389249D01*
X133678395Y-67691000D01*
X133664253Y-67676858D01*
X133843858Y-67497253D01*
X133858000Y-67511395D01*
X133872143Y-67497253D01*
X134051748Y-67676858D01*
G36*
X126669132Y-52920000D02*
X124090000Y-52920000D01*
X124090000Y-50340867D01*
X126669132Y-52920000D01*
X126669132Y-52920000D01*
G37*
X126669132Y-52920000D02*
X124090000Y-52920000D01*
X124090000Y-50340867D01*
X126669132Y-52920000D01*
G36*
X86664132Y-52920000D02*
X84085000Y-52920000D01*
X84085000Y-50340867D01*
X86664132Y-52920000D01*
X86664132Y-52920000D01*
G37*
X86664132Y-52920000D02*
X84085000Y-52920000D01*
X84085000Y-50340867D01*
X86664132Y-52920000D01*
G04 #@! TD*
M02*
