G04 #@! TF.GenerationSoftware,KiCad,Pcbnew,5.0.2-bee76a0~70~ubuntu18.04.1*
G04 #@! TF.CreationDate,2019-06-15T01:44:12+09:00*
G04 #@! TF.ProjectId,shield,73686965-6c64-42e6-9b69-6361645f7063,rev?*
G04 #@! TF.SameCoordinates,Original*
G04 #@! TF.FileFunction,Legend,Bot*
G04 #@! TF.FilePolarity,Positive*
%FSLAX46Y46*%
G04 Gerber Fmt 4.6, Leading zero omitted, Abs format (unit mm)*
G04 Created by KiCad (PCBNEW 5.0.2-bee76a0~70~ubuntu18.04.1) date 2019年06月15日 01時44分12秒*
%MOMM*%
%LPD*%
G01*
G04 APERTURE LIST*
%ADD10C,0.300000*%
%ADD11C,0.150000*%
G04 APERTURE END LIST*
D10*
G04 #@! TO.C,L1*
X115190000Y-72060000D02*
X115190000Y-73510000D01*
X115190000Y-73510000D02*
X113140000Y-73510000D01*
X113140000Y-73510000D02*
X113140000Y-72060000D01*
X113140000Y-72060000D02*
X115190000Y-72060000D01*
D11*
G04 #@! TO.C,GND*
X132858000Y-68691000D02*
X132858000Y-66691000D01*
X134858000Y-68691000D02*
X132858000Y-68691000D01*
X134858000Y-66691000D02*
X134858000Y-68691000D01*
X132858000Y-66691000D02*
X134858000Y-66691000D01*
D10*
G04 #@! TO.C,L3*
X122810000Y-37770000D02*
X122810000Y-39220000D01*
X122810000Y-39220000D02*
X120760000Y-39220000D01*
X120760000Y-39220000D02*
X120760000Y-37770000D01*
X120760000Y-37770000D02*
X122810000Y-37770000D01*
D11*
G04 #@! TO.C,VCC*
X128794000Y-68691000D02*
X128794000Y-66691000D01*
X130794000Y-68691000D02*
X128794000Y-68691000D01*
X130794000Y-66691000D02*
X130794000Y-68691000D01*
X128794000Y-66691000D02*
X130794000Y-66691000D01*
D10*
G04 #@! TO.C,L2*
X129160000Y-54280000D02*
X129160000Y-55730000D01*
X129160000Y-55730000D02*
X127110000Y-55730000D01*
X127110000Y-55730000D02*
X127110000Y-54280000D01*
X127110000Y-54280000D02*
X129160000Y-54280000D01*
D11*
G04 #@! TO.C,LED*
X130826000Y-68691000D02*
X130826000Y-66691000D01*
X132826000Y-68691000D02*
X130826000Y-68691000D01*
X132826000Y-66691000D02*
X132826000Y-68691000D01*
X130826000Y-66691000D02*
X132826000Y-66691000D01*
G04 #@! TO.C,GND*
X92853000Y-66691000D02*
X94853000Y-66691000D01*
X94853000Y-66691000D02*
X94853000Y-68691000D01*
X94853000Y-68691000D02*
X92853000Y-68691000D01*
X92853000Y-68691000D02*
X92853000Y-66691000D01*
G04 #@! TO.C,VCC*
X88789000Y-66691000D02*
X90789000Y-66691000D01*
X90789000Y-66691000D02*
X90789000Y-68691000D01*
X90789000Y-68691000D02*
X88789000Y-68691000D01*
X88789000Y-68691000D02*
X88789000Y-66691000D01*
G04 #@! TO.C,LED*
X90821000Y-66691000D02*
X92821000Y-66691000D01*
X92821000Y-66691000D02*
X92821000Y-68691000D01*
X92821000Y-68691000D02*
X90821000Y-68691000D01*
X90821000Y-68691000D02*
X90821000Y-66691000D01*
D10*
G04 #@! TO.C,L1*
X73135000Y-72060000D02*
X75185000Y-72060000D01*
X73135000Y-73510000D02*
X73135000Y-72060000D01*
X75185000Y-73510000D02*
X73135000Y-73510000D01*
X75185000Y-72060000D02*
X75185000Y-73510000D01*
G04 #@! TO.C,L2*
X87105000Y-54280000D02*
X89155000Y-54280000D01*
X87105000Y-55730000D02*
X87105000Y-54280000D01*
X89155000Y-55730000D02*
X87105000Y-55730000D01*
X89155000Y-54280000D02*
X89155000Y-55730000D01*
G04 #@! TO.C,L3*
X80755000Y-37770000D02*
X82805000Y-37770000D01*
X80755000Y-39220000D02*
X80755000Y-37770000D01*
X82805000Y-39220000D02*
X80755000Y-39220000D01*
X82805000Y-37770000D02*
X82805000Y-39220000D01*
G04 #@! TO.C,GND*
D11*
X134477276Y-68935600D02*
X134554685Y-68896895D01*
X134670800Y-68896895D01*
X134786914Y-68935600D01*
X134864323Y-69013009D01*
X134903028Y-69090419D01*
X134941733Y-69245238D01*
X134941733Y-69361352D01*
X134903028Y-69516171D01*
X134864323Y-69593580D01*
X134786914Y-69670990D01*
X134670800Y-69709695D01*
X134593390Y-69709695D01*
X134477276Y-69670990D01*
X134438571Y-69632285D01*
X134438571Y-69361352D01*
X134593390Y-69361352D01*
X134090228Y-69709695D02*
X134090228Y-68896895D01*
X133625771Y-69709695D01*
X133625771Y-68896895D01*
X133238723Y-69709695D02*
X133238723Y-68896895D01*
X133045200Y-68896895D01*
X132929085Y-68935600D01*
X132851676Y-69013009D01*
X132812971Y-69090419D01*
X132774266Y-69245238D01*
X132774266Y-69361352D01*
X132812971Y-69516171D01*
X132851676Y-69593580D01*
X132929085Y-69670990D01*
X133045200Y-69709695D01*
X133238723Y-69709695D01*
G04 #@! TO.C,VCC*
X130877733Y-68896895D02*
X130606800Y-69709695D01*
X130335866Y-68896895D01*
X129600476Y-69632285D02*
X129639180Y-69670990D01*
X129755295Y-69709695D01*
X129832704Y-69709695D01*
X129948819Y-69670990D01*
X130026228Y-69593580D01*
X130064933Y-69516171D01*
X130103638Y-69361352D01*
X130103638Y-69245238D01*
X130064933Y-69090419D01*
X130026228Y-69013009D01*
X129948819Y-68935600D01*
X129832704Y-68896895D01*
X129755295Y-68896895D01*
X129639180Y-68935600D01*
X129600476Y-68974304D01*
X128787676Y-69632285D02*
X128826380Y-69670990D01*
X128942495Y-69709695D01*
X129019904Y-69709695D01*
X129136019Y-69670990D01*
X129213428Y-69593580D01*
X129252133Y-69516171D01*
X129290838Y-69361352D01*
X129290838Y-69245238D01*
X129252133Y-69090419D01*
X129213428Y-69013009D01*
X129136019Y-68935600D01*
X129019904Y-68896895D01*
X128942495Y-68896895D01*
X128826380Y-68935600D01*
X128787676Y-68974304D01*
G04 #@! TO.C,LED*
X132348514Y-66280695D02*
X132735561Y-66280695D01*
X132735561Y-65467895D01*
X132077580Y-65854942D02*
X131806647Y-65854942D01*
X131690533Y-66280695D02*
X132077580Y-66280695D01*
X132077580Y-65467895D01*
X131690533Y-65467895D01*
X131342190Y-66280695D02*
X131342190Y-65467895D01*
X131148666Y-65467895D01*
X131032552Y-65506600D01*
X130955142Y-65584009D01*
X130916438Y-65661419D01*
X130877733Y-65816238D01*
X130877733Y-65932352D01*
X130916438Y-66087171D01*
X130955142Y-66164580D01*
X131032552Y-66241990D01*
X131148666Y-66280695D01*
X131342190Y-66280695D01*
G04 #@! TO.C,GND*
X94472276Y-68935600D02*
X94549685Y-68896895D01*
X94665800Y-68896895D01*
X94781914Y-68935600D01*
X94859323Y-69013009D01*
X94898028Y-69090419D01*
X94936733Y-69245238D01*
X94936733Y-69361352D01*
X94898028Y-69516171D01*
X94859323Y-69593580D01*
X94781914Y-69670990D01*
X94665800Y-69709695D01*
X94588390Y-69709695D01*
X94472276Y-69670990D01*
X94433571Y-69632285D01*
X94433571Y-69361352D01*
X94588390Y-69361352D01*
X94085228Y-69709695D02*
X94085228Y-68896895D01*
X93620771Y-69709695D01*
X93620771Y-68896895D01*
X93233723Y-69709695D02*
X93233723Y-68896895D01*
X93040200Y-68896895D01*
X92924085Y-68935600D01*
X92846676Y-69013009D01*
X92807971Y-69090419D01*
X92769266Y-69245238D01*
X92769266Y-69361352D01*
X92807971Y-69516171D01*
X92846676Y-69593580D01*
X92924085Y-69670990D01*
X93040200Y-69709695D01*
X93233723Y-69709695D01*
G04 #@! TO.C,VCC*
X90872733Y-68896895D02*
X90601800Y-69709695D01*
X90330866Y-68896895D01*
X89595476Y-69632285D02*
X89634180Y-69670990D01*
X89750295Y-69709695D01*
X89827704Y-69709695D01*
X89943819Y-69670990D01*
X90021228Y-69593580D01*
X90059933Y-69516171D01*
X90098638Y-69361352D01*
X90098638Y-69245238D01*
X90059933Y-69090419D01*
X90021228Y-69013009D01*
X89943819Y-68935600D01*
X89827704Y-68896895D01*
X89750295Y-68896895D01*
X89634180Y-68935600D01*
X89595476Y-68974304D01*
X88782676Y-69632285D02*
X88821380Y-69670990D01*
X88937495Y-69709695D01*
X89014904Y-69709695D01*
X89131019Y-69670990D01*
X89208428Y-69593580D01*
X89247133Y-69516171D01*
X89285838Y-69361352D01*
X89285838Y-69245238D01*
X89247133Y-69090419D01*
X89208428Y-69013009D01*
X89131019Y-68935600D01*
X89014904Y-68896895D01*
X88937495Y-68896895D01*
X88821380Y-68935600D01*
X88782676Y-68974304D01*
G04 #@! TO.C,LED*
X92343514Y-66280695D02*
X92730561Y-66280695D01*
X92730561Y-65467895D01*
X92072580Y-65854942D02*
X91801647Y-65854942D01*
X91685533Y-66280695D02*
X92072580Y-66280695D01*
X92072580Y-65467895D01*
X91685533Y-65467895D01*
X91337190Y-66280695D02*
X91337190Y-65467895D01*
X91143666Y-65467895D01*
X91027552Y-65506600D01*
X90950142Y-65584009D01*
X90911438Y-65661419D01*
X90872733Y-65816238D01*
X90872733Y-65932352D01*
X90911438Y-66087171D01*
X90950142Y-66164580D01*
X91027552Y-66241990D01*
X91143666Y-66280695D01*
X91337190Y-66280695D01*
G04 #@! TD*
M02*
