M48
;DRILL file {KiCad 5.0.2-bee76a0~70~ubuntu18.04.1} date 2019年06月15日 01時44分22秒
;FORMAT={-:-/ absolute / inch / decimal}
FMAT,2
INCH,TZ
T1C0.0157
T2C0.0320
T3C0.0866
%
G90
G05
T1
X3.35Y-2.05
X3.55Y-2.85
X3.85Y-1.375
X3.85Y-3.025
X3.925Y-1.375
X3.925Y-3.025
X4.925Y-2.05
X5.125Y-2.85
T2
X3.695Y-2.665
X3.535Y-2.665
X5.11Y-2.665
X5.27Y-2.665
X3.615Y-2.665
X5.19Y-2.665
T3
X2.525Y-3.625
X5.25Y-2.975
X3.675Y-2.975
X4.775Y-0.95
X3.2Y-0.95
X4.1Y-3.625
T0
M30
