G04 #@! TF.GenerationSoftware,KiCad,Pcbnew,5.0.2-bee76a0~70~ubuntu18.04.1*
G04 #@! TF.CreationDate,2019-06-15T01:44:12+09:00*
G04 #@! TF.ProjectId,shield,73686965-6c64-42e6-9b69-6361645f7063,rev?*
G04 #@! TF.SameCoordinates,Original*
G04 #@! TF.FileFunction,Profile,NP*
%FSLAX46Y46*%
G04 Gerber Fmt 4.6, Leading zero omitted, Abs format (unit mm)*
G04 Created by KiCad (PCBNEW 5.0.2-bee76a0~70~ubuntu18.04.1) date 2019年06月15日 01時44分12秒*
%MOMM*%
%LPD*%
G01*
G04 APERTURE LIST*
%ADD10C,0.150000*%
%ADD11C,0.200000*%
G04 #@! TA.AperFunction,NonConductor*
%ADD12C,0.150000*%
G04 #@! TD*
G04 APERTURE END LIST*
D10*
X137160000Y-26035000D02*
X137160000Y-77470000D01*
X113665000Y-20955000D02*
X132080000Y-20955000D01*
X103505000Y-97155000D02*
X137160000Y-77470000D01*
X132080000Y-20955000D02*
G75*
G02X137160000Y-26035000I0J-5080000D01*
G01*
X97155000Y-76200000D02*
X97155000Y-35560000D01*
D11*
X97155000Y-35560000D02*
X100330000Y-35560000D01*
X100330000Y-34290000D02*
X97155000Y-34290000D01*
X100330000Y-77470000D02*
X100330000Y-95250000D01*
D10*
X100330000Y-34290000D02*
X113665000Y-20955000D01*
X100330000Y-76200000D02*
X100330000Y-35560000D01*
X103506306Y-97158128D02*
G75*
G02X100330000Y-95250000I-885879J2123082D01*
G01*
X97155000Y-76200000D02*
X100330000Y-76200000D01*
X100330000Y-77470000D02*
X97155000Y-77470000D01*
D11*
X97155000Y-26035000D02*
X97155000Y-34290000D01*
D10*
X92075000Y-20955000D02*
G75*
G02X97155000Y-26035000I0J-5080000D01*
G01*
X63501306Y-97158128D02*
G75*
G02X60325000Y-95250000I-885879J2123082D01*
G01*
X92075000Y-20955000D02*
X73660000Y-20955000D01*
X63500000Y-97155000D02*
X97155000Y-77470000D01*
X60325000Y-95250000D02*
X60325000Y-34290000D01*
X60325000Y-34290000D02*
X73660000Y-20955000D01*
D12*
G04 #@! TO.C,L1*
X110010000Y-71410000D02*
X110010000Y-75910000D01*
X113510000Y-71410000D02*
X113510000Y-75910000D01*
X110010000Y-71410000D02*
X113510000Y-71410000D01*
X113510000Y-75910000D02*
X110010000Y-75910000D01*
G04 #@! TO.C,L3*
X117630000Y-37120000D02*
X117630000Y-41620000D01*
X121130000Y-37120000D02*
X121130000Y-41620000D01*
X117630000Y-37120000D02*
X121130000Y-37120000D01*
X121130000Y-41620000D02*
X117630000Y-41620000D01*
G04 #@! TO.C,L2*
X123980000Y-53630000D02*
X123980000Y-58130000D01*
X127480000Y-53630000D02*
X127480000Y-58130000D01*
X123980000Y-53630000D02*
X127480000Y-53630000D01*
X127480000Y-58130000D02*
X123980000Y-58130000D01*
G04 #@! TO.C,L1*
X73505000Y-75910000D02*
X70005000Y-75910000D01*
X70005000Y-71410000D02*
X73505000Y-71410000D01*
X73505000Y-71410000D02*
X73505000Y-75910000D01*
X70005000Y-71410000D02*
X70005000Y-75910000D01*
G04 #@! TO.C,L2*
X87475000Y-58130000D02*
X83975000Y-58130000D01*
X83975000Y-53630000D02*
X87475000Y-53630000D01*
X87475000Y-53630000D02*
X87475000Y-58130000D01*
X83975000Y-53630000D02*
X83975000Y-58130000D01*
G04 #@! TO.C,L3*
X81125000Y-41620000D02*
X77625000Y-41620000D01*
X77625000Y-37120000D02*
X81125000Y-37120000D01*
X81125000Y-37120000D02*
X81125000Y-41620000D01*
X77625000Y-37120000D02*
X77625000Y-41620000D01*
G04 #@! TD*
M02*
