G04 #@! TF.GenerationSoftware,KiCad,Pcbnew,5.1.5+dfsg1-2build2*
G04 #@! TF.CreationDate,2021-03-23T21:18:19+09:00*
G04 #@! TF.ProjectId,rest,72657374-2e6b-4696-9361-645f70636258,rev?*
G04 #@! TF.SameCoordinates,Original*
G04 #@! TF.FileFunction,Soldermask,Top*
G04 #@! TF.FilePolarity,Negative*
%FSLAX46Y46*%
G04 Gerber Fmt 4.6, Leading zero omitted, Abs format (unit mm)*
G04 Created by KiCad (PCBNEW 5.1.5+dfsg1-2build2) date 2021-03-23 21:18:19*
%MOMM*%
%LPD*%
G04 APERTURE LIST*
%ADD10C,0.100000*%
G04 APERTURE END LIST*
D10*
G36*
X136775880Y-120759776D02*
G01*
X137156593Y-120835504D01*
X137566249Y-121005189D01*
X137934929Y-121251534D01*
X138248466Y-121565071D01*
X138494811Y-121933751D01*
X138664496Y-122343407D01*
X138751000Y-122778296D01*
X138751000Y-123221704D01*
X138664496Y-123656593D01*
X138494811Y-124066249D01*
X138248466Y-124434929D01*
X137934929Y-124748466D01*
X137566249Y-124994811D01*
X137156593Y-125164496D01*
X136775880Y-125240224D01*
X136721705Y-125251000D01*
X136278295Y-125251000D01*
X136224120Y-125240224D01*
X135843407Y-125164496D01*
X135433751Y-124994811D01*
X135065071Y-124748466D01*
X134751534Y-124434929D01*
X134505189Y-124066249D01*
X134335504Y-123656593D01*
X134249000Y-123221704D01*
X134249000Y-122778296D01*
X134335504Y-122343407D01*
X134505189Y-121933751D01*
X134751534Y-121565071D01*
X135065071Y-121251534D01*
X135433751Y-121005189D01*
X135843407Y-120835504D01*
X136224120Y-120759776D01*
X136278295Y-120749000D01*
X136721705Y-120749000D01*
X136775880Y-120759776D01*
G37*
G36*
X37275880Y-120759776D02*
G01*
X37656593Y-120835504D01*
X38066249Y-121005189D01*
X38434929Y-121251534D01*
X38748466Y-121565071D01*
X38994811Y-121933751D01*
X39164496Y-122343407D01*
X39251000Y-122778296D01*
X39251000Y-123221704D01*
X39164496Y-123656593D01*
X38994811Y-124066249D01*
X38748466Y-124434929D01*
X38434929Y-124748466D01*
X38066249Y-124994811D01*
X37656593Y-125164496D01*
X37275880Y-125240224D01*
X37221705Y-125251000D01*
X36778295Y-125251000D01*
X36724120Y-125240224D01*
X36343407Y-125164496D01*
X35933751Y-124994811D01*
X35565071Y-124748466D01*
X35251534Y-124434929D01*
X35005189Y-124066249D01*
X34835504Y-123656593D01*
X34749000Y-123221704D01*
X34749000Y-122778296D01*
X34835504Y-122343407D01*
X35005189Y-121933751D01*
X35251534Y-121565071D01*
X35565071Y-121251534D01*
X35933751Y-121005189D01*
X36343407Y-120835504D01*
X36724120Y-120759776D01*
X36778295Y-120749000D01*
X37221705Y-120749000D01*
X37275880Y-120759776D01*
G37*
G36*
X146473416Y-108462172D02*
G01*
X146598970Y-108506079D01*
X147404893Y-108880175D01*
X147519469Y-108947732D01*
X147651829Y-109065972D01*
X147758578Y-109207762D01*
X147758579Y-109207764D01*
X147812773Y-109320245D01*
X147835614Y-109367651D01*
X147879977Y-109539498D01*
X147889962Y-109716699D01*
X147865185Y-109892442D01*
X147865184Y-109892444D01*
X147806599Y-110059974D01*
X147716452Y-110212861D01*
X147598216Y-110345218D01*
X147541240Y-110388113D01*
X147456424Y-110451968D01*
X147404435Y-110477016D01*
X147296533Y-110529005D01*
X147124687Y-110573367D01*
X146947486Y-110583353D01*
X146771742Y-110558575D01*
X146646189Y-110514669D01*
X145840266Y-110140572D01*
X145840265Y-110140571D01*
X145840262Y-110140570D01*
X145786839Y-110109070D01*
X145725691Y-110073015D01*
X145593331Y-109954776D01*
X145486582Y-109812986D01*
X145440190Y-109716699D01*
X145409544Y-109653093D01*
X145365182Y-109481249D01*
X145360045Y-109390081D01*
X145355197Y-109304049D01*
X145379974Y-109128306D01*
X145405797Y-109054466D01*
X145438560Y-108960774D01*
X145527517Y-108809908D01*
X145528707Y-108807889D01*
X145632528Y-108691669D01*
X145646942Y-108675533D01*
X145646946Y-108675529D01*
X145788736Y-108568780D01*
X145918873Y-108506079D01*
X145948629Y-108491742D01*
X146120473Y-108447380D01*
X146211641Y-108442243D01*
X146297673Y-108437395D01*
X146473416Y-108462172D01*
G37*
G36*
X143752284Y-107199065D02*
G01*
X143877838Y-107242972D01*
X144683761Y-107617068D01*
X144798337Y-107684625D01*
X144930697Y-107802865D01*
X145037446Y-107944655D01*
X145114482Y-108104544D01*
X145158845Y-108276391D01*
X145168830Y-108453592D01*
X145144053Y-108629335D01*
X145144052Y-108629337D01*
X145085467Y-108796867D01*
X144995320Y-108949754D01*
X144877084Y-109082111D01*
X144820108Y-109125006D01*
X144735292Y-109188861D01*
X144696062Y-109207762D01*
X144575401Y-109265898D01*
X144403555Y-109310260D01*
X144226354Y-109320246D01*
X144050610Y-109295468D01*
X143925057Y-109251562D01*
X143119134Y-108877465D01*
X143119133Y-108877464D01*
X143119130Y-108877463D01*
X143065707Y-108845963D01*
X143004559Y-108809908D01*
X142872199Y-108691669D01*
X142765450Y-108549879D01*
X142711255Y-108437396D01*
X142688412Y-108389986D01*
X142644050Y-108218142D01*
X142638913Y-108126974D01*
X142634065Y-108040942D01*
X142658842Y-107865199D01*
X142686351Y-107786536D01*
X142717428Y-107697667D01*
X142787258Y-107579239D01*
X142807575Y-107544782D01*
X142925814Y-107412422D01*
X143067604Y-107305673D01*
X143141937Y-107269859D01*
X143227497Y-107228635D01*
X143399341Y-107184273D01*
X143490509Y-107179136D01*
X143576541Y-107174288D01*
X143752284Y-107199065D01*
G37*
G36*
X149329324Y-107737463D02*
G01*
X149381319Y-107759000D01*
X149447798Y-107786537D01*
X149554422Y-107857781D01*
X149645099Y-107948458D01*
X149706896Y-108040943D01*
X149716344Y-108055084D01*
X149765417Y-108173556D01*
X149790434Y-108299327D01*
X149790434Y-108427565D01*
X149786492Y-108447381D01*
X149765417Y-108553336D01*
X149716343Y-108671810D01*
X149645099Y-108778434D01*
X149554422Y-108869111D01*
X149447798Y-108940355D01*
X149447797Y-108940356D01*
X149447796Y-108940356D01*
X149329324Y-108989429D01*
X149203553Y-109014446D01*
X149075315Y-109014446D01*
X148949544Y-108989429D01*
X148831072Y-108940356D01*
X148831071Y-108940356D01*
X148831070Y-108940355D01*
X148724446Y-108869111D01*
X148633769Y-108778434D01*
X148562525Y-108671810D01*
X148513451Y-108553336D01*
X148492376Y-108447381D01*
X148488434Y-108427565D01*
X148488434Y-108299327D01*
X148513451Y-108173556D01*
X148562524Y-108055084D01*
X148571973Y-108040943D01*
X148633769Y-107948458D01*
X148724446Y-107857781D01*
X148831070Y-107786537D01*
X148897550Y-107759000D01*
X148949544Y-107737463D01*
X149075315Y-107712446D01*
X149203553Y-107712446D01*
X149329324Y-107737463D01*
G37*
G36*
X96801000Y-108681000D02*
G01*
X94899000Y-108681000D01*
X94899000Y-107759000D01*
X96801000Y-107759000D01*
X96801000Y-108681000D01*
G37*
G36*
X60606000Y-108681000D02*
G01*
X58704000Y-108681000D01*
X58704000Y-107759000D01*
X60606000Y-107759000D01*
X60606000Y-108681000D01*
G37*
G36*
X55606000Y-108681000D02*
G01*
X53704000Y-108681000D01*
X53704000Y-107759000D01*
X55606000Y-107759000D01*
X55606000Y-108681000D01*
G37*
G36*
X125456000Y-108681000D02*
G01*
X123554000Y-108681000D01*
X123554000Y-107759000D01*
X125456000Y-107759000D01*
X125456000Y-108681000D01*
G37*
G36*
X91801000Y-108681000D02*
G01*
X89899000Y-108681000D01*
X89899000Y-107759000D01*
X91801000Y-107759000D01*
X91801000Y-108681000D01*
G37*
G36*
X130456000Y-108681000D02*
G01*
X128554000Y-108681000D01*
X128554000Y-107759000D01*
X130456000Y-107759000D01*
X130456000Y-108681000D01*
G37*
G36*
X139500354Y-103296041D02*
G01*
X139625908Y-103339948D01*
X140431831Y-103714044D01*
X140546407Y-103781601D01*
X140678767Y-103899841D01*
X140785516Y-104041631D01*
X140785517Y-104041633D01*
X140862553Y-104201522D01*
X140876663Y-104256181D01*
X140906915Y-104373367D01*
X140916900Y-104550568D01*
X140892123Y-104726311D01*
X140886056Y-104743660D01*
X140833537Y-104893843D01*
X140743390Y-105046730D01*
X140625154Y-105179087D01*
X140529907Y-105250795D01*
X140483362Y-105285837D01*
X140421290Y-105315743D01*
X140318203Y-105365412D01*
X140297277Y-105378161D01*
X140279239Y-105394747D01*
X140264785Y-105414534D01*
X140254468Y-105436760D01*
X140248685Y-105460572D01*
X140247659Y-105485055D01*
X140251429Y-105509267D01*
X140259850Y-105532279D01*
X140272599Y-105553205D01*
X140289185Y-105571243D01*
X140319825Y-105591398D01*
X141055584Y-105932925D01*
X141170160Y-106000482D01*
X141302520Y-106118722D01*
X141409269Y-106260512D01*
X141486305Y-106420401D01*
X141530668Y-106592248D01*
X141540653Y-106769449D01*
X141515876Y-106945192D01*
X141515875Y-106945194D01*
X141457290Y-107112724D01*
X141367143Y-107265611D01*
X141248907Y-107397968D01*
X141191931Y-107440863D01*
X141107115Y-107504718D01*
X141055126Y-107529766D01*
X140947224Y-107581755D01*
X140775378Y-107626117D01*
X140598177Y-107636103D01*
X140422433Y-107611325D01*
X140296880Y-107567419D01*
X139490957Y-107193322D01*
X139490956Y-107193321D01*
X139490953Y-107193320D01*
X139437530Y-107161820D01*
X139376382Y-107125765D01*
X139330170Y-107084483D01*
X139244026Y-107007530D01*
X139244022Y-107007526D01*
X139137273Y-106865736D01*
X139090881Y-106769449D01*
X139060235Y-106705843D01*
X139015873Y-106533999D01*
X139010736Y-106442831D01*
X139005888Y-106356799D01*
X139030665Y-106181056D01*
X139056488Y-106107216D01*
X139089251Y-106013524D01*
X139179399Y-105860638D01*
X139297633Y-105728283D01*
X139297637Y-105728279D01*
X139439427Y-105621530D01*
X139501958Y-105591402D01*
X139604585Y-105541955D01*
X139625511Y-105529206D01*
X139643549Y-105512620D01*
X139658003Y-105492833D01*
X139668320Y-105470607D01*
X139674103Y-105446795D01*
X139675129Y-105422312D01*
X139671359Y-105398100D01*
X139662938Y-105375088D01*
X139650189Y-105354162D01*
X139633603Y-105336124D01*
X139602963Y-105315969D01*
X138867204Y-104974441D01*
X138867203Y-104974440D01*
X138867200Y-104974439D01*
X138813777Y-104942939D01*
X138752629Y-104906884D01*
X138650834Y-104815949D01*
X138620273Y-104788649D01*
X138620269Y-104788645D01*
X138513520Y-104646855D01*
X138477706Y-104572522D01*
X138436482Y-104486962D01*
X138392120Y-104315118D01*
X138386983Y-104223950D01*
X138382135Y-104137918D01*
X138406912Y-103962175D01*
X138439501Y-103868985D01*
X138465498Y-103794643D01*
X138555646Y-103641757D01*
X138673880Y-103509402D01*
X138673884Y-103509398D01*
X138815674Y-103402649D01*
X138945811Y-103339948D01*
X138975567Y-103325611D01*
X139147411Y-103281249D01*
X139238579Y-103276112D01*
X139324611Y-103271264D01*
X139500354Y-103296041D01*
G37*
G36*
X150066137Y-106150136D02*
G01*
X150184611Y-106199210D01*
X150291235Y-106270454D01*
X150381912Y-106361131D01*
X150453156Y-106467755D01*
X150502230Y-106586229D01*
X150527247Y-106712001D01*
X150527247Y-106840237D01*
X150502230Y-106966009D01*
X150453156Y-107084483D01*
X150381912Y-107191107D01*
X150291235Y-107281784D01*
X150184611Y-107353028D01*
X150184610Y-107353029D01*
X150184609Y-107353029D01*
X150066137Y-107402102D01*
X149940366Y-107427119D01*
X149812128Y-107427119D01*
X149686357Y-107402102D01*
X149567885Y-107353029D01*
X149567884Y-107353029D01*
X149567883Y-107353028D01*
X149461259Y-107281784D01*
X149370582Y-107191107D01*
X149299338Y-107084483D01*
X149250264Y-106966009D01*
X149225247Y-106840237D01*
X149225247Y-106712001D01*
X149250264Y-106586229D01*
X149299338Y-106467755D01*
X149370582Y-106361131D01*
X149461259Y-106270454D01*
X149567883Y-106199210D01*
X149686357Y-106150136D01*
X149812128Y-106125119D01*
X149940366Y-106125119D01*
X150066137Y-106150136D01*
G37*
G36*
X60606000Y-107181000D02*
G01*
X58704000Y-107181000D01*
X58704000Y-106259000D01*
X60606000Y-106259000D01*
X60606000Y-107181000D01*
G37*
G36*
X130456000Y-107181000D02*
G01*
X128554000Y-107181000D01*
X128554000Y-106259000D01*
X130456000Y-106259000D01*
X130456000Y-107181000D01*
G37*
G36*
X125456000Y-107181000D02*
G01*
X123554000Y-107181000D01*
X123554000Y-106259000D01*
X125456000Y-106259000D01*
X125456000Y-107181000D01*
G37*
G36*
X96801000Y-107181000D02*
G01*
X94899000Y-107181000D01*
X94899000Y-106259000D01*
X96801000Y-106259000D01*
X96801000Y-107181000D01*
G37*
G36*
X55606000Y-107181000D02*
G01*
X53704000Y-107181000D01*
X53704000Y-106259000D01*
X55606000Y-106259000D01*
X55606000Y-107181000D01*
G37*
G36*
X91801000Y-107181000D02*
G01*
X89899000Y-107181000D01*
X89899000Y-106259000D01*
X91801000Y-106259000D01*
X91801000Y-107181000D01*
G37*
G36*
X142972133Y-104788645D02*
G01*
X142980016Y-104790213D01*
X143098490Y-104839287D01*
X143205114Y-104910531D01*
X143295791Y-105001208D01*
X143326207Y-105046728D01*
X143367036Y-105107834D01*
X143416109Y-105226306D01*
X143441126Y-105352077D01*
X143441126Y-105480315D01*
X143425509Y-105558829D01*
X143416109Y-105606086D01*
X143367035Y-105724560D01*
X143295791Y-105831184D01*
X143205114Y-105921861D01*
X143098490Y-105993105D01*
X143098489Y-105993106D01*
X143098488Y-105993106D01*
X142980016Y-106042179D01*
X142854245Y-106067196D01*
X142726007Y-106067196D01*
X142600236Y-106042179D01*
X142481764Y-105993106D01*
X142481763Y-105993106D01*
X142481762Y-105993105D01*
X142375138Y-105921861D01*
X142284461Y-105831184D01*
X142213217Y-105724560D01*
X142164143Y-105606086D01*
X142154743Y-105558829D01*
X142139126Y-105480315D01*
X142139126Y-105352077D01*
X142164143Y-105226306D01*
X142213216Y-105107834D01*
X142254046Y-105046728D01*
X142284461Y-105001208D01*
X142375138Y-104910531D01*
X142481762Y-104839287D01*
X142600236Y-104790213D01*
X142608119Y-104788645D01*
X142726007Y-104765196D01*
X142854245Y-104765196D01*
X142972133Y-104788645D01*
G37*
G36*
X148978579Y-103065260D02*
G01*
X149104133Y-103109167D01*
X149910056Y-103483263D01*
X150024632Y-103550820D01*
X150156992Y-103669060D01*
X150263741Y-103810850D01*
X150263742Y-103810852D01*
X150317936Y-103923333D01*
X150340777Y-103970739D01*
X150385140Y-104142586D01*
X150395125Y-104319787D01*
X150370348Y-104495530D01*
X150370347Y-104495532D01*
X150311762Y-104663062D01*
X150221615Y-104815949D01*
X150103379Y-104948306D01*
X150046403Y-104991201D01*
X149961587Y-105055056D01*
X149909598Y-105080104D01*
X149801696Y-105132093D01*
X149629850Y-105176455D01*
X149452649Y-105186441D01*
X149276905Y-105161663D01*
X149151352Y-105117757D01*
X148345429Y-104743660D01*
X148345428Y-104743659D01*
X148345425Y-104743658D01*
X148292002Y-104712158D01*
X148230854Y-104676103D01*
X148098494Y-104557864D01*
X147991745Y-104416074D01*
X147955931Y-104341741D01*
X147914707Y-104256181D01*
X147870345Y-104084337D01*
X147865208Y-103993169D01*
X147860360Y-103907137D01*
X147885137Y-103731394D01*
X147910960Y-103657554D01*
X147943723Y-103563862D01*
X148032680Y-103412996D01*
X148033870Y-103410977D01*
X148110127Y-103325613D01*
X148152105Y-103278621D01*
X148152109Y-103278617D01*
X148293899Y-103171868D01*
X148424036Y-103109167D01*
X148453792Y-103094830D01*
X148625636Y-103050468D01*
X148716804Y-103045331D01*
X148802836Y-103040483D01*
X148978579Y-103065260D01*
G37*
G36*
X143716829Y-103202886D02*
G01*
X143835303Y-103251960D01*
X143941927Y-103323204D01*
X144032604Y-103413881D01*
X144096427Y-103509398D01*
X144103849Y-103520507D01*
X144152922Y-103638979D01*
X144177939Y-103764750D01*
X144177939Y-103892988D01*
X144152922Y-104018759D01*
X144125759Y-104084337D01*
X144103848Y-104137233D01*
X144032604Y-104243857D01*
X143941927Y-104334534D01*
X143835303Y-104405778D01*
X143835302Y-104405779D01*
X143835301Y-104405779D01*
X143716829Y-104454852D01*
X143591058Y-104479869D01*
X143462820Y-104479869D01*
X143337049Y-104454852D01*
X143218577Y-104405779D01*
X143218576Y-104405779D01*
X143218575Y-104405778D01*
X143111951Y-104334534D01*
X143021274Y-104243857D01*
X142950030Y-104137233D01*
X142928120Y-104084337D01*
X142900956Y-104018759D01*
X142875939Y-103892988D01*
X142875939Y-103764750D01*
X142900956Y-103638979D01*
X142950029Y-103520507D01*
X142957452Y-103509398D01*
X143021274Y-103413881D01*
X143111951Y-103323204D01*
X143218575Y-103251960D01*
X143337049Y-103202886D01*
X143462820Y-103177869D01*
X143591058Y-103177869D01*
X143716829Y-103202886D01*
G37*
G36*
X146257447Y-101802153D02*
G01*
X146383001Y-101846060D01*
X147188924Y-102220156D01*
X147303500Y-102287713D01*
X147435860Y-102405953D01*
X147542609Y-102547743D01*
X147542610Y-102547745D01*
X147619645Y-102707632D01*
X147664008Y-102879479D01*
X147673993Y-103056680D01*
X147649216Y-103232423D01*
X147649215Y-103232425D01*
X147590630Y-103399955D01*
X147500483Y-103552842D01*
X147382247Y-103685199D01*
X147343933Y-103714044D01*
X147240455Y-103791949D01*
X147201225Y-103810850D01*
X147080564Y-103868986D01*
X146908718Y-103913348D01*
X146731517Y-103923334D01*
X146555773Y-103898556D01*
X146430220Y-103854650D01*
X145624297Y-103480553D01*
X145624296Y-103480552D01*
X145624293Y-103480551D01*
X145570870Y-103449051D01*
X145509722Y-103412996D01*
X145411903Y-103325613D01*
X145377366Y-103294761D01*
X145377362Y-103294757D01*
X145270613Y-103152967D01*
X145216418Y-103040484D01*
X145193575Y-102993074D01*
X145149213Y-102821230D01*
X145144076Y-102730062D01*
X145139228Y-102644030D01*
X145164005Y-102468287D01*
X145189828Y-102394447D01*
X145222591Y-102300755D01*
X145292421Y-102182327D01*
X145312738Y-102147870D01*
X145430977Y-102015510D01*
X145572767Y-101908761D01*
X145647100Y-101872947D01*
X145732660Y-101831723D01*
X145904504Y-101787361D01*
X145995672Y-101782224D01*
X146081704Y-101777376D01*
X146257447Y-101802153D01*
G37*
G36*
X142629271Y-100118010D02*
G01*
X142754825Y-100161917D01*
X143560748Y-100536013D01*
X143675324Y-100603570D01*
X143807684Y-100721810D01*
X143914433Y-100863600D01*
X143914434Y-100863602D01*
X143991470Y-101023491D01*
X144020795Y-101137087D01*
X144035832Y-101195336D01*
X144045817Y-101372537D01*
X144021040Y-101548280D01*
X144021039Y-101548282D01*
X143962454Y-101715812D01*
X143872307Y-101868699D01*
X143754071Y-102001056D01*
X143697095Y-102043951D01*
X143612279Y-102107806D01*
X143560290Y-102132854D01*
X143452388Y-102184843D01*
X143280542Y-102229205D01*
X143103341Y-102239191D01*
X142927597Y-102214413D01*
X142802044Y-102170507D01*
X142066287Y-101828980D01*
X142043159Y-101820893D01*
X142018895Y-101817472D01*
X141994430Y-101818850D01*
X141970704Y-101824975D01*
X141948628Y-101835611D01*
X141929052Y-101850350D01*
X141912727Y-101868624D01*
X141900281Y-101889732D01*
X141892193Y-101912863D01*
X141888772Y-101937127D01*
X141892630Y-101973605D01*
X141903448Y-102015510D01*
X141938453Y-102151109D01*
X141948438Y-102328310D01*
X141923661Y-102504053D01*
X141923660Y-102504055D01*
X141865075Y-102671585D01*
X141774928Y-102824472D01*
X141656692Y-102956829D01*
X141608549Y-102993074D01*
X141514900Y-103063579D01*
X141462911Y-103088627D01*
X141355009Y-103140616D01*
X141210701Y-103177869D01*
X141183163Y-103184978D01*
X141005962Y-103194964D01*
X140830218Y-103170186D01*
X140704665Y-103126280D01*
X139898742Y-102752183D01*
X139898741Y-102752182D01*
X139898738Y-102752181D01*
X139823185Y-102707632D01*
X139784167Y-102684626D01*
X139651807Y-102566387D01*
X139545058Y-102424597D01*
X139485390Y-102300755D01*
X139468020Y-102264704D01*
X139423658Y-102092860D01*
X139418521Y-102001692D01*
X139413673Y-101915660D01*
X139438450Y-101739917D01*
X139464273Y-101666077D01*
X139497036Y-101572385D01*
X139587184Y-101419499D01*
X139705418Y-101287144D01*
X139705422Y-101287140D01*
X139847212Y-101180391D01*
X139977349Y-101117690D01*
X140007105Y-101103353D01*
X140178949Y-101058991D01*
X140270117Y-101053854D01*
X140356149Y-101049006D01*
X140531892Y-101073783D01*
X140657446Y-101117690D01*
X141393211Y-101459220D01*
X141416331Y-101467304D01*
X141440595Y-101470725D01*
X141465060Y-101469347D01*
X141488786Y-101463222D01*
X141510862Y-101452586D01*
X141530438Y-101437847D01*
X141546763Y-101419573D01*
X141559209Y-101398465D01*
X141567297Y-101375334D01*
X141570718Y-101351070D01*
X141566860Y-101314592D01*
X141521037Y-101137087D01*
X141515900Y-101045919D01*
X141511052Y-100959887D01*
X141535829Y-100784144D01*
X141561652Y-100710304D01*
X141594415Y-100616612D01*
X141684563Y-100463726D01*
X141802797Y-100331371D01*
X141802801Y-100331367D01*
X141944591Y-100224618D01*
X142074728Y-100161917D01*
X142104484Y-100147580D01*
X142276328Y-100103218D01*
X142367496Y-100098081D01*
X142453528Y-100093233D01*
X142629271Y-100118010D01*
G37*
G36*
X167275880Y-47759776D02*
G01*
X167656593Y-47835504D01*
X168066249Y-48005189D01*
X168434929Y-48251534D01*
X168748466Y-48565071D01*
X168994811Y-48933751D01*
X169164496Y-49343407D01*
X169251000Y-49778296D01*
X169251000Y-50221704D01*
X169164496Y-50656593D01*
X168994811Y-51066249D01*
X168748466Y-51434929D01*
X168434929Y-51748466D01*
X168066249Y-51994811D01*
X167656593Y-52164496D01*
X167275880Y-52240224D01*
X167221705Y-52251000D01*
X166778295Y-52251000D01*
X166724120Y-52240224D01*
X166343407Y-52164496D01*
X165933751Y-51994811D01*
X165565071Y-51748466D01*
X165251534Y-51434929D01*
X165005189Y-51066249D01*
X164835504Y-50656593D01*
X164749000Y-50221704D01*
X164749000Y-49778296D01*
X164835504Y-49343407D01*
X165005189Y-48933751D01*
X165251534Y-48565071D01*
X165565071Y-48251534D01*
X165933751Y-48005189D01*
X166343407Y-47835504D01*
X166724120Y-47759776D01*
X166778295Y-47749000D01*
X167221705Y-47749000D01*
X167275880Y-47759776D01*
G37*
G36*
X130456000Y-48056000D02*
G01*
X128554000Y-48056000D01*
X128554000Y-47134000D01*
X130456000Y-47134000D01*
X130456000Y-48056000D01*
G37*
G36*
X55606000Y-48056000D02*
G01*
X53704000Y-48056000D01*
X53704000Y-47134000D01*
X55606000Y-47134000D01*
X55606000Y-48056000D01*
G37*
G36*
X94896000Y-48056000D02*
G01*
X92994000Y-48056000D01*
X92994000Y-47134000D01*
X94896000Y-47134000D01*
X94896000Y-48056000D01*
G37*
G36*
X60606000Y-48056000D02*
G01*
X58704000Y-48056000D01*
X58704000Y-47134000D01*
X60606000Y-47134000D01*
X60606000Y-48056000D01*
G37*
G36*
X125456000Y-48056000D02*
G01*
X123554000Y-48056000D01*
X123554000Y-47134000D01*
X125456000Y-47134000D01*
X125456000Y-48056000D01*
G37*
G36*
X89896000Y-48056000D02*
G01*
X87994000Y-48056000D01*
X87994000Y-47134000D01*
X89896000Y-47134000D01*
X89896000Y-48056000D01*
G37*
G36*
X130456000Y-46556000D02*
G01*
X128554000Y-46556000D01*
X128554000Y-45634000D01*
X130456000Y-45634000D01*
X130456000Y-46556000D01*
G37*
G36*
X94896000Y-46556000D02*
G01*
X92994000Y-46556000D01*
X92994000Y-45634000D01*
X94896000Y-45634000D01*
X94896000Y-46556000D01*
G37*
G36*
X125456000Y-46556000D02*
G01*
X123554000Y-46556000D01*
X123554000Y-45634000D01*
X125456000Y-45634000D01*
X125456000Y-46556000D01*
G37*
G36*
X89896000Y-46556000D02*
G01*
X87994000Y-46556000D01*
X87994000Y-45634000D01*
X89896000Y-45634000D01*
X89896000Y-46556000D01*
G37*
G36*
X60606000Y-46556000D02*
G01*
X58704000Y-46556000D01*
X58704000Y-45634000D01*
X60606000Y-45634000D01*
X60606000Y-46556000D01*
G37*
G36*
X55606000Y-46556000D02*
G01*
X53704000Y-46556000D01*
X53704000Y-45634000D01*
X55606000Y-45634000D01*
X55606000Y-46556000D01*
G37*
G36*
X37275880Y-36509776D02*
G01*
X37656593Y-36585504D01*
X38066249Y-36755189D01*
X38434929Y-37001534D01*
X38748466Y-37315071D01*
X38994811Y-37683751D01*
X39164496Y-38093407D01*
X39251000Y-38528296D01*
X39251000Y-38971704D01*
X39164496Y-39406593D01*
X38994811Y-39816249D01*
X38748466Y-40184929D01*
X38434929Y-40498466D01*
X38066249Y-40744811D01*
X37656593Y-40914496D01*
X37275880Y-40990224D01*
X37221705Y-41001000D01*
X36778295Y-41001000D01*
X36724120Y-40990224D01*
X36343407Y-40914496D01*
X35933751Y-40744811D01*
X35565071Y-40498466D01*
X35251534Y-40184929D01*
X35005189Y-39816249D01*
X34835504Y-39406593D01*
X34749000Y-38971704D01*
X34749000Y-38528296D01*
X34835504Y-38093407D01*
X35005189Y-37683751D01*
X35251534Y-37315071D01*
X35565071Y-37001534D01*
X35933751Y-36755189D01*
X36343407Y-36585504D01*
X36724120Y-36509776D01*
X36778295Y-36499000D01*
X37221705Y-36499000D01*
X37275880Y-36509776D01*
G37*
M02*
