G04 #@! TF.GenerationSoftware,KiCad,Pcbnew,5.1.5+dfsg1-2build2*
G04 #@! TF.CreationDate,2021-03-23T21:18:19+09:00*
G04 #@! TF.ProjectId,rest,72657374-2e6b-4696-9361-645f70636258,rev?*
G04 #@! TF.SameCoordinates,Original*
G04 #@! TF.FileFunction,Copper,L2,Bot*
G04 #@! TF.FilePolarity,Positive*
%FSLAX46Y46*%
G04 Gerber Fmt 4.6, Leading zero omitted, Abs format (unit mm)*
G04 Created by KiCad (PCBNEW 5.1.5+dfsg1-2build2) date 2021-03-23 21:18:19*
%MOMM*%
%LPD*%
G04 APERTURE LIST*
%ADD10R,1.800000X0.820000*%
%ADD11C,1.700000*%
%ADD12C,4.400000*%
%ADD13C,0.700000*%
%ADD14C,0.500000*%
%ADD15C,0.250000*%
%ADD16C,0.254000*%
G04 APERTURE END LIST*
D10*
X54655000Y-106720000D03*
X59655000Y-108220000D03*
X54655000Y-108220000D03*
X59655000Y-106720000D03*
D11*
X143141253Y-101334626D02*
X142415617Y-100997798D01*
X140012336Y-104512657D02*
X139286700Y-104175829D01*
X149490561Y-104281876D02*
X148764925Y-103945048D01*
X146769429Y-103018769D02*
X146043793Y-102681941D01*
X146985398Y-109678788D02*
X146259762Y-109341960D01*
X144264266Y-108415681D02*
X143538630Y-108078853D01*
X140636089Y-106731538D02*
X139910453Y-106394710D01*
X141043874Y-102290399D02*
X140318238Y-101953571D01*
D10*
X124505000Y-106720000D03*
X129505000Y-108220000D03*
X124505000Y-108220000D03*
X129505000Y-106720000D03*
X95850000Y-106720000D03*
X90850000Y-108220000D03*
X95850000Y-108220000D03*
X90850000Y-106720000D03*
X54655000Y-47595000D03*
X59655000Y-46095000D03*
X54655000Y-46095000D03*
X59655000Y-47595000D03*
X93945000Y-47595000D03*
X88945000Y-46095000D03*
X93945000Y-46095000D03*
X88945000Y-47595000D03*
X124505000Y-47595000D03*
X129505000Y-46095000D03*
X124505000Y-46095000D03*
X129505000Y-47595000D03*
D12*
X37000000Y-123000000D03*
D13*
X38650000Y-123000000D03*
X38166726Y-124166726D03*
X37000000Y-124650000D03*
X35833274Y-124166726D03*
X35350000Y-123000000D03*
X35833274Y-121833274D03*
X37000000Y-121350000D03*
X38166726Y-121833274D03*
X38166726Y-37583274D03*
X37000000Y-37100000D03*
X35833274Y-37583274D03*
X35350000Y-38750000D03*
X35833274Y-39916726D03*
X37000000Y-40400000D03*
X38166726Y-39916726D03*
X38650000Y-38750000D03*
D12*
X37000000Y-38750000D03*
X136500000Y-123000000D03*
D13*
X138150000Y-123000000D03*
X137666726Y-124166726D03*
X136500000Y-124650000D03*
X135333274Y-124166726D03*
X134850000Y-123000000D03*
X135333274Y-121833274D03*
X136500000Y-121350000D03*
X137666726Y-121833274D03*
X168166726Y-48833274D03*
X167000000Y-48350000D03*
X165833274Y-48833274D03*
X165350000Y-50000000D03*
X165833274Y-51166726D03*
X167000000Y-51650000D03*
X168166726Y-51166726D03*
X168650000Y-50000000D03*
D12*
X167000000Y-50000000D03*
D14*
X139649518Y-104344243D02*
X139649518Y-103407133D01*
X96200010Y-109480010D02*
X95850000Y-109130000D01*
X129154990Y-109480010D02*
X96200010Y-109480010D01*
X129505000Y-109130000D02*
X129154990Y-109480010D01*
X129505000Y-108220000D02*
X129505000Y-109130000D01*
X60005010Y-109480010D02*
X59655000Y-109130000D01*
X95499990Y-109480010D02*
X60005010Y-109480010D01*
X95850000Y-109130000D02*
X95499990Y-109480010D01*
X95850000Y-108220000D02*
X95850000Y-109130000D01*
X52424992Y-46925008D02*
X53255000Y-46095000D01*
X52424992Y-107953178D02*
X52424992Y-46925008D01*
X53951824Y-109480010D02*
X52424992Y-107953178D01*
X53255000Y-46095000D02*
X54655000Y-46095000D01*
X59304990Y-109480010D02*
X53951824Y-109480010D01*
X59655000Y-109130000D02*
X59304990Y-109480010D01*
X59655000Y-108220000D02*
X59655000Y-109130000D01*
X88594990Y-44834990D02*
X88945000Y-45185000D01*
X55005010Y-44834990D02*
X88594990Y-44834990D01*
X54655000Y-45185000D02*
X55005010Y-44834990D01*
X54655000Y-46095000D02*
X54655000Y-45185000D01*
X124154990Y-44834990D02*
X124505000Y-45185000D01*
X124505000Y-45185000D02*
X124505000Y-46095000D01*
X89295010Y-44834990D02*
X124154990Y-44834990D01*
X88945000Y-45185000D02*
X89295010Y-44834990D01*
X88945000Y-46095000D02*
X88945000Y-45185000D01*
X140681056Y-101184875D02*
X140681056Y-102121985D01*
X140681056Y-55151054D02*
X140681056Y-101184875D01*
X130364992Y-44834990D02*
X140681056Y-55151054D01*
X125093747Y-44834990D02*
X130364992Y-44834990D01*
X124505000Y-45423737D02*
X125093747Y-44834990D01*
X124505000Y-46095000D02*
X124505000Y-45423737D01*
X145832110Y-50000000D02*
X140681056Y-55151054D01*
X167000000Y-50000000D02*
X145832110Y-50000000D01*
X93594990Y-48855010D02*
X93945000Y-48505000D01*
X62315010Y-48855010D02*
X93594990Y-48855010D01*
X61055000Y-47595000D02*
X62315010Y-48855010D01*
X59655000Y-47595000D02*
X61055000Y-47595000D01*
X129505000Y-48505000D02*
X129505000Y-47595000D01*
X94295010Y-48855010D02*
X129154990Y-48855010D01*
X129154990Y-48855010D02*
X129505000Y-48505000D01*
X93945000Y-48505000D02*
X94295010Y-48855010D01*
X93945000Y-47595000D02*
X93945000Y-48505000D01*
X124505000Y-105810000D02*
X124855010Y-105459990D01*
X59655000Y-47595000D02*
X59655000Y-48266263D01*
X59655000Y-48266263D02*
X54655000Y-53266263D01*
X54655000Y-105810000D02*
X55005010Y-105459990D01*
X90850000Y-105810000D02*
X91200010Y-105459990D01*
X121844990Y-105459990D02*
X123105000Y-106720000D01*
X54655000Y-53266263D02*
X54655000Y-97810000D01*
X123105000Y-106720000D02*
X124505000Y-106720000D01*
X55005010Y-105459990D02*
X88189990Y-105459990D01*
X88189990Y-105459990D02*
X89450000Y-106720000D01*
X89450000Y-106720000D02*
X90850000Y-106720000D01*
X124505000Y-106720000D02*
X124505000Y-105810000D01*
X90850000Y-106720000D02*
X90850000Y-105810000D01*
X91200010Y-105459990D02*
X121844990Y-105459990D01*
X54655000Y-97810000D02*
X54655000Y-106720000D01*
X137977223Y-105459990D02*
X124855010Y-105459990D01*
X139080357Y-106563124D02*
X137977223Y-105459990D01*
X140273271Y-106563124D02*
X139080357Y-106563124D01*
D15*
X142708534Y-108247267D02*
X143901448Y-108247267D01*
X132182267Y-108247267D02*
X142708534Y-108247267D01*
X130655000Y-106720000D02*
X132182267Y-108247267D01*
X129505000Y-106720000D02*
X130655000Y-106720000D01*
X97000000Y-106720000D02*
X95850000Y-106720000D01*
X121855000Y-106720000D02*
X97000000Y-106720000D01*
X123355000Y-108220000D02*
X121855000Y-106720000D01*
X124505000Y-108220000D02*
X123355000Y-108220000D01*
X60805000Y-106720000D02*
X59655000Y-106720000D01*
X88200000Y-106720000D02*
X60805000Y-106720000D01*
X89700000Y-108220000D02*
X88200000Y-106720000D01*
X90850000Y-108220000D02*
X89700000Y-108220000D01*
X53505000Y-47595000D02*
X54655000Y-47595000D01*
X53000000Y-48100000D02*
X53505000Y-47595000D01*
X53000000Y-107715000D02*
X53000000Y-48100000D01*
X53505000Y-108220000D02*
X53000000Y-107715000D01*
X54655000Y-108220000D02*
X53505000Y-108220000D01*
X87795000Y-47595000D02*
X88945000Y-47595000D01*
X62305000Y-47595000D02*
X87795000Y-47595000D01*
X60805000Y-46095000D02*
X62305000Y-47595000D01*
X59655000Y-46095000D02*
X60805000Y-46095000D01*
X123355000Y-47595000D02*
X124505000Y-47595000D01*
X96595000Y-47595000D02*
X123355000Y-47595000D01*
X95095000Y-46095000D02*
X96595000Y-47595000D01*
X93945000Y-46095000D02*
X95095000Y-46095000D01*
D16*
G36*
X172098953Y-48154635D02*
G01*
X152147386Y-103684184D01*
X150977871Y-106208463D01*
X150970690Y-106191127D01*
X150835534Y-105988852D01*
X150663514Y-105816832D01*
X150461239Y-105681676D01*
X150236483Y-105588579D01*
X150210452Y-105583401D01*
X150266892Y-105556208D01*
X150500586Y-105380267D01*
X150695464Y-105162116D01*
X150844038Y-104910137D01*
X150940599Y-104634015D01*
X150981436Y-104344360D01*
X150964979Y-104052303D01*
X150891862Y-103769071D01*
X150764893Y-103505544D01*
X150588951Y-103271851D01*
X150370801Y-103076973D01*
X150181966Y-102965630D01*
X149323992Y-102567373D01*
X149117064Y-102495009D01*
X148827409Y-102454173D01*
X148535353Y-102470629D01*
X148252120Y-102543747D01*
X148188408Y-102574444D01*
X148170730Y-102505964D01*
X148043761Y-102242437D01*
X147867819Y-102008744D01*
X147649669Y-101813866D01*
X147460834Y-101702523D01*
X146602860Y-101304266D01*
X146395932Y-101231902D01*
X146106277Y-101191066D01*
X145814221Y-101207522D01*
X145530988Y-101280640D01*
X145267462Y-101407609D01*
X145033768Y-101583550D01*
X144838890Y-101801701D01*
X144690315Y-102053680D01*
X144593754Y-102329802D01*
X144552918Y-102619457D01*
X144569374Y-102911513D01*
X144642492Y-103194746D01*
X144769461Y-103458272D01*
X144945402Y-103691966D01*
X145163553Y-103886844D01*
X145352388Y-103998187D01*
X146210360Y-104396444D01*
X146417289Y-104468808D01*
X146706943Y-104509644D01*
X146999000Y-104493188D01*
X147282233Y-104420070D01*
X147345946Y-104389373D01*
X147363624Y-104457853D01*
X147490593Y-104721379D01*
X147666534Y-104955073D01*
X147884685Y-105149951D01*
X148073520Y-105261294D01*
X148931492Y-105659551D01*
X149138421Y-105731915D01*
X149202539Y-105740954D01*
X149088980Y-105816832D01*
X148916960Y-105988852D01*
X148781804Y-106191127D01*
X148688707Y-106415883D01*
X148641247Y-106654482D01*
X148641247Y-106897756D01*
X148688707Y-107136355D01*
X148715942Y-107202107D01*
X148554442Y-107269003D01*
X148352167Y-107404159D01*
X148180147Y-107576179D01*
X148044991Y-107778454D01*
X147951894Y-108003210D01*
X147904434Y-108241809D01*
X147904434Y-108485083D01*
X147910109Y-108513612D01*
X147865638Y-108473885D01*
X147676803Y-108362542D01*
X146818829Y-107964285D01*
X146611901Y-107891921D01*
X146322246Y-107851085D01*
X146030190Y-107867541D01*
X145746957Y-107940659D01*
X145683245Y-107971356D01*
X145665567Y-107902876D01*
X145538598Y-107639349D01*
X145362656Y-107405656D01*
X145144506Y-107210778D01*
X144955671Y-107099435D01*
X144097697Y-106701178D01*
X143890769Y-106628814D01*
X143601114Y-106587978D01*
X143309058Y-106604434D01*
X143025825Y-106677552D01*
X142762299Y-106804521D01*
X142528605Y-106980462D01*
X142333727Y-107198613D01*
X142185152Y-107450592D01*
X142172327Y-107487267D01*
X141914407Y-107487267D01*
X141989566Y-107359799D01*
X142086127Y-107083677D01*
X142126964Y-106794022D01*
X142110507Y-106501965D01*
X142093488Y-106436040D01*
X142205134Y-106510639D01*
X142429890Y-106603736D01*
X142668489Y-106651196D01*
X142911763Y-106651196D01*
X143150362Y-106603736D01*
X143375118Y-106510639D01*
X143577393Y-106375483D01*
X143749413Y-106203463D01*
X143884569Y-106001188D01*
X143977666Y-105776432D01*
X144025126Y-105537833D01*
X144025126Y-105294559D01*
X143977666Y-105055960D01*
X143950431Y-104990208D01*
X144111931Y-104923312D01*
X144314206Y-104788156D01*
X144486226Y-104616136D01*
X144621382Y-104413861D01*
X144714479Y-104189105D01*
X144761939Y-103950506D01*
X144761939Y-103707232D01*
X144714479Y-103468633D01*
X144621382Y-103243877D01*
X144486226Y-103041602D01*
X144314206Y-102869582D01*
X144111931Y-102734426D01*
X143887175Y-102641329D01*
X143861144Y-102636151D01*
X143917584Y-102608958D01*
X144151278Y-102433017D01*
X144346156Y-102214866D01*
X144494730Y-101962887D01*
X144591291Y-101686765D01*
X144632128Y-101397110D01*
X144615671Y-101105053D01*
X144542554Y-100821821D01*
X144415585Y-100558294D01*
X144239643Y-100324601D01*
X144021493Y-100129723D01*
X143832658Y-100018380D01*
X142974684Y-99620123D01*
X142767756Y-99547759D01*
X142478101Y-99506923D01*
X142186045Y-99523379D01*
X141902812Y-99596497D01*
X141639286Y-99723466D01*
X141405592Y-99899407D01*
X141210714Y-100117558D01*
X141062139Y-100369537D01*
X140974240Y-100620890D01*
X140828282Y-100553139D01*
X140545271Y-100480543D01*
X140253535Y-100464554D01*
X139964286Y-100505788D01*
X139688638Y-100602659D01*
X139437186Y-100751445D01*
X139219593Y-100946429D01*
X139161020Y-101022943D01*
X139174271Y-101282544D01*
X140619333Y-101953319D01*
X140627754Y-101935178D01*
X140858143Y-102042121D01*
X140849722Y-102060262D01*
X142294784Y-102731037D01*
X142418944Y-102636528D01*
X142582184Y-102712301D01*
X142789113Y-102784665D01*
X142853231Y-102793704D01*
X142739672Y-102869582D01*
X142567652Y-103041602D01*
X142432496Y-103243877D01*
X142339399Y-103468633D01*
X142291939Y-103707232D01*
X142291939Y-103950506D01*
X142339399Y-104189105D01*
X142366634Y-104254857D01*
X142205134Y-104321753D01*
X142002859Y-104456909D01*
X141830839Y-104628929D01*
X141695683Y-104831204D01*
X141602586Y-105055960D01*
X141555126Y-105294559D01*
X141555126Y-105537833D01*
X141560801Y-105566363D01*
X141516329Y-105526635D01*
X141327494Y-105415292D01*
X141164257Y-105339520D01*
X141156303Y-105183684D01*
X139711241Y-104512909D01*
X139702820Y-104531050D01*
X139472431Y-104424107D01*
X139480852Y-104405966D01*
X139214911Y-104282520D01*
X139818184Y-104282520D01*
X141263246Y-104953295D01*
X141470081Y-104795855D01*
X141490716Y-104701731D01*
X141499196Y-104409681D01*
X141450537Y-104121587D01*
X141346608Y-103848522D01*
X141287305Y-103753937D01*
X141397826Y-103738182D01*
X141673474Y-103641311D01*
X141924926Y-103492525D01*
X142142519Y-103297541D01*
X142201092Y-103221027D01*
X142187841Y-102961426D01*
X140742779Y-102290651D01*
X140179189Y-103504802D01*
X139818184Y-104282520D01*
X139214911Y-104282520D01*
X138035790Y-103735191D01*
X137828955Y-103892631D01*
X137808320Y-103986755D01*
X137799840Y-104278805D01*
X137848499Y-104566899D01*
X137851578Y-104574990D01*
X124898479Y-104574990D01*
X124855010Y-104570709D01*
X124811541Y-104574990D01*
X124811533Y-104574990D01*
X124681520Y-104587795D01*
X124514697Y-104638401D01*
X124360951Y-104720579D01*
X124226193Y-104831173D01*
X124198476Y-104864946D01*
X123909952Y-105153470D01*
X123876184Y-105181183D01*
X123848471Y-105214951D01*
X123848468Y-105214954D01*
X123765590Y-105315941D01*
X123683412Y-105469687D01*
X123632805Y-105636510D01*
X123629317Y-105671928D01*
X123605000Y-105671928D01*
X123480518Y-105684188D01*
X123360820Y-105720498D01*
X123358381Y-105721802D01*
X122501524Y-104864946D01*
X122473807Y-104831173D01*
X122339049Y-104720579D01*
X122185303Y-104638401D01*
X122018480Y-104587795D01*
X121888467Y-104574990D01*
X121888459Y-104574990D01*
X121844990Y-104570709D01*
X121801521Y-104574990D01*
X91243479Y-104574990D01*
X91200010Y-104570709D01*
X91156541Y-104574990D01*
X91156533Y-104574990D01*
X91026520Y-104587795D01*
X90859697Y-104638401D01*
X90705951Y-104720579D01*
X90571193Y-104831173D01*
X90543476Y-104864946D01*
X90254952Y-105153470D01*
X90221184Y-105181183D01*
X90193471Y-105214951D01*
X90193468Y-105214954D01*
X90110590Y-105315941D01*
X90028412Y-105469687D01*
X89977805Y-105636510D01*
X89974317Y-105671928D01*
X89950000Y-105671928D01*
X89825518Y-105684188D01*
X89705820Y-105720498D01*
X89703381Y-105721802D01*
X88846524Y-104864946D01*
X88818807Y-104831173D01*
X88684049Y-104720579D01*
X88530303Y-104638401D01*
X88363480Y-104587795D01*
X88233467Y-104574990D01*
X88233459Y-104574990D01*
X88189990Y-104570709D01*
X88146521Y-104574990D01*
X55540000Y-104574990D01*
X55540000Y-103245201D01*
X138129482Y-103245201D01*
X138142733Y-103504802D01*
X139587795Y-104175577D01*
X139940623Y-103415474D01*
X139963207Y-103366821D01*
X140159562Y-102943811D01*
X140512390Y-102183708D01*
X139067328Y-101512933D01*
X138860493Y-101670373D01*
X138839858Y-101764497D01*
X138831378Y-102056547D01*
X138880037Y-102344641D01*
X138983966Y-102617706D01*
X139043269Y-102712291D01*
X138932748Y-102728046D01*
X138657100Y-102824917D01*
X138405648Y-102973703D01*
X138188055Y-103168687D01*
X138129482Y-103245201D01*
X55540000Y-103245201D01*
X55540000Y-53632841D01*
X57183066Y-51989775D01*
X165189830Y-51989775D01*
X165429976Y-52377018D01*
X165923877Y-52637641D01*
X166459133Y-52796901D01*
X167015174Y-52848678D01*
X167570632Y-52790981D01*
X168104161Y-52626028D01*
X168570024Y-52377018D01*
X168810170Y-51989775D01*
X167000000Y-50179605D01*
X165189830Y-51989775D01*
X57183066Y-51989775D01*
X59157667Y-50015174D01*
X164151322Y-50015174D01*
X164209019Y-50570632D01*
X164373972Y-51104161D01*
X164622982Y-51570024D01*
X165010225Y-51810170D01*
X166820395Y-50000000D01*
X167179605Y-50000000D01*
X168989775Y-51810170D01*
X169377018Y-51570024D01*
X169637641Y-51076123D01*
X169796901Y-50540867D01*
X169848678Y-49984826D01*
X169790981Y-49429368D01*
X169626028Y-48895839D01*
X169377018Y-48429976D01*
X168989775Y-48189830D01*
X167179605Y-50000000D01*
X166820395Y-50000000D01*
X165010225Y-48189830D01*
X164622982Y-48429976D01*
X164362359Y-48923877D01*
X164203099Y-49459133D01*
X164151322Y-50015174D01*
X59157667Y-50015174D01*
X60250049Y-48922793D01*
X60283817Y-48895080D01*
X60324660Y-48845314D01*
X60394411Y-48760322D01*
X60436531Y-48681520D01*
X60457082Y-48643072D01*
X60555000Y-48643072D01*
X60679482Y-48630812D01*
X60799180Y-48594502D01*
X60801620Y-48593198D01*
X61658480Y-49450059D01*
X61686193Y-49483827D01*
X61719961Y-49511540D01*
X61719963Y-49511542D01*
X61737317Y-49525784D01*
X61820951Y-49594421D01*
X61974697Y-49676599D01*
X62141520Y-49727205D01*
X62271533Y-49740010D01*
X62271543Y-49740010D01*
X62315009Y-49744291D01*
X62358475Y-49740010D01*
X93551521Y-49740010D01*
X93594990Y-49744291D01*
X93638459Y-49740010D01*
X93638467Y-49740010D01*
X93768480Y-49727205D01*
X93935303Y-49676599D01*
X93945000Y-49671416D01*
X93954697Y-49676599D01*
X94121520Y-49727205D01*
X94251533Y-49740010D01*
X94251541Y-49740010D01*
X94295010Y-49744291D01*
X94338479Y-49740010D01*
X129111521Y-49740010D01*
X129154990Y-49744291D01*
X129198459Y-49740010D01*
X129198467Y-49740010D01*
X129328480Y-49727205D01*
X129495303Y-49676599D01*
X129649049Y-49594421D01*
X129783807Y-49483827D01*
X129811524Y-49450054D01*
X130100045Y-49161533D01*
X130133817Y-49133817D01*
X130244411Y-48999059D01*
X130326589Y-48845313D01*
X130377195Y-48678490D01*
X130380683Y-48643072D01*
X130405000Y-48643072D01*
X130529482Y-48630812D01*
X130649180Y-48594502D01*
X130759494Y-48535537D01*
X130856185Y-48456185D01*
X130935537Y-48359494D01*
X130994502Y-48249180D01*
X131030812Y-48129482D01*
X131042557Y-48010225D01*
X165189830Y-48010225D01*
X167000000Y-49820395D01*
X168810170Y-48010225D01*
X168570024Y-47622982D01*
X168076123Y-47362359D01*
X167540867Y-47203099D01*
X166984826Y-47151322D01*
X166429368Y-47209019D01*
X165895839Y-47373972D01*
X165429976Y-47622982D01*
X165189830Y-48010225D01*
X131042557Y-48010225D01*
X131043072Y-48005000D01*
X131043072Y-47185000D01*
X131030812Y-47060518D01*
X130994502Y-46940820D01*
X130943284Y-46845000D01*
X130994502Y-46749180D01*
X131030812Y-46629482D01*
X131043072Y-46505000D01*
X131043072Y-45685000D01*
X131030812Y-45560518D01*
X130994502Y-45440820D01*
X130935537Y-45330506D01*
X130856185Y-45233815D01*
X130759494Y-45154463D01*
X130649180Y-45095498D01*
X130529482Y-45059188D01*
X130405000Y-45046928D01*
X129333728Y-45046928D01*
X129285667Y-44957011D01*
X129198817Y-44851183D01*
X129092989Y-44764333D01*
X128972252Y-44699798D01*
X128841244Y-44660057D01*
X128739135Y-44650000D01*
X128705000Y-44646638D01*
X128670866Y-44650000D01*
X125339134Y-44650000D01*
X125305000Y-44646638D01*
X125270865Y-44650000D01*
X125168756Y-44660057D01*
X125037748Y-44699798D01*
X124917011Y-44764333D01*
X124811183Y-44851183D01*
X124724333Y-44957011D01*
X124659798Y-45077748D01*
X124620057Y-45208756D01*
X124606638Y-45345000D01*
X124610000Y-45379135D01*
X124610000Y-46242000D01*
X124378000Y-46242000D01*
X124378000Y-46222000D01*
X123128750Y-46222000D01*
X122970000Y-46380750D01*
X122966928Y-46505000D01*
X122979188Y-46629482D01*
X123015498Y-46749180D01*
X123061370Y-46835000D01*
X96909802Y-46835000D01*
X95759802Y-45685000D01*
X122966928Y-45685000D01*
X122970000Y-45809250D01*
X123128750Y-45968000D01*
X124378000Y-45968000D01*
X124378000Y-45208750D01*
X124219250Y-45050000D01*
X123605000Y-45046928D01*
X123480518Y-45059188D01*
X123360820Y-45095498D01*
X123250506Y-45154463D01*
X123153815Y-45233815D01*
X123074463Y-45330506D01*
X123015498Y-45440820D01*
X122979188Y-45560518D01*
X122966928Y-45685000D01*
X95759802Y-45685000D01*
X95658804Y-45584003D01*
X95635001Y-45554999D01*
X95519276Y-45460026D01*
X95414965Y-45404270D01*
X95375537Y-45330506D01*
X95296185Y-45233815D01*
X95199494Y-45154463D01*
X95089180Y-45095498D01*
X94969482Y-45059188D01*
X94845000Y-45046928D01*
X93773728Y-45046928D01*
X93725667Y-44957011D01*
X93638817Y-44851183D01*
X93532989Y-44764333D01*
X93412252Y-44699798D01*
X93281244Y-44660057D01*
X93179135Y-44650000D01*
X93145000Y-44646638D01*
X93110866Y-44650000D01*
X89779134Y-44650000D01*
X89745000Y-44646638D01*
X89710865Y-44650000D01*
X89608756Y-44660057D01*
X89477748Y-44699798D01*
X89357011Y-44764333D01*
X89251183Y-44851183D01*
X89164333Y-44957011D01*
X89099798Y-45077748D01*
X89060057Y-45208756D01*
X89046638Y-45345000D01*
X89050000Y-45379135D01*
X89050000Y-46242000D01*
X88818000Y-46242000D01*
X88818000Y-46222000D01*
X87568750Y-46222000D01*
X87410000Y-46380750D01*
X87406928Y-46505000D01*
X87419188Y-46629482D01*
X87455498Y-46749180D01*
X87501370Y-46835000D01*
X62619802Y-46835000D01*
X61469802Y-45685000D01*
X87406928Y-45685000D01*
X87410000Y-45809250D01*
X87568750Y-45968000D01*
X88818000Y-45968000D01*
X88818000Y-45208750D01*
X88659250Y-45050000D01*
X88045000Y-45046928D01*
X87920518Y-45059188D01*
X87800820Y-45095498D01*
X87690506Y-45154463D01*
X87593815Y-45233815D01*
X87514463Y-45330506D01*
X87455498Y-45440820D01*
X87419188Y-45560518D01*
X87406928Y-45685000D01*
X61469802Y-45685000D01*
X61368804Y-45584003D01*
X61345001Y-45554999D01*
X61229276Y-45460026D01*
X61124965Y-45404270D01*
X61085537Y-45330506D01*
X61006185Y-45233815D01*
X60909494Y-45154463D01*
X60799180Y-45095498D01*
X60679482Y-45059188D01*
X60555000Y-45046928D01*
X59483728Y-45046928D01*
X59435667Y-44957011D01*
X59348817Y-44851183D01*
X59242989Y-44764333D01*
X59122252Y-44699798D01*
X58991244Y-44660057D01*
X58889135Y-44650000D01*
X58855000Y-44646638D01*
X58820866Y-44650000D01*
X55489134Y-44650000D01*
X55455000Y-44646638D01*
X55420865Y-44650000D01*
X55318756Y-44660057D01*
X55187748Y-44699798D01*
X55067011Y-44764333D01*
X54961183Y-44851183D01*
X54874333Y-44957011D01*
X54809798Y-45077748D01*
X54770057Y-45208756D01*
X54756638Y-45345000D01*
X54760000Y-45379135D01*
X54760000Y-46242000D01*
X54528000Y-46242000D01*
X54528000Y-46222000D01*
X53278750Y-46222000D01*
X53120000Y-46380750D01*
X53116928Y-46505000D01*
X53129188Y-46629482D01*
X53165498Y-46749180D01*
X53216716Y-46845000D01*
X53185035Y-46904270D01*
X53080724Y-46960026D01*
X52964999Y-47054999D01*
X52941196Y-47084003D01*
X52488998Y-47536201D01*
X52460000Y-47559999D01*
X52436202Y-47588997D01*
X52436201Y-47588998D01*
X52365026Y-47675724D01*
X52294454Y-47807754D01*
X52250998Y-47951015D01*
X52236324Y-48100000D01*
X52240001Y-48137333D01*
X52240000Y-107677678D01*
X52236324Y-107715000D01*
X52240000Y-107752322D01*
X52240000Y-107752332D01*
X52250997Y-107863985D01*
X52281422Y-107964285D01*
X52294454Y-108007246D01*
X52365026Y-108139276D01*
X52399742Y-108181577D01*
X52459999Y-108255001D01*
X52489003Y-108278804D01*
X52941196Y-108730997D01*
X52964999Y-108760001D01*
X53080724Y-108854974D01*
X53185035Y-108910730D01*
X53224463Y-108984494D01*
X53303815Y-109081185D01*
X53400506Y-109160537D01*
X53510820Y-109219502D01*
X53630518Y-109255812D01*
X53755000Y-109268072D01*
X54826272Y-109268072D01*
X54874333Y-109357989D01*
X54961183Y-109463817D01*
X55067011Y-109550667D01*
X55187748Y-109615202D01*
X55318756Y-109654943D01*
X55420865Y-109665000D01*
X55420866Y-109665000D01*
X55455000Y-109668362D01*
X55489135Y-109665000D01*
X58820865Y-109665000D01*
X58855000Y-109668362D01*
X58889134Y-109665000D01*
X58889135Y-109665000D01*
X58991244Y-109654943D01*
X59122252Y-109615202D01*
X59242989Y-109550667D01*
X59348817Y-109463817D01*
X59435667Y-109357989D01*
X59500202Y-109237252D01*
X59539943Y-109106244D01*
X59549329Y-109010943D01*
X59550000Y-109004135D01*
X59550000Y-109004134D01*
X59553362Y-108970000D01*
X59550000Y-108935865D01*
X59550000Y-108347000D01*
X59782000Y-108347000D01*
X59782000Y-109106250D01*
X59940750Y-109265000D01*
X60555000Y-109268072D01*
X60679482Y-109255812D01*
X60799180Y-109219502D01*
X60909494Y-109160537D01*
X61006185Y-109081185D01*
X61085537Y-108984494D01*
X61144502Y-108874180D01*
X61180812Y-108754482D01*
X61193072Y-108630000D01*
X61190000Y-108505750D01*
X61031250Y-108347000D01*
X59782000Y-108347000D01*
X59550000Y-108347000D01*
X59550000Y-108073000D01*
X59782000Y-108073000D01*
X59782000Y-108093000D01*
X61031250Y-108093000D01*
X61190000Y-107934250D01*
X61193072Y-107810000D01*
X61180812Y-107685518D01*
X61144502Y-107565820D01*
X61098630Y-107480000D01*
X87885199Y-107480000D01*
X89136201Y-108731003D01*
X89159999Y-108760001D01*
X89275724Y-108854974D01*
X89380035Y-108910730D01*
X89419463Y-108984494D01*
X89498815Y-109081185D01*
X89595506Y-109160537D01*
X89705820Y-109219502D01*
X89825518Y-109255812D01*
X89950000Y-109268072D01*
X91021272Y-109268072D01*
X91069333Y-109357989D01*
X91156183Y-109463817D01*
X91262011Y-109550667D01*
X91382748Y-109615202D01*
X91513756Y-109654943D01*
X91615865Y-109665000D01*
X91615866Y-109665000D01*
X91650000Y-109668362D01*
X91684135Y-109665000D01*
X95015865Y-109665000D01*
X95050000Y-109668362D01*
X95084134Y-109665000D01*
X95084135Y-109665000D01*
X95186244Y-109654943D01*
X95317252Y-109615202D01*
X95437989Y-109550667D01*
X95543817Y-109463817D01*
X95630667Y-109357989D01*
X95695202Y-109237252D01*
X95734943Y-109106244D01*
X95744329Y-109010943D01*
X95745000Y-109004135D01*
X95745000Y-109004134D01*
X95748362Y-108970000D01*
X95745000Y-108935865D01*
X95745000Y-108347000D01*
X95977000Y-108347000D01*
X95977000Y-109106250D01*
X96135750Y-109265000D01*
X96750000Y-109268072D01*
X96874482Y-109255812D01*
X96994180Y-109219502D01*
X97104494Y-109160537D01*
X97201185Y-109081185D01*
X97280537Y-108984494D01*
X97339502Y-108874180D01*
X97375812Y-108754482D01*
X97388072Y-108630000D01*
X97385000Y-108505750D01*
X97226250Y-108347000D01*
X95977000Y-108347000D01*
X95745000Y-108347000D01*
X95745000Y-108073000D01*
X95977000Y-108073000D01*
X95977000Y-108093000D01*
X97226250Y-108093000D01*
X97385000Y-107934250D01*
X97388072Y-107810000D01*
X97375812Y-107685518D01*
X97339502Y-107565820D01*
X97293630Y-107480000D01*
X121540199Y-107480000D01*
X122791201Y-108731003D01*
X122814999Y-108760001D01*
X122930724Y-108854974D01*
X123035035Y-108910730D01*
X123074463Y-108984494D01*
X123153815Y-109081185D01*
X123250506Y-109160537D01*
X123360820Y-109219502D01*
X123480518Y-109255812D01*
X123605000Y-109268072D01*
X124676272Y-109268072D01*
X124724333Y-109357989D01*
X124811183Y-109463817D01*
X124917011Y-109550667D01*
X125037748Y-109615202D01*
X125168756Y-109654943D01*
X125270865Y-109665000D01*
X125270866Y-109665000D01*
X125305000Y-109668362D01*
X125339135Y-109665000D01*
X128670865Y-109665000D01*
X128705000Y-109668362D01*
X128739134Y-109665000D01*
X128739135Y-109665000D01*
X128841244Y-109654943D01*
X128972252Y-109615202D01*
X129092989Y-109550667D01*
X129198817Y-109463817D01*
X129285667Y-109357989D01*
X129350202Y-109237252D01*
X129389943Y-109106244D01*
X129399329Y-109010943D01*
X129400000Y-109004135D01*
X129400000Y-109004134D01*
X129403362Y-108970000D01*
X129400000Y-108935865D01*
X129400000Y-108347000D01*
X129632000Y-108347000D01*
X129632000Y-109106250D01*
X129790750Y-109265000D01*
X130405000Y-109268072D01*
X130529482Y-109255812D01*
X130649180Y-109219502D01*
X130759494Y-109160537D01*
X130856185Y-109081185D01*
X130935537Y-108984494D01*
X130994502Y-108874180D01*
X131030812Y-108754482D01*
X131043072Y-108630000D01*
X131040000Y-108505750D01*
X130881250Y-108347000D01*
X129632000Y-108347000D01*
X129400000Y-108347000D01*
X129400000Y-108073000D01*
X129632000Y-108073000D01*
X129632000Y-108093000D01*
X130881250Y-108093000D01*
X130917224Y-108057026D01*
X131618468Y-108758270D01*
X131642266Y-108787268D01*
X131757991Y-108882241D01*
X131890020Y-108952813D01*
X132033281Y-108996270D01*
X132144934Y-109007267D01*
X132144942Y-109007267D01*
X132182267Y-109010943D01*
X132219592Y-109007267D01*
X142378797Y-109007267D01*
X142440239Y-109088878D01*
X142658390Y-109283756D01*
X142847225Y-109395099D01*
X143705197Y-109793356D01*
X143912126Y-109865720D01*
X144201780Y-109906556D01*
X144493837Y-109890100D01*
X144777070Y-109816982D01*
X144840783Y-109786285D01*
X144858461Y-109854765D01*
X144985430Y-110118291D01*
X145161371Y-110351985D01*
X145379522Y-110546863D01*
X145568357Y-110658206D01*
X146426329Y-111056463D01*
X146633258Y-111128827D01*
X146922912Y-111169663D01*
X147214969Y-111153207D01*
X147498202Y-111080089D01*
X147761729Y-110953120D01*
X147995423Y-110777179D01*
X148190301Y-110559028D01*
X148338875Y-110307049D01*
X148435436Y-110030927D01*
X148476273Y-109741272D01*
X148459816Y-109449215D01*
X148442797Y-109383290D01*
X148554442Y-109457889D01*
X148779198Y-109550986D01*
X149017797Y-109598446D01*
X149261071Y-109598446D01*
X149422111Y-109566413D01*
X140326495Y-129198378D01*
X37298016Y-129198378D01*
X33079136Y-124989775D01*
X35189830Y-124989775D01*
X35429976Y-125377018D01*
X35923877Y-125637641D01*
X36459133Y-125796901D01*
X37015174Y-125848678D01*
X37570632Y-125790981D01*
X38104161Y-125626028D01*
X38570024Y-125377018D01*
X38810170Y-124989775D01*
X134689830Y-124989775D01*
X134929976Y-125377018D01*
X135423877Y-125637641D01*
X135959133Y-125796901D01*
X136515174Y-125848678D01*
X137070632Y-125790981D01*
X137604161Y-125626028D01*
X138070024Y-125377018D01*
X138310170Y-124989775D01*
X136500000Y-123179605D01*
X134689830Y-124989775D01*
X38810170Y-124989775D01*
X37000000Y-123179605D01*
X35189830Y-124989775D01*
X33079136Y-124989775D01*
X31099712Y-123015174D01*
X34151322Y-123015174D01*
X34209019Y-123570632D01*
X34373972Y-124104161D01*
X34622982Y-124570024D01*
X35010225Y-124810170D01*
X36820395Y-123000000D01*
X37179605Y-123000000D01*
X38989775Y-124810170D01*
X39377018Y-124570024D01*
X39637641Y-124076123D01*
X39796901Y-123540867D01*
X39845852Y-123015174D01*
X133651322Y-123015174D01*
X133709019Y-123570632D01*
X133873972Y-124104161D01*
X134122982Y-124570024D01*
X134510225Y-124810170D01*
X136320395Y-123000000D01*
X136679605Y-123000000D01*
X138489775Y-124810170D01*
X138877018Y-124570024D01*
X139137641Y-124076123D01*
X139296901Y-123540867D01*
X139348678Y-122984826D01*
X139290981Y-122429368D01*
X139126028Y-121895839D01*
X138877018Y-121429976D01*
X138489775Y-121189830D01*
X136679605Y-123000000D01*
X136320395Y-123000000D01*
X134510225Y-121189830D01*
X134122982Y-121429976D01*
X133862359Y-121923877D01*
X133703099Y-122459133D01*
X133651322Y-123015174D01*
X39845852Y-123015174D01*
X39848678Y-122984826D01*
X39790981Y-122429368D01*
X39626028Y-121895839D01*
X39377018Y-121429976D01*
X38989775Y-121189830D01*
X37179605Y-123000000D01*
X36820395Y-123000000D01*
X35010225Y-121189830D01*
X34622982Y-121429976D01*
X34362359Y-121923877D01*
X34203099Y-122459133D01*
X34151322Y-123015174D01*
X31099712Y-123015174D01*
X30712000Y-122628407D01*
X30712000Y-121010225D01*
X35189830Y-121010225D01*
X37000000Y-122820395D01*
X38810170Y-121010225D01*
X134689830Y-121010225D01*
X136500000Y-122820395D01*
X138310170Y-121010225D01*
X138070024Y-120622982D01*
X137576123Y-120362359D01*
X137040867Y-120203099D01*
X136484826Y-120151322D01*
X135929368Y-120209019D01*
X135395839Y-120373972D01*
X134929976Y-120622982D01*
X134689830Y-121010225D01*
X38810170Y-121010225D01*
X38570024Y-120622982D01*
X38076123Y-120362359D01*
X37540867Y-120203099D01*
X36984826Y-120151322D01*
X36429368Y-120209019D01*
X35895839Y-120373972D01*
X35429976Y-120622982D01*
X35189830Y-121010225D01*
X30712000Y-121010225D01*
X30712000Y-45685000D01*
X53116928Y-45685000D01*
X53120000Y-45809250D01*
X53278750Y-45968000D01*
X54528000Y-45968000D01*
X54528000Y-45208750D01*
X54369250Y-45050000D01*
X53755000Y-45046928D01*
X53630518Y-45059188D01*
X53510820Y-45095498D01*
X53400506Y-45154463D01*
X53303815Y-45233815D01*
X53224463Y-45330506D01*
X53165498Y-45440820D01*
X53129188Y-45560518D01*
X53116928Y-45685000D01*
X30712000Y-45685000D01*
X30712000Y-40739775D01*
X35189830Y-40739775D01*
X35429976Y-41127018D01*
X35923877Y-41387641D01*
X36459133Y-41546901D01*
X37015174Y-41598678D01*
X37570632Y-41540981D01*
X38104161Y-41376028D01*
X38570024Y-41127018D01*
X38810170Y-40739775D01*
X37000000Y-38929605D01*
X35189830Y-40739775D01*
X30712000Y-40739775D01*
X30712000Y-38939223D01*
X30884259Y-38765174D01*
X34151322Y-38765174D01*
X34209019Y-39320632D01*
X34373972Y-39854161D01*
X34622982Y-40320024D01*
X35010225Y-40560170D01*
X36820395Y-38750000D01*
X37179605Y-38750000D01*
X38989775Y-40560170D01*
X39377018Y-40320024D01*
X39637641Y-39826123D01*
X39796901Y-39290867D01*
X39848678Y-38734826D01*
X39790981Y-38179368D01*
X39626028Y-37645839D01*
X39377018Y-37179976D01*
X38989775Y-36939830D01*
X37179605Y-38750000D01*
X36820395Y-38750000D01*
X35010225Y-36939830D01*
X34622982Y-37179976D01*
X34362359Y-37673877D01*
X34203099Y-38209133D01*
X34151322Y-38765174D01*
X30884259Y-38765174D01*
X32868590Y-36760225D01*
X35189830Y-36760225D01*
X37000000Y-38570395D01*
X38810170Y-36760225D01*
X38570024Y-36372982D01*
X38076123Y-36112359D01*
X37540867Y-35953099D01*
X36984826Y-35901322D01*
X36429368Y-35959019D01*
X35895839Y-36123972D01*
X35429976Y-36372982D01*
X35189830Y-36760225D01*
X32868590Y-36760225D01*
X37302991Y-32279749D01*
X142958599Y-31505116D01*
X172098953Y-48154635D01*
G37*
X172098953Y-48154635D02*
X152147386Y-103684184D01*
X150977871Y-106208463D01*
X150970690Y-106191127D01*
X150835534Y-105988852D01*
X150663514Y-105816832D01*
X150461239Y-105681676D01*
X150236483Y-105588579D01*
X150210452Y-105583401D01*
X150266892Y-105556208D01*
X150500586Y-105380267D01*
X150695464Y-105162116D01*
X150844038Y-104910137D01*
X150940599Y-104634015D01*
X150981436Y-104344360D01*
X150964979Y-104052303D01*
X150891862Y-103769071D01*
X150764893Y-103505544D01*
X150588951Y-103271851D01*
X150370801Y-103076973D01*
X150181966Y-102965630D01*
X149323992Y-102567373D01*
X149117064Y-102495009D01*
X148827409Y-102454173D01*
X148535353Y-102470629D01*
X148252120Y-102543747D01*
X148188408Y-102574444D01*
X148170730Y-102505964D01*
X148043761Y-102242437D01*
X147867819Y-102008744D01*
X147649669Y-101813866D01*
X147460834Y-101702523D01*
X146602860Y-101304266D01*
X146395932Y-101231902D01*
X146106277Y-101191066D01*
X145814221Y-101207522D01*
X145530988Y-101280640D01*
X145267462Y-101407609D01*
X145033768Y-101583550D01*
X144838890Y-101801701D01*
X144690315Y-102053680D01*
X144593754Y-102329802D01*
X144552918Y-102619457D01*
X144569374Y-102911513D01*
X144642492Y-103194746D01*
X144769461Y-103458272D01*
X144945402Y-103691966D01*
X145163553Y-103886844D01*
X145352388Y-103998187D01*
X146210360Y-104396444D01*
X146417289Y-104468808D01*
X146706943Y-104509644D01*
X146999000Y-104493188D01*
X147282233Y-104420070D01*
X147345946Y-104389373D01*
X147363624Y-104457853D01*
X147490593Y-104721379D01*
X147666534Y-104955073D01*
X147884685Y-105149951D01*
X148073520Y-105261294D01*
X148931492Y-105659551D01*
X149138421Y-105731915D01*
X149202539Y-105740954D01*
X149088980Y-105816832D01*
X148916960Y-105988852D01*
X148781804Y-106191127D01*
X148688707Y-106415883D01*
X148641247Y-106654482D01*
X148641247Y-106897756D01*
X148688707Y-107136355D01*
X148715942Y-107202107D01*
X148554442Y-107269003D01*
X148352167Y-107404159D01*
X148180147Y-107576179D01*
X148044991Y-107778454D01*
X147951894Y-108003210D01*
X147904434Y-108241809D01*
X147904434Y-108485083D01*
X147910109Y-108513612D01*
X147865638Y-108473885D01*
X147676803Y-108362542D01*
X146818829Y-107964285D01*
X146611901Y-107891921D01*
X146322246Y-107851085D01*
X146030190Y-107867541D01*
X145746957Y-107940659D01*
X145683245Y-107971356D01*
X145665567Y-107902876D01*
X145538598Y-107639349D01*
X145362656Y-107405656D01*
X145144506Y-107210778D01*
X144955671Y-107099435D01*
X144097697Y-106701178D01*
X143890769Y-106628814D01*
X143601114Y-106587978D01*
X143309058Y-106604434D01*
X143025825Y-106677552D01*
X142762299Y-106804521D01*
X142528605Y-106980462D01*
X142333727Y-107198613D01*
X142185152Y-107450592D01*
X142172327Y-107487267D01*
X141914407Y-107487267D01*
X141989566Y-107359799D01*
X142086127Y-107083677D01*
X142126964Y-106794022D01*
X142110507Y-106501965D01*
X142093488Y-106436040D01*
X142205134Y-106510639D01*
X142429890Y-106603736D01*
X142668489Y-106651196D01*
X142911763Y-106651196D01*
X143150362Y-106603736D01*
X143375118Y-106510639D01*
X143577393Y-106375483D01*
X143749413Y-106203463D01*
X143884569Y-106001188D01*
X143977666Y-105776432D01*
X144025126Y-105537833D01*
X144025126Y-105294559D01*
X143977666Y-105055960D01*
X143950431Y-104990208D01*
X144111931Y-104923312D01*
X144314206Y-104788156D01*
X144486226Y-104616136D01*
X144621382Y-104413861D01*
X144714479Y-104189105D01*
X144761939Y-103950506D01*
X144761939Y-103707232D01*
X144714479Y-103468633D01*
X144621382Y-103243877D01*
X144486226Y-103041602D01*
X144314206Y-102869582D01*
X144111931Y-102734426D01*
X143887175Y-102641329D01*
X143861144Y-102636151D01*
X143917584Y-102608958D01*
X144151278Y-102433017D01*
X144346156Y-102214866D01*
X144494730Y-101962887D01*
X144591291Y-101686765D01*
X144632128Y-101397110D01*
X144615671Y-101105053D01*
X144542554Y-100821821D01*
X144415585Y-100558294D01*
X144239643Y-100324601D01*
X144021493Y-100129723D01*
X143832658Y-100018380D01*
X142974684Y-99620123D01*
X142767756Y-99547759D01*
X142478101Y-99506923D01*
X142186045Y-99523379D01*
X141902812Y-99596497D01*
X141639286Y-99723466D01*
X141405592Y-99899407D01*
X141210714Y-100117558D01*
X141062139Y-100369537D01*
X140974240Y-100620890D01*
X140828282Y-100553139D01*
X140545271Y-100480543D01*
X140253535Y-100464554D01*
X139964286Y-100505788D01*
X139688638Y-100602659D01*
X139437186Y-100751445D01*
X139219593Y-100946429D01*
X139161020Y-101022943D01*
X139174271Y-101282544D01*
X140619333Y-101953319D01*
X140627754Y-101935178D01*
X140858143Y-102042121D01*
X140849722Y-102060262D01*
X142294784Y-102731037D01*
X142418944Y-102636528D01*
X142582184Y-102712301D01*
X142789113Y-102784665D01*
X142853231Y-102793704D01*
X142739672Y-102869582D01*
X142567652Y-103041602D01*
X142432496Y-103243877D01*
X142339399Y-103468633D01*
X142291939Y-103707232D01*
X142291939Y-103950506D01*
X142339399Y-104189105D01*
X142366634Y-104254857D01*
X142205134Y-104321753D01*
X142002859Y-104456909D01*
X141830839Y-104628929D01*
X141695683Y-104831204D01*
X141602586Y-105055960D01*
X141555126Y-105294559D01*
X141555126Y-105537833D01*
X141560801Y-105566363D01*
X141516329Y-105526635D01*
X141327494Y-105415292D01*
X141164257Y-105339520D01*
X141156303Y-105183684D01*
X139711241Y-104512909D01*
X139702820Y-104531050D01*
X139472431Y-104424107D01*
X139480852Y-104405966D01*
X139214911Y-104282520D01*
X139818184Y-104282520D01*
X141263246Y-104953295D01*
X141470081Y-104795855D01*
X141490716Y-104701731D01*
X141499196Y-104409681D01*
X141450537Y-104121587D01*
X141346608Y-103848522D01*
X141287305Y-103753937D01*
X141397826Y-103738182D01*
X141673474Y-103641311D01*
X141924926Y-103492525D01*
X142142519Y-103297541D01*
X142201092Y-103221027D01*
X142187841Y-102961426D01*
X140742779Y-102290651D01*
X140179189Y-103504802D01*
X139818184Y-104282520D01*
X139214911Y-104282520D01*
X138035790Y-103735191D01*
X137828955Y-103892631D01*
X137808320Y-103986755D01*
X137799840Y-104278805D01*
X137848499Y-104566899D01*
X137851578Y-104574990D01*
X124898479Y-104574990D01*
X124855010Y-104570709D01*
X124811541Y-104574990D01*
X124811533Y-104574990D01*
X124681520Y-104587795D01*
X124514697Y-104638401D01*
X124360951Y-104720579D01*
X124226193Y-104831173D01*
X124198476Y-104864946D01*
X123909952Y-105153470D01*
X123876184Y-105181183D01*
X123848471Y-105214951D01*
X123848468Y-105214954D01*
X123765590Y-105315941D01*
X123683412Y-105469687D01*
X123632805Y-105636510D01*
X123629317Y-105671928D01*
X123605000Y-105671928D01*
X123480518Y-105684188D01*
X123360820Y-105720498D01*
X123358381Y-105721802D01*
X122501524Y-104864946D01*
X122473807Y-104831173D01*
X122339049Y-104720579D01*
X122185303Y-104638401D01*
X122018480Y-104587795D01*
X121888467Y-104574990D01*
X121888459Y-104574990D01*
X121844990Y-104570709D01*
X121801521Y-104574990D01*
X91243479Y-104574990D01*
X91200010Y-104570709D01*
X91156541Y-104574990D01*
X91156533Y-104574990D01*
X91026520Y-104587795D01*
X90859697Y-104638401D01*
X90705951Y-104720579D01*
X90571193Y-104831173D01*
X90543476Y-104864946D01*
X90254952Y-105153470D01*
X90221184Y-105181183D01*
X90193471Y-105214951D01*
X90193468Y-105214954D01*
X90110590Y-105315941D01*
X90028412Y-105469687D01*
X89977805Y-105636510D01*
X89974317Y-105671928D01*
X89950000Y-105671928D01*
X89825518Y-105684188D01*
X89705820Y-105720498D01*
X89703381Y-105721802D01*
X88846524Y-104864946D01*
X88818807Y-104831173D01*
X88684049Y-104720579D01*
X88530303Y-104638401D01*
X88363480Y-104587795D01*
X88233467Y-104574990D01*
X88233459Y-104574990D01*
X88189990Y-104570709D01*
X88146521Y-104574990D01*
X55540000Y-104574990D01*
X55540000Y-103245201D01*
X138129482Y-103245201D01*
X138142733Y-103504802D01*
X139587795Y-104175577D01*
X139940623Y-103415474D01*
X139963207Y-103366821D01*
X140159562Y-102943811D01*
X140512390Y-102183708D01*
X139067328Y-101512933D01*
X138860493Y-101670373D01*
X138839858Y-101764497D01*
X138831378Y-102056547D01*
X138880037Y-102344641D01*
X138983966Y-102617706D01*
X139043269Y-102712291D01*
X138932748Y-102728046D01*
X138657100Y-102824917D01*
X138405648Y-102973703D01*
X138188055Y-103168687D01*
X138129482Y-103245201D01*
X55540000Y-103245201D01*
X55540000Y-53632841D01*
X57183066Y-51989775D01*
X165189830Y-51989775D01*
X165429976Y-52377018D01*
X165923877Y-52637641D01*
X166459133Y-52796901D01*
X167015174Y-52848678D01*
X167570632Y-52790981D01*
X168104161Y-52626028D01*
X168570024Y-52377018D01*
X168810170Y-51989775D01*
X167000000Y-50179605D01*
X165189830Y-51989775D01*
X57183066Y-51989775D01*
X59157667Y-50015174D01*
X164151322Y-50015174D01*
X164209019Y-50570632D01*
X164373972Y-51104161D01*
X164622982Y-51570024D01*
X165010225Y-51810170D01*
X166820395Y-50000000D01*
X167179605Y-50000000D01*
X168989775Y-51810170D01*
X169377018Y-51570024D01*
X169637641Y-51076123D01*
X169796901Y-50540867D01*
X169848678Y-49984826D01*
X169790981Y-49429368D01*
X169626028Y-48895839D01*
X169377018Y-48429976D01*
X168989775Y-48189830D01*
X167179605Y-50000000D01*
X166820395Y-50000000D01*
X165010225Y-48189830D01*
X164622982Y-48429976D01*
X164362359Y-48923877D01*
X164203099Y-49459133D01*
X164151322Y-50015174D01*
X59157667Y-50015174D01*
X60250049Y-48922793D01*
X60283817Y-48895080D01*
X60324660Y-48845314D01*
X60394411Y-48760322D01*
X60436531Y-48681520D01*
X60457082Y-48643072D01*
X60555000Y-48643072D01*
X60679482Y-48630812D01*
X60799180Y-48594502D01*
X60801620Y-48593198D01*
X61658480Y-49450059D01*
X61686193Y-49483827D01*
X61719961Y-49511540D01*
X61719963Y-49511542D01*
X61737317Y-49525784D01*
X61820951Y-49594421D01*
X61974697Y-49676599D01*
X62141520Y-49727205D01*
X62271533Y-49740010D01*
X62271543Y-49740010D01*
X62315009Y-49744291D01*
X62358475Y-49740010D01*
X93551521Y-49740010D01*
X93594990Y-49744291D01*
X93638459Y-49740010D01*
X93638467Y-49740010D01*
X93768480Y-49727205D01*
X93935303Y-49676599D01*
X93945000Y-49671416D01*
X93954697Y-49676599D01*
X94121520Y-49727205D01*
X94251533Y-49740010D01*
X94251541Y-49740010D01*
X94295010Y-49744291D01*
X94338479Y-49740010D01*
X129111521Y-49740010D01*
X129154990Y-49744291D01*
X129198459Y-49740010D01*
X129198467Y-49740010D01*
X129328480Y-49727205D01*
X129495303Y-49676599D01*
X129649049Y-49594421D01*
X129783807Y-49483827D01*
X129811524Y-49450054D01*
X130100045Y-49161533D01*
X130133817Y-49133817D01*
X130244411Y-48999059D01*
X130326589Y-48845313D01*
X130377195Y-48678490D01*
X130380683Y-48643072D01*
X130405000Y-48643072D01*
X130529482Y-48630812D01*
X130649180Y-48594502D01*
X130759494Y-48535537D01*
X130856185Y-48456185D01*
X130935537Y-48359494D01*
X130994502Y-48249180D01*
X131030812Y-48129482D01*
X131042557Y-48010225D01*
X165189830Y-48010225D01*
X167000000Y-49820395D01*
X168810170Y-48010225D01*
X168570024Y-47622982D01*
X168076123Y-47362359D01*
X167540867Y-47203099D01*
X166984826Y-47151322D01*
X166429368Y-47209019D01*
X165895839Y-47373972D01*
X165429976Y-47622982D01*
X165189830Y-48010225D01*
X131042557Y-48010225D01*
X131043072Y-48005000D01*
X131043072Y-47185000D01*
X131030812Y-47060518D01*
X130994502Y-46940820D01*
X130943284Y-46845000D01*
X130994502Y-46749180D01*
X131030812Y-46629482D01*
X131043072Y-46505000D01*
X131043072Y-45685000D01*
X131030812Y-45560518D01*
X130994502Y-45440820D01*
X130935537Y-45330506D01*
X130856185Y-45233815D01*
X130759494Y-45154463D01*
X130649180Y-45095498D01*
X130529482Y-45059188D01*
X130405000Y-45046928D01*
X129333728Y-45046928D01*
X129285667Y-44957011D01*
X129198817Y-44851183D01*
X129092989Y-44764333D01*
X128972252Y-44699798D01*
X128841244Y-44660057D01*
X128739135Y-44650000D01*
X128705000Y-44646638D01*
X128670866Y-44650000D01*
X125339134Y-44650000D01*
X125305000Y-44646638D01*
X125270865Y-44650000D01*
X125168756Y-44660057D01*
X125037748Y-44699798D01*
X124917011Y-44764333D01*
X124811183Y-44851183D01*
X124724333Y-44957011D01*
X124659798Y-45077748D01*
X124620057Y-45208756D01*
X124606638Y-45345000D01*
X124610000Y-45379135D01*
X124610000Y-46242000D01*
X124378000Y-46242000D01*
X124378000Y-46222000D01*
X123128750Y-46222000D01*
X122970000Y-46380750D01*
X122966928Y-46505000D01*
X122979188Y-46629482D01*
X123015498Y-46749180D01*
X123061370Y-46835000D01*
X96909802Y-46835000D01*
X95759802Y-45685000D01*
X122966928Y-45685000D01*
X122970000Y-45809250D01*
X123128750Y-45968000D01*
X124378000Y-45968000D01*
X124378000Y-45208750D01*
X124219250Y-45050000D01*
X123605000Y-45046928D01*
X123480518Y-45059188D01*
X123360820Y-45095498D01*
X123250506Y-45154463D01*
X123153815Y-45233815D01*
X123074463Y-45330506D01*
X123015498Y-45440820D01*
X122979188Y-45560518D01*
X122966928Y-45685000D01*
X95759802Y-45685000D01*
X95658804Y-45584003D01*
X95635001Y-45554999D01*
X95519276Y-45460026D01*
X95414965Y-45404270D01*
X95375537Y-45330506D01*
X95296185Y-45233815D01*
X95199494Y-45154463D01*
X95089180Y-45095498D01*
X94969482Y-45059188D01*
X94845000Y-45046928D01*
X93773728Y-45046928D01*
X93725667Y-44957011D01*
X93638817Y-44851183D01*
X93532989Y-44764333D01*
X93412252Y-44699798D01*
X93281244Y-44660057D01*
X93179135Y-44650000D01*
X93145000Y-44646638D01*
X93110866Y-44650000D01*
X89779134Y-44650000D01*
X89745000Y-44646638D01*
X89710865Y-44650000D01*
X89608756Y-44660057D01*
X89477748Y-44699798D01*
X89357011Y-44764333D01*
X89251183Y-44851183D01*
X89164333Y-44957011D01*
X89099798Y-45077748D01*
X89060057Y-45208756D01*
X89046638Y-45345000D01*
X89050000Y-45379135D01*
X89050000Y-46242000D01*
X88818000Y-46242000D01*
X88818000Y-46222000D01*
X87568750Y-46222000D01*
X87410000Y-46380750D01*
X87406928Y-46505000D01*
X87419188Y-46629482D01*
X87455498Y-46749180D01*
X87501370Y-46835000D01*
X62619802Y-46835000D01*
X61469802Y-45685000D01*
X87406928Y-45685000D01*
X87410000Y-45809250D01*
X87568750Y-45968000D01*
X88818000Y-45968000D01*
X88818000Y-45208750D01*
X88659250Y-45050000D01*
X88045000Y-45046928D01*
X87920518Y-45059188D01*
X87800820Y-45095498D01*
X87690506Y-45154463D01*
X87593815Y-45233815D01*
X87514463Y-45330506D01*
X87455498Y-45440820D01*
X87419188Y-45560518D01*
X87406928Y-45685000D01*
X61469802Y-45685000D01*
X61368804Y-45584003D01*
X61345001Y-45554999D01*
X61229276Y-45460026D01*
X61124965Y-45404270D01*
X61085537Y-45330506D01*
X61006185Y-45233815D01*
X60909494Y-45154463D01*
X60799180Y-45095498D01*
X60679482Y-45059188D01*
X60555000Y-45046928D01*
X59483728Y-45046928D01*
X59435667Y-44957011D01*
X59348817Y-44851183D01*
X59242989Y-44764333D01*
X59122252Y-44699798D01*
X58991244Y-44660057D01*
X58889135Y-44650000D01*
X58855000Y-44646638D01*
X58820866Y-44650000D01*
X55489134Y-44650000D01*
X55455000Y-44646638D01*
X55420865Y-44650000D01*
X55318756Y-44660057D01*
X55187748Y-44699798D01*
X55067011Y-44764333D01*
X54961183Y-44851183D01*
X54874333Y-44957011D01*
X54809798Y-45077748D01*
X54770057Y-45208756D01*
X54756638Y-45345000D01*
X54760000Y-45379135D01*
X54760000Y-46242000D01*
X54528000Y-46242000D01*
X54528000Y-46222000D01*
X53278750Y-46222000D01*
X53120000Y-46380750D01*
X53116928Y-46505000D01*
X53129188Y-46629482D01*
X53165498Y-46749180D01*
X53216716Y-46845000D01*
X53185035Y-46904270D01*
X53080724Y-46960026D01*
X52964999Y-47054999D01*
X52941196Y-47084003D01*
X52488998Y-47536201D01*
X52460000Y-47559999D01*
X52436202Y-47588997D01*
X52436201Y-47588998D01*
X52365026Y-47675724D01*
X52294454Y-47807754D01*
X52250998Y-47951015D01*
X52236324Y-48100000D01*
X52240001Y-48137333D01*
X52240000Y-107677678D01*
X52236324Y-107715000D01*
X52240000Y-107752322D01*
X52240000Y-107752332D01*
X52250997Y-107863985D01*
X52281422Y-107964285D01*
X52294454Y-108007246D01*
X52365026Y-108139276D01*
X52399742Y-108181577D01*
X52459999Y-108255001D01*
X52489003Y-108278804D01*
X52941196Y-108730997D01*
X52964999Y-108760001D01*
X53080724Y-108854974D01*
X53185035Y-108910730D01*
X53224463Y-108984494D01*
X53303815Y-109081185D01*
X53400506Y-109160537D01*
X53510820Y-109219502D01*
X53630518Y-109255812D01*
X53755000Y-109268072D01*
X54826272Y-109268072D01*
X54874333Y-109357989D01*
X54961183Y-109463817D01*
X55067011Y-109550667D01*
X55187748Y-109615202D01*
X55318756Y-109654943D01*
X55420865Y-109665000D01*
X55420866Y-109665000D01*
X55455000Y-109668362D01*
X55489135Y-109665000D01*
X58820865Y-109665000D01*
X58855000Y-109668362D01*
X58889134Y-109665000D01*
X58889135Y-109665000D01*
X58991244Y-109654943D01*
X59122252Y-109615202D01*
X59242989Y-109550667D01*
X59348817Y-109463817D01*
X59435667Y-109357989D01*
X59500202Y-109237252D01*
X59539943Y-109106244D01*
X59549329Y-109010943D01*
X59550000Y-109004135D01*
X59550000Y-109004134D01*
X59553362Y-108970000D01*
X59550000Y-108935865D01*
X59550000Y-108347000D01*
X59782000Y-108347000D01*
X59782000Y-109106250D01*
X59940750Y-109265000D01*
X60555000Y-109268072D01*
X60679482Y-109255812D01*
X60799180Y-109219502D01*
X60909494Y-109160537D01*
X61006185Y-109081185D01*
X61085537Y-108984494D01*
X61144502Y-108874180D01*
X61180812Y-108754482D01*
X61193072Y-108630000D01*
X61190000Y-108505750D01*
X61031250Y-108347000D01*
X59782000Y-108347000D01*
X59550000Y-108347000D01*
X59550000Y-108073000D01*
X59782000Y-108073000D01*
X59782000Y-108093000D01*
X61031250Y-108093000D01*
X61190000Y-107934250D01*
X61193072Y-107810000D01*
X61180812Y-107685518D01*
X61144502Y-107565820D01*
X61098630Y-107480000D01*
X87885199Y-107480000D01*
X89136201Y-108731003D01*
X89159999Y-108760001D01*
X89275724Y-108854974D01*
X89380035Y-108910730D01*
X89419463Y-108984494D01*
X89498815Y-109081185D01*
X89595506Y-109160537D01*
X89705820Y-109219502D01*
X89825518Y-109255812D01*
X89950000Y-109268072D01*
X91021272Y-109268072D01*
X91069333Y-109357989D01*
X91156183Y-109463817D01*
X91262011Y-109550667D01*
X91382748Y-109615202D01*
X91513756Y-109654943D01*
X91615865Y-109665000D01*
X91615866Y-109665000D01*
X91650000Y-109668362D01*
X91684135Y-109665000D01*
X95015865Y-109665000D01*
X95050000Y-109668362D01*
X95084134Y-109665000D01*
X95084135Y-109665000D01*
X95186244Y-109654943D01*
X95317252Y-109615202D01*
X95437989Y-109550667D01*
X95543817Y-109463817D01*
X95630667Y-109357989D01*
X95695202Y-109237252D01*
X95734943Y-109106244D01*
X95744329Y-109010943D01*
X95745000Y-109004135D01*
X95745000Y-109004134D01*
X95748362Y-108970000D01*
X95745000Y-108935865D01*
X95745000Y-108347000D01*
X95977000Y-108347000D01*
X95977000Y-109106250D01*
X96135750Y-109265000D01*
X96750000Y-109268072D01*
X96874482Y-109255812D01*
X96994180Y-109219502D01*
X97104494Y-109160537D01*
X97201185Y-109081185D01*
X97280537Y-108984494D01*
X97339502Y-108874180D01*
X97375812Y-108754482D01*
X97388072Y-108630000D01*
X97385000Y-108505750D01*
X97226250Y-108347000D01*
X95977000Y-108347000D01*
X95745000Y-108347000D01*
X95745000Y-108073000D01*
X95977000Y-108073000D01*
X95977000Y-108093000D01*
X97226250Y-108093000D01*
X97385000Y-107934250D01*
X97388072Y-107810000D01*
X97375812Y-107685518D01*
X97339502Y-107565820D01*
X97293630Y-107480000D01*
X121540199Y-107480000D01*
X122791201Y-108731003D01*
X122814999Y-108760001D01*
X122930724Y-108854974D01*
X123035035Y-108910730D01*
X123074463Y-108984494D01*
X123153815Y-109081185D01*
X123250506Y-109160537D01*
X123360820Y-109219502D01*
X123480518Y-109255812D01*
X123605000Y-109268072D01*
X124676272Y-109268072D01*
X124724333Y-109357989D01*
X124811183Y-109463817D01*
X124917011Y-109550667D01*
X125037748Y-109615202D01*
X125168756Y-109654943D01*
X125270865Y-109665000D01*
X125270866Y-109665000D01*
X125305000Y-109668362D01*
X125339135Y-109665000D01*
X128670865Y-109665000D01*
X128705000Y-109668362D01*
X128739134Y-109665000D01*
X128739135Y-109665000D01*
X128841244Y-109654943D01*
X128972252Y-109615202D01*
X129092989Y-109550667D01*
X129198817Y-109463817D01*
X129285667Y-109357989D01*
X129350202Y-109237252D01*
X129389943Y-109106244D01*
X129399329Y-109010943D01*
X129400000Y-109004135D01*
X129400000Y-109004134D01*
X129403362Y-108970000D01*
X129400000Y-108935865D01*
X129400000Y-108347000D01*
X129632000Y-108347000D01*
X129632000Y-109106250D01*
X129790750Y-109265000D01*
X130405000Y-109268072D01*
X130529482Y-109255812D01*
X130649180Y-109219502D01*
X130759494Y-109160537D01*
X130856185Y-109081185D01*
X130935537Y-108984494D01*
X130994502Y-108874180D01*
X131030812Y-108754482D01*
X131043072Y-108630000D01*
X131040000Y-108505750D01*
X130881250Y-108347000D01*
X129632000Y-108347000D01*
X129400000Y-108347000D01*
X129400000Y-108073000D01*
X129632000Y-108073000D01*
X129632000Y-108093000D01*
X130881250Y-108093000D01*
X130917224Y-108057026D01*
X131618468Y-108758270D01*
X131642266Y-108787268D01*
X131757991Y-108882241D01*
X131890020Y-108952813D01*
X132033281Y-108996270D01*
X132144934Y-109007267D01*
X132144942Y-109007267D01*
X132182267Y-109010943D01*
X132219592Y-109007267D01*
X142378797Y-109007267D01*
X142440239Y-109088878D01*
X142658390Y-109283756D01*
X142847225Y-109395099D01*
X143705197Y-109793356D01*
X143912126Y-109865720D01*
X144201780Y-109906556D01*
X144493837Y-109890100D01*
X144777070Y-109816982D01*
X144840783Y-109786285D01*
X144858461Y-109854765D01*
X144985430Y-110118291D01*
X145161371Y-110351985D01*
X145379522Y-110546863D01*
X145568357Y-110658206D01*
X146426329Y-111056463D01*
X146633258Y-111128827D01*
X146922912Y-111169663D01*
X147214969Y-111153207D01*
X147498202Y-111080089D01*
X147761729Y-110953120D01*
X147995423Y-110777179D01*
X148190301Y-110559028D01*
X148338875Y-110307049D01*
X148435436Y-110030927D01*
X148476273Y-109741272D01*
X148459816Y-109449215D01*
X148442797Y-109383290D01*
X148554442Y-109457889D01*
X148779198Y-109550986D01*
X149017797Y-109598446D01*
X149261071Y-109598446D01*
X149422111Y-109566413D01*
X140326495Y-129198378D01*
X37298016Y-129198378D01*
X33079136Y-124989775D01*
X35189830Y-124989775D01*
X35429976Y-125377018D01*
X35923877Y-125637641D01*
X36459133Y-125796901D01*
X37015174Y-125848678D01*
X37570632Y-125790981D01*
X38104161Y-125626028D01*
X38570024Y-125377018D01*
X38810170Y-124989775D01*
X134689830Y-124989775D01*
X134929976Y-125377018D01*
X135423877Y-125637641D01*
X135959133Y-125796901D01*
X136515174Y-125848678D01*
X137070632Y-125790981D01*
X137604161Y-125626028D01*
X138070024Y-125377018D01*
X138310170Y-124989775D01*
X136500000Y-123179605D01*
X134689830Y-124989775D01*
X38810170Y-124989775D01*
X37000000Y-123179605D01*
X35189830Y-124989775D01*
X33079136Y-124989775D01*
X31099712Y-123015174D01*
X34151322Y-123015174D01*
X34209019Y-123570632D01*
X34373972Y-124104161D01*
X34622982Y-124570024D01*
X35010225Y-124810170D01*
X36820395Y-123000000D01*
X37179605Y-123000000D01*
X38989775Y-124810170D01*
X39377018Y-124570024D01*
X39637641Y-124076123D01*
X39796901Y-123540867D01*
X39845852Y-123015174D01*
X133651322Y-123015174D01*
X133709019Y-123570632D01*
X133873972Y-124104161D01*
X134122982Y-124570024D01*
X134510225Y-124810170D01*
X136320395Y-123000000D01*
X136679605Y-123000000D01*
X138489775Y-124810170D01*
X138877018Y-124570024D01*
X139137641Y-124076123D01*
X139296901Y-123540867D01*
X139348678Y-122984826D01*
X139290981Y-122429368D01*
X139126028Y-121895839D01*
X138877018Y-121429976D01*
X138489775Y-121189830D01*
X136679605Y-123000000D01*
X136320395Y-123000000D01*
X134510225Y-121189830D01*
X134122982Y-121429976D01*
X133862359Y-121923877D01*
X133703099Y-122459133D01*
X133651322Y-123015174D01*
X39845852Y-123015174D01*
X39848678Y-122984826D01*
X39790981Y-122429368D01*
X39626028Y-121895839D01*
X39377018Y-121429976D01*
X38989775Y-121189830D01*
X37179605Y-123000000D01*
X36820395Y-123000000D01*
X35010225Y-121189830D01*
X34622982Y-121429976D01*
X34362359Y-121923877D01*
X34203099Y-122459133D01*
X34151322Y-123015174D01*
X31099712Y-123015174D01*
X30712000Y-122628407D01*
X30712000Y-121010225D01*
X35189830Y-121010225D01*
X37000000Y-122820395D01*
X38810170Y-121010225D01*
X134689830Y-121010225D01*
X136500000Y-122820395D01*
X138310170Y-121010225D01*
X138070024Y-120622982D01*
X137576123Y-120362359D01*
X137040867Y-120203099D01*
X136484826Y-120151322D01*
X135929368Y-120209019D01*
X135395839Y-120373972D01*
X134929976Y-120622982D01*
X134689830Y-121010225D01*
X38810170Y-121010225D01*
X38570024Y-120622982D01*
X38076123Y-120362359D01*
X37540867Y-120203099D01*
X36984826Y-120151322D01*
X36429368Y-120209019D01*
X35895839Y-120373972D01*
X35429976Y-120622982D01*
X35189830Y-121010225D01*
X30712000Y-121010225D01*
X30712000Y-45685000D01*
X53116928Y-45685000D01*
X53120000Y-45809250D01*
X53278750Y-45968000D01*
X54528000Y-45968000D01*
X54528000Y-45208750D01*
X54369250Y-45050000D01*
X53755000Y-45046928D01*
X53630518Y-45059188D01*
X53510820Y-45095498D01*
X53400506Y-45154463D01*
X53303815Y-45233815D01*
X53224463Y-45330506D01*
X53165498Y-45440820D01*
X53129188Y-45560518D01*
X53116928Y-45685000D01*
X30712000Y-45685000D01*
X30712000Y-40739775D01*
X35189830Y-40739775D01*
X35429976Y-41127018D01*
X35923877Y-41387641D01*
X36459133Y-41546901D01*
X37015174Y-41598678D01*
X37570632Y-41540981D01*
X38104161Y-41376028D01*
X38570024Y-41127018D01*
X38810170Y-40739775D01*
X37000000Y-38929605D01*
X35189830Y-40739775D01*
X30712000Y-40739775D01*
X30712000Y-38939223D01*
X30884259Y-38765174D01*
X34151322Y-38765174D01*
X34209019Y-39320632D01*
X34373972Y-39854161D01*
X34622982Y-40320024D01*
X35010225Y-40560170D01*
X36820395Y-38750000D01*
X37179605Y-38750000D01*
X38989775Y-40560170D01*
X39377018Y-40320024D01*
X39637641Y-39826123D01*
X39796901Y-39290867D01*
X39848678Y-38734826D01*
X39790981Y-38179368D01*
X39626028Y-37645839D01*
X39377018Y-37179976D01*
X38989775Y-36939830D01*
X37179605Y-38750000D01*
X36820395Y-38750000D01*
X35010225Y-36939830D01*
X34622982Y-37179976D01*
X34362359Y-37673877D01*
X34203099Y-38209133D01*
X34151322Y-38765174D01*
X30884259Y-38765174D01*
X32868590Y-36760225D01*
X35189830Y-36760225D01*
X37000000Y-38570395D01*
X38810170Y-36760225D01*
X38570024Y-36372982D01*
X38076123Y-36112359D01*
X37540867Y-35953099D01*
X36984826Y-35901322D01*
X36429368Y-35959019D01*
X35895839Y-36123972D01*
X35429976Y-36372982D01*
X35189830Y-36760225D01*
X32868590Y-36760225D01*
X37302991Y-32279749D01*
X142958599Y-31505116D01*
X172098953Y-48154635D01*
M02*
