M48
; DRILL file {KiCad 5.1.5+dfsg1-2build2} date 2021年01月30日 19時33分49秒
; FORMAT={-:-/ absolute / inch / decimal}
; #@! TF.CreationDate,2021-01-30T19:33:49+09:00
; #@! TF.GenerationSoftware,Kicad,Pcbnew,5.1.5+dfsg1-2build2
FMAT,2
INCH
T1C0.0157
T2C0.0394
T3C0.0866
T4C0.0472
%
G90
G05
T1
X2.985Y-1.025
X3.0041Y-0.9791
X3.0041Y-1.0709
X3.05Y-0.96
X3.05Y-1.09
X3.0959Y-0.9791
X3.0959Y-1.0709
X3.115Y-1.025
X6.9038Y-1.025
X6.9228Y-0.9791
X6.9228Y-1.0709
X6.9687Y-0.96
X6.9687Y-1.09
X7.0147Y-0.9791
X7.0147Y-1.0709
X7.0337Y-1.025
X6.905Y-4.345
X6.9241Y-4.2991
X6.9241Y-4.3909
X6.97Y-4.28
X6.97Y-4.41
X7.0159Y-4.2991
X7.0159Y-4.3909
X7.035Y-4.345
X1.785Y-3.9
X1.8041Y-3.8541
X1.8041Y-3.9459
X1.85Y-3.835
X1.85Y-3.965
X1.8959Y-3.8541
X1.8959Y-3.9459
X1.915Y-3.9
T3
X3.05Y-1.025
X6.9687Y-1.025
X6.97Y-4.345
X1.85Y-3.9
T4
X2.5246Y-1.6624
X2.5536Y-1.5999
X2.7745Y-1.7784
X2.8035Y-1.7159
T2
G00X2.5451Y-1.763
M15
G01X2.563Y-1.7713
M16
G05
G00X2.6437Y-1.5506
M15
G01X2.6616Y-1.5589
M16
G05
G00X2.6522Y-1.8128
M15
G01X2.6701Y-1.8211
M16
G05
G00X2.7509Y-1.6003
M15
G01X2.7687Y-1.6086
M16
G05
G00X2.7951Y-1.8791
M15
G01X2.8129Y-1.8874
M16
G05
G00X2.8776Y-1.8414
M15
G01X2.8955Y-1.8497
M16
G05
G00X2.8937Y-1.6666
M15
G01X2.9116Y-1.6749
M16
G05
G00X2.9183Y-1.754
M15
G01X2.9361Y-1.7622
M16
G05
T0
M30
