G04 #@! TF.GenerationSoftware,KiCad,Pcbnew,5.1.5+dfsg1-2build2*
G04 #@! TF.CreationDate,2021-01-30T19:33:43+09:00*
G04 #@! TF.ProjectId,rest,72657374-2e6b-4696-9361-645f70636258,rev?*
G04 #@! TF.SameCoordinates,Original*
G04 #@! TF.FileFunction,Soldermask,Bot*
G04 #@! TF.FilePolarity,Negative*
%FSLAX46Y46*%
G04 Gerber Fmt 4.6, Leading zero omitted, Abs format (unit mm)*
G04 Created by KiCad (PCBNEW 5.1.5+dfsg1-2build2) date 2021-01-30 19:33:43*
%MOMM*%
%LPD*%
G04 APERTURE LIST*
%ADD10C,0.100000*%
G04 APERTURE END LIST*
D10*
G36*
X177313880Y-108122776D02*
G01*
X177694593Y-108198504D01*
X178104249Y-108368189D01*
X178472929Y-108614534D01*
X178786466Y-108928071D01*
X179032811Y-109296751D01*
X179202496Y-109706407D01*
X179289000Y-110141296D01*
X179289000Y-110584704D01*
X179202496Y-111019593D01*
X179032811Y-111429249D01*
X178786466Y-111797929D01*
X178472929Y-112111466D01*
X178104249Y-112357811D01*
X177694593Y-112527496D01*
X177313880Y-112603224D01*
X177259705Y-112614000D01*
X176816295Y-112614000D01*
X176762120Y-112603224D01*
X176381407Y-112527496D01*
X175971751Y-112357811D01*
X175603071Y-112111466D01*
X175289534Y-111797929D01*
X175043189Y-111429249D01*
X174873504Y-111019593D01*
X174787000Y-110584704D01*
X174787000Y-110141296D01*
X174873504Y-109706407D01*
X175043189Y-109296751D01*
X175289534Y-108928071D01*
X175603071Y-108614534D01*
X175971751Y-108368189D01*
X176381407Y-108198504D01*
X176762120Y-108122776D01*
X176816295Y-108112000D01*
X177259705Y-108112000D01*
X177313880Y-108122776D01*
G37*
G36*
X47265880Y-96819776D02*
G01*
X47646593Y-96895504D01*
X48056249Y-97065189D01*
X48424929Y-97311534D01*
X48738466Y-97625071D01*
X48984811Y-97993751D01*
X49154496Y-98403407D01*
X49241000Y-98838296D01*
X49241000Y-99281704D01*
X49154496Y-99716593D01*
X48984811Y-100126249D01*
X48738466Y-100494929D01*
X48424929Y-100808466D01*
X48056249Y-101054811D01*
X47646593Y-101224496D01*
X47265880Y-101300224D01*
X47211705Y-101311000D01*
X46768295Y-101311000D01*
X46714120Y-101300224D01*
X46333407Y-101224496D01*
X45923751Y-101054811D01*
X45555071Y-100808466D01*
X45241534Y-100494929D01*
X44995189Y-100126249D01*
X44825504Y-99716593D01*
X44739000Y-99281704D01*
X44739000Y-98838296D01*
X44825504Y-98403407D01*
X44995189Y-97993751D01*
X45241534Y-97625071D01*
X45555071Y-97311534D01*
X45923751Y-97065189D01*
X46333407Y-96895504D01*
X46714120Y-96819776D01*
X46768295Y-96809000D01*
X47211705Y-96809000D01*
X47265880Y-96819776D01*
G37*
G36*
X85346000Y-99306000D02*
G01*
X83744000Y-99306000D01*
X83744000Y-98204000D01*
X85346000Y-98204000D01*
X85346000Y-99306000D01*
G37*
G36*
X160096000Y-99306000D02*
G01*
X158494000Y-99306000D01*
X158494000Y-98204000D01*
X160096000Y-98204000D01*
X160096000Y-99306000D01*
G37*
G36*
X155196000Y-99306000D02*
G01*
X153594000Y-99306000D01*
X153594000Y-98204000D01*
X155196000Y-98204000D01*
X155196000Y-99306000D01*
G37*
G36*
X125806000Y-99306000D02*
G01*
X124204000Y-99306000D01*
X124204000Y-98204000D01*
X125806000Y-98204000D01*
X125806000Y-99306000D01*
G37*
G36*
X120906000Y-99306000D02*
G01*
X119304000Y-99306000D01*
X119304000Y-98204000D01*
X120906000Y-98204000D01*
X120906000Y-99306000D01*
G37*
G36*
X90246000Y-99306000D02*
G01*
X88644000Y-99306000D01*
X88644000Y-98204000D01*
X90246000Y-98204000D01*
X90246000Y-99306000D01*
G37*
G36*
X160096000Y-96106000D02*
G01*
X158494000Y-96106000D01*
X158494000Y-95004000D01*
X160096000Y-95004000D01*
X160096000Y-96106000D01*
G37*
G36*
X90246000Y-96106000D02*
G01*
X88644000Y-96106000D01*
X88644000Y-95004000D01*
X90246000Y-95004000D01*
X90246000Y-96106000D01*
G37*
G36*
X155196000Y-96106000D02*
G01*
X153594000Y-96106000D01*
X153594000Y-95004000D01*
X155196000Y-95004000D01*
X155196000Y-96106000D01*
G37*
G36*
X125806000Y-96106000D02*
G01*
X124204000Y-96106000D01*
X124204000Y-95004000D01*
X125806000Y-95004000D01*
X125806000Y-96106000D01*
G37*
G36*
X85346000Y-96106000D02*
G01*
X83744000Y-96106000D01*
X83744000Y-95004000D01*
X85346000Y-95004000D01*
X85346000Y-96106000D01*
G37*
G36*
X120906000Y-96106000D02*
G01*
X119304000Y-96106000D01*
X119304000Y-95004000D01*
X120906000Y-95004000D01*
X120906000Y-96106000D01*
G37*
G36*
X119001000Y-51681000D02*
G01*
X117399000Y-51681000D01*
X117399000Y-50579000D01*
X119001000Y-50579000D01*
X119001000Y-51681000D01*
G37*
G36*
X85346000Y-51681000D02*
G01*
X83744000Y-51681000D01*
X83744000Y-50579000D01*
X85346000Y-50579000D01*
X85346000Y-51681000D01*
G37*
G36*
X90246000Y-51681000D02*
G01*
X88644000Y-51681000D01*
X88644000Y-50579000D01*
X90246000Y-50579000D01*
X90246000Y-51681000D01*
G37*
G36*
X160096000Y-51681000D02*
G01*
X158494000Y-51681000D01*
X158494000Y-50579000D01*
X160096000Y-50579000D01*
X160096000Y-51681000D01*
G37*
G36*
X155196000Y-51681000D02*
G01*
X153594000Y-51681000D01*
X153594000Y-50579000D01*
X155196000Y-50579000D01*
X155196000Y-51681000D01*
G37*
G36*
X123901000Y-51681000D02*
G01*
X122299000Y-51681000D01*
X122299000Y-50579000D01*
X123901000Y-50579000D01*
X123901000Y-51681000D01*
G37*
G36*
X73169780Y-45829813D02*
G01*
X73295334Y-45873720D01*
X74101257Y-46247816D01*
X74215833Y-46315373D01*
X74348193Y-46433613D01*
X74454942Y-46575403D01*
X74454943Y-46575405D01*
X74531979Y-46735294D01*
X74561304Y-46848890D01*
X74576341Y-46907139D01*
X74586326Y-47084340D01*
X74561549Y-47260083D01*
X74561548Y-47260085D01*
X74502963Y-47427615D01*
X74412816Y-47580502D01*
X74294580Y-47712859D01*
X74237604Y-47755754D01*
X74152788Y-47819609D01*
X74100799Y-47844657D01*
X73992897Y-47896646D01*
X73821051Y-47941008D01*
X73643850Y-47950994D01*
X73468106Y-47926216D01*
X73342553Y-47882310D01*
X72606796Y-47540783D01*
X72583668Y-47532696D01*
X72559404Y-47529275D01*
X72534939Y-47530653D01*
X72511213Y-47536778D01*
X72489137Y-47547414D01*
X72469561Y-47562153D01*
X72453236Y-47580427D01*
X72440790Y-47601535D01*
X72432702Y-47624666D01*
X72429281Y-47648930D01*
X72433139Y-47685408D01*
X72463925Y-47804663D01*
X72478962Y-47862912D01*
X72488947Y-48040113D01*
X72464170Y-48215856D01*
X72464169Y-48215858D01*
X72405584Y-48383388D01*
X72315437Y-48536275D01*
X72197201Y-48668632D01*
X72140225Y-48711527D01*
X72055409Y-48775382D01*
X72003420Y-48800430D01*
X71895518Y-48852419D01*
X71723672Y-48896781D01*
X71546471Y-48906767D01*
X71370727Y-48881989D01*
X71245174Y-48838083D01*
X70439251Y-48463986D01*
X70439250Y-48463985D01*
X70439247Y-48463984D01*
X70385824Y-48432484D01*
X70324676Y-48396429D01*
X70192316Y-48278190D01*
X70085567Y-48136400D01*
X70039175Y-48040113D01*
X70008529Y-47976507D01*
X69964167Y-47804663D01*
X69959030Y-47713495D01*
X69954182Y-47627463D01*
X69978959Y-47451720D01*
X70004782Y-47377880D01*
X70037545Y-47284188D01*
X70108184Y-47164389D01*
X70127692Y-47131303D01*
X70188821Y-47062873D01*
X70245927Y-46998947D01*
X70245931Y-46998943D01*
X70387721Y-46892194D01*
X70462054Y-46856380D01*
X70547614Y-46815156D01*
X70719458Y-46770794D01*
X70810626Y-46765657D01*
X70896658Y-46760809D01*
X71072401Y-46785586D01*
X71197955Y-46829493D01*
X71933720Y-47171023D01*
X71956840Y-47179107D01*
X71981104Y-47182528D01*
X72005569Y-47181150D01*
X72029295Y-47175025D01*
X72051371Y-47164389D01*
X72070947Y-47149650D01*
X72087272Y-47131376D01*
X72099718Y-47110268D01*
X72107806Y-47087137D01*
X72111227Y-47062873D01*
X72107369Y-47026395D01*
X72061546Y-46848890D01*
X72056409Y-46757722D01*
X72051561Y-46671690D01*
X72076338Y-46495947D01*
X72102161Y-46422107D01*
X72134924Y-46328415D01*
X72204754Y-46209987D01*
X72225071Y-46175530D01*
X72343310Y-46043170D01*
X72485100Y-45936421D01*
X72615237Y-45873720D01*
X72644993Y-45859383D01*
X72816837Y-45815021D01*
X72908005Y-45809884D01*
X72994037Y-45805036D01*
X73169780Y-45829813D01*
G37*
G36*
X160096000Y-48481000D02*
G01*
X158494000Y-48481000D01*
X158494000Y-47379000D01*
X160096000Y-47379000D01*
X160096000Y-48481000D01*
G37*
G36*
X85346000Y-48481000D02*
G01*
X83744000Y-48481000D01*
X83744000Y-47379000D01*
X85346000Y-47379000D01*
X85346000Y-48481000D01*
G37*
G36*
X119001000Y-48481000D02*
G01*
X117399000Y-48481000D01*
X117399000Y-47379000D01*
X119001000Y-47379000D01*
X119001000Y-48481000D01*
G37*
G36*
X155196000Y-48481000D02*
G01*
X153594000Y-48481000D01*
X153594000Y-47379000D01*
X155196000Y-47379000D01*
X155196000Y-48481000D01*
G37*
G36*
X123901000Y-48481000D02*
G01*
X122299000Y-48481000D01*
X122299000Y-47379000D01*
X123901000Y-47379000D01*
X123901000Y-48481000D01*
G37*
G36*
X90246000Y-48481000D02*
G01*
X88644000Y-48481000D01*
X88644000Y-47379000D01*
X90246000Y-47379000D01*
X90246000Y-48481000D01*
G37*
G36*
X67444225Y-45101443D02*
G01*
X67569779Y-45145350D01*
X68375702Y-45519446D01*
X68490278Y-45587003D01*
X68622638Y-45705243D01*
X68729387Y-45847033D01*
X68729388Y-45847035D01*
X68783582Y-45959516D01*
X68806423Y-46006922D01*
X68850786Y-46178769D01*
X68860771Y-46355970D01*
X68835994Y-46531713D01*
X68835993Y-46531715D01*
X68777408Y-46699245D01*
X68687261Y-46852132D01*
X68569025Y-46984489D01*
X68520878Y-47020737D01*
X68427233Y-47091239D01*
X68375244Y-47116287D01*
X68267342Y-47168276D01*
X68130549Y-47203589D01*
X68095496Y-47212638D01*
X67918295Y-47222624D01*
X67742551Y-47197846D01*
X67616998Y-47153940D01*
X66811075Y-46779843D01*
X66811074Y-46779842D01*
X66811071Y-46779841D01*
X66735518Y-46735292D01*
X66696500Y-46712286D01*
X66564140Y-46594047D01*
X66457391Y-46452257D01*
X66397723Y-46328415D01*
X66380353Y-46292364D01*
X66335991Y-46120520D01*
X66330854Y-46029352D01*
X66326006Y-45943320D01*
X66350783Y-45767577D01*
X66383372Y-45674387D01*
X66409369Y-45600045D01*
X66480450Y-45479495D01*
X66499516Y-45447160D01*
X66578946Y-45358244D01*
X66617751Y-45314804D01*
X66617755Y-45314800D01*
X66759545Y-45208051D01*
X66889682Y-45145350D01*
X66919438Y-45131013D01*
X67091282Y-45086651D01*
X67182450Y-45081514D01*
X67268482Y-45076666D01*
X67444225Y-45101443D01*
G37*
G36*
X64723093Y-43838336D02*
G01*
X64848647Y-43882243D01*
X65654570Y-44256339D01*
X65769146Y-44323896D01*
X65901506Y-44442136D01*
X66008255Y-44583926D01*
X66008256Y-44583928D01*
X66085292Y-44743817D01*
X66129654Y-44915662D01*
X66139639Y-45092863D01*
X66114862Y-45268606D01*
X66108795Y-45285955D01*
X66056276Y-45436138D01*
X65966129Y-45589025D01*
X65847893Y-45721382D01*
X65790917Y-45764277D01*
X65706101Y-45828132D01*
X65666871Y-45847033D01*
X65546210Y-45905169D01*
X65374364Y-45949531D01*
X65197163Y-45959517D01*
X65021419Y-45934739D01*
X64895866Y-45890833D01*
X64089943Y-45516736D01*
X64089942Y-45516735D01*
X64089939Y-45516734D01*
X64026780Y-45479493D01*
X63975368Y-45449179D01*
X63948896Y-45425531D01*
X63843012Y-45330944D01*
X63843008Y-45330940D01*
X63736259Y-45189150D01*
X63694001Y-45101443D01*
X63659221Y-45029257D01*
X63614859Y-44857413D01*
X63609153Y-44756143D01*
X63604874Y-44680213D01*
X63629651Y-44504470D01*
X63655474Y-44430630D01*
X63688237Y-44336938D01*
X63762286Y-44211355D01*
X63778384Y-44184053D01*
X63802032Y-44157581D01*
X63896619Y-44051697D01*
X63896623Y-44051693D01*
X64038413Y-43944944D01*
X64112746Y-43909130D01*
X64198306Y-43867906D01*
X64370150Y-43823544D01*
X64461318Y-43818407D01*
X64547350Y-43813559D01*
X64723093Y-43838336D01*
G37*
G36*
X70662951Y-44545148D02*
G01*
X70756574Y-44583928D01*
X70781425Y-44594222D01*
X70888049Y-44665466D01*
X70978726Y-44756143D01*
X71046393Y-44857413D01*
X71049971Y-44862769D01*
X71099044Y-44981241D01*
X71124061Y-45107012D01*
X71124061Y-45235250D01*
X71099044Y-45361021D01*
X71062528Y-45449179D01*
X71049970Y-45479495D01*
X70978726Y-45586119D01*
X70888049Y-45676796D01*
X70781425Y-45748040D01*
X70781424Y-45748041D01*
X70781423Y-45748041D01*
X70662951Y-45797114D01*
X70537180Y-45822131D01*
X70408942Y-45822131D01*
X70283171Y-45797114D01*
X70164699Y-45748041D01*
X70164698Y-45748041D01*
X70164697Y-45748040D01*
X70058073Y-45676796D01*
X69967396Y-45586119D01*
X69896152Y-45479495D01*
X69883595Y-45449179D01*
X69847078Y-45361021D01*
X69822061Y-45235250D01*
X69822061Y-45107012D01*
X69847078Y-44981241D01*
X69896151Y-44862769D01*
X69899730Y-44857413D01*
X69967396Y-44756143D01*
X70058073Y-44665466D01*
X70164697Y-44594222D01*
X70189549Y-44583928D01*
X70283171Y-44545148D01*
X70408942Y-44520131D01*
X70537180Y-44520131D01*
X70662951Y-44545148D01*
G37*
G36*
X73577565Y-41388674D02*
G01*
X73703119Y-41432581D01*
X74509042Y-41806677D01*
X74623618Y-41874234D01*
X74755978Y-41992474D01*
X74862727Y-42134264D01*
X74939763Y-42294153D01*
X74984126Y-42466000D01*
X74994111Y-42643201D01*
X74969334Y-42818944D01*
X74969333Y-42818946D01*
X74910748Y-42986476D01*
X74820601Y-43139363D01*
X74702365Y-43271720D01*
X74697421Y-43275442D01*
X74560573Y-43378470D01*
X74528518Y-43393914D01*
X74395414Y-43458045D01*
X74374488Y-43470794D01*
X74356450Y-43487380D01*
X74341996Y-43507167D01*
X74331679Y-43529393D01*
X74325896Y-43553205D01*
X74324870Y-43577688D01*
X74328640Y-43601900D01*
X74337061Y-43624912D01*
X74349810Y-43645838D01*
X74366396Y-43663876D01*
X74397036Y-43684031D01*
X75132795Y-44025558D01*
X75247371Y-44093115D01*
X75379731Y-44211355D01*
X75486480Y-44353145D01*
X75486481Y-44353147D01*
X75563517Y-44513036D01*
X75581817Y-44583926D01*
X75607879Y-44684881D01*
X75617864Y-44862082D01*
X75593087Y-45037825D01*
X75593086Y-45037827D01*
X75534501Y-45205357D01*
X75444354Y-45358244D01*
X75326118Y-45490601D01*
X75287804Y-45519446D01*
X75184326Y-45597351D01*
X75132337Y-45622399D01*
X75024435Y-45674388D01*
X74852589Y-45718750D01*
X74675388Y-45728736D01*
X74499644Y-45703958D01*
X74374091Y-45660052D01*
X73568168Y-45285955D01*
X73568167Y-45285954D01*
X73568164Y-45285953D01*
X73482172Y-45235249D01*
X73453593Y-45218398D01*
X73355774Y-45131015D01*
X73321237Y-45100163D01*
X73321233Y-45100159D01*
X73214484Y-44958369D01*
X73165843Y-44857413D01*
X73137446Y-44798476D01*
X73093084Y-44626632D01*
X73087083Y-44520131D01*
X73083099Y-44449432D01*
X73107876Y-44273689D01*
X73133699Y-44199849D01*
X73166462Y-44106157D01*
X73256610Y-43953271D01*
X73374844Y-43820916D01*
X73374848Y-43820912D01*
X73516638Y-43714163D01*
X73579169Y-43684035D01*
X73681796Y-43634588D01*
X73702722Y-43621839D01*
X73720760Y-43605253D01*
X73735214Y-43585466D01*
X73745531Y-43563240D01*
X73751314Y-43539428D01*
X73752340Y-43514945D01*
X73748570Y-43490733D01*
X73740149Y-43467721D01*
X73727400Y-43446795D01*
X73710814Y-43428757D01*
X73680174Y-43408602D01*
X72944415Y-43067074D01*
X72944414Y-43067073D01*
X72944411Y-43067072D01*
X72842353Y-43006895D01*
X72829840Y-42999517D01*
X72783164Y-42957821D01*
X72697484Y-42881282D01*
X72697480Y-42881278D01*
X72590731Y-42739488D01*
X72542252Y-42638869D01*
X72513693Y-42579595D01*
X72469331Y-42407751D01*
X72464194Y-42316583D01*
X72459346Y-42230551D01*
X72484123Y-42054808D01*
X72509946Y-41980968D01*
X72542709Y-41887276D01*
X72612539Y-41768848D01*
X72632856Y-41734391D01*
X72668646Y-41694327D01*
X72751091Y-41602035D01*
X72751095Y-41602031D01*
X72892885Y-41495282D01*
X72967218Y-41459468D01*
X73052778Y-41418244D01*
X73224622Y-41373882D01*
X73315790Y-41368745D01*
X73401822Y-41363897D01*
X73577565Y-41388674D01*
G37*
G36*
X71399764Y-42957821D02*
G01*
X71518238Y-43006895D01*
X71608299Y-43067072D01*
X71624862Y-43078139D01*
X71715539Y-43168816D01*
X71786784Y-43275442D01*
X71835857Y-43393914D01*
X71860874Y-43519685D01*
X71860874Y-43647923D01*
X71835857Y-43773694D01*
X71816299Y-43820912D01*
X71786783Y-43892168D01*
X71715539Y-43998792D01*
X71624862Y-44089469D01*
X71518238Y-44160713D01*
X71518237Y-44160714D01*
X71518236Y-44160714D01*
X71399764Y-44209787D01*
X71273993Y-44234804D01*
X71145755Y-44234804D01*
X71019984Y-44209787D01*
X70901512Y-44160714D01*
X70901511Y-44160714D01*
X70901510Y-44160713D01*
X70794886Y-44089469D01*
X70704209Y-43998792D01*
X70632965Y-43892168D01*
X70603450Y-43820912D01*
X70583891Y-43773694D01*
X70558874Y-43647923D01*
X70558874Y-43519685D01*
X70583891Y-43393914D01*
X70632964Y-43275442D01*
X70704209Y-43168816D01*
X70794886Y-43078139D01*
X70811449Y-43067072D01*
X70901510Y-43006895D01*
X71019984Y-42957821D01*
X71145755Y-42932804D01*
X71273993Y-42932804D01*
X71399764Y-42957821D01*
G37*
G36*
X64261755Y-41587577D02*
G01*
X64313643Y-41597898D01*
X64432117Y-41646972D01*
X64538741Y-41718216D01*
X64629418Y-41808893D01*
X64673078Y-41874234D01*
X64700663Y-41915519D01*
X64749736Y-42033991D01*
X64769682Y-42134266D01*
X64774753Y-42159763D01*
X64774753Y-42287999D01*
X64749736Y-42413771D01*
X64700662Y-42532245D01*
X64629418Y-42638869D01*
X64538741Y-42729546D01*
X64432117Y-42800790D01*
X64432116Y-42800791D01*
X64432115Y-42800791D01*
X64313643Y-42849864D01*
X64187872Y-42874881D01*
X64059634Y-42874881D01*
X63933863Y-42849864D01*
X63815391Y-42800791D01*
X63815390Y-42800791D01*
X63815389Y-42800790D01*
X63708765Y-42729546D01*
X63618088Y-42638869D01*
X63546844Y-42532245D01*
X63497770Y-42413771D01*
X63472753Y-42287999D01*
X63472753Y-42159763D01*
X63477825Y-42134266D01*
X63497770Y-42033991D01*
X63546843Y-41915519D01*
X63574429Y-41874234D01*
X63618088Y-41808893D01*
X63708765Y-41718216D01*
X63815389Y-41646972D01*
X63933863Y-41597898D01*
X63985751Y-41587577D01*
X64059634Y-41572881D01*
X64187872Y-41572881D01*
X64261755Y-41587577D01*
G37*
G36*
X69949388Y-39704531D02*
G01*
X70074942Y-39748438D01*
X70880865Y-40122534D01*
X70995441Y-40190091D01*
X71127801Y-40308331D01*
X71234550Y-40450121D01*
X71234551Y-40450123D01*
X71311586Y-40610010D01*
X71355949Y-40781857D01*
X71365934Y-40959058D01*
X71341157Y-41134801D01*
X71341156Y-41134803D01*
X71282571Y-41302333D01*
X71192424Y-41455220D01*
X71074188Y-41587577D01*
X71017212Y-41630472D01*
X70932396Y-41694327D01*
X70880407Y-41719375D01*
X70772505Y-41771364D01*
X70627128Y-41808893D01*
X70600659Y-41815726D01*
X70423458Y-41825712D01*
X70247714Y-41800934D01*
X70122161Y-41757028D01*
X69316238Y-41382931D01*
X69316237Y-41382930D01*
X69316234Y-41382929D01*
X69262811Y-41351429D01*
X69201663Y-41315374D01*
X69069303Y-41197135D01*
X68962554Y-41055345D01*
X68916162Y-40959058D01*
X68885516Y-40895452D01*
X68841154Y-40723608D01*
X68836017Y-40632440D01*
X68831169Y-40546408D01*
X68855946Y-40370665D01*
X68881769Y-40296825D01*
X68914532Y-40203133D01*
X68984362Y-40084705D01*
X69004679Y-40050248D01*
X69122918Y-39917888D01*
X69264708Y-39811139D01*
X69394845Y-39748438D01*
X69424601Y-39734101D01*
X69596445Y-39689739D01*
X69687613Y-39684602D01*
X69773645Y-39679754D01*
X69949388Y-39704531D01*
G37*
G36*
X65050456Y-40010571D02*
G01*
X65146242Y-40050247D01*
X65168930Y-40059645D01*
X65275554Y-40130889D01*
X65366231Y-40221566D01*
X65424206Y-40308331D01*
X65437476Y-40328192D01*
X65486549Y-40446664D01*
X65511566Y-40572435D01*
X65511566Y-40700673D01*
X65486549Y-40826444D01*
X65457964Y-40895455D01*
X65437475Y-40944918D01*
X65366231Y-41051542D01*
X65275554Y-41142219D01*
X65168930Y-41213463D01*
X65168929Y-41213464D01*
X65168928Y-41213464D01*
X65050456Y-41262537D01*
X64924685Y-41287554D01*
X64796447Y-41287554D01*
X64670676Y-41262537D01*
X64552204Y-41213464D01*
X64552203Y-41213464D01*
X64552202Y-41213463D01*
X64445578Y-41142219D01*
X64354901Y-41051542D01*
X64283657Y-40944918D01*
X64263169Y-40895455D01*
X64234583Y-40826444D01*
X64209566Y-40700673D01*
X64209566Y-40572435D01*
X64234583Y-40446664D01*
X64283656Y-40328192D01*
X64296927Y-40308331D01*
X64354901Y-40221566D01*
X64445578Y-40130889D01*
X64552202Y-40059645D01*
X64574891Y-40050247D01*
X64670676Y-40010571D01*
X64796447Y-39985554D01*
X64924685Y-39985554D01*
X65050456Y-40010571D01*
G37*
G36*
X67228256Y-38441424D02*
G01*
X67353810Y-38485331D01*
X68159733Y-38859427D01*
X68274309Y-38926984D01*
X68406669Y-39045224D01*
X68513418Y-39187014D01*
X68590454Y-39346903D01*
X68634817Y-39518750D01*
X68644802Y-39695951D01*
X68620025Y-39871694D01*
X68620024Y-39871696D01*
X68561439Y-40039226D01*
X68471292Y-40192113D01*
X68353056Y-40324470D01*
X68348112Y-40328192D01*
X68211264Y-40431220D01*
X68179209Y-40446664D01*
X68051373Y-40508257D01*
X67879527Y-40552619D01*
X67702326Y-40562605D01*
X67526582Y-40537827D01*
X67401029Y-40493921D01*
X66595106Y-40119824D01*
X66595105Y-40119823D01*
X66595102Y-40119822D01*
X66493044Y-40059645D01*
X66480531Y-40052267D01*
X66433855Y-40010571D01*
X66348175Y-39934032D01*
X66348171Y-39934028D01*
X66241422Y-39792238D01*
X66187227Y-39679755D01*
X66164384Y-39632345D01*
X66120022Y-39460501D01*
X66114885Y-39369333D01*
X66110037Y-39283301D01*
X66134814Y-39107558D01*
X66160637Y-39033718D01*
X66193400Y-38940026D01*
X66283548Y-38787140D01*
X66401782Y-38654785D01*
X66401786Y-38654781D01*
X66543576Y-38548032D01*
X66673713Y-38485331D01*
X66703469Y-38470994D01*
X66875313Y-38426632D01*
X66966481Y-38421495D01*
X67052513Y-38416647D01*
X67228256Y-38441424D01*
G37*
G36*
X77745880Y-23794776D02*
G01*
X78126593Y-23870504D01*
X78536249Y-24040189D01*
X78904929Y-24286534D01*
X79218466Y-24600071D01*
X79464811Y-24968751D01*
X79634496Y-25378407D01*
X79721000Y-25813296D01*
X79721000Y-26256704D01*
X79634496Y-26691593D01*
X79464811Y-27101249D01*
X79218466Y-27469929D01*
X78904929Y-27783466D01*
X78536249Y-28029811D01*
X78126593Y-28199496D01*
X77745880Y-28275224D01*
X77691705Y-28286000D01*
X77248295Y-28286000D01*
X77194120Y-28275224D01*
X76813407Y-28199496D01*
X76403751Y-28029811D01*
X76035071Y-27783466D01*
X75721534Y-27469929D01*
X75475189Y-27101249D01*
X75305504Y-26691593D01*
X75219000Y-26256704D01*
X75219000Y-25813296D01*
X75305504Y-25378407D01*
X75475189Y-24968751D01*
X75721534Y-24600071D01*
X76035071Y-24286534D01*
X76403751Y-24040189D01*
X76813407Y-23870504D01*
X77194120Y-23794776D01*
X77248295Y-23784000D01*
X77691705Y-23784000D01*
X77745880Y-23794776D01*
G37*
G36*
X177281786Y-23794776D02*
G01*
X177662499Y-23870504D01*
X178072155Y-24040189D01*
X178440835Y-24286534D01*
X178754372Y-24600071D01*
X179000717Y-24968751D01*
X179170402Y-25378407D01*
X179256906Y-25813296D01*
X179256906Y-26256704D01*
X179170402Y-26691593D01*
X179000717Y-27101249D01*
X178754372Y-27469929D01*
X178440835Y-27783466D01*
X178072155Y-28029811D01*
X177662499Y-28199496D01*
X177281786Y-28275224D01*
X177227611Y-28286000D01*
X176784201Y-28286000D01*
X176730026Y-28275224D01*
X176349313Y-28199496D01*
X175939657Y-28029811D01*
X175570977Y-27783466D01*
X175257440Y-27469929D01*
X175011095Y-27101249D01*
X174841410Y-26691593D01*
X174754906Y-26256704D01*
X174754906Y-25813296D01*
X174841410Y-25378407D01*
X175011095Y-24968751D01*
X175257440Y-24600071D01*
X175570977Y-24286534D01*
X175939657Y-24040189D01*
X176349313Y-23870504D01*
X176730026Y-23794776D01*
X176784201Y-23784000D01*
X177227611Y-23784000D01*
X177281786Y-23794776D01*
G37*
M02*
