M48
; DRILL file {KiCad 5.1.5+dfsg1-2build2} date 2021年03月23日 21時18分22秒
; FORMAT={-:-/ absolute / inch / decimal}
; #@! TF.CreationDate,2021-03-23T21:18:22+09:00
; #@! TF.GenerationSoftware,Kicad,Pcbnew,5.1.5+dfsg1-2build2
FMAT,2
INCH
T1C0.0157
T2C0.0394
T3C0.0866
T4C0.0472
%
G90
G05
T1
X1.3917Y-4.8425
X1.4108Y-4.7966
X1.4108Y-4.8885
X1.4567Y-4.7776
X1.4567Y-4.9075
X1.5026Y-4.7966
X1.5026Y-4.8885
X1.5217Y-4.8425
X1.3917Y-1.5256
X1.4108Y-1.4797
X1.4108Y-1.5715
X1.4567Y-1.4606
X1.4567Y-1.5906
X1.5026Y-1.4797
X1.5026Y-1.5715
X1.5217Y-1.5256
X6.5098Y-1.9685
X6.5289Y-1.9226
X6.5289Y-2.0144
X6.5748Y-1.9035
X6.5748Y-2.0335
X6.6207Y-1.9226
X6.6207Y-2.0144
X6.6398Y-1.9685
X5.3091Y-4.8425
X5.3281Y-4.7966
X5.3281Y-4.8885
X5.374Y-4.7776
X5.374Y-4.9075
X5.4199Y-4.7966
X5.4199Y-4.8885
X5.439Y-4.8425
T3
X1.4567Y-4.8425
X1.4567Y-1.5256
X6.5748Y-1.9685
X5.374Y-4.8425
T4
X5.6217Y-4.1502
X5.6507Y-4.0878
X5.8716Y-4.2663
X5.9006Y-4.2038
T2
G00X5.5069Y-4.1122
M15
G01X5.4891Y-4.1039
M16
G05
G00X5.5315Y-4.1995
M15
G01X5.5136Y-4.1913
M16
G05
G00X5.5476Y-4.0247
M15
G01X5.5297Y-4.0164
M16
G05
G00X5.6301Y-3.9871
M15
G01X5.6123Y-3.9788
M16
G05
G00X5.6743Y-4.2658
M15
G01X5.6565Y-4.2576
M16
G05
G00X5.773Y-4.0534
M15
G01X5.7551Y-4.0451
M16
G05
G00X5.7815Y-4.3156
M15
G01X5.7636Y-4.3073
M16
G05
G00X5.8801Y-4.1031
M15
G01X5.8622Y-4.0948
M16
G05
T0
M30
