G04 #@! TF.GenerationSoftware,KiCad,Pcbnew,5.1.5+dfsg1-2build2*
G04 #@! TF.CreationDate,2021-01-30T19:33:43+09:00*
G04 #@! TF.ProjectId,rest,72657374-2e6b-4696-9361-645f70636258,rev?*
G04 #@! TF.SameCoordinates,Original*
G04 #@! TF.FileFunction,Legend,Top*
G04 #@! TF.FilePolarity,Positive*
%FSLAX46Y46*%
G04 Gerber Fmt 4.6, Leading zero omitted, Abs format (unit mm)*
G04 Created by KiCad (PCBNEW 5.1.5+dfsg1-2build2) date 2021-01-30 19:33:43*
%MOMM*%
%LPD*%
G04 APERTURE LIST*
%ADD10C,0.500000*%
%ADD11C,0.120000*%
%ADD12C,0.150000*%
G04 APERTURE END LIST*
D10*
X68580000Y-93345000D02*
X68580000Y-53340000D01*
X173990000Y-93345000D02*
X68580000Y-93345000D01*
X173990000Y-53340000D02*
X173990000Y-93345000D01*
X68580000Y-53340000D02*
X173990000Y-53340000D01*
D11*
X197485000Y-66675000D02*
X196850000Y-66675000D01*
X90645000Y-52280000D02*
X83345000Y-52280000D01*
X90645000Y-46780000D02*
X83345000Y-46780000D01*
X83345000Y-46780000D02*
X83345000Y-47930000D01*
X117000000Y-46780000D02*
X117000000Y-47930000D01*
X124300000Y-46780000D02*
X117000000Y-46780000D01*
X124300000Y-52280000D02*
X117000000Y-52280000D01*
X153195000Y-46780000D02*
X153195000Y-47930000D01*
X160495000Y-46780000D02*
X153195000Y-46780000D01*
X160495000Y-52280000D02*
X153195000Y-52280000D01*
X153195000Y-94405000D02*
X160495000Y-94405000D01*
X153195000Y-99905000D02*
X160495000Y-99905000D01*
X160495000Y-99905000D02*
X160495000Y-98755000D01*
X126205000Y-99905000D02*
X126205000Y-98755000D01*
X118905000Y-99905000D02*
X126205000Y-99905000D01*
X118905000Y-94405000D02*
X126205000Y-94405000D01*
X90645000Y-99905000D02*
X90645000Y-98755000D01*
X83345000Y-99905000D02*
X90645000Y-99905000D01*
X83345000Y-94405000D02*
X90645000Y-94405000D01*
D12*
X73121421Y-47778562D02*
X62236893Y-42726132D01*
X75647636Y-42336298D02*
X73121421Y-47778562D01*
X64763107Y-37283868D02*
X75647636Y-42336298D01*
X62236893Y-42726132D02*
X64763107Y-37283868D01*
X86256904Y-46172380D02*
X86256904Y-45172380D01*
X86495000Y-45172380D01*
X86637857Y-45220000D01*
X86733095Y-45315238D01*
X86780714Y-45410476D01*
X86828333Y-45600952D01*
X86828333Y-45743809D01*
X86780714Y-45934285D01*
X86733095Y-46029523D01*
X86637857Y-46124761D01*
X86495000Y-46172380D01*
X86256904Y-46172380D01*
X87780714Y-46172380D02*
X87209285Y-46172380D01*
X87495000Y-46172380D02*
X87495000Y-45172380D01*
X87399761Y-45315238D01*
X87304523Y-45410476D01*
X87209285Y-45458095D01*
X119911904Y-46172380D02*
X119911904Y-45172380D01*
X120150000Y-45172380D01*
X120292857Y-45220000D01*
X120388095Y-45315238D01*
X120435714Y-45410476D01*
X120483333Y-45600952D01*
X120483333Y-45743809D01*
X120435714Y-45934285D01*
X120388095Y-46029523D01*
X120292857Y-46124761D01*
X120150000Y-46172380D01*
X119911904Y-46172380D01*
X120864285Y-45267619D02*
X120911904Y-45220000D01*
X121007142Y-45172380D01*
X121245238Y-45172380D01*
X121340476Y-45220000D01*
X121388095Y-45267619D01*
X121435714Y-45362857D01*
X121435714Y-45458095D01*
X121388095Y-45600952D01*
X120816666Y-46172380D01*
X121435714Y-46172380D01*
X156106904Y-46172380D02*
X156106904Y-45172380D01*
X156345000Y-45172380D01*
X156487857Y-45220000D01*
X156583095Y-45315238D01*
X156630714Y-45410476D01*
X156678333Y-45600952D01*
X156678333Y-45743809D01*
X156630714Y-45934285D01*
X156583095Y-46029523D01*
X156487857Y-46124761D01*
X156345000Y-46172380D01*
X156106904Y-46172380D01*
X157011666Y-45172380D02*
X157630714Y-45172380D01*
X157297380Y-45553333D01*
X157440238Y-45553333D01*
X157535476Y-45600952D01*
X157583095Y-45648571D01*
X157630714Y-45743809D01*
X157630714Y-45981904D01*
X157583095Y-46077142D01*
X157535476Y-46124761D01*
X157440238Y-46172380D01*
X157154523Y-46172380D01*
X157059285Y-46124761D01*
X157011666Y-46077142D01*
X156106904Y-101417380D02*
X156106904Y-100417380D01*
X156345000Y-100417380D01*
X156487857Y-100465000D01*
X156583095Y-100560238D01*
X156630714Y-100655476D01*
X156678333Y-100845952D01*
X156678333Y-100988809D01*
X156630714Y-101179285D01*
X156583095Y-101274523D01*
X156487857Y-101369761D01*
X156345000Y-101417380D01*
X156106904Y-101417380D01*
X157535476Y-100750714D02*
X157535476Y-101417380D01*
X157297380Y-100369761D02*
X157059285Y-101084047D01*
X157678333Y-101084047D01*
X121816904Y-101417380D02*
X121816904Y-100417380D01*
X122055000Y-100417380D01*
X122197857Y-100465000D01*
X122293095Y-100560238D01*
X122340714Y-100655476D01*
X122388333Y-100845952D01*
X122388333Y-100988809D01*
X122340714Y-101179285D01*
X122293095Y-101274523D01*
X122197857Y-101369761D01*
X122055000Y-101417380D01*
X121816904Y-101417380D01*
X123293095Y-100417380D02*
X122816904Y-100417380D01*
X122769285Y-100893571D01*
X122816904Y-100845952D01*
X122912142Y-100798333D01*
X123150238Y-100798333D01*
X123245476Y-100845952D01*
X123293095Y-100893571D01*
X123340714Y-100988809D01*
X123340714Y-101226904D01*
X123293095Y-101322142D01*
X123245476Y-101369761D01*
X123150238Y-101417380D01*
X122912142Y-101417380D01*
X122816904Y-101369761D01*
X122769285Y-101322142D01*
X86256904Y-101417380D02*
X86256904Y-100417380D01*
X86495000Y-100417380D01*
X86637857Y-100465000D01*
X86733095Y-100560238D01*
X86780714Y-100655476D01*
X86828333Y-100845952D01*
X86828333Y-100988809D01*
X86780714Y-101179285D01*
X86733095Y-101274523D01*
X86637857Y-101369761D01*
X86495000Y-101417380D01*
X86256904Y-101417380D01*
X87685476Y-100417380D02*
X87495000Y-100417380D01*
X87399761Y-100465000D01*
X87352142Y-100512619D01*
X87256904Y-100655476D01*
X87209285Y-100845952D01*
X87209285Y-101226904D01*
X87256904Y-101322142D01*
X87304523Y-101369761D01*
X87399761Y-101417380D01*
X87590238Y-101417380D01*
X87685476Y-101369761D01*
X87733095Y-101322142D01*
X87780714Y-101226904D01*
X87780714Y-100988809D01*
X87733095Y-100893571D01*
X87685476Y-100845952D01*
X87590238Y-100798333D01*
X87399761Y-100798333D01*
X87304523Y-100845952D01*
X87256904Y-100893571D01*
X87209285Y-100988809D01*
X67667099Y-42162424D02*
X68185409Y-42403016D01*
X67505218Y-43189764D02*
X67926254Y-42282720D01*
X68585032Y-43690997D02*
X68483178Y-43118726D01*
X68066722Y-43450405D02*
X68487757Y-42543361D01*
X68833298Y-42703756D01*
X68899634Y-42787047D01*
X68922777Y-42850289D01*
X68925871Y-42956723D01*
X68865723Y-43086301D01*
X68782432Y-43152637D01*
X68719190Y-43175780D01*
X68612755Y-43178874D01*
X68267215Y-43018479D01*
X69492076Y-44112033D02*
X69390222Y-43539762D01*
X68973766Y-43871441D02*
X69394801Y-42964397D01*
X69740342Y-43124791D01*
X69806678Y-43208083D01*
X69829821Y-43271325D01*
X69832915Y-43377759D01*
X69772767Y-43507337D01*
X69689476Y-43573673D01*
X69626234Y-43596816D01*
X69519799Y-43599910D01*
X69174259Y-43439515D01*
X69857666Y-44229235D02*
X69967195Y-44332575D01*
X70183158Y-44432822D01*
X70289592Y-44429728D01*
X70352834Y-44406585D01*
X70436125Y-44340249D01*
X70476224Y-44253864D01*
X70473130Y-44147429D01*
X70449987Y-44084187D01*
X70383651Y-44000896D01*
X70230930Y-43877506D01*
X70164594Y-43794215D01*
X70141451Y-43730973D01*
X70138357Y-43624539D01*
X70178456Y-43538154D01*
X70261747Y-43471818D01*
X70324989Y-43448675D01*
X70431423Y-43445581D01*
X70647386Y-43545827D01*
X70756914Y-43649168D01*
M02*
