G04 #@! TF.GenerationSoftware,KiCad,Pcbnew,5.1.5+dfsg1-2build2*
G04 #@! TF.CreationDate,2021-01-30T19:33:43+09:00*
G04 #@! TF.ProjectId,rest,72657374-2e6b-4696-9361-645f70636258,rev?*
G04 #@! TF.SameCoordinates,Original*
G04 #@! TF.FileFunction,Copper,L1,Top*
G04 #@! TF.FilePolarity,Positive*
%FSLAX46Y46*%
G04 Gerber Fmt 4.6, Leading zero omitted, Abs format (unit mm)*
G04 Created by KiCad (PCBNEW 5.1.5+dfsg1-2build2) date 2021-01-30 19:33:43*
%MOMM*%
%LPD*%
G04 APERTURE LIST*
%ADD10C,4.400000*%
%ADD11C,0.700000*%
%ADD12R,1.500000X1.000000*%
%ADD13C,1.700000*%
%ADD14C,0.500000*%
%ADD15C,0.250000*%
%ADD16C,0.254000*%
G04 APERTURE END LIST*
D10*
X77470000Y-26035000D03*
D11*
X79120000Y-26035000D03*
X78636726Y-27201726D03*
X77470000Y-27685000D03*
X76303274Y-27201726D03*
X75820000Y-26035000D03*
X76303274Y-24868274D03*
X77470000Y-24385000D03*
X78636726Y-24868274D03*
D10*
X177005906Y-26035000D03*
D11*
X178655906Y-26035000D03*
X178172632Y-27201726D03*
X177005906Y-27685000D03*
X175839180Y-27201726D03*
X175355906Y-26035000D03*
X175839180Y-24868274D03*
X177005906Y-24385000D03*
X178172632Y-24868274D03*
D10*
X177038000Y-110363000D03*
D11*
X178688000Y-110363000D03*
X178204726Y-111529726D03*
X177038000Y-112013000D03*
X175871274Y-111529726D03*
X175388000Y-110363000D03*
X175871274Y-109196274D03*
X177038000Y-108713000D03*
X178204726Y-109196274D03*
X48156726Y-97893274D03*
X46990000Y-97410000D03*
X45823274Y-97893274D03*
X45340000Y-99060000D03*
X45823274Y-100226726D03*
X46990000Y-100710000D03*
X48156726Y-100226726D03*
X48640000Y-99060000D03*
D10*
X46990000Y-99060000D03*
D12*
X84545000Y-47930000D03*
X84545000Y-51130000D03*
X89445000Y-47930000D03*
X89445000Y-51130000D03*
X123100000Y-51130000D03*
X123100000Y-47930000D03*
X118200000Y-51130000D03*
X118200000Y-47930000D03*
X159295000Y-51130000D03*
X159295000Y-47930000D03*
X154395000Y-51130000D03*
X154395000Y-47930000D03*
X159295000Y-98755000D03*
X159295000Y-95555000D03*
X154395000Y-98755000D03*
X154395000Y-95555000D03*
X120105000Y-95555000D03*
X120105000Y-98755000D03*
X125005000Y-95555000D03*
X125005000Y-98755000D03*
X84545000Y-95555000D03*
X84545000Y-98755000D03*
X89445000Y-95555000D03*
X89445000Y-98755000D03*
D13*
X72956126Y-46709601D02*
X73681762Y-47046429D01*
X73363911Y-42268462D02*
X74089547Y-42605290D01*
X69735734Y-40584319D02*
X70461370Y-40921147D01*
X67014602Y-39321212D02*
X67740238Y-39658040D01*
X67230571Y-45981231D02*
X67956207Y-46318059D01*
X64509439Y-44718124D02*
X65235075Y-45054952D01*
X73987664Y-44487343D02*
X74713300Y-44824171D01*
X70858747Y-47665374D02*
X71584383Y-48002202D01*
D14*
X73318944Y-45687295D02*
X74350482Y-44655757D01*
X73318944Y-46878015D02*
X73318944Y-45687295D01*
X73318944Y-47815125D02*
X73318944Y-46878015D01*
X73433819Y-47930000D02*
X73318944Y-47815125D01*
X84545000Y-47930000D02*
X73433819Y-47930000D01*
X119450000Y-47930000D02*
X118200000Y-47930000D01*
X120400001Y-46979999D02*
X119450000Y-47930000D01*
X152194999Y-46979999D02*
X120400001Y-46979999D01*
X153145000Y-47930000D02*
X152194999Y-46979999D01*
X154395000Y-47930000D02*
X153145000Y-47930000D01*
X160545000Y-98755000D02*
X159295000Y-98755000D01*
X160945011Y-47520009D02*
X160945011Y-98354989D01*
X156595001Y-46979999D02*
X160405001Y-46979999D01*
X160405001Y-46979999D02*
X160945011Y-47520009D01*
X155645000Y-47930000D02*
X156595001Y-46979999D01*
X160945011Y-98354989D02*
X160545000Y-98755000D01*
X154395000Y-47930000D02*
X155645000Y-47930000D01*
X126255000Y-98755000D02*
X125005000Y-98755000D01*
X127205001Y-99705001D02*
X126255000Y-98755000D01*
X157094999Y-99705001D02*
X127205001Y-99705001D01*
X158045000Y-98755000D02*
X157094999Y-99705001D01*
X159295000Y-98755000D02*
X158045000Y-98755000D01*
X122804999Y-99705001D02*
X123755000Y-98755000D01*
X91645001Y-99705001D02*
X122804999Y-99705001D01*
X90695000Y-98755000D02*
X91645001Y-99705001D01*
X123755000Y-98755000D02*
X125005000Y-98755000D01*
X89445000Y-98755000D02*
X90695000Y-98755000D01*
X116950000Y-47930000D02*
X118200000Y-47930000D01*
X86745001Y-46979999D02*
X115999999Y-46979999D01*
X85795000Y-47930000D02*
X86745001Y-46979999D01*
X115999999Y-46979999D02*
X116950000Y-47930000D01*
X84545000Y-47930000D02*
X85795000Y-47930000D01*
D15*
X83545000Y-51130000D02*
X84545000Y-51130000D01*
X71636634Y-51130000D02*
X83545000Y-51130000D01*
X67593389Y-47086755D02*
X71636634Y-51130000D01*
X67593389Y-46149645D02*
X67593389Y-47086755D01*
X67593389Y-43257896D02*
X70098552Y-40752733D01*
X67593389Y-46149645D02*
X67593389Y-43257896D01*
X89445000Y-48680000D02*
X89445000Y-47930000D01*
X91895000Y-51130000D02*
X89445000Y-48680000D01*
X118200000Y-51130000D02*
X91895000Y-51130000D01*
D14*
X73086707Y-43076898D02*
X73726729Y-42436876D01*
X73086707Y-43206320D02*
X73086707Y-43076898D01*
X71659222Y-44633805D02*
X73086707Y-43206320D01*
X71221565Y-47523435D02*
X71659222Y-47085778D01*
X71659222Y-47085778D02*
X71659222Y-44633805D01*
X71221565Y-47833788D02*
X71221565Y-47523435D01*
X88195000Y-51130000D02*
X89445000Y-51130000D01*
X87244999Y-50179999D02*
X88195000Y-51130000D01*
X72630666Y-50179999D02*
X87244999Y-50179999D01*
X71221565Y-48770898D02*
X72630666Y-50179999D01*
X71221565Y-47833788D02*
X71221565Y-48770898D01*
X121355000Y-95555000D02*
X120105000Y-95555000D01*
X152194999Y-94604999D02*
X122305001Y-94604999D01*
X153145000Y-95555000D02*
X152194999Y-94604999D01*
X122305001Y-94604999D02*
X121355000Y-95555000D01*
X154395000Y-95555000D02*
X153145000Y-95555000D01*
X85795000Y-95555000D02*
X84545000Y-95555000D01*
X86745001Y-94604999D02*
X85795000Y-95555000D01*
X117904999Y-94604999D02*
X86745001Y-94604999D01*
X118855000Y-95555000D02*
X117904999Y-94604999D01*
X120105000Y-95555000D02*
X118855000Y-95555000D01*
X121850000Y-51130000D02*
X123100000Y-51130000D01*
X120850000Y-52130000D02*
X121850000Y-51130000D01*
X90695000Y-52130000D02*
X120850000Y-52130000D01*
X89695000Y-51130000D02*
X90695000Y-52130000D01*
X89445000Y-51130000D02*
X89695000Y-51130000D01*
X159295000Y-51130000D02*
X159045000Y-51130000D01*
X158104999Y-52080001D02*
X158115000Y-52070000D01*
X125300001Y-52080001D02*
X158104999Y-52080001D01*
X124350000Y-51130000D02*
X125300001Y-52080001D01*
X123100000Y-51130000D02*
X124350000Y-51130000D01*
X159045000Y-51130000D02*
X158115000Y-52070000D01*
X159295000Y-52130000D02*
X159295000Y-51130000D01*
X159295000Y-91905000D02*
X159295000Y-52130000D01*
X155645000Y-95555000D02*
X159295000Y-91905000D01*
X154395000Y-95555000D02*
X155645000Y-95555000D01*
D15*
X123100000Y-48680000D02*
X123100000Y-47930000D01*
X125550000Y-51130000D02*
X123100000Y-48680000D01*
X154395000Y-51130000D02*
X125550000Y-51130000D01*
X160370001Y-49755001D02*
X160370001Y-93629999D01*
X159295000Y-48680000D02*
X160370001Y-49755001D01*
X159295000Y-47930000D02*
X159295000Y-48680000D01*
X159295000Y-94705000D02*
X159295000Y-95555000D01*
X160370001Y-93629999D02*
X159295000Y-94705000D01*
X154395000Y-98005000D02*
X154395000Y-98755000D01*
X151945000Y-95555000D02*
X154395000Y-98005000D01*
X125005000Y-95555000D02*
X151945000Y-95555000D01*
X120105000Y-98005000D02*
X120105000Y-98755000D01*
X117655000Y-95555000D02*
X120105000Y-98005000D01*
X89445000Y-95555000D02*
X117655000Y-95555000D01*
X67377420Y-40426736D02*
X67377420Y-39489626D01*
X67377420Y-41444265D02*
X67377420Y-40426736D01*
X64872257Y-43949428D02*
X67377420Y-41444265D01*
X64872257Y-44886538D02*
X64872257Y-43949428D01*
D16*
G36*
X183288000Y-26371594D02*
G01*
X183288001Y-110060775D01*
X176697010Y-116720251D01*
X71041404Y-117494885D01*
X58070320Y-110083777D01*
X174203000Y-110083777D01*
X174203000Y-110642223D01*
X174311948Y-111189939D01*
X174525656Y-111705876D01*
X174835912Y-112170207D01*
X175230793Y-112565088D01*
X175695124Y-112875344D01*
X176211061Y-113089052D01*
X176758777Y-113198000D01*
X177317223Y-113198000D01*
X177864939Y-113089052D01*
X178380876Y-112875344D01*
X178845207Y-112565088D01*
X179240088Y-112170207D01*
X179550344Y-111705876D01*
X179764052Y-111189939D01*
X179873000Y-110642223D01*
X179873000Y-110083777D01*
X179764052Y-109536061D01*
X179550344Y-109020124D01*
X179240088Y-108555793D01*
X178845207Y-108160912D01*
X178380876Y-107850656D01*
X177864939Y-107636948D01*
X177317223Y-107528000D01*
X176758777Y-107528000D01*
X176211061Y-107636948D01*
X175695124Y-107850656D01*
X175230793Y-108160912D01*
X174835912Y-108555793D01*
X174525656Y-109020124D01*
X174311948Y-109536061D01*
X174203000Y-110083777D01*
X58070320Y-110083777D01*
X41901046Y-100845364D01*
X42642844Y-98780777D01*
X44155000Y-98780777D01*
X44155000Y-99339223D01*
X44263948Y-99886939D01*
X44477656Y-100402876D01*
X44787912Y-100867207D01*
X45182793Y-101262088D01*
X45647124Y-101572344D01*
X46163061Y-101786052D01*
X46710777Y-101895000D01*
X47269223Y-101895000D01*
X47816939Y-101786052D01*
X48332876Y-101572344D01*
X48797207Y-101262088D01*
X49192088Y-100867207D01*
X49502344Y-100402876D01*
X49716052Y-99886939D01*
X49825000Y-99339223D01*
X49825000Y-98780777D01*
X49720416Y-98255000D01*
X83156928Y-98255000D01*
X83156928Y-99255000D01*
X83169188Y-99379482D01*
X83205498Y-99499180D01*
X83264463Y-99609494D01*
X83343815Y-99706185D01*
X83440506Y-99785537D01*
X83550820Y-99844502D01*
X83670518Y-99880812D01*
X83795000Y-99893072D01*
X85295000Y-99893072D01*
X85419482Y-99880812D01*
X85539180Y-99844502D01*
X85649494Y-99785537D01*
X85746185Y-99706185D01*
X85825537Y-99609494D01*
X85884502Y-99499180D01*
X85920812Y-99379482D01*
X85933072Y-99255000D01*
X88056928Y-99255000D01*
X88069188Y-99379482D01*
X88105498Y-99499180D01*
X88164463Y-99609494D01*
X88243815Y-99706185D01*
X88340506Y-99785537D01*
X88450820Y-99844502D01*
X88570518Y-99880812D01*
X88695000Y-99893072D01*
X89159250Y-99890000D01*
X89318000Y-99731250D01*
X89318000Y-98882000D01*
X89572000Y-98882000D01*
X89572000Y-99731250D01*
X89730750Y-99890000D01*
X90195000Y-99893072D01*
X90319482Y-99880812D01*
X90439180Y-99844502D01*
X90549494Y-99785537D01*
X90646185Y-99706185D01*
X90725537Y-99609494D01*
X90784502Y-99499180D01*
X90820812Y-99379482D01*
X90833072Y-99255000D01*
X90830000Y-99040750D01*
X90671250Y-98882000D01*
X89572000Y-98882000D01*
X89318000Y-98882000D01*
X88218750Y-98882000D01*
X88060000Y-99040750D01*
X88056928Y-99255000D01*
X85933072Y-99255000D01*
X85933072Y-98255000D01*
X88056928Y-98255000D01*
X88060000Y-98469250D01*
X88218750Y-98628000D01*
X89318000Y-98628000D01*
X89318000Y-97778750D01*
X89572000Y-97778750D01*
X89572000Y-98628000D01*
X90671250Y-98628000D01*
X90830000Y-98469250D01*
X90833072Y-98255000D01*
X90820812Y-98130518D01*
X90784502Y-98010820D01*
X90725537Y-97900506D01*
X90646185Y-97803815D01*
X90549494Y-97724463D01*
X90439180Y-97665498D01*
X90319482Y-97629188D01*
X90195000Y-97616928D01*
X89730750Y-97620000D01*
X89572000Y-97778750D01*
X89318000Y-97778750D01*
X89159250Y-97620000D01*
X88695000Y-97616928D01*
X88570518Y-97629188D01*
X88450820Y-97665498D01*
X88340506Y-97724463D01*
X88243815Y-97803815D01*
X88164463Y-97900506D01*
X88105498Y-98010820D01*
X88069188Y-98130518D01*
X88056928Y-98255000D01*
X85933072Y-98255000D01*
X85920812Y-98130518D01*
X85884502Y-98010820D01*
X85825537Y-97900506D01*
X85746185Y-97803815D01*
X85649494Y-97724463D01*
X85539180Y-97665498D01*
X85419482Y-97629188D01*
X85295000Y-97616928D01*
X83795000Y-97616928D01*
X83670518Y-97629188D01*
X83550820Y-97665498D01*
X83440506Y-97724463D01*
X83343815Y-97803815D01*
X83264463Y-97900506D01*
X83205498Y-98010820D01*
X83169188Y-98130518D01*
X83156928Y-98255000D01*
X49720416Y-98255000D01*
X49716052Y-98233061D01*
X49502344Y-97717124D01*
X49192088Y-97252793D01*
X48797207Y-96857912D01*
X48332876Y-96547656D01*
X47816939Y-96333948D01*
X47269223Y-96225000D01*
X46710777Y-96225000D01*
X46163061Y-96333948D01*
X45647124Y-96547656D01*
X45182793Y-96857912D01*
X44787912Y-97252793D01*
X44477656Y-97717124D01*
X44263948Y-98233061D01*
X44155000Y-98780777D01*
X42642844Y-98780777D01*
X61852621Y-45315797D01*
X63022128Y-42791535D01*
X63029310Y-42808873D01*
X63164466Y-43011148D01*
X63336486Y-43183168D01*
X63538761Y-43318324D01*
X63763517Y-43411421D01*
X63789548Y-43416599D01*
X63733108Y-43443792D01*
X63499414Y-43619733D01*
X63304536Y-43837884D01*
X63155961Y-44089863D01*
X63059400Y-44365985D01*
X63018564Y-44655640D01*
X63035020Y-44947696D01*
X63108138Y-45230929D01*
X63235107Y-45494455D01*
X63411048Y-45728149D01*
X63629199Y-45923027D01*
X63818034Y-46034370D01*
X64676006Y-46432627D01*
X64882935Y-46504991D01*
X65172589Y-46545827D01*
X65464646Y-46529371D01*
X65747879Y-46456253D01*
X65811592Y-46425556D01*
X65829270Y-46494036D01*
X65956239Y-46757562D01*
X66132180Y-46991256D01*
X66350331Y-47186134D01*
X66539166Y-47297477D01*
X66944947Y-47485834D01*
X66958415Y-47511031D01*
X67025186Y-47592391D01*
X67053389Y-47626756D01*
X67082387Y-47650554D01*
X71072835Y-51641003D01*
X71096633Y-51670001D01*
X71125631Y-51693799D01*
X71212357Y-51764974D01*
X71344387Y-51835546D01*
X71487648Y-51879003D01*
X71599301Y-51890000D01*
X71599311Y-51890000D01*
X71636634Y-51893676D01*
X71673957Y-51890000D01*
X83213954Y-51890000D01*
X83264463Y-51984494D01*
X83343815Y-52081185D01*
X83440506Y-52160537D01*
X83550820Y-52219502D01*
X83670518Y-52255812D01*
X83795000Y-52268072D01*
X85295000Y-52268072D01*
X85419482Y-52255812D01*
X85539180Y-52219502D01*
X85649494Y-52160537D01*
X85746185Y-52081185D01*
X85825537Y-51984494D01*
X85884502Y-51874180D01*
X85920812Y-51754482D01*
X85933072Y-51630000D01*
X85933072Y-51064999D01*
X86878421Y-51064999D01*
X87538468Y-51725047D01*
X87566183Y-51758817D01*
X87599951Y-51786530D01*
X87599953Y-51786532D01*
X87659677Y-51835546D01*
X87700941Y-51869411D01*
X87854687Y-51951589D01*
X88021510Y-52002195D01*
X88151523Y-52015000D01*
X88151533Y-52015000D01*
X88192837Y-52019068D01*
X88243815Y-52081185D01*
X88340506Y-52160537D01*
X88450820Y-52219502D01*
X88570518Y-52255812D01*
X88695000Y-52268072D01*
X89581493Y-52268072D01*
X90038470Y-52725049D01*
X90066183Y-52758817D01*
X90099951Y-52786530D01*
X90099953Y-52786532D01*
X90200941Y-52869411D01*
X90354686Y-52951589D01*
X90521510Y-53002195D01*
X90651523Y-53015000D01*
X90651531Y-53015000D01*
X90695000Y-53019281D01*
X90738469Y-53015000D01*
X120806531Y-53015000D01*
X120850000Y-53019281D01*
X120893469Y-53015000D01*
X120893477Y-53015000D01*
X121023490Y-53002195D01*
X121190313Y-52951589D01*
X121344059Y-52869411D01*
X121478817Y-52758817D01*
X121506534Y-52725044D01*
X122044730Y-52186848D01*
X122105820Y-52219502D01*
X122225518Y-52255812D01*
X122350000Y-52268072D01*
X123850000Y-52268072D01*
X123974482Y-52255812D01*
X124094180Y-52219502D01*
X124155270Y-52186848D01*
X124643471Y-52675050D01*
X124671184Y-52708818D01*
X124704952Y-52736531D01*
X124704954Y-52736533D01*
X124732107Y-52758817D01*
X124805942Y-52819412D01*
X124959688Y-52901590D01*
X125126511Y-52952196D01*
X125256524Y-52965001D01*
X125256534Y-52965001D01*
X125300000Y-52969282D01*
X125343466Y-52965001D01*
X158061530Y-52965001D01*
X158104999Y-52969282D01*
X158148468Y-52965001D01*
X158148476Y-52965001D01*
X158278489Y-52952196D01*
X158410001Y-52912302D01*
X158410000Y-91538421D01*
X155450270Y-94498152D01*
X155389180Y-94465498D01*
X155269482Y-94429188D01*
X155145000Y-94416928D01*
X153645000Y-94416928D01*
X153520518Y-94429188D01*
X153400820Y-94465498D01*
X153339730Y-94498152D01*
X152851533Y-94009955D01*
X152823816Y-93976182D01*
X152689058Y-93865588D01*
X152535312Y-93783410D01*
X152368489Y-93732804D01*
X152238476Y-93719999D01*
X152238468Y-93719999D01*
X152194999Y-93715718D01*
X152151530Y-93719999D01*
X122348466Y-93719999D01*
X122305000Y-93715718D01*
X122261534Y-93719999D01*
X122261524Y-93719999D01*
X122131511Y-93732804D01*
X121964688Y-93783410D01*
X121810942Y-93865588D01*
X121810940Y-93865589D01*
X121810941Y-93865589D01*
X121709954Y-93948467D01*
X121709952Y-93948469D01*
X121676184Y-93976182D01*
X121648471Y-94009950D01*
X121160270Y-94498152D01*
X121099180Y-94465498D01*
X120979482Y-94429188D01*
X120855000Y-94416928D01*
X119355000Y-94416928D01*
X119230518Y-94429188D01*
X119110820Y-94465498D01*
X119049730Y-94498152D01*
X118561533Y-94009955D01*
X118533816Y-93976182D01*
X118399058Y-93865588D01*
X118245312Y-93783410D01*
X118078489Y-93732804D01*
X117948476Y-93719999D01*
X117948468Y-93719999D01*
X117904999Y-93715718D01*
X117861530Y-93719999D01*
X86788466Y-93719999D01*
X86745000Y-93715718D01*
X86701534Y-93719999D01*
X86701524Y-93719999D01*
X86571511Y-93732804D01*
X86404688Y-93783410D01*
X86250942Y-93865588D01*
X86250940Y-93865589D01*
X86250941Y-93865589D01*
X86149954Y-93948467D01*
X86149952Y-93948469D01*
X86116184Y-93976182D01*
X86088471Y-94009950D01*
X85600270Y-94498152D01*
X85539180Y-94465498D01*
X85419482Y-94429188D01*
X85295000Y-94416928D01*
X83795000Y-94416928D01*
X83670518Y-94429188D01*
X83550820Y-94465498D01*
X83440506Y-94524463D01*
X83343815Y-94603815D01*
X83264463Y-94700506D01*
X83205498Y-94810820D01*
X83169188Y-94930518D01*
X83156928Y-95055000D01*
X83156928Y-96055000D01*
X83169188Y-96179482D01*
X83205498Y-96299180D01*
X83264463Y-96409494D01*
X83343815Y-96506185D01*
X83440506Y-96585537D01*
X83550820Y-96644502D01*
X83670518Y-96680812D01*
X83795000Y-96693072D01*
X85295000Y-96693072D01*
X85419482Y-96680812D01*
X85539180Y-96644502D01*
X85649494Y-96585537D01*
X85746185Y-96506185D01*
X85797163Y-96444068D01*
X85838469Y-96440000D01*
X85838477Y-96440000D01*
X85968490Y-96427195D01*
X86135313Y-96376589D01*
X86289059Y-96294411D01*
X86423817Y-96183817D01*
X86451534Y-96150044D01*
X87111580Y-95489999D01*
X88056928Y-95489999D01*
X88056928Y-96055000D01*
X88069188Y-96179482D01*
X88105498Y-96299180D01*
X88164463Y-96409494D01*
X88243815Y-96506185D01*
X88340506Y-96585537D01*
X88450820Y-96644502D01*
X88570518Y-96680812D01*
X88695000Y-96693072D01*
X90195000Y-96693072D01*
X90319482Y-96680812D01*
X90439180Y-96644502D01*
X90549494Y-96585537D01*
X90646185Y-96506185D01*
X90725537Y-96409494D01*
X90776046Y-96315000D01*
X117340199Y-96315000D01*
X118870098Y-97844900D01*
X118824463Y-97900506D01*
X118765498Y-98010820D01*
X118729188Y-98130518D01*
X118716928Y-98255000D01*
X118716928Y-99255000D01*
X118729188Y-99379482D01*
X118765498Y-99499180D01*
X118824463Y-99609494D01*
X118903815Y-99706185D01*
X119000506Y-99785537D01*
X119110820Y-99844502D01*
X119230518Y-99880812D01*
X119355000Y-99893072D01*
X120855000Y-99893072D01*
X120979482Y-99880812D01*
X121099180Y-99844502D01*
X121209494Y-99785537D01*
X121306185Y-99706185D01*
X121385537Y-99609494D01*
X121444502Y-99499180D01*
X121480812Y-99379482D01*
X121493072Y-99255000D01*
X123616928Y-99255000D01*
X123629188Y-99379482D01*
X123665498Y-99499180D01*
X123724463Y-99609494D01*
X123803815Y-99706185D01*
X123900506Y-99785537D01*
X124010820Y-99844502D01*
X124130518Y-99880812D01*
X124255000Y-99893072D01*
X124719250Y-99890000D01*
X124878000Y-99731250D01*
X124878000Y-98882000D01*
X125132000Y-98882000D01*
X125132000Y-99731250D01*
X125290750Y-99890000D01*
X125755000Y-99893072D01*
X125879482Y-99880812D01*
X125999180Y-99844502D01*
X126109494Y-99785537D01*
X126206185Y-99706185D01*
X126285537Y-99609494D01*
X126344502Y-99499180D01*
X126380812Y-99379482D01*
X126393072Y-99255000D01*
X126390000Y-99040750D01*
X126231250Y-98882000D01*
X125132000Y-98882000D01*
X124878000Y-98882000D01*
X123778750Y-98882000D01*
X123620000Y-99040750D01*
X123616928Y-99255000D01*
X121493072Y-99255000D01*
X121493072Y-98255000D01*
X123616928Y-98255000D01*
X123620000Y-98469250D01*
X123778750Y-98628000D01*
X124878000Y-98628000D01*
X124878000Y-97778750D01*
X125132000Y-97778750D01*
X125132000Y-98628000D01*
X126231250Y-98628000D01*
X126390000Y-98469250D01*
X126393072Y-98255000D01*
X126380812Y-98130518D01*
X126344502Y-98010820D01*
X126285537Y-97900506D01*
X126206185Y-97803815D01*
X126109494Y-97724463D01*
X125999180Y-97665498D01*
X125879482Y-97629188D01*
X125755000Y-97616928D01*
X125290750Y-97620000D01*
X125132000Y-97778750D01*
X124878000Y-97778750D01*
X124719250Y-97620000D01*
X124255000Y-97616928D01*
X124130518Y-97629188D01*
X124010820Y-97665498D01*
X123900506Y-97724463D01*
X123803815Y-97803815D01*
X123724463Y-97900506D01*
X123665498Y-98010820D01*
X123629188Y-98130518D01*
X123616928Y-98255000D01*
X121493072Y-98255000D01*
X121480812Y-98130518D01*
X121444502Y-98010820D01*
X121385537Y-97900506D01*
X121306185Y-97803815D01*
X121209494Y-97724463D01*
X121099180Y-97665498D01*
X120979482Y-97629188D01*
X120855000Y-97616928D01*
X120759326Y-97616928D01*
X120739974Y-97580724D01*
X120645001Y-97464999D01*
X120616004Y-97441202D01*
X119867874Y-96693072D01*
X120855000Y-96693072D01*
X120979482Y-96680812D01*
X121099180Y-96644502D01*
X121209494Y-96585537D01*
X121306185Y-96506185D01*
X121357163Y-96444068D01*
X121398469Y-96440000D01*
X121398477Y-96440000D01*
X121528490Y-96427195D01*
X121695313Y-96376589D01*
X121849059Y-96294411D01*
X121983817Y-96183817D01*
X122011534Y-96150044D01*
X122671580Y-95489999D01*
X123616928Y-95489999D01*
X123616928Y-96055000D01*
X123629188Y-96179482D01*
X123665498Y-96299180D01*
X123724463Y-96409494D01*
X123803815Y-96506185D01*
X123900506Y-96585537D01*
X124010820Y-96644502D01*
X124130518Y-96680812D01*
X124255000Y-96693072D01*
X125755000Y-96693072D01*
X125879482Y-96680812D01*
X125999180Y-96644502D01*
X126109494Y-96585537D01*
X126206185Y-96506185D01*
X126285537Y-96409494D01*
X126336046Y-96315000D01*
X151630199Y-96315000D01*
X153160098Y-97844900D01*
X153114463Y-97900506D01*
X153055498Y-98010820D01*
X153019188Y-98130518D01*
X153006928Y-98255000D01*
X153006928Y-99255000D01*
X153019188Y-99379482D01*
X153055498Y-99499180D01*
X153114463Y-99609494D01*
X153193815Y-99706185D01*
X153290506Y-99785537D01*
X153400820Y-99844502D01*
X153520518Y-99880812D01*
X153645000Y-99893072D01*
X155145000Y-99893072D01*
X155269482Y-99880812D01*
X155389180Y-99844502D01*
X155499494Y-99785537D01*
X155596185Y-99706185D01*
X155675537Y-99609494D01*
X155734502Y-99499180D01*
X155770812Y-99379482D01*
X155783072Y-99255000D01*
X157906928Y-99255000D01*
X157919188Y-99379482D01*
X157955498Y-99499180D01*
X158014463Y-99609494D01*
X158093815Y-99706185D01*
X158190506Y-99785537D01*
X158300820Y-99844502D01*
X158420518Y-99880812D01*
X158545000Y-99893072D01*
X159009250Y-99890000D01*
X159168000Y-99731250D01*
X159168000Y-98882000D01*
X159422000Y-98882000D01*
X159422000Y-99731250D01*
X159580750Y-99890000D01*
X160045000Y-99893072D01*
X160169482Y-99880812D01*
X160289180Y-99844502D01*
X160399494Y-99785537D01*
X160496185Y-99706185D01*
X160575537Y-99609494D01*
X160634502Y-99499180D01*
X160670812Y-99379482D01*
X160683072Y-99255000D01*
X160680000Y-99040750D01*
X160521250Y-98882000D01*
X159422000Y-98882000D01*
X159168000Y-98882000D01*
X158068750Y-98882000D01*
X157910000Y-99040750D01*
X157906928Y-99255000D01*
X155783072Y-99255000D01*
X155783072Y-98255000D01*
X157906928Y-98255000D01*
X157910000Y-98469250D01*
X158068750Y-98628000D01*
X159168000Y-98628000D01*
X159168000Y-97778750D01*
X159422000Y-97778750D01*
X159422000Y-98628000D01*
X160521250Y-98628000D01*
X160680000Y-98469250D01*
X160683072Y-98255000D01*
X160670812Y-98130518D01*
X160634502Y-98010820D01*
X160575537Y-97900506D01*
X160496185Y-97803815D01*
X160399494Y-97724463D01*
X160289180Y-97665498D01*
X160169482Y-97629188D01*
X160045000Y-97616928D01*
X159580750Y-97620000D01*
X159422000Y-97778750D01*
X159168000Y-97778750D01*
X159009250Y-97620000D01*
X158545000Y-97616928D01*
X158420518Y-97629188D01*
X158300820Y-97665498D01*
X158190506Y-97724463D01*
X158093815Y-97803815D01*
X158014463Y-97900506D01*
X157955498Y-98010820D01*
X157919188Y-98130518D01*
X157906928Y-98255000D01*
X155783072Y-98255000D01*
X155770812Y-98130518D01*
X155734502Y-98010820D01*
X155675537Y-97900506D01*
X155596185Y-97803815D01*
X155499494Y-97724463D01*
X155389180Y-97665498D01*
X155269482Y-97629188D01*
X155145000Y-97616928D01*
X155049326Y-97616928D01*
X155029974Y-97580724D01*
X154935001Y-97464999D01*
X154906004Y-97441202D01*
X154157874Y-96693072D01*
X155145000Y-96693072D01*
X155269482Y-96680812D01*
X155389180Y-96644502D01*
X155499494Y-96585537D01*
X155596185Y-96506185D01*
X155647163Y-96444068D01*
X155688469Y-96440000D01*
X155688477Y-96440000D01*
X155818490Y-96427195D01*
X155985313Y-96376589D01*
X156139059Y-96294411D01*
X156273817Y-96183817D01*
X156301534Y-96150044D01*
X159610002Y-92841577D01*
X159610002Y-93315196D01*
X158784002Y-94141196D01*
X158754999Y-94164999D01*
X158699871Y-94232174D01*
X158660026Y-94280724D01*
X158589455Y-94412753D01*
X158589454Y-94412754D01*
X158588188Y-94416928D01*
X158545000Y-94416928D01*
X158420518Y-94429188D01*
X158300820Y-94465498D01*
X158190506Y-94524463D01*
X158093815Y-94603815D01*
X158014463Y-94700506D01*
X157955498Y-94810820D01*
X157919188Y-94930518D01*
X157906928Y-95055000D01*
X157906928Y-96055000D01*
X157919188Y-96179482D01*
X157955498Y-96299180D01*
X158014463Y-96409494D01*
X158093815Y-96506185D01*
X158190506Y-96585537D01*
X158300820Y-96644502D01*
X158420518Y-96680812D01*
X158545000Y-96693072D01*
X160045000Y-96693072D01*
X160169482Y-96680812D01*
X160289180Y-96644502D01*
X160399494Y-96585537D01*
X160496185Y-96506185D01*
X160575537Y-96409494D01*
X160634502Y-96299180D01*
X160670812Y-96179482D01*
X160683072Y-96055000D01*
X160683072Y-95055000D01*
X160670812Y-94930518D01*
X160634502Y-94810820D01*
X160575537Y-94700506D01*
X160496185Y-94603815D01*
X160482345Y-94592457D01*
X160881004Y-94193798D01*
X160910002Y-94170000D01*
X160936333Y-94137916D01*
X161004975Y-94054276D01*
X161075547Y-93922246D01*
X161092733Y-93865589D01*
X161119004Y-93778985D01*
X161130001Y-93667332D01*
X161130001Y-93667322D01*
X161133677Y-93629999D01*
X161130001Y-93592677D01*
X161130001Y-49792323D01*
X161133677Y-49755001D01*
X161130001Y-49717678D01*
X161130001Y-49717668D01*
X161119004Y-49606015D01*
X161075547Y-49462754D01*
X161063699Y-49440588D01*
X161004975Y-49330724D01*
X160933800Y-49243998D01*
X160910002Y-49215000D01*
X160881005Y-49191203D01*
X160529902Y-48840100D01*
X160575537Y-48784494D01*
X160634502Y-48674180D01*
X160670812Y-48554482D01*
X160683072Y-48430000D01*
X160683072Y-47430000D01*
X160670812Y-47305518D01*
X160634502Y-47185820D01*
X160575537Y-47075506D01*
X160496185Y-46978815D01*
X160399494Y-46899463D01*
X160289180Y-46840498D01*
X160169482Y-46804188D01*
X160045000Y-46791928D01*
X158545000Y-46791928D01*
X158420518Y-46804188D01*
X158300820Y-46840498D01*
X158190506Y-46899463D01*
X158093815Y-46978815D01*
X158014463Y-47075506D01*
X157955498Y-47185820D01*
X157919188Y-47305518D01*
X157906928Y-47430000D01*
X157906928Y-48430000D01*
X157919188Y-48554482D01*
X157955498Y-48674180D01*
X158014463Y-48784494D01*
X158093815Y-48881185D01*
X158190506Y-48960537D01*
X158300820Y-49019502D01*
X158420518Y-49055812D01*
X158545000Y-49068072D01*
X158640674Y-49068072D01*
X158660026Y-49104276D01*
X158731201Y-49191002D01*
X158755000Y-49220001D01*
X158783998Y-49243799D01*
X159532126Y-49991928D01*
X158545000Y-49991928D01*
X158420518Y-50004188D01*
X158300820Y-50040498D01*
X158190506Y-50099463D01*
X158093815Y-50178815D01*
X158014463Y-50275506D01*
X157955498Y-50385820D01*
X157919188Y-50505518D01*
X157906928Y-50630000D01*
X157906928Y-51021984D01*
X157735751Y-51195001D01*
X155783072Y-51195001D01*
X155783072Y-50630000D01*
X155770812Y-50505518D01*
X155734502Y-50385820D01*
X155675537Y-50275506D01*
X155596185Y-50178815D01*
X155499494Y-50099463D01*
X155389180Y-50040498D01*
X155269482Y-50004188D01*
X155145000Y-49991928D01*
X153645000Y-49991928D01*
X153520518Y-50004188D01*
X153400820Y-50040498D01*
X153290506Y-50099463D01*
X153193815Y-50178815D01*
X153114463Y-50275506D01*
X153063954Y-50370000D01*
X125864802Y-50370000D01*
X124334902Y-48840101D01*
X124380537Y-48784494D01*
X124439502Y-48674180D01*
X124475812Y-48554482D01*
X124488072Y-48430000D01*
X153006928Y-48430000D01*
X153019188Y-48554482D01*
X153055498Y-48674180D01*
X153114463Y-48784494D01*
X153193815Y-48881185D01*
X153290506Y-48960537D01*
X153400820Y-49019502D01*
X153520518Y-49055812D01*
X153645000Y-49068072D01*
X154109250Y-49065000D01*
X154268000Y-48906250D01*
X154268000Y-48057000D01*
X154522000Y-48057000D01*
X154522000Y-48906250D01*
X154680750Y-49065000D01*
X155145000Y-49068072D01*
X155269482Y-49055812D01*
X155389180Y-49019502D01*
X155499494Y-48960537D01*
X155596185Y-48881185D01*
X155675537Y-48784494D01*
X155734502Y-48674180D01*
X155770812Y-48554482D01*
X155783072Y-48430000D01*
X155780000Y-48215750D01*
X155621250Y-48057000D01*
X154522000Y-48057000D01*
X154268000Y-48057000D01*
X153168750Y-48057000D01*
X153010000Y-48215750D01*
X153006928Y-48430000D01*
X124488072Y-48430000D01*
X124488072Y-47430000D01*
X153006928Y-47430000D01*
X153010000Y-47644250D01*
X153168750Y-47803000D01*
X154268000Y-47803000D01*
X154268000Y-46953750D01*
X154522000Y-46953750D01*
X154522000Y-47803000D01*
X155621250Y-47803000D01*
X155780000Y-47644250D01*
X155783072Y-47430000D01*
X155770812Y-47305518D01*
X155734502Y-47185820D01*
X155675537Y-47075506D01*
X155596185Y-46978815D01*
X155499494Y-46899463D01*
X155389180Y-46840498D01*
X155269482Y-46804188D01*
X155145000Y-46791928D01*
X154680750Y-46795000D01*
X154522000Y-46953750D01*
X154268000Y-46953750D01*
X154109250Y-46795000D01*
X153645000Y-46791928D01*
X153520518Y-46804188D01*
X153400820Y-46840498D01*
X153290506Y-46899463D01*
X153193815Y-46978815D01*
X153114463Y-47075506D01*
X153055498Y-47185820D01*
X153019188Y-47305518D01*
X153006928Y-47430000D01*
X124488072Y-47430000D01*
X124475812Y-47305518D01*
X124439502Y-47185820D01*
X124380537Y-47075506D01*
X124301185Y-46978815D01*
X124204494Y-46899463D01*
X124094180Y-46840498D01*
X123974482Y-46804188D01*
X123850000Y-46791928D01*
X122350000Y-46791928D01*
X122225518Y-46804188D01*
X122105820Y-46840498D01*
X121995506Y-46899463D01*
X121898815Y-46978815D01*
X121819463Y-47075506D01*
X121760498Y-47185820D01*
X121724188Y-47305518D01*
X121711928Y-47430000D01*
X121711928Y-48430000D01*
X121724188Y-48554482D01*
X121760498Y-48674180D01*
X121819463Y-48784494D01*
X121898815Y-48881185D01*
X121995506Y-48960537D01*
X122105820Y-49019502D01*
X122225518Y-49055812D01*
X122350000Y-49068072D01*
X122445674Y-49068072D01*
X122465026Y-49104276D01*
X122477953Y-49120027D01*
X122559999Y-49220001D01*
X122589003Y-49243804D01*
X123337127Y-49991928D01*
X122350000Y-49991928D01*
X122225518Y-50004188D01*
X122105820Y-50040498D01*
X121995506Y-50099463D01*
X121898815Y-50178815D01*
X121847837Y-50240932D01*
X121806531Y-50245000D01*
X121806523Y-50245000D01*
X121676510Y-50257805D01*
X121509686Y-50308411D01*
X121355941Y-50390589D01*
X121254953Y-50473468D01*
X121254951Y-50473470D01*
X121221183Y-50501183D01*
X121193470Y-50534951D01*
X120483422Y-51245000D01*
X119588072Y-51245000D01*
X119588072Y-50630000D01*
X119575812Y-50505518D01*
X119539502Y-50385820D01*
X119480537Y-50275506D01*
X119401185Y-50178815D01*
X119304494Y-50099463D01*
X119194180Y-50040498D01*
X119074482Y-50004188D01*
X118950000Y-49991928D01*
X117450000Y-49991928D01*
X117325518Y-50004188D01*
X117205820Y-50040498D01*
X117095506Y-50099463D01*
X116998815Y-50178815D01*
X116919463Y-50275506D01*
X116868954Y-50370000D01*
X92209802Y-50370000D01*
X90679902Y-48840101D01*
X90725537Y-48784494D01*
X90784502Y-48674180D01*
X90820812Y-48554482D01*
X90833072Y-48430000D01*
X116811928Y-48430000D01*
X116824188Y-48554482D01*
X116860498Y-48674180D01*
X116919463Y-48784494D01*
X116998815Y-48881185D01*
X117095506Y-48960537D01*
X117205820Y-49019502D01*
X117325518Y-49055812D01*
X117450000Y-49068072D01*
X117914250Y-49065000D01*
X118073000Y-48906250D01*
X118073000Y-48057000D01*
X118327000Y-48057000D01*
X118327000Y-48906250D01*
X118485750Y-49065000D01*
X118950000Y-49068072D01*
X119074482Y-49055812D01*
X119194180Y-49019502D01*
X119304494Y-48960537D01*
X119401185Y-48881185D01*
X119480537Y-48784494D01*
X119539502Y-48674180D01*
X119575812Y-48554482D01*
X119588072Y-48430000D01*
X119585000Y-48215750D01*
X119426250Y-48057000D01*
X118327000Y-48057000D01*
X118073000Y-48057000D01*
X116973750Y-48057000D01*
X116815000Y-48215750D01*
X116811928Y-48430000D01*
X90833072Y-48430000D01*
X90833072Y-47430000D01*
X116811928Y-47430000D01*
X116815000Y-47644250D01*
X116973750Y-47803000D01*
X118073000Y-47803000D01*
X118073000Y-46953750D01*
X118327000Y-46953750D01*
X118327000Y-47803000D01*
X119426250Y-47803000D01*
X119585000Y-47644250D01*
X119588072Y-47430000D01*
X119575812Y-47305518D01*
X119539502Y-47185820D01*
X119480537Y-47075506D01*
X119401185Y-46978815D01*
X119304494Y-46899463D01*
X119194180Y-46840498D01*
X119074482Y-46804188D01*
X118950000Y-46791928D01*
X118485750Y-46795000D01*
X118327000Y-46953750D01*
X118073000Y-46953750D01*
X117914250Y-46795000D01*
X117450000Y-46791928D01*
X117325518Y-46804188D01*
X117205820Y-46840498D01*
X117095506Y-46899463D01*
X116998815Y-46978815D01*
X116919463Y-47075506D01*
X116860498Y-47185820D01*
X116824188Y-47305518D01*
X116811928Y-47430000D01*
X90833072Y-47430000D01*
X90820812Y-47305518D01*
X90784502Y-47185820D01*
X90725537Y-47075506D01*
X90646185Y-46978815D01*
X90549494Y-46899463D01*
X90439180Y-46840498D01*
X90319482Y-46804188D01*
X90195000Y-46791928D01*
X88695000Y-46791928D01*
X88570518Y-46804188D01*
X88450820Y-46840498D01*
X88340506Y-46899463D01*
X88243815Y-46978815D01*
X88164463Y-47075506D01*
X88105498Y-47185820D01*
X88069188Y-47305518D01*
X88056928Y-47430000D01*
X88056928Y-48430000D01*
X88069188Y-48554482D01*
X88105498Y-48674180D01*
X88164463Y-48784494D01*
X88243815Y-48881185D01*
X88340506Y-48960537D01*
X88450820Y-49019502D01*
X88570518Y-49055812D01*
X88695000Y-49068072D01*
X88790674Y-49068072D01*
X88810026Y-49104276D01*
X88822953Y-49120027D01*
X88904999Y-49220001D01*
X88934003Y-49243804D01*
X89682127Y-49991928D01*
X88695000Y-49991928D01*
X88570518Y-50004188D01*
X88450820Y-50040498D01*
X88389730Y-50073152D01*
X87901533Y-49584955D01*
X87873816Y-49551182D01*
X87739058Y-49440588D01*
X87585312Y-49358410D01*
X87418489Y-49307804D01*
X87288476Y-49294999D01*
X87288468Y-49294999D01*
X87244999Y-49290718D01*
X87201530Y-49294999D01*
X72997245Y-49294999D01*
X72692751Y-48990505D01*
X72789286Y-48882442D01*
X72937860Y-48630463D01*
X73025759Y-48379109D01*
X73171718Y-48446861D01*
X73454729Y-48519457D01*
X73746465Y-48535446D01*
X74035714Y-48494212D01*
X74218430Y-48430000D01*
X83156928Y-48430000D01*
X83169188Y-48554482D01*
X83205498Y-48674180D01*
X83264463Y-48784494D01*
X83343815Y-48881185D01*
X83440506Y-48960537D01*
X83550820Y-49019502D01*
X83670518Y-49055812D01*
X83795000Y-49068072D01*
X84259250Y-49065000D01*
X84418000Y-48906250D01*
X84418000Y-48057000D01*
X84672000Y-48057000D01*
X84672000Y-48906250D01*
X84830750Y-49065000D01*
X85295000Y-49068072D01*
X85419482Y-49055812D01*
X85539180Y-49019502D01*
X85649494Y-48960537D01*
X85746185Y-48881185D01*
X85825537Y-48784494D01*
X85884502Y-48674180D01*
X85920812Y-48554482D01*
X85933072Y-48430000D01*
X85930000Y-48215750D01*
X85771250Y-48057000D01*
X84672000Y-48057000D01*
X84418000Y-48057000D01*
X83318750Y-48057000D01*
X83160000Y-48215750D01*
X83156928Y-48430000D01*
X74218430Y-48430000D01*
X74311362Y-48397341D01*
X74562814Y-48248555D01*
X74780407Y-48053571D01*
X74838980Y-47977057D01*
X74825729Y-47717456D01*
X73380667Y-47046681D01*
X73372246Y-47064822D01*
X73141857Y-46957879D01*
X73150278Y-46939738D01*
X73132137Y-46931317D01*
X73185529Y-46816292D01*
X73487610Y-46816292D01*
X74932672Y-47487067D01*
X75007643Y-47430000D01*
X83156928Y-47430000D01*
X83160000Y-47644250D01*
X83318750Y-47803000D01*
X84418000Y-47803000D01*
X84418000Y-46953750D01*
X84672000Y-46953750D01*
X84672000Y-47803000D01*
X85771250Y-47803000D01*
X85930000Y-47644250D01*
X85933072Y-47430000D01*
X85920812Y-47305518D01*
X85884502Y-47185820D01*
X85825537Y-47075506D01*
X85746185Y-46978815D01*
X85649494Y-46899463D01*
X85539180Y-46840498D01*
X85419482Y-46804188D01*
X85295000Y-46791928D01*
X84830750Y-46795000D01*
X84672000Y-46953750D01*
X84418000Y-46953750D01*
X84259250Y-46795000D01*
X83795000Y-46791928D01*
X83670518Y-46804188D01*
X83550820Y-46840498D01*
X83440506Y-46899463D01*
X83343815Y-46978815D01*
X83264463Y-47075506D01*
X83205498Y-47185820D01*
X83169188Y-47305518D01*
X83156928Y-47430000D01*
X75007643Y-47430000D01*
X75139507Y-47329627D01*
X75160142Y-47235503D01*
X75168622Y-46943453D01*
X75119963Y-46655359D01*
X75016034Y-46382294D01*
X74956731Y-46287709D01*
X75067252Y-46271954D01*
X75342900Y-46175083D01*
X75594352Y-46026297D01*
X75811945Y-45831313D01*
X75870518Y-45754799D01*
X75857267Y-45495198D01*
X74412205Y-44824423D01*
X73850566Y-46034370D01*
X73487610Y-46816292D01*
X73185529Y-46816292D01*
X73239080Y-46700928D01*
X73257221Y-46709349D01*
X73610049Y-45949246D01*
X73616573Y-45935192D01*
X73828988Y-45477583D01*
X74181816Y-44717480D01*
X74163675Y-44709059D01*
X74270618Y-44478670D01*
X74288759Y-44487091D01*
X74297180Y-44468950D01*
X74527569Y-44575893D01*
X74519148Y-44594034D01*
X75964210Y-45264809D01*
X76171045Y-45107369D01*
X76191680Y-45013245D01*
X76200160Y-44721195D01*
X76151501Y-44433101D01*
X76047572Y-44160036D01*
X75892368Y-43912494D01*
X75691853Y-43699988D01*
X75453732Y-43530683D01*
X75307775Y-43462932D01*
X75443024Y-43233551D01*
X75539585Y-42957429D01*
X75580422Y-42667774D01*
X75563965Y-42375717D01*
X75490848Y-42092485D01*
X75363879Y-41828958D01*
X75187937Y-41595265D01*
X74969787Y-41400387D01*
X74780952Y-41289044D01*
X73922978Y-40890787D01*
X73716050Y-40818423D01*
X73426395Y-40777587D01*
X73134339Y-40794043D01*
X72851106Y-40867161D01*
X72587580Y-40994130D01*
X72353886Y-41170071D01*
X72159008Y-41388222D01*
X72010433Y-41640201D01*
X71913872Y-41916323D01*
X71873036Y-42205978D01*
X71889492Y-42498034D01*
X71906511Y-42563960D01*
X71794866Y-42489361D01*
X71570110Y-42396264D01*
X71331511Y-42348804D01*
X71088237Y-42348804D01*
X70849638Y-42396264D01*
X70624882Y-42489361D01*
X70422607Y-42624517D01*
X70250587Y-42796537D01*
X70115431Y-42998812D01*
X70022334Y-43223568D01*
X69974874Y-43462167D01*
X69974874Y-43705441D01*
X70022334Y-43944040D01*
X70049569Y-44009792D01*
X69888069Y-44076688D01*
X69685794Y-44211844D01*
X69513774Y-44383864D01*
X69378618Y-44586139D01*
X69285521Y-44810895D01*
X69238061Y-45049494D01*
X69238061Y-45292768D01*
X69285521Y-45531367D01*
X69378618Y-45756123D01*
X69513774Y-45958398D01*
X69685794Y-46130418D01*
X69888069Y-46265574D01*
X70112825Y-46358671D01*
X70138856Y-46363849D01*
X70082416Y-46391042D01*
X69848722Y-46566983D01*
X69653844Y-46785134D01*
X69505269Y-47037113D01*
X69408708Y-47313235D01*
X69367872Y-47602890D01*
X69378832Y-47797396D01*
X68981167Y-47399732D01*
X69161110Y-47198299D01*
X69309684Y-46946320D01*
X69406245Y-46670198D01*
X69447082Y-46380543D01*
X69430625Y-46088486D01*
X69357508Y-45805254D01*
X69230539Y-45541727D01*
X69054597Y-45308034D01*
X68836447Y-45113156D01*
X68647612Y-45001813D01*
X68353389Y-44865240D01*
X68353389Y-43572697D01*
X69714459Y-42211629D01*
X69902301Y-42298822D01*
X70109230Y-42371186D01*
X70398884Y-42412022D01*
X70690941Y-42395566D01*
X70974174Y-42322448D01*
X71237701Y-42195479D01*
X71471395Y-42019538D01*
X71666273Y-41801387D01*
X71814847Y-41549408D01*
X71911408Y-41273286D01*
X71952245Y-40983631D01*
X71935788Y-40691574D01*
X71862671Y-40408342D01*
X71735702Y-40144815D01*
X71559760Y-39911122D01*
X71341610Y-39716244D01*
X71152775Y-39604901D01*
X70294801Y-39206644D01*
X70087873Y-39134280D01*
X69798218Y-39093444D01*
X69506162Y-39109900D01*
X69222929Y-39183018D01*
X69159217Y-39213715D01*
X69141539Y-39145235D01*
X69014570Y-38881708D01*
X68838628Y-38648015D01*
X68620478Y-38453137D01*
X68431643Y-38341794D01*
X67573669Y-37943537D01*
X67366741Y-37871173D01*
X67077086Y-37830337D01*
X66785030Y-37846793D01*
X66501797Y-37919911D01*
X66238271Y-38046880D01*
X66004577Y-38222821D01*
X65809699Y-38440972D01*
X65661124Y-38692951D01*
X65564563Y-38969073D01*
X65523727Y-39258728D01*
X65540183Y-39550784D01*
X65557202Y-39616709D01*
X65445558Y-39542111D01*
X65220802Y-39449014D01*
X64982203Y-39401554D01*
X64738929Y-39401554D01*
X64577888Y-39433587D01*
X70914906Y-25755777D01*
X74635000Y-25755777D01*
X74635000Y-26314223D01*
X74743948Y-26861939D01*
X74957656Y-27377876D01*
X75267912Y-27842207D01*
X75662793Y-28237088D01*
X76127124Y-28547344D01*
X76643061Y-28761052D01*
X77190777Y-28870000D01*
X77749223Y-28870000D01*
X78296939Y-28761052D01*
X78812876Y-28547344D01*
X79277207Y-28237088D01*
X79672088Y-27842207D01*
X79982344Y-27377876D01*
X80196052Y-26861939D01*
X80305000Y-26314223D01*
X80305000Y-25755777D01*
X174170906Y-25755777D01*
X174170906Y-26314223D01*
X174279854Y-26861939D01*
X174493562Y-27377876D01*
X174803818Y-27842207D01*
X175198699Y-28237088D01*
X175663030Y-28547344D01*
X176178967Y-28761052D01*
X176726683Y-28870000D01*
X177285129Y-28870000D01*
X177832845Y-28761052D01*
X178348782Y-28547344D01*
X178813113Y-28237088D01*
X179207994Y-27842207D01*
X179518250Y-27377876D01*
X179731958Y-26861939D01*
X179840906Y-26314223D01*
X179840906Y-25755777D01*
X179731958Y-25208061D01*
X179518250Y-24692124D01*
X179207994Y-24227793D01*
X178813113Y-23832912D01*
X178348782Y-23522656D01*
X177832845Y-23308948D01*
X177285129Y-23200000D01*
X176726683Y-23200000D01*
X176178967Y-23308948D01*
X175663030Y-23522656D01*
X175198699Y-23832912D01*
X174803818Y-24227793D01*
X174493562Y-24692124D01*
X174279854Y-25208061D01*
X174170906Y-25755777D01*
X80305000Y-25755777D01*
X80196052Y-25208061D01*
X79982344Y-24692124D01*
X79672088Y-24227793D01*
X79277207Y-23832912D01*
X78812876Y-23522656D01*
X78296939Y-23308948D01*
X77749223Y-23200000D01*
X77190777Y-23200000D01*
X76643061Y-23308948D01*
X76127124Y-23522656D01*
X75662793Y-23832912D01*
X75267912Y-24227793D01*
X74957656Y-24692124D01*
X74743948Y-25208061D01*
X74635000Y-25755777D01*
X70914906Y-25755777D01*
X73673505Y-19801622D01*
X176701985Y-19801622D01*
X183288000Y-26371594D01*
G37*
X183288000Y-26371594D02*
X183288001Y-110060775D01*
X176697010Y-116720251D01*
X71041404Y-117494885D01*
X58070320Y-110083777D01*
X174203000Y-110083777D01*
X174203000Y-110642223D01*
X174311948Y-111189939D01*
X174525656Y-111705876D01*
X174835912Y-112170207D01*
X175230793Y-112565088D01*
X175695124Y-112875344D01*
X176211061Y-113089052D01*
X176758777Y-113198000D01*
X177317223Y-113198000D01*
X177864939Y-113089052D01*
X178380876Y-112875344D01*
X178845207Y-112565088D01*
X179240088Y-112170207D01*
X179550344Y-111705876D01*
X179764052Y-111189939D01*
X179873000Y-110642223D01*
X179873000Y-110083777D01*
X179764052Y-109536061D01*
X179550344Y-109020124D01*
X179240088Y-108555793D01*
X178845207Y-108160912D01*
X178380876Y-107850656D01*
X177864939Y-107636948D01*
X177317223Y-107528000D01*
X176758777Y-107528000D01*
X176211061Y-107636948D01*
X175695124Y-107850656D01*
X175230793Y-108160912D01*
X174835912Y-108555793D01*
X174525656Y-109020124D01*
X174311948Y-109536061D01*
X174203000Y-110083777D01*
X58070320Y-110083777D01*
X41901046Y-100845364D01*
X42642844Y-98780777D01*
X44155000Y-98780777D01*
X44155000Y-99339223D01*
X44263948Y-99886939D01*
X44477656Y-100402876D01*
X44787912Y-100867207D01*
X45182793Y-101262088D01*
X45647124Y-101572344D01*
X46163061Y-101786052D01*
X46710777Y-101895000D01*
X47269223Y-101895000D01*
X47816939Y-101786052D01*
X48332876Y-101572344D01*
X48797207Y-101262088D01*
X49192088Y-100867207D01*
X49502344Y-100402876D01*
X49716052Y-99886939D01*
X49825000Y-99339223D01*
X49825000Y-98780777D01*
X49720416Y-98255000D01*
X83156928Y-98255000D01*
X83156928Y-99255000D01*
X83169188Y-99379482D01*
X83205498Y-99499180D01*
X83264463Y-99609494D01*
X83343815Y-99706185D01*
X83440506Y-99785537D01*
X83550820Y-99844502D01*
X83670518Y-99880812D01*
X83795000Y-99893072D01*
X85295000Y-99893072D01*
X85419482Y-99880812D01*
X85539180Y-99844502D01*
X85649494Y-99785537D01*
X85746185Y-99706185D01*
X85825537Y-99609494D01*
X85884502Y-99499180D01*
X85920812Y-99379482D01*
X85933072Y-99255000D01*
X88056928Y-99255000D01*
X88069188Y-99379482D01*
X88105498Y-99499180D01*
X88164463Y-99609494D01*
X88243815Y-99706185D01*
X88340506Y-99785537D01*
X88450820Y-99844502D01*
X88570518Y-99880812D01*
X88695000Y-99893072D01*
X89159250Y-99890000D01*
X89318000Y-99731250D01*
X89318000Y-98882000D01*
X89572000Y-98882000D01*
X89572000Y-99731250D01*
X89730750Y-99890000D01*
X90195000Y-99893072D01*
X90319482Y-99880812D01*
X90439180Y-99844502D01*
X90549494Y-99785537D01*
X90646185Y-99706185D01*
X90725537Y-99609494D01*
X90784502Y-99499180D01*
X90820812Y-99379482D01*
X90833072Y-99255000D01*
X90830000Y-99040750D01*
X90671250Y-98882000D01*
X89572000Y-98882000D01*
X89318000Y-98882000D01*
X88218750Y-98882000D01*
X88060000Y-99040750D01*
X88056928Y-99255000D01*
X85933072Y-99255000D01*
X85933072Y-98255000D01*
X88056928Y-98255000D01*
X88060000Y-98469250D01*
X88218750Y-98628000D01*
X89318000Y-98628000D01*
X89318000Y-97778750D01*
X89572000Y-97778750D01*
X89572000Y-98628000D01*
X90671250Y-98628000D01*
X90830000Y-98469250D01*
X90833072Y-98255000D01*
X90820812Y-98130518D01*
X90784502Y-98010820D01*
X90725537Y-97900506D01*
X90646185Y-97803815D01*
X90549494Y-97724463D01*
X90439180Y-97665498D01*
X90319482Y-97629188D01*
X90195000Y-97616928D01*
X89730750Y-97620000D01*
X89572000Y-97778750D01*
X89318000Y-97778750D01*
X89159250Y-97620000D01*
X88695000Y-97616928D01*
X88570518Y-97629188D01*
X88450820Y-97665498D01*
X88340506Y-97724463D01*
X88243815Y-97803815D01*
X88164463Y-97900506D01*
X88105498Y-98010820D01*
X88069188Y-98130518D01*
X88056928Y-98255000D01*
X85933072Y-98255000D01*
X85920812Y-98130518D01*
X85884502Y-98010820D01*
X85825537Y-97900506D01*
X85746185Y-97803815D01*
X85649494Y-97724463D01*
X85539180Y-97665498D01*
X85419482Y-97629188D01*
X85295000Y-97616928D01*
X83795000Y-97616928D01*
X83670518Y-97629188D01*
X83550820Y-97665498D01*
X83440506Y-97724463D01*
X83343815Y-97803815D01*
X83264463Y-97900506D01*
X83205498Y-98010820D01*
X83169188Y-98130518D01*
X83156928Y-98255000D01*
X49720416Y-98255000D01*
X49716052Y-98233061D01*
X49502344Y-97717124D01*
X49192088Y-97252793D01*
X48797207Y-96857912D01*
X48332876Y-96547656D01*
X47816939Y-96333948D01*
X47269223Y-96225000D01*
X46710777Y-96225000D01*
X46163061Y-96333948D01*
X45647124Y-96547656D01*
X45182793Y-96857912D01*
X44787912Y-97252793D01*
X44477656Y-97717124D01*
X44263948Y-98233061D01*
X44155000Y-98780777D01*
X42642844Y-98780777D01*
X61852621Y-45315797D01*
X63022128Y-42791535D01*
X63029310Y-42808873D01*
X63164466Y-43011148D01*
X63336486Y-43183168D01*
X63538761Y-43318324D01*
X63763517Y-43411421D01*
X63789548Y-43416599D01*
X63733108Y-43443792D01*
X63499414Y-43619733D01*
X63304536Y-43837884D01*
X63155961Y-44089863D01*
X63059400Y-44365985D01*
X63018564Y-44655640D01*
X63035020Y-44947696D01*
X63108138Y-45230929D01*
X63235107Y-45494455D01*
X63411048Y-45728149D01*
X63629199Y-45923027D01*
X63818034Y-46034370D01*
X64676006Y-46432627D01*
X64882935Y-46504991D01*
X65172589Y-46545827D01*
X65464646Y-46529371D01*
X65747879Y-46456253D01*
X65811592Y-46425556D01*
X65829270Y-46494036D01*
X65956239Y-46757562D01*
X66132180Y-46991256D01*
X66350331Y-47186134D01*
X66539166Y-47297477D01*
X66944947Y-47485834D01*
X66958415Y-47511031D01*
X67025186Y-47592391D01*
X67053389Y-47626756D01*
X67082387Y-47650554D01*
X71072835Y-51641003D01*
X71096633Y-51670001D01*
X71125631Y-51693799D01*
X71212357Y-51764974D01*
X71344387Y-51835546D01*
X71487648Y-51879003D01*
X71599301Y-51890000D01*
X71599311Y-51890000D01*
X71636634Y-51893676D01*
X71673957Y-51890000D01*
X83213954Y-51890000D01*
X83264463Y-51984494D01*
X83343815Y-52081185D01*
X83440506Y-52160537D01*
X83550820Y-52219502D01*
X83670518Y-52255812D01*
X83795000Y-52268072D01*
X85295000Y-52268072D01*
X85419482Y-52255812D01*
X85539180Y-52219502D01*
X85649494Y-52160537D01*
X85746185Y-52081185D01*
X85825537Y-51984494D01*
X85884502Y-51874180D01*
X85920812Y-51754482D01*
X85933072Y-51630000D01*
X85933072Y-51064999D01*
X86878421Y-51064999D01*
X87538468Y-51725047D01*
X87566183Y-51758817D01*
X87599951Y-51786530D01*
X87599953Y-51786532D01*
X87659677Y-51835546D01*
X87700941Y-51869411D01*
X87854687Y-51951589D01*
X88021510Y-52002195D01*
X88151523Y-52015000D01*
X88151533Y-52015000D01*
X88192837Y-52019068D01*
X88243815Y-52081185D01*
X88340506Y-52160537D01*
X88450820Y-52219502D01*
X88570518Y-52255812D01*
X88695000Y-52268072D01*
X89581493Y-52268072D01*
X90038470Y-52725049D01*
X90066183Y-52758817D01*
X90099951Y-52786530D01*
X90099953Y-52786532D01*
X90200941Y-52869411D01*
X90354686Y-52951589D01*
X90521510Y-53002195D01*
X90651523Y-53015000D01*
X90651531Y-53015000D01*
X90695000Y-53019281D01*
X90738469Y-53015000D01*
X120806531Y-53015000D01*
X120850000Y-53019281D01*
X120893469Y-53015000D01*
X120893477Y-53015000D01*
X121023490Y-53002195D01*
X121190313Y-52951589D01*
X121344059Y-52869411D01*
X121478817Y-52758817D01*
X121506534Y-52725044D01*
X122044730Y-52186848D01*
X122105820Y-52219502D01*
X122225518Y-52255812D01*
X122350000Y-52268072D01*
X123850000Y-52268072D01*
X123974482Y-52255812D01*
X124094180Y-52219502D01*
X124155270Y-52186848D01*
X124643471Y-52675050D01*
X124671184Y-52708818D01*
X124704952Y-52736531D01*
X124704954Y-52736533D01*
X124732107Y-52758817D01*
X124805942Y-52819412D01*
X124959688Y-52901590D01*
X125126511Y-52952196D01*
X125256524Y-52965001D01*
X125256534Y-52965001D01*
X125300000Y-52969282D01*
X125343466Y-52965001D01*
X158061530Y-52965001D01*
X158104999Y-52969282D01*
X158148468Y-52965001D01*
X158148476Y-52965001D01*
X158278489Y-52952196D01*
X158410001Y-52912302D01*
X158410000Y-91538421D01*
X155450270Y-94498152D01*
X155389180Y-94465498D01*
X155269482Y-94429188D01*
X155145000Y-94416928D01*
X153645000Y-94416928D01*
X153520518Y-94429188D01*
X153400820Y-94465498D01*
X153339730Y-94498152D01*
X152851533Y-94009955D01*
X152823816Y-93976182D01*
X152689058Y-93865588D01*
X152535312Y-93783410D01*
X152368489Y-93732804D01*
X152238476Y-93719999D01*
X152238468Y-93719999D01*
X152194999Y-93715718D01*
X152151530Y-93719999D01*
X122348466Y-93719999D01*
X122305000Y-93715718D01*
X122261534Y-93719999D01*
X122261524Y-93719999D01*
X122131511Y-93732804D01*
X121964688Y-93783410D01*
X121810942Y-93865588D01*
X121810940Y-93865589D01*
X121810941Y-93865589D01*
X121709954Y-93948467D01*
X121709952Y-93948469D01*
X121676184Y-93976182D01*
X121648471Y-94009950D01*
X121160270Y-94498152D01*
X121099180Y-94465498D01*
X120979482Y-94429188D01*
X120855000Y-94416928D01*
X119355000Y-94416928D01*
X119230518Y-94429188D01*
X119110820Y-94465498D01*
X119049730Y-94498152D01*
X118561533Y-94009955D01*
X118533816Y-93976182D01*
X118399058Y-93865588D01*
X118245312Y-93783410D01*
X118078489Y-93732804D01*
X117948476Y-93719999D01*
X117948468Y-93719999D01*
X117904999Y-93715718D01*
X117861530Y-93719999D01*
X86788466Y-93719999D01*
X86745000Y-93715718D01*
X86701534Y-93719999D01*
X86701524Y-93719999D01*
X86571511Y-93732804D01*
X86404688Y-93783410D01*
X86250942Y-93865588D01*
X86250940Y-93865589D01*
X86250941Y-93865589D01*
X86149954Y-93948467D01*
X86149952Y-93948469D01*
X86116184Y-93976182D01*
X86088471Y-94009950D01*
X85600270Y-94498152D01*
X85539180Y-94465498D01*
X85419482Y-94429188D01*
X85295000Y-94416928D01*
X83795000Y-94416928D01*
X83670518Y-94429188D01*
X83550820Y-94465498D01*
X83440506Y-94524463D01*
X83343815Y-94603815D01*
X83264463Y-94700506D01*
X83205498Y-94810820D01*
X83169188Y-94930518D01*
X83156928Y-95055000D01*
X83156928Y-96055000D01*
X83169188Y-96179482D01*
X83205498Y-96299180D01*
X83264463Y-96409494D01*
X83343815Y-96506185D01*
X83440506Y-96585537D01*
X83550820Y-96644502D01*
X83670518Y-96680812D01*
X83795000Y-96693072D01*
X85295000Y-96693072D01*
X85419482Y-96680812D01*
X85539180Y-96644502D01*
X85649494Y-96585537D01*
X85746185Y-96506185D01*
X85797163Y-96444068D01*
X85838469Y-96440000D01*
X85838477Y-96440000D01*
X85968490Y-96427195D01*
X86135313Y-96376589D01*
X86289059Y-96294411D01*
X86423817Y-96183817D01*
X86451534Y-96150044D01*
X87111580Y-95489999D01*
X88056928Y-95489999D01*
X88056928Y-96055000D01*
X88069188Y-96179482D01*
X88105498Y-96299180D01*
X88164463Y-96409494D01*
X88243815Y-96506185D01*
X88340506Y-96585537D01*
X88450820Y-96644502D01*
X88570518Y-96680812D01*
X88695000Y-96693072D01*
X90195000Y-96693072D01*
X90319482Y-96680812D01*
X90439180Y-96644502D01*
X90549494Y-96585537D01*
X90646185Y-96506185D01*
X90725537Y-96409494D01*
X90776046Y-96315000D01*
X117340199Y-96315000D01*
X118870098Y-97844900D01*
X118824463Y-97900506D01*
X118765498Y-98010820D01*
X118729188Y-98130518D01*
X118716928Y-98255000D01*
X118716928Y-99255000D01*
X118729188Y-99379482D01*
X118765498Y-99499180D01*
X118824463Y-99609494D01*
X118903815Y-99706185D01*
X119000506Y-99785537D01*
X119110820Y-99844502D01*
X119230518Y-99880812D01*
X119355000Y-99893072D01*
X120855000Y-99893072D01*
X120979482Y-99880812D01*
X121099180Y-99844502D01*
X121209494Y-99785537D01*
X121306185Y-99706185D01*
X121385537Y-99609494D01*
X121444502Y-99499180D01*
X121480812Y-99379482D01*
X121493072Y-99255000D01*
X123616928Y-99255000D01*
X123629188Y-99379482D01*
X123665498Y-99499180D01*
X123724463Y-99609494D01*
X123803815Y-99706185D01*
X123900506Y-99785537D01*
X124010820Y-99844502D01*
X124130518Y-99880812D01*
X124255000Y-99893072D01*
X124719250Y-99890000D01*
X124878000Y-99731250D01*
X124878000Y-98882000D01*
X125132000Y-98882000D01*
X125132000Y-99731250D01*
X125290750Y-99890000D01*
X125755000Y-99893072D01*
X125879482Y-99880812D01*
X125999180Y-99844502D01*
X126109494Y-99785537D01*
X126206185Y-99706185D01*
X126285537Y-99609494D01*
X126344502Y-99499180D01*
X126380812Y-99379482D01*
X126393072Y-99255000D01*
X126390000Y-99040750D01*
X126231250Y-98882000D01*
X125132000Y-98882000D01*
X124878000Y-98882000D01*
X123778750Y-98882000D01*
X123620000Y-99040750D01*
X123616928Y-99255000D01*
X121493072Y-99255000D01*
X121493072Y-98255000D01*
X123616928Y-98255000D01*
X123620000Y-98469250D01*
X123778750Y-98628000D01*
X124878000Y-98628000D01*
X124878000Y-97778750D01*
X125132000Y-97778750D01*
X125132000Y-98628000D01*
X126231250Y-98628000D01*
X126390000Y-98469250D01*
X126393072Y-98255000D01*
X126380812Y-98130518D01*
X126344502Y-98010820D01*
X126285537Y-97900506D01*
X126206185Y-97803815D01*
X126109494Y-97724463D01*
X125999180Y-97665498D01*
X125879482Y-97629188D01*
X125755000Y-97616928D01*
X125290750Y-97620000D01*
X125132000Y-97778750D01*
X124878000Y-97778750D01*
X124719250Y-97620000D01*
X124255000Y-97616928D01*
X124130518Y-97629188D01*
X124010820Y-97665498D01*
X123900506Y-97724463D01*
X123803815Y-97803815D01*
X123724463Y-97900506D01*
X123665498Y-98010820D01*
X123629188Y-98130518D01*
X123616928Y-98255000D01*
X121493072Y-98255000D01*
X121480812Y-98130518D01*
X121444502Y-98010820D01*
X121385537Y-97900506D01*
X121306185Y-97803815D01*
X121209494Y-97724463D01*
X121099180Y-97665498D01*
X120979482Y-97629188D01*
X120855000Y-97616928D01*
X120759326Y-97616928D01*
X120739974Y-97580724D01*
X120645001Y-97464999D01*
X120616004Y-97441202D01*
X119867874Y-96693072D01*
X120855000Y-96693072D01*
X120979482Y-96680812D01*
X121099180Y-96644502D01*
X121209494Y-96585537D01*
X121306185Y-96506185D01*
X121357163Y-96444068D01*
X121398469Y-96440000D01*
X121398477Y-96440000D01*
X121528490Y-96427195D01*
X121695313Y-96376589D01*
X121849059Y-96294411D01*
X121983817Y-96183817D01*
X122011534Y-96150044D01*
X122671580Y-95489999D01*
X123616928Y-95489999D01*
X123616928Y-96055000D01*
X123629188Y-96179482D01*
X123665498Y-96299180D01*
X123724463Y-96409494D01*
X123803815Y-96506185D01*
X123900506Y-96585537D01*
X124010820Y-96644502D01*
X124130518Y-96680812D01*
X124255000Y-96693072D01*
X125755000Y-96693072D01*
X125879482Y-96680812D01*
X125999180Y-96644502D01*
X126109494Y-96585537D01*
X126206185Y-96506185D01*
X126285537Y-96409494D01*
X126336046Y-96315000D01*
X151630199Y-96315000D01*
X153160098Y-97844900D01*
X153114463Y-97900506D01*
X153055498Y-98010820D01*
X153019188Y-98130518D01*
X153006928Y-98255000D01*
X153006928Y-99255000D01*
X153019188Y-99379482D01*
X153055498Y-99499180D01*
X153114463Y-99609494D01*
X153193815Y-99706185D01*
X153290506Y-99785537D01*
X153400820Y-99844502D01*
X153520518Y-99880812D01*
X153645000Y-99893072D01*
X155145000Y-99893072D01*
X155269482Y-99880812D01*
X155389180Y-99844502D01*
X155499494Y-99785537D01*
X155596185Y-99706185D01*
X155675537Y-99609494D01*
X155734502Y-99499180D01*
X155770812Y-99379482D01*
X155783072Y-99255000D01*
X157906928Y-99255000D01*
X157919188Y-99379482D01*
X157955498Y-99499180D01*
X158014463Y-99609494D01*
X158093815Y-99706185D01*
X158190506Y-99785537D01*
X158300820Y-99844502D01*
X158420518Y-99880812D01*
X158545000Y-99893072D01*
X159009250Y-99890000D01*
X159168000Y-99731250D01*
X159168000Y-98882000D01*
X159422000Y-98882000D01*
X159422000Y-99731250D01*
X159580750Y-99890000D01*
X160045000Y-99893072D01*
X160169482Y-99880812D01*
X160289180Y-99844502D01*
X160399494Y-99785537D01*
X160496185Y-99706185D01*
X160575537Y-99609494D01*
X160634502Y-99499180D01*
X160670812Y-99379482D01*
X160683072Y-99255000D01*
X160680000Y-99040750D01*
X160521250Y-98882000D01*
X159422000Y-98882000D01*
X159168000Y-98882000D01*
X158068750Y-98882000D01*
X157910000Y-99040750D01*
X157906928Y-99255000D01*
X155783072Y-99255000D01*
X155783072Y-98255000D01*
X157906928Y-98255000D01*
X157910000Y-98469250D01*
X158068750Y-98628000D01*
X159168000Y-98628000D01*
X159168000Y-97778750D01*
X159422000Y-97778750D01*
X159422000Y-98628000D01*
X160521250Y-98628000D01*
X160680000Y-98469250D01*
X160683072Y-98255000D01*
X160670812Y-98130518D01*
X160634502Y-98010820D01*
X160575537Y-97900506D01*
X160496185Y-97803815D01*
X160399494Y-97724463D01*
X160289180Y-97665498D01*
X160169482Y-97629188D01*
X160045000Y-97616928D01*
X159580750Y-97620000D01*
X159422000Y-97778750D01*
X159168000Y-97778750D01*
X159009250Y-97620000D01*
X158545000Y-97616928D01*
X158420518Y-97629188D01*
X158300820Y-97665498D01*
X158190506Y-97724463D01*
X158093815Y-97803815D01*
X158014463Y-97900506D01*
X157955498Y-98010820D01*
X157919188Y-98130518D01*
X157906928Y-98255000D01*
X155783072Y-98255000D01*
X155770812Y-98130518D01*
X155734502Y-98010820D01*
X155675537Y-97900506D01*
X155596185Y-97803815D01*
X155499494Y-97724463D01*
X155389180Y-97665498D01*
X155269482Y-97629188D01*
X155145000Y-97616928D01*
X155049326Y-97616928D01*
X155029974Y-97580724D01*
X154935001Y-97464999D01*
X154906004Y-97441202D01*
X154157874Y-96693072D01*
X155145000Y-96693072D01*
X155269482Y-96680812D01*
X155389180Y-96644502D01*
X155499494Y-96585537D01*
X155596185Y-96506185D01*
X155647163Y-96444068D01*
X155688469Y-96440000D01*
X155688477Y-96440000D01*
X155818490Y-96427195D01*
X155985313Y-96376589D01*
X156139059Y-96294411D01*
X156273817Y-96183817D01*
X156301534Y-96150044D01*
X159610002Y-92841577D01*
X159610002Y-93315196D01*
X158784002Y-94141196D01*
X158754999Y-94164999D01*
X158699871Y-94232174D01*
X158660026Y-94280724D01*
X158589455Y-94412753D01*
X158589454Y-94412754D01*
X158588188Y-94416928D01*
X158545000Y-94416928D01*
X158420518Y-94429188D01*
X158300820Y-94465498D01*
X158190506Y-94524463D01*
X158093815Y-94603815D01*
X158014463Y-94700506D01*
X157955498Y-94810820D01*
X157919188Y-94930518D01*
X157906928Y-95055000D01*
X157906928Y-96055000D01*
X157919188Y-96179482D01*
X157955498Y-96299180D01*
X158014463Y-96409494D01*
X158093815Y-96506185D01*
X158190506Y-96585537D01*
X158300820Y-96644502D01*
X158420518Y-96680812D01*
X158545000Y-96693072D01*
X160045000Y-96693072D01*
X160169482Y-96680812D01*
X160289180Y-96644502D01*
X160399494Y-96585537D01*
X160496185Y-96506185D01*
X160575537Y-96409494D01*
X160634502Y-96299180D01*
X160670812Y-96179482D01*
X160683072Y-96055000D01*
X160683072Y-95055000D01*
X160670812Y-94930518D01*
X160634502Y-94810820D01*
X160575537Y-94700506D01*
X160496185Y-94603815D01*
X160482345Y-94592457D01*
X160881004Y-94193798D01*
X160910002Y-94170000D01*
X160936333Y-94137916D01*
X161004975Y-94054276D01*
X161075547Y-93922246D01*
X161092733Y-93865589D01*
X161119004Y-93778985D01*
X161130001Y-93667332D01*
X161130001Y-93667322D01*
X161133677Y-93629999D01*
X161130001Y-93592677D01*
X161130001Y-49792323D01*
X161133677Y-49755001D01*
X161130001Y-49717678D01*
X161130001Y-49717668D01*
X161119004Y-49606015D01*
X161075547Y-49462754D01*
X161063699Y-49440588D01*
X161004975Y-49330724D01*
X160933800Y-49243998D01*
X160910002Y-49215000D01*
X160881005Y-49191203D01*
X160529902Y-48840100D01*
X160575537Y-48784494D01*
X160634502Y-48674180D01*
X160670812Y-48554482D01*
X160683072Y-48430000D01*
X160683072Y-47430000D01*
X160670812Y-47305518D01*
X160634502Y-47185820D01*
X160575537Y-47075506D01*
X160496185Y-46978815D01*
X160399494Y-46899463D01*
X160289180Y-46840498D01*
X160169482Y-46804188D01*
X160045000Y-46791928D01*
X158545000Y-46791928D01*
X158420518Y-46804188D01*
X158300820Y-46840498D01*
X158190506Y-46899463D01*
X158093815Y-46978815D01*
X158014463Y-47075506D01*
X157955498Y-47185820D01*
X157919188Y-47305518D01*
X157906928Y-47430000D01*
X157906928Y-48430000D01*
X157919188Y-48554482D01*
X157955498Y-48674180D01*
X158014463Y-48784494D01*
X158093815Y-48881185D01*
X158190506Y-48960537D01*
X158300820Y-49019502D01*
X158420518Y-49055812D01*
X158545000Y-49068072D01*
X158640674Y-49068072D01*
X158660026Y-49104276D01*
X158731201Y-49191002D01*
X158755000Y-49220001D01*
X158783998Y-49243799D01*
X159532126Y-49991928D01*
X158545000Y-49991928D01*
X158420518Y-50004188D01*
X158300820Y-50040498D01*
X158190506Y-50099463D01*
X158093815Y-50178815D01*
X158014463Y-50275506D01*
X157955498Y-50385820D01*
X157919188Y-50505518D01*
X157906928Y-50630000D01*
X157906928Y-51021984D01*
X157735751Y-51195001D01*
X155783072Y-51195001D01*
X155783072Y-50630000D01*
X155770812Y-50505518D01*
X155734502Y-50385820D01*
X155675537Y-50275506D01*
X155596185Y-50178815D01*
X155499494Y-50099463D01*
X155389180Y-50040498D01*
X155269482Y-50004188D01*
X155145000Y-49991928D01*
X153645000Y-49991928D01*
X153520518Y-50004188D01*
X153400820Y-50040498D01*
X153290506Y-50099463D01*
X153193815Y-50178815D01*
X153114463Y-50275506D01*
X153063954Y-50370000D01*
X125864802Y-50370000D01*
X124334902Y-48840101D01*
X124380537Y-48784494D01*
X124439502Y-48674180D01*
X124475812Y-48554482D01*
X124488072Y-48430000D01*
X153006928Y-48430000D01*
X153019188Y-48554482D01*
X153055498Y-48674180D01*
X153114463Y-48784494D01*
X153193815Y-48881185D01*
X153290506Y-48960537D01*
X153400820Y-49019502D01*
X153520518Y-49055812D01*
X153645000Y-49068072D01*
X154109250Y-49065000D01*
X154268000Y-48906250D01*
X154268000Y-48057000D01*
X154522000Y-48057000D01*
X154522000Y-48906250D01*
X154680750Y-49065000D01*
X155145000Y-49068072D01*
X155269482Y-49055812D01*
X155389180Y-49019502D01*
X155499494Y-48960537D01*
X155596185Y-48881185D01*
X155675537Y-48784494D01*
X155734502Y-48674180D01*
X155770812Y-48554482D01*
X155783072Y-48430000D01*
X155780000Y-48215750D01*
X155621250Y-48057000D01*
X154522000Y-48057000D01*
X154268000Y-48057000D01*
X153168750Y-48057000D01*
X153010000Y-48215750D01*
X153006928Y-48430000D01*
X124488072Y-48430000D01*
X124488072Y-47430000D01*
X153006928Y-47430000D01*
X153010000Y-47644250D01*
X153168750Y-47803000D01*
X154268000Y-47803000D01*
X154268000Y-46953750D01*
X154522000Y-46953750D01*
X154522000Y-47803000D01*
X155621250Y-47803000D01*
X155780000Y-47644250D01*
X155783072Y-47430000D01*
X155770812Y-47305518D01*
X155734502Y-47185820D01*
X155675537Y-47075506D01*
X155596185Y-46978815D01*
X155499494Y-46899463D01*
X155389180Y-46840498D01*
X155269482Y-46804188D01*
X155145000Y-46791928D01*
X154680750Y-46795000D01*
X154522000Y-46953750D01*
X154268000Y-46953750D01*
X154109250Y-46795000D01*
X153645000Y-46791928D01*
X153520518Y-46804188D01*
X153400820Y-46840498D01*
X153290506Y-46899463D01*
X153193815Y-46978815D01*
X153114463Y-47075506D01*
X153055498Y-47185820D01*
X153019188Y-47305518D01*
X153006928Y-47430000D01*
X124488072Y-47430000D01*
X124475812Y-47305518D01*
X124439502Y-47185820D01*
X124380537Y-47075506D01*
X124301185Y-46978815D01*
X124204494Y-46899463D01*
X124094180Y-46840498D01*
X123974482Y-46804188D01*
X123850000Y-46791928D01*
X122350000Y-46791928D01*
X122225518Y-46804188D01*
X122105820Y-46840498D01*
X121995506Y-46899463D01*
X121898815Y-46978815D01*
X121819463Y-47075506D01*
X121760498Y-47185820D01*
X121724188Y-47305518D01*
X121711928Y-47430000D01*
X121711928Y-48430000D01*
X121724188Y-48554482D01*
X121760498Y-48674180D01*
X121819463Y-48784494D01*
X121898815Y-48881185D01*
X121995506Y-48960537D01*
X122105820Y-49019502D01*
X122225518Y-49055812D01*
X122350000Y-49068072D01*
X122445674Y-49068072D01*
X122465026Y-49104276D01*
X122477953Y-49120027D01*
X122559999Y-49220001D01*
X122589003Y-49243804D01*
X123337127Y-49991928D01*
X122350000Y-49991928D01*
X122225518Y-50004188D01*
X122105820Y-50040498D01*
X121995506Y-50099463D01*
X121898815Y-50178815D01*
X121847837Y-50240932D01*
X121806531Y-50245000D01*
X121806523Y-50245000D01*
X121676510Y-50257805D01*
X121509686Y-50308411D01*
X121355941Y-50390589D01*
X121254953Y-50473468D01*
X121254951Y-50473470D01*
X121221183Y-50501183D01*
X121193470Y-50534951D01*
X120483422Y-51245000D01*
X119588072Y-51245000D01*
X119588072Y-50630000D01*
X119575812Y-50505518D01*
X119539502Y-50385820D01*
X119480537Y-50275506D01*
X119401185Y-50178815D01*
X119304494Y-50099463D01*
X119194180Y-50040498D01*
X119074482Y-50004188D01*
X118950000Y-49991928D01*
X117450000Y-49991928D01*
X117325518Y-50004188D01*
X117205820Y-50040498D01*
X117095506Y-50099463D01*
X116998815Y-50178815D01*
X116919463Y-50275506D01*
X116868954Y-50370000D01*
X92209802Y-50370000D01*
X90679902Y-48840101D01*
X90725537Y-48784494D01*
X90784502Y-48674180D01*
X90820812Y-48554482D01*
X90833072Y-48430000D01*
X116811928Y-48430000D01*
X116824188Y-48554482D01*
X116860498Y-48674180D01*
X116919463Y-48784494D01*
X116998815Y-48881185D01*
X117095506Y-48960537D01*
X117205820Y-49019502D01*
X117325518Y-49055812D01*
X117450000Y-49068072D01*
X117914250Y-49065000D01*
X118073000Y-48906250D01*
X118073000Y-48057000D01*
X118327000Y-48057000D01*
X118327000Y-48906250D01*
X118485750Y-49065000D01*
X118950000Y-49068072D01*
X119074482Y-49055812D01*
X119194180Y-49019502D01*
X119304494Y-48960537D01*
X119401185Y-48881185D01*
X119480537Y-48784494D01*
X119539502Y-48674180D01*
X119575812Y-48554482D01*
X119588072Y-48430000D01*
X119585000Y-48215750D01*
X119426250Y-48057000D01*
X118327000Y-48057000D01*
X118073000Y-48057000D01*
X116973750Y-48057000D01*
X116815000Y-48215750D01*
X116811928Y-48430000D01*
X90833072Y-48430000D01*
X90833072Y-47430000D01*
X116811928Y-47430000D01*
X116815000Y-47644250D01*
X116973750Y-47803000D01*
X118073000Y-47803000D01*
X118073000Y-46953750D01*
X118327000Y-46953750D01*
X118327000Y-47803000D01*
X119426250Y-47803000D01*
X119585000Y-47644250D01*
X119588072Y-47430000D01*
X119575812Y-47305518D01*
X119539502Y-47185820D01*
X119480537Y-47075506D01*
X119401185Y-46978815D01*
X119304494Y-46899463D01*
X119194180Y-46840498D01*
X119074482Y-46804188D01*
X118950000Y-46791928D01*
X118485750Y-46795000D01*
X118327000Y-46953750D01*
X118073000Y-46953750D01*
X117914250Y-46795000D01*
X117450000Y-46791928D01*
X117325518Y-46804188D01*
X117205820Y-46840498D01*
X117095506Y-46899463D01*
X116998815Y-46978815D01*
X116919463Y-47075506D01*
X116860498Y-47185820D01*
X116824188Y-47305518D01*
X116811928Y-47430000D01*
X90833072Y-47430000D01*
X90820812Y-47305518D01*
X90784502Y-47185820D01*
X90725537Y-47075506D01*
X90646185Y-46978815D01*
X90549494Y-46899463D01*
X90439180Y-46840498D01*
X90319482Y-46804188D01*
X90195000Y-46791928D01*
X88695000Y-46791928D01*
X88570518Y-46804188D01*
X88450820Y-46840498D01*
X88340506Y-46899463D01*
X88243815Y-46978815D01*
X88164463Y-47075506D01*
X88105498Y-47185820D01*
X88069188Y-47305518D01*
X88056928Y-47430000D01*
X88056928Y-48430000D01*
X88069188Y-48554482D01*
X88105498Y-48674180D01*
X88164463Y-48784494D01*
X88243815Y-48881185D01*
X88340506Y-48960537D01*
X88450820Y-49019502D01*
X88570518Y-49055812D01*
X88695000Y-49068072D01*
X88790674Y-49068072D01*
X88810026Y-49104276D01*
X88822953Y-49120027D01*
X88904999Y-49220001D01*
X88934003Y-49243804D01*
X89682127Y-49991928D01*
X88695000Y-49991928D01*
X88570518Y-50004188D01*
X88450820Y-50040498D01*
X88389730Y-50073152D01*
X87901533Y-49584955D01*
X87873816Y-49551182D01*
X87739058Y-49440588D01*
X87585312Y-49358410D01*
X87418489Y-49307804D01*
X87288476Y-49294999D01*
X87288468Y-49294999D01*
X87244999Y-49290718D01*
X87201530Y-49294999D01*
X72997245Y-49294999D01*
X72692751Y-48990505D01*
X72789286Y-48882442D01*
X72937860Y-48630463D01*
X73025759Y-48379109D01*
X73171718Y-48446861D01*
X73454729Y-48519457D01*
X73746465Y-48535446D01*
X74035714Y-48494212D01*
X74218430Y-48430000D01*
X83156928Y-48430000D01*
X83169188Y-48554482D01*
X83205498Y-48674180D01*
X83264463Y-48784494D01*
X83343815Y-48881185D01*
X83440506Y-48960537D01*
X83550820Y-49019502D01*
X83670518Y-49055812D01*
X83795000Y-49068072D01*
X84259250Y-49065000D01*
X84418000Y-48906250D01*
X84418000Y-48057000D01*
X84672000Y-48057000D01*
X84672000Y-48906250D01*
X84830750Y-49065000D01*
X85295000Y-49068072D01*
X85419482Y-49055812D01*
X85539180Y-49019502D01*
X85649494Y-48960537D01*
X85746185Y-48881185D01*
X85825537Y-48784494D01*
X85884502Y-48674180D01*
X85920812Y-48554482D01*
X85933072Y-48430000D01*
X85930000Y-48215750D01*
X85771250Y-48057000D01*
X84672000Y-48057000D01*
X84418000Y-48057000D01*
X83318750Y-48057000D01*
X83160000Y-48215750D01*
X83156928Y-48430000D01*
X74218430Y-48430000D01*
X74311362Y-48397341D01*
X74562814Y-48248555D01*
X74780407Y-48053571D01*
X74838980Y-47977057D01*
X74825729Y-47717456D01*
X73380667Y-47046681D01*
X73372246Y-47064822D01*
X73141857Y-46957879D01*
X73150278Y-46939738D01*
X73132137Y-46931317D01*
X73185529Y-46816292D01*
X73487610Y-46816292D01*
X74932672Y-47487067D01*
X75007643Y-47430000D01*
X83156928Y-47430000D01*
X83160000Y-47644250D01*
X83318750Y-47803000D01*
X84418000Y-47803000D01*
X84418000Y-46953750D01*
X84672000Y-46953750D01*
X84672000Y-47803000D01*
X85771250Y-47803000D01*
X85930000Y-47644250D01*
X85933072Y-47430000D01*
X85920812Y-47305518D01*
X85884502Y-47185820D01*
X85825537Y-47075506D01*
X85746185Y-46978815D01*
X85649494Y-46899463D01*
X85539180Y-46840498D01*
X85419482Y-46804188D01*
X85295000Y-46791928D01*
X84830750Y-46795000D01*
X84672000Y-46953750D01*
X84418000Y-46953750D01*
X84259250Y-46795000D01*
X83795000Y-46791928D01*
X83670518Y-46804188D01*
X83550820Y-46840498D01*
X83440506Y-46899463D01*
X83343815Y-46978815D01*
X83264463Y-47075506D01*
X83205498Y-47185820D01*
X83169188Y-47305518D01*
X83156928Y-47430000D01*
X75007643Y-47430000D01*
X75139507Y-47329627D01*
X75160142Y-47235503D01*
X75168622Y-46943453D01*
X75119963Y-46655359D01*
X75016034Y-46382294D01*
X74956731Y-46287709D01*
X75067252Y-46271954D01*
X75342900Y-46175083D01*
X75594352Y-46026297D01*
X75811945Y-45831313D01*
X75870518Y-45754799D01*
X75857267Y-45495198D01*
X74412205Y-44824423D01*
X73850566Y-46034370D01*
X73487610Y-46816292D01*
X73185529Y-46816292D01*
X73239080Y-46700928D01*
X73257221Y-46709349D01*
X73610049Y-45949246D01*
X73616573Y-45935192D01*
X73828988Y-45477583D01*
X74181816Y-44717480D01*
X74163675Y-44709059D01*
X74270618Y-44478670D01*
X74288759Y-44487091D01*
X74297180Y-44468950D01*
X74527569Y-44575893D01*
X74519148Y-44594034D01*
X75964210Y-45264809D01*
X76171045Y-45107369D01*
X76191680Y-45013245D01*
X76200160Y-44721195D01*
X76151501Y-44433101D01*
X76047572Y-44160036D01*
X75892368Y-43912494D01*
X75691853Y-43699988D01*
X75453732Y-43530683D01*
X75307775Y-43462932D01*
X75443024Y-43233551D01*
X75539585Y-42957429D01*
X75580422Y-42667774D01*
X75563965Y-42375717D01*
X75490848Y-42092485D01*
X75363879Y-41828958D01*
X75187937Y-41595265D01*
X74969787Y-41400387D01*
X74780952Y-41289044D01*
X73922978Y-40890787D01*
X73716050Y-40818423D01*
X73426395Y-40777587D01*
X73134339Y-40794043D01*
X72851106Y-40867161D01*
X72587580Y-40994130D01*
X72353886Y-41170071D01*
X72159008Y-41388222D01*
X72010433Y-41640201D01*
X71913872Y-41916323D01*
X71873036Y-42205978D01*
X71889492Y-42498034D01*
X71906511Y-42563960D01*
X71794866Y-42489361D01*
X71570110Y-42396264D01*
X71331511Y-42348804D01*
X71088237Y-42348804D01*
X70849638Y-42396264D01*
X70624882Y-42489361D01*
X70422607Y-42624517D01*
X70250587Y-42796537D01*
X70115431Y-42998812D01*
X70022334Y-43223568D01*
X69974874Y-43462167D01*
X69974874Y-43705441D01*
X70022334Y-43944040D01*
X70049569Y-44009792D01*
X69888069Y-44076688D01*
X69685794Y-44211844D01*
X69513774Y-44383864D01*
X69378618Y-44586139D01*
X69285521Y-44810895D01*
X69238061Y-45049494D01*
X69238061Y-45292768D01*
X69285521Y-45531367D01*
X69378618Y-45756123D01*
X69513774Y-45958398D01*
X69685794Y-46130418D01*
X69888069Y-46265574D01*
X70112825Y-46358671D01*
X70138856Y-46363849D01*
X70082416Y-46391042D01*
X69848722Y-46566983D01*
X69653844Y-46785134D01*
X69505269Y-47037113D01*
X69408708Y-47313235D01*
X69367872Y-47602890D01*
X69378832Y-47797396D01*
X68981167Y-47399732D01*
X69161110Y-47198299D01*
X69309684Y-46946320D01*
X69406245Y-46670198D01*
X69447082Y-46380543D01*
X69430625Y-46088486D01*
X69357508Y-45805254D01*
X69230539Y-45541727D01*
X69054597Y-45308034D01*
X68836447Y-45113156D01*
X68647612Y-45001813D01*
X68353389Y-44865240D01*
X68353389Y-43572697D01*
X69714459Y-42211629D01*
X69902301Y-42298822D01*
X70109230Y-42371186D01*
X70398884Y-42412022D01*
X70690941Y-42395566D01*
X70974174Y-42322448D01*
X71237701Y-42195479D01*
X71471395Y-42019538D01*
X71666273Y-41801387D01*
X71814847Y-41549408D01*
X71911408Y-41273286D01*
X71952245Y-40983631D01*
X71935788Y-40691574D01*
X71862671Y-40408342D01*
X71735702Y-40144815D01*
X71559760Y-39911122D01*
X71341610Y-39716244D01*
X71152775Y-39604901D01*
X70294801Y-39206644D01*
X70087873Y-39134280D01*
X69798218Y-39093444D01*
X69506162Y-39109900D01*
X69222929Y-39183018D01*
X69159217Y-39213715D01*
X69141539Y-39145235D01*
X69014570Y-38881708D01*
X68838628Y-38648015D01*
X68620478Y-38453137D01*
X68431643Y-38341794D01*
X67573669Y-37943537D01*
X67366741Y-37871173D01*
X67077086Y-37830337D01*
X66785030Y-37846793D01*
X66501797Y-37919911D01*
X66238271Y-38046880D01*
X66004577Y-38222821D01*
X65809699Y-38440972D01*
X65661124Y-38692951D01*
X65564563Y-38969073D01*
X65523727Y-39258728D01*
X65540183Y-39550784D01*
X65557202Y-39616709D01*
X65445558Y-39542111D01*
X65220802Y-39449014D01*
X64982203Y-39401554D01*
X64738929Y-39401554D01*
X64577888Y-39433587D01*
X70914906Y-25755777D01*
X74635000Y-25755777D01*
X74635000Y-26314223D01*
X74743948Y-26861939D01*
X74957656Y-27377876D01*
X75267912Y-27842207D01*
X75662793Y-28237088D01*
X76127124Y-28547344D01*
X76643061Y-28761052D01*
X77190777Y-28870000D01*
X77749223Y-28870000D01*
X78296939Y-28761052D01*
X78812876Y-28547344D01*
X79277207Y-28237088D01*
X79672088Y-27842207D01*
X79982344Y-27377876D01*
X80196052Y-26861939D01*
X80305000Y-26314223D01*
X80305000Y-25755777D01*
X174170906Y-25755777D01*
X174170906Y-26314223D01*
X174279854Y-26861939D01*
X174493562Y-27377876D01*
X174803818Y-27842207D01*
X175198699Y-28237088D01*
X175663030Y-28547344D01*
X176178967Y-28761052D01*
X176726683Y-28870000D01*
X177285129Y-28870000D01*
X177832845Y-28761052D01*
X178348782Y-28547344D01*
X178813113Y-28237088D01*
X179207994Y-27842207D01*
X179518250Y-27377876D01*
X179731958Y-26861939D01*
X179840906Y-26314223D01*
X179840906Y-25755777D01*
X179731958Y-25208061D01*
X179518250Y-24692124D01*
X179207994Y-24227793D01*
X178813113Y-23832912D01*
X178348782Y-23522656D01*
X177832845Y-23308948D01*
X177285129Y-23200000D01*
X176726683Y-23200000D01*
X176178967Y-23308948D01*
X175663030Y-23522656D01*
X175198699Y-23832912D01*
X174803818Y-24227793D01*
X174493562Y-24692124D01*
X174279854Y-25208061D01*
X174170906Y-25755777D01*
X80305000Y-25755777D01*
X80196052Y-25208061D01*
X79982344Y-24692124D01*
X79672088Y-24227793D01*
X79277207Y-23832912D01*
X78812876Y-23522656D01*
X78296939Y-23308948D01*
X77749223Y-23200000D01*
X77190777Y-23200000D01*
X76643061Y-23308948D01*
X76127124Y-23522656D01*
X75662793Y-23832912D01*
X75267912Y-24227793D01*
X74957656Y-24692124D01*
X74743948Y-25208061D01*
X74635000Y-25755777D01*
X70914906Y-25755777D01*
X73673505Y-19801622D01*
X176701985Y-19801622D01*
X183288000Y-26371594D01*
M02*
