G04 #@! TF.GenerationSoftware,KiCad,Pcbnew,5.1.5+dfsg1-2build2*
G04 #@! TF.CreationDate,2021-03-23T21:18:19+09:00*
G04 #@! TF.ProjectId,rest,72657374-2e6b-4696-9361-645f70636258,rev?*
G04 #@! TF.SameCoordinates,Original*
G04 #@! TF.FileFunction,Profile,NP*
%FSLAX46Y46*%
G04 Gerber Fmt 4.6, Leading zero omitted, Abs format (unit mm)*
G04 Created by KiCad (PCBNEW 5.1.5+dfsg1-2build2) date 2021-03-23 21:18:19*
%MOMM*%
%LPD*%
G04 APERTURE LIST*
%ADD10C,0.200000*%
%ADD11C,0.120000*%
G04 APERTURE END LIST*
D10*
X152828030Y-103963501D02*
X140796017Y-129933378D01*
X29977000Y-122933378D02*
X29977000Y-38637000D01*
X36994094Y-31546995D02*
X143151259Y-30768683D01*
X143151259Y-30768683D02*
X172999279Y-47822532D01*
X140796017Y-129933378D02*
X36994094Y-129933378D01*
X36994094Y-129933378D02*
X29977000Y-122933378D01*
X172999279Y-47822532D02*
X152828030Y-103963501D01*
X29977000Y-38637000D02*
X36994094Y-31546995D01*
D11*
X58855000Y-108970000D02*
X58855000Y-105970000D01*
X58855000Y-105970000D02*
X55455000Y-105970000D01*
X55455000Y-105970000D02*
X55455000Y-108970000D01*
X55455000Y-108970000D02*
X58855000Y-108970000D01*
X128705000Y-108970000D02*
X128705000Y-105970000D01*
X128705000Y-105970000D02*
X125305000Y-105970000D01*
X125305000Y-105970000D02*
X125305000Y-108970000D01*
X125305000Y-108970000D02*
X128705000Y-108970000D01*
X91650000Y-108970000D02*
X95050000Y-108970000D01*
X91650000Y-105970000D02*
X91650000Y-108970000D01*
X95050000Y-105970000D02*
X91650000Y-105970000D01*
X95050000Y-108970000D02*
X95050000Y-105970000D01*
X58855000Y-45345000D02*
X55455000Y-45345000D01*
X58855000Y-48345000D02*
X58855000Y-45345000D01*
X55455000Y-48345000D02*
X58855000Y-48345000D01*
X55455000Y-45345000D02*
X55455000Y-48345000D01*
X89745000Y-45345000D02*
X89745000Y-48345000D01*
X89745000Y-48345000D02*
X93145000Y-48345000D01*
X93145000Y-48345000D02*
X93145000Y-45345000D01*
X93145000Y-45345000D02*
X89745000Y-45345000D01*
X128705000Y-45345000D02*
X125305000Y-45345000D01*
X128705000Y-48345000D02*
X128705000Y-45345000D01*
X125305000Y-48345000D02*
X128705000Y-48345000D01*
X125305000Y-45345000D02*
X125305000Y-48345000D01*
M02*
