G04 #@! TF.GenerationSoftware,KiCad,Pcbnew,5.1.5+dfsg1-2build2*
G04 #@! TF.CreationDate,2021-01-30T19:33:43+09:00*
G04 #@! TF.ProjectId,rest,72657374-2e6b-4696-9361-645f70636258,rev?*
G04 #@! TF.SameCoordinates,Original*
G04 #@! TF.FileFunction,Copper,L2,Bot*
G04 #@! TF.FilePolarity,Positive*
%FSLAX46Y46*%
G04 Gerber Fmt 4.6, Leading zero omitted, Abs format (unit mm)*
G04 Created by KiCad (PCBNEW 5.1.5+dfsg1-2build2) date 2021-01-30 19:33:43*
%MOMM*%
%LPD*%
G04 APERTURE LIST*
%ADD10C,4.400000*%
%ADD11C,0.700000*%
%ADD12R,1.500000X1.000000*%
%ADD13C,1.700000*%
%ADD14C,0.500000*%
%ADD15C,0.250000*%
%ADD16C,0.254000*%
G04 APERTURE END LIST*
D10*
X77470000Y-26035000D03*
D11*
X79120000Y-26035000D03*
X78636726Y-27201726D03*
X77470000Y-27685000D03*
X76303274Y-27201726D03*
X75820000Y-26035000D03*
X76303274Y-24868274D03*
X77470000Y-24385000D03*
X78636726Y-24868274D03*
D10*
X177005906Y-26035000D03*
D11*
X178655906Y-26035000D03*
X178172632Y-27201726D03*
X177005906Y-27685000D03*
X175839180Y-27201726D03*
X175355906Y-26035000D03*
X175839180Y-24868274D03*
X177005906Y-24385000D03*
X178172632Y-24868274D03*
D10*
X177038000Y-110363000D03*
D11*
X178688000Y-110363000D03*
X178204726Y-111529726D03*
X177038000Y-112013000D03*
X175871274Y-111529726D03*
X175388000Y-110363000D03*
X175871274Y-109196274D03*
X177038000Y-108713000D03*
X178204726Y-109196274D03*
X48156726Y-97893274D03*
X46990000Y-97410000D03*
X45823274Y-97893274D03*
X45340000Y-99060000D03*
X45823274Y-100226726D03*
X46990000Y-100710000D03*
X48156726Y-100226726D03*
X48640000Y-99060000D03*
D10*
X46990000Y-99060000D03*
D12*
X84545000Y-51130000D03*
X84545000Y-47930000D03*
X89445000Y-51130000D03*
X89445000Y-47930000D03*
X118200000Y-51130000D03*
X118200000Y-47930000D03*
X123100000Y-51130000D03*
X123100000Y-47930000D03*
X159295000Y-47930000D03*
X159295000Y-51130000D03*
X154395000Y-47930000D03*
X154395000Y-51130000D03*
X159295000Y-95555000D03*
X159295000Y-98755000D03*
X154395000Y-95555000D03*
X154395000Y-98755000D03*
X125005000Y-95555000D03*
X125005000Y-98755000D03*
X120105000Y-95555000D03*
X120105000Y-98755000D03*
X84545000Y-98755000D03*
X84545000Y-95555000D03*
X89445000Y-98755000D03*
X89445000Y-95555000D03*
D13*
X72956126Y-46709601D02*
X73681762Y-47046429D01*
X73363911Y-42268462D02*
X74089547Y-42605290D01*
X69735734Y-40584319D02*
X70461370Y-40921147D01*
X67014602Y-39321212D02*
X67740238Y-39658040D01*
X67230571Y-45981231D02*
X67956207Y-46318059D01*
X64509439Y-44718124D02*
X65235075Y-45054952D01*
X73987664Y-44487343D02*
X74713300Y-44824171D01*
X70858747Y-47665374D02*
X71584383Y-48002202D01*
D14*
X85745001Y-47069999D02*
X85745001Y-48929999D01*
X83330759Y-44655757D02*
X85745001Y-47069999D01*
X84545000Y-50130000D02*
X84545000Y-51130000D01*
X85745001Y-48929999D02*
X84545000Y-50130000D01*
X74350482Y-44655757D02*
X83330759Y-44655757D01*
X123755000Y-95555000D02*
X125005000Y-95555000D01*
X91645001Y-94604999D02*
X122804999Y-94604999D01*
X90695000Y-95555000D02*
X91645001Y-94604999D01*
X122804999Y-94604999D02*
X123755000Y-95555000D01*
X89445000Y-95555000D02*
X90695000Y-95555000D01*
X158045000Y-95555000D02*
X159295000Y-95555000D01*
X157094999Y-94604999D02*
X158045000Y-95555000D01*
X126255000Y-95555000D02*
X127205001Y-94604999D01*
X125005000Y-95555000D02*
X126255000Y-95555000D01*
X115999999Y-52080001D02*
X116950000Y-51130000D01*
X86745001Y-52080001D02*
X115999999Y-52080001D01*
X85795000Y-51130000D02*
X86745001Y-52080001D01*
X116950000Y-51130000D02*
X118200000Y-51130000D01*
X84545000Y-51130000D02*
X85795000Y-51130000D01*
X153145000Y-51130000D02*
X154395000Y-51130000D01*
X119450000Y-52130000D02*
X152145000Y-52130000D01*
X152145000Y-52130000D02*
X153145000Y-51130000D01*
X118450000Y-51130000D02*
X119450000Y-52130000D01*
X118200000Y-51130000D02*
X118450000Y-51130000D01*
X154315001Y-91984999D02*
X154315001Y-94604999D01*
X154395000Y-91905000D02*
X154315001Y-91984999D01*
X154315001Y-94604999D02*
X157094999Y-94604999D01*
X154395000Y-51130000D02*
X154395000Y-91905000D01*
X127205001Y-94604999D02*
X154315001Y-94604999D01*
D15*
X84545000Y-48680000D02*
X84545000Y-47930000D01*
X84050894Y-49174106D02*
X84545000Y-48680000D01*
X69680740Y-49174106D02*
X84050894Y-49174106D01*
X67593389Y-47086755D02*
X69680740Y-49174106D01*
X67593389Y-46149645D02*
X67593389Y-47086755D01*
D14*
X89445000Y-46930000D02*
X89445000Y-47930000D01*
X84951876Y-42436876D02*
X89445000Y-46930000D01*
X73726729Y-42436876D02*
X84951876Y-42436876D01*
X121850000Y-47930000D02*
X123100000Y-47930000D01*
X120899999Y-46979999D02*
X121850000Y-47930000D01*
X91645001Y-46979999D02*
X120899999Y-46979999D01*
X90695000Y-47930000D02*
X91645001Y-46979999D01*
X89445000Y-47930000D02*
X90695000Y-47930000D01*
X157094999Y-46979999D02*
X158045000Y-47930000D01*
X124300001Y-46979999D02*
X157094999Y-46979999D01*
X123350000Y-47930000D02*
X124300001Y-46979999D01*
X158045000Y-47930000D02*
X159295000Y-47930000D01*
X123100000Y-47930000D02*
X123350000Y-47930000D01*
X152194999Y-99705001D02*
X122305001Y-99705001D01*
X121355000Y-98755000D02*
X120105000Y-98755000D01*
X153145000Y-98755000D02*
X152194999Y-99705001D01*
X122305001Y-99705001D02*
X121355000Y-98755000D01*
X154395000Y-98755000D02*
X153145000Y-98755000D01*
X85795000Y-98755000D02*
X84545000Y-98755000D01*
X86745001Y-99705001D02*
X85795000Y-98755000D01*
X117904999Y-99705001D02*
X86745001Y-99705001D01*
X118855000Y-98755000D02*
X117904999Y-99705001D01*
X120105000Y-98755000D02*
X118855000Y-98755000D01*
X160545000Y-47930000D02*
X159295000Y-47930000D01*
X160945011Y-48330011D02*
X160545000Y-47930000D01*
X160945011Y-99164991D02*
X160945011Y-48330011D01*
X160355002Y-99755000D02*
X160945011Y-99164991D01*
X155645000Y-99755000D02*
X160355002Y-99755000D01*
X154645000Y-98755000D02*
X155645000Y-99755000D01*
X154395000Y-98755000D02*
X154645000Y-98755000D01*
D15*
X89445000Y-50380000D02*
X89445000Y-51130000D01*
X91895000Y-47930000D02*
X89445000Y-50380000D01*
X118200000Y-47930000D02*
X91895000Y-47930000D01*
X160295000Y-98755000D02*
X159295000Y-98755000D01*
X160370001Y-98679999D02*
X160295000Y-98755000D01*
X160370001Y-51205001D02*
X160370001Y-98679999D01*
X160295000Y-51130000D02*
X160370001Y-51205001D01*
X159295000Y-51130000D02*
X160295000Y-51130000D01*
X126005000Y-98755000D02*
X125005000Y-98755000D01*
X151945000Y-98755000D02*
X126005000Y-98755000D01*
X154395000Y-96305000D02*
X151945000Y-98755000D01*
X154395000Y-95555000D02*
X154395000Y-96305000D01*
X90445000Y-98755000D02*
X89445000Y-98755000D01*
X117655000Y-98755000D02*
X90445000Y-98755000D01*
X120105000Y-96305000D02*
X117655000Y-98755000D01*
X120105000Y-95555000D02*
X120105000Y-96305000D01*
X123100000Y-50380000D02*
X123100000Y-51130000D01*
X125550000Y-47930000D02*
X123100000Y-50380000D01*
X154395000Y-47930000D02*
X125550000Y-47930000D01*
D16*
G36*
X183288000Y-26371594D02*
G01*
X183288001Y-110060775D01*
X176697010Y-116720251D01*
X71041404Y-117494885D01*
X58070320Y-110083777D01*
X174203000Y-110083777D01*
X174203000Y-110642223D01*
X174311948Y-111189939D01*
X174525656Y-111705876D01*
X174835912Y-112170207D01*
X175230793Y-112565088D01*
X175695124Y-112875344D01*
X176211061Y-113089052D01*
X176758777Y-113198000D01*
X177317223Y-113198000D01*
X177864939Y-113089052D01*
X178380876Y-112875344D01*
X178845207Y-112565088D01*
X179240088Y-112170207D01*
X179550344Y-111705876D01*
X179764052Y-111189939D01*
X179873000Y-110642223D01*
X179873000Y-110083777D01*
X179764052Y-109536061D01*
X179550344Y-109020124D01*
X179240088Y-108555793D01*
X178845207Y-108160912D01*
X178380876Y-107850656D01*
X177864939Y-107636948D01*
X177317223Y-107528000D01*
X176758777Y-107528000D01*
X176211061Y-107636948D01*
X175695124Y-107850656D01*
X175230793Y-108160912D01*
X174835912Y-108555793D01*
X174525656Y-109020124D01*
X174311948Y-109536061D01*
X174203000Y-110083777D01*
X58070320Y-110083777D01*
X41901046Y-100845364D01*
X42642844Y-98780777D01*
X44155000Y-98780777D01*
X44155000Y-99339223D01*
X44263948Y-99886939D01*
X44477656Y-100402876D01*
X44787912Y-100867207D01*
X45182793Y-101262088D01*
X45647124Y-101572344D01*
X46163061Y-101786052D01*
X46710777Y-101895000D01*
X47269223Y-101895000D01*
X47816939Y-101786052D01*
X48332876Y-101572344D01*
X48797207Y-101262088D01*
X49192088Y-100867207D01*
X49502344Y-100402876D01*
X49716052Y-99886939D01*
X49825000Y-99339223D01*
X49825000Y-98780777D01*
X49716052Y-98233061D01*
X49502344Y-97717124D01*
X49192088Y-97252793D01*
X48797207Y-96857912D01*
X48332876Y-96547656D01*
X47816939Y-96333948D01*
X47269223Y-96225000D01*
X46710777Y-96225000D01*
X46163061Y-96333948D01*
X45647124Y-96547656D01*
X45182793Y-96857912D01*
X44787912Y-97252793D01*
X44477656Y-97717124D01*
X44263948Y-98233061D01*
X44155000Y-98780777D01*
X42642844Y-98780777D01*
X43981502Y-95055000D01*
X83156928Y-95055000D01*
X83156928Y-96055000D01*
X83169188Y-96179482D01*
X83205498Y-96299180D01*
X83264463Y-96409494D01*
X83343815Y-96506185D01*
X83440506Y-96585537D01*
X83550820Y-96644502D01*
X83670518Y-96680812D01*
X83795000Y-96693072D01*
X85295000Y-96693072D01*
X85419482Y-96680812D01*
X85539180Y-96644502D01*
X85649494Y-96585537D01*
X85746185Y-96506185D01*
X85825537Y-96409494D01*
X85884502Y-96299180D01*
X85920812Y-96179482D01*
X85933072Y-96055000D01*
X88056928Y-96055000D01*
X88069188Y-96179482D01*
X88105498Y-96299180D01*
X88164463Y-96409494D01*
X88243815Y-96506185D01*
X88340506Y-96585537D01*
X88450820Y-96644502D01*
X88570518Y-96680812D01*
X88695000Y-96693072D01*
X89159250Y-96690000D01*
X89318000Y-96531250D01*
X89318000Y-95682000D01*
X89572000Y-95682000D01*
X89572000Y-96531250D01*
X89730750Y-96690000D01*
X90195000Y-96693072D01*
X90319482Y-96680812D01*
X90439180Y-96644502D01*
X90549494Y-96585537D01*
X90646185Y-96506185D01*
X90725537Y-96409494D01*
X90784502Y-96299180D01*
X90820812Y-96179482D01*
X90833072Y-96055000D01*
X90830000Y-95840750D01*
X90671250Y-95682000D01*
X89572000Y-95682000D01*
X89318000Y-95682000D01*
X88218750Y-95682000D01*
X88060000Y-95840750D01*
X88056928Y-96055000D01*
X85933072Y-96055000D01*
X85933072Y-95055000D01*
X88056928Y-95055000D01*
X88060000Y-95269250D01*
X88218750Y-95428000D01*
X89318000Y-95428000D01*
X89318000Y-94578750D01*
X89572000Y-94578750D01*
X89572000Y-95428000D01*
X90671250Y-95428000D01*
X90830000Y-95269250D01*
X90833072Y-95055000D01*
X90820812Y-94930518D01*
X90784502Y-94810820D01*
X90725537Y-94700506D01*
X90646185Y-94603815D01*
X90549494Y-94524463D01*
X90439180Y-94465498D01*
X90319482Y-94429188D01*
X90195000Y-94416928D01*
X89730750Y-94420000D01*
X89572000Y-94578750D01*
X89318000Y-94578750D01*
X89159250Y-94420000D01*
X88695000Y-94416928D01*
X88570518Y-94429188D01*
X88450820Y-94465498D01*
X88340506Y-94524463D01*
X88243815Y-94603815D01*
X88164463Y-94700506D01*
X88105498Y-94810820D01*
X88069188Y-94930518D01*
X88056928Y-95055000D01*
X85933072Y-95055000D01*
X85920812Y-94930518D01*
X85884502Y-94810820D01*
X85825537Y-94700506D01*
X85746185Y-94603815D01*
X85649494Y-94524463D01*
X85539180Y-94465498D01*
X85419482Y-94429188D01*
X85295000Y-94416928D01*
X83795000Y-94416928D01*
X83670518Y-94429188D01*
X83550820Y-94465498D01*
X83440506Y-94524463D01*
X83343815Y-94603815D01*
X83264463Y-94700506D01*
X83205498Y-94810820D01*
X83169188Y-94930518D01*
X83156928Y-95055000D01*
X43981502Y-95055000D01*
X59583950Y-51630000D01*
X83156928Y-51630000D01*
X83169188Y-51754482D01*
X83205498Y-51874180D01*
X83264463Y-51984494D01*
X83343815Y-52081185D01*
X83440506Y-52160537D01*
X83550820Y-52219502D01*
X83670518Y-52255812D01*
X83795000Y-52268072D01*
X84259250Y-52265000D01*
X84418000Y-52106250D01*
X84418000Y-51257000D01*
X84672000Y-51257000D01*
X84672000Y-52106250D01*
X84830750Y-52265000D01*
X85295000Y-52268072D01*
X85419482Y-52255812D01*
X85539180Y-52219502D01*
X85649494Y-52160537D01*
X85746185Y-52081185D01*
X85825537Y-51984494D01*
X85884502Y-51874180D01*
X85920812Y-51754482D01*
X85933072Y-51630000D01*
X85930000Y-51415750D01*
X85771250Y-51257000D01*
X84672000Y-51257000D01*
X84418000Y-51257000D01*
X83318750Y-51257000D01*
X83160000Y-51415750D01*
X83156928Y-51630000D01*
X59583950Y-51630000D01*
X59943246Y-50630000D01*
X83156928Y-50630000D01*
X83160000Y-50844250D01*
X83318750Y-51003000D01*
X84418000Y-51003000D01*
X84418000Y-50153750D01*
X84672000Y-50153750D01*
X84672000Y-51003000D01*
X85771250Y-51003000D01*
X85930000Y-50844250D01*
X85933072Y-50630000D01*
X85920812Y-50505518D01*
X85884502Y-50385820D01*
X85825537Y-50275506D01*
X85746185Y-50178815D01*
X85649494Y-50099463D01*
X85539180Y-50040498D01*
X85419482Y-50004188D01*
X85295000Y-49991928D01*
X84830750Y-49995000D01*
X84672000Y-50153750D01*
X84418000Y-50153750D01*
X84259250Y-49995000D01*
X83795000Y-49991928D01*
X83670518Y-50004188D01*
X83550820Y-50040498D01*
X83440506Y-50099463D01*
X83343815Y-50178815D01*
X83264463Y-50275506D01*
X83205498Y-50385820D01*
X83169188Y-50505518D01*
X83156928Y-50630000D01*
X59943246Y-50630000D01*
X61852621Y-45315797D01*
X63022128Y-42791535D01*
X63029310Y-42808873D01*
X63164466Y-43011148D01*
X63336486Y-43183168D01*
X63538761Y-43318324D01*
X63763517Y-43411421D01*
X63789548Y-43416599D01*
X63733108Y-43443792D01*
X63499414Y-43619733D01*
X63304536Y-43837884D01*
X63155961Y-44089863D01*
X63059400Y-44365985D01*
X63018564Y-44655640D01*
X63035020Y-44947696D01*
X63108138Y-45230929D01*
X63235107Y-45494455D01*
X63411048Y-45728149D01*
X63629199Y-45923027D01*
X63818034Y-46034370D01*
X64676006Y-46432627D01*
X64882935Y-46504991D01*
X65172589Y-46545827D01*
X65464646Y-46529371D01*
X65747879Y-46456253D01*
X65811592Y-46425556D01*
X65829270Y-46494036D01*
X65956239Y-46757562D01*
X66132180Y-46991256D01*
X66350331Y-47186134D01*
X66539166Y-47297477D01*
X66944947Y-47485834D01*
X66958415Y-47511031D01*
X67025186Y-47592391D01*
X67053389Y-47626756D01*
X67082387Y-47650554D01*
X69116941Y-49685109D01*
X69140739Y-49714107D01*
X69169737Y-49737905D01*
X69256463Y-49809080D01*
X69368561Y-49868998D01*
X69388493Y-49879652D01*
X69531754Y-49923109D01*
X69643407Y-49934106D01*
X69643416Y-49934106D01*
X69680739Y-49937782D01*
X69718062Y-49934106D01*
X84013572Y-49934106D01*
X84050894Y-49937782D01*
X84088216Y-49934106D01*
X84088227Y-49934106D01*
X84199880Y-49923109D01*
X84343141Y-49879652D01*
X84475170Y-49809080D01*
X84590895Y-49714107D01*
X84614697Y-49685104D01*
X85056003Y-49243798D01*
X85085001Y-49220001D01*
X85179974Y-49104276D01*
X85199326Y-49068072D01*
X85295000Y-49068072D01*
X85419482Y-49055812D01*
X85539180Y-49019502D01*
X85649494Y-48960537D01*
X85746185Y-48881185D01*
X85825537Y-48784494D01*
X85884502Y-48674180D01*
X85920812Y-48554482D01*
X85933072Y-48430000D01*
X85933072Y-47430000D01*
X85920812Y-47305518D01*
X85884502Y-47185820D01*
X85825537Y-47075506D01*
X85746185Y-46978815D01*
X85649494Y-46899463D01*
X85539180Y-46840498D01*
X85419482Y-46804188D01*
X85295000Y-46791928D01*
X83795000Y-46791928D01*
X83670518Y-46804188D01*
X83550820Y-46840498D01*
X83440506Y-46899463D01*
X83343815Y-46978815D01*
X83264463Y-47075506D01*
X83205498Y-47185820D01*
X83169188Y-47305518D01*
X83156928Y-47430000D01*
X83156928Y-48414106D01*
X74263657Y-48414106D01*
X74311362Y-48397341D01*
X74562814Y-48248555D01*
X74780407Y-48053571D01*
X74838980Y-47977057D01*
X74825729Y-47717456D01*
X73380667Y-47046681D01*
X73372246Y-47064822D01*
X73141857Y-46957879D01*
X73150278Y-46939738D01*
X72884337Y-46816292D01*
X73487610Y-46816292D01*
X74932672Y-47487067D01*
X75139507Y-47329627D01*
X75160142Y-47235503D01*
X75168622Y-46943453D01*
X75119963Y-46655359D01*
X75016034Y-46382294D01*
X74956731Y-46287709D01*
X75067252Y-46271954D01*
X75342900Y-46175083D01*
X75594352Y-46026297D01*
X75811945Y-45831313D01*
X75870518Y-45754799D01*
X75857267Y-45495198D01*
X74412205Y-44824423D01*
X73840438Y-46056189D01*
X73487610Y-46816292D01*
X72884337Y-46816292D01*
X71705216Y-46268963D01*
X71581055Y-46363473D01*
X71417814Y-46287699D01*
X71210886Y-46215335D01*
X71146769Y-46206296D01*
X71260328Y-46130418D01*
X71432348Y-45958398D01*
X71552236Y-45778973D01*
X71798908Y-45778973D01*
X71812159Y-46038574D01*
X73257221Y-46709349D01*
X73610049Y-45949246D01*
X73616573Y-45935192D01*
X73828988Y-45477583D01*
X74181816Y-44717480D01*
X72736754Y-44046705D01*
X72529919Y-44204145D01*
X72509284Y-44298269D01*
X72500804Y-44590319D01*
X72549463Y-44878413D01*
X72653392Y-45151478D01*
X72712695Y-45246063D01*
X72602174Y-45261818D01*
X72326526Y-45358689D01*
X72075074Y-45507475D01*
X71857481Y-45702459D01*
X71798908Y-45778973D01*
X71552236Y-45778973D01*
X71567504Y-45756123D01*
X71660601Y-45531367D01*
X71708061Y-45292768D01*
X71708061Y-45049494D01*
X71660601Y-44810895D01*
X71633366Y-44745143D01*
X71794866Y-44678247D01*
X71997141Y-44543091D01*
X72169161Y-44371071D01*
X72304317Y-44168796D01*
X72397414Y-43944040D01*
X72444874Y-43705441D01*
X72444874Y-43462167D01*
X72439199Y-43433638D01*
X72483671Y-43473365D01*
X72672506Y-43584708D01*
X72835743Y-43660480D01*
X72843697Y-43816316D01*
X74288759Y-44487091D01*
X74297180Y-44468950D01*
X74527569Y-44575893D01*
X74519148Y-44594034D01*
X75964210Y-45264809D01*
X76171045Y-45107369D01*
X76191680Y-45013245D01*
X76200160Y-44721195D01*
X76151501Y-44433101D01*
X76047572Y-44160036D01*
X75892368Y-43912494D01*
X75691853Y-43699988D01*
X75453732Y-43530683D01*
X75307775Y-43462932D01*
X75390945Y-43321876D01*
X84585298Y-43321876D01*
X88243103Y-46979682D01*
X88164463Y-47075506D01*
X88105498Y-47185820D01*
X88069188Y-47305518D01*
X88056928Y-47430000D01*
X88056928Y-48430000D01*
X88069188Y-48554482D01*
X88105498Y-48674180D01*
X88164463Y-48784494D01*
X88243815Y-48881185D01*
X88340506Y-48960537D01*
X88450820Y-49019502D01*
X88570518Y-49055812D01*
X88695000Y-49068072D01*
X89682127Y-49068072D01*
X88934003Y-49816196D01*
X88904999Y-49839999D01*
X88872457Y-49879652D01*
X88810026Y-49955724D01*
X88790674Y-49991928D01*
X88695000Y-49991928D01*
X88570518Y-50004188D01*
X88450820Y-50040498D01*
X88340506Y-50099463D01*
X88243815Y-50178815D01*
X88164463Y-50275506D01*
X88105498Y-50385820D01*
X88069188Y-50505518D01*
X88056928Y-50630000D01*
X88056928Y-51630000D01*
X88069188Y-51754482D01*
X88105498Y-51874180D01*
X88164463Y-51984494D01*
X88243815Y-52081185D01*
X88340506Y-52160537D01*
X88450820Y-52219502D01*
X88570518Y-52255812D01*
X88695000Y-52268072D01*
X90195000Y-52268072D01*
X90319482Y-52255812D01*
X90439180Y-52219502D01*
X90549494Y-52160537D01*
X90646185Y-52081185D01*
X90725537Y-51984494D01*
X90784502Y-51874180D01*
X90820812Y-51754482D01*
X90833072Y-51630000D01*
X116811928Y-51630000D01*
X116824188Y-51754482D01*
X116860498Y-51874180D01*
X116919463Y-51984494D01*
X116998815Y-52081185D01*
X117095506Y-52160537D01*
X117205820Y-52219502D01*
X117325518Y-52255812D01*
X117450000Y-52268072D01*
X117914250Y-52265000D01*
X118073000Y-52106250D01*
X118073000Y-51257000D01*
X118327000Y-51257000D01*
X118327000Y-52106250D01*
X118485750Y-52265000D01*
X118950000Y-52268072D01*
X119074482Y-52255812D01*
X119194180Y-52219502D01*
X119304494Y-52160537D01*
X119401185Y-52081185D01*
X119480537Y-51984494D01*
X119539502Y-51874180D01*
X119575812Y-51754482D01*
X119588072Y-51630000D01*
X119585000Y-51415750D01*
X119426250Y-51257000D01*
X118327000Y-51257000D01*
X118073000Y-51257000D01*
X116973750Y-51257000D01*
X116815000Y-51415750D01*
X116811928Y-51630000D01*
X90833072Y-51630000D01*
X90833072Y-50630000D01*
X116811928Y-50630000D01*
X116815000Y-50844250D01*
X116973750Y-51003000D01*
X118073000Y-51003000D01*
X118073000Y-50153750D01*
X118327000Y-50153750D01*
X118327000Y-51003000D01*
X119426250Y-51003000D01*
X119585000Y-50844250D01*
X119588072Y-50630000D01*
X119575812Y-50505518D01*
X119539502Y-50385820D01*
X119480537Y-50275506D01*
X119401185Y-50178815D01*
X119304494Y-50099463D01*
X119194180Y-50040498D01*
X119074482Y-50004188D01*
X118950000Y-49991928D01*
X118485750Y-49995000D01*
X118327000Y-50153750D01*
X118073000Y-50153750D01*
X117914250Y-49995000D01*
X117450000Y-49991928D01*
X117325518Y-50004188D01*
X117205820Y-50040498D01*
X117095506Y-50099463D01*
X116998815Y-50178815D01*
X116919463Y-50275506D01*
X116860498Y-50385820D01*
X116824188Y-50505518D01*
X116811928Y-50630000D01*
X90833072Y-50630000D01*
X90820812Y-50505518D01*
X90784502Y-50385820D01*
X90725537Y-50275506D01*
X90679902Y-50219899D01*
X92209802Y-48690000D01*
X116868954Y-48690000D01*
X116919463Y-48784494D01*
X116998815Y-48881185D01*
X117095506Y-48960537D01*
X117205820Y-49019502D01*
X117325518Y-49055812D01*
X117450000Y-49068072D01*
X118950000Y-49068072D01*
X119074482Y-49055812D01*
X119194180Y-49019502D01*
X119304494Y-48960537D01*
X119401185Y-48881185D01*
X119480537Y-48784494D01*
X119539502Y-48674180D01*
X119575812Y-48554482D01*
X119588072Y-48430000D01*
X119588072Y-47864999D01*
X120533421Y-47864999D01*
X121193470Y-48525049D01*
X121221183Y-48558817D01*
X121254951Y-48586530D01*
X121254953Y-48586532D01*
X121308483Y-48630463D01*
X121355941Y-48669411D01*
X121509687Y-48751589D01*
X121676510Y-48802195D01*
X121806523Y-48815000D01*
X121806533Y-48815000D01*
X121847837Y-48819068D01*
X121898815Y-48881185D01*
X121995506Y-48960537D01*
X122105820Y-49019502D01*
X122225518Y-49055812D01*
X122350000Y-49068072D01*
X123337127Y-49068072D01*
X122589003Y-49816196D01*
X122559999Y-49839999D01*
X122527457Y-49879652D01*
X122465026Y-49955724D01*
X122445674Y-49991928D01*
X122350000Y-49991928D01*
X122225518Y-50004188D01*
X122105820Y-50040498D01*
X121995506Y-50099463D01*
X121898815Y-50178815D01*
X121819463Y-50275506D01*
X121760498Y-50385820D01*
X121724188Y-50505518D01*
X121711928Y-50630000D01*
X121711928Y-51630000D01*
X121724188Y-51754482D01*
X121760498Y-51874180D01*
X121819463Y-51984494D01*
X121898815Y-52081185D01*
X121995506Y-52160537D01*
X122105820Y-52219502D01*
X122225518Y-52255812D01*
X122350000Y-52268072D01*
X123850000Y-52268072D01*
X123974482Y-52255812D01*
X124094180Y-52219502D01*
X124204494Y-52160537D01*
X124301185Y-52081185D01*
X124380537Y-51984494D01*
X124439502Y-51874180D01*
X124475812Y-51754482D01*
X124488072Y-51630000D01*
X153006928Y-51630000D01*
X153019188Y-51754482D01*
X153055498Y-51874180D01*
X153114463Y-51984494D01*
X153193815Y-52081185D01*
X153290506Y-52160537D01*
X153400820Y-52219502D01*
X153520518Y-52255812D01*
X153645000Y-52268072D01*
X154109250Y-52265000D01*
X154268000Y-52106250D01*
X154268000Y-51257000D01*
X154522000Y-51257000D01*
X154522000Y-52106250D01*
X154680750Y-52265000D01*
X155145000Y-52268072D01*
X155269482Y-52255812D01*
X155389180Y-52219502D01*
X155499494Y-52160537D01*
X155596185Y-52081185D01*
X155675537Y-51984494D01*
X155734502Y-51874180D01*
X155770812Y-51754482D01*
X155783072Y-51630000D01*
X155780000Y-51415750D01*
X155621250Y-51257000D01*
X154522000Y-51257000D01*
X154268000Y-51257000D01*
X153168750Y-51257000D01*
X153010000Y-51415750D01*
X153006928Y-51630000D01*
X124488072Y-51630000D01*
X124488072Y-50630000D01*
X153006928Y-50630000D01*
X153010000Y-50844250D01*
X153168750Y-51003000D01*
X154268000Y-51003000D01*
X154268000Y-50153750D01*
X154522000Y-50153750D01*
X154522000Y-51003000D01*
X155621250Y-51003000D01*
X155780000Y-50844250D01*
X155783072Y-50630000D01*
X155770812Y-50505518D01*
X155734502Y-50385820D01*
X155675537Y-50275506D01*
X155596185Y-50178815D01*
X155499494Y-50099463D01*
X155389180Y-50040498D01*
X155269482Y-50004188D01*
X155145000Y-49991928D01*
X154680750Y-49995000D01*
X154522000Y-50153750D01*
X154268000Y-50153750D01*
X154109250Y-49995000D01*
X153645000Y-49991928D01*
X153520518Y-50004188D01*
X153400820Y-50040498D01*
X153290506Y-50099463D01*
X153193815Y-50178815D01*
X153114463Y-50275506D01*
X153055498Y-50385820D01*
X153019188Y-50505518D01*
X153006928Y-50630000D01*
X124488072Y-50630000D01*
X124475812Y-50505518D01*
X124439502Y-50385820D01*
X124380537Y-50275506D01*
X124334902Y-50219899D01*
X125864802Y-48690000D01*
X153063954Y-48690000D01*
X153114463Y-48784494D01*
X153193815Y-48881185D01*
X153290506Y-48960537D01*
X153400820Y-49019502D01*
X153520518Y-49055812D01*
X153645000Y-49068072D01*
X155145000Y-49068072D01*
X155269482Y-49055812D01*
X155389180Y-49019502D01*
X155499494Y-48960537D01*
X155596185Y-48881185D01*
X155675537Y-48784494D01*
X155734502Y-48674180D01*
X155770812Y-48554482D01*
X155783072Y-48430000D01*
X155783072Y-47864999D01*
X156728421Y-47864999D01*
X157388470Y-48525049D01*
X157416183Y-48558817D01*
X157449951Y-48586530D01*
X157449953Y-48586532D01*
X157503483Y-48630463D01*
X157550941Y-48669411D01*
X157704687Y-48751589D01*
X157871510Y-48802195D01*
X158001523Y-48815000D01*
X158001533Y-48815000D01*
X158042837Y-48819068D01*
X158093815Y-48881185D01*
X158190506Y-48960537D01*
X158300820Y-49019502D01*
X158420518Y-49055812D01*
X158545000Y-49068072D01*
X160045000Y-49068072D01*
X160060012Y-49066593D01*
X160060012Y-49993407D01*
X160045000Y-49991928D01*
X158545000Y-49991928D01*
X158420518Y-50004188D01*
X158300820Y-50040498D01*
X158190506Y-50099463D01*
X158093815Y-50178815D01*
X158014463Y-50275506D01*
X157955498Y-50385820D01*
X157919188Y-50505518D01*
X157906928Y-50630000D01*
X157906928Y-51630000D01*
X157919188Y-51754482D01*
X157955498Y-51874180D01*
X158014463Y-51984494D01*
X158093815Y-52081185D01*
X158190506Y-52160537D01*
X158300820Y-52219502D01*
X158420518Y-52255812D01*
X158545000Y-52268072D01*
X159610001Y-52268072D01*
X159610002Y-94419806D01*
X159580750Y-94420000D01*
X159422000Y-94578750D01*
X159422000Y-95428000D01*
X159442000Y-95428000D01*
X159442000Y-95682000D01*
X159422000Y-95682000D01*
X159422000Y-96531250D01*
X159580750Y-96690000D01*
X159610002Y-96690194D01*
X159610002Y-97616928D01*
X158545000Y-97616928D01*
X158420518Y-97629188D01*
X158300820Y-97665498D01*
X158190506Y-97724463D01*
X158093815Y-97803815D01*
X158014463Y-97900506D01*
X157955498Y-98010820D01*
X157919188Y-98130518D01*
X157906928Y-98255000D01*
X157906928Y-98870000D01*
X156011579Y-98870000D01*
X155783072Y-98641493D01*
X155783072Y-98255000D01*
X155770812Y-98130518D01*
X155734502Y-98010820D01*
X155675537Y-97900506D01*
X155596185Y-97803815D01*
X155499494Y-97724463D01*
X155389180Y-97665498D01*
X155269482Y-97629188D01*
X155145000Y-97616928D01*
X154157874Y-97616928D01*
X154906003Y-96868799D01*
X154935001Y-96845001D01*
X155029974Y-96729276D01*
X155049326Y-96693072D01*
X155145000Y-96693072D01*
X155269482Y-96680812D01*
X155389180Y-96644502D01*
X155499494Y-96585537D01*
X155596185Y-96506185D01*
X155675537Y-96409494D01*
X155734502Y-96299180D01*
X155770812Y-96179482D01*
X155783072Y-96055000D01*
X157906928Y-96055000D01*
X157919188Y-96179482D01*
X157955498Y-96299180D01*
X158014463Y-96409494D01*
X158093815Y-96506185D01*
X158190506Y-96585537D01*
X158300820Y-96644502D01*
X158420518Y-96680812D01*
X158545000Y-96693072D01*
X159009250Y-96690000D01*
X159168000Y-96531250D01*
X159168000Y-95682000D01*
X158068750Y-95682000D01*
X157910000Y-95840750D01*
X157906928Y-96055000D01*
X155783072Y-96055000D01*
X155783072Y-95055000D01*
X157906928Y-95055000D01*
X157910000Y-95269250D01*
X158068750Y-95428000D01*
X159168000Y-95428000D01*
X159168000Y-94578750D01*
X159009250Y-94420000D01*
X158545000Y-94416928D01*
X158420518Y-94429188D01*
X158300820Y-94465498D01*
X158190506Y-94524463D01*
X158093815Y-94603815D01*
X158014463Y-94700506D01*
X157955498Y-94810820D01*
X157919188Y-94930518D01*
X157906928Y-95055000D01*
X155783072Y-95055000D01*
X155770812Y-94930518D01*
X155734502Y-94810820D01*
X155675537Y-94700506D01*
X155596185Y-94603815D01*
X155499494Y-94524463D01*
X155389180Y-94465498D01*
X155269482Y-94429188D01*
X155145000Y-94416928D01*
X153645000Y-94416928D01*
X153520518Y-94429188D01*
X153400820Y-94465498D01*
X153290506Y-94524463D01*
X153193815Y-94603815D01*
X153114463Y-94700506D01*
X153055498Y-94810820D01*
X153019188Y-94930518D01*
X153006928Y-95055000D01*
X153006928Y-96055000D01*
X153019188Y-96179482D01*
X153055498Y-96299180D01*
X153114463Y-96409494D01*
X153160098Y-96465100D01*
X151630199Y-97995000D01*
X126336046Y-97995000D01*
X126285537Y-97900506D01*
X126206185Y-97803815D01*
X126109494Y-97724463D01*
X125999180Y-97665498D01*
X125879482Y-97629188D01*
X125755000Y-97616928D01*
X124255000Y-97616928D01*
X124130518Y-97629188D01*
X124010820Y-97665498D01*
X123900506Y-97724463D01*
X123803815Y-97803815D01*
X123724463Y-97900506D01*
X123665498Y-98010820D01*
X123629188Y-98130518D01*
X123616928Y-98255000D01*
X123616928Y-98820001D01*
X122671580Y-98820001D01*
X122011534Y-98159956D01*
X121983817Y-98126183D01*
X121849059Y-98015589D01*
X121695313Y-97933411D01*
X121528490Y-97882805D01*
X121398477Y-97870000D01*
X121398469Y-97870000D01*
X121357163Y-97865932D01*
X121306185Y-97803815D01*
X121209494Y-97724463D01*
X121099180Y-97665498D01*
X120979482Y-97629188D01*
X120855000Y-97616928D01*
X119867874Y-97616928D01*
X120616003Y-96868799D01*
X120645001Y-96845001D01*
X120739974Y-96729276D01*
X120759326Y-96693072D01*
X120855000Y-96693072D01*
X120979482Y-96680812D01*
X121099180Y-96644502D01*
X121209494Y-96585537D01*
X121306185Y-96506185D01*
X121385537Y-96409494D01*
X121444502Y-96299180D01*
X121480812Y-96179482D01*
X121493072Y-96055000D01*
X123616928Y-96055000D01*
X123629188Y-96179482D01*
X123665498Y-96299180D01*
X123724463Y-96409494D01*
X123803815Y-96506185D01*
X123900506Y-96585537D01*
X124010820Y-96644502D01*
X124130518Y-96680812D01*
X124255000Y-96693072D01*
X124719250Y-96690000D01*
X124878000Y-96531250D01*
X124878000Y-95682000D01*
X125132000Y-95682000D01*
X125132000Y-96531250D01*
X125290750Y-96690000D01*
X125755000Y-96693072D01*
X125879482Y-96680812D01*
X125999180Y-96644502D01*
X126109494Y-96585537D01*
X126206185Y-96506185D01*
X126285537Y-96409494D01*
X126344502Y-96299180D01*
X126380812Y-96179482D01*
X126393072Y-96055000D01*
X126390000Y-95840750D01*
X126231250Y-95682000D01*
X125132000Y-95682000D01*
X124878000Y-95682000D01*
X123778750Y-95682000D01*
X123620000Y-95840750D01*
X123616928Y-96055000D01*
X121493072Y-96055000D01*
X121493072Y-95055000D01*
X123616928Y-95055000D01*
X123620000Y-95269250D01*
X123778750Y-95428000D01*
X124878000Y-95428000D01*
X124878000Y-94578750D01*
X125132000Y-94578750D01*
X125132000Y-95428000D01*
X126231250Y-95428000D01*
X126390000Y-95269250D01*
X126393072Y-95055000D01*
X126380812Y-94930518D01*
X126344502Y-94810820D01*
X126285537Y-94700506D01*
X126206185Y-94603815D01*
X126109494Y-94524463D01*
X125999180Y-94465498D01*
X125879482Y-94429188D01*
X125755000Y-94416928D01*
X125290750Y-94420000D01*
X125132000Y-94578750D01*
X124878000Y-94578750D01*
X124719250Y-94420000D01*
X124255000Y-94416928D01*
X124130518Y-94429188D01*
X124010820Y-94465498D01*
X123900506Y-94524463D01*
X123803815Y-94603815D01*
X123724463Y-94700506D01*
X123665498Y-94810820D01*
X123629188Y-94930518D01*
X123616928Y-95055000D01*
X121493072Y-95055000D01*
X121480812Y-94930518D01*
X121444502Y-94810820D01*
X121385537Y-94700506D01*
X121306185Y-94603815D01*
X121209494Y-94524463D01*
X121099180Y-94465498D01*
X120979482Y-94429188D01*
X120855000Y-94416928D01*
X119355000Y-94416928D01*
X119230518Y-94429188D01*
X119110820Y-94465498D01*
X119000506Y-94524463D01*
X118903815Y-94603815D01*
X118824463Y-94700506D01*
X118765498Y-94810820D01*
X118729188Y-94930518D01*
X118716928Y-95055000D01*
X118716928Y-96055000D01*
X118729188Y-96179482D01*
X118765498Y-96299180D01*
X118824463Y-96409494D01*
X118870098Y-96465100D01*
X117340199Y-97995000D01*
X90776046Y-97995000D01*
X90725537Y-97900506D01*
X90646185Y-97803815D01*
X90549494Y-97724463D01*
X90439180Y-97665498D01*
X90319482Y-97629188D01*
X90195000Y-97616928D01*
X88695000Y-97616928D01*
X88570518Y-97629188D01*
X88450820Y-97665498D01*
X88340506Y-97724463D01*
X88243815Y-97803815D01*
X88164463Y-97900506D01*
X88105498Y-98010820D01*
X88069188Y-98130518D01*
X88056928Y-98255000D01*
X88056928Y-98820001D01*
X87111580Y-98820001D01*
X86451534Y-98159956D01*
X86423817Y-98126183D01*
X86289059Y-98015589D01*
X86135313Y-97933411D01*
X85968490Y-97882805D01*
X85838477Y-97870000D01*
X85838469Y-97870000D01*
X85797163Y-97865932D01*
X85746185Y-97803815D01*
X85649494Y-97724463D01*
X85539180Y-97665498D01*
X85419482Y-97629188D01*
X85295000Y-97616928D01*
X83795000Y-97616928D01*
X83670518Y-97629188D01*
X83550820Y-97665498D01*
X83440506Y-97724463D01*
X83343815Y-97803815D01*
X83264463Y-97900506D01*
X83205498Y-98010820D01*
X83169188Y-98130518D01*
X83156928Y-98255000D01*
X83156928Y-99255000D01*
X83169188Y-99379482D01*
X83205498Y-99499180D01*
X83264463Y-99609494D01*
X83343815Y-99706185D01*
X83440506Y-99785537D01*
X83550820Y-99844502D01*
X83670518Y-99880812D01*
X83795000Y-99893072D01*
X85295000Y-99893072D01*
X85419482Y-99880812D01*
X85539180Y-99844502D01*
X85600270Y-99811848D01*
X86088471Y-100300050D01*
X86116184Y-100333818D01*
X86149952Y-100361531D01*
X86149954Y-100361533D01*
X86177107Y-100383817D01*
X86250942Y-100444412D01*
X86404688Y-100526590D01*
X86571511Y-100577196D01*
X86701524Y-100590001D01*
X86701534Y-100590001D01*
X86745000Y-100594282D01*
X86788466Y-100590001D01*
X117861530Y-100590001D01*
X117904999Y-100594282D01*
X117948468Y-100590001D01*
X117948476Y-100590001D01*
X118078489Y-100577196D01*
X118245312Y-100526590D01*
X118399058Y-100444412D01*
X118533816Y-100333818D01*
X118561533Y-100300045D01*
X119049730Y-99811848D01*
X119110820Y-99844502D01*
X119230518Y-99880812D01*
X119355000Y-99893072D01*
X120855000Y-99893072D01*
X120979482Y-99880812D01*
X121099180Y-99844502D01*
X121160270Y-99811848D01*
X121648471Y-100300050D01*
X121676184Y-100333818D01*
X121709952Y-100361531D01*
X121709954Y-100361533D01*
X121737107Y-100383817D01*
X121810942Y-100444412D01*
X121964688Y-100526590D01*
X122131511Y-100577196D01*
X122261524Y-100590001D01*
X122261534Y-100590001D01*
X122305000Y-100594282D01*
X122348466Y-100590001D01*
X152151530Y-100590001D01*
X152194999Y-100594282D01*
X152238468Y-100590001D01*
X152238476Y-100590001D01*
X152368489Y-100577196D01*
X152535312Y-100526590D01*
X152689058Y-100444412D01*
X152823816Y-100333818D01*
X152851533Y-100300045D01*
X153339730Y-99811848D01*
X153400820Y-99844502D01*
X153520518Y-99880812D01*
X153645000Y-99893072D01*
X154531493Y-99893072D01*
X154988470Y-100350049D01*
X155016183Y-100383817D01*
X155049951Y-100411530D01*
X155049953Y-100411532D01*
X155150941Y-100494411D01*
X155304686Y-100576589D01*
X155424670Y-100612986D01*
X155471510Y-100627195D01*
X155601523Y-100640000D01*
X155601531Y-100640000D01*
X155645000Y-100644281D01*
X155688469Y-100640000D01*
X160311533Y-100640000D01*
X160355002Y-100644281D01*
X160398471Y-100640000D01*
X160398479Y-100640000D01*
X160528492Y-100627195D01*
X160695315Y-100576589D01*
X160849061Y-100494411D01*
X160983819Y-100383817D01*
X161011536Y-100350044D01*
X161540056Y-99821524D01*
X161573828Y-99793808D01*
X161684422Y-99659050D01*
X161766600Y-99505304D01*
X161817206Y-99338481D01*
X161830011Y-99208468D01*
X161830011Y-99208460D01*
X161834292Y-99164991D01*
X161830011Y-99121522D01*
X161830011Y-48373480D01*
X161834292Y-48330011D01*
X161830011Y-48286542D01*
X161830011Y-48286534D01*
X161817206Y-48156521D01*
X161812195Y-48140000D01*
X161793686Y-48078987D01*
X161766600Y-47989698D01*
X161684422Y-47835952D01*
X161573828Y-47701194D01*
X161540055Y-47673477D01*
X161201532Y-47334954D01*
X161173817Y-47301183D01*
X161039059Y-47190589D01*
X160885313Y-47108411D01*
X160718490Y-47057805D01*
X160588477Y-47045000D01*
X160588469Y-47045000D01*
X160547163Y-47040932D01*
X160496185Y-46978815D01*
X160399494Y-46899463D01*
X160289180Y-46840498D01*
X160169482Y-46804188D01*
X160045000Y-46791928D01*
X158545000Y-46791928D01*
X158420518Y-46804188D01*
X158300820Y-46840498D01*
X158239730Y-46873152D01*
X157751533Y-46384955D01*
X157723816Y-46351182D01*
X157589058Y-46240588D01*
X157435312Y-46158410D01*
X157268489Y-46107804D01*
X157138476Y-46094999D01*
X157138468Y-46094999D01*
X157094999Y-46090718D01*
X157051530Y-46094999D01*
X124343466Y-46094999D01*
X124300000Y-46090718D01*
X124256534Y-46094999D01*
X124256524Y-46094999D01*
X124126511Y-46107804D01*
X123959688Y-46158410D01*
X123805942Y-46240588D01*
X123805940Y-46240589D01*
X123805941Y-46240589D01*
X123704954Y-46323467D01*
X123704952Y-46323469D01*
X123671184Y-46351182D01*
X123643471Y-46384950D01*
X123236493Y-46791928D01*
X122350000Y-46791928D01*
X122225518Y-46804188D01*
X122105820Y-46840498D01*
X122044730Y-46873152D01*
X121556533Y-46384955D01*
X121528816Y-46351182D01*
X121394058Y-46240588D01*
X121240312Y-46158410D01*
X121073489Y-46107804D01*
X120943476Y-46094999D01*
X120943468Y-46094999D01*
X120899999Y-46090718D01*
X120856530Y-46094999D01*
X91688466Y-46094999D01*
X91645000Y-46090718D01*
X91601534Y-46094999D01*
X91601524Y-46094999D01*
X91471511Y-46107804D01*
X91304688Y-46158410D01*
X91150942Y-46240588D01*
X91150940Y-46240589D01*
X91150941Y-46240589D01*
X91049954Y-46323467D01*
X91049952Y-46323469D01*
X91016184Y-46351182D01*
X90988471Y-46384950D01*
X90500270Y-46873152D01*
X90439180Y-46840498D01*
X90321965Y-46804941D01*
X90317195Y-46756510D01*
X90266589Y-46589687D01*
X90184411Y-46435941D01*
X90120997Y-46358671D01*
X90101532Y-46334953D01*
X90101530Y-46334951D01*
X90073817Y-46301183D01*
X90040050Y-46273472D01*
X85608410Y-41841832D01*
X85580693Y-41808059D01*
X85445935Y-41697465D01*
X85292189Y-41615287D01*
X85125366Y-41564681D01*
X84995353Y-41551876D01*
X84995345Y-41551876D01*
X84951876Y-41547595D01*
X84908407Y-41551876D01*
X75139367Y-41551876D01*
X74969787Y-41400387D01*
X74780952Y-41289044D01*
X73922978Y-40890787D01*
X73716050Y-40818423D01*
X73426395Y-40777587D01*
X73134339Y-40794043D01*
X72851106Y-40867161D01*
X72587580Y-40994130D01*
X72353886Y-41170071D01*
X72159008Y-41388222D01*
X72010433Y-41640201D01*
X71913872Y-41916323D01*
X71873036Y-42205978D01*
X71889492Y-42498034D01*
X71906511Y-42563960D01*
X71794866Y-42489361D01*
X71570110Y-42396264D01*
X71331511Y-42348804D01*
X71088237Y-42348804D01*
X70849638Y-42396264D01*
X70624882Y-42489361D01*
X70422607Y-42624517D01*
X70250587Y-42796537D01*
X70115431Y-42998812D01*
X70022334Y-43223568D01*
X69974874Y-43462167D01*
X69974874Y-43705441D01*
X70022334Y-43944040D01*
X70049569Y-44009792D01*
X69888069Y-44076688D01*
X69685794Y-44211844D01*
X69513774Y-44383864D01*
X69378618Y-44586139D01*
X69285521Y-44810895D01*
X69238061Y-45049494D01*
X69238061Y-45292768D01*
X69285521Y-45531367D01*
X69378618Y-45756123D01*
X69513774Y-45958398D01*
X69685794Y-46130418D01*
X69888069Y-46265574D01*
X70112825Y-46358671D01*
X70138856Y-46363849D01*
X70082416Y-46391042D01*
X69848722Y-46566983D01*
X69653844Y-46785134D01*
X69505269Y-47037113D01*
X69408708Y-47313235D01*
X69367872Y-47602890D01*
X69378832Y-47797396D01*
X68981167Y-47399732D01*
X69161110Y-47198299D01*
X69309684Y-46946320D01*
X69406245Y-46670198D01*
X69447082Y-46380543D01*
X69430625Y-46088486D01*
X69357508Y-45805254D01*
X69230539Y-45541727D01*
X69054597Y-45308034D01*
X68836447Y-45113156D01*
X68647612Y-45001813D01*
X67789638Y-44603556D01*
X67582710Y-44531192D01*
X67293055Y-44490356D01*
X67000999Y-44506812D01*
X66717766Y-44579930D01*
X66654054Y-44610627D01*
X66636376Y-44542147D01*
X66509407Y-44278620D01*
X66333465Y-44044927D01*
X66115315Y-43850049D01*
X65926480Y-43738706D01*
X65068506Y-43340449D01*
X64861578Y-43268085D01*
X64797461Y-43259046D01*
X64911020Y-43183168D01*
X65083040Y-43011148D01*
X65218196Y-42808873D01*
X65311293Y-42584117D01*
X65358753Y-42345518D01*
X65358753Y-42102244D01*
X65311293Y-41863645D01*
X65284058Y-41797893D01*
X65445558Y-41730997D01*
X65647833Y-41595841D01*
X65819853Y-41423821D01*
X65955009Y-41221546D01*
X66048106Y-40996790D01*
X66095566Y-40758191D01*
X66095566Y-40514917D01*
X66089891Y-40486389D01*
X66134362Y-40526115D01*
X66323197Y-40637458D01*
X67181169Y-41035715D01*
X67388098Y-41108079D01*
X67677752Y-41148915D01*
X67969809Y-41132459D01*
X68253042Y-41059341D01*
X68316755Y-41028644D01*
X68334433Y-41097124D01*
X68461402Y-41360650D01*
X68637343Y-41594344D01*
X68855494Y-41789222D01*
X69044329Y-41900565D01*
X69902301Y-42298822D01*
X70109230Y-42371186D01*
X70398884Y-42412022D01*
X70690941Y-42395566D01*
X70974174Y-42322448D01*
X71237701Y-42195479D01*
X71471395Y-42019538D01*
X71666273Y-41801387D01*
X71814847Y-41549408D01*
X71911408Y-41273286D01*
X71952245Y-40983631D01*
X71935788Y-40691574D01*
X71862671Y-40408342D01*
X71735702Y-40144815D01*
X71559760Y-39911122D01*
X71341610Y-39716244D01*
X71152775Y-39604901D01*
X70294801Y-39206644D01*
X70087873Y-39134280D01*
X69798218Y-39093444D01*
X69506162Y-39109900D01*
X69222929Y-39183018D01*
X69159217Y-39213715D01*
X69141539Y-39145235D01*
X69014570Y-38881708D01*
X68838628Y-38648015D01*
X68620478Y-38453137D01*
X68431643Y-38341794D01*
X67573669Y-37943537D01*
X67366741Y-37871173D01*
X67077086Y-37830337D01*
X66785030Y-37846793D01*
X66501797Y-37919911D01*
X66238271Y-38046880D01*
X66004577Y-38222821D01*
X65809699Y-38440972D01*
X65661124Y-38692951D01*
X65564563Y-38969073D01*
X65523727Y-39258728D01*
X65540183Y-39550784D01*
X65557202Y-39616709D01*
X65445558Y-39542111D01*
X65220802Y-39449014D01*
X64982203Y-39401554D01*
X64738929Y-39401554D01*
X64577888Y-39433587D01*
X70914906Y-25755777D01*
X74635000Y-25755777D01*
X74635000Y-26314223D01*
X74743948Y-26861939D01*
X74957656Y-27377876D01*
X75267912Y-27842207D01*
X75662793Y-28237088D01*
X76127124Y-28547344D01*
X76643061Y-28761052D01*
X77190777Y-28870000D01*
X77749223Y-28870000D01*
X78296939Y-28761052D01*
X78812876Y-28547344D01*
X79277207Y-28237088D01*
X79672088Y-27842207D01*
X79982344Y-27377876D01*
X80196052Y-26861939D01*
X80305000Y-26314223D01*
X80305000Y-25755777D01*
X174170906Y-25755777D01*
X174170906Y-26314223D01*
X174279854Y-26861939D01*
X174493562Y-27377876D01*
X174803818Y-27842207D01*
X175198699Y-28237088D01*
X175663030Y-28547344D01*
X176178967Y-28761052D01*
X176726683Y-28870000D01*
X177285129Y-28870000D01*
X177832845Y-28761052D01*
X178348782Y-28547344D01*
X178813113Y-28237088D01*
X179207994Y-27842207D01*
X179518250Y-27377876D01*
X179731958Y-26861939D01*
X179840906Y-26314223D01*
X179840906Y-25755777D01*
X179731958Y-25208061D01*
X179518250Y-24692124D01*
X179207994Y-24227793D01*
X178813113Y-23832912D01*
X178348782Y-23522656D01*
X177832845Y-23308948D01*
X177285129Y-23200000D01*
X176726683Y-23200000D01*
X176178967Y-23308948D01*
X175663030Y-23522656D01*
X175198699Y-23832912D01*
X174803818Y-24227793D01*
X174493562Y-24692124D01*
X174279854Y-25208061D01*
X174170906Y-25755777D01*
X80305000Y-25755777D01*
X80196052Y-25208061D01*
X79982344Y-24692124D01*
X79672088Y-24227793D01*
X79277207Y-23832912D01*
X78812876Y-23522656D01*
X78296939Y-23308948D01*
X77749223Y-23200000D01*
X77190777Y-23200000D01*
X76643061Y-23308948D01*
X76127124Y-23522656D01*
X75662793Y-23832912D01*
X75267912Y-24227793D01*
X74957656Y-24692124D01*
X74743948Y-25208061D01*
X74635000Y-25755777D01*
X70914906Y-25755777D01*
X73673505Y-19801622D01*
X176701985Y-19801622D01*
X183288000Y-26371594D01*
G37*
X183288000Y-26371594D02*
X183288001Y-110060775D01*
X176697010Y-116720251D01*
X71041404Y-117494885D01*
X58070320Y-110083777D01*
X174203000Y-110083777D01*
X174203000Y-110642223D01*
X174311948Y-111189939D01*
X174525656Y-111705876D01*
X174835912Y-112170207D01*
X175230793Y-112565088D01*
X175695124Y-112875344D01*
X176211061Y-113089052D01*
X176758777Y-113198000D01*
X177317223Y-113198000D01*
X177864939Y-113089052D01*
X178380876Y-112875344D01*
X178845207Y-112565088D01*
X179240088Y-112170207D01*
X179550344Y-111705876D01*
X179764052Y-111189939D01*
X179873000Y-110642223D01*
X179873000Y-110083777D01*
X179764052Y-109536061D01*
X179550344Y-109020124D01*
X179240088Y-108555793D01*
X178845207Y-108160912D01*
X178380876Y-107850656D01*
X177864939Y-107636948D01*
X177317223Y-107528000D01*
X176758777Y-107528000D01*
X176211061Y-107636948D01*
X175695124Y-107850656D01*
X175230793Y-108160912D01*
X174835912Y-108555793D01*
X174525656Y-109020124D01*
X174311948Y-109536061D01*
X174203000Y-110083777D01*
X58070320Y-110083777D01*
X41901046Y-100845364D01*
X42642844Y-98780777D01*
X44155000Y-98780777D01*
X44155000Y-99339223D01*
X44263948Y-99886939D01*
X44477656Y-100402876D01*
X44787912Y-100867207D01*
X45182793Y-101262088D01*
X45647124Y-101572344D01*
X46163061Y-101786052D01*
X46710777Y-101895000D01*
X47269223Y-101895000D01*
X47816939Y-101786052D01*
X48332876Y-101572344D01*
X48797207Y-101262088D01*
X49192088Y-100867207D01*
X49502344Y-100402876D01*
X49716052Y-99886939D01*
X49825000Y-99339223D01*
X49825000Y-98780777D01*
X49716052Y-98233061D01*
X49502344Y-97717124D01*
X49192088Y-97252793D01*
X48797207Y-96857912D01*
X48332876Y-96547656D01*
X47816939Y-96333948D01*
X47269223Y-96225000D01*
X46710777Y-96225000D01*
X46163061Y-96333948D01*
X45647124Y-96547656D01*
X45182793Y-96857912D01*
X44787912Y-97252793D01*
X44477656Y-97717124D01*
X44263948Y-98233061D01*
X44155000Y-98780777D01*
X42642844Y-98780777D01*
X43981502Y-95055000D01*
X83156928Y-95055000D01*
X83156928Y-96055000D01*
X83169188Y-96179482D01*
X83205498Y-96299180D01*
X83264463Y-96409494D01*
X83343815Y-96506185D01*
X83440506Y-96585537D01*
X83550820Y-96644502D01*
X83670518Y-96680812D01*
X83795000Y-96693072D01*
X85295000Y-96693072D01*
X85419482Y-96680812D01*
X85539180Y-96644502D01*
X85649494Y-96585537D01*
X85746185Y-96506185D01*
X85825537Y-96409494D01*
X85884502Y-96299180D01*
X85920812Y-96179482D01*
X85933072Y-96055000D01*
X88056928Y-96055000D01*
X88069188Y-96179482D01*
X88105498Y-96299180D01*
X88164463Y-96409494D01*
X88243815Y-96506185D01*
X88340506Y-96585537D01*
X88450820Y-96644502D01*
X88570518Y-96680812D01*
X88695000Y-96693072D01*
X89159250Y-96690000D01*
X89318000Y-96531250D01*
X89318000Y-95682000D01*
X89572000Y-95682000D01*
X89572000Y-96531250D01*
X89730750Y-96690000D01*
X90195000Y-96693072D01*
X90319482Y-96680812D01*
X90439180Y-96644502D01*
X90549494Y-96585537D01*
X90646185Y-96506185D01*
X90725537Y-96409494D01*
X90784502Y-96299180D01*
X90820812Y-96179482D01*
X90833072Y-96055000D01*
X90830000Y-95840750D01*
X90671250Y-95682000D01*
X89572000Y-95682000D01*
X89318000Y-95682000D01*
X88218750Y-95682000D01*
X88060000Y-95840750D01*
X88056928Y-96055000D01*
X85933072Y-96055000D01*
X85933072Y-95055000D01*
X88056928Y-95055000D01*
X88060000Y-95269250D01*
X88218750Y-95428000D01*
X89318000Y-95428000D01*
X89318000Y-94578750D01*
X89572000Y-94578750D01*
X89572000Y-95428000D01*
X90671250Y-95428000D01*
X90830000Y-95269250D01*
X90833072Y-95055000D01*
X90820812Y-94930518D01*
X90784502Y-94810820D01*
X90725537Y-94700506D01*
X90646185Y-94603815D01*
X90549494Y-94524463D01*
X90439180Y-94465498D01*
X90319482Y-94429188D01*
X90195000Y-94416928D01*
X89730750Y-94420000D01*
X89572000Y-94578750D01*
X89318000Y-94578750D01*
X89159250Y-94420000D01*
X88695000Y-94416928D01*
X88570518Y-94429188D01*
X88450820Y-94465498D01*
X88340506Y-94524463D01*
X88243815Y-94603815D01*
X88164463Y-94700506D01*
X88105498Y-94810820D01*
X88069188Y-94930518D01*
X88056928Y-95055000D01*
X85933072Y-95055000D01*
X85920812Y-94930518D01*
X85884502Y-94810820D01*
X85825537Y-94700506D01*
X85746185Y-94603815D01*
X85649494Y-94524463D01*
X85539180Y-94465498D01*
X85419482Y-94429188D01*
X85295000Y-94416928D01*
X83795000Y-94416928D01*
X83670518Y-94429188D01*
X83550820Y-94465498D01*
X83440506Y-94524463D01*
X83343815Y-94603815D01*
X83264463Y-94700506D01*
X83205498Y-94810820D01*
X83169188Y-94930518D01*
X83156928Y-95055000D01*
X43981502Y-95055000D01*
X59583950Y-51630000D01*
X83156928Y-51630000D01*
X83169188Y-51754482D01*
X83205498Y-51874180D01*
X83264463Y-51984494D01*
X83343815Y-52081185D01*
X83440506Y-52160537D01*
X83550820Y-52219502D01*
X83670518Y-52255812D01*
X83795000Y-52268072D01*
X84259250Y-52265000D01*
X84418000Y-52106250D01*
X84418000Y-51257000D01*
X84672000Y-51257000D01*
X84672000Y-52106250D01*
X84830750Y-52265000D01*
X85295000Y-52268072D01*
X85419482Y-52255812D01*
X85539180Y-52219502D01*
X85649494Y-52160537D01*
X85746185Y-52081185D01*
X85825537Y-51984494D01*
X85884502Y-51874180D01*
X85920812Y-51754482D01*
X85933072Y-51630000D01*
X85930000Y-51415750D01*
X85771250Y-51257000D01*
X84672000Y-51257000D01*
X84418000Y-51257000D01*
X83318750Y-51257000D01*
X83160000Y-51415750D01*
X83156928Y-51630000D01*
X59583950Y-51630000D01*
X59943246Y-50630000D01*
X83156928Y-50630000D01*
X83160000Y-50844250D01*
X83318750Y-51003000D01*
X84418000Y-51003000D01*
X84418000Y-50153750D01*
X84672000Y-50153750D01*
X84672000Y-51003000D01*
X85771250Y-51003000D01*
X85930000Y-50844250D01*
X85933072Y-50630000D01*
X85920812Y-50505518D01*
X85884502Y-50385820D01*
X85825537Y-50275506D01*
X85746185Y-50178815D01*
X85649494Y-50099463D01*
X85539180Y-50040498D01*
X85419482Y-50004188D01*
X85295000Y-49991928D01*
X84830750Y-49995000D01*
X84672000Y-50153750D01*
X84418000Y-50153750D01*
X84259250Y-49995000D01*
X83795000Y-49991928D01*
X83670518Y-50004188D01*
X83550820Y-50040498D01*
X83440506Y-50099463D01*
X83343815Y-50178815D01*
X83264463Y-50275506D01*
X83205498Y-50385820D01*
X83169188Y-50505518D01*
X83156928Y-50630000D01*
X59943246Y-50630000D01*
X61852621Y-45315797D01*
X63022128Y-42791535D01*
X63029310Y-42808873D01*
X63164466Y-43011148D01*
X63336486Y-43183168D01*
X63538761Y-43318324D01*
X63763517Y-43411421D01*
X63789548Y-43416599D01*
X63733108Y-43443792D01*
X63499414Y-43619733D01*
X63304536Y-43837884D01*
X63155961Y-44089863D01*
X63059400Y-44365985D01*
X63018564Y-44655640D01*
X63035020Y-44947696D01*
X63108138Y-45230929D01*
X63235107Y-45494455D01*
X63411048Y-45728149D01*
X63629199Y-45923027D01*
X63818034Y-46034370D01*
X64676006Y-46432627D01*
X64882935Y-46504991D01*
X65172589Y-46545827D01*
X65464646Y-46529371D01*
X65747879Y-46456253D01*
X65811592Y-46425556D01*
X65829270Y-46494036D01*
X65956239Y-46757562D01*
X66132180Y-46991256D01*
X66350331Y-47186134D01*
X66539166Y-47297477D01*
X66944947Y-47485834D01*
X66958415Y-47511031D01*
X67025186Y-47592391D01*
X67053389Y-47626756D01*
X67082387Y-47650554D01*
X69116941Y-49685109D01*
X69140739Y-49714107D01*
X69169737Y-49737905D01*
X69256463Y-49809080D01*
X69368561Y-49868998D01*
X69388493Y-49879652D01*
X69531754Y-49923109D01*
X69643407Y-49934106D01*
X69643416Y-49934106D01*
X69680739Y-49937782D01*
X69718062Y-49934106D01*
X84013572Y-49934106D01*
X84050894Y-49937782D01*
X84088216Y-49934106D01*
X84088227Y-49934106D01*
X84199880Y-49923109D01*
X84343141Y-49879652D01*
X84475170Y-49809080D01*
X84590895Y-49714107D01*
X84614697Y-49685104D01*
X85056003Y-49243798D01*
X85085001Y-49220001D01*
X85179974Y-49104276D01*
X85199326Y-49068072D01*
X85295000Y-49068072D01*
X85419482Y-49055812D01*
X85539180Y-49019502D01*
X85649494Y-48960537D01*
X85746185Y-48881185D01*
X85825537Y-48784494D01*
X85884502Y-48674180D01*
X85920812Y-48554482D01*
X85933072Y-48430000D01*
X85933072Y-47430000D01*
X85920812Y-47305518D01*
X85884502Y-47185820D01*
X85825537Y-47075506D01*
X85746185Y-46978815D01*
X85649494Y-46899463D01*
X85539180Y-46840498D01*
X85419482Y-46804188D01*
X85295000Y-46791928D01*
X83795000Y-46791928D01*
X83670518Y-46804188D01*
X83550820Y-46840498D01*
X83440506Y-46899463D01*
X83343815Y-46978815D01*
X83264463Y-47075506D01*
X83205498Y-47185820D01*
X83169188Y-47305518D01*
X83156928Y-47430000D01*
X83156928Y-48414106D01*
X74263657Y-48414106D01*
X74311362Y-48397341D01*
X74562814Y-48248555D01*
X74780407Y-48053571D01*
X74838980Y-47977057D01*
X74825729Y-47717456D01*
X73380667Y-47046681D01*
X73372246Y-47064822D01*
X73141857Y-46957879D01*
X73150278Y-46939738D01*
X72884337Y-46816292D01*
X73487610Y-46816292D01*
X74932672Y-47487067D01*
X75139507Y-47329627D01*
X75160142Y-47235503D01*
X75168622Y-46943453D01*
X75119963Y-46655359D01*
X75016034Y-46382294D01*
X74956731Y-46287709D01*
X75067252Y-46271954D01*
X75342900Y-46175083D01*
X75594352Y-46026297D01*
X75811945Y-45831313D01*
X75870518Y-45754799D01*
X75857267Y-45495198D01*
X74412205Y-44824423D01*
X73840438Y-46056189D01*
X73487610Y-46816292D01*
X72884337Y-46816292D01*
X71705216Y-46268963D01*
X71581055Y-46363473D01*
X71417814Y-46287699D01*
X71210886Y-46215335D01*
X71146769Y-46206296D01*
X71260328Y-46130418D01*
X71432348Y-45958398D01*
X71552236Y-45778973D01*
X71798908Y-45778973D01*
X71812159Y-46038574D01*
X73257221Y-46709349D01*
X73610049Y-45949246D01*
X73616573Y-45935192D01*
X73828988Y-45477583D01*
X74181816Y-44717480D01*
X72736754Y-44046705D01*
X72529919Y-44204145D01*
X72509284Y-44298269D01*
X72500804Y-44590319D01*
X72549463Y-44878413D01*
X72653392Y-45151478D01*
X72712695Y-45246063D01*
X72602174Y-45261818D01*
X72326526Y-45358689D01*
X72075074Y-45507475D01*
X71857481Y-45702459D01*
X71798908Y-45778973D01*
X71552236Y-45778973D01*
X71567504Y-45756123D01*
X71660601Y-45531367D01*
X71708061Y-45292768D01*
X71708061Y-45049494D01*
X71660601Y-44810895D01*
X71633366Y-44745143D01*
X71794866Y-44678247D01*
X71997141Y-44543091D01*
X72169161Y-44371071D01*
X72304317Y-44168796D01*
X72397414Y-43944040D01*
X72444874Y-43705441D01*
X72444874Y-43462167D01*
X72439199Y-43433638D01*
X72483671Y-43473365D01*
X72672506Y-43584708D01*
X72835743Y-43660480D01*
X72843697Y-43816316D01*
X74288759Y-44487091D01*
X74297180Y-44468950D01*
X74527569Y-44575893D01*
X74519148Y-44594034D01*
X75964210Y-45264809D01*
X76171045Y-45107369D01*
X76191680Y-45013245D01*
X76200160Y-44721195D01*
X76151501Y-44433101D01*
X76047572Y-44160036D01*
X75892368Y-43912494D01*
X75691853Y-43699988D01*
X75453732Y-43530683D01*
X75307775Y-43462932D01*
X75390945Y-43321876D01*
X84585298Y-43321876D01*
X88243103Y-46979682D01*
X88164463Y-47075506D01*
X88105498Y-47185820D01*
X88069188Y-47305518D01*
X88056928Y-47430000D01*
X88056928Y-48430000D01*
X88069188Y-48554482D01*
X88105498Y-48674180D01*
X88164463Y-48784494D01*
X88243815Y-48881185D01*
X88340506Y-48960537D01*
X88450820Y-49019502D01*
X88570518Y-49055812D01*
X88695000Y-49068072D01*
X89682127Y-49068072D01*
X88934003Y-49816196D01*
X88904999Y-49839999D01*
X88872457Y-49879652D01*
X88810026Y-49955724D01*
X88790674Y-49991928D01*
X88695000Y-49991928D01*
X88570518Y-50004188D01*
X88450820Y-50040498D01*
X88340506Y-50099463D01*
X88243815Y-50178815D01*
X88164463Y-50275506D01*
X88105498Y-50385820D01*
X88069188Y-50505518D01*
X88056928Y-50630000D01*
X88056928Y-51630000D01*
X88069188Y-51754482D01*
X88105498Y-51874180D01*
X88164463Y-51984494D01*
X88243815Y-52081185D01*
X88340506Y-52160537D01*
X88450820Y-52219502D01*
X88570518Y-52255812D01*
X88695000Y-52268072D01*
X90195000Y-52268072D01*
X90319482Y-52255812D01*
X90439180Y-52219502D01*
X90549494Y-52160537D01*
X90646185Y-52081185D01*
X90725537Y-51984494D01*
X90784502Y-51874180D01*
X90820812Y-51754482D01*
X90833072Y-51630000D01*
X116811928Y-51630000D01*
X116824188Y-51754482D01*
X116860498Y-51874180D01*
X116919463Y-51984494D01*
X116998815Y-52081185D01*
X117095506Y-52160537D01*
X117205820Y-52219502D01*
X117325518Y-52255812D01*
X117450000Y-52268072D01*
X117914250Y-52265000D01*
X118073000Y-52106250D01*
X118073000Y-51257000D01*
X118327000Y-51257000D01*
X118327000Y-52106250D01*
X118485750Y-52265000D01*
X118950000Y-52268072D01*
X119074482Y-52255812D01*
X119194180Y-52219502D01*
X119304494Y-52160537D01*
X119401185Y-52081185D01*
X119480537Y-51984494D01*
X119539502Y-51874180D01*
X119575812Y-51754482D01*
X119588072Y-51630000D01*
X119585000Y-51415750D01*
X119426250Y-51257000D01*
X118327000Y-51257000D01*
X118073000Y-51257000D01*
X116973750Y-51257000D01*
X116815000Y-51415750D01*
X116811928Y-51630000D01*
X90833072Y-51630000D01*
X90833072Y-50630000D01*
X116811928Y-50630000D01*
X116815000Y-50844250D01*
X116973750Y-51003000D01*
X118073000Y-51003000D01*
X118073000Y-50153750D01*
X118327000Y-50153750D01*
X118327000Y-51003000D01*
X119426250Y-51003000D01*
X119585000Y-50844250D01*
X119588072Y-50630000D01*
X119575812Y-50505518D01*
X119539502Y-50385820D01*
X119480537Y-50275506D01*
X119401185Y-50178815D01*
X119304494Y-50099463D01*
X119194180Y-50040498D01*
X119074482Y-50004188D01*
X118950000Y-49991928D01*
X118485750Y-49995000D01*
X118327000Y-50153750D01*
X118073000Y-50153750D01*
X117914250Y-49995000D01*
X117450000Y-49991928D01*
X117325518Y-50004188D01*
X117205820Y-50040498D01*
X117095506Y-50099463D01*
X116998815Y-50178815D01*
X116919463Y-50275506D01*
X116860498Y-50385820D01*
X116824188Y-50505518D01*
X116811928Y-50630000D01*
X90833072Y-50630000D01*
X90820812Y-50505518D01*
X90784502Y-50385820D01*
X90725537Y-50275506D01*
X90679902Y-50219899D01*
X92209802Y-48690000D01*
X116868954Y-48690000D01*
X116919463Y-48784494D01*
X116998815Y-48881185D01*
X117095506Y-48960537D01*
X117205820Y-49019502D01*
X117325518Y-49055812D01*
X117450000Y-49068072D01*
X118950000Y-49068072D01*
X119074482Y-49055812D01*
X119194180Y-49019502D01*
X119304494Y-48960537D01*
X119401185Y-48881185D01*
X119480537Y-48784494D01*
X119539502Y-48674180D01*
X119575812Y-48554482D01*
X119588072Y-48430000D01*
X119588072Y-47864999D01*
X120533421Y-47864999D01*
X121193470Y-48525049D01*
X121221183Y-48558817D01*
X121254951Y-48586530D01*
X121254953Y-48586532D01*
X121308483Y-48630463D01*
X121355941Y-48669411D01*
X121509687Y-48751589D01*
X121676510Y-48802195D01*
X121806523Y-48815000D01*
X121806533Y-48815000D01*
X121847837Y-48819068D01*
X121898815Y-48881185D01*
X121995506Y-48960537D01*
X122105820Y-49019502D01*
X122225518Y-49055812D01*
X122350000Y-49068072D01*
X123337127Y-49068072D01*
X122589003Y-49816196D01*
X122559999Y-49839999D01*
X122527457Y-49879652D01*
X122465026Y-49955724D01*
X122445674Y-49991928D01*
X122350000Y-49991928D01*
X122225518Y-50004188D01*
X122105820Y-50040498D01*
X121995506Y-50099463D01*
X121898815Y-50178815D01*
X121819463Y-50275506D01*
X121760498Y-50385820D01*
X121724188Y-50505518D01*
X121711928Y-50630000D01*
X121711928Y-51630000D01*
X121724188Y-51754482D01*
X121760498Y-51874180D01*
X121819463Y-51984494D01*
X121898815Y-52081185D01*
X121995506Y-52160537D01*
X122105820Y-52219502D01*
X122225518Y-52255812D01*
X122350000Y-52268072D01*
X123850000Y-52268072D01*
X123974482Y-52255812D01*
X124094180Y-52219502D01*
X124204494Y-52160537D01*
X124301185Y-52081185D01*
X124380537Y-51984494D01*
X124439502Y-51874180D01*
X124475812Y-51754482D01*
X124488072Y-51630000D01*
X153006928Y-51630000D01*
X153019188Y-51754482D01*
X153055498Y-51874180D01*
X153114463Y-51984494D01*
X153193815Y-52081185D01*
X153290506Y-52160537D01*
X153400820Y-52219502D01*
X153520518Y-52255812D01*
X153645000Y-52268072D01*
X154109250Y-52265000D01*
X154268000Y-52106250D01*
X154268000Y-51257000D01*
X154522000Y-51257000D01*
X154522000Y-52106250D01*
X154680750Y-52265000D01*
X155145000Y-52268072D01*
X155269482Y-52255812D01*
X155389180Y-52219502D01*
X155499494Y-52160537D01*
X155596185Y-52081185D01*
X155675537Y-51984494D01*
X155734502Y-51874180D01*
X155770812Y-51754482D01*
X155783072Y-51630000D01*
X155780000Y-51415750D01*
X155621250Y-51257000D01*
X154522000Y-51257000D01*
X154268000Y-51257000D01*
X153168750Y-51257000D01*
X153010000Y-51415750D01*
X153006928Y-51630000D01*
X124488072Y-51630000D01*
X124488072Y-50630000D01*
X153006928Y-50630000D01*
X153010000Y-50844250D01*
X153168750Y-51003000D01*
X154268000Y-51003000D01*
X154268000Y-50153750D01*
X154522000Y-50153750D01*
X154522000Y-51003000D01*
X155621250Y-51003000D01*
X155780000Y-50844250D01*
X155783072Y-50630000D01*
X155770812Y-50505518D01*
X155734502Y-50385820D01*
X155675537Y-50275506D01*
X155596185Y-50178815D01*
X155499494Y-50099463D01*
X155389180Y-50040498D01*
X155269482Y-50004188D01*
X155145000Y-49991928D01*
X154680750Y-49995000D01*
X154522000Y-50153750D01*
X154268000Y-50153750D01*
X154109250Y-49995000D01*
X153645000Y-49991928D01*
X153520518Y-50004188D01*
X153400820Y-50040498D01*
X153290506Y-50099463D01*
X153193815Y-50178815D01*
X153114463Y-50275506D01*
X153055498Y-50385820D01*
X153019188Y-50505518D01*
X153006928Y-50630000D01*
X124488072Y-50630000D01*
X124475812Y-50505518D01*
X124439502Y-50385820D01*
X124380537Y-50275506D01*
X124334902Y-50219899D01*
X125864802Y-48690000D01*
X153063954Y-48690000D01*
X153114463Y-48784494D01*
X153193815Y-48881185D01*
X153290506Y-48960537D01*
X153400820Y-49019502D01*
X153520518Y-49055812D01*
X153645000Y-49068072D01*
X155145000Y-49068072D01*
X155269482Y-49055812D01*
X155389180Y-49019502D01*
X155499494Y-48960537D01*
X155596185Y-48881185D01*
X155675537Y-48784494D01*
X155734502Y-48674180D01*
X155770812Y-48554482D01*
X155783072Y-48430000D01*
X155783072Y-47864999D01*
X156728421Y-47864999D01*
X157388470Y-48525049D01*
X157416183Y-48558817D01*
X157449951Y-48586530D01*
X157449953Y-48586532D01*
X157503483Y-48630463D01*
X157550941Y-48669411D01*
X157704687Y-48751589D01*
X157871510Y-48802195D01*
X158001523Y-48815000D01*
X158001533Y-48815000D01*
X158042837Y-48819068D01*
X158093815Y-48881185D01*
X158190506Y-48960537D01*
X158300820Y-49019502D01*
X158420518Y-49055812D01*
X158545000Y-49068072D01*
X160045000Y-49068072D01*
X160060012Y-49066593D01*
X160060012Y-49993407D01*
X160045000Y-49991928D01*
X158545000Y-49991928D01*
X158420518Y-50004188D01*
X158300820Y-50040498D01*
X158190506Y-50099463D01*
X158093815Y-50178815D01*
X158014463Y-50275506D01*
X157955498Y-50385820D01*
X157919188Y-50505518D01*
X157906928Y-50630000D01*
X157906928Y-51630000D01*
X157919188Y-51754482D01*
X157955498Y-51874180D01*
X158014463Y-51984494D01*
X158093815Y-52081185D01*
X158190506Y-52160537D01*
X158300820Y-52219502D01*
X158420518Y-52255812D01*
X158545000Y-52268072D01*
X159610001Y-52268072D01*
X159610002Y-94419806D01*
X159580750Y-94420000D01*
X159422000Y-94578750D01*
X159422000Y-95428000D01*
X159442000Y-95428000D01*
X159442000Y-95682000D01*
X159422000Y-95682000D01*
X159422000Y-96531250D01*
X159580750Y-96690000D01*
X159610002Y-96690194D01*
X159610002Y-97616928D01*
X158545000Y-97616928D01*
X158420518Y-97629188D01*
X158300820Y-97665498D01*
X158190506Y-97724463D01*
X158093815Y-97803815D01*
X158014463Y-97900506D01*
X157955498Y-98010820D01*
X157919188Y-98130518D01*
X157906928Y-98255000D01*
X157906928Y-98870000D01*
X156011579Y-98870000D01*
X155783072Y-98641493D01*
X155783072Y-98255000D01*
X155770812Y-98130518D01*
X155734502Y-98010820D01*
X155675537Y-97900506D01*
X155596185Y-97803815D01*
X155499494Y-97724463D01*
X155389180Y-97665498D01*
X155269482Y-97629188D01*
X155145000Y-97616928D01*
X154157874Y-97616928D01*
X154906003Y-96868799D01*
X154935001Y-96845001D01*
X155029974Y-96729276D01*
X155049326Y-96693072D01*
X155145000Y-96693072D01*
X155269482Y-96680812D01*
X155389180Y-96644502D01*
X155499494Y-96585537D01*
X155596185Y-96506185D01*
X155675537Y-96409494D01*
X155734502Y-96299180D01*
X155770812Y-96179482D01*
X155783072Y-96055000D01*
X157906928Y-96055000D01*
X157919188Y-96179482D01*
X157955498Y-96299180D01*
X158014463Y-96409494D01*
X158093815Y-96506185D01*
X158190506Y-96585537D01*
X158300820Y-96644502D01*
X158420518Y-96680812D01*
X158545000Y-96693072D01*
X159009250Y-96690000D01*
X159168000Y-96531250D01*
X159168000Y-95682000D01*
X158068750Y-95682000D01*
X157910000Y-95840750D01*
X157906928Y-96055000D01*
X155783072Y-96055000D01*
X155783072Y-95055000D01*
X157906928Y-95055000D01*
X157910000Y-95269250D01*
X158068750Y-95428000D01*
X159168000Y-95428000D01*
X159168000Y-94578750D01*
X159009250Y-94420000D01*
X158545000Y-94416928D01*
X158420518Y-94429188D01*
X158300820Y-94465498D01*
X158190506Y-94524463D01*
X158093815Y-94603815D01*
X158014463Y-94700506D01*
X157955498Y-94810820D01*
X157919188Y-94930518D01*
X157906928Y-95055000D01*
X155783072Y-95055000D01*
X155770812Y-94930518D01*
X155734502Y-94810820D01*
X155675537Y-94700506D01*
X155596185Y-94603815D01*
X155499494Y-94524463D01*
X155389180Y-94465498D01*
X155269482Y-94429188D01*
X155145000Y-94416928D01*
X153645000Y-94416928D01*
X153520518Y-94429188D01*
X153400820Y-94465498D01*
X153290506Y-94524463D01*
X153193815Y-94603815D01*
X153114463Y-94700506D01*
X153055498Y-94810820D01*
X153019188Y-94930518D01*
X153006928Y-95055000D01*
X153006928Y-96055000D01*
X153019188Y-96179482D01*
X153055498Y-96299180D01*
X153114463Y-96409494D01*
X153160098Y-96465100D01*
X151630199Y-97995000D01*
X126336046Y-97995000D01*
X126285537Y-97900506D01*
X126206185Y-97803815D01*
X126109494Y-97724463D01*
X125999180Y-97665498D01*
X125879482Y-97629188D01*
X125755000Y-97616928D01*
X124255000Y-97616928D01*
X124130518Y-97629188D01*
X124010820Y-97665498D01*
X123900506Y-97724463D01*
X123803815Y-97803815D01*
X123724463Y-97900506D01*
X123665498Y-98010820D01*
X123629188Y-98130518D01*
X123616928Y-98255000D01*
X123616928Y-98820001D01*
X122671580Y-98820001D01*
X122011534Y-98159956D01*
X121983817Y-98126183D01*
X121849059Y-98015589D01*
X121695313Y-97933411D01*
X121528490Y-97882805D01*
X121398477Y-97870000D01*
X121398469Y-97870000D01*
X121357163Y-97865932D01*
X121306185Y-97803815D01*
X121209494Y-97724463D01*
X121099180Y-97665498D01*
X120979482Y-97629188D01*
X120855000Y-97616928D01*
X119867874Y-97616928D01*
X120616003Y-96868799D01*
X120645001Y-96845001D01*
X120739974Y-96729276D01*
X120759326Y-96693072D01*
X120855000Y-96693072D01*
X120979482Y-96680812D01*
X121099180Y-96644502D01*
X121209494Y-96585537D01*
X121306185Y-96506185D01*
X121385537Y-96409494D01*
X121444502Y-96299180D01*
X121480812Y-96179482D01*
X121493072Y-96055000D01*
X123616928Y-96055000D01*
X123629188Y-96179482D01*
X123665498Y-96299180D01*
X123724463Y-96409494D01*
X123803815Y-96506185D01*
X123900506Y-96585537D01*
X124010820Y-96644502D01*
X124130518Y-96680812D01*
X124255000Y-96693072D01*
X124719250Y-96690000D01*
X124878000Y-96531250D01*
X124878000Y-95682000D01*
X125132000Y-95682000D01*
X125132000Y-96531250D01*
X125290750Y-96690000D01*
X125755000Y-96693072D01*
X125879482Y-96680812D01*
X125999180Y-96644502D01*
X126109494Y-96585537D01*
X126206185Y-96506185D01*
X126285537Y-96409494D01*
X126344502Y-96299180D01*
X126380812Y-96179482D01*
X126393072Y-96055000D01*
X126390000Y-95840750D01*
X126231250Y-95682000D01*
X125132000Y-95682000D01*
X124878000Y-95682000D01*
X123778750Y-95682000D01*
X123620000Y-95840750D01*
X123616928Y-96055000D01*
X121493072Y-96055000D01*
X121493072Y-95055000D01*
X123616928Y-95055000D01*
X123620000Y-95269250D01*
X123778750Y-95428000D01*
X124878000Y-95428000D01*
X124878000Y-94578750D01*
X125132000Y-94578750D01*
X125132000Y-95428000D01*
X126231250Y-95428000D01*
X126390000Y-95269250D01*
X126393072Y-95055000D01*
X126380812Y-94930518D01*
X126344502Y-94810820D01*
X126285537Y-94700506D01*
X126206185Y-94603815D01*
X126109494Y-94524463D01*
X125999180Y-94465498D01*
X125879482Y-94429188D01*
X125755000Y-94416928D01*
X125290750Y-94420000D01*
X125132000Y-94578750D01*
X124878000Y-94578750D01*
X124719250Y-94420000D01*
X124255000Y-94416928D01*
X124130518Y-94429188D01*
X124010820Y-94465498D01*
X123900506Y-94524463D01*
X123803815Y-94603815D01*
X123724463Y-94700506D01*
X123665498Y-94810820D01*
X123629188Y-94930518D01*
X123616928Y-95055000D01*
X121493072Y-95055000D01*
X121480812Y-94930518D01*
X121444502Y-94810820D01*
X121385537Y-94700506D01*
X121306185Y-94603815D01*
X121209494Y-94524463D01*
X121099180Y-94465498D01*
X120979482Y-94429188D01*
X120855000Y-94416928D01*
X119355000Y-94416928D01*
X119230518Y-94429188D01*
X119110820Y-94465498D01*
X119000506Y-94524463D01*
X118903815Y-94603815D01*
X118824463Y-94700506D01*
X118765498Y-94810820D01*
X118729188Y-94930518D01*
X118716928Y-95055000D01*
X118716928Y-96055000D01*
X118729188Y-96179482D01*
X118765498Y-96299180D01*
X118824463Y-96409494D01*
X118870098Y-96465100D01*
X117340199Y-97995000D01*
X90776046Y-97995000D01*
X90725537Y-97900506D01*
X90646185Y-97803815D01*
X90549494Y-97724463D01*
X90439180Y-97665498D01*
X90319482Y-97629188D01*
X90195000Y-97616928D01*
X88695000Y-97616928D01*
X88570518Y-97629188D01*
X88450820Y-97665498D01*
X88340506Y-97724463D01*
X88243815Y-97803815D01*
X88164463Y-97900506D01*
X88105498Y-98010820D01*
X88069188Y-98130518D01*
X88056928Y-98255000D01*
X88056928Y-98820001D01*
X87111580Y-98820001D01*
X86451534Y-98159956D01*
X86423817Y-98126183D01*
X86289059Y-98015589D01*
X86135313Y-97933411D01*
X85968490Y-97882805D01*
X85838477Y-97870000D01*
X85838469Y-97870000D01*
X85797163Y-97865932D01*
X85746185Y-97803815D01*
X85649494Y-97724463D01*
X85539180Y-97665498D01*
X85419482Y-97629188D01*
X85295000Y-97616928D01*
X83795000Y-97616928D01*
X83670518Y-97629188D01*
X83550820Y-97665498D01*
X83440506Y-97724463D01*
X83343815Y-97803815D01*
X83264463Y-97900506D01*
X83205498Y-98010820D01*
X83169188Y-98130518D01*
X83156928Y-98255000D01*
X83156928Y-99255000D01*
X83169188Y-99379482D01*
X83205498Y-99499180D01*
X83264463Y-99609494D01*
X83343815Y-99706185D01*
X83440506Y-99785537D01*
X83550820Y-99844502D01*
X83670518Y-99880812D01*
X83795000Y-99893072D01*
X85295000Y-99893072D01*
X85419482Y-99880812D01*
X85539180Y-99844502D01*
X85600270Y-99811848D01*
X86088471Y-100300050D01*
X86116184Y-100333818D01*
X86149952Y-100361531D01*
X86149954Y-100361533D01*
X86177107Y-100383817D01*
X86250942Y-100444412D01*
X86404688Y-100526590D01*
X86571511Y-100577196D01*
X86701524Y-100590001D01*
X86701534Y-100590001D01*
X86745000Y-100594282D01*
X86788466Y-100590001D01*
X117861530Y-100590001D01*
X117904999Y-100594282D01*
X117948468Y-100590001D01*
X117948476Y-100590001D01*
X118078489Y-100577196D01*
X118245312Y-100526590D01*
X118399058Y-100444412D01*
X118533816Y-100333818D01*
X118561533Y-100300045D01*
X119049730Y-99811848D01*
X119110820Y-99844502D01*
X119230518Y-99880812D01*
X119355000Y-99893072D01*
X120855000Y-99893072D01*
X120979482Y-99880812D01*
X121099180Y-99844502D01*
X121160270Y-99811848D01*
X121648471Y-100300050D01*
X121676184Y-100333818D01*
X121709952Y-100361531D01*
X121709954Y-100361533D01*
X121737107Y-100383817D01*
X121810942Y-100444412D01*
X121964688Y-100526590D01*
X122131511Y-100577196D01*
X122261524Y-100590001D01*
X122261534Y-100590001D01*
X122305000Y-100594282D01*
X122348466Y-100590001D01*
X152151530Y-100590001D01*
X152194999Y-100594282D01*
X152238468Y-100590001D01*
X152238476Y-100590001D01*
X152368489Y-100577196D01*
X152535312Y-100526590D01*
X152689058Y-100444412D01*
X152823816Y-100333818D01*
X152851533Y-100300045D01*
X153339730Y-99811848D01*
X153400820Y-99844502D01*
X153520518Y-99880812D01*
X153645000Y-99893072D01*
X154531493Y-99893072D01*
X154988470Y-100350049D01*
X155016183Y-100383817D01*
X155049951Y-100411530D01*
X155049953Y-100411532D01*
X155150941Y-100494411D01*
X155304686Y-100576589D01*
X155424670Y-100612986D01*
X155471510Y-100627195D01*
X155601523Y-100640000D01*
X155601531Y-100640000D01*
X155645000Y-100644281D01*
X155688469Y-100640000D01*
X160311533Y-100640000D01*
X160355002Y-100644281D01*
X160398471Y-100640000D01*
X160398479Y-100640000D01*
X160528492Y-100627195D01*
X160695315Y-100576589D01*
X160849061Y-100494411D01*
X160983819Y-100383817D01*
X161011536Y-100350044D01*
X161540056Y-99821524D01*
X161573828Y-99793808D01*
X161684422Y-99659050D01*
X161766600Y-99505304D01*
X161817206Y-99338481D01*
X161830011Y-99208468D01*
X161830011Y-99208460D01*
X161834292Y-99164991D01*
X161830011Y-99121522D01*
X161830011Y-48373480D01*
X161834292Y-48330011D01*
X161830011Y-48286542D01*
X161830011Y-48286534D01*
X161817206Y-48156521D01*
X161812195Y-48140000D01*
X161793686Y-48078987D01*
X161766600Y-47989698D01*
X161684422Y-47835952D01*
X161573828Y-47701194D01*
X161540055Y-47673477D01*
X161201532Y-47334954D01*
X161173817Y-47301183D01*
X161039059Y-47190589D01*
X160885313Y-47108411D01*
X160718490Y-47057805D01*
X160588477Y-47045000D01*
X160588469Y-47045000D01*
X160547163Y-47040932D01*
X160496185Y-46978815D01*
X160399494Y-46899463D01*
X160289180Y-46840498D01*
X160169482Y-46804188D01*
X160045000Y-46791928D01*
X158545000Y-46791928D01*
X158420518Y-46804188D01*
X158300820Y-46840498D01*
X158239730Y-46873152D01*
X157751533Y-46384955D01*
X157723816Y-46351182D01*
X157589058Y-46240588D01*
X157435312Y-46158410D01*
X157268489Y-46107804D01*
X157138476Y-46094999D01*
X157138468Y-46094999D01*
X157094999Y-46090718D01*
X157051530Y-46094999D01*
X124343466Y-46094999D01*
X124300000Y-46090718D01*
X124256534Y-46094999D01*
X124256524Y-46094999D01*
X124126511Y-46107804D01*
X123959688Y-46158410D01*
X123805942Y-46240588D01*
X123805940Y-46240589D01*
X123805941Y-46240589D01*
X123704954Y-46323467D01*
X123704952Y-46323469D01*
X123671184Y-46351182D01*
X123643471Y-46384950D01*
X123236493Y-46791928D01*
X122350000Y-46791928D01*
X122225518Y-46804188D01*
X122105820Y-46840498D01*
X122044730Y-46873152D01*
X121556533Y-46384955D01*
X121528816Y-46351182D01*
X121394058Y-46240588D01*
X121240312Y-46158410D01*
X121073489Y-46107804D01*
X120943476Y-46094999D01*
X120943468Y-46094999D01*
X120899999Y-46090718D01*
X120856530Y-46094999D01*
X91688466Y-46094999D01*
X91645000Y-46090718D01*
X91601534Y-46094999D01*
X91601524Y-46094999D01*
X91471511Y-46107804D01*
X91304688Y-46158410D01*
X91150942Y-46240588D01*
X91150940Y-46240589D01*
X91150941Y-46240589D01*
X91049954Y-46323467D01*
X91049952Y-46323469D01*
X91016184Y-46351182D01*
X90988471Y-46384950D01*
X90500270Y-46873152D01*
X90439180Y-46840498D01*
X90321965Y-46804941D01*
X90317195Y-46756510D01*
X90266589Y-46589687D01*
X90184411Y-46435941D01*
X90120997Y-46358671D01*
X90101532Y-46334953D01*
X90101530Y-46334951D01*
X90073817Y-46301183D01*
X90040050Y-46273472D01*
X85608410Y-41841832D01*
X85580693Y-41808059D01*
X85445935Y-41697465D01*
X85292189Y-41615287D01*
X85125366Y-41564681D01*
X84995353Y-41551876D01*
X84995345Y-41551876D01*
X84951876Y-41547595D01*
X84908407Y-41551876D01*
X75139367Y-41551876D01*
X74969787Y-41400387D01*
X74780952Y-41289044D01*
X73922978Y-40890787D01*
X73716050Y-40818423D01*
X73426395Y-40777587D01*
X73134339Y-40794043D01*
X72851106Y-40867161D01*
X72587580Y-40994130D01*
X72353886Y-41170071D01*
X72159008Y-41388222D01*
X72010433Y-41640201D01*
X71913872Y-41916323D01*
X71873036Y-42205978D01*
X71889492Y-42498034D01*
X71906511Y-42563960D01*
X71794866Y-42489361D01*
X71570110Y-42396264D01*
X71331511Y-42348804D01*
X71088237Y-42348804D01*
X70849638Y-42396264D01*
X70624882Y-42489361D01*
X70422607Y-42624517D01*
X70250587Y-42796537D01*
X70115431Y-42998812D01*
X70022334Y-43223568D01*
X69974874Y-43462167D01*
X69974874Y-43705441D01*
X70022334Y-43944040D01*
X70049569Y-44009792D01*
X69888069Y-44076688D01*
X69685794Y-44211844D01*
X69513774Y-44383864D01*
X69378618Y-44586139D01*
X69285521Y-44810895D01*
X69238061Y-45049494D01*
X69238061Y-45292768D01*
X69285521Y-45531367D01*
X69378618Y-45756123D01*
X69513774Y-45958398D01*
X69685794Y-46130418D01*
X69888069Y-46265574D01*
X70112825Y-46358671D01*
X70138856Y-46363849D01*
X70082416Y-46391042D01*
X69848722Y-46566983D01*
X69653844Y-46785134D01*
X69505269Y-47037113D01*
X69408708Y-47313235D01*
X69367872Y-47602890D01*
X69378832Y-47797396D01*
X68981167Y-47399732D01*
X69161110Y-47198299D01*
X69309684Y-46946320D01*
X69406245Y-46670198D01*
X69447082Y-46380543D01*
X69430625Y-46088486D01*
X69357508Y-45805254D01*
X69230539Y-45541727D01*
X69054597Y-45308034D01*
X68836447Y-45113156D01*
X68647612Y-45001813D01*
X67789638Y-44603556D01*
X67582710Y-44531192D01*
X67293055Y-44490356D01*
X67000999Y-44506812D01*
X66717766Y-44579930D01*
X66654054Y-44610627D01*
X66636376Y-44542147D01*
X66509407Y-44278620D01*
X66333465Y-44044927D01*
X66115315Y-43850049D01*
X65926480Y-43738706D01*
X65068506Y-43340449D01*
X64861578Y-43268085D01*
X64797461Y-43259046D01*
X64911020Y-43183168D01*
X65083040Y-43011148D01*
X65218196Y-42808873D01*
X65311293Y-42584117D01*
X65358753Y-42345518D01*
X65358753Y-42102244D01*
X65311293Y-41863645D01*
X65284058Y-41797893D01*
X65445558Y-41730997D01*
X65647833Y-41595841D01*
X65819853Y-41423821D01*
X65955009Y-41221546D01*
X66048106Y-40996790D01*
X66095566Y-40758191D01*
X66095566Y-40514917D01*
X66089891Y-40486389D01*
X66134362Y-40526115D01*
X66323197Y-40637458D01*
X67181169Y-41035715D01*
X67388098Y-41108079D01*
X67677752Y-41148915D01*
X67969809Y-41132459D01*
X68253042Y-41059341D01*
X68316755Y-41028644D01*
X68334433Y-41097124D01*
X68461402Y-41360650D01*
X68637343Y-41594344D01*
X68855494Y-41789222D01*
X69044329Y-41900565D01*
X69902301Y-42298822D01*
X70109230Y-42371186D01*
X70398884Y-42412022D01*
X70690941Y-42395566D01*
X70974174Y-42322448D01*
X71237701Y-42195479D01*
X71471395Y-42019538D01*
X71666273Y-41801387D01*
X71814847Y-41549408D01*
X71911408Y-41273286D01*
X71952245Y-40983631D01*
X71935788Y-40691574D01*
X71862671Y-40408342D01*
X71735702Y-40144815D01*
X71559760Y-39911122D01*
X71341610Y-39716244D01*
X71152775Y-39604901D01*
X70294801Y-39206644D01*
X70087873Y-39134280D01*
X69798218Y-39093444D01*
X69506162Y-39109900D01*
X69222929Y-39183018D01*
X69159217Y-39213715D01*
X69141539Y-39145235D01*
X69014570Y-38881708D01*
X68838628Y-38648015D01*
X68620478Y-38453137D01*
X68431643Y-38341794D01*
X67573669Y-37943537D01*
X67366741Y-37871173D01*
X67077086Y-37830337D01*
X66785030Y-37846793D01*
X66501797Y-37919911D01*
X66238271Y-38046880D01*
X66004577Y-38222821D01*
X65809699Y-38440972D01*
X65661124Y-38692951D01*
X65564563Y-38969073D01*
X65523727Y-39258728D01*
X65540183Y-39550784D01*
X65557202Y-39616709D01*
X65445558Y-39542111D01*
X65220802Y-39449014D01*
X64982203Y-39401554D01*
X64738929Y-39401554D01*
X64577888Y-39433587D01*
X70914906Y-25755777D01*
X74635000Y-25755777D01*
X74635000Y-26314223D01*
X74743948Y-26861939D01*
X74957656Y-27377876D01*
X75267912Y-27842207D01*
X75662793Y-28237088D01*
X76127124Y-28547344D01*
X76643061Y-28761052D01*
X77190777Y-28870000D01*
X77749223Y-28870000D01*
X78296939Y-28761052D01*
X78812876Y-28547344D01*
X79277207Y-28237088D01*
X79672088Y-27842207D01*
X79982344Y-27377876D01*
X80196052Y-26861939D01*
X80305000Y-26314223D01*
X80305000Y-25755777D01*
X174170906Y-25755777D01*
X174170906Y-26314223D01*
X174279854Y-26861939D01*
X174493562Y-27377876D01*
X174803818Y-27842207D01*
X175198699Y-28237088D01*
X175663030Y-28547344D01*
X176178967Y-28761052D01*
X176726683Y-28870000D01*
X177285129Y-28870000D01*
X177832845Y-28761052D01*
X178348782Y-28547344D01*
X178813113Y-28237088D01*
X179207994Y-27842207D01*
X179518250Y-27377876D01*
X179731958Y-26861939D01*
X179840906Y-26314223D01*
X179840906Y-25755777D01*
X179731958Y-25208061D01*
X179518250Y-24692124D01*
X179207994Y-24227793D01*
X178813113Y-23832912D01*
X178348782Y-23522656D01*
X177832845Y-23308948D01*
X177285129Y-23200000D01*
X176726683Y-23200000D01*
X176178967Y-23308948D01*
X175663030Y-23522656D01*
X175198699Y-23832912D01*
X174803818Y-24227793D01*
X174493562Y-24692124D01*
X174279854Y-25208061D01*
X174170906Y-25755777D01*
X80305000Y-25755777D01*
X80196052Y-25208061D01*
X79982344Y-24692124D01*
X79672088Y-24227793D01*
X79277207Y-23832912D01*
X78812876Y-23522656D01*
X78296939Y-23308948D01*
X77749223Y-23200000D01*
X77190777Y-23200000D01*
X76643061Y-23308948D01*
X76127124Y-23522656D01*
X75662793Y-23832912D01*
X75267912Y-24227793D01*
X74957656Y-24692124D01*
X74743948Y-25208061D01*
X74635000Y-25755777D01*
X70914906Y-25755777D01*
X73673505Y-19801622D01*
X176701985Y-19801622D01*
X183288000Y-26371594D01*
M02*
