G04 #@! TF.GenerationSoftware,KiCad,Pcbnew,5.1.5+dfsg1-2build2*
G04 #@! TF.CreationDate,2021-03-23T21:18:19+09:00*
G04 #@! TF.ProjectId,rest,72657374-2e6b-4696-9361-645f70636258,rev?*
G04 #@! TF.SameCoordinates,Original*
G04 #@! TF.FileFunction,Legend,Bot*
G04 #@! TF.FilePolarity,Positive*
%FSLAX46Y46*%
G04 Gerber Fmt 4.6, Leading zero omitted, Abs format (unit mm)*
G04 Created by KiCad (PCBNEW 5.1.5+dfsg1-2build2) date 2021-03-23 21:18:19*
%MOMM*%
%LPD*%
G04 APERTURE LIST*
%ADD10C,0.500000*%
%ADD11C,0.150000*%
G04 APERTURE END LIST*
D10*
X40010000Y-55655000D02*
X145420000Y-55655000D01*
X145420000Y-55655000D02*
X145420000Y-95660000D01*
X40010000Y-95660000D02*
X40010000Y-55655000D01*
X145420000Y-95660000D02*
X40010000Y-95660000D01*
D11*
G36*
X60965000Y-108486000D02*
G01*
X59949000Y-109502000D01*
X60965000Y-109502000D01*
X60965000Y-108486000D01*
G37*
X60965000Y-108486000D02*
X59949000Y-109502000D01*
X60965000Y-109502000D01*
X60965000Y-108486000D01*
X141615392Y-99634111D02*
X152499920Y-104686541D01*
X139089177Y-105076375D02*
X141615392Y-99634111D01*
X149973705Y-110128805D02*
X139089177Y-105076375D01*
X152499920Y-104686541D02*
X149973705Y-110128805D01*
G36*
X130815000Y-108486000D02*
G01*
X129799000Y-109502000D01*
X130815000Y-109502000D01*
X130815000Y-108486000D01*
G37*
X130815000Y-108486000D02*
X129799000Y-109502000D01*
X130815000Y-109502000D01*
X130815000Y-108486000D01*
G36*
X97160000Y-108486000D02*
G01*
X96144000Y-109502000D01*
X97160000Y-109502000D01*
X97160000Y-108486000D01*
G37*
X97160000Y-108486000D02*
X96144000Y-109502000D01*
X97160000Y-109502000D01*
X97160000Y-108486000D01*
G36*
X53345000Y-45829000D02*
G01*
X54361000Y-44813000D01*
X53345000Y-44813000D01*
X53345000Y-45829000D01*
G37*
X53345000Y-45829000D02*
X54361000Y-44813000D01*
X53345000Y-44813000D01*
X53345000Y-45829000D01*
G36*
X87635000Y-45829000D02*
G01*
X88651000Y-44813000D01*
X87635000Y-44813000D01*
X87635000Y-45829000D01*
G37*
X87635000Y-45829000D02*
X88651000Y-44813000D01*
X87635000Y-44813000D01*
X87635000Y-45829000D01*
G36*
X123195000Y-45829000D02*
G01*
X124211000Y-44813000D01*
X123195000Y-44813000D01*
X123195000Y-45829000D01*
G37*
X123195000Y-45829000D02*
X124211000Y-44813000D01*
X123195000Y-44813000D01*
X123195000Y-45829000D01*
X146858930Y-105791032D02*
X146340619Y-105550440D01*
X146178739Y-106577780D02*
X146599774Y-105670736D01*
X145098924Y-106076547D02*
X145601766Y-105784966D01*
X145617235Y-106317139D02*
X146038271Y-105410095D01*
X145692730Y-105249700D01*
X145586296Y-105252794D01*
X145523054Y-105275937D01*
X145439763Y-105342273D01*
X145379615Y-105471851D01*
X145382709Y-105578285D01*
X145405852Y-105641527D01*
X145472188Y-105724818D01*
X145817728Y-105885213D01*
X144191880Y-105655511D02*
X144694722Y-105363931D01*
X144710191Y-105896103D02*
X145131227Y-104989059D01*
X144785686Y-104828664D01*
X144679252Y-104831758D01*
X144616010Y-104854902D01*
X144532719Y-104921237D01*
X144472571Y-105050815D01*
X144475665Y-105157250D01*
X144498808Y-105220491D01*
X144565144Y-105303783D01*
X144910684Y-105464177D01*
X143866389Y-105451924D02*
X143716762Y-105434968D01*
X143500799Y-105334722D01*
X143434463Y-105251431D01*
X143411320Y-105188189D01*
X143408226Y-105081754D01*
X143448325Y-104995369D01*
X143531616Y-104929033D01*
X143594858Y-104905890D01*
X143701292Y-104902796D01*
X143894112Y-104939801D01*
X144000547Y-104936707D01*
X144063788Y-104913564D01*
X144147080Y-104847228D01*
X144187178Y-104760843D01*
X144184084Y-104654408D01*
X144160941Y-104591166D01*
X144094605Y-104507875D01*
X143878642Y-104407629D01*
X143729015Y-104390673D01*
M02*
