<?xml version="1.0" standalone="no"?>
 <!DOCTYPE svg PUBLIC "-//W3C//DTD SVG 1.1//EN" 
 "http://www.w3.org/Graphics/SVG/1.1/DTD/svg11.dtd"> 
<svg xmlns="http://www.w3.org/2000/svg" version="1.1" 
    width="6.75894cm" height="8.19404cm" viewBox="0 0 26610 32260 ">
<title>SVG Picture created as shield-Edge_Cuts.svg date 2020/09/22 20:08:03 </title>
  <desc>Picture generated by PCBNEW </desc>
<g style="fill:#000000; fill-opacity:1;stroke:#000000; stroke-opacity:1;
stroke-linecap:round; stroke-linejoin:round; "
 transform="translate(0 0) scale(1 1)">
</g>
<g style="fill:#000000; fill-opacity:0.0; 
stroke:#000000; stroke-width:-0.000393701; stroke-opacity:1; 
stroke-linecap:round; stroke-linejoin:round;">
</g>
<g style="fill:#000000; fill-opacity:0.0; 
stroke:#000000; stroke-width:59.0551; stroke-opacity:1; 
stroke-linecap:round; stroke-linejoin:round;">
<path d="M15284 16734
L4684 16734
" />
<path d="M15284 9734
L15284 16734
" />
<path d="M4684 16734
L4684 9734
" />
<path d="M4684 9734
L15284 9734
" />
<circle cx="16984.3" cy="29734.3" r="433.071" /> 
<circle cx="3734.25" cy="22734.3" r="433.071" /> 
<circle cx="16984.3" cy="2734.25" r="433.071" /> 
<path d="M2234 23484
L2234 3234
" />
<path d="M17037 32128
L2234 23484
" />
<path d="M18484 31234
L18484 3234
" />
<path d="M17037 32128.7 A1000 1000 0.0 0 0 18484.3 31234.3 " />
<path d="M18484.3 3234.25 A2000 2000 0.0 0 0 16484.3 1234.25 " />
<path d="M4234.25 1234.25 A2000 2000 0.0 0 0 2234.25 3234.25 " />
<path d="M4234 1234
L16484 1234
" />
<circle cx="984.252" cy="984.252" r="656.168" /> 
<path d="M0 984
L1968 984
" />
<path d="M984 0
L984 1968
" />
<g >
</g>
<g >
</g>
</g> 
</svg>
