  0
SECTION
  2
HEADER
  9
$ACADVER
  1
AC1014
  9
$HANDSEED
  5
FFFF
  9
$MEASUREMENT
 70
     1
  0
ENDSEC
  0
SECTION
  2
TABLES
  0
TABLE
  2
VPORT
  5
8
330
0
100
AcDbSymbolTable
 70
     4
  0
VPORT
  5
2E
330
8
100
AcDbSymbolTableRecord
100
AcDbViewportTableRecord
  2
*ACTIVE
 70
     0
 10
0.0
 20
0.0
 11
1.0
 21
1.0
 12
210.0
 22
148.5
 13
0.0
 23
0.0
 14
10.0
 24
10.0
 15
10.0
 25
10.0
 16
0.0
 26
0.0
 36
1.0
 17
0.0
 27
0.0
 37
0.0
 40
341.0
 41
1.24
 42
50.0
 43
0.0
 44
0.0
 50
0.0
 51
0.0
 71
     0
 72
   100
 73
     1
 74
     3
 75
     0
 76
     0
 77
     0
 78
     0
  0
ENDTAB
  0
TABLE
  2
LTYPE
  5
5
330
0
100
AcDbSymbolTable
 70
     1
  0
LTYPE
  5
14
330
5
100
AcDbSymbolTableRecord
100
AcDbLinetypeTableRecord
  2
BYBLOCK
 70
     0
  3

 72
    65
 73
     0
 40
0.0
  0
LTYPE
  5
15
330
5
100
AcDbSymbolTableRecord
100
AcDbLinetypeTableRecord
  2
BYLAYER
 70
     0
  3

 72
    65
 73
     0
 40
0.0
  0
LTYPE
  5
16
330
5
100
AcDbSymbolTableRecord
100
AcDbLinetypeTableRecord
  2
CONTINUOUS
 70
     0
  3
Solid line
 72
    65
 73
     0
 40
0.0
  0
ENDTAB
  0
TABLE
  2
LAYER
  5
2
100
AcDbSymbolTable
 70
1
  0
LAYER
  5
50
100
AcDbSymbolTableRecord
100
AcDbLayerTableRecord
  2
0
 70
0
  6
CONTINUOUS
  0
ENDTAB
  0
TABLE
  2
STYLE
  5
3
330
0
100
AcDbSymbolTable
 70
     1
  0
STYLE
  5
11
330
3
100
AcDbSymbolTableRecord
100
AcDbTextStyleTableRecord
  2
STANDARD
 70
     0
 40
0.0
 41
1.0
 50
0.0
 71
     0
 42
2.5
  3
txt
  4

  0
ENDTAB
  0
TABLE
  2
VIEW
  5
6
330
0
100
AcDbSymbolTable
 70
     0
  0
ENDTAB
  0
TABLE
  2
UCS
  5
7
330
0
100
AcDbSymbolTable
 70
     0
  0
ENDTAB
  0
TABLE
  2
APPID
  5
9
330
0
100
AcDbSymbolTable
 70
     2
  0
APPID
  5
12
330
9
100
AcDbSymbolTableRecord
100
AcDbRegAppTableRecord
  2
ACAD
 70
     0
  0
ENDTAB
  0
TABLE
  2
DIMSTYLE
  5
A
330
0
100
AcDbSymbolTable
 70
     1
  0
DIMSTYLE
105
27
330
A
100
AcDbSymbolTableRecord
100
AcDbDimStyleTableRecord
  2
ISO-25
 70
     0
  3

  4

  5

  6

  7

 40
1.0
 41
2.5
 42
0.625
 43
3.75
 44
1.25
 45
0.0
 46
0.0
 47
0.0
 48
0.0
140
2.5
141
2.5
142
0.0
143
0.03937007874016
144
1.0
145
0.0
146
1.0
147
0.625
 71
     0
 72
     0
 73
     0
 74
     0
 75
     0
 76
     0
 77
     1
 78
     8
170
     0
171
     3
172
     1
173
     0
174
     0
175
     0
176
     0
177
     0
178
     0
270
     2
271
     2
272
     2
273
     2
274
     3
340
11
275
     0
280
     0
281
     0
282
     0
283
     0
284
     8
285
     0
286
     0
287
     3
288
     0
  0
ENDTAB
  0
TABLE
  2
BLOCK_RECORD
  5
1
330
0
100
AcDbSymbolTable
 70
     1
  0
BLOCK_RECORD
  5
1F
330
1
100
AcDbSymbolTableRecord
100
AcDbBlockTableRecord
  2
*MODEL_SPACE
  0
BLOCK_RECORD
  5
1B
330
1
100
AcDbSymbolTableRecord
100
AcDbBlockTableRecord
  2
*PAPER_SPACE
  0
ENDTAB
  0
ENDSEC
  0
SECTION
  2
BLOCKS
  0
BLOCK
  5
20
330
1F
100
AcDbEntity
  8
0
100
AcDbBlockBegin
  2
*MODEL_SPACE
 70
     0
 10
0.0
 20
0.0
 30
0.0
  3
*MODEL_SPACE
  1

  0
ENDBLK
  5
21
330
1F
100
AcDbEntity
  8
0
100
AcDbBlockEnd
  0
BLOCK
  5
1C
330
1B
100
AcDbEntity
 67
     1
  8
0
100
AcDbBlockBegin
  2
*PAPER_SPACE
  1

  0
ENDBLK
  5
1D
330
1B
100
AcDbEntity
 67
     1
  8
0
100
AcDbBlockEnd
  0
ENDSEC
  0
SECTION
  2
ENTITIES
  0
SPLINE
  5
100
100
AcDbEntity
  8
0
 62
5
100
AcDbSpline
 70
8
 71
3
 72
8
 73
4
 74
0
 40
0
 40
0
 40
0
 40
0
 40
1
 40
1
 40
1
 40
1
 10
47.241603
 20
80.051911
 30
0.0
 10
47.241222
 20
54.421853
 30
0.0
 10
47.241222
 20
31.660126
 30
0.0
 10
47.241603
 20
8.931848
 30
0.0
  0
SPLINE
  5
101
100
AcDbEntity
  8
0
 62
5
100
AcDbSpline
 70
8
 71
3
 72
8
 73
4
 74
0
 40
0
 40
0
 40
0
 40
0
 40
1
 40
1
 40
1
 40
1
 10
47.241603
 20
8.931848
 30
0.0
 10
47.087455
 20
6.047434
 30
0.0
 10
44.782621
 20
3.891681
 30
0.0
 10
42.161603
 20
3.851848
 30
0.0
  0
SPLINE
  5
102
100
AcDbEntity
  8
0
 62
5
100
AcDbSpline
 70
8
 71
3
 72
8
 73
4
 74
0
 40
0
 40
0
 40
0
 40
0
 40
1
 40
1
 40
1
 40
1
 10
42.161603
 20
3.851848
 30
0.0
 10
31.789556
 20
3.851530
 30
0.0
 10
21.417889
 20
3.851530
 30
0.0
 10
11.046540
 20
3.851848
 30
0.0
  0
SPLINE
  5
103
100
AcDbEntity
  8
0
 62
5
100
AcDbSpline
 70
8
 71
3
 72
8
 73
4
 74
0
 40
0
 40
0
 40
0
 40
0
 40
1
 40
1
 40
1
 40
1
 10
11.046540
 20
3.851848
 30
0.0
 10
8.222348
 20
3.864769
 30
0.0
 10
6.005758
 20
6.352308
 30
0.0
 10
5.966540
 20
8.931848
 30
0.0
  0
SPLINE
  5
104
100
AcDbEntity
  8
0
 62
5
100
AcDbSpline
 70
8
 71
3
 72
8
 73
4
 74
0
 40
0
 40
0
 40
0
 40
0
 40
1
 40
1
 40
1
 40
1
 10
43.565842
 20
82.323179
 30
0.0
 10
45.356852
 20
83.041278
 30
0.0
 10
47.227387
 20
81.891585
 30
0.0
 10
47.241603
 20
80.051911
 30
0.0
  0
LWPOLYLINE
  5
105
100
AcDbEntity
  8
0
 62
5
100
AcDbPolyline
 90
3
 70
0
 10
5.966540
 20
8.931848
 30
0.0
 10
5.966222
 20
60.366530
 30
0.0
 10
43.565842
 20
82.323179
 30
0.0
  0
LWPOLYLINE
  5
106
100
AcDbEntity
  8
0
 62
5
100
AcDbPolyline
 90
1
 70
1
 10
47.241603
 20
80.051911
 30
0.0
  0
SPLINE
  5
107
100
AcDbEntity
  8
0
 62
1
100
AcDbSpline
 70
8
 71
3
 72
8
 73
4
 74
0
 40
0
 40
0
 40
0
 40
0
 40
1
 40
1
 40
1
 40
1
 10
44.531987
 20
76.242295
 30
0.0
 10
44.531987
 20
76.635287
 30
0.0
 10
44.322328
 20
76.998427
 30
0.0
 10
43.981987
 20
77.194923
 30
0.0
  0
SPLINE
  5
108
100
AcDbEntity
  8
0
 62
1
100
AcDbSpline
 70
8
 71
3
 72
8
 73
4
 74
0
 40
0
 40
0
 40
0
 40
0
 40
1
 40
1
 40
1
 40
1
 10
43.981987
 20
77.194923
 30
0.0
 10
43.641645
 20
77.391419
 30
0.0
 10
43.222328
 20
77.391419
 30
0.0
 10
42.881986
 20
77.194923
 30
0.0
  0
SPLINE
  5
109
100
AcDbEntity
  8
0
 62
1
100
AcDbSpline
 70
8
 71
3
 72
8
 73
4
 74
0
 40
0
 40
0
 40
0
 40
0
 40
1
 40
1
 40
1
 40
1
 10
42.881986
 20
77.194923
 30
0.0
 10
42.541645
 20
76.998427
 30
0.0
 10
42.331986
 20
76.635287
 30
0.0
 10
42.331986
 20
76.242295
 30
0.0
  0
SPLINE
  5
10a
100
AcDbEntity
  8
0
 62
1
100
AcDbSpline
 70
8
 71
3
 72
8
 73
4
 74
0
 40
0
 40
0
 40
0
 40
0
 40
1
 40
1
 40
1
 40
1
 10
42.331986
 20
76.242295
 30
0.0
 10
42.331986
 20
75.849302
 30
0.0
 10
42.541645
 20
75.486162
 30
0.0
 10
42.881986
 20
75.289666
 30
0.0
  0
SPLINE
  5
10b
100
AcDbEntity
  8
0
 62
1
100
AcDbSpline
 70
8
 71
3
 72
8
 73
4
 74
0
 40
0
 40
0
 40
0
 40
0
 40
1
 40
1
 40
1
 40
1
 10
42.881986
 20
75.289666
 30
0.0
 10
43.222328
 20
75.093170
 30
0.0
 10
43.641645
 20
75.093170
 30
0.0
 10
43.981987
 20
75.289666
 30
0.0
  0
SPLINE
  5
10c
100
AcDbEntity
  8
0
 62
1
100
AcDbSpline
 70
8
 71
3
 72
8
 73
4
 74
0
 40
0
 40
0
 40
0
 40
0
 40
1
 40
1
 40
1
 40
1
 10
43.981987
 20
75.289666
 30
0.0
 10
44.322328
 20
75.486162
 30
0.0
 10
44.531987
 20
75.849302
 30
0.0
 10
44.531987
 20
76.242295
 30
0.0
  0
LWPOLYLINE
  5
10d
100
AcDbEntity
  8
0
 62
7
100
AcDbPolyline
 90
4
 70
1
 10
12.189222
 20
25.441530
 30
0.0
 10
39.113222
 20
25.441530
 30
0.0
 10
39.113222
 20
43.221530
 30
0.0
 10
12.189222
 20
43.221530
 30
0.0
  0
SPLINE
  5
10e
100
AcDbEntity
  8
0
 62
1
100
AcDbSpline
 70
8
 71
3
 72
8
 73
4
 74
0
 40
0
 40
0
 40
0
 40
0
 40
1
 40
1
 40
1
 40
1
 10
10.876857
 20
58.462295
 30
0.0
 10
10.876857
 20
59.069808
 30
0.0
 10
10.384370
 20
59.562295
 30
0.0
 10
9.776857
 20
59.562295
 30
0.0
  0
SPLINE
  5
10f
100
AcDbEntity
  8
0
 62
1
100
AcDbSpline
 70
8
 71
3
 72
8
 73
4
 74
0
 40
0
 40
0
 40
0
 40
0
 40
1
 40
1
 40
1
 40
1
 10
9.776857
 20
59.562295
 30
0.0
 10
9.169344
 20
59.562295
 30
0.0
 10
8.676857
 20
59.069808
 30
0.0
 10
8.676857
 20
58.462295
 30
0.0
  0
SPLINE
  5
110
100
AcDbEntity
  8
0
 62
1
100
AcDbSpline
 70
8
 71
3
 72
8
 73
4
 74
0
 40
0
 40
0
 40
0
 40
0
 40
1
 40
1
 40
1
 40
1
 10
8.676857
 20
58.462295
 30
0.0
 10
8.676857
 20
58.069302
 30
0.0
 10
8.886516
 20
57.706162
 30
0.0
 10
9.226857
 20
57.509666
 30
0.0
  0
SPLINE
  5
111
100
AcDbEntity
  8
0
 62
1
100
AcDbSpline
 70
8
 71
3
 72
8
 73
4
 74
0
 40
0
 40
0
 40
0
 40
0
 40
1
 40
1
 40
1
 40
1
 10
9.226857
 20
57.509666
 30
0.0
 10
9.567198
 20
57.313170
 30
0.0
 10
9.986516
 20
57.313170
 30
0.0
 10
10.326857
 20
57.509666
 30
0.0
  0
SPLINE
  5
112
100
AcDbEntity
  8
0
 62
1
100
AcDbSpline
 70
8
 71
3
 72
8
 73
4
 74
0
 40
0
 40
0
 40
0
 40
0
 40
1
 40
1
 40
1
 40
1
 10
10.326857
 20
57.509666
 30
0.0
 10
10.667198
 20
57.706162
 30
0.0
 10
10.876857
 20
58.069302
 30
0.0
 10
10.876857
 20
58.462295
 30
0.0
  0
LWPOLYLINE
  5
113
100
AcDbEntity
  8
0
 62
1
100
AcDbPolyline
 90
1
 70
1
 10
44.531987
 20
76.242295
 30
0.0
  0
SPLINE
  5
114
100
AcDbEntity
  8
0
 62
1
100
AcDbSpline
 70
8
 71
3
 72
8
 73
4
 74
0
 40
0
 40
0
 40
0
 40
0
 40
1
 40
1
 40
1
 40
1
 10
44.531987
 20
7.662165
 30
0.0
 10
44.531987
 20
8.055157
 30
0.0
 10
44.322328
 20
8.418297
 30
0.0
 10
43.981987
 20
8.614793
 30
0.0
  0
SPLINE
  5
115
100
AcDbEntity
  8
0
 62
1
100
AcDbSpline
 70
8
 71
3
 72
8
 73
4
 74
0
 40
0
 40
0
 40
0
 40
0
 40
1
 40
1
 40
1
 40
1
 10
43.981987
 20
8.614793
 30
0.0
 10
43.641645
 20
8.811289
 30
0.0
 10
43.222328
 20
8.811289
 30
0.0
 10
42.881986
 20
8.614793
 30
0.0
  0
SPLINE
  5
116
100
AcDbEntity
  8
0
 62
1
100
AcDbSpline
 70
8
 71
3
 72
8
 73
4
 74
0
 40
0
 40
0
 40
0
 40
0
 40
1
 40
1
 40
1
 40
1
 10
42.881986
 20
8.614793
 30
0.0
 10
42.541645
 20
8.418297
 30
0.0
 10
42.331986
 20
8.055157
 30
0.0
 10
42.331986
 20
7.662165
 30
0.0
  0
SPLINE
  5
117
100
AcDbEntity
  8
0
 62
1
100
AcDbSpline
 70
8
 71
3
 72
8
 73
4
 74
0
 40
0
 40
0
 40
0
 40
0
 40
1
 40
1
 40
1
 40
1
 10
42.331986
 20
7.662165
 30
0.0
 10
42.331986
 20
7.269173
 30
0.0
 10
42.541645
 20
6.906033
 30
0.0
 10
42.881986
 20
6.709537
 30
0.0
  0
SPLINE
  5
118
100
AcDbEntity
  8
0
 62
1
100
AcDbSpline
 70
8
 71
3
 72
8
 73
4
 74
0
 40
0
 40
0
 40
0
 40
0
 40
1
 40
1
 40
1
 40
1
 10
42.881986
 20
6.709537
 30
0.0
 10
43.222328
 20
6.513041
 30
0.0
 10
43.641645
 20
6.513041
 30
0.0
 10
43.981987
 20
6.709537
 30
0.0
  0
SPLINE
  5
119
100
AcDbEntity
  8
0
 62
1
100
AcDbSpline
 70
8
 71
3
 72
8
 73
4
 74
0
 40
0
 40
0
 40
0
 40
0
 40
1
 40
1
 40
1
 40
1
 10
43.981987
 20
6.709537
 30
0.0
 10
44.322328
 20
6.906033
 30
0.0
 10
44.531987
 20
7.269173
 30
0.0
 10
44.531987
 20
7.662165
 30
0.0
  0
LWPOLYLINE
  5
11a
100
AcDbEntity
  8
0
 62
1
100
AcDbPolyline
 90
1
 70
1
 10
10.876857
 20
58.462295
 30
0.0
  0
SPLINE
  5
11b
100
AcDbEntity
  8
0
 62
5
100
AcDbSpline
 70
8
 71
3
 72
8
 73
4
 74
0
 40
0
 40
0
 40
0
 40
0
 40
1
 40
1
 40
1
 40
1
 10
52.572697
 20
80.899285
 30
0.0
 10
52.573078
 20
55.269227
 30
0.0
 10
52.573078
 20
32.507500
 30
0.0
 10
52.572697
 20
9.779222
 30
0.0
  0
SPLINE
  5
11c
100
AcDbEntity
  8
0
 62
5
100
AcDbSpline
 70
8
 71
3
 72
8
 73
4
 74
0
 40
0
 40
0
 40
0
 40
0
 40
1
 40
1
 40
1
 40
1
 10
52.572697
 20
9.779222
 30
0.0
 10
52.726844
 20
6.894808
 30
0.0
 10
55.031678
 20
4.739055
 30
0.0
 10
57.652697
 20
4.699222
 30
0.0
  0
SPLINE
  5
11d
100
AcDbEntity
  8
0
 62
5
100
AcDbSpline
 70
8
 71
3
 72
8
 73
4
 74
0
 40
0
 40
0
 40
0
 40
0
 40
1
 40
1
 40
1
 40
1
 10
57.652697
 20
4.699222
 30
0.0
 10
68.024743
 20
4.698904
 30
0.0
 10
78.396411
 20
4.698904
 30
0.0
 10
88.767760
 20
4.699222
 30
0.0
  0
SPLINE
  5
11e
100
AcDbEntity
  8
0
 62
5
100
AcDbSpline
 70
8
 71
3
 72
8
 73
4
 74
0
 40
0
 40
0
 40
0
 40
0
 40
1
 40
1
 40
1
 40
1
 10
88.767760
 20
4.699222
 30
0.0
 10
91.591952
 20
4.712143
 30
0.0
 10
93.808542
 20
7.199682
 30
0.0
 10
93.847760
 20
9.779222
 30
0.0
  0
LWPOLYLINE
  5
11f
100
AcDbEntity
  8
0
 62
1
100
AcDbPolyline
 90
1
 70
1
 10
44.531987
 20
7.662165
 30
0.0
  0
SPLINE
  5
120
100
AcDbEntity
  8
0
 62
5
100
AcDbSpline
 70
8
 71
3
 72
8
 73
4
 74
0
 40
0
 40
0
 40
0
 40
0
 40
1
 40
1
 40
1
 40
1
 10
56.248458
 20
83.170553
 30
0.0
 10
54.457448
 20
83.888652
 30
0.0
 10
52.586913
 20
82.738959
 30
0.0
 10
52.572697
 20
80.899285
 30
0.0
  0
LWPOLYLINE
  5
121
100
AcDbEntity
  8
0
 62
5
100
AcDbPolyline
 90
3
 70
0
 10
93.847760
 20
9.779222
 30
0.0
 10
93.848078
 20
61.213904
 30
0.0
 10
56.248458
 20
83.170553
 30
0.0
  0
LWPOLYLINE
  5
122
100
AcDbEntity
  8
0
 62
5
100
AcDbPolyline
 90
1
 70
1
 10
52.572697
 20
80.899285
 30
0.0
  0
SPLINE
  5
123
100
AcDbEntity
  8
0
 62
1
100
AcDbSpline
 70
8
 71
3
 72
8
 73
4
 74
0
 40
0
 40
0
 40
0
 40
0
 40
1
 40
1
 40
1
 40
1
 10
55.282313
 20
77.089669
 30
0.0
 10
55.282313
 20
77.482661
 30
0.0
 10
55.491972
 20
77.845801
 30
0.0
 10
55.832313
 20
78.042297
 30
0.0
  0
SPLINE
  5
124
100
AcDbEntity
  8
0
 62
1
100
AcDbSpline
 70
8
 71
3
 72
8
 73
4
 74
0
 40
0
 40
0
 40
0
 40
0
 40
1
 40
1
 40
1
 40
1
 10
55.832313
 20
78.042297
 30
0.0
 10
56.172654
 20
78.238793
 30
0.0
 10
56.591972
 20
78.238793
 30
0.0
 10
56.932313
 20
78.042297
 30
0.0
  0
SPLINE
  5
125
100
AcDbEntity
  8
0
 62
1
100
AcDbSpline
 70
8
 71
3
 72
8
 73
4
 74
0
 40
0
 40
0
 40
0
 40
0
 40
1
 40
1
 40
1
 40
1
 10
56.932313
 20
78.042297
 30
0.0
 10
57.272655
 20
77.845801
 30
0.0
 10
57.482313
 20
77.482661
 30
0.0
 10
57.482313
 20
77.089669
 30
0.0
  0
SPLINE
  5
126
100
AcDbEntity
  8
0
 62
1
100
AcDbSpline
 70
8
 71
3
 72
8
 73
4
 74
0
 40
0
 40
0
 40
0
 40
0
 40
1
 40
1
 40
1
 40
1
 10
57.482313
 20
77.089669
 30
0.0
 10
57.482313
 20
76.696676
 30
0.0
 10
57.272655
 20
76.333536
 30
0.0
 10
56.932313
 20
76.137040
 30
0.0
  0
SPLINE
  5
127
100
AcDbEntity
  8
0
 62
1
100
AcDbSpline
 70
8
 71
3
 72
8
 73
4
 74
0
 40
0
 40
0
 40
0
 40
0
 40
1
 40
1
 40
1
 40
1
 10
56.932313
 20
76.137040
 30
0.0
 10
56.591972
 20
75.940544
 30
0.0
 10
56.172654
 20
75.940544
 30
0.0
 10
55.832313
 20
76.137040
 30
0.0
  0
SPLINE
  5
128
100
AcDbEntity
  8
0
 62
1
100
AcDbSpline
 70
8
 71
3
 72
8
 73
4
 74
0
 40
0
 40
0
 40
0
 40
0
 40
1
 40
1
 40
1
 40
1
 10
55.832313
 20
76.137040
 30
0.0
 10
55.491972
 20
76.333536
 30
0.0
 10
55.282313
 20
76.696676
 30
0.0
 10
55.282313
 20
77.089669
 30
0.0
  0
LWPOLYLINE
  5
129
100
AcDbEntity
  8
0
 62
7
100
AcDbPolyline
 90
4
 70
1
 10
87.625078
 20
26.288904
 30
0.0
 10
60.701078
 20
26.288904
 30
0.0
 10
60.701078
 20
44.068904
 30
0.0
 10
87.625078
 20
44.068904
 30
0.0
  0
SPLINE
  5
12a
100
AcDbEntity
  8
0
 62
1
100
AcDbSpline
 70
8
 71
3
 72
8
 73
4
 74
0
 40
0
 40
0
 40
0
 40
0
 40
1
 40
1
 40
1
 40
1
 10
88.937442
 20
59.309669
 30
0.0
 10
88.937442
 20
59.917182
 30
0.0
 10
89.429929
 20
60.409669
 30
0.0
 10
90.037443
 20
60.409669
 30
0.0
  0
SPLINE
  5
12b
100
AcDbEntity
  8
0
 62
1
100
AcDbSpline
 70
8
 71
3
 72
8
 73
4
 74
0
 40
0
 40
0
 40
0
 40
0
 40
1
 40
1
 40
1
 40
1
 10
90.037443
 20
60.409669
 30
0.0
 10
90.644956
 20
60.409669
 30
0.0
 10
91.137443
 20
59.917182
 30
0.0
 10
91.137443
 20
59.309669
 30
0.0
  0
SPLINE
  5
12c
100
AcDbEntity
  8
0
 62
1
100
AcDbSpline
 70
8
 71
3
 72
8
 73
4
 74
0
 40
0
 40
0
 40
0
 40
0
 40
1
 40
1
 40
1
 40
1
 10
91.137443
 20
59.309669
 30
0.0
 10
91.137443
 20
58.916676
 30
0.0
 10
90.927784
 20
58.553536
 30
0.0
 10
90.587443
 20
58.357040
 30
0.0
  0
SPLINE
  5
12d
100
AcDbEntity
  8
0
 62
1
100
AcDbSpline
 70
8
 71
3
 72
8
 73
4
 74
0
 40
0
 40
0
 40
0
 40
0
 40
1
 40
1
 40
1
 40
1
 10
90.587443
 20
58.357040
 30
0.0
 10
90.247101
 20
58.160544
 30
0.0
 10
89.827784
 20
58.160544
 30
0.0
 10
89.487442
 20
58.357040
 30
0.0
  0
SPLINE
  5
12e
100
AcDbEntity
  8
0
 62
1
100
AcDbSpline
 70
8
 71
3
 72
8
 73
4
 74
0
 40
0
 40
0
 40
0
 40
0
 40
1
 40
1
 40
1
 40
1
 10
89.487442
 20
58.357040
 30
0.0
 10
89.147101
 20
58.553536
 30
0.0
 10
88.937442
 20
58.916676
 30
0.0
 10
88.937442
 20
59.309669
 30
0.0
  0
LWPOLYLINE
  5
12f
100
AcDbEntity
  8
0
 62
1
100
AcDbPolyline
 90
1
 70
1
 10
55.282313
 20
77.089669
 30
0.0
  0
SPLINE
  5
130
100
AcDbEntity
  8
0
 62
1
100
AcDbSpline
 70
8
 71
3
 72
8
 73
4
 74
0
 40
0
 40
0
 40
0
 40
0
 40
1
 40
1
 40
1
 40
1
 10
55.282313
 20
8.509539
 30
0.0
 10
55.282313
 20
8.902531
 30
0.0
 10
55.491972
 20
9.265671
 30
0.0
 10
55.832313
 20
9.462167
 30
0.0
  0
SPLINE
  5
131
100
AcDbEntity
  8
0
 62
1
100
AcDbSpline
 70
8
 71
3
 72
8
 73
4
 74
0
 40
0
 40
0
 40
0
 40
0
 40
1
 40
1
 40
1
 40
1
 10
55.832313
 20
9.462167
 30
0.0
 10
56.172654
 20
9.658663
 30
0.0
 10
56.591972
 20
9.658663
 30
0.0
 10
56.932313
 20
9.462167
 30
0.0
  0
SPLINE
  5
132
100
AcDbEntity
  8
0
 62
1
100
AcDbSpline
 70
8
 71
3
 72
8
 73
4
 74
0
 40
0
 40
0
 40
0
 40
0
 40
1
 40
1
 40
1
 40
1
 10
56.932313
 20
9.462167
 30
0.0
 10
57.272655
 20
9.265671
 30
0.0
 10
57.482313
 20
8.902531
 30
0.0
 10
57.482313
 20
8.509539
 30
0.0
  0
SPLINE
  5
133
100
AcDbEntity
  8
0
 62
1
100
AcDbSpline
 70
8
 71
3
 72
8
 73
4
 74
0
 40
0
 40
0
 40
0
 40
0
 40
1
 40
1
 40
1
 40
1
 10
57.482313
 20
8.509539
 30
0.0
 10
57.482313
 20
8.116547
 30
0.0
 10
57.272655
 20
7.753407
 30
0.0
 10
56.932313
 20
7.556911
 30
0.0
  0
SPLINE
  5
134
100
AcDbEntity
  8
0
 62
1
100
AcDbSpline
 70
8
 71
3
 72
8
 73
4
 74
0
 40
0
 40
0
 40
0
 40
0
 40
1
 40
1
 40
1
 40
1
 10
56.932313
 20
7.556911
 30
0.0
 10
56.591972
 20
7.360415
 30
0.0
 10
56.172654
 20
7.360415
 30
0.0
 10
55.832313
 20
7.556911
 30
0.0
  0
SPLINE
  5
135
100
AcDbEntity
  8
0
 62
1
100
AcDbSpline
 70
8
 71
3
 72
8
 73
4
 74
0
 40
0
 40
0
 40
0
 40
0
 40
1
 40
1
 40
1
 40
1
 10
55.832313
 20
7.556911
 30
0.0
 10
55.491972
 20
7.753407
 30
0.0
 10
55.282313
 20
8.116547
 30
0.0
 10
55.282313
 20
8.509539
 30
0.0
  0
LWPOLYLINE
  5
136
100
AcDbEntity
  8
0
 62
1
100
AcDbPolyline
 90
1
 70
1
 10
88.937442
 20
59.309669
 30
0.0
  0
SPLINE
  5
137
100
AcDbEntity
  8
0
 62
5
100
AcDbSpline
 70
8
 71
3
 72
8
 73
4
 74
0
 40
0
 40
0
 40
0
 40
0
 40
1
 40
1
 40
1
 40
1
 10
143.952944
 20
79.857914
 30
0.0
 10
143.952563
 20
54.227856
 30
0.0
 10
143.952563
 20
31.466129
 30
0.0
 10
143.952944
 20
8.737851
 30
0.0
  0
SPLINE
  5
138
100
AcDbEntity
  8
0
 62
5
100
AcDbSpline
 70
8
 71
3
 72
8
 73
4
 74
0
 40
0
 40
0
 40
0
 40
0
 40
1
 40
1
 40
1
 40
1
 10
143.952944
 20
8.737851
 30
0.0
 10
143.798796
 20
5.853437
 30
0.0
 10
141.493962
 20
3.697684
 30
0.0
 10
138.872944
 20
3.657851
 30
0.0
  0
SPLINE
  5
139
100
AcDbEntity
  8
0
 62
5
100
AcDbSpline
 70
8
 71
3
 72
8
 73
4
 74
0
 40
0
 40
0
 40
0
 40
0
 40
1
 40
1
 40
1
 40
1
 10
138.872944
 20
3.657851
 30
0.0
 10
128.500897
 20
3.657533
 30
0.0
 10
118.129230
 20
3.657533
 30
0.0
 10
107.757881
 20
3.657851
 30
0.0
  0
SPLINE
  5
13a
100
AcDbEntity
  8
0
 62
5
100
AcDbSpline
 70
8
 71
3
 72
8
 73
4
 74
0
 40
0
 40
0
 40
0
 40
0
 40
1
 40
1
 40
1
 40
1
 10
107.757881
 20
3.657851
 30
0.0
 10
104.933689
 20
3.670772
 30
0.0
 10
102.717099
 20
6.158311
 30
0.0
 10
102.677881
 20
8.737851
 30
0.0
  0
LWPOLYLINE
  5
13b
100
AcDbEntity
  8
0
 62
1
100
AcDbPolyline
 90
1
 70
1
 10
55.282313
 20
8.509539
 30
0.0
  0
SPLINE
  5
13c
100
AcDbEntity
  8
0
 62
5
100
AcDbSpline
 70
8
 71
3
 72
8
 73
4
 74
0
 40
0
 40
0
 40
0
 40
0
 40
1
 40
1
 40
1
 40
1
 10
140.277183
 20
82.129182
 30
0.0
 10
142.068193
 20
82.847281
 30
0.0
 10
143.938728
 20
81.697588
 30
0.0
 10
143.952944
 20
79.857914
 30
0.0
  0
LWPOLYLINE
  5
13d
100
AcDbEntity
  8
0
 62
5
100
AcDbPolyline
 90
3
 70
0
 10
102.677881
 20
8.737851
 30
0.0
 10
102.677563
 20
60.172533
 30
0.0
 10
140.277183
 20
82.129182
 30
0.0
  0
LWPOLYLINE
  5
13e
100
AcDbEntity
  8
0
 62
5
100
AcDbPolyline
 90
1
 70
1
 10
143.952944
 20
79.857914
 30
0.0
  0
SPLINE
  5
13f
100
AcDbEntity
  8
0
 62
1
100
AcDbSpline
 70
8
 71
3
 72
8
 73
4
 74
0
 40
0
 40
0
 40
0
 40
0
 40
1
 40
1
 40
1
 40
1
 10
141.243328
 20
76.048298
 30
0.0
 10
141.243328
 20
76.441290
 30
0.0
 10
141.033669
 20
76.804430
 30
0.0
 10
140.693328
 20
77.000926
 30
0.0
  0
SPLINE
  5
140
100
AcDbEntity
  8
0
 62
1
100
AcDbSpline
 70
8
 71
3
 72
8
 73
4
 74
0
 40
0
 40
0
 40
0
 40
0
 40
1
 40
1
 40
1
 40
1
 10
140.693328
 20
77.000926
 30
0.0
 10
140.352986
 20
77.197422
 30
0.0
 10
139.933669
 20
77.197422
 30
0.0
 10
139.593327
 20
77.000926
 30
0.0
  0
SPLINE
  5
141
100
AcDbEntity
  8
0
 62
1
100
AcDbSpline
 70
8
 71
3
 72
8
 73
4
 74
0
 40
0
 40
0
 40
0
 40
0
 40
1
 40
1
 40
1
 40
1
 10
139.593327
 20
77.000926
 30
0.0
 10
139.252986
 20
76.804430
 30
0.0
 10
139.043327
 20
76.441290
 30
0.0
 10
139.043327
 20
76.048298
 30
0.0
  0
SPLINE
  5
142
100
AcDbEntity
  8
0
 62
1
100
AcDbSpline
 70
8
 71
3
 72
8
 73
4
 74
0
 40
0
 40
0
 40
0
 40
0
 40
1
 40
1
 40
1
 40
1
 10
139.043327
 20
76.048298
 30
0.0
 10
139.043327
 20
75.655305
 30
0.0
 10
139.252986
 20
75.292165
 30
0.0
 10
139.593327
 20
75.095669
 30
0.0
  0
SPLINE
  5
143
100
AcDbEntity
  8
0
 62
1
100
AcDbSpline
 70
8
 71
3
 72
8
 73
4
 74
0
 40
0
 40
0
 40
0
 40
0
 40
1
 40
1
 40
1
 40
1
 10
139.593327
 20
75.095669
 30
0.0
 10
139.933669
 20
74.899173
 30
0.0
 10
140.352986
 20
74.899173
 30
0.0
 10
140.693328
 20
75.095669
 30
0.0
  0
SPLINE
  5
144
100
AcDbEntity
  8
0
 62
1
100
AcDbSpline
 70
8
 71
3
 72
8
 73
4
 74
0
 40
0
 40
0
 40
0
 40
0
 40
1
 40
1
 40
1
 40
1
 10
140.693328
 20
75.095669
 30
0.0
 10
141.033669
 20
75.292165
 30
0.0
 10
141.243328
 20
75.655305
 30
0.0
 10
141.243328
 20
76.048298
 30
0.0
  0
LWPOLYLINE
  5
145
100
AcDbEntity
  8
0
 62
7
100
AcDbPolyline
 90
4
 70
1
 10
108.900563
 20
25.247533
 30
0.0
 10
135.824563
 20
25.247533
 30
0.0
 10
135.824563
 20
43.027533
 30
0.0
 10
108.900563
 20
43.027533
 30
0.0
  0
SPLINE
  5
146
100
AcDbEntity
  8
0
 62
1
100
AcDbSpline
 70
8
 71
3
 72
8
 73
4
 74
0
 40
0
 40
0
 40
0
 40
0
 40
1
 40
1
 40
1
 40
1
 10
107.588198
 20
58.268298
 30
0.0
 10
107.588198
 20
58.875811
 30
0.0
 10
107.095711
 20
59.368298
 30
0.0
 10
106.488198
 20
59.368298
 30
0.0
  0
SPLINE
  5
147
100
AcDbEntity
  8
0
 62
1
100
AcDbSpline
 70
8
 71
3
 72
8
 73
4
 74
0
 40
0
 40
0
 40
0
 40
0
 40
1
 40
1
 40
1
 40
1
 10
106.488198
 20
59.368298
 30
0.0
 10
105.880685
 20
59.368298
 30
0.0
 10
105.388198
 20
58.875811
 30
0.0
 10
105.388198
 20
58.268298
 30
0.0
  0
SPLINE
  5
148
100
AcDbEntity
  8
0
 62
1
100
AcDbSpline
 70
8
 71
3
 72
8
 73
4
 74
0
 40
0
 40
0
 40
0
 40
0
 40
1
 40
1
 40
1
 40
1
 10
105.388198
 20
58.268298
 30
0.0
 10
105.388198
 20
57.875305
 30
0.0
 10
105.597857
 20
57.512165
 30
0.0
 10
105.938198
 20
57.315669
 30
0.0
  0
SPLINE
  5
149
100
AcDbEntity
  8
0
 62
1
100
AcDbSpline
 70
8
 71
3
 72
8
 73
4
 74
0
 40
0
 40
0
 40
0
 40
0
 40
1
 40
1
 40
1
 40
1
 10
105.938198
 20
57.315669
 30
0.0
 10
106.278539
 20
57.119173
 30
0.0
 10
106.697857
 20
57.119173
 30
0.0
 10
107.038198
 20
57.315669
 30
0.0
  0
SPLINE
  5
14a
100
AcDbEntity
  8
0
 62
1
100
AcDbSpline
 70
8
 71
3
 72
8
 73
4
 74
0
 40
0
 40
0
 40
0
 40
0
 40
1
 40
1
 40
1
 40
1
 10
107.038198
 20
57.315669
 30
0.0
 10
107.378539
 20
57.512165
 30
0.0
 10
107.588198
 20
57.875305
 30
0.0
 10
107.588198
 20
58.268298
 30
0.0
  0
LWPOLYLINE
  5
14b
100
AcDbEntity
  8
0
 62
1
100
AcDbPolyline
 90
1
 70
1
 10
141.243328
 20
76.048298
 30
0.0
  0
SPLINE
  5
14c
100
AcDbEntity
  8
0
 62
1
100
AcDbSpline
 70
8
 71
3
 72
8
 73
4
 74
0
 40
0
 40
0
 40
0
 40
0
 40
1
 40
1
 40
1
 40
1
 10
141.243328
 20
7.468168
 30
0.0
 10
141.243328
 20
7.861160
 30
0.0
 10
141.033669
 20
8.224300
 30
0.0
 10
140.693328
 20
8.420796
 30
0.0
  0
SPLINE
  5
14d
100
AcDbEntity
  8
0
 62
1
100
AcDbSpline
 70
8
 71
3
 72
8
 73
4
 74
0
 40
0
 40
0
 40
0
 40
0
 40
1
 40
1
 40
1
 40
1
 10
140.693328
 20
8.420796
 30
0.0
 10
140.352986
 20
8.617292
 30
0.0
 10
139.933669
 20
8.617292
 30
0.0
 10
139.593327
 20
8.420796
 30
0.0
  0
SPLINE
  5
14e
100
AcDbEntity
  8
0
 62
1
100
AcDbSpline
 70
8
 71
3
 72
8
 73
4
 74
0
 40
0
 40
0
 40
0
 40
0
 40
1
 40
1
 40
1
 40
1
 10
139.593327
 20
8.420796
 30
0.0
 10
139.252986
 20
8.224300
 30
0.0
 10
139.043327
 20
7.861160
 30
0.0
 10
139.043327
 20
7.468168
 30
0.0
  0
SPLINE
  5
14f
100
AcDbEntity
  8
0
 62
1
100
AcDbSpline
 70
8
 71
3
 72
8
 73
4
 74
0
 40
0
 40
0
 40
0
 40
0
 40
1
 40
1
 40
1
 40
1
 10
139.043327
 20
7.468168
 30
0.0
 10
139.043327
 20
7.075176
 30
0.0
 10
139.252986
 20
6.712036
 30
0.0
 10
139.593327
 20
6.515540
 30
0.0
  0
SPLINE
  5
150
100
AcDbEntity
  8
0
 62
1
100
AcDbSpline
 70
8
 71
3
 72
8
 73
4
 74
0
 40
0
 40
0
 40
0
 40
0
 40
1
 40
1
 40
1
 40
1
 10
139.593327
 20
6.515540
 30
0.0
 10
139.933669
 20
6.319044
 30
0.0
 10
140.352986
 20
6.319044
 30
0.0
 10
140.693328
 20
6.515540
 30
0.0
  0
SPLINE
  5
151
100
AcDbEntity
  8
0
 62
1
100
AcDbSpline
 70
8
 71
3
 72
8
 73
4
 74
0
 40
0
 40
0
 40
0
 40
0
 40
1
 40
1
 40
1
 40
1
 10
140.693328
 20
6.515540
 30
0.0
 10
141.033669
 20
6.712036
 30
0.0
 10
141.243328
 20
7.075176
 30
0.0
 10
141.243328
 20
7.468168
 30
0.0
  0
LWPOLYLINE
  5
152
100
AcDbEntity
  8
0
 62
1
100
AcDbPolyline
 90
1
 70
1
 10
107.588198
 20
58.268298
 30
0.0
  0
LWPOLYLINE
  5
153
100
AcDbEntity
  8
0
 62
1
100
AcDbPolyline
 90
1
 70
1
 10
141.243328
 20
7.468168
 30
0.0
  0
SPLINE
  5
154
100
AcDbEntity
  8
0
 62
5
100
AcDbSpline
 70
8
 71
3
 72
8
 73
4
 74
0
 40
0
 40
0
 40
0
 40
0
 40
1
 40
1
 40
1
 40
1
 10
149.284038
 20
80.705288
 30
0.0
 10
149.284419
 20
55.075230
 30
0.0
 10
149.284419
 20
32.313503
 30
0.0
 10
149.284038
 20
9.585225
 30
0.0
  0
SPLINE
  5
155
100
AcDbEntity
  8
0
 62
5
100
AcDbSpline
 70
8
 71
3
 72
8
 73
4
 74
0
 40
0
 40
0
 40
0
 40
0
 40
1
 40
1
 40
1
 40
1
 10
149.284038
 20
9.585225
 30
0.0
 10
149.438185
 20
6.700811
 30
0.0
 10
151.743019
 20
4.545058
 30
0.0
 10
154.364038
 20
4.505225
 30
0.0
  0
SPLINE
  5
156
100
AcDbEntity
  8
0
 62
5
100
AcDbSpline
 70
8
 71
3
 72
8
 73
4
 74
0
 40
0
 40
0
 40
0
 40
0
 40
1
 40
1
 40
1
 40
1
 10
154.364038
 20
4.505225
 30
0.0
 10
164.736084
 20
4.504907
 30
0.0
 10
175.107752
 20
4.504907
 30
0.0
 10
185.479101
 20
4.505225
 30
0.0
  0
SPLINE
  5
157
100
AcDbEntity
  8
0
 62
5
100
AcDbSpline
 70
8
 71
3
 72
8
 73
4
 74
0
 40
0
 40
0
 40
0
 40
0
 40
1
 40
1
 40
1
 40
1
 10
185.479101
 20
4.505225
 30
0.0
 10
188.303293
 20
4.518146
 30
0.0
 10
190.519883
 20
7.005685
 30
0.0
 10
190.559101
 20
9.585225
 30
0.0
  0
LWPOLYLINE
  5
158
100
AcDbEntity
  8
0
 62
7
100
AcDbPolyline
 90
4
 70
1
 10
50.168182
 20
191.267673
 30
0.0
 10
57.210621
 20
191.267673
 30
0.0
 10
57.210621
 20
179.070328
 30
0.0
 10
50.168182
 20
179.070328
 30
0.0
  0
SPLINE
  5
159
100
AcDbEntity
  8
0
 62
5
100
AcDbSpline
 70
8
 71
3
 72
8
 73
4
 74
0
 40
0
 40
0
 40
0
 40
0
 40
1
 40
1
 40
1
 40
1
 10
152.959799
 20
82.976556
 30
0.0
 10
151.168789
 20
83.694655
 30
0.0
 10
149.298254
 20
82.544962
 30
0.0
 10
149.284038
 20
80.705288
 30
0.0
  0
LWPOLYLINE
  5
15a
100
AcDbEntity
  8
0
 62
5
100
AcDbPolyline
 90
3
 70
0
 10
190.559101
 20
9.585225
 30
0.0
 10
190.559419
 20
61.019907
 30
0.0
 10
152.959799
 20
82.976556
 30
0.0
  0
LWPOLYLINE
  5
15b
100
AcDbEntity
  8
0
 62
5
100
AcDbPolyline
 90
1
 70
1
 10
149.284038
 20
80.705288
 30
0.0
  0
SPLINE
  5
15c
100
AcDbEntity
  8
0
 62
1
100
AcDbSpline
 70
8
 71
3
 72
8
 73
4
 74
0
 40
0
 40
0
 40
0
 40
0
 40
1
 40
1
 40
1
 40
1
 10
151.993654
 20
76.895672
 30
0.0
 10
151.993654
 20
77.288664
 30
0.0
 10
152.203313
 20
77.651804
 30
0.0
 10
152.543654
 20
77.848300
 30
0.0
  0
SPLINE
  5
15d
100
AcDbEntity
  8
0
 62
1
100
AcDbSpline
 70
8
 71
3
 72
8
 73
4
 74
0
 40
0
 40
0
 40
0
 40
0
 40
1
 40
1
 40
1
 40
1
 10
152.543654
 20
77.848300
 30
0.0
 10
152.883995
 20
78.044796
 30
0.0
 10
153.303313
 20
78.044796
 30
0.0
 10
153.643654
 20
77.848300
 30
0.0
  0
SPLINE
  5
15e
100
AcDbEntity
  8
0
 62
1
100
AcDbSpline
 70
8
 71
3
 72
8
 73
4
 74
0
 40
0
 40
0
 40
0
 40
0
 40
1
 40
1
 40
1
 40
1
 10
153.643654
 20
77.848300
 30
0.0
 10
153.983996
 20
77.651804
 30
0.0
 10
154.193654
 20
77.288664
 30
0.0
 10
154.193654
 20
76.895672
 30
0.0
  0
SPLINE
  5
15f
100
AcDbEntity
  8
0
 62
1
100
AcDbSpline
 70
8
 71
3
 72
8
 73
4
 74
0
 40
0
 40
0
 40
0
 40
0
 40
1
 40
1
 40
1
 40
1
 10
154.193654
 20
76.895672
 30
0.0
 10
154.193654
 20
76.502679
 30
0.0
 10
153.983996
 20
76.139539
 30
0.0
 10
153.643654
 20
75.943043
 30
0.0
  0
SPLINE
  5
160
100
AcDbEntity
  8
0
 62
1
100
AcDbSpline
 70
8
 71
3
 72
8
 73
4
 74
0
 40
0
 40
0
 40
0
 40
0
 40
1
 40
1
 40
1
 40
1
 10
153.643654
 20
75.943043
 30
0.0
 10
153.303313
 20
75.746547
 30
0.0
 10
152.883995
 20
75.746547
 30
0.0
 10
152.543654
 20
75.943043
 30
0.0
  0
SPLINE
  5
161
100
AcDbEntity
  8
0
 62
1
100
AcDbSpline
 70
8
 71
3
 72
8
 73
4
 74
0
 40
0
 40
0
 40
0
 40
0
 40
1
 40
1
 40
1
 40
1
 10
152.543654
 20
75.943043
 30
0.0
 10
152.203313
 20
76.139539
 30
0.0
 10
151.993654
 20
76.502679
 30
0.0
 10
151.993654
 20
76.895672
 30
0.0
  0
LWPOLYLINE
  5
162
100
AcDbEntity
  8
0
 62
7
100
AcDbPolyline
 90
4
 70
1
 10
184.336419
 20
26.094907
 30
0.0
 10
157.412419
 20
26.094907
 30
0.0
 10
157.412419
 20
43.874907
 30
0.0
 10
184.336419
 20
43.874907
 30
0.0
  0
SPLINE
  5
163
100
AcDbEntity
  8
0
 62
1
100
AcDbSpline
 70
8
 71
3
 72
8
 73
4
 74
0
 40
0
 40
0
 40
0
 40
0
 40
1
 40
1
 40
1
 40
1
 10
185.648783
 20
59.115672
 30
0.0
 10
185.648783
 20
59.723185
 30
0.0
 10
186.141270
 20
60.215672
 30
0.0
 10
186.748784
 20
60.215672
 30
0.0
  0
SPLINE
  5
164
100
AcDbEntity
  8
0
 62
1
100
AcDbSpline
 70
8
 71
3
 72
8
 73
4
 74
0
 40
0
 40
0
 40
0
 40
0
 40
1
 40
1
 40
1
 40
1
 10
186.748784
 20
60.215672
 30
0.0
 10
187.356297
 20
60.215672
 30
0.0
 10
187.848784
 20
59.723185
 30
0.0
 10
187.848784
 20
59.115672
 30
0.0
  0
SPLINE
  5
165
100
AcDbEntity
  8
0
 62
1
100
AcDbSpline
 70
8
 71
3
 72
8
 73
4
 74
0
 40
0
 40
0
 40
0
 40
0
 40
1
 40
1
 40
1
 40
1
 10
187.848784
 20
59.115672
 30
0.0
 10
187.848784
 20
58.722679
 30
0.0
 10
187.639125
 20
58.359539
 30
0.0
 10
187.298784
 20
58.163043
 30
0.0
  0
SPLINE
  5
166
100
AcDbEntity
  8
0
 62
1
100
AcDbSpline
 70
8
 71
3
 72
8
 73
4
 74
0
 40
0
 40
0
 40
0
 40
0
 40
1
 40
1
 40
1
 40
1
 10
187.298784
 20
58.163043
 30
0.0
 10
186.958442
 20
57.966547
 30
0.0
 10
186.539125
 20
57.966547
 30
0.0
 10
186.198783
 20
58.163043
 30
0.0
  0
SPLINE
  5
167
100
AcDbEntity
  8
0
 62
1
100
AcDbSpline
 70
8
 71
3
 72
8
 73
4
 74
0
 40
0
 40
0
 40
0
 40
0
 40
1
 40
1
 40
1
 40
1
 10
186.198783
 20
58.163043
 30
0.0
 10
185.858442
 20
58.359539
 30
0.0
 10
185.648783
 20
58.722679
 30
0.0
 10
185.648783
 20
59.115672
 30
0.0
  0
LWPOLYLINE
  5
168
100
AcDbEntity
  8
0
 62
1
100
AcDbPolyline
 90
1
 70
1
 10
151.993654
 20
76.895672
 30
0.0
  0
SPLINE
  5
169
100
AcDbEntity
  8
0
 62
1
100
AcDbSpline
 70
8
 71
3
 72
8
 73
4
 74
0
 40
0
 40
0
 40
0
 40
0
 40
1
 40
1
 40
1
 40
1
 10
151.993654
 20
8.315542
 30
0.0
 10
151.993654
 20
8.708534
 30
0.0
 10
152.203313
 20
9.071674
 30
0.0
 10
152.543654
 20
9.268170
 30
0.0
  0
SPLINE
  5
16a
100
AcDbEntity
  8
0
 62
1
100
AcDbSpline
 70
8
 71
3
 72
8
 73
4
 74
0
 40
0
 40
0
 40
0
 40
0
 40
1
 40
1
 40
1
 40
1
 10
152.543654
 20
9.268170
 30
0.0
 10
152.883995
 20
9.464666
 30
0.0
 10
153.303313
 20
9.464666
 30
0.0
 10
153.643654
 20
9.268170
 30
0.0
  0
SPLINE
  5
16b
100
AcDbEntity
  8
0
 62
1
100
AcDbSpline
 70
8
 71
3
 72
8
 73
4
 74
0
 40
0
 40
0
 40
0
 40
0
 40
1
 40
1
 40
1
 40
1
 10
153.643654
 20
9.268170
 30
0.0
 10
153.983996
 20
9.071674
 30
0.0
 10
154.193654
 20
8.708534
 30
0.0
 10
154.193654
 20
8.315542
 30
0.0
  0
SPLINE
  5
16c
100
AcDbEntity
  8
0
 62
1
100
AcDbSpline
 70
8
 71
3
 72
8
 73
4
 74
0
 40
0
 40
0
 40
0
 40
0
 40
1
 40
1
 40
1
 40
1
 10
154.193654
 20
8.315542
 30
0.0
 10
154.193654
 20
7.922550
 30
0.0
 10
153.983996
 20
7.559410
 30
0.0
 10
153.643654
 20
7.362914
 30
0.0
  0
SPLINE
  5
16d
100
AcDbEntity
  8
0
 62
1
100
AcDbSpline
 70
8
 71
3
 72
8
 73
4
 74
0
 40
0
 40
0
 40
0
 40
0
 40
1
 40
1
 40
1
 40
1
 10
153.643654
 20
7.362914
 30
0.0
 10
153.303313
 20
7.166418
 30
0.0
 10
152.883995
 20
7.166418
 30
0.0
 10
152.543654
 20
7.362914
 30
0.0
  0
SPLINE
  5
16e
100
AcDbEntity
  8
0
 62
1
100
AcDbSpline
 70
8
 71
3
 72
8
 73
4
 74
0
 40
0
 40
0
 40
0
 40
0
 40
1
 40
1
 40
1
 40
1
 10
152.543654
 20
7.362914
 30
0.0
 10
152.203313
 20
7.559410
 30
0.0
 10
151.993654
 20
7.922550
 30
0.0
 10
151.993654
 20
8.315542
 30
0.0
  0
LWPOLYLINE
  5
16f
100
AcDbEntity
  8
0
 62
1
100
AcDbPolyline
 90
1
 70
1
 10
185.648783
 20
59.115672
 30
0.0
  0
SPLINE
  5
170
100
AcDbEntity
  8
0
 62
5
100
AcDbSpline
 70
8
 71
3
 72
8
 73
4
 74
0
 40
0
 40
0
 40
0
 40
0
 40
1
 40
1
 40
1
 40
1
 10
102.553699
 20
68.785214
 30
0.0
 10
102.554080
 20
94.415272
 30
0.0
 10
102.554080
 20
117.176999
 30
0.0
 10
102.553699
 20
139.905278
 30
0.0
  0
SPLINE
  5
171
100
AcDbEntity
  8
0
 62
5
100
AcDbSpline
 70
8
 71
3
 72
8
 73
4
 74
0
 40
0
 40
0
 40
0
 40
0
 40
1
 40
1
 40
1
 40
1
 10
102.553699
 20
139.905278
 30
0.0
 10
102.707846
 20
142.789691
 30
0.0
 10
105.012680
 20
144.945444
 30
0.0
 10
107.633699
 20
144.985278
 30
0.0
  0
SPLINE
  5
172
100
AcDbEntity
  8
0
 62
5
100
AcDbSpline
 70
8
 71
3
 72
8
 73
4
 74
0
 40
0
 40
0
 40
0
 40
0
 40
1
 40
1
 40
1
 40
1
 10
107.633699
 20
144.985278
 30
0.0
 10
118.005745
 20
144.985595
 30
0.0
 10
128.377413
 20
144.985595
 30
0.0
 10
138.748762
 20
144.985278
 30
0.0
  0
SPLINE
  5
173
100
AcDbEntity
  8
0
 62
5
100
AcDbSpline
 70
8
 71
3
 72
8
 73
4
 74
0
 40
0
 40
0
 40
0
 40
0
 40
1
 40
1
 40
1
 40
1
 10
138.748762
 20
144.985278
 30
0.0
 10
141.572954
 20
144.972356
 30
0.0
 10
143.789544
 20
142.484817
 30
0.0
 10
143.828762
 20
139.905278
 30
0.0
  0
LWPOLYLINE
  5
174
100
AcDbEntity
  8
0
 62
1
100
AcDbPolyline
 90
1
 70
1
 10
151.993654
 20
8.315542
 30
0.0
  0
SPLINE
  5
175
100
AcDbEntity
  8
0
 62
5
100
AcDbSpline
 70
8
 71
3
 72
8
 73
4
 74
0
 40
0
 40
0
 40
0
 40
0
 40
1
 40
1
 40
1
 40
1
 10
106.229460
 20
66.513946
 30
0.0
 10
104.438450
 20
65.795847
 30
0.0
 10
102.567915
 20
66.945540
 30
0.0
 10
102.553699
 20
68.785214
 30
0.0
  0
LWPOLYLINE
  5
176
100
AcDbEntity
  8
0
 62
5
100
AcDbPolyline
 90
3
 70
0
 10
143.828762
 20
139.905278
 30
0.0
 10
143.829080
 20
88.470595
 30
0.0
 10
106.229460
 20
66.513946
 30
0.0
  0
LWPOLYLINE
  5
177
100
AcDbEntity
  8
0
 62
5
100
AcDbPolyline
 90
1
 70
1
 10
102.553699
 20
68.785214
 30
0.0
  0
SPLINE
  5
178
100
AcDbEntity
  8
0
 62
1
100
AcDbSpline
 70
8
 71
3
 72
8
 73
4
 74
0
 40
0
 40
0
 40
0
 40
0
 40
1
 40
1
 40
1
 40
1
 10
105.263315
 20
72.594830
 30
0.0
 10
105.263315
 20
72.201838
 30
0.0
 10
105.472974
 20
71.838698
 30
0.0
 10
105.813315
 20
71.642202
 30
0.0
  0
SPLINE
  5
179
100
AcDbEntity
  8
0
 62
1
100
AcDbSpline
 70
8
 71
3
 72
8
 73
4
 74
0
 40
0
 40
0
 40
0
 40
0
 40
1
 40
1
 40
1
 40
1
 10
105.813315
 20
71.642202
 30
0.0
 10
106.153656
 20
71.445706
 30
0.0
 10
106.572974
 20
71.445706
 30
0.0
 10
106.913315
 20
71.642202
 30
0.0
  0
SPLINE
  5
17a
100
AcDbEntity
  8
0
 62
1
100
AcDbSpline
 70
8
 71
3
 72
8
 73
4
 74
0
 40
0
 40
0
 40
0
 40
0
 40
1
 40
1
 40
1
 40
1
 10
106.913315
 20
71.642202
 30
0.0
 10
107.253657
 20
71.838698
 30
0.0
 10
107.463315
 20
72.201838
 30
0.0
 10
107.463315
 20
72.594830
 30
0.0
  0
SPLINE
  5
17b
100
AcDbEntity
  8
0
 62
1
100
AcDbSpline
 70
8
 71
3
 72
8
 73
4
 74
0
 40
0
 40
0
 40
0
 40
0
 40
1
 40
1
 40
1
 40
1
 10
107.463315
 20
72.594830
 30
0.0
 10
107.463315
 20
72.987823
 30
0.0
 10
107.253657
 20
73.350963
 30
0.0
 10
106.913315
 20
73.547459
 30
0.0
  0
SPLINE
  5
17c
100
AcDbEntity
  8
0
 62
1
100
AcDbSpline
 70
8
 71
3
 72
8
 73
4
 74
0
 40
0
 40
0
 40
0
 40
0
 40
1
 40
1
 40
1
 40
1
 10
106.913315
 20
73.547459
 30
0.0
 10
106.572974
 20
73.743955
 30
0.0
 10
106.153656
 20
73.743955
 30
0.0
 10
105.813315
 20
73.547459
 30
0.0
  0
SPLINE
  5
17d
100
AcDbEntity
  8
0
 62
1
100
AcDbSpline
 70
8
 71
3
 72
8
 73
4
 74
0
 40
0
 40
0
 40
0
 40
0
 40
1
 40
1
 40
1
 40
1
 10
105.813315
 20
73.547459
 30
0.0
 10
105.472974
 20
73.350963
 30
0.0
 10
105.263315
 20
72.987823
 30
0.0
 10
105.263315
 20
72.594830
 30
0.0
  0
LWPOLYLINE
  5
17e
100
AcDbEntity
  8
0
 62
7
100
AcDbPolyline
 90
4
 70
1
 10
137.606080
 20
123.395595
 30
0.0
 10
110.682080
 20
123.395595
 30
0.0
 10
110.682080
 20
105.615595
 30
0.0
 10
137.606080
 20
105.615595
 30
0.0
  0
SPLINE
  5
17f
100
AcDbEntity
  8
0
 62
1
100
AcDbSpline
 70
8
 71
3
 72
8
 73
4
 74
0
 40
0
 40
0
 40
0
 40
0
 40
1
 40
1
 40
1
 40
1
 10
138.918444
 20
90.374830
 30
0.0
 10
138.918444
 20
89.767317
 30
0.0
 10
139.410931
 20
89.274830
 30
0.0
 10
140.018445
 20
89.274830
 30
0.0
  0
SPLINE
  5
180
100
AcDbEntity
  8
0
 62
1
100
AcDbSpline
 70
8
 71
3
 72
8
 73
4
 74
0
 40
0
 40
0
 40
0
 40
0
 40
1
 40
1
 40
1
 40
1
 10
140.018445
 20
89.274830
 30
0.0
 10
140.625958
 20
89.274830
 30
0.0
 10
141.118445
 20
89.767317
 30
0.0
 10
141.118445
 20
90.374830
 30
0.0
  0
SPLINE
  5
181
100
AcDbEntity
  8
0
 62
1
100
AcDbSpline
 70
8
 71
3
 72
8
 73
4
 74
0
 40
0
 40
0
 40
0
 40
0
 40
1
 40
1
 40
1
 40
1
 10
141.118445
 20
90.374830
 30
0.0
 10
141.118445
 20
90.767823
 30
0.0
 10
140.908786
 20
91.130963
 30
0.0
 10
140.568445
 20
91.327459
 30
0.0
  0
SPLINE
  5
182
100
AcDbEntity
  8
0
 62
1
100
AcDbSpline
 70
8
 71
3
 72
8
 73
4
 74
0
 40
0
 40
0
 40
0
 40
0
 40
1
 40
1
 40
1
 40
1
 10
140.568445
 20
91.327459
 30
0.0
 10
140.228103
 20
91.523955
 30
0.0
 10
139.808786
 20
91.523955
 30
0.0
 10
139.468444
 20
91.327459
 30
0.0
  0
SPLINE
  5
183
100
AcDbEntity
  8
0
 62
1
100
AcDbSpline
 70
8
 71
3
 72
8
 73
4
 74
0
 40
0
 40
0
 40
0
 40
0
 40
1
 40
1
 40
1
 40
1
 10
139.468444
 20
91.327459
 30
0.0
 10
139.128103
 20
91.130963
 30
0.0
 10
138.918444
 20
90.767823
 30
0.0
 10
138.918444
 20
90.374830
 30
0.0
  0
LWPOLYLINE
  5
184
100
AcDbEntity
  8
0
 62
1
100
AcDbPolyline
 90
1
 70
1
 10
105.263315
 20
72.594830
 30
0.0
  0
SPLINE
  5
185
100
AcDbEntity
  8
0
 62
1
100
AcDbSpline
 70
8
 71
3
 72
8
 73
4
 74
0
 40
0
 40
0
 40
0
 40
0
 40
1
 40
1
 40
1
 40
1
 10
105.263315
 20
141.174960
 30
0.0
 10
105.263315
 20
140.781968
 30
0.0
 10
105.472974
 20
140.418828
 30
0.0
 10
105.813315
 20
140.222332
 30
0.0
  0
SPLINE
  5
186
100
AcDbEntity
  8
0
 62
1
100
AcDbSpline
 70
8
 71
3
 72
8
 73
4
 74
0
 40
0
 40
0
 40
0
 40
0
 40
1
 40
1
 40
1
 40
1
 10
105.813315
 20
140.222332
 30
0.0
 10
106.153656
 20
140.025836
 30
0.0
 10
106.572974
 20
140.025836
 30
0.0
 10
106.913315
 20
140.222332
 30
0.0
  0
SPLINE
  5
187
100
AcDbEntity
  8
0
 62
1
100
AcDbSpline
 70
8
 71
3
 72
8
 73
4
 74
0
 40
0
 40
0
 40
0
 40
0
 40
1
 40
1
 40
1
 40
1
 10
106.913315
 20
140.222332
 30
0.0
 10
107.253657
 20
140.418828
 30
0.0
 10
107.463315
 20
140.781968
 30
0.0
 10
107.463315
 20
141.174960
 30
0.0
  0
SPLINE
  5
188
100
AcDbEntity
  8
0
 62
1
100
AcDbSpline
 70
8
 71
3
 72
8
 73
4
 74
0
 40
0
 40
0
 40
0
 40
0
 40
1
 40
1
 40
1
 40
1
 10
107.463315
 20
141.174960
 30
0.0
 10
107.463315
 20
141.567952
 30
0.0
 10
107.253657
 20
141.931092
 30
0.0
 10
106.913315
 20
142.127588
 30
0.0
  0
SPLINE
  5
189
100
AcDbEntity
  8
0
 62
1
100
AcDbSpline
 70
8
 71
3
 72
8
 73
4
 74
0
 40
0
 40
0
 40
0
 40
0
 40
1
 40
1
 40
1
 40
1
 10
106.913315
 20
142.127588
 30
0.0
 10
106.572974
 20
142.324084
 30
0.0
 10
106.153656
 20
142.324084
 30
0.0
 10
105.813315
 20
142.127588
 30
0.0
  0
SPLINE
  5
18a
100
AcDbEntity
  8
0
 62
1
100
AcDbSpline
 70
8
 71
3
 72
8
 73
4
 74
0
 40
0
 40
0
 40
0
 40
0
 40
1
 40
1
 40
1
 40
1
 10
105.813315
 20
142.127588
 30
0.0
 10
105.472974
 20
141.931092
 30
0.0
 10
105.263315
 20
141.567952
 30
0.0
 10
105.263315
 20
141.174960
 30
0.0
  0
LWPOLYLINE
  5
18b
100
AcDbEntity
  8
0
 62
1
100
AcDbPolyline
 90
1
 70
1
 10
138.918444
 20
90.374830
 30
0.0
  0
SPLINE
  5
18c
100
AcDbEntity
  8
0
 62
5
100
AcDbSpline
 70
8
 71
3
 72
8
 73
4
 74
0
 40
0
 40
0
 40
0
 40
0
 40
1
 40
1
 40
1
 40
1
 10
191.449642
 20
68.848120
 30
0.0
 10
191.449261
 20
94.478178
 30
0.0
 10
191.449261
 20
117.239905
 30
0.0
 10
191.449642
 20
139.968184
 30
0.0
  0
SPLINE
  5
18d
100
AcDbEntity
  8
0
 62
5
100
AcDbSpline
 70
8
 71
3
 72
8
 73
4
 74
0
 40
0
 40
0
 40
0
 40
0
 40
1
 40
1
 40
1
 40
1
 10
191.449642
 20
139.968184
 30
0.0
 10
191.295495
 20
142.852597
 30
0.0
 10
188.990661
 20
145.008350
 30
0.0
 10
186.369642
 20
145.048184
 30
0.0
  0
SPLINE
  5
18e
100
AcDbEntity
  8
0
 62
5
100
AcDbSpline
 70
8
 71
3
 72
8
 73
4
 74
0
 40
0
 40
0
 40
0
 40
0
 40
1
 40
1
 40
1
 40
1
 10
186.369642
 20
145.048184
 30
0.0
 10
175.997596
 20
145.048501
 30
0.0
 10
165.625928
 20
145.048501
 30
0.0
 10
155.254579
 20
145.048184
 30
0.0
  0
SPLINE
  5
18f
100
AcDbEntity
  8
0
 62
5
100
AcDbSpline
 70
8
 71
3
 72
8
 73
4
 74
0
 40
0
 40
0
 40
0
 40
0
 40
1
 40
1
 40
1
 40
1
 10
155.254579
 20
145.048184
 30
0.0
 10
152.430387
 20
145.035262
 30
0.0
 10
150.213797
 20
142.547723
 30
0.0
 10
150.174579
 20
139.968184
 30
0.0
  0
LWPOLYLINE
  5
190
100
AcDbEntity
  8
0
 62
1
100
AcDbPolyline
 90
1
 70
1
 10
105.263315
 20
141.174960
 30
0.0
  0
SPLINE
  5
191
100
AcDbEntity
  8
0
 62
5
100
AcDbSpline
 70
8
 71
3
 72
8
 73
4
 74
0
 40
0
 40
0
 40
0
 40
0
 40
1
 40
1
 40
1
 40
1
 10
187.773881
 20
66.576852
 30
0.0
 10
189.564891
 20
65.858753
 30
0.0
 10
191.435426
 20
67.008446
 30
0.0
 10
191.449642
 20
68.848120
 30
0.0
  0
LWPOLYLINE
  5
192
100
AcDbEntity
  8
0
 62
5
100
AcDbPolyline
 90
3
 70
0
 10
150.174579
 20
139.968184
 30
0.0
 10
150.174261
 20
88.533501
 30
0.0
 10
187.773881
 20
66.576852
 30
0.0
  0
LWPOLYLINE
  5
193
100
AcDbEntity
  8
0
 62
5
100
AcDbPolyline
 90
1
 70
1
 10
191.449642
 20
68.848120
 30
0.0
  0
SPLINE
  5
194
100
AcDbEntity
  8
0
 62
1
100
AcDbSpline
 70
8
 71
3
 72
8
 73
4
 74
0
 40
0
 40
0
 40
0
 40
0
 40
1
 40
1
 40
1
 40
1
 10
188.740026
 20
72.657736
 30
0.0
 10
188.740026
 20
72.264744
 30
0.0
 10
188.530367
 20
71.901604
 30
0.0
 10
188.190026
 20
71.705108
 30
0.0
  0
SPLINE
  5
195
100
AcDbEntity
  8
0
 62
1
100
AcDbSpline
 70
8
 71
3
 72
8
 73
4
 74
0
 40
0
 40
0
 40
0
 40
0
 40
1
 40
1
 40
1
 40
1
 10
188.190026
 20
71.705108
 30
0.0
 10
187.849685
 20
71.508612
 30
0.0
 10
187.430367
 20
71.508612
 30
0.0
 10
187.090026
 20
71.705108
 30
0.0
  0
SPLINE
  5
196
100
AcDbEntity
  8
0
 62
1
100
AcDbSpline
 70
8
 71
3
 72
8
 73
4
 74
0
 40
0
 40
0
 40
0
 40
0
 40
1
 40
1
 40
1
 40
1
 10
187.090026
 20
71.705108
 30
0.0
 10
186.749684
 20
71.901604
 30
0.0
 10
186.540026
 20
72.264744
 30
0.0
 10
186.540026
 20
72.657736
 30
0.0
  0
SPLINE
  5
197
100
AcDbEntity
  8
0
 62
1
100
AcDbSpline
 70
8
 71
3
 72
8
 73
4
 74
0
 40
0
 40
0
 40
0
 40
0
 40
1
 40
1
 40
1
 40
1
 10
186.540026
 20
72.657736
 30
0.0
 10
186.540026
 20
73.050729
 30
0.0
 10
186.749684
 20
73.413869
 30
0.0
 10
187.090026
 20
73.610365
 30
0.0
  0
SPLINE
  5
198
100
AcDbEntity
  8
0
 62
1
100
AcDbSpline
 70
8
 71
3
 72
8
 73
4
 74
0
 40
0
 40
0
 40
0
 40
0
 40
1
 40
1
 40
1
 40
1
 10
187.090026
 20
73.610365
 30
0.0
 10
187.430367
 20
73.806861
 30
0.0
 10
187.849685
 20
73.806861
 30
0.0
 10
188.190026
 20
73.610365
 30
0.0
  0
SPLINE
  5
199
100
AcDbEntity
  8
0
 62
1
100
AcDbSpline
 70
8
 71
3
 72
8
 73
4
 74
0
 40
0
 40
0
 40
0
 40
0
 40
1
 40
1
 40
1
 40
1
 10
188.190026
 20
73.610365
 30
0.0
 10
188.530367
 20
73.413869
 30
0.0
 10
188.740026
 20
73.050729
 30
0.0
 10
188.740026
 20
72.657736
 30
0.0
  0
LWPOLYLINE
  5
19a
100
AcDbEntity
  8
0
 62
7
100
AcDbPolyline
 90
4
 70
1
 10
156.397261
 20
123.458501
 30
0.0
 10
183.321261
 20
123.458501
 30
0.0
 10
183.321261
 20
105.678501
 30
0.0
 10
156.397261
 20
105.678501
 30
0.0
  0
SPLINE
  5
19b
100
AcDbEntity
  8
0
 62
1
100
AcDbSpline
 70
8
 71
3
 72
8
 73
4
 74
0
 40
0
 40
0
 40
0
 40
0
 40
1
 40
1
 40
1
 40
1
 10
155.084897
 20
90.437736
 30
0.0
 10
155.084897
 20
89.830223
 30
0.0
 10
154.592410
 20
89.337736
 30
0.0
 10
153.984896
 20
89.337736
 30
0.0
  0
SPLINE
  5
19c
100
AcDbEntity
  8
0
 62
1
100
AcDbSpline
 70
8
 71
3
 72
8
 73
4
 74
0
 40
0
 40
0
 40
0
 40
0
 40
1
 40
1
 40
1
 40
1
 10
153.984896
 20
89.337736
 30
0.0
 10
153.377383
 20
89.337736
 30
0.0
 10
152.884896
 20
89.830223
 30
0.0
 10
152.884896
 20
90.437736
 30
0.0
  0
SPLINE
  5
19d
100
AcDbEntity
  8
0
 62
1
100
AcDbSpline
 70
8
 71
3
 72
8
 73
4
 74
0
 40
0
 40
0
 40
0
 40
0
 40
1
 40
1
 40
1
 40
1
 10
152.884896
 20
90.437736
 30
0.0
 10
152.884896
 20
90.830729
 30
0.0
 10
153.094555
 20
91.193869
 30
0.0
 10
153.434896
 20
91.390365
 30
0.0
  0
SPLINE
  5
19e
100
AcDbEntity
  8
0
 62
1
100
AcDbSpline
 70
8
 71
3
 72
8
 73
4
 74
0
 40
0
 40
0
 40
0
 40
0
 40
1
 40
1
 40
1
 40
1
 10
153.434896
 20
91.390365
 30
0.0
 10
153.775238
 20
91.586861
 30
0.0
 10
154.194555
 20
91.586861
 30
0.0
 10
154.534897
 20
91.390365
 30
0.0
  0
SPLINE
  5
19f
100
AcDbEntity
  8
0
 62
1
100
AcDbSpline
 70
8
 71
3
 72
8
 73
4
 74
0
 40
0
 40
0
 40
0
 40
0
 40
1
 40
1
 40
1
 40
1
 10
154.534897
 20
91.390365
 30
0.0
 10
154.875238
 20
91.193869
 30
0.0
 10
155.084897
 20
90.830729
 30
0.0
 10
155.084897
 20
90.437736
 30
0.0
  0
LWPOLYLINE
  5
1a0
100
AcDbEntity
  8
0
 62
1
100
AcDbPolyline
 90
1
 70
1
 10
188.740026
 20
72.657736
 30
0.0
  0
SPLINE
  5
1a1
100
AcDbEntity
  8
0
 62
1
100
AcDbSpline
 70
8
 71
3
 72
8
 73
4
 74
0
 40
0
 40
0
 40
0
 40
0
 40
1
 40
1
 40
1
 40
1
 10
188.740026
 20
141.237866
 30
0.0
 10
188.740026
 20
140.844874
 30
0.0
 10
188.530367
 20
140.481734
 30
0.0
 10
188.190026
 20
140.285238
 30
0.0
  0
SPLINE
  5
1a2
100
AcDbEntity
  8
0
 62
1
100
AcDbSpline
 70
8
 71
3
 72
8
 73
4
 74
0
 40
0
 40
0
 40
0
 40
0
 40
1
 40
1
 40
1
 40
1
 10
188.190026
 20
140.285238
 30
0.0
 10
187.849685
 20
140.088742
 30
0.0
 10
187.430367
 20
140.088742
 30
0.0
 10
187.090026
 20
140.285238
 30
0.0
  0
SPLINE
  5
1a3
100
AcDbEntity
  8
0
 62
1
100
AcDbSpline
 70
8
 71
3
 72
8
 73
4
 74
0
 40
0
 40
0
 40
0
 40
0
 40
1
 40
1
 40
1
 40
1
 10
187.090026
 20
140.285238
 30
0.0
 10
186.749684
 20
140.481734
 30
0.0
 10
186.540026
 20
140.844874
 30
0.0
 10
186.540026
 20
141.237866
 30
0.0
  0
SPLINE
  5
1a4
100
AcDbEntity
  8
0
 62
1
100
AcDbSpline
 70
8
 71
3
 72
8
 73
4
 74
0
 40
0
 40
0
 40
0
 40
0
 40
1
 40
1
 40
1
 40
1
 10
186.540026
 20
141.237866
 30
0.0
 10
186.540026
 20
141.630858
 30
0.0
 10
186.749684
 20
141.993998
 30
0.0
 10
187.090026
 20
142.190494
 30
0.0
  0
SPLINE
  5
1a5
100
AcDbEntity
  8
0
 62
1
100
AcDbSpline
 70
8
 71
3
 72
8
 73
4
 74
0
 40
0
 40
0
 40
0
 40
0
 40
1
 40
1
 40
1
 40
1
 10
187.090026
 20
142.190494
 30
0.0
 10
187.430367
 20
142.386990
 30
0.0
 10
187.849685
 20
142.386990
 30
0.0
 10
188.190026
 20
142.190494
 30
0.0
  0
SPLINE
  5
1a6
100
AcDbEntity
  8
0
 62
1
100
AcDbSpline
 70
8
 71
3
 72
8
 73
4
 74
0
 40
0
 40
0
 40
0
 40
0
 40
1
 40
1
 40
1
 40
1
 10
188.190026
 20
142.190494
 30
0.0
 10
188.530367
 20
141.993998
 30
0.0
 10
188.740026
 20
141.630858
 30
0.0
 10
188.740026
 20
141.237866
 30
0.0
  0
LWPOLYLINE
  5
1a7
100
AcDbEntity
  8
0
 62
1
100
AcDbPolyline
 90
1
 70
1
 10
155.084897
 20
90.437736
 30
0.0
  0
SPLINE
  5
1a8
100
AcDbEntity
  8
0
 62
5
100
AcDbSpline
 70
8
 71
3
 72
8
 73
4
 74
0
 40
0
 40
0
 40
0
 40
0
 40
1
 40
1
 40
1
 40
1
 10
85.199340
 20
151.410762
 30
0.0
 10
59.569282
 20
151.411143
 30
0.0
 10
36.807555
 20
151.411143
 30
0.0
 10
14.079277
 20
151.410762
 30
0.0
  0
SPLINE
  5
1a9
100
AcDbEntity
  8
0
 62
5
100
AcDbSpline
 70
8
 71
3
 72
8
 73
4
 74
0
 40
0
 40
0
 40
0
 40
0
 40
1
 40
1
 40
1
 40
1
 10
14.079277
 20
151.410762
 30
0.0
 10
11.194863
 20
151.564910
 30
0.0
 10
9.039110
 20
153.869744
 30
0.0
 10
8.999277
 20
156.490762
 30
0.0
  0
SPLINE
  5
1aa
100
AcDbEntity
  8
0
 62
5
100
AcDbSpline
 70
8
 71
3
 72
8
 73
4
 74
0
 40
0
 40
0
 40
0
 40
0
 40
1
 40
1
 40
1
 40
1
 10
8.999277
 20
156.490762
 30
0.0
 10
8.998959
 20
166.862809
 30
0.0
 10
8.998959
 20
177.234476
 30
0.0
 10
8.999277
 20
187.605826
 30
0.0
  0
SPLINE
  5
1ab
100
AcDbEntity
  8
0
 62
5
100
AcDbSpline
 70
8
 71
3
 72
8
 73
4
 74
0
 40
0
 40
0
 40
0
 40
0
 40
1
 40
1
 40
1
 40
1
 10
8.999277
 20
187.605826
 30
0.0
 10
9.012198
 20
190.430017
 30
0.0
 10
11.499737
 20
192.646607
 30
0.0
 10
14.079277
 20
192.685826
 30
0.0
  0
LWPOLYLINE
  5
1ac
100
AcDbEntity
  8
0
 62
1
100
AcDbPolyline
 90
1
 70
1
 10
188.740026
 20
141.237866
 30
0.0
  0
SPLINE
  5
1ad
100
AcDbEntity
  8
0
 62
5
100
AcDbSpline
 70
8
 71
3
 72
8
 73
4
 74
0
 40
0
 40
0
 40
0
 40
0
 40
1
 40
1
 40
1
 40
1
 10
87.470608
 20
155.086523
 30
0.0
 10
88.188707
 20
153.295513
 30
0.0
 10
87.039014
 20
151.424978
 30
0.0
 10
85.199340
 20
151.410762
 30
0.0
  0
LWPOLYLINE
  5
1ae
100
AcDbEntity
  8
0
 62
5
100
AcDbPolyline
 90
3
 70
0
 10
14.079277
 20
192.685826
 30
0.0
 10
65.513959
 20
192.686143
 30
0.0
 10
87.470608
 20
155.086523
 30
0.0
  0
LWPOLYLINE
  5
1af
100
AcDbEntity
  8
0
 62
5
100
AcDbPolyline
 90
1
 70
1
 10
85.199340
 20
151.410762
 30
0.0
  0
SPLINE
  5
1b0
100
AcDbEntity
  8
0
 62
1
100
AcDbSpline
 70
8
 71
3
 72
8
 73
4
 74
0
 40
0
 40
0
 40
0
 40
0
 40
1
 40
1
 40
1
 40
1
 10
81.389724
 20
154.120378
 30
0.0
 10
81.782716
 20
154.120378
 30
0.0
 10
82.145856
 20
154.330037
 30
0.0
 10
82.342352
 20
154.670378
 30
0.0
  0
SPLINE
  5
1b1
100
AcDbEntity
  8
0
 62
1
100
AcDbSpline
 70
8
 71
3
 72
8
 73
4
 74
0
 40
0
 40
0
 40
0
 40
0
 40
1
 40
1
 40
1
 40
1
 10
82.342352
 20
154.670378
 30
0.0
 10
82.538848
 20
155.010720
 30
0.0
 10
82.538848
 20
155.430037
 30
0.0
 10
82.342352
 20
155.770379
 30
0.0
  0
SPLINE
  5
1b2
100
AcDbEntity
  8
0
 62
1
100
AcDbSpline
 70
8
 71
3
 72
8
 73
4
 74
0
 40
0
 40
0
 40
0
 40
0
 40
1
 40
1
 40
1
 40
1
 10
82.342352
 20
155.770379
 30
0.0
 10
82.145856
 20
156.110720
 30
0.0
 10
81.782716
 20
156.320379
 30
0.0
 10
81.389724
 20
156.320379
 30
0.0
  0
SPLINE
  5
1b3
100
AcDbEntity
  8
0
 62
1
100
AcDbSpline
 70
8
 71
3
 72
8
 73
4
 74
0
 40
0
 40
0
 40
0
 40
0
 40
1
 40
1
 40
1
 40
1
 10
81.389724
 20
156.320379
 30
0.0
 10
80.996731
 20
156.320379
 30
0.0
 10
80.633591
 20
156.110720
 30
0.0
 10
80.437095
 20
155.770379
 30
0.0
  0
SPLINE
  5
1b4
100
AcDbEntity
  8
0
 62
1
100
AcDbSpline
 70
8
 71
3
 72
8
 73
4
 74
0
 40
0
 40
0
 40
0
 40
0
 40
1
 40
1
 40
1
 40
1
 10
80.437095
 20
155.770379
 30
0.0
 10
80.240599
 20
155.430037
 30
0.0
 10
80.240599
 20
155.010720
 30
0.0
 10
80.437095
 20
154.670378
 30
0.0
  0
SPLINE
  5
1b5
100
AcDbEntity
  8
0
 62
1
100
AcDbSpline
 70
8
 71
3
 72
8
 73
4
 74
0
 40
0
 40
0
 40
0
 40
0
 40
1
 40
1
 40
1
 40
1
 10
80.437095
 20
154.670378
 30
0.0
 10
80.633591
 20
154.330037
 30
0.0
 10
80.996731
 20
154.120378
 30
0.0
 10
81.389724
 20
154.120378
 30
0.0
  0
LWPOLYLINE
  5
1b6
100
AcDbEntity
  8
0
 62
7
100
AcDbPolyline
 90
4
 70
1
 10
30.588959
 20
186.463143
 30
0.0
 10
30.588959
 20
159.539143
 30
0.0
 10
48.368959
 20
159.539143
 30
0.0
 10
48.368959
 20
186.463143
 30
0.0
  0
SPLINE
  5
1b7
100
AcDbEntity
  8
0
 62
1
100
AcDbSpline
 70
8
 71
3
 72
8
 73
4
 74
0
 40
0
 40
0
 40
0
 40
0
 40
1
 40
1
 40
1
 40
1
 10
63.609724
 20
187.775508
 30
0.0
 10
64.217237
 20
187.775508
 30
0.0
 10
64.709724
 20
188.267995
 30
0.0
 10
64.709724
 20
188.875508
 30
0.0
  0
SPLINE
  5
1b8
100
AcDbEntity
  8
0
 62
1
100
AcDbSpline
 70
8
 71
3
 72
8
 73
4
 74
0
 40
0
 40
0
 40
0
 40
0
 40
1
 40
1
 40
1
 40
1
 10
64.709724
 20
188.875508
 30
0.0
 10
64.709724
 20
189.483021
 30
0.0
 10
64.217237
 20
189.975508
 30
0.0
 10
63.609724
 20
189.975508
 30
0.0
  0
SPLINE
  5
1b9
100
AcDbEntity
  8
0
 62
1
100
AcDbSpline
 70
8
 71
3
 72
8
 73
4
 74
0
 40
0
 40
0
 40
0
 40
0
 40
1
 40
1
 40
1
 40
1
 10
63.609724
 20
189.975508
 30
0.0
 10
63.216731
 20
189.975508
 30
0.0
 10
62.853591
 20
189.765849
 30
0.0
 10
62.657095
 20
189.425508
 30
0.0
  0
SPLINE
  5
1ba
100
AcDbEntity
  8
0
 62
1
100
AcDbSpline
 70
8
 71
3
 72
8
 73
4
 74
0
 40
0
 40
0
 40
0
 40
0
 40
1
 40
1
 40
1
 40
1
 10
62.657095
 20
189.425508
 30
0.0
 10
62.460599
 20
189.085167
 30
0.0
 10
62.460599
 20
188.665849
 30
0.0
 10
62.657095
 20
188.325508
 30
0.0
  0
SPLINE
  5
1bb
100
AcDbEntity
  8
0
 62
1
100
AcDbSpline
 70
8
 71
3
 72
8
 73
4
 74
0
 40
0
 40
0
 40
0
 40
0
 40
1
 40
1
 40
1
 40
1
 10
62.657095
 20
188.325508
 30
0.0
 10
62.853591
 20
187.985167
 30
0.0
 10
63.216731
 20
187.775508
 30
0.0
 10
63.609724
 20
187.775508
 30
0.0
  0
LWPOLYLINE
  5
1bc
100
AcDbEntity
  8
0
 62
1
100
AcDbPolyline
 90
1
 70
1
 10
81.389724
 20
154.120378
 30
0.0
  0
SPLINE
  5
1bd
100
AcDbEntity
  8
0
 62
1
100
AcDbSpline
 70
8
 71
3
 72
8
 73
4
 74
0
 40
0
 40
0
 40
0
 40
0
 40
1
 40
1
 40
1
 40
1
 10
12.809594
 20
154.120378
 30
0.0
 10
13.202586
 20
154.120378
 30
0.0
 10
13.565726
 20
154.330037
 30
0.0
 10
13.762222
 20
154.670378
 30
0.0
  0
SPLINE
  5
1be
100
AcDbEntity
  8
0
 62
1
100
AcDbSpline
 70
8
 71
3
 72
8
 73
4
 74
0
 40
0
 40
0
 40
0
 40
0
 40
1
 40
1
 40
1
 40
1
 10
13.762222
 20
154.670378
 30
0.0
 10
13.958718
 20
155.010720
 30
0.0
 10
13.958718
 20
155.430037
 30
0.0
 10
13.762222
 20
155.770379
 30
0.0
  0
SPLINE
  5
1bf
100
AcDbEntity
  8
0
 62
1
100
AcDbSpline
 70
8
 71
3
 72
8
 73
4
 74
0
 40
0
 40
0
 40
0
 40
0
 40
1
 40
1
 40
1
 40
1
 10
13.762222
 20
155.770379
 30
0.0
 10
13.565726
 20
156.110720
 30
0.0
 10
13.202586
 20
156.320379
 30
0.0
 10
12.809594
 20
156.320379
 30
0.0
  0
SPLINE
  5
1c0
100
AcDbEntity
  8
0
 62
1
100
AcDbSpline
 70
8
 71
3
 72
8
 73
4
 74
0
 40
0
 40
0
 40
0
 40
0
 40
1
 40
1
 40
1
 40
1
 10
12.809594
 20
156.320379
 30
0.0
 10
12.416602
 20
156.320379
 30
0.0
 10
12.053462
 20
156.110720
 30
0.0
 10
11.856966
 20
155.770379
 30
0.0
  0
SPLINE
  5
1c1
100
AcDbEntity
  8
0
 62
1
100
AcDbSpline
 70
8
 71
3
 72
8
 73
4
 74
0
 40
0
 40
0
 40
0
 40
0
 40
1
 40
1
 40
1
 40
1
 10
11.856966
 20
155.770379
 30
0.0
 10
11.660470
 20
155.430037
 30
0.0
 10
11.660470
 20
155.010720
 30
0.0
 10
11.856966
 20
154.670378
 30
0.0
  0
SPLINE
  5
1c2
100
AcDbEntity
  8
0
 62
1
100
AcDbSpline
 70
8
 71
3
 72
8
 73
4
 74
0
 40
0
 40
0
 40
0
 40
0
 40
1
 40
1
 40
1
 40
1
 10
11.856966
 20
154.670378
 30
0.0
 10
12.053462
 20
154.330037
 30
0.0
 10
12.416602
 20
154.120378
 30
0.0
 10
12.809594
 20
154.120378
 30
0.0
  0
LWPOLYLINE
  5
1c3
100
AcDbEntity
  8
0
 62
1
100
AcDbPolyline
 90
1
 70
1
 10
63.609724
 20
187.775508
 30
0.0
  0
LWPOLYLINE
  5
1c4
100
AcDbEntity
  8
0
 62
1
100
AcDbPolyline
 90
1
 70
1
 10
12.809594
 20
154.120378
 30
0.0
  0
SPLINE
  5
1c5
100
AcDbEntity
  8
0
 62
5
100
AcDbSpline
 70
8
 71
3
 72
8
 73
4
 74
0
 40
0
 40
0
 40
0
 40
0
 40
1
 40
1
 40
1
 40
1
 10
107.020581
 20
151.812376
 30
0.0
 10
132.650639
 20
151.812757
 30
0.0
 10
155.412366
 20
151.812757
 30
0.0
 10
178.140645
 20
151.812376
 30
0.0
  0
SPLINE
  5
1c6
100
AcDbEntity
  8
0
 62
5
100
AcDbSpline
 70
8
 71
3
 72
8
 73
4
 74
0
 40
0
 40
0
 40
0
 40
0
 40
1
 40
1
 40
1
 40
1
 10
178.140645
 20
151.812376
 30
0.0
 10
181.025058
 20
151.966523
 30
0.0
 10
183.180812
 20
154.271357
 30
0.0
 10
183.220645
 20
156.892376
 30
0.0
  0
SPLINE
  5
1c7
100
AcDbEntity
  8
0
 62
5
100
AcDbSpline
 70
8
 71
3
 72
8
 73
4
 74
0
 40
0
 40
0
 40
0
 40
0
 40
1
 40
1
 40
1
 40
1
 10
183.220645
 20
156.892376
 30
0.0
 10
183.220962
 20
167.264423
 30
0.0
 10
183.220962
 20
177.636090
 30
0.0
 10
183.220645
 20
188.007439
 30
0.0
  0
SPLINE
  5
1c8
100
AcDbEntity
  8
0
 62
5
100
AcDbSpline
 70
8
 71
3
 72
8
 73
4
 74
0
 40
0
 40
0
 40
0
 40
0
 40
1
 40
1
 40
1
 40
1
 10
183.220645
 20
188.007439
 30
0.0
 10
183.207723
 20
190.831631
 30
0.0
 10
180.720184
 20
193.048221
 30
0.0
 10
178.140645
 20
193.087439
 30
0.0
  0
LWPOLYLINE
  5
1c9
100
AcDbEntity
  8
0
 62
7
100
AcDbPolyline
 90
4
 70
1
 10
196.609099
 20
245.195528
 30
0.0
 10
196.609099
 20
238.153090
 30
0.0
 10
196.609099
 20
238.153090
 30
0.0
 10
196.609099
 20
245.195528
 30
0.0
  0
SPLINE
  5
1ca
100
AcDbEntity
  8
0
 62
5
100
AcDbSpline
 70
8
 71
3
 72
8
 73
4
 74
0
 40
0
 40
0
 40
0
 40
0
 40
1
 40
1
 40
1
 40
1
 10
104.749313
 20
155.488137
 30
0.0
 10
104.031214
 20
153.697127
 30
0.0
 10
105.180907
 20
151.826592
 30
0.0
 10
107.020581
 20
151.812376
 30
0.0
  0
LWPOLYLINE
  5
1cb
100
AcDbEntity
  8
0
 62
5
100
AcDbPolyline
 90
3
 70
0
 10
178.140645
 20
193.087439
 30
0.0
 10
126.705962
 20
193.087757
 30
0.0
 10
104.749313
 20
155.488137
 30
0.0
  0
LWPOLYLINE
  5
1cc
100
AcDbEntity
  8
0
 62
5
100
AcDbPolyline
 90
1
 70
1
 10
107.020581
 20
151.812376
 30
0.0
  0
SPLINE
  5
1cd
100
AcDbEntity
  8
0
 62
1
100
AcDbSpline
 70
8
 71
3
 72
8
 73
4
 74
0
 40
0
 40
0
 40
0
 40
0
 40
1
 40
1
 40
1
 40
1
 10
110.830198
 20
154.521992
 30
0.0
 10
110.437205
 20
154.521992
 30
0.0
 10
110.074065
 20
154.731651
 30
0.0
 10
109.877569
 20
155.071992
 30
0.0
  0
SPLINE
  5
1ce
100
AcDbEntity
  8
0
 62
1
100
AcDbSpline
 70
8
 71
3
 72
8
 73
4
 74
0
 40
0
 40
0
 40
0
 40
0
 40
1
 40
1
 40
1
 40
1
 10
109.877569
 20
155.071992
 30
0.0
 10
109.681073
 20
155.412333
 30
0.0
 10
109.681073
 20
155.831651
 30
0.0
 10
109.877569
 20
156.171992
 30
0.0
  0
SPLINE
  5
1cf
100
AcDbEntity
  8
0
 62
1
100
AcDbSpline
 70
8
 71
3
 72
8
 73
4
 74
0
 40
0
 40
0
 40
0
 40
0
 40
1
 40
1
 40
1
 40
1
 10
109.877569
 20
156.171992
 30
0.0
 10
110.074065
 20
156.512334
 30
0.0
 10
110.437205
 20
156.721993
 30
0.0
 10
110.830198
 20
156.721993
 30
0.0
  0
SPLINE
  5
1d0
100
AcDbEntity
  8
0
 62
1
100
AcDbSpline
 70
8
 71
3
 72
8
 73
4
 74
0
 40
0
 40
0
 40
0
 40
0
 40
1
 40
1
 40
1
 40
1
 10
110.830198
 20
156.721993
 30
0.0
 10
111.223190
 20
156.721993
 30
0.0
 10
111.586330
 20
156.512334
 30
0.0
 10
111.782826
 20
156.171992
 30
0.0
  0
SPLINE
  5
1d1
100
AcDbEntity
  8
0
 62
1
100
AcDbSpline
 70
8
 71
3
 72
8
 73
4
 74
0
 40
0
 40
0
 40
0
 40
0
 40
1
 40
1
 40
1
 40
1
 10
111.782826
 20
156.171992
 30
0.0
 10
111.979322
 20
155.831651
 30
0.0
 10
111.979322
 20
155.412333
 30
0.0
 10
111.782826
 20
155.071992
 30
0.0
  0
SPLINE
  5
1d2
100
AcDbEntity
  8
0
 62
1
100
AcDbSpline
 70
8
 71
3
 72
8
 73
4
 74
0
 40
0
 40
0
 40
0
 40
0
 40
1
 40
1
 40
1
 40
1
 10
111.782826
 20
155.071992
 30
0.0
 10
111.586330
 20
154.731651
 30
0.0
 10
111.223190
 20
154.521992
 30
0.0
 10
110.830198
 20
154.521992
 30
0.0
  0
LWPOLYLINE
  5
1d3
100
AcDbEntity
  8
0
 62
7
100
AcDbPolyline
 90
4
 70
1
 10
161.630962
 20
186.864757
 30
0.0
 10
161.630962
 20
159.940757
 30
0.0
 10
143.850962
 20
159.940757
 30
0.0
 10
143.850962
 20
186.864757
 30
0.0
  0
SPLINE
  5
1d4
100
AcDbEntity
  8
0
 62
1
100
AcDbSpline
 70
8
 71
3
 72
8
 73
4
 74
0
 40
0
 40
0
 40
0
 40
0
 40
1
 40
1
 40
1
 40
1
 10
128.610198
 20
188.177121
 30
0.0
 10
128.002684
 20
188.177121
 30
0.0
 10
127.510197
 20
188.669608
 30
0.0
 10
127.510197
 20
189.277122
 30
0.0
  0
SPLINE
  5
1d5
100
AcDbEntity
  8
0
 62
1
100
AcDbSpline
 70
8
 71
3
 72
8
 73
4
 74
0
 40
0
 40
0
 40
0
 40
0
 40
1
 40
1
 40
1
 40
1
 10
127.510197
 20
189.277122
 30
0.0
 10
127.510197
 20
189.884635
 30
0.0
 10
128.002684
 20
190.377122
 30
0.0
 10
128.610198
 20
190.377122
 30
0.0
  0
SPLINE
  5
1d6
100
AcDbEntity
  8
0
 62
1
100
AcDbSpline
 70
8
 71
3
 72
8
 73
4
 74
0
 40
0
 40
0
 40
0
 40
0
 40
1
 40
1
 40
1
 40
1
 10
128.610198
 20
190.377122
 30
0.0
 10
129.003190
 20
190.377122
 30
0.0
 10
129.366330
 20
190.167463
 30
0.0
 10
129.562826
 20
189.827122
 30
0.0
  0
SPLINE
  5
1d7
100
AcDbEntity
  8
0
 62
1
100
AcDbSpline
 70
8
 71
3
 72
8
 73
4
 74
0
 40
0
 40
0
 40
0
 40
0
 40
1
 40
1
 40
1
 40
1
 10
129.562826
 20
189.827122
 30
0.0
 10
129.759322
 20
189.486781
 30
0.0
 10
129.759322
 20
189.067463
 30
0.0
 10
129.562826
 20
188.727122
 30
0.0
  0
SPLINE
  5
1d8
100
AcDbEntity
  8
0
 62
1
100
AcDbSpline
 70
8
 71
3
 72
8
 73
4
 74
0
 40
0
 40
0
 40
0
 40
0
 40
1
 40
1
 40
1
 40
1
 10
129.562826
 20
188.727122
 30
0.0
 10
129.366330
 20
188.386780
 30
0.0
 10
129.003190
 20
188.177121
 30
0.0
 10
128.610198
 20
188.177121
 30
0.0
  0
LWPOLYLINE
  5
1d9
100
AcDbEntity
  8
0
 62
1
100
AcDbPolyline
 90
1
 70
1
 10
110.830198
 20
154.521992
 30
0.0
  0
SPLINE
  5
1da
100
AcDbEntity
  8
0
 62
1
100
AcDbSpline
 70
8
 71
3
 72
8
 73
4
 74
0
 40
0
 40
0
 40
0
 40
0
 40
1
 40
1
 40
1
 40
1
 10
179.410327
 20
154.521992
 30
0.0
 10
179.017335
 20
154.521992
 30
0.0
 10
178.654195
 20
154.731651
 30
0.0
 10
178.457699
 20
155.071992
 30
0.0
  0
SPLINE
  5
1db
100
AcDbEntity
  8
0
 62
1
100
AcDbSpline
 70
8
 71
3
 72
8
 73
4
 74
0
 40
0
 40
0
 40
0
 40
0
 40
1
 40
1
 40
1
 40
1
 10
178.457699
 20
155.071992
 30
0.0
 10
178.261203
 20
155.412333
 30
0.0
 10
178.261203
 20
155.831651
 30
0.0
 10
178.457699
 20
156.171992
 30
0.0
  0
SPLINE
  5
1dc
100
AcDbEntity
  8
0
 62
1
100
AcDbSpline
 70
8
 71
3
 72
8
 73
4
 74
0
 40
0
 40
0
 40
0
 40
0
 40
1
 40
1
 40
1
 40
1
 10
178.457699
 20
156.171992
 30
0.0
 10
178.654195
 20
156.512334
 30
0.0
 10
179.017335
 20
156.721993
 30
0.0
 10
179.410327
 20
156.721993
 30
0.0
  0
SPLINE
  5
1dd
100
AcDbEntity
  8
0
 62
1
100
AcDbSpline
 70
8
 71
3
 72
8
 73
4
 74
0
 40
0
 40
0
 40
0
 40
0
 40
1
 40
1
 40
1
 40
1
 10
179.410327
 20
156.721993
 30
0.0
 10
179.803319
 20
156.721993
 30
0.0
 10
180.166459
 20
156.512334
 30
0.0
 10
180.362955
 20
156.171992
 30
0.0
  0
SPLINE
  5
1de
100
AcDbEntity
  8
0
 62
1
100
AcDbSpline
 70
8
 71
3
 72
8
 73
4
 74
0
 40
0
 40
0
 40
0
 40
0
 40
1
 40
1
 40
1
 40
1
 10
180.362955
 20
156.171992
 30
0.0
 10
180.559452
 20
155.831651
 30
0.0
 10
180.559452
 20
155.412333
 30
0.0
 10
180.362955
 20
155.071992
 30
0.0
  0
SPLINE
  5
1df
100
AcDbEntity
  8
0
 62
1
100
AcDbSpline
 70
8
 71
3
 72
8
 73
4
 74
0
 40
0
 40
0
 40
0
 40
0
 40
1
 40
1
 40
1
 40
1
 10
180.362955
 20
155.071992
 30
0.0
 10
180.166459
 20
154.731651
 30
0.0
 10
179.803319
 20
154.521992
 30
0.0
 10
179.410327
 20
154.521992
 30
0.0
  0
LWPOLYLINE
  5
1e0
100
AcDbEntity
  8
0
 62
1
100
AcDbPolyline
 90
1
 70
1
 10
128.610198
 20
188.177121
 30
0.0
  0
SPLINE
  5
1e1
100
AcDbEntity
  8
0
 62
5
100
AcDbSpline
 70
8
 71
3
 72
8
 73
4
 74
0
 40
0
 40
0
 40
0
 40
0
 40
1
 40
1
 40
1
 40
1
 10
5.029109
 20
71.061566
 30
0.0
 10
5.029490
 20
96.691624
 30
0.0
 10
5.029490
 20
119.453351
 30
0.0
 10
5.029109
 20
142.181630
 30
0.0
  0
SPLINE
  5
1e2
100
AcDbEntity
  8
0
 62
5
100
AcDbSpline
 70
8
 71
3
 72
8
 73
4
 74
0
 40
0
 40
0
 40
0
 40
0
 40
1
 40
1
 40
1
 40
1
 10
5.029109
 20
142.181630
 30
0.0
 10
5.183256
 20
145.066043
 30
0.0
 10
7.488091
 20
147.221796
 30
0.0
 10
10.109109
 20
147.261630
 30
0.0
  0
SPLINE
  5
1e3
100
AcDbEntity
  8
0
 62
5
100
AcDbSpline
 70
8
 71
3
 72
8
 73
4
 74
0
 40
0
 40
0
 40
0
 40
0
 40
1
 40
1
 40
1
 40
1
 10
10.109109
 20
147.261630
 30
0.0
 10
20.481156
 20
147.261947
 30
0.0
 10
30.852823
 20
147.261947
 30
0.0
 10
41.224172
 20
147.261630
 30
0.0
  0
SPLINE
  5
1e4
100
AcDbEntity
  8
0
 62
5
100
AcDbSpline
 70
8
 71
3
 72
8
 73
4
 74
0
 40
0
 40
0
 40
0
 40
0
 40
1
 40
1
 40
1
 40
1
 10
41.224172
 20
147.261630
 30
0.0
 10
44.048364
 20
147.248708
 30
0.0
 10
46.264954
 20
144.761169
 30
0.0
 10
46.304172
 20
142.181630
 30
0.0
  0
LWPOLYLINE
  5
1e5
100
AcDbEntity
  8
0
 62
1
100
AcDbPolyline
 90
1
 70
1
 10
179.410327
 20
154.521992
 30
0.0
  0
SPLINE
  5
1e6
100
AcDbEntity
  8
0
 62
5
100
AcDbSpline
 70
8
 71
3
 72
8
 73
4
 74
0
 40
0
 40
0
 40
0
 40
0
 40
1
 40
1
 40
1
 40
1
 10
8.704870
 20
68.790298
 30
0.0
 10
6.913860
 20
68.072199
 30
0.0
 10
5.043325
 20
69.221892
 30
0.0
 10
5.029109
 20
71.061566
 30
0.0
  0
LWPOLYLINE
  5
1e7
100
AcDbEntity
  8
0
 62
5
100
AcDbPolyline
 90
3
 70
0
 10
46.304172
 20
142.181630
 30
0.0
 10
46.304490
 20
90.746947
 30
0.0
 10
8.704870
 20
68.790298
 30
0.0
  0
LWPOLYLINE
  5
1e8
100
AcDbEntity
  8
0
 62
5
100
AcDbPolyline
 90
1
 70
1
 10
5.029109
 20
71.061566
 30
0.0
  0
SPLINE
  5
1e9
100
AcDbEntity
  8
0
 62
1
100
AcDbSpline
 70
8
 71
3
 72
8
 73
4
 74
0
 40
0
 40
0
 40
0
 40
0
 40
1
 40
1
 40
1
 40
1
 10
7.738725
 20
74.871182
 30
0.0
 10
7.738725
 20
74.478190
 30
0.0
 10
7.948384
 20
74.115050
 30
0.0
 10
8.288725
 20
73.918554
 30
0.0
  0
SPLINE
  5
1ea
100
AcDbEntity
  8
0
 62
1
100
AcDbSpline
 70
8
 71
3
 72
8
 73
4
 74
0
 40
0
 40
0
 40
0
 40
0
 40
1
 40
1
 40
1
 40
1
 10
8.288725
 20
73.918554
 30
0.0
 10
8.629066
 20
73.722058
 30
0.0
 10
9.048384
 20
73.722058
 30
0.0
 10
9.388726
 20
73.918554
 30
0.0
  0
SPLINE
  5
1eb
100
AcDbEntity
  8
0
 62
1
100
AcDbSpline
 70
8
 71
3
 72
8
 73
4
 74
0
 40
0
 40
0
 40
0
 40
0
 40
1
 40
1
 40
1
 40
1
 10
9.388726
 20
73.918554
 30
0.0
 10
9.729067
 20
74.115050
 30
0.0
 10
9.938726
 20
74.478190
 30
0.0
 10
9.938726
 20
74.871182
 30
0.0
  0
SPLINE
  5
1ec
100
AcDbEntity
  8
0
 62
1
100
AcDbSpline
 70
8
 71
3
 72
8
 73
4
 74
0
 40
0
 40
0
 40
0
 40
0
 40
1
 40
1
 40
1
 40
1
 10
9.938726
 20
74.871182
 30
0.0
 10
9.938726
 20
75.264175
 30
0.0
 10
9.729067
 20
75.627315
 30
0.0
 10
9.388726
 20
75.823811
 30
0.0
  0
SPLINE
  5
1ed
100
AcDbEntity
  8
0
 62
1
100
AcDbSpline
 70
8
 71
3
 72
8
 73
4
 74
0
 40
0
 40
0
 40
0
 40
0
 40
1
 40
1
 40
1
 40
1
 10
9.388726
 20
75.823811
 30
0.0
 10
9.048384
 20
76.020307
 30
0.0
 10
8.629066
 20
76.020307
 30
0.0
 10
8.288725
 20
75.823811
 30
0.0
  0
SPLINE
  5
1ee
100
AcDbEntity
  8
0
 62
1
100
AcDbSpline
 70
8
 71
3
 72
8
 73
4
 74
0
 40
0
 40
0
 40
0
 40
0
 40
1
 40
1
 40
1
 40
1
 10
8.288725
 20
75.823811
 30
0.0
 10
7.948384
 20
75.627315
 30
0.0
 10
7.738725
 20
75.264175
 30
0.0
 10
7.738725
 20
74.871182
 30
0.0
  0
LWPOLYLINE
  5
1ef
100
AcDbEntity
  8
0
 62
7
100
AcDbPolyline
 90
4
 70
1
 10
40.081490
 20
125.671947
 30
0.0
 10
13.157490
 20
125.671947
 30
0.0
 10
13.157490
 20
107.891947
 30
0.0
 10
40.081490
 20
107.891947
 30
0.0
  0
SPLINE
  5
1f0
100
AcDbEntity
  8
0
 62
1
100
AcDbSpline
 70
8
 71
3
 72
8
 73
4
 74
0
 40
0
 40
0
 40
0
 40
0
 40
1
 40
1
 40
1
 40
1
 10
41.393855
 20
92.651182
 30
0.0
 10
41.393855
 20
92.043669
 30
0.0
 10
41.886342
 20
91.551182
 30
0.0
 10
42.493855
 20
91.551182
 30
0.0
  0
SPLINE
  5
1f1
100
AcDbEntity
  8
0
 62
1
100
AcDbSpline
 70
8
 71
3
 72
8
 73
4
 74
0
 40
0
 40
0
 40
0
 40
0
 40
1
 40
1
 40
1
 40
1
 10
42.493855
 20
91.551182
 30
0.0
 10
43.101368
 20
91.551182
 30
0.0
 10
43.593855
 20
92.043669
 30
0.0
 10
43.593855
 20
92.651182
 30
0.0
  0
SPLINE
  5
1f2
100
AcDbEntity
  8
0
 62
1
100
AcDbSpline
 70
8
 71
3
 72
8
 73
4
 74
0
 40
0
 40
0
 40
0
 40
0
 40
1
 40
1
 40
1
 40
1
 10
43.593855
 20
92.651182
 30
0.0
 10
43.593855
 20
93.044175
 30
0.0
 10
43.384196
 20
93.407315
 30
0.0
 10
43.043855
 20
93.603811
 30
0.0
  0
SPLINE
  5
1f3
100
AcDbEntity
  8
0
 62
1
100
AcDbSpline
 70
8
 71
3
 72
8
 73
4
 74
0
 40
0
 40
0
 40
0
 40
0
 40
1
 40
1
 40
1
 40
1
 10
43.043855
 20
93.603811
 30
0.0
 10
42.703514
 20
93.800307
 30
0.0
 10
42.284196
 20
93.800307
 30
0.0
 10
41.943855
 20
93.603811
 30
0.0
  0
SPLINE
  5
1f4
100
AcDbEntity
  8
0
 62
1
100
AcDbSpline
 70
8
 71
3
 72
8
 73
4
 74
0
 40
0
 40
0
 40
0
 40
0
 40
1
 40
1
 40
1
 40
1
 10
41.943855
 20
93.603811
 30
0.0
 10
41.603513
 20
93.407315
 30
0.0
 10
41.393855
 20
93.044175
 30
0.0
 10
41.393855
 20
92.651182
 30
0.0
  0
LWPOLYLINE
  5
1f5
100
AcDbEntity
  8
0
 62
1
100
AcDbPolyline
 90
1
 70
1
 10
7.738725
 20
74.871182
 30
0.0
  0
SPLINE
  5
1f6
100
AcDbEntity
  8
0
 62
1
100
AcDbSpline
 70
8
 71
3
 72
8
 73
4
 74
0
 40
0
 40
0
 40
0
 40
0
 40
1
 40
1
 40
1
 40
1
 10
7.738725
 20
143.451312
 30
0.0
 10
7.738725
 20
143.058320
 30
0.0
 10
7.948384
 20
142.695180
 30
0.0
 10
8.288725
 20
142.498684
 30
0.0
  0
SPLINE
  5
1f7
100
AcDbEntity
  8
0
 62
1
100
AcDbSpline
 70
8
 71
3
 72
8
 73
4
 74
0
 40
0
 40
0
 40
0
 40
0
 40
1
 40
1
 40
1
 40
1
 10
8.288725
 20
142.498684
 30
0.0
 10
8.629066
 20
142.302188
 30
0.0
 10
9.048384
 20
142.302188
 30
0.0
 10
9.388726
 20
142.498684
 30
0.0
  0
SPLINE
  5
1f8
100
AcDbEntity
  8
0
 62
1
100
AcDbSpline
 70
8
 71
3
 72
8
 73
4
 74
0
 40
0
 40
0
 40
0
 40
0
 40
1
 40
1
 40
1
 40
1
 10
9.388726
 20
142.498684
 30
0.0
 10
9.729067
 20
142.695180
 30
0.0
 10
9.938726
 20
143.058320
 30
0.0
 10
9.938726
 20
143.451312
 30
0.0
  0
SPLINE
  5
1f9
100
AcDbEntity
  8
0
 62
1
100
AcDbSpline
 70
8
 71
3
 72
8
 73
4
 74
0
 40
0
 40
0
 40
0
 40
0
 40
1
 40
1
 40
1
 40
1
 10
9.938726
 20
143.451312
 30
0.0
 10
9.938726
 20
143.844304
 30
0.0
 10
9.729067
 20
144.207444
 30
0.0
 10
9.388726
 20
144.403940
 30
0.0
  0
SPLINE
  5
1fa
100
AcDbEntity
  8
0
 62
1
100
AcDbSpline
 70
8
 71
3
 72
8
 73
4
 74
0
 40
0
 40
0
 40
0
 40
0
 40
1
 40
1
 40
1
 40
1
 10
9.388726
 20
144.403940
 30
0.0
 10
9.048384
 20
144.600436
 30
0.0
 10
8.629066
 20
144.600436
 30
0.0
 10
8.288725
 20
144.403940
 30
0.0
  0
SPLINE
  5
1fb
100
AcDbEntity
  8
0
 62
1
100
AcDbSpline
 70
8
 71
3
 72
8
 73
4
 74
0
 40
0
 40
0
 40
0
 40
0
 40
1
 40
1
 40
1
 40
1
 10
8.288725
 20
144.403940
 30
0.0
 10
7.948384
 20
144.207444
 30
0.0
 10
7.738725
 20
143.844304
 30
0.0
 10
7.738725
 20
143.451312
 30
0.0
  0
LWPOLYLINE
  5
1fc
100
AcDbEntity
  8
0
 62
1
100
AcDbPolyline
 90
1
 70
1
 10
41.393855
 20
92.651182
 30
0.0
  0
SPLINE
  5
1fd
100
AcDbEntity
  8
0
 62
5
100
AcDbSpline
 70
8
 71
3
 72
8
 73
4
 74
0
 40
0
 40
0
 40
0
 40
0
 40
1
 40
1
 40
1
 40
1
 10
93.925053
 20
71.124476
 30
0.0
 10
93.924672
 20
96.754534
 30
0.0
 10
93.924672
 20
119.516261
 30
0.0
 10
93.925053
 20
142.244540
 30
0.0
  0
SPLINE
  5
1fe
100
AcDbEntity
  8
0
 62
5
100
AcDbSpline
 70
8
 71
3
 72
8
 73
4
 74
0
 40
0
 40
0
 40
0
 40
0
 40
1
 40
1
 40
1
 40
1
 10
93.925053
 20
142.244540
 30
0.0
 10
93.770906
 20
145.128953
 30
0.0
 10
91.466072
 20
147.284706
 30
0.0
 10
88.845053
 20
147.324540
 30
0.0
  0
SPLINE
  5
1ff
100
AcDbEntity
  8
0
 62
5
100
AcDbSpline
 70
8
 71
3
 72
8
 73
4
 74
0
 40
0
 40
0
 40
0
 40
0
 40
1
 40
1
 40
1
 40
1
 10
88.845053
 20
147.324540
 30
0.0
 10
78.473007
 20
147.324857
 30
0.0
 10
68.101339
 20
147.324857
 30
0.0
 10
57.729990
 20
147.324540
 30
0.0
  0
SPLINE
  5
200
100
AcDbEntity
  8
0
 62
5
100
AcDbSpline
 70
8
 71
3
 72
8
 73
4
 74
0
 40
0
 40
0
 40
0
 40
0
 40
1
 40
1
 40
1
 40
1
 10
57.729990
 20
147.324540
 30
0.0
 10
54.905798
 20
147.311618
 30
0.0
 10
52.689208
 20
144.824079
 30
0.0
 10
52.649990
 20
142.244540
 30
0.0
  0
LWPOLYLINE
  5
201
100
AcDbEntity
  8
0
 62
1
100
AcDbPolyline
 90
1
 70
1
 10
7.738725
 20
143.451312
 30
0.0
  0
SPLINE
  5
202
100
AcDbEntity
  8
0
 62
5
100
AcDbSpline
 70
8
 71
3
 72
8
 73
4
 74
0
 40
0
 40
0
 40
0
 40
0
 40
1
 40
1
 40
1
 40
1
 10
90.249292
 20
68.853208
 30
0.0
 10
92.040302
 20
68.135109
 30
0.0
 10
93.910837
 20
69.284802
 30
0.0
 10
93.925053
 20
71.124476
 30
0.0
  0
LWPOLYLINE
  5
203
100
AcDbEntity
  8
0
 62
5
100
AcDbPolyline
 90
3
 70
0
 10
52.649990
 20
142.244540
 30
0.0
 10
52.649672
 20
90.809857
 30
0.0
 10
90.249292
 20
68.853208
 30
0.0
  0
LWPOLYLINE
  5
204
100
AcDbEntity
  8
0
 62
5
100
AcDbPolyline
 90
1
 70
1
 10
93.925053
 20
71.124476
 30
0.0
  0
SPLINE
  5
205
100
AcDbEntity
  8
0
 62
1
100
AcDbSpline
 70
8
 71
3
 72
8
 73
4
 74
0
 40
0
 40
0
 40
0
 40
0
 40
1
 40
1
 40
1
 40
1
 10
91.215437
 20
74.934092
 30
0.0
 10
91.215437
 20
74.541100
 30
0.0
 10
91.005778
 20
74.177960
 30
0.0
 10
90.665437
 20
73.981464
 30
0.0
  0
SPLINE
  5
206
100
AcDbEntity
  8
0
 62
1
100
AcDbSpline
 70
8
 71
3
 72
8
 73
4
 74
0
 40
0
 40
0
 40
0
 40
0
 40
1
 40
1
 40
1
 40
1
 10
90.665437
 20
73.981464
 30
0.0
 10
90.325096
 20
73.784968
 30
0.0
 10
89.905778
 20
73.784968
 30
0.0
 10
89.565437
 20
73.981464
 30
0.0
  0
SPLINE
  5
207
100
AcDbEntity
  8
0
 62
1
100
AcDbSpline
 70
8
 71
3
 72
8
 73
4
 74
0
 40
0
 40
0
 40
0
 40
0
 40
1
 40
1
 40
1
 40
1
 10
89.565437
 20
73.981464
 30
0.0
 10
89.225095
 20
74.177960
 30
0.0
 10
89.015437
 20
74.541100
 30
0.0
 10
89.015437
 20
74.934092
 30
0.0
  0
SPLINE
  5
208
100
AcDbEntity
  8
0
 62
1
100
AcDbSpline
 70
8
 71
3
 72
8
 73
4
 74
0
 40
0
 40
0
 40
0
 40
0
 40
1
 40
1
 40
1
 40
1
 10
89.015437
 20
74.934092
 30
0.0
 10
89.015437
 20
75.327085
 30
0.0
 10
89.225095
 20
75.690225
 30
0.0
 10
89.565437
 20
75.886721
 30
0.0
  0
SPLINE
  5
209
100
AcDbEntity
  8
0
 62
1
100
AcDbSpline
 70
8
 71
3
 72
8
 73
4
 74
0
 40
0
 40
0
 40
0
 40
0
 40
1
 40
1
 40
1
 40
1
 10
89.565437
 20
75.886721
 30
0.0
 10
89.905778
 20
76.083217
 30
0.0
 10
90.325096
 20
76.083217
 30
0.0
 10
90.665437
 20
75.886721
 30
0.0
  0
SPLINE
  5
20a
100
AcDbEntity
  8
0
 62
1
100
AcDbSpline
 70
8
 71
3
 72
8
 73
4
 74
0
 40
0
 40
0
 40
0
 40
0
 40
1
 40
1
 40
1
 40
1
 10
90.665437
 20
75.886721
 30
0.0
 10
91.005778
 20
75.690225
 30
0.0
 10
91.215437
 20
75.327085
 30
0.0
 10
91.215437
 20
74.934092
 30
0.0
  0
LWPOLYLINE
  5
20b
100
AcDbEntity
  8
0
 62
7
100
AcDbPolyline
 90
4
 70
1
 10
58.872672
 20
125.734857
 30
0.0
 10
85.796672
 20
125.734857
 30
0.0
 10
85.796672
 20
107.954857
 30
0.0
 10
58.872672
 20
107.954857
 30
0.0
  0
SPLINE
  5
20c
100
AcDbEntity
  8
0
 62
1
100
AcDbSpline
 70
8
 71
3
 72
8
 73
4
 74
0
 40
0
 40
0
 40
0
 40
0
 40
1
 40
1
 40
1
 40
1
 10
57.560308
 20
92.714092
 30
0.0
 10
57.560308
 20
92.106579
 30
0.0
 10
57.067821
 20
91.614092
 30
0.0
 10
56.460307
 20
91.614092
 30
0.0
  0
SPLINE
  5
20d
100
AcDbEntity
  8
0
 62
1
100
AcDbSpline
 70
8
 71
3
 72
8
 73
4
 74
0
 40
0
 40
0
 40
0
 40
0
 40
1
 40
1
 40
1
 40
1
 10
56.460307
 20
91.614092
 30
0.0
 10
55.852794
 20
91.614092
 30
0.0
 10
55.360307
 20
92.106579
 30
0.0
 10
55.360307
 20
92.714092
 30
0.0
  0
SPLINE
  5
20e
100
AcDbEntity
  8
0
 62
1
100
AcDbSpline
 70
8
 71
3
 72
8
 73
4
 74
0
 40
0
 40
0
 40
0
 40
0
 40
1
 40
1
 40
1
 40
1
 10
55.360307
 20
92.714092
 30
0.0
 10
55.360307
 20
93.107085
 30
0.0
 10
55.569966
 20
93.470225
 30
0.0
 10
55.910307
 20
93.666721
 30
0.0
  0
SPLINE
  5
20f
100
AcDbEntity
  8
0
 62
1
100
AcDbSpline
 70
8
 71
3
 72
8
 73
4
 74
0
 40
0
 40
0
 40
0
 40
0
 40
1
 40
1
 40
1
 40
1
 10
55.910307
 20
93.666721
 30
0.0
 10
56.250649
 20
93.863217
 30
0.0
 10
56.669966
 20
93.863217
 30
0.0
 10
57.010308
 20
93.666721
 30
0.0
  0
SPLINE
  5
210
100
AcDbEntity
  8
0
 62
1
100
AcDbSpline
 70
8
 71
3
 72
8
 73
4
 74
0
 40
0
 40
0
 40
0
 40
0
 40
1
 40
1
 40
1
 40
1
 10
57.010308
 20
93.666721
 30
0.0
 10
57.350649
 20
93.470225
 30
0.0
 10
57.560308
 20
93.107085
 30
0.0
 10
57.560308
 20
92.714092
 30
0.0
  0
LWPOLYLINE
  5
211
100
AcDbEntity
  8
0
 62
1
100
AcDbPolyline
 90
1
 70
1
 10
91.215437
 20
74.934092
 30
0.0
  0
SPLINE
  5
212
100
AcDbEntity
  8
0
 62
1
100
AcDbSpline
 70
8
 71
3
 72
8
 73
4
 74
0
 40
0
 40
0
 40
0
 40
0
 40
1
 40
1
 40
1
 40
1
 10
91.215437
 20
143.514222
 30
0.0
 10
91.215437
 20
143.121230
 30
0.0
 10
91.005778
 20
142.758090
 30
0.0
 10
90.665437
 20
142.561594
 30
0.0
  0
SPLINE
  5
213
100
AcDbEntity
  8
0
 62
1
100
AcDbSpline
 70
8
 71
3
 72
8
 73
4
 74
0
 40
0
 40
0
 40
0
 40
0
 40
1
 40
1
 40
1
 40
1
 10
90.665437
 20
142.561594
 30
0.0
 10
90.325096
 20
142.365098
 30
0.0
 10
89.905778
 20
142.365098
 30
0.0
 10
89.565437
 20
142.561594
 30
0.0
  0
SPLINE
  5
214
100
AcDbEntity
  8
0
 62
1
100
AcDbSpline
 70
8
 71
3
 72
8
 73
4
 74
0
 40
0
 40
0
 40
0
 40
0
 40
1
 40
1
 40
1
 40
1
 10
89.565437
 20
142.561594
 30
0.0
 10
89.225095
 20
142.758090
 30
0.0
 10
89.015437
 20
143.121230
 30
0.0
 10
89.015437
 20
143.514222
 30
0.0
  0
SPLINE
  5
215
100
AcDbEntity
  8
0
 62
1
100
AcDbSpline
 70
8
 71
3
 72
8
 73
4
 74
0
 40
0
 40
0
 40
0
 40
0
 40
1
 40
1
 40
1
 40
1
 10
89.015437
 20
143.514222
 30
0.0
 10
89.015437
 20
143.907214
 30
0.0
 10
89.225095
 20
144.270354
 30
0.0
 10
89.565437
 20
144.466850
 30
0.0
  0
SPLINE
  5
216
100
AcDbEntity
  8
0
 62
1
100
AcDbSpline
 70
8
 71
3
 72
8
 73
4
 74
0
 40
0
 40
0
 40
0
 40
0
 40
1
 40
1
 40
1
 40
1
 10
89.565437
 20
144.466850
 30
0.0
 10
89.905778
 20
144.663346
 30
0.0
 10
90.325096
 20
144.663346
 30
0.0
 10
90.665437
 20
144.466850
 30
0.0
  0
SPLINE
  5
217
100
AcDbEntity
  8
0
 62
1
100
AcDbSpline
 70
8
 71
3
 72
8
 73
4
 74
0
 40
0
 40
0
 40
0
 40
0
 40
1
 40
1
 40
1
 40
1
 10
90.665437
 20
144.466850
 30
0.0
 10
91.005778
 20
144.270354
 30
0.0
 10
91.215437
 20
143.907214
 30
0.0
 10
91.215437
 20
143.514222
 30
0.0
  0
LWPOLYLINE
  5
218
100
AcDbEntity
  8
0
 62
1
100
AcDbPolyline
 90
1
 70
1
 10
57.560308
 20
92.714092
 30
0.0
  0
LWPOLYLINE
  5
219
100
AcDbEntity
  8
0
 62
1
100
AcDbPolyline
 90
1
 70
1
 10
91.215437
 20
143.514222
 30
0.0
  0
ENDSEC
  0
SECTION
  2
OBJECTS
  0
DICTIONARY
  5
C
330
0
100
AcDbDictionary
  3
ACAD_GROUP
350
D
  3
ACAD_MLINESTYLE
350
17
  0
DICTIONARY
  5
D
330
C
100
AcDbDictionary
  0
DICTIONARY
  5
1A
330
C
100
AcDbDictionary
  0
DICTIONARY
  5
17
330
C
100
AcDbDictionary
  3
STANDARD
350
18
  0
DICTIONARY
  5
19
330
C
100
AcDbDictionary
  0
ENDSEC
  0
EOF
