G04 #@! TF.GenerationSoftware,KiCad,Pcbnew,5.0.2-bee76a0~70~ubuntu18.04.1*
G04 #@! TF.CreationDate,2019-07-24T01:50:04+09:00*
G04 #@! TF.ProjectId,shieldR,73686965-6c64-4522-9e6b-696361645f70,rev?*
G04 #@! TF.SameCoordinates,Original*
G04 #@! TF.FileFunction,Soldermask,Top*
G04 #@! TF.FilePolarity,Negative*
%FSLAX46Y46*%
G04 Gerber Fmt 4.6, Leading zero omitted, Abs format (unit mm)*
G04 Created by KiCad (PCBNEW 5.0.2-bee76a0~70~ubuntu18.04.1) date 2019年07月24日 01時50分04秒*
%MOMM*%
%LPD*%
G01*
G04 APERTURE LIST*
%ADD10C,0.150000*%
%ADD11C,0.100000*%
G04 APERTURE END LIST*
D10*
G36*
X97155000Y-20955000D02*
X97155000Y-77470000D01*
X55880000Y-102235000D01*
X55880000Y-34290000D01*
X69215000Y-20955000D01*
X97155000Y-20955000D01*
G37*
X97155000Y-20955000D02*
X97155000Y-77470000D01*
X55880000Y-102235000D01*
X55880000Y-34290000D01*
X69215000Y-20955000D01*
X97155000Y-20955000D01*
G36*
X99695000Y-102235000D02*
X140970000Y-77470000D01*
X140970000Y-20955000D01*
X113030000Y-20955000D01*
X99695000Y-34290000D01*
X99695000Y-102235000D01*
G37*
X99695000Y-102235000D02*
X140970000Y-77470000D01*
X140970000Y-20955000D01*
X113030000Y-20955000D01*
X99695000Y-34290000D01*
X99695000Y-102235000D01*
G36*
X99695000Y-105410000D02*
X99695000Y-161925000D01*
X140970000Y-186690000D01*
X140970000Y-118745000D01*
X127635000Y-105410000D01*
X99695000Y-105410000D01*
G37*
X99695000Y-105410000D02*
X99695000Y-161925000D01*
X140970000Y-186690000D01*
X140970000Y-118745000D01*
X127635000Y-105410000D01*
X99695000Y-105410000D01*
G36*
X55880000Y-105410000D02*
X55880000Y-161925000D01*
X97155000Y-186690000D01*
X97155000Y-118745000D01*
X83820000Y-105410000D01*
X55880000Y-105410000D01*
G37*
X55880000Y-105410000D02*
X55880000Y-161925000D01*
X97155000Y-186690000D01*
X97155000Y-118745000D01*
X83820000Y-105410000D01*
X55880000Y-105410000D01*
D11*
G36*
X104025957Y-91627634D02*
X104350987Y-91762266D01*
X104643512Y-91957725D01*
X104892275Y-92206488D01*
X105087734Y-92499013D01*
X105222366Y-92824043D01*
X105291000Y-93169093D01*
X105291000Y-93520907D01*
X105222366Y-93865957D01*
X105087734Y-94190987D01*
X104892275Y-94483512D01*
X104643512Y-94732275D01*
X104350987Y-94927734D01*
X104025957Y-95062366D01*
X103680907Y-95131000D01*
X103329093Y-95131000D01*
X102984043Y-95062366D01*
X102659013Y-94927734D01*
X102366488Y-94732275D01*
X102117725Y-94483512D01*
X101922266Y-94190987D01*
X101787634Y-93865957D01*
X101719000Y-93520907D01*
X101719000Y-93169093D01*
X101787634Y-92824043D01*
X101922266Y-92499013D01*
X102117725Y-92206488D01*
X102366488Y-91957725D01*
X102659013Y-91762266D01*
X102984043Y-91627634D01*
X103329093Y-91559000D01*
X103680907Y-91559000D01*
X104025957Y-91627634D01*
X104025957Y-91627634D01*
G37*
G36*
X60210957Y-91627634D02*
X60535987Y-91762266D01*
X60828512Y-91957725D01*
X61077275Y-92206488D01*
X61272734Y-92499013D01*
X61407366Y-92824043D01*
X61476000Y-93169093D01*
X61476000Y-93520907D01*
X61407366Y-93865957D01*
X61272734Y-94190987D01*
X61077275Y-94483512D01*
X60828512Y-94732275D01*
X60535987Y-94927734D01*
X60210957Y-95062366D01*
X59865907Y-95131000D01*
X59514093Y-95131000D01*
X59169043Y-95062366D01*
X58844013Y-94927734D01*
X58551488Y-94732275D01*
X58302725Y-94483512D01*
X58107266Y-94190987D01*
X57972634Y-93865957D01*
X57904000Y-93520907D01*
X57904000Y-93169093D01*
X57972634Y-92824043D01*
X58107266Y-92499013D01*
X58302725Y-92206488D01*
X58551488Y-91957725D01*
X58844013Y-91762266D01*
X59169043Y-91627634D01*
X59514093Y-91559000D01*
X59865907Y-91559000D01*
X60210957Y-91627634D01*
X60210957Y-91627634D01*
G37*
G36*
X137680957Y-73847634D02*
X138005987Y-73982266D01*
X138298512Y-74177725D01*
X138547275Y-74426488D01*
X138742734Y-74719013D01*
X138877366Y-75044043D01*
X138946000Y-75389093D01*
X138946000Y-75740907D01*
X138877366Y-76085957D01*
X138742734Y-76410987D01*
X138547275Y-76703512D01*
X138298512Y-76952275D01*
X138005987Y-77147734D01*
X137680957Y-77282366D01*
X137335907Y-77351000D01*
X136984093Y-77351000D01*
X136639043Y-77282366D01*
X136314013Y-77147734D01*
X136021488Y-76952275D01*
X135772725Y-76703512D01*
X135577266Y-76410987D01*
X135442634Y-76085957D01*
X135374000Y-75740907D01*
X135374000Y-75389093D01*
X135442634Y-75044043D01*
X135577266Y-74719013D01*
X135772725Y-74426488D01*
X136021488Y-74177725D01*
X136314013Y-73982266D01*
X136639043Y-73847634D01*
X136984093Y-73779000D01*
X137335907Y-73779000D01*
X137680957Y-73847634D01*
X137680957Y-73847634D01*
G37*
G36*
X93865957Y-73847634D02*
X94190987Y-73982266D01*
X94483512Y-74177725D01*
X94732275Y-74426488D01*
X94927734Y-74719013D01*
X95062366Y-75044043D01*
X95131000Y-75389093D01*
X95131000Y-75740907D01*
X95062366Y-76085957D01*
X94927734Y-76410987D01*
X94732275Y-76703512D01*
X94483512Y-76952275D01*
X94190987Y-77147734D01*
X93865957Y-77282366D01*
X93520907Y-77351000D01*
X93169093Y-77351000D01*
X92824043Y-77282366D01*
X92499013Y-77147734D01*
X92206488Y-76952275D01*
X91957725Y-76703512D01*
X91762266Y-76410987D01*
X91627634Y-76085957D01*
X91559000Y-75740907D01*
X91559000Y-75389093D01*
X91627634Y-75044043D01*
X91762266Y-74719013D01*
X91957725Y-74426488D01*
X92206488Y-74177725D01*
X92499013Y-73982266D01*
X92824043Y-73847634D01*
X93169093Y-73779000D01*
X93520907Y-73779000D01*
X93865957Y-73847634D01*
X93865957Y-73847634D01*
G37*
G36*
X125615957Y-23047634D02*
X125940987Y-23182266D01*
X126233512Y-23377725D01*
X126482275Y-23626488D01*
X126677734Y-23919013D01*
X126812366Y-24244043D01*
X126881000Y-24589093D01*
X126881000Y-24940907D01*
X126812366Y-25285957D01*
X126677734Y-25610987D01*
X126482275Y-25903512D01*
X126233512Y-26152275D01*
X125940987Y-26347734D01*
X125615957Y-26482366D01*
X125270907Y-26551000D01*
X124919093Y-26551000D01*
X124574043Y-26482366D01*
X124249013Y-26347734D01*
X123956488Y-26152275D01*
X123707725Y-25903512D01*
X123512266Y-25610987D01*
X123377634Y-25285957D01*
X123309000Y-24940907D01*
X123309000Y-24589093D01*
X123377634Y-24244043D01*
X123512266Y-23919013D01*
X123707725Y-23626488D01*
X123956488Y-23377725D01*
X124249013Y-23182266D01*
X124574043Y-23047634D01*
X124919093Y-22979000D01*
X125270907Y-22979000D01*
X125615957Y-23047634D01*
X125615957Y-23047634D01*
G37*
G36*
X81800957Y-23047634D02*
X82125987Y-23182266D01*
X82418512Y-23377725D01*
X82667275Y-23626488D01*
X82862734Y-23919013D01*
X82997366Y-24244043D01*
X83066000Y-24589093D01*
X83066000Y-24940907D01*
X82997366Y-25285957D01*
X82862734Y-25610987D01*
X82667275Y-25903512D01*
X82418512Y-26152275D01*
X82125987Y-26347734D01*
X81800957Y-26482366D01*
X81455907Y-26551000D01*
X81104093Y-26551000D01*
X80759043Y-26482366D01*
X80434013Y-26347734D01*
X80141488Y-26152275D01*
X79892725Y-25903512D01*
X79697266Y-25610987D01*
X79562634Y-25285957D01*
X79494000Y-24940907D01*
X79494000Y-24589093D01*
X79562634Y-24244043D01*
X79697266Y-23919013D01*
X79892725Y-23626488D01*
X80141488Y-23377725D01*
X80434013Y-23182266D01*
X80759043Y-23047634D01*
X81104093Y-22979000D01*
X81455907Y-22979000D01*
X81800957Y-23047634D01*
X81800957Y-23047634D01*
G37*
M02*
