G04 #@! TF.GenerationSoftware,KiCad,Pcbnew,5.1.5+dfsg1-2build2*
G04 #@! TF.CreationDate,2020-09-22T17:53:16+09:00*
G04 #@! TF.ProjectId,shield,73686965-6c64-42e6-9b69-6361645f7063,rev?*
G04 #@! TF.SameCoordinates,Original*
G04 #@! TF.FileFunction,Soldermask,Bot*
G04 #@! TF.FilePolarity,Negative*
%FSLAX46Y46*%
G04 Gerber Fmt 4.6, Leading zero omitted, Abs format (unit mm)*
G04 Created by KiCad (PCBNEW 5.1.5+dfsg1-2build2) date 2020-09-22 17:53:16*
%MOMM*%
%LPD*%
G04 APERTURE LIST*
%ADD10C,0.100000*%
G04 APERTURE END LIST*
D10*
G36*
X63394880Y-82849776D02*
G01*
X63775593Y-82925504D01*
X64185249Y-83095189D01*
X64553929Y-83341534D01*
X64867466Y-83655071D01*
X65113811Y-84023751D01*
X65283496Y-84433407D01*
X65370000Y-84868296D01*
X65370000Y-85311704D01*
X65283496Y-85746593D01*
X65113811Y-86156249D01*
X64867466Y-86524929D01*
X64553929Y-86838466D01*
X64185249Y-87084811D01*
X63775593Y-87254496D01*
X63394880Y-87330224D01*
X63340705Y-87341000D01*
X62897295Y-87341000D01*
X62843120Y-87330224D01*
X62462407Y-87254496D01*
X62052751Y-87084811D01*
X61684071Y-86838466D01*
X61370534Y-86524929D01*
X61124189Y-86156249D01*
X60954504Y-85746593D01*
X60868000Y-85311704D01*
X60868000Y-84868296D01*
X60954504Y-84433407D01*
X61124189Y-84023751D01*
X61370534Y-83655071D01*
X61684071Y-83341534D01*
X62052751Y-83095189D01*
X62462407Y-82925504D01*
X62843120Y-82849776D01*
X62897295Y-82839000D01*
X63340705Y-82839000D01*
X63394880Y-82849776D01*
G37*
G36*
X52980880Y-82849776D02*
G01*
X53361593Y-82925504D01*
X53771249Y-83095189D01*
X54139929Y-83341534D01*
X54453466Y-83655071D01*
X54699811Y-84023751D01*
X54869496Y-84433407D01*
X54956000Y-84868296D01*
X54956000Y-85311704D01*
X54869496Y-85746593D01*
X54699811Y-86156249D01*
X54453466Y-86524929D01*
X54139929Y-86838466D01*
X53771249Y-87084811D01*
X53361593Y-87254496D01*
X52980880Y-87330224D01*
X52926705Y-87341000D01*
X52483295Y-87341000D01*
X52429120Y-87330224D01*
X52048407Y-87254496D01*
X51638751Y-87084811D01*
X51270071Y-86838466D01*
X50956534Y-86524929D01*
X50710189Y-86156249D01*
X50540504Y-85746593D01*
X50454000Y-85311704D01*
X50454000Y-84868296D01*
X50540504Y-84433407D01*
X50710189Y-84023751D01*
X50956534Y-83655071D01*
X51270071Y-83341534D01*
X51638751Y-83095189D01*
X52048407Y-82925504D01*
X52429120Y-82849776D01*
X52483295Y-82839000D01*
X52926705Y-82839000D01*
X52980880Y-82849776D01*
G37*
G36*
X74825000Y-71061000D02*
G01*
X72923000Y-71061000D01*
X72923000Y-70139000D01*
X74825000Y-70139000D01*
X74825000Y-71061000D01*
G37*
G36*
X47901000Y-71061000D02*
G01*
X45999000Y-71061000D01*
X45999000Y-70139000D01*
X47901000Y-70139000D01*
X47901000Y-71061000D01*
G37*
G36*
X42901000Y-71061000D02*
G01*
X40999000Y-71061000D01*
X40999000Y-70139000D01*
X42901000Y-70139000D01*
X42901000Y-71061000D01*
G37*
G36*
X69825000Y-71061000D02*
G01*
X67923000Y-71061000D01*
X67923000Y-70139000D01*
X69825000Y-70139000D01*
X69825000Y-71061000D01*
G37*
G36*
X47901000Y-69561000D02*
G01*
X45999000Y-69561000D01*
X45999000Y-68639000D01*
X47901000Y-68639000D01*
X47901000Y-69561000D01*
G37*
G36*
X19325880Y-65069776D02*
G01*
X19706593Y-65145504D01*
X20116249Y-65315189D01*
X20484929Y-65561534D01*
X20798466Y-65875071D01*
X21044811Y-66243751D01*
X21214496Y-66653407D01*
X21301000Y-67088296D01*
X21301000Y-67531704D01*
X21214496Y-67966593D01*
X21044811Y-68376249D01*
X20798466Y-68744929D01*
X20484929Y-69058466D01*
X20116249Y-69304811D01*
X19706593Y-69474496D01*
X19325880Y-69550224D01*
X19271705Y-69561000D01*
X18828295Y-69561000D01*
X18774120Y-69550224D01*
X18393407Y-69474496D01*
X17983751Y-69304811D01*
X17615071Y-69058466D01*
X17301534Y-68744929D01*
X17055189Y-68376249D01*
X16885504Y-67966593D01*
X16799000Y-67531704D01*
X16799000Y-67088296D01*
X16885504Y-66653407D01*
X17055189Y-66243751D01*
X17301534Y-65875071D01*
X17615071Y-65561534D01*
X17983751Y-65315189D01*
X18393407Y-65145504D01*
X18774120Y-65069776D01*
X18828295Y-65059000D01*
X19271705Y-65059000D01*
X19325880Y-65069776D01*
G37*
G36*
X97049880Y-65069776D02*
G01*
X97430593Y-65145504D01*
X97840249Y-65315189D01*
X98208929Y-65561534D01*
X98522466Y-65875071D01*
X98768811Y-66243751D01*
X98938496Y-66653407D01*
X99025000Y-67088296D01*
X99025000Y-67531704D01*
X98938496Y-67966593D01*
X98768811Y-68376249D01*
X98522466Y-68744929D01*
X98208929Y-69058466D01*
X97840249Y-69304811D01*
X97430593Y-69474496D01*
X97049880Y-69550224D01*
X96995705Y-69561000D01*
X96552295Y-69561000D01*
X96498120Y-69550224D01*
X96117407Y-69474496D01*
X95707751Y-69304811D01*
X95339071Y-69058466D01*
X95025534Y-68744929D01*
X94779189Y-68376249D01*
X94609504Y-67966593D01*
X94523000Y-67531704D01*
X94523000Y-67088296D01*
X94609504Y-66653407D01*
X94779189Y-66243751D01*
X95025534Y-65875071D01*
X95339071Y-65561534D01*
X95707751Y-65315189D01*
X96117407Y-65145504D01*
X96498120Y-65069776D01*
X96552295Y-65059000D01*
X96995705Y-65059000D01*
X97049880Y-65069776D01*
G37*
G36*
X69825000Y-69561000D02*
G01*
X67923000Y-69561000D01*
X67923000Y-68639000D01*
X69825000Y-68639000D01*
X69825000Y-69561000D01*
G37*
G36*
X42901000Y-69561000D02*
G01*
X40999000Y-69561000D01*
X40999000Y-68639000D01*
X42901000Y-68639000D01*
X42901000Y-69561000D01*
G37*
G36*
X74825000Y-69561000D02*
G01*
X72923000Y-69561000D01*
X72923000Y-68639000D01*
X74825000Y-68639000D01*
X74825000Y-69561000D01*
G37*
G36*
X29486000Y-62425000D02*
G01*
X27584000Y-62425000D01*
X27584000Y-61503000D01*
X29486000Y-61503000D01*
X29486000Y-62425000D01*
G37*
G36*
X24486000Y-62425000D02*
G01*
X22584000Y-62425000D01*
X22584000Y-61503000D01*
X24486000Y-61503000D01*
X24486000Y-62425000D01*
G37*
G36*
X88240000Y-62425000D02*
G01*
X86338000Y-62425000D01*
X86338000Y-61503000D01*
X88240000Y-61503000D01*
X88240000Y-62425000D01*
G37*
G36*
X93240000Y-62425000D02*
G01*
X91338000Y-62425000D01*
X91338000Y-61503000D01*
X93240000Y-61503000D01*
X93240000Y-62425000D01*
G37*
G36*
X29486000Y-60925000D02*
G01*
X27584000Y-60925000D01*
X27584000Y-60003000D01*
X29486000Y-60003000D01*
X29486000Y-60925000D01*
G37*
G36*
X24486000Y-60925000D02*
G01*
X22584000Y-60925000D01*
X22584000Y-60003000D01*
X24486000Y-60003000D01*
X24486000Y-60925000D01*
G37*
G36*
X93240000Y-60925000D02*
G01*
X91338000Y-60925000D01*
X91338000Y-60003000D01*
X93240000Y-60003000D01*
X93240000Y-60925000D01*
G37*
G36*
X88240000Y-60925000D02*
G01*
X86338000Y-60925000D01*
X86338000Y-60003000D01*
X88240000Y-60003000D01*
X88240000Y-60925000D01*
G37*
G36*
X24486000Y-23563000D02*
G01*
X22584000Y-23563000D01*
X22584000Y-22641000D01*
X24486000Y-22641000D01*
X24486000Y-23563000D01*
G37*
G36*
X47901000Y-23563000D02*
G01*
X45999000Y-23563000D01*
X45999000Y-22641000D01*
X47901000Y-22641000D01*
X47901000Y-23563000D01*
G37*
G36*
X42901000Y-23563000D02*
G01*
X40999000Y-23563000D01*
X40999000Y-22641000D01*
X42901000Y-22641000D01*
X42901000Y-23563000D01*
G37*
G36*
X88240000Y-23563000D02*
G01*
X86338000Y-23563000D01*
X86338000Y-22641000D01*
X88240000Y-22641000D01*
X88240000Y-23563000D01*
G37*
G36*
X74825000Y-23563000D02*
G01*
X72923000Y-23563000D01*
X72923000Y-22641000D01*
X74825000Y-22641000D01*
X74825000Y-23563000D01*
G37*
G36*
X29486000Y-23563000D02*
G01*
X27584000Y-23563000D01*
X27584000Y-22641000D01*
X29486000Y-22641000D01*
X29486000Y-23563000D01*
G37*
G36*
X69825000Y-23563000D02*
G01*
X67923000Y-23563000D01*
X67923000Y-22641000D01*
X69825000Y-22641000D01*
X69825000Y-23563000D01*
G37*
G36*
X93240000Y-23563000D02*
G01*
X91338000Y-23563000D01*
X91338000Y-22641000D01*
X93240000Y-22641000D01*
X93240000Y-23563000D01*
G37*
G36*
X29486000Y-22063000D02*
G01*
X27584000Y-22063000D01*
X27584000Y-21141000D01*
X29486000Y-21141000D01*
X29486000Y-22063000D01*
G37*
G36*
X24486000Y-22063000D02*
G01*
X22584000Y-22063000D01*
X22584000Y-21141000D01*
X24486000Y-21141000D01*
X24486000Y-22063000D01*
G37*
G36*
X93240000Y-22063000D02*
G01*
X91338000Y-22063000D01*
X91338000Y-21141000D01*
X93240000Y-21141000D01*
X93240000Y-22063000D01*
G37*
G36*
X88240000Y-22063000D02*
G01*
X86338000Y-22063000D01*
X86338000Y-21141000D01*
X88240000Y-21141000D01*
X88240000Y-22063000D01*
G37*
G36*
X74825000Y-22063000D02*
G01*
X72923000Y-22063000D01*
X72923000Y-21141000D01*
X74825000Y-21141000D01*
X74825000Y-22063000D01*
G37*
G36*
X69825000Y-22063000D02*
G01*
X67923000Y-22063000D01*
X67923000Y-21141000D01*
X69825000Y-21141000D01*
X69825000Y-22063000D01*
G37*
G36*
X47901000Y-22063000D02*
G01*
X45999000Y-22063000D01*
X45999000Y-21141000D01*
X47901000Y-21141000D01*
X47901000Y-22063000D01*
G37*
G36*
X42901000Y-22063000D02*
G01*
X40999000Y-22063000D01*
X40999000Y-21141000D01*
X42901000Y-21141000D01*
X42901000Y-22063000D01*
G37*
G36*
X63394880Y-14269776D02*
G01*
X63775593Y-14345504D01*
X64185249Y-14515189D01*
X64553929Y-14761534D01*
X64867466Y-15075071D01*
X65113811Y-15443751D01*
X65283496Y-15853407D01*
X65370000Y-16288296D01*
X65370000Y-16731704D01*
X65283496Y-17166593D01*
X65113811Y-17576249D01*
X64867466Y-17944929D01*
X64553929Y-18258466D01*
X64185249Y-18504811D01*
X63775593Y-18674496D01*
X63394880Y-18750224D01*
X63340705Y-18761000D01*
X62897295Y-18761000D01*
X62843120Y-18750224D01*
X62462407Y-18674496D01*
X62052751Y-18504811D01*
X61684071Y-18258466D01*
X61370534Y-17944929D01*
X61124189Y-17576249D01*
X60954504Y-17166593D01*
X60868000Y-16731704D01*
X60868000Y-16288296D01*
X60954504Y-15853407D01*
X61124189Y-15443751D01*
X61370534Y-15075071D01*
X61684071Y-14761534D01*
X62052751Y-14515189D01*
X62462407Y-14345504D01*
X62843120Y-14269776D01*
X62897295Y-14259000D01*
X63340705Y-14259000D01*
X63394880Y-14269776D01*
G37*
G36*
X52980880Y-14269776D02*
G01*
X53361593Y-14345504D01*
X53771249Y-14515189D01*
X54139929Y-14761534D01*
X54453466Y-15075071D01*
X54699811Y-15443751D01*
X54869496Y-15853407D01*
X54956000Y-16288296D01*
X54956000Y-16731704D01*
X54869496Y-17166593D01*
X54699811Y-17576249D01*
X54453466Y-17944929D01*
X54139929Y-18258466D01*
X53771249Y-18504811D01*
X53361593Y-18674496D01*
X52980880Y-18750224D01*
X52926705Y-18761000D01*
X52483295Y-18761000D01*
X52429120Y-18750224D01*
X52048407Y-18674496D01*
X51638751Y-18504811D01*
X51270071Y-18258466D01*
X50956534Y-17944929D01*
X50710189Y-17576249D01*
X50540504Y-17166593D01*
X50454000Y-16731704D01*
X50454000Y-16288296D01*
X50540504Y-15853407D01*
X50710189Y-15443751D01*
X50956534Y-15075071D01*
X51270071Y-14761534D01*
X51638751Y-14515189D01*
X52048407Y-14345504D01*
X52429120Y-14269776D01*
X52483295Y-14259000D01*
X52926705Y-14259000D01*
X52980880Y-14269776D01*
G37*
M02*
