G04 #@! TF.GenerationSoftware,KiCad,Pcbnew,5.1.5+dfsg1-2build2*
G04 #@! TF.CreationDate,2020-09-22T17:53:16+09:00*
G04 #@! TF.ProjectId,shield,73686965-6c64-42e6-9b69-6361645f7063,rev?*
G04 #@! TF.SameCoordinates,Original*
G04 #@! TF.FileFunction,Copper,L1,Top*
G04 #@! TF.FilePolarity,Positive*
%FSLAX46Y46*%
G04 Gerber Fmt 4.6, Leading zero omitted, Abs format (unit mm)*
G04 Created by KiCad (PCBNEW 5.1.5+dfsg1-2build2) date 2020-09-22 17:53:16*
%MOMM*%
%LPD*%
G04 APERTURE LIST*
%ADD10C,0.700000*%
%ADD11C,4.400000*%
%ADD12C,0.800000*%
%ADD13C,0.250000*%
%ADD14C,0.400000*%
%ADD15C,0.254000*%
G04 APERTURE END LIST*
D10*
X17883274Y-66143274D03*
X19050000Y-65660000D03*
X20216726Y-66143274D03*
X20700000Y-67310000D03*
X20216726Y-68476726D03*
X19050000Y-68960000D03*
X17883274Y-68476726D03*
X17400000Y-67310000D03*
D11*
X19050000Y-67310000D03*
D10*
X51538274Y-83923274D03*
X52705000Y-83440000D03*
X53871726Y-83923274D03*
X54355000Y-85090000D03*
X53871726Y-86256726D03*
X52705000Y-86740000D03*
X51538274Y-86256726D03*
X51055000Y-85090000D03*
D11*
X52705000Y-85090000D03*
X52705000Y-16510000D03*
D10*
X51055000Y-16510000D03*
X51538274Y-17676726D03*
X52705000Y-18160000D03*
X53871726Y-17676726D03*
X54355000Y-16510000D03*
X53871726Y-15343274D03*
X52705000Y-14860000D03*
X51538274Y-15343274D03*
D11*
X63119000Y-85090000D03*
D10*
X64769000Y-85090000D03*
X64285726Y-86256726D03*
X63119000Y-86740000D03*
X61952274Y-86256726D03*
X61469000Y-85090000D03*
X61952274Y-83923274D03*
X63119000Y-83440000D03*
X64285726Y-83923274D03*
D11*
X96774000Y-67310000D03*
D10*
X98424000Y-67310000D03*
X97940726Y-68476726D03*
X96774000Y-68960000D03*
X95607274Y-68476726D03*
X95124000Y-67310000D03*
X95607274Y-66143274D03*
X96774000Y-65660000D03*
X97940726Y-66143274D03*
X64285726Y-15343274D03*
X63119000Y-14860000D03*
X61952274Y-15343274D03*
X61469000Y-16510000D03*
X61952274Y-17676726D03*
X63119000Y-18160000D03*
X64285726Y-17676726D03*
X64769000Y-16510000D03*
D11*
X63119000Y-16510000D03*
D12*
X57023000Y-85217000D03*
X57023000Y-88265000D03*
X58801000Y-88265000D03*
X58801000Y-85217000D03*
X57023000Y-18415000D03*
X57023000Y-21209000D03*
X58801000Y-21209000D03*
X58801000Y-18415000D03*
X28575000Y-23114000D03*
X46990000Y-23114000D03*
X46990000Y-70612000D03*
X28575000Y-61976000D03*
X68834000Y-69215000D03*
X68834000Y-21590000D03*
X88519000Y-66675000D03*
X92964000Y-26035000D03*
X39370000Y-57785000D03*
X36830000Y-29210000D03*
X87249000Y-21590000D03*
X87249000Y-60325000D03*
X57023000Y-86741000D03*
X58801000Y-86741000D03*
X58801000Y-19685000D03*
X57023000Y-19685000D03*
D13*
X55499000Y-86741000D02*
X57023000Y-86741000D01*
D14*
X68199000Y-21590000D02*
X68834000Y-21590000D01*
X63119000Y-16510000D02*
X68199000Y-21590000D01*
X68434001Y-21989999D02*
X68834000Y-21590000D01*
X66961990Y-23462010D02*
X68434001Y-21989999D01*
X66961990Y-67342990D02*
X66961990Y-23462010D01*
X68834000Y-69215000D02*
X66961990Y-67342990D01*
X46990000Y-22225000D02*
X46990000Y-23114000D01*
X52705000Y-16510000D02*
X46990000Y-22225000D01*
X46990000Y-23679685D02*
X46990000Y-23114000D01*
X46357675Y-24312010D02*
X46990000Y-23679685D01*
X29773010Y-24312010D02*
X46357675Y-24312010D01*
X28575000Y-23114000D02*
X29773010Y-24312010D01*
X52705000Y-19621269D02*
X52705000Y-16510000D01*
X47555685Y-70612000D02*
X52705000Y-65462685D01*
X46990000Y-70612000D02*
X47555685Y-70612000D01*
X52705000Y-48423765D02*
X52705000Y-45720000D01*
X39152765Y-61976000D02*
X52705000Y-48423765D01*
X28575000Y-61976000D02*
X39152765Y-61976000D01*
X52705000Y-45720000D02*
X52705000Y-19621269D01*
X52705000Y-65462685D02*
X52705000Y-45720000D01*
X82169000Y-16510000D02*
X87249000Y-21590000D01*
X63119000Y-16510000D02*
X82169000Y-16510000D01*
X87249000Y-59853765D02*
X87249000Y-60325000D01*
X94836010Y-52266755D02*
X87249000Y-59853765D01*
X94836010Y-31249562D02*
X94836010Y-52266755D01*
X87249000Y-23662552D02*
X94836010Y-31249562D01*
X87249000Y-21590000D02*
X87249000Y-23662552D01*
D13*
X57023000Y-86741000D02*
X58801000Y-86741000D01*
X58801000Y-86741000D02*
X60325000Y-86741000D01*
D14*
X57023000Y-19685000D02*
X58801000Y-19685000D01*
X55880000Y-19685000D02*
X57023000Y-19685000D01*
X52705000Y-16510000D02*
X55880000Y-19685000D01*
X59944000Y-19685000D02*
X63119000Y-16510000D01*
X58801000Y-19685000D02*
X59944000Y-19685000D01*
X55499000Y-79121000D02*
X46990000Y-70612000D01*
X55499000Y-86741000D02*
X55499000Y-79121000D01*
X60518999Y-77530001D02*
X60518999Y-86547001D01*
X68834000Y-69215000D02*
X60518999Y-77530001D01*
X60325000Y-86741000D02*
X55499000Y-86741000D01*
X60518999Y-86547001D02*
X60325000Y-86741000D01*
X58801000Y-86741000D02*
X58801000Y-85217000D01*
X57023000Y-85217000D02*
X57023000Y-86741000D01*
X57023000Y-88265000D02*
X57023000Y-86741000D01*
X58801000Y-88265000D02*
X58801000Y-86741000D01*
X57023000Y-19685000D02*
X57023000Y-21209000D01*
X58801000Y-19685000D02*
X58801000Y-21209000D01*
X58801000Y-19685000D02*
X58801000Y-18415000D01*
X57023000Y-18415000D02*
X57023000Y-19685000D01*
X57023000Y-85217000D02*
X58801000Y-85217000D01*
X57023000Y-88265000D02*
X58801000Y-88265000D01*
X57023000Y-18415000D02*
X58801000Y-18415000D01*
X57023000Y-21209000D02*
X58801000Y-21209000D01*
D15*
G36*
X96277358Y-13481842D02*
G01*
X97026277Y-13686723D01*
X97727072Y-14020986D01*
X98357605Y-14474069D01*
X98897934Y-15031645D01*
X99330989Y-15676099D01*
X99643073Y-16387044D01*
X99825640Y-17147493D01*
X99874001Y-17806044D01*
X99874000Y-68807423D01*
X62676854Y-90529551D01*
X62332992Y-90661307D01*
X61981664Y-90721772D01*
X61625289Y-90712844D01*
X61277433Y-90634867D01*
X60951348Y-90490808D01*
X60659451Y-90286154D01*
X60412870Y-90028708D01*
X60220986Y-89728264D01*
X60091114Y-89396275D01*
X60024547Y-89025011D01*
X60020391Y-88920751D01*
X60022435Y-88900000D01*
X60008727Y-88760816D01*
X59968128Y-88626980D01*
X59902200Y-88503637D01*
X59813475Y-88395525D01*
X59705363Y-88306800D01*
X59582020Y-88240872D01*
X59448184Y-88200273D01*
X59436000Y-88199073D01*
X59436000Y-85409927D01*
X59448184Y-85408727D01*
X59582020Y-85368128D01*
X59705363Y-85302200D01*
X59813475Y-85213475D01*
X59902200Y-85105363D01*
X59968128Y-84982020D01*
X60008727Y-84848184D01*
X60012411Y-84810777D01*
X60284000Y-84810777D01*
X60284000Y-85369223D01*
X60392948Y-85916939D01*
X60606656Y-86432876D01*
X60916912Y-86897207D01*
X61311793Y-87292088D01*
X61776124Y-87602344D01*
X62292061Y-87816052D01*
X62839777Y-87925000D01*
X63398223Y-87925000D01*
X63945939Y-87816052D01*
X64461876Y-87602344D01*
X64926207Y-87292088D01*
X65321088Y-86897207D01*
X65631344Y-86432876D01*
X65845052Y-85916939D01*
X65954000Y-85369223D01*
X65954000Y-84810777D01*
X65845052Y-84263061D01*
X65631344Y-83747124D01*
X65321088Y-83282793D01*
X64926207Y-82887912D01*
X64461876Y-82577656D01*
X63945939Y-82363948D01*
X63398223Y-82255000D01*
X62839777Y-82255000D01*
X62292061Y-82363948D01*
X61776124Y-82577656D01*
X61311793Y-82887912D01*
X60916912Y-83282793D01*
X60606656Y-83747124D01*
X60392948Y-84263061D01*
X60284000Y-84810777D01*
X60012411Y-84810777D01*
X60022435Y-84709000D01*
X60019000Y-84674123D01*
X60019000Y-68350000D01*
X68975638Y-68350000D01*
X68979001Y-68384145D01*
X68979000Y-71315865D01*
X68975638Y-71350000D01*
X68989057Y-71486244D01*
X69028798Y-71617252D01*
X69093333Y-71737989D01*
X69180183Y-71843817D01*
X69286011Y-71930667D01*
X69406748Y-71995202D01*
X69537756Y-72034943D01*
X69674000Y-72048362D01*
X69708134Y-72045000D01*
X73039866Y-72045000D01*
X73074000Y-72048362D01*
X73210244Y-72034943D01*
X73341252Y-71995202D01*
X73461989Y-71930667D01*
X73567817Y-71843817D01*
X73654667Y-71737989D01*
X73719202Y-71617252D01*
X73758943Y-71486244D01*
X73769000Y-71384135D01*
X73769000Y-71384134D01*
X73772362Y-71350000D01*
X73769000Y-71315865D01*
X73769000Y-68384135D01*
X73772362Y-68350000D01*
X73758943Y-68213756D01*
X73719202Y-68082748D01*
X73654667Y-67962011D01*
X73567817Y-67856183D01*
X73461989Y-67769333D01*
X73341252Y-67704798D01*
X73210244Y-67665057D01*
X73108135Y-67655000D01*
X73108134Y-67655000D01*
X73074000Y-67651638D01*
X73039865Y-67655000D01*
X69708135Y-67655000D01*
X69674000Y-67651638D01*
X69639866Y-67655000D01*
X69639865Y-67655000D01*
X69537756Y-67665057D01*
X69406748Y-67704798D01*
X69286011Y-67769333D01*
X69180183Y-67856183D01*
X69093333Y-67962011D01*
X69028798Y-68082748D01*
X68989057Y-68213756D01*
X68975638Y-68350000D01*
X60019000Y-68350000D01*
X60019000Y-67030777D01*
X93939000Y-67030777D01*
X93939000Y-67589223D01*
X94047948Y-68136939D01*
X94261656Y-68652876D01*
X94571912Y-69117207D01*
X94966793Y-69512088D01*
X95431124Y-69822344D01*
X95947061Y-70036052D01*
X96494777Y-70145000D01*
X97053223Y-70145000D01*
X97600939Y-70036052D01*
X98116876Y-69822344D01*
X98581207Y-69512088D01*
X98976088Y-69117207D01*
X99286344Y-68652876D01*
X99500052Y-68136939D01*
X99609000Y-67589223D01*
X99609000Y-67030777D01*
X99500052Y-66483061D01*
X99286344Y-65967124D01*
X98976088Y-65502793D01*
X98581207Y-65107912D01*
X98116876Y-64797656D01*
X97600939Y-64583948D01*
X97053223Y-64475000D01*
X96494777Y-64475000D01*
X95947061Y-64583948D01*
X95431124Y-64797656D01*
X94966793Y-65107912D01*
X94571912Y-65502793D01*
X94261656Y-65967124D01*
X94047948Y-66483061D01*
X93939000Y-67030777D01*
X60019000Y-67030777D01*
X60019000Y-59714000D01*
X87390638Y-59714000D01*
X87394001Y-59748145D01*
X87394000Y-62679865D01*
X87390638Y-62714000D01*
X87404057Y-62850244D01*
X87443798Y-62981252D01*
X87508333Y-63101989D01*
X87595183Y-63207817D01*
X87701011Y-63294667D01*
X87821748Y-63359202D01*
X87952756Y-63398943D01*
X88089000Y-63412362D01*
X88123134Y-63409000D01*
X91454866Y-63409000D01*
X91489000Y-63412362D01*
X91625244Y-63398943D01*
X91756252Y-63359202D01*
X91876989Y-63294667D01*
X91982817Y-63207817D01*
X92069667Y-63101989D01*
X92134202Y-62981252D01*
X92173943Y-62850244D01*
X92184000Y-62748135D01*
X92184000Y-62748134D01*
X92187362Y-62714000D01*
X92184000Y-62679865D01*
X92184000Y-59748135D01*
X92187362Y-59714000D01*
X92173943Y-59577756D01*
X92134202Y-59446748D01*
X92069667Y-59326011D01*
X91982817Y-59220183D01*
X91876989Y-59133333D01*
X91756252Y-59068798D01*
X91625244Y-59029057D01*
X91523135Y-59019000D01*
X91523134Y-59019000D01*
X91489000Y-59015638D01*
X91454865Y-59019000D01*
X88123135Y-59019000D01*
X88089000Y-59015638D01*
X88054866Y-59019000D01*
X88054865Y-59019000D01*
X87952756Y-59029057D01*
X87821748Y-59068798D01*
X87701011Y-59133333D01*
X87595183Y-59220183D01*
X87508333Y-59326011D01*
X87443798Y-59446748D01*
X87404057Y-59577756D01*
X87390638Y-59714000D01*
X60019000Y-59714000D01*
X60019000Y-34290000D01*
X66723565Y-34290000D01*
X66727000Y-34324877D01*
X66727001Y-52035113D01*
X66723565Y-52070000D01*
X66737273Y-52209184D01*
X66777872Y-52343020D01*
X66843800Y-52466363D01*
X66932525Y-52574475D01*
X67040637Y-52663200D01*
X67163980Y-52729128D01*
X67297816Y-52769727D01*
X67402123Y-52780000D01*
X67437000Y-52783435D01*
X67471877Y-52780000D01*
X94326123Y-52780000D01*
X94361000Y-52783435D01*
X94395877Y-52780000D01*
X94500184Y-52769727D01*
X94634020Y-52729128D01*
X94757363Y-52663200D01*
X94865475Y-52574475D01*
X94954200Y-52466363D01*
X95020128Y-52343020D01*
X95060727Y-52209184D01*
X95074435Y-52070000D01*
X95071000Y-52035123D01*
X95071000Y-34324877D01*
X95074435Y-34290000D01*
X95060727Y-34150816D01*
X95020128Y-34016980D01*
X94954200Y-33893637D01*
X94865475Y-33785525D01*
X94757363Y-33696800D01*
X94634020Y-33630872D01*
X94500184Y-33590273D01*
X94395877Y-33580000D01*
X94361000Y-33576565D01*
X94326123Y-33580000D01*
X67471877Y-33580000D01*
X67437000Y-33576565D01*
X67402123Y-33580000D01*
X67297816Y-33590273D01*
X67163980Y-33630872D01*
X67040637Y-33696800D01*
X66932525Y-33785525D01*
X66843800Y-33893637D01*
X66777872Y-34016980D01*
X66737273Y-34150816D01*
X66723565Y-34290000D01*
X60019000Y-34290000D01*
X60019000Y-21751877D01*
X60022435Y-21717000D01*
X60008727Y-21577816D01*
X59968128Y-21443980D01*
X59902200Y-21320637D01*
X59813475Y-21212525D01*
X59705363Y-21123800D01*
X59582020Y-21057872D01*
X59448184Y-21017273D01*
X59436000Y-21016073D01*
X59436000Y-20852000D01*
X68975638Y-20852000D01*
X68979001Y-20886145D01*
X68979000Y-23817865D01*
X68975638Y-23852000D01*
X68989057Y-23988244D01*
X69028798Y-24119252D01*
X69093333Y-24239989D01*
X69180183Y-24345817D01*
X69286011Y-24432667D01*
X69406748Y-24497202D01*
X69537756Y-24536943D01*
X69674000Y-24550362D01*
X69708134Y-24547000D01*
X73039866Y-24547000D01*
X73074000Y-24550362D01*
X73210244Y-24536943D01*
X73341252Y-24497202D01*
X73461989Y-24432667D01*
X73567817Y-24345817D01*
X73654667Y-24239989D01*
X73719202Y-24119252D01*
X73758943Y-23988244D01*
X73769000Y-23886135D01*
X73769000Y-23886134D01*
X73772362Y-23852000D01*
X73769000Y-23817865D01*
X73769000Y-20886135D01*
X73772362Y-20852000D01*
X87390638Y-20852000D01*
X87394001Y-20886145D01*
X87394000Y-23817865D01*
X87390638Y-23852000D01*
X87404057Y-23988244D01*
X87443798Y-24119252D01*
X87508333Y-24239989D01*
X87595183Y-24345817D01*
X87701011Y-24432667D01*
X87821748Y-24497202D01*
X87952756Y-24536943D01*
X88089000Y-24550362D01*
X88123134Y-24547000D01*
X91454866Y-24547000D01*
X91489000Y-24550362D01*
X91625244Y-24536943D01*
X91756252Y-24497202D01*
X91876989Y-24432667D01*
X91982817Y-24345817D01*
X92069667Y-24239989D01*
X92134202Y-24119252D01*
X92173943Y-23988244D01*
X92184000Y-23886135D01*
X92184000Y-23886134D01*
X92187362Y-23852000D01*
X92184000Y-23817865D01*
X92184000Y-20886135D01*
X92187362Y-20852000D01*
X92173943Y-20715756D01*
X92134202Y-20584748D01*
X92069667Y-20464011D01*
X91982817Y-20358183D01*
X91876989Y-20271333D01*
X91756252Y-20206798D01*
X91625244Y-20167057D01*
X91523135Y-20157000D01*
X91523134Y-20157000D01*
X91489000Y-20153638D01*
X91454865Y-20157000D01*
X88123135Y-20157000D01*
X88089000Y-20153638D01*
X88054866Y-20157000D01*
X88054865Y-20157000D01*
X87952756Y-20167057D01*
X87821748Y-20206798D01*
X87701011Y-20271333D01*
X87595183Y-20358183D01*
X87508333Y-20464011D01*
X87443798Y-20584748D01*
X87404057Y-20715756D01*
X87390638Y-20852000D01*
X73772362Y-20852000D01*
X73758943Y-20715756D01*
X73719202Y-20584748D01*
X73654667Y-20464011D01*
X73567817Y-20358183D01*
X73461989Y-20271333D01*
X73341252Y-20206798D01*
X73210244Y-20167057D01*
X73108135Y-20157000D01*
X73108134Y-20157000D01*
X73074000Y-20153638D01*
X73039865Y-20157000D01*
X69708135Y-20157000D01*
X69674000Y-20153638D01*
X69639866Y-20157000D01*
X69639865Y-20157000D01*
X69537756Y-20167057D01*
X69406748Y-20206798D01*
X69286011Y-20271333D01*
X69180183Y-20358183D01*
X69093333Y-20464011D01*
X69028798Y-20584748D01*
X68989057Y-20715756D01*
X68975638Y-20852000D01*
X59436000Y-20852000D01*
X59436000Y-18499775D01*
X61308830Y-18499775D01*
X61548976Y-18887018D01*
X62042877Y-19147641D01*
X62578133Y-19306901D01*
X63134174Y-19358678D01*
X63689632Y-19300981D01*
X64223161Y-19136028D01*
X64689024Y-18887018D01*
X64929170Y-18499775D01*
X63119000Y-16689605D01*
X61308830Y-18499775D01*
X59436000Y-18499775D01*
X59436000Y-18480927D01*
X59448184Y-18479727D01*
X59582020Y-18439128D01*
X59705363Y-18373200D01*
X59813475Y-18284475D01*
X59902200Y-18176363D01*
X59968128Y-18053020D01*
X60008727Y-17919184D01*
X60022435Y-17780000D01*
X60022113Y-17776734D01*
X60090842Y-17006642D01*
X60294970Y-16260474D01*
X60270322Y-16525174D01*
X60328019Y-17080632D01*
X60492972Y-17614161D01*
X60741982Y-18080024D01*
X61129225Y-18320170D01*
X62939395Y-16510000D01*
X63298605Y-16510000D01*
X65108775Y-18320170D01*
X65496018Y-18080024D01*
X65756641Y-17586123D01*
X65915901Y-17050867D01*
X65967678Y-16494826D01*
X65909981Y-15939368D01*
X65745028Y-15405839D01*
X65496018Y-14939976D01*
X65108775Y-14699830D01*
X63298605Y-16510000D01*
X62939395Y-16510000D01*
X62925253Y-16495858D01*
X63104858Y-16316253D01*
X63119000Y-16330395D01*
X64929170Y-14520225D01*
X64689024Y-14132982D01*
X64195123Y-13872359D01*
X63659867Y-13713099D01*
X63103826Y-13661322D01*
X62901773Y-13682310D01*
X62996044Y-13640927D01*
X63756493Y-13458360D01*
X64415031Y-13410000D01*
X95472382Y-13410000D01*
X96277358Y-13481842D01*
G37*
X96277358Y-13481842D02*
X97026277Y-13686723D01*
X97727072Y-14020986D01*
X98357605Y-14474069D01*
X98897934Y-15031645D01*
X99330989Y-15676099D01*
X99643073Y-16387044D01*
X99825640Y-17147493D01*
X99874001Y-17806044D01*
X99874000Y-68807423D01*
X62676854Y-90529551D01*
X62332992Y-90661307D01*
X61981664Y-90721772D01*
X61625289Y-90712844D01*
X61277433Y-90634867D01*
X60951348Y-90490808D01*
X60659451Y-90286154D01*
X60412870Y-90028708D01*
X60220986Y-89728264D01*
X60091114Y-89396275D01*
X60024547Y-89025011D01*
X60020391Y-88920751D01*
X60022435Y-88900000D01*
X60008727Y-88760816D01*
X59968128Y-88626980D01*
X59902200Y-88503637D01*
X59813475Y-88395525D01*
X59705363Y-88306800D01*
X59582020Y-88240872D01*
X59448184Y-88200273D01*
X59436000Y-88199073D01*
X59436000Y-85409927D01*
X59448184Y-85408727D01*
X59582020Y-85368128D01*
X59705363Y-85302200D01*
X59813475Y-85213475D01*
X59902200Y-85105363D01*
X59968128Y-84982020D01*
X60008727Y-84848184D01*
X60012411Y-84810777D01*
X60284000Y-84810777D01*
X60284000Y-85369223D01*
X60392948Y-85916939D01*
X60606656Y-86432876D01*
X60916912Y-86897207D01*
X61311793Y-87292088D01*
X61776124Y-87602344D01*
X62292061Y-87816052D01*
X62839777Y-87925000D01*
X63398223Y-87925000D01*
X63945939Y-87816052D01*
X64461876Y-87602344D01*
X64926207Y-87292088D01*
X65321088Y-86897207D01*
X65631344Y-86432876D01*
X65845052Y-85916939D01*
X65954000Y-85369223D01*
X65954000Y-84810777D01*
X65845052Y-84263061D01*
X65631344Y-83747124D01*
X65321088Y-83282793D01*
X64926207Y-82887912D01*
X64461876Y-82577656D01*
X63945939Y-82363948D01*
X63398223Y-82255000D01*
X62839777Y-82255000D01*
X62292061Y-82363948D01*
X61776124Y-82577656D01*
X61311793Y-82887912D01*
X60916912Y-83282793D01*
X60606656Y-83747124D01*
X60392948Y-84263061D01*
X60284000Y-84810777D01*
X60012411Y-84810777D01*
X60022435Y-84709000D01*
X60019000Y-84674123D01*
X60019000Y-68350000D01*
X68975638Y-68350000D01*
X68979001Y-68384145D01*
X68979000Y-71315865D01*
X68975638Y-71350000D01*
X68989057Y-71486244D01*
X69028798Y-71617252D01*
X69093333Y-71737989D01*
X69180183Y-71843817D01*
X69286011Y-71930667D01*
X69406748Y-71995202D01*
X69537756Y-72034943D01*
X69674000Y-72048362D01*
X69708134Y-72045000D01*
X73039866Y-72045000D01*
X73074000Y-72048362D01*
X73210244Y-72034943D01*
X73341252Y-71995202D01*
X73461989Y-71930667D01*
X73567817Y-71843817D01*
X73654667Y-71737989D01*
X73719202Y-71617252D01*
X73758943Y-71486244D01*
X73769000Y-71384135D01*
X73769000Y-71384134D01*
X73772362Y-71350000D01*
X73769000Y-71315865D01*
X73769000Y-68384135D01*
X73772362Y-68350000D01*
X73758943Y-68213756D01*
X73719202Y-68082748D01*
X73654667Y-67962011D01*
X73567817Y-67856183D01*
X73461989Y-67769333D01*
X73341252Y-67704798D01*
X73210244Y-67665057D01*
X73108135Y-67655000D01*
X73108134Y-67655000D01*
X73074000Y-67651638D01*
X73039865Y-67655000D01*
X69708135Y-67655000D01*
X69674000Y-67651638D01*
X69639866Y-67655000D01*
X69639865Y-67655000D01*
X69537756Y-67665057D01*
X69406748Y-67704798D01*
X69286011Y-67769333D01*
X69180183Y-67856183D01*
X69093333Y-67962011D01*
X69028798Y-68082748D01*
X68989057Y-68213756D01*
X68975638Y-68350000D01*
X60019000Y-68350000D01*
X60019000Y-67030777D01*
X93939000Y-67030777D01*
X93939000Y-67589223D01*
X94047948Y-68136939D01*
X94261656Y-68652876D01*
X94571912Y-69117207D01*
X94966793Y-69512088D01*
X95431124Y-69822344D01*
X95947061Y-70036052D01*
X96494777Y-70145000D01*
X97053223Y-70145000D01*
X97600939Y-70036052D01*
X98116876Y-69822344D01*
X98581207Y-69512088D01*
X98976088Y-69117207D01*
X99286344Y-68652876D01*
X99500052Y-68136939D01*
X99609000Y-67589223D01*
X99609000Y-67030777D01*
X99500052Y-66483061D01*
X99286344Y-65967124D01*
X98976088Y-65502793D01*
X98581207Y-65107912D01*
X98116876Y-64797656D01*
X97600939Y-64583948D01*
X97053223Y-64475000D01*
X96494777Y-64475000D01*
X95947061Y-64583948D01*
X95431124Y-64797656D01*
X94966793Y-65107912D01*
X94571912Y-65502793D01*
X94261656Y-65967124D01*
X94047948Y-66483061D01*
X93939000Y-67030777D01*
X60019000Y-67030777D01*
X60019000Y-59714000D01*
X87390638Y-59714000D01*
X87394001Y-59748145D01*
X87394000Y-62679865D01*
X87390638Y-62714000D01*
X87404057Y-62850244D01*
X87443798Y-62981252D01*
X87508333Y-63101989D01*
X87595183Y-63207817D01*
X87701011Y-63294667D01*
X87821748Y-63359202D01*
X87952756Y-63398943D01*
X88089000Y-63412362D01*
X88123134Y-63409000D01*
X91454866Y-63409000D01*
X91489000Y-63412362D01*
X91625244Y-63398943D01*
X91756252Y-63359202D01*
X91876989Y-63294667D01*
X91982817Y-63207817D01*
X92069667Y-63101989D01*
X92134202Y-62981252D01*
X92173943Y-62850244D01*
X92184000Y-62748135D01*
X92184000Y-62748134D01*
X92187362Y-62714000D01*
X92184000Y-62679865D01*
X92184000Y-59748135D01*
X92187362Y-59714000D01*
X92173943Y-59577756D01*
X92134202Y-59446748D01*
X92069667Y-59326011D01*
X91982817Y-59220183D01*
X91876989Y-59133333D01*
X91756252Y-59068798D01*
X91625244Y-59029057D01*
X91523135Y-59019000D01*
X91523134Y-59019000D01*
X91489000Y-59015638D01*
X91454865Y-59019000D01*
X88123135Y-59019000D01*
X88089000Y-59015638D01*
X88054866Y-59019000D01*
X88054865Y-59019000D01*
X87952756Y-59029057D01*
X87821748Y-59068798D01*
X87701011Y-59133333D01*
X87595183Y-59220183D01*
X87508333Y-59326011D01*
X87443798Y-59446748D01*
X87404057Y-59577756D01*
X87390638Y-59714000D01*
X60019000Y-59714000D01*
X60019000Y-34290000D01*
X66723565Y-34290000D01*
X66727000Y-34324877D01*
X66727001Y-52035113D01*
X66723565Y-52070000D01*
X66737273Y-52209184D01*
X66777872Y-52343020D01*
X66843800Y-52466363D01*
X66932525Y-52574475D01*
X67040637Y-52663200D01*
X67163980Y-52729128D01*
X67297816Y-52769727D01*
X67402123Y-52780000D01*
X67437000Y-52783435D01*
X67471877Y-52780000D01*
X94326123Y-52780000D01*
X94361000Y-52783435D01*
X94395877Y-52780000D01*
X94500184Y-52769727D01*
X94634020Y-52729128D01*
X94757363Y-52663200D01*
X94865475Y-52574475D01*
X94954200Y-52466363D01*
X95020128Y-52343020D01*
X95060727Y-52209184D01*
X95074435Y-52070000D01*
X95071000Y-52035123D01*
X95071000Y-34324877D01*
X95074435Y-34290000D01*
X95060727Y-34150816D01*
X95020128Y-34016980D01*
X94954200Y-33893637D01*
X94865475Y-33785525D01*
X94757363Y-33696800D01*
X94634020Y-33630872D01*
X94500184Y-33590273D01*
X94395877Y-33580000D01*
X94361000Y-33576565D01*
X94326123Y-33580000D01*
X67471877Y-33580000D01*
X67437000Y-33576565D01*
X67402123Y-33580000D01*
X67297816Y-33590273D01*
X67163980Y-33630872D01*
X67040637Y-33696800D01*
X66932525Y-33785525D01*
X66843800Y-33893637D01*
X66777872Y-34016980D01*
X66737273Y-34150816D01*
X66723565Y-34290000D01*
X60019000Y-34290000D01*
X60019000Y-21751877D01*
X60022435Y-21717000D01*
X60008727Y-21577816D01*
X59968128Y-21443980D01*
X59902200Y-21320637D01*
X59813475Y-21212525D01*
X59705363Y-21123800D01*
X59582020Y-21057872D01*
X59448184Y-21017273D01*
X59436000Y-21016073D01*
X59436000Y-20852000D01*
X68975638Y-20852000D01*
X68979001Y-20886145D01*
X68979000Y-23817865D01*
X68975638Y-23852000D01*
X68989057Y-23988244D01*
X69028798Y-24119252D01*
X69093333Y-24239989D01*
X69180183Y-24345817D01*
X69286011Y-24432667D01*
X69406748Y-24497202D01*
X69537756Y-24536943D01*
X69674000Y-24550362D01*
X69708134Y-24547000D01*
X73039866Y-24547000D01*
X73074000Y-24550362D01*
X73210244Y-24536943D01*
X73341252Y-24497202D01*
X73461989Y-24432667D01*
X73567817Y-24345817D01*
X73654667Y-24239989D01*
X73719202Y-24119252D01*
X73758943Y-23988244D01*
X73769000Y-23886135D01*
X73769000Y-23886134D01*
X73772362Y-23852000D01*
X73769000Y-23817865D01*
X73769000Y-20886135D01*
X73772362Y-20852000D01*
X87390638Y-20852000D01*
X87394001Y-20886145D01*
X87394000Y-23817865D01*
X87390638Y-23852000D01*
X87404057Y-23988244D01*
X87443798Y-24119252D01*
X87508333Y-24239989D01*
X87595183Y-24345817D01*
X87701011Y-24432667D01*
X87821748Y-24497202D01*
X87952756Y-24536943D01*
X88089000Y-24550362D01*
X88123134Y-24547000D01*
X91454866Y-24547000D01*
X91489000Y-24550362D01*
X91625244Y-24536943D01*
X91756252Y-24497202D01*
X91876989Y-24432667D01*
X91982817Y-24345817D01*
X92069667Y-24239989D01*
X92134202Y-24119252D01*
X92173943Y-23988244D01*
X92184000Y-23886135D01*
X92184000Y-23886134D01*
X92187362Y-23852000D01*
X92184000Y-23817865D01*
X92184000Y-20886135D01*
X92187362Y-20852000D01*
X92173943Y-20715756D01*
X92134202Y-20584748D01*
X92069667Y-20464011D01*
X91982817Y-20358183D01*
X91876989Y-20271333D01*
X91756252Y-20206798D01*
X91625244Y-20167057D01*
X91523135Y-20157000D01*
X91523134Y-20157000D01*
X91489000Y-20153638D01*
X91454865Y-20157000D01*
X88123135Y-20157000D01*
X88089000Y-20153638D01*
X88054866Y-20157000D01*
X88054865Y-20157000D01*
X87952756Y-20167057D01*
X87821748Y-20206798D01*
X87701011Y-20271333D01*
X87595183Y-20358183D01*
X87508333Y-20464011D01*
X87443798Y-20584748D01*
X87404057Y-20715756D01*
X87390638Y-20852000D01*
X73772362Y-20852000D01*
X73758943Y-20715756D01*
X73719202Y-20584748D01*
X73654667Y-20464011D01*
X73567817Y-20358183D01*
X73461989Y-20271333D01*
X73341252Y-20206798D01*
X73210244Y-20167057D01*
X73108135Y-20157000D01*
X73108134Y-20157000D01*
X73074000Y-20153638D01*
X73039865Y-20157000D01*
X69708135Y-20157000D01*
X69674000Y-20153638D01*
X69639866Y-20157000D01*
X69639865Y-20157000D01*
X69537756Y-20167057D01*
X69406748Y-20206798D01*
X69286011Y-20271333D01*
X69180183Y-20358183D01*
X69093333Y-20464011D01*
X69028798Y-20584748D01*
X68989057Y-20715756D01*
X68975638Y-20852000D01*
X59436000Y-20852000D01*
X59436000Y-18499775D01*
X61308830Y-18499775D01*
X61548976Y-18887018D01*
X62042877Y-19147641D01*
X62578133Y-19306901D01*
X63134174Y-19358678D01*
X63689632Y-19300981D01*
X64223161Y-19136028D01*
X64689024Y-18887018D01*
X64929170Y-18499775D01*
X63119000Y-16689605D01*
X61308830Y-18499775D01*
X59436000Y-18499775D01*
X59436000Y-18480927D01*
X59448184Y-18479727D01*
X59582020Y-18439128D01*
X59705363Y-18373200D01*
X59813475Y-18284475D01*
X59902200Y-18176363D01*
X59968128Y-18053020D01*
X60008727Y-17919184D01*
X60022435Y-17780000D01*
X60022113Y-17776734D01*
X60090842Y-17006642D01*
X60294970Y-16260474D01*
X60270322Y-16525174D01*
X60328019Y-17080632D01*
X60492972Y-17614161D01*
X60741982Y-18080024D01*
X61129225Y-18320170D01*
X62939395Y-16510000D01*
X63298605Y-16510000D01*
X65108775Y-18320170D01*
X65496018Y-18080024D01*
X65756641Y-17586123D01*
X65915901Y-17050867D01*
X65967678Y-16494826D01*
X65909981Y-15939368D01*
X65745028Y-15405839D01*
X65496018Y-14939976D01*
X65108775Y-14699830D01*
X63298605Y-16510000D01*
X62939395Y-16510000D01*
X62925253Y-16495858D01*
X63104858Y-16316253D01*
X63119000Y-16330395D01*
X64929170Y-14520225D01*
X64689024Y-14132982D01*
X64195123Y-13872359D01*
X63659867Y-13713099D01*
X63103826Y-13661322D01*
X62901773Y-13682310D01*
X62996044Y-13640927D01*
X63756493Y-13458360D01*
X64415031Y-13410000D01*
X95472382Y-13410000D01*
X96277358Y-13481842D01*
G36*
X52208358Y-13481842D02*
G01*
X52954526Y-13685970D01*
X52689826Y-13661322D01*
X52134368Y-13719019D01*
X51600839Y-13883972D01*
X51134976Y-14132982D01*
X50894830Y-14520225D01*
X52705000Y-16330395D01*
X52719143Y-16316253D01*
X52898748Y-16495858D01*
X52884605Y-16510000D01*
X54694775Y-18320170D01*
X55082018Y-18080024D01*
X55342641Y-17586123D01*
X55501901Y-17050867D01*
X55553678Y-16494826D01*
X55532690Y-16292773D01*
X55574073Y-16387044D01*
X55756640Y-17147493D01*
X55802438Y-17771139D01*
X55801565Y-17780000D01*
X55815273Y-17919184D01*
X55855872Y-18053020D01*
X55921800Y-18176363D01*
X56010525Y-18284475D01*
X56118637Y-18373200D01*
X56241980Y-18439128D01*
X56375816Y-18479727D01*
X56388000Y-18480927D01*
X56388000Y-21016073D01*
X56375816Y-21017273D01*
X56241980Y-21057872D01*
X56118637Y-21123800D01*
X56010525Y-21212525D01*
X55921800Y-21320637D01*
X55855872Y-21443980D01*
X55815273Y-21577816D01*
X55801565Y-21717000D01*
X55805001Y-21751887D01*
X55805000Y-84674123D01*
X55801565Y-84709000D01*
X55815273Y-84848184D01*
X55855872Y-84982020D01*
X55921800Y-85105363D01*
X56010525Y-85213475D01*
X56118637Y-85302200D01*
X56241980Y-85368128D01*
X56375816Y-85408727D01*
X56388000Y-85409927D01*
X56388000Y-88199073D01*
X56375816Y-88200273D01*
X56241980Y-88240872D01*
X56118637Y-88306800D01*
X56010525Y-88395525D01*
X55921800Y-88503637D01*
X55855872Y-88626980D01*
X55815273Y-88760816D01*
X55801565Y-88900000D01*
X55801580Y-88900156D01*
X55766809Y-89254784D01*
X55663771Y-89596063D01*
X55496409Y-89910825D01*
X55271097Y-90187083D01*
X54996418Y-90414317D01*
X54682838Y-90583869D01*
X54342288Y-90689287D01*
X53987749Y-90726550D01*
X53632731Y-90694242D01*
X53270884Y-90587744D01*
X53164984Y-90539967D01*
X43354273Y-84810777D01*
X49870000Y-84810777D01*
X49870000Y-85369223D01*
X49978948Y-85916939D01*
X50192656Y-86432876D01*
X50502912Y-86897207D01*
X50897793Y-87292088D01*
X51362124Y-87602344D01*
X51878061Y-87816052D01*
X52425777Y-87925000D01*
X52984223Y-87925000D01*
X53531939Y-87816052D01*
X54047876Y-87602344D01*
X54512207Y-87292088D01*
X54907088Y-86897207D01*
X55217344Y-86432876D01*
X55431052Y-85916939D01*
X55540000Y-85369223D01*
X55540000Y-84810777D01*
X55431052Y-84263061D01*
X55217344Y-83747124D01*
X54907088Y-83282793D01*
X54512207Y-82887912D01*
X54047876Y-82577656D01*
X53531939Y-82363948D01*
X52984223Y-82255000D01*
X52425777Y-82255000D01*
X51878061Y-82363948D01*
X51362124Y-82577656D01*
X50897793Y-82887912D01*
X50502912Y-83282793D01*
X50192656Y-83747124D01*
X49978948Y-84263061D01*
X49870000Y-84810777D01*
X43354273Y-84810777D01*
X15950000Y-68807423D01*
X15950000Y-67030777D01*
X16215000Y-67030777D01*
X16215000Y-67589223D01*
X16323948Y-68136939D01*
X16537656Y-68652876D01*
X16847912Y-69117207D01*
X17242793Y-69512088D01*
X17707124Y-69822344D01*
X18223061Y-70036052D01*
X18770777Y-70145000D01*
X19329223Y-70145000D01*
X19876939Y-70036052D01*
X20392876Y-69822344D01*
X20857207Y-69512088D01*
X21252088Y-69117207D01*
X21562344Y-68652876D01*
X21687799Y-68350000D01*
X42051638Y-68350000D01*
X42055001Y-68384145D01*
X42055000Y-71315865D01*
X42051638Y-71350000D01*
X42065057Y-71486244D01*
X42104798Y-71617252D01*
X42169333Y-71737989D01*
X42256183Y-71843817D01*
X42362011Y-71930667D01*
X42482748Y-71995202D01*
X42613756Y-72034943D01*
X42750000Y-72048362D01*
X42784134Y-72045000D01*
X46115866Y-72045000D01*
X46150000Y-72048362D01*
X46286244Y-72034943D01*
X46417252Y-71995202D01*
X46537989Y-71930667D01*
X46643817Y-71843817D01*
X46730667Y-71737989D01*
X46795202Y-71617252D01*
X46834943Y-71486244D01*
X46845000Y-71384135D01*
X46845000Y-71384134D01*
X46848362Y-71350000D01*
X46845000Y-71315865D01*
X46845000Y-68384135D01*
X46848362Y-68350000D01*
X46834943Y-68213756D01*
X46795202Y-68082748D01*
X46730667Y-67962011D01*
X46643817Y-67856183D01*
X46537989Y-67769333D01*
X46417252Y-67704798D01*
X46286244Y-67665057D01*
X46184135Y-67655000D01*
X46184134Y-67655000D01*
X46150000Y-67651638D01*
X46115865Y-67655000D01*
X42784135Y-67655000D01*
X42750000Y-67651638D01*
X42715866Y-67655000D01*
X42715865Y-67655000D01*
X42613756Y-67665057D01*
X42482748Y-67704798D01*
X42362011Y-67769333D01*
X42256183Y-67856183D01*
X42169333Y-67962011D01*
X42104798Y-68082748D01*
X42065057Y-68213756D01*
X42051638Y-68350000D01*
X21687799Y-68350000D01*
X21776052Y-68136939D01*
X21885000Y-67589223D01*
X21885000Y-67030777D01*
X21776052Y-66483061D01*
X21562344Y-65967124D01*
X21252088Y-65502793D01*
X20857207Y-65107912D01*
X20392876Y-64797656D01*
X19876939Y-64583948D01*
X19329223Y-64475000D01*
X18770777Y-64475000D01*
X18223061Y-64583948D01*
X17707124Y-64797656D01*
X17242793Y-65107912D01*
X16847912Y-65502793D01*
X16537656Y-65967124D01*
X16323948Y-66483061D01*
X16215000Y-67030777D01*
X15950000Y-67030777D01*
X15950000Y-59714000D01*
X23636638Y-59714000D01*
X23640001Y-59748145D01*
X23640000Y-62679865D01*
X23636638Y-62714000D01*
X23650057Y-62850244D01*
X23689798Y-62981252D01*
X23754333Y-63101989D01*
X23841183Y-63207817D01*
X23947011Y-63294667D01*
X24067748Y-63359202D01*
X24198756Y-63398943D01*
X24335000Y-63412362D01*
X24369134Y-63409000D01*
X27700866Y-63409000D01*
X27735000Y-63412362D01*
X27871244Y-63398943D01*
X28002252Y-63359202D01*
X28122989Y-63294667D01*
X28228817Y-63207817D01*
X28315667Y-63101989D01*
X28380202Y-62981252D01*
X28419943Y-62850244D01*
X28430000Y-62748135D01*
X28430000Y-62748134D01*
X28433362Y-62714000D01*
X28430000Y-62679865D01*
X28430000Y-59748135D01*
X28433362Y-59714000D01*
X28419943Y-59577756D01*
X28380202Y-59446748D01*
X28315667Y-59326011D01*
X28228817Y-59220183D01*
X28122989Y-59133333D01*
X28002252Y-59068798D01*
X27871244Y-59029057D01*
X27769135Y-59019000D01*
X27769134Y-59019000D01*
X27735000Y-59015638D01*
X27700865Y-59019000D01*
X24369135Y-59019000D01*
X24335000Y-59015638D01*
X24300866Y-59019000D01*
X24300865Y-59019000D01*
X24198756Y-59029057D01*
X24067748Y-59068798D01*
X23947011Y-59133333D01*
X23841183Y-59220183D01*
X23754333Y-59326011D01*
X23689798Y-59446748D01*
X23650057Y-59577756D01*
X23636638Y-59714000D01*
X15950000Y-59714000D01*
X15950000Y-34290000D01*
X20749565Y-34290000D01*
X20753001Y-34324887D01*
X20753000Y-52035123D01*
X20749565Y-52070000D01*
X20763273Y-52209184D01*
X20803872Y-52343020D01*
X20869800Y-52466363D01*
X20958525Y-52574475D01*
X21066637Y-52663200D01*
X21189980Y-52729128D01*
X21323816Y-52769727D01*
X21463000Y-52783435D01*
X21497877Y-52780000D01*
X48352123Y-52780000D01*
X48387000Y-52783435D01*
X48421877Y-52780000D01*
X48526184Y-52769727D01*
X48660020Y-52729128D01*
X48783363Y-52663200D01*
X48891475Y-52574475D01*
X48980200Y-52466363D01*
X49046128Y-52343020D01*
X49086727Y-52209184D01*
X49100435Y-52070000D01*
X49097000Y-52035123D01*
X49097000Y-34324877D01*
X49100435Y-34290000D01*
X49086727Y-34150816D01*
X49046128Y-34016980D01*
X48980200Y-33893637D01*
X48891475Y-33785525D01*
X48783363Y-33696800D01*
X48660020Y-33630872D01*
X48526184Y-33590273D01*
X48421877Y-33580000D01*
X48387000Y-33576565D01*
X48352123Y-33580000D01*
X21497877Y-33580000D01*
X21463000Y-33576565D01*
X21428123Y-33580000D01*
X21323816Y-33590273D01*
X21189980Y-33630872D01*
X21066637Y-33696800D01*
X20958525Y-33785525D01*
X20869800Y-33893637D01*
X20803872Y-34016980D01*
X20763273Y-34150816D01*
X20749565Y-34290000D01*
X15950000Y-34290000D01*
X15950000Y-20852000D01*
X23636638Y-20852000D01*
X23640001Y-20886145D01*
X23640000Y-23817865D01*
X23636638Y-23852000D01*
X23650057Y-23988244D01*
X23689798Y-24119252D01*
X23754333Y-24239989D01*
X23841183Y-24345817D01*
X23947011Y-24432667D01*
X24067748Y-24497202D01*
X24198756Y-24536943D01*
X24335000Y-24550362D01*
X24369134Y-24547000D01*
X27700866Y-24547000D01*
X27735000Y-24550362D01*
X27871244Y-24536943D01*
X28002252Y-24497202D01*
X28122989Y-24432667D01*
X28228817Y-24345817D01*
X28315667Y-24239989D01*
X28380202Y-24119252D01*
X28419943Y-23988244D01*
X28430000Y-23886135D01*
X28430000Y-23886134D01*
X28433362Y-23852000D01*
X28430000Y-23817865D01*
X28430000Y-20886135D01*
X28433362Y-20852000D01*
X42051638Y-20852000D01*
X42055001Y-20886145D01*
X42055000Y-23817865D01*
X42051638Y-23852000D01*
X42065057Y-23988244D01*
X42104798Y-24119252D01*
X42169333Y-24239989D01*
X42256183Y-24345817D01*
X42362011Y-24432667D01*
X42482748Y-24497202D01*
X42613756Y-24536943D01*
X42750000Y-24550362D01*
X42784134Y-24547000D01*
X46115866Y-24547000D01*
X46150000Y-24550362D01*
X46286244Y-24536943D01*
X46417252Y-24497202D01*
X46537989Y-24432667D01*
X46643817Y-24345817D01*
X46730667Y-24239989D01*
X46795202Y-24119252D01*
X46834943Y-23988244D01*
X46845000Y-23886135D01*
X46845000Y-23886134D01*
X46848362Y-23852000D01*
X46845000Y-23817865D01*
X46845000Y-20886135D01*
X46848362Y-20852000D01*
X46834943Y-20715756D01*
X46795202Y-20584748D01*
X46730667Y-20464011D01*
X46643817Y-20358183D01*
X46537989Y-20271333D01*
X46417252Y-20206798D01*
X46286244Y-20167057D01*
X46184135Y-20157000D01*
X46184134Y-20157000D01*
X46150000Y-20153638D01*
X46115865Y-20157000D01*
X42784135Y-20157000D01*
X42750000Y-20153638D01*
X42715866Y-20157000D01*
X42715865Y-20157000D01*
X42613756Y-20167057D01*
X42482748Y-20206798D01*
X42362011Y-20271333D01*
X42256183Y-20358183D01*
X42169333Y-20464011D01*
X42104798Y-20584748D01*
X42065057Y-20715756D01*
X42051638Y-20852000D01*
X28433362Y-20852000D01*
X28419943Y-20715756D01*
X28380202Y-20584748D01*
X28315667Y-20464011D01*
X28228817Y-20358183D01*
X28122989Y-20271333D01*
X28002252Y-20206798D01*
X27871244Y-20167057D01*
X27769135Y-20157000D01*
X27769134Y-20157000D01*
X27735000Y-20153638D01*
X27700865Y-20157000D01*
X24369135Y-20157000D01*
X24335000Y-20153638D01*
X24300866Y-20157000D01*
X24300865Y-20157000D01*
X24198756Y-20167057D01*
X24067748Y-20206798D01*
X23947011Y-20271333D01*
X23841183Y-20358183D01*
X23754333Y-20464011D01*
X23689798Y-20584748D01*
X23650057Y-20715756D01*
X23636638Y-20852000D01*
X15950000Y-20852000D01*
X15950000Y-18499775D01*
X50894830Y-18499775D01*
X51134976Y-18887018D01*
X51628877Y-19147641D01*
X52164133Y-19306901D01*
X52720174Y-19358678D01*
X53275632Y-19300981D01*
X53809161Y-19136028D01*
X54275024Y-18887018D01*
X54515170Y-18499775D01*
X52705000Y-16689605D01*
X50894830Y-18499775D01*
X15950000Y-18499775D01*
X15950000Y-17811618D01*
X16021842Y-17006642D01*
X16153556Y-16525174D01*
X49856322Y-16525174D01*
X49914019Y-17080632D01*
X50078972Y-17614161D01*
X50327982Y-18080024D01*
X50715225Y-18320170D01*
X52525395Y-16510000D01*
X50715225Y-14699830D01*
X50327982Y-14939976D01*
X50067359Y-15433877D01*
X49908099Y-15969133D01*
X49856322Y-16525174D01*
X16153556Y-16525174D01*
X16226723Y-16257723D01*
X16560986Y-15556928D01*
X17014069Y-14926395D01*
X17571645Y-14386066D01*
X18216099Y-13953011D01*
X18927044Y-13640927D01*
X19687493Y-13458360D01*
X20346031Y-13410000D01*
X51403382Y-13410000D01*
X52208358Y-13481842D01*
G37*
X52208358Y-13481842D02*
X52954526Y-13685970D01*
X52689826Y-13661322D01*
X52134368Y-13719019D01*
X51600839Y-13883972D01*
X51134976Y-14132982D01*
X50894830Y-14520225D01*
X52705000Y-16330395D01*
X52719143Y-16316253D01*
X52898748Y-16495858D01*
X52884605Y-16510000D01*
X54694775Y-18320170D01*
X55082018Y-18080024D01*
X55342641Y-17586123D01*
X55501901Y-17050867D01*
X55553678Y-16494826D01*
X55532690Y-16292773D01*
X55574073Y-16387044D01*
X55756640Y-17147493D01*
X55802438Y-17771139D01*
X55801565Y-17780000D01*
X55815273Y-17919184D01*
X55855872Y-18053020D01*
X55921800Y-18176363D01*
X56010525Y-18284475D01*
X56118637Y-18373200D01*
X56241980Y-18439128D01*
X56375816Y-18479727D01*
X56388000Y-18480927D01*
X56388000Y-21016073D01*
X56375816Y-21017273D01*
X56241980Y-21057872D01*
X56118637Y-21123800D01*
X56010525Y-21212525D01*
X55921800Y-21320637D01*
X55855872Y-21443980D01*
X55815273Y-21577816D01*
X55801565Y-21717000D01*
X55805001Y-21751887D01*
X55805000Y-84674123D01*
X55801565Y-84709000D01*
X55815273Y-84848184D01*
X55855872Y-84982020D01*
X55921800Y-85105363D01*
X56010525Y-85213475D01*
X56118637Y-85302200D01*
X56241980Y-85368128D01*
X56375816Y-85408727D01*
X56388000Y-85409927D01*
X56388000Y-88199073D01*
X56375816Y-88200273D01*
X56241980Y-88240872D01*
X56118637Y-88306800D01*
X56010525Y-88395525D01*
X55921800Y-88503637D01*
X55855872Y-88626980D01*
X55815273Y-88760816D01*
X55801565Y-88900000D01*
X55801580Y-88900156D01*
X55766809Y-89254784D01*
X55663771Y-89596063D01*
X55496409Y-89910825D01*
X55271097Y-90187083D01*
X54996418Y-90414317D01*
X54682838Y-90583869D01*
X54342288Y-90689287D01*
X53987749Y-90726550D01*
X53632731Y-90694242D01*
X53270884Y-90587744D01*
X53164984Y-90539967D01*
X43354273Y-84810777D01*
X49870000Y-84810777D01*
X49870000Y-85369223D01*
X49978948Y-85916939D01*
X50192656Y-86432876D01*
X50502912Y-86897207D01*
X50897793Y-87292088D01*
X51362124Y-87602344D01*
X51878061Y-87816052D01*
X52425777Y-87925000D01*
X52984223Y-87925000D01*
X53531939Y-87816052D01*
X54047876Y-87602344D01*
X54512207Y-87292088D01*
X54907088Y-86897207D01*
X55217344Y-86432876D01*
X55431052Y-85916939D01*
X55540000Y-85369223D01*
X55540000Y-84810777D01*
X55431052Y-84263061D01*
X55217344Y-83747124D01*
X54907088Y-83282793D01*
X54512207Y-82887912D01*
X54047876Y-82577656D01*
X53531939Y-82363948D01*
X52984223Y-82255000D01*
X52425777Y-82255000D01*
X51878061Y-82363948D01*
X51362124Y-82577656D01*
X50897793Y-82887912D01*
X50502912Y-83282793D01*
X50192656Y-83747124D01*
X49978948Y-84263061D01*
X49870000Y-84810777D01*
X43354273Y-84810777D01*
X15950000Y-68807423D01*
X15950000Y-67030777D01*
X16215000Y-67030777D01*
X16215000Y-67589223D01*
X16323948Y-68136939D01*
X16537656Y-68652876D01*
X16847912Y-69117207D01*
X17242793Y-69512088D01*
X17707124Y-69822344D01*
X18223061Y-70036052D01*
X18770777Y-70145000D01*
X19329223Y-70145000D01*
X19876939Y-70036052D01*
X20392876Y-69822344D01*
X20857207Y-69512088D01*
X21252088Y-69117207D01*
X21562344Y-68652876D01*
X21687799Y-68350000D01*
X42051638Y-68350000D01*
X42055001Y-68384145D01*
X42055000Y-71315865D01*
X42051638Y-71350000D01*
X42065057Y-71486244D01*
X42104798Y-71617252D01*
X42169333Y-71737989D01*
X42256183Y-71843817D01*
X42362011Y-71930667D01*
X42482748Y-71995202D01*
X42613756Y-72034943D01*
X42750000Y-72048362D01*
X42784134Y-72045000D01*
X46115866Y-72045000D01*
X46150000Y-72048362D01*
X46286244Y-72034943D01*
X46417252Y-71995202D01*
X46537989Y-71930667D01*
X46643817Y-71843817D01*
X46730667Y-71737989D01*
X46795202Y-71617252D01*
X46834943Y-71486244D01*
X46845000Y-71384135D01*
X46845000Y-71384134D01*
X46848362Y-71350000D01*
X46845000Y-71315865D01*
X46845000Y-68384135D01*
X46848362Y-68350000D01*
X46834943Y-68213756D01*
X46795202Y-68082748D01*
X46730667Y-67962011D01*
X46643817Y-67856183D01*
X46537989Y-67769333D01*
X46417252Y-67704798D01*
X46286244Y-67665057D01*
X46184135Y-67655000D01*
X46184134Y-67655000D01*
X46150000Y-67651638D01*
X46115865Y-67655000D01*
X42784135Y-67655000D01*
X42750000Y-67651638D01*
X42715866Y-67655000D01*
X42715865Y-67655000D01*
X42613756Y-67665057D01*
X42482748Y-67704798D01*
X42362011Y-67769333D01*
X42256183Y-67856183D01*
X42169333Y-67962011D01*
X42104798Y-68082748D01*
X42065057Y-68213756D01*
X42051638Y-68350000D01*
X21687799Y-68350000D01*
X21776052Y-68136939D01*
X21885000Y-67589223D01*
X21885000Y-67030777D01*
X21776052Y-66483061D01*
X21562344Y-65967124D01*
X21252088Y-65502793D01*
X20857207Y-65107912D01*
X20392876Y-64797656D01*
X19876939Y-64583948D01*
X19329223Y-64475000D01*
X18770777Y-64475000D01*
X18223061Y-64583948D01*
X17707124Y-64797656D01*
X17242793Y-65107912D01*
X16847912Y-65502793D01*
X16537656Y-65967124D01*
X16323948Y-66483061D01*
X16215000Y-67030777D01*
X15950000Y-67030777D01*
X15950000Y-59714000D01*
X23636638Y-59714000D01*
X23640001Y-59748145D01*
X23640000Y-62679865D01*
X23636638Y-62714000D01*
X23650057Y-62850244D01*
X23689798Y-62981252D01*
X23754333Y-63101989D01*
X23841183Y-63207817D01*
X23947011Y-63294667D01*
X24067748Y-63359202D01*
X24198756Y-63398943D01*
X24335000Y-63412362D01*
X24369134Y-63409000D01*
X27700866Y-63409000D01*
X27735000Y-63412362D01*
X27871244Y-63398943D01*
X28002252Y-63359202D01*
X28122989Y-63294667D01*
X28228817Y-63207817D01*
X28315667Y-63101989D01*
X28380202Y-62981252D01*
X28419943Y-62850244D01*
X28430000Y-62748135D01*
X28430000Y-62748134D01*
X28433362Y-62714000D01*
X28430000Y-62679865D01*
X28430000Y-59748135D01*
X28433362Y-59714000D01*
X28419943Y-59577756D01*
X28380202Y-59446748D01*
X28315667Y-59326011D01*
X28228817Y-59220183D01*
X28122989Y-59133333D01*
X28002252Y-59068798D01*
X27871244Y-59029057D01*
X27769135Y-59019000D01*
X27769134Y-59019000D01*
X27735000Y-59015638D01*
X27700865Y-59019000D01*
X24369135Y-59019000D01*
X24335000Y-59015638D01*
X24300866Y-59019000D01*
X24300865Y-59019000D01*
X24198756Y-59029057D01*
X24067748Y-59068798D01*
X23947011Y-59133333D01*
X23841183Y-59220183D01*
X23754333Y-59326011D01*
X23689798Y-59446748D01*
X23650057Y-59577756D01*
X23636638Y-59714000D01*
X15950000Y-59714000D01*
X15950000Y-34290000D01*
X20749565Y-34290000D01*
X20753001Y-34324887D01*
X20753000Y-52035123D01*
X20749565Y-52070000D01*
X20763273Y-52209184D01*
X20803872Y-52343020D01*
X20869800Y-52466363D01*
X20958525Y-52574475D01*
X21066637Y-52663200D01*
X21189980Y-52729128D01*
X21323816Y-52769727D01*
X21463000Y-52783435D01*
X21497877Y-52780000D01*
X48352123Y-52780000D01*
X48387000Y-52783435D01*
X48421877Y-52780000D01*
X48526184Y-52769727D01*
X48660020Y-52729128D01*
X48783363Y-52663200D01*
X48891475Y-52574475D01*
X48980200Y-52466363D01*
X49046128Y-52343020D01*
X49086727Y-52209184D01*
X49100435Y-52070000D01*
X49097000Y-52035123D01*
X49097000Y-34324877D01*
X49100435Y-34290000D01*
X49086727Y-34150816D01*
X49046128Y-34016980D01*
X48980200Y-33893637D01*
X48891475Y-33785525D01*
X48783363Y-33696800D01*
X48660020Y-33630872D01*
X48526184Y-33590273D01*
X48421877Y-33580000D01*
X48387000Y-33576565D01*
X48352123Y-33580000D01*
X21497877Y-33580000D01*
X21463000Y-33576565D01*
X21428123Y-33580000D01*
X21323816Y-33590273D01*
X21189980Y-33630872D01*
X21066637Y-33696800D01*
X20958525Y-33785525D01*
X20869800Y-33893637D01*
X20803872Y-34016980D01*
X20763273Y-34150816D01*
X20749565Y-34290000D01*
X15950000Y-34290000D01*
X15950000Y-20852000D01*
X23636638Y-20852000D01*
X23640001Y-20886145D01*
X23640000Y-23817865D01*
X23636638Y-23852000D01*
X23650057Y-23988244D01*
X23689798Y-24119252D01*
X23754333Y-24239989D01*
X23841183Y-24345817D01*
X23947011Y-24432667D01*
X24067748Y-24497202D01*
X24198756Y-24536943D01*
X24335000Y-24550362D01*
X24369134Y-24547000D01*
X27700866Y-24547000D01*
X27735000Y-24550362D01*
X27871244Y-24536943D01*
X28002252Y-24497202D01*
X28122989Y-24432667D01*
X28228817Y-24345817D01*
X28315667Y-24239989D01*
X28380202Y-24119252D01*
X28419943Y-23988244D01*
X28430000Y-23886135D01*
X28430000Y-23886134D01*
X28433362Y-23852000D01*
X28430000Y-23817865D01*
X28430000Y-20886135D01*
X28433362Y-20852000D01*
X42051638Y-20852000D01*
X42055001Y-20886145D01*
X42055000Y-23817865D01*
X42051638Y-23852000D01*
X42065057Y-23988244D01*
X42104798Y-24119252D01*
X42169333Y-24239989D01*
X42256183Y-24345817D01*
X42362011Y-24432667D01*
X42482748Y-24497202D01*
X42613756Y-24536943D01*
X42750000Y-24550362D01*
X42784134Y-24547000D01*
X46115866Y-24547000D01*
X46150000Y-24550362D01*
X46286244Y-24536943D01*
X46417252Y-24497202D01*
X46537989Y-24432667D01*
X46643817Y-24345817D01*
X46730667Y-24239989D01*
X46795202Y-24119252D01*
X46834943Y-23988244D01*
X46845000Y-23886135D01*
X46845000Y-23886134D01*
X46848362Y-23852000D01*
X46845000Y-23817865D01*
X46845000Y-20886135D01*
X46848362Y-20852000D01*
X46834943Y-20715756D01*
X46795202Y-20584748D01*
X46730667Y-20464011D01*
X46643817Y-20358183D01*
X46537989Y-20271333D01*
X46417252Y-20206798D01*
X46286244Y-20167057D01*
X46184135Y-20157000D01*
X46184134Y-20157000D01*
X46150000Y-20153638D01*
X46115865Y-20157000D01*
X42784135Y-20157000D01*
X42750000Y-20153638D01*
X42715866Y-20157000D01*
X42715865Y-20157000D01*
X42613756Y-20167057D01*
X42482748Y-20206798D01*
X42362011Y-20271333D01*
X42256183Y-20358183D01*
X42169333Y-20464011D01*
X42104798Y-20584748D01*
X42065057Y-20715756D01*
X42051638Y-20852000D01*
X28433362Y-20852000D01*
X28419943Y-20715756D01*
X28380202Y-20584748D01*
X28315667Y-20464011D01*
X28228817Y-20358183D01*
X28122989Y-20271333D01*
X28002252Y-20206798D01*
X27871244Y-20167057D01*
X27769135Y-20157000D01*
X27769134Y-20157000D01*
X27735000Y-20153638D01*
X27700865Y-20157000D01*
X24369135Y-20157000D01*
X24335000Y-20153638D01*
X24300866Y-20157000D01*
X24300865Y-20157000D01*
X24198756Y-20167057D01*
X24067748Y-20206798D01*
X23947011Y-20271333D01*
X23841183Y-20358183D01*
X23754333Y-20464011D01*
X23689798Y-20584748D01*
X23650057Y-20715756D01*
X23636638Y-20852000D01*
X15950000Y-20852000D01*
X15950000Y-18499775D01*
X50894830Y-18499775D01*
X51134976Y-18887018D01*
X51628877Y-19147641D01*
X52164133Y-19306901D01*
X52720174Y-19358678D01*
X53275632Y-19300981D01*
X53809161Y-19136028D01*
X54275024Y-18887018D01*
X54515170Y-18499775D01*
X52705000Y-16689605D01*
X50894830Y-18499775D01*
X15950000Y-18499775D01*
X15950000Y-17811618D01*
X16021842Y-17006642D01*
X16153556Y-16525174D01*
X49856322Y-16525174D01*
X49914019Y-17080632D01*
X50078972Y-17614161D01*
X50327982Y-18080024D01*
X50715225Y-18320170D01*
X52525395Y-16510000D01*
X50715225Y-14699830D01*
X50327982Y-14939976D01*
X50067359Y-15433877D01*
X49908099Y-15969133D01*
X49856322Y-16525174D01*
X16153556Y-16525174D01*
X16226723Y-16257723D01*
X16560986Y-15556928D01*
X17014069Y-14926395D01*
X17571645Y-14386066D01*
X18216099Y-13953011D01*
X18927044Y-13640927D01*
X19687493Y-13458360D01*
X20346031Y-13410000D01*
X51403382Y-13410000D01*
X52208358Y-13481842D01*
G36*
X58928000Y-21007000D02*
G01*
X56896000Y-21007000D01*
X56896000Y-18490000D01*
X58928000Y-18490000D01*
X58928000Y-21007000D01*
G37*
X58928000Y-21007000D02*
X56896000Y-21007000D01*
X56896000Y-18490000D01*
X58928000Y-18490000D01*
X58928000Y-21007000D01*
G36*
X58928000Y-88190000D02*
G01*
X56896000Y-88190000D01*
X56896000Y-85419000D01*
X58928000Y-85419000D01*
X58928000Y-88190000D01*
G37*
X58928000Y-88190000D02*
X56896000Y-88190000D01*
X56896000Y-85419000D01*
X58928000Y-85419000D01*
X58928000Y-88190000D01*
M02*
