G04 #@! TF.GenerationSoftware,KiCad,Pcbnew,5.1.5+dfsg1-2build2*
G04 #@! TF.CreationDate,2020-09-22T17:53:16+09:00*
G04 #@! TF.ProjectId,shield,73686965-6c64-42e6-9b69-6361645f7063,rev?*
G04 #@! TF.SameCoordinates,Original*
G04 #@! TF.FileFunction,Legend,Bot*
G04 #@! TF.FilePolarity,Positive*
%FSLAX46Y46*%
G04 Gerber Fmt 4.6, Leading zero omitted, Abs format (unit mm)*
G04 Created by KiCad (PCBNEW 5.1.5+dfsg1-2build2) date 2020-09-22 17:53:16*
%MOMM*%
%LPD*%
G04 APERTURE LIST*
%ADD10C,0.150000*%
G04 APERTURE END LIST*
D10*
G36*
X29845000Y-62230000D02*
G01*
X28829000Y-63246000D01*
X29845000Y-63246000D01*
X29845000Y-62230000D01*
G37*
X29845000Y-62230000D02*
X28829000Y-63246000D01*
X29845000Y-63246000D01*
X29845000Y-62230000D01*
G36*
X29845000Y-23368000D02*
G01*
X28829000Y-24384000D01*
X29845000Y-24384000D01*
X29845000Y-23368000D01*
G37*
X29845000Y-23368000D02*
X28829000Y-24384000D01*
X29845000Y-24384000D01*
X29845000Y-23368000D01*
G36*
X48260000Y-70866000D02*
G01*
X47244000Y-71882000D01*
X48260000Y-71882000D01*
X48260000Y-70866000D01*
G37*
X48260000Y-70866000D02*
X47244000Y-71882000D01*
X48260000Y-71882000D01*
X48260000Y-70866000D01*
G36*
X48260000Y-23368000D02*
G01*
X47244000Y-24384000D01*
X48260000Y-24384000D01*
X48260000Y-23368000D01*
G37*
X48260000Y-23368000D02*
X47244000Y-24384000D01*
X48260000Y-24384000D01*
X48260000Y-23368000D01*
G36*
X85979000Y-60198000D02*
G01*
X86995000Y-59182000D01*
X85979000Y-59182000D01*
X85979000Y-60198000D01*
G37*
X85979000Y-60198000D02*
X86995000Y-59182000D01*
X85979000Y-59182000D01*
X85979000Y-60198000D01*
G36*
X67564000Y-68834000D02*
G01*
X68580000Y-67818000D01*
X67564000Y-67818000D01*
X67564000Y-68834000D01*
G37*
X67564000Y-68834000D02*
X68580000Y-67818000D01*
X67564000Y-67818000D01*
X67564000Y-68834000D01*
G36*
X85979000Y-21336000D02*
G01*
X86995000Y-20320000D01*
X85979000Y-20320000D01*
X85979000Y-21336000D01*
G37*
X85979000Y-21336000D02*
X86995000Y-20320000D01*
X85979000Y-20320000D01*
X85979000Y-21336000D01*
G36*
X67564000Y-21336000D02*
G01*
X68580000Y-20320000D01*
X67564000Y-20320000D01*
X67564000Y-21336000D01*
G37*
X67564000Y-21336000D02*
X68580000Y-20320000D01*
X67564000Y-20320000D01*
X67564000Y-21336000D01*
M02*
