M48
; DRILL file {KiCad 5.1.5+dfsg1-2build2} date 2020年09月22日 17時53分19秒
; FORMAT={-:-/ absolute / inch / decimal}
; #@! TF.CreationDate,2020-09-22T17:53:19+09:00
; #@! TF.GenerationSoftware,Kicad,Pcbnew,5.1.5+dfsg1-2build2
FMAT,2
INCH
T1C0.0157
T2C0.0866
%
G90
G05
T1
X1.125Y-0.91
X1.125Y-2.44
X1.45Y-1.15
X1.55Y-2.275
X1.85Y-0.91
X1.85Y-2.78
X2.245Y-0.725
X2.245Y-0.775
X2.245Y-0.835
X2.245Y-3.355
X2.245Y-3.415
X2.245Y-3.475
X2.315Y-0.725
X2.315Y-0.775
X2.315Y-0.835
X2.315Y-3.355
X2.315Y-3.415
X2.315Y-3.475
X2.71Y-0.85
X2.71Y-2.725
X3.435Y-0.85
X3.435Y-2.375
X3.485Y-2.625
X3.66Y-1.025
X2.42Y-0.65
X2.4391Y-0.6041
X2.4391Y-0.6959
X2.485Y-0.585
X2.485Y-0.715
X2.5309Y-0.6041
X2.5309Y-0.6959
X2.55Y-0.65
X3.745Y-2.65
X3.7641Y-2.6041
X3.7641Y-2.6959
X3.81Y-2.585
X3.81Y-2.715
X3.8559Y-2.6041
X3.8559Y-2.6959
X3.875Y-2.65
X0.685Y-2.65
X0.7041Y-2.6041
X0.7041Y-2.6959
X0.75Y-2.585
X0.75Y-2.715
X0.7959Y-2.6041
X0.7959Y-2.6959
X0.815Y-2.65
X2.01Y-3.35
X2.0291Y-3.3041
X2.0291Y-3.3959
X2.075Y-3.285
X2.075Y-3.415
X2.1209Y-3.3041
X2.1209Y-3.3959
X2.14Y-3.35
X2.42Y-3.35
X2.4391Y-3.3041
X2.4391Y-3.3959
X2.485Y-3.285
X2.485Y-3.415
X2.5309Y-3.3041
X2.5309Y-3.3959
X2.55Y-3.35
X2.01Y-0.65
X2.0291Y-0.6041
X2.0291Y-0.6959
X2.075Y-0.585
X2.075Y-0.715
X2.1209Y-0.6041
X2.1209Y-0.6959
X2.14Y-0.65
T2
X2.075Y-3.35
X2.485Y-3.35
X2.075Y-0.65
X2.485Y-0.65
X3.81Y-2.65
X0.75Y-2.65
T0
M30
